<svg xmlns="http://www.w3.org/2000/svg" width="93" height="93" viewBox="0 0 93 93">
  <g id="Grupo_157527" data-name="Grupo 157527" transform="translate(-1226 -7508)">
    <circle id="Elipse_5071" data-name="Elipse 5071" cx="46.5" cy="46.5" r="46.5" transform="translate(1226 7508)" fill="#083142"/>
    <path id="usabilidad" d="M5.713,26.66a5.715,5.715,0,0,0,5.6-6.852l6.428-3.856a9.524,9.524,0,0,0,1.3,1.185v9.85a5.712,5.712,0,0,0-7.617,5.386V44.452a9.458,9.458,0,0,0,2.789,6.733c1,1.284,4.828,3.542,4.828,8.772V63.1a1.9,1.9,0,0,0,1.9,1.9h26.66a1.9,1.9,0,0,0,1.9-1.9V58.821a13.96,13.96,0,0,1,1.6-6.341,21.049,21.049,0,0,0,2.212-9.368V28.564A5.71,5.71,0,0,0,45.5,23.255a5.709,5.709,0,0,0-9.32-2.754,5.7,5.7,0,0,0-5.713-1.131V17.137a9.573,9.573,0,0,0,3.3-4.569l15.872,1.984a5.715,5.715,0,1,0,.474-3.779L34.247,8.788a9.52,9.52,0,1,0-18.466,3.9L9.349,16.544A5.712,5.712,0,1,0,5.713,26.66ZM55.225,11.426a1.9,1.9,0,1,1-1.9,1.9A1.907,1.907,0,0,1,55.225,11.426ZM32.373,22.851a1.907,1.907,0,0,1,1.9,1.9v7.617a1.9,1.9,0,0,0,3.809,0V24.756a1.9,1.9,0,1,1,3.809,0V36.182a1.9,1.9,0,1,0,3.809,0V28.564a1.9,1.9,0,1,1,3.809,0V43.112a17.227,17.227,0,0,1-1.81,7.665,17.333,17.333,0,0,0-2,8.044v2.37H22.852V59.957c0-7.077-5.085-10.322-5.944-11.465a5.675,5.675,0,0,1-1.673-4.04V32.373a1.9,1.9,0,0,1,3.809,0V39.99a1.9,1.9,0,0,0,3.809,0V13.33a1.9,1.9,0,0,1,1.82-1.9l.648.081a1.908,1.908,0,0,1,1.34,1.819V32.373a1.9,1.9,0,0,0,3.809,0V24.756a1.907,1.907,0,0,1,1.9-1.9ZM24.756,3.808a5.7,5.7,0,0,1,5.384,7.613,5.718,5.718,0,0,0-5.328-3.8h-.056a5.721,5.721,0,0,0-5.384,3.8,5.7,5.7,0,0,1,5.384-7.613ZM5.713,19.043a1.9,1.9,0,1,1-1.9,1.9A1.907,1.907,0,0,1,5.713,19.043Zm0,0" transform="translate(1242 7522)" fill="#fff"/>
  </g>
</svg>
