<svg xmlns="http://www.w3.org/2000/svg" width="92" height="92" viewBox="0 0 92 92">
  <g id="Grupo_1070117" data-name="Grupo 1070117" transform="translate(-1133 -872)">
    <circle id="Elipse_9028" data-name="Elipse 9028" cx="46" cy="46" r="46" transform="translate(1133 872)" fill="#f77e6b"/>
    <g id="digital_1_" data-name="digital (1)" transform="translate(1147 890)">
      <path id="Trazado_813481" data-name="Trazado 813481" d="M54,40v4H48V40Z" fill="#aab2bd"/>
      <path id="Trazado_813482" data-name="Trazado 813482" d="M62,36v2a2.006,2.006,0,0,1-2,2H42a2.006,2.006,0,0,1-2-2V36Z" fill="#ccd1d9"/>
      <circle id="Elipse_9032" data-name="Elipse 9032" cx="9" cy="9" r="9" transform="translate(44 2)" fill="#69d6f4"/>
      <path id="Trazado_813483" data-name="Trazado 813483" d="M62,26V36H40V26a2.006,2.006,0,0,1,2-2H60A2.006,2.006,0,0,1,62,26Z" fill="#69d6f4"/>
      <path id="Trazado_813484" data-name="Trazado 813484" d="M16,4V6H2V4A2.006,2.006,0,0,1,4,2H14A2.006,2.006,0,0,1,16,4Z" fill="#aab2bd"/>
      <path id="Trazado_813485" data-name="Trazado 813485" d="M16,20v2a2.006,2.006,0,0,1-2,2H4a2.006,2.006,0,0,1-2-2V20Z" fill="#aab2bd"/>
      <path id="Trazado_813486" data-name="Trazado 813486" d="M16,13v7H2V6H16Z" fill="#b4dd7f"/>
      <path id="Trazado_813487" data-name="Trazado 813487" d="M12,28A10,10,0,1,1,2,38,10,10,0,0,1,12,28Z" fill="#ffeaa7"/>
      <circle id="Elipse_9033" data-name="Elipse 9033" cx="2" cy="2" r="2" transform="translate(10 40)" fill="#ff826e"/>
      <path id="Trazado_813488" data-name="Trazado 813488" d="M34,42.2a10,10,0,1,1-4,0v4.15a6,6,0,1,0,4,0Z" fill="#ff826e"/>
      <path id="Trazado_813489" data-name="Trazado 813489" d="M34,46.35V50a2,2,0,0,1-4,0V40a2.006,2.006,0,0,1,2-2,2.015,2.015,0,0,1,2,2v6.35Z" fill="#fc6e51"/>
      <path id="Trazado_813490" data-name="Trazado 813490" d="M60,23H42a3,3,0,0,0-3,3V38a3,3,0,0,0,3,3h5v2H45v2h5v5a1,1,0,0,1-1,1H42.953A11.036,11.036,0,0,0,35,41.421V40a3,3,0,0,0-6,0v1.421A11.037,11.037,0,0,0,21.047,51H14a1,1,0,0,1-1-1V48.949a11,11,0,1,0-2,0V50a3,3,0,0,0,3,3h7.051a10.994,10.994,0,0,0,21.9,0H49a3,3,0,0,0,3-3V45h5V43H55V41h5a3,3,0,0,0,3-3V26A3,3,0,0,0,60,23ZM3,38a9,9,0,1,1,9,9A9.011,9.011,0,0,1,3,38ZM32,53a3,3,0,0,0,3-3V48.01a5,5,0,1,1-6,0V50A3,3,0,0,0,32,53ZM31,40a1,1,0,0,1,2,0V50a1,1,0,0,1-2,0Zm1,21a9,9,0,0,1-3-17.478V45.7a7,7,0,1,0,6,0V43.522A9,9,0,0,1,32,61ZM42,25H60a1,1,0,0,1,1,1v9H41V26A1,1,0,0,1,42,25ZM53,43H49V41h4Zm7-4H42a1,1,0,0,1-1-1V37H61v1A1,1,0,0,1,60,39Z"/>
      <path id="Trazado_813491" data-name="Trazado 813491" d="M4,25H14a3,3,0,0,0,3-3V14H27a1,1,0,0,1,1,1V28h2V15a3,3,0,0,0-3-3H17V4a3,3,0,0,0-3-3H4A3,3,0,0,0,1,4V22A3,3,0,0,0,4,25Zm10-2H4a1,1,0,0,1-1-1V21H15v1A1,1,0,0,1,14,23ZM3,19V7H15V19ZM4,3H14a1,1,0,0,1,1,1V5H3V4A1,1,0,0,1,4,3Z"/>
      <path id="Trazado_813492" data-name="Trazado 813492" d="M15,42a3,3,0,1,0-3,3A3,3,0,0,0,15,42Zm-4,0a1,1,0,1,1,1,1A1,1,0,0,1,11,42Z"/>
      <path id="Trazado_813493" data-name="Trazado 813493" d="M15.536,38.464,16.95,37.05a7.008,7.008,0,0,0-9.9,0l1.414,1.414A5.006,5.006,0,0,1,15.536,38.464Z"/>
      <path id="Trazado_813494" data-name="Trazado 813494" d="M18.364,35.636l1.414-1.414a11.013,11.013,0,0,0-15.557,0l1.414,1.414A9.012,9.012,0,0,1,18.364,35.636Z"/>
      <path id="Trazado_813495" data-name="Trazado 813495" d="M28,34h2v2H28Z"/>
      <path id="Trazado_813496" data-name="Trazado 813496" d="M28,30h2v2H28Z"/>
      <path id="Trazado_813497" data-name="Trazado 813497" d="M34,34h2v2H34Z"/>
      <path id="Trazado_813498" data-name="Trazado 813498" d="M34,30h2v2H34Z"/>
      <path id="Trazado_813499" data-name="Trazado 813499" d="M36,13a1,1,0,0,1,1-1h6.051a10,10,0,1,0,0-2H37a3,3,0,0,0-3,3V28h2ZM53,3c.313,0,.983,1.023,1.462,3H51.538C52.017,4.023,52.687,3,53,3Zm1.819,5c.077.614.134,1.277.161,2H51.018c.027-.723.085-1.386.161-2ZM53,19c-.313,0-.983-1.023-1.462-3h2.924c-.479,1.977-1.149,3-1.462,3Zm-1.819-5c-.077-.614-.134-1.277-.161-2h3.962c-.027.723-.085,1.386-.161,2Zm5.8-2h3.95a7.923,7.923,0,0,1-.52,2H56.832C56.906,13.343,56.957,12.673,56.981,12Zm3.95-2h-3.95c-.024-.673-.075-1.343-.149-2h3.579A7.965,7.965,0,0,1,60.931,10ZM49.019,10h-3.95a7.923,7.923,0,0,1,.52-2h3.579C49.094,8.657,49.043,9.327,49.019,10Zm0,2c.024.673.075,1.343.149,2H45.589a7.965,7.965,0,0,1-.52-2Zm-2.254,4h2.719a13.332,13.332,0,0,0,.752,2.5A8.028,8.028,0,0,1,46.765,16Zm9,2.5a13.332,13.332,0,0,0,.752-2.5h2.719A8.028,8.028,0,0,1,55.764,18.5ZM59.235,6H56.516a13.332,13.332,0,0,0-.752-2.5A8.028,8.028,0,0,1,59.235,6Zm-9-2.5A13.407,13.407,0,0,0,49.484,6H46.765A8.028,8.028,0,0,1,50.236,3.5Z"/>
    </g>
  </g>
</svg>
