<svg xmlns="http://www.w3.org/2000/svg" xmlns:xlink="http://www.w3.org/1999/xlink" width="141" height="141" viewBox="0 0 141 141">
  <defs>
    <clipPath id="clip-path">
      <rect id="Rectángulo_45191" data-name="Rectángulo 45191" width="94.231" height="94.231" transform="translate(0 0)" fill="none"/>
    </clipPath>
  </defs>
  <g id="Grupo_157292" data-name="Grupo 157292" transform="translate(-730 -1207)">
    <circle id="Elipse_5530" data-name="Elipse 5530" cx="70.5" cy="70.5" r="70.5" transform="translate(730 1207)" fill="#ff6148"/>
    <path id="Trazado_600341" data-name="Trazado 600341" d="M12237.357-10442.395h-43.937s-2.69,1-3.188,5.28,0,48.62,0,48.62.7,3.788,3.188,3.887,29.391,0,29.391,0l5.48,5.778,5.978-5.778h27.5a8.3,8.3,0,0,0,3.786-3.089c1.2-2.093.5-41.546.5-41.546l-2.192-2.093-25.107-.8-1.4-2.292Z" transform="translate(-11435 11700)" fill="#fff"/>
    <path id="Trazado_600342" data-name="Trazado 600342" d="M12237.2-10460.419v26.977l1.763,1.763,2.683.613h22.608l4.829,4.139,3.525-4.139,7.356-1.072.844-2.912v-25.828l-2.606-1.687h-38.4Z" transform="translate(-11435 11700)" fill="#ffe5cf"/>
    <path id="Trazado_600344" data-name="Trazado 600344" d="M23.881,43.082v9.581h5.513l1.2,11.358,2.689-1.595,3.453-6.077V45.092l-1.161-2.01Z" transform="translate(753.269 1232.013)" fill="#ff6148"/>
    <path id="Trazado_600345" data-name="Trazado 600345" d="M23.881,43.082v9.581h5.513l1.2,11.358,2.689-1.595,3.453-6.077V45.092l-1.161-2.01Z" transform="translate(773.269 1232.013)" fill="#ff6148"/>
    <g id="Grupo_157291" data-name="Grupo 157291" transform="translate(753.269 1232.013)" clip-path="url(#clip-path)">
      <path id="Trazado_600334" data-name="Trazado 600334" d="M371.745,63.383a1.841,1.841,0,0,1-1.293-.531l-3.862-3.813H343.646a5.4,5.4,0,0,1-5.391-5.387V28.937a5.393,5.393,0,0,1,5.388-5.385h36.762a5.4,5.4,0,0,1,5.39,5.387V53.654a5.393,5.393,0,0,1-5.388,5.385h-4.332l-2.887,3.646a1.84,1.84,0,0,1-1.331.694c-.037,0-.075,0-.112,0m-28.1-36.15a1.708,1.708,0,0,0-1.707,1.7V53.652a1.71,1.71,0,0,0,1.71,1.706h23.7a1.84,1.84,0,0,1,1.293.531l2.938,2.9,2.165-2.734a1.84,1.84,0,0,1,1.443-.7h5.222a1.708,1.708,0,0,0,1.707-1.7V28.939a1.71,1.71,0,0,0-1.709-1.706Z" transform="translate(-291.564 -20.301)"/>
      <path id="Trazado_600335" data-name="Trazado 600335" d="M434.511,145.559c-.061,0-.121,0-.181-.008a1.565,1.565,0,0,1-.179-.028,1.764,1.764,0,0,1-.344-.1,1.79,1.79,0,0,1-.317-.168,1.6,1.6,0,0,1-.146-.108c-.046-.039-.091-.079-.134-.121s-.083-.087-.121-.134-.075-.1-.108-.146a1.8,1.8,0,0,1-.168-.317,1.764,1.764,0,0,1-.1-.344,1.591,1.591,0,0,1-.028-.179c-.006-.059-.01-.12-.01-.181s0-.12.01-.181a1.569,1.569,0,0,1,.028-.178,1.807,1.807,0,0,1,.1-.345,1.847,1.847,0,0,1,.168-.317,1.574,1.574,0,0,1,.108-.145c.039-.047.079-.092.121-.135s.087-.083.134-.121.1-.073.146-.106a1.8,1.8,0,0,1,.317-.17,1.864,1.864,0,0,1,.344-.1,1.562,1.562,0,0,1,.179-.026,1.76,1.76,0,0,1,.362,0,1.54,1.54,0,0,1,.178.026,1.911,1.911,0,0,1,.345.1,1.846,1.846,0,0,1,.317.17c.05.033.1.069.145.106s.092.08.135.121.083.088.121.135.073.1.106.145a1.845,1.845,0,0,1,.17.317,1.913,1.913,0,0,1,.1.345,1.539,1.539,0,0,1,.026.178,1.605,1.605,0,0,1,.01.181,1.974,1.974,0,0,1-.036.36,1.866,1.866,0,0,1-.1.344,1.8,1.8,0,0,1-.17.317c-.033.051-.069.1-.106.146s-.08.091-.121.134-.088.083-.135.121a1.575,1.575,0,0,1-.145.108,1.839,1.839,0,0,1-.317.168,1.807,1.807,0,0,1-.345.1,1.543,1.543,0,0,1-.178.028c-.061.006-.121.008-.181.008" transform="translate(-372.947 -122.295)"/>
      <path id="Trazado_600336" data-name="Trazado 600336" d="M498.97,145.559c-.059,0-.12,0-.181-.01a1.551,1.551,0,0,1-.178-.028,1.812,1.812,0,0,1-.345-.1,1.842,1.842,0,0,1-.317-.168,1.573,1.573,0,0,1-.145-.108c-.047-.039-.093-.079-.135-.121s-.083-.087-.122-.134-.073-.1-.106-.146a1.794,1.794,0,0,1-.17-.317,1.864,1.864,0,0,1-.1-.344c-.013-.059-.021-.119-.028-.179s-.008-.12-.008-.181,0-.12.008-.181.015-.12.028-.178a1.911,1.911,0,0,1,.1-.345,1.843,1.843,0,0,1,.17-.317c.033-.05.069-.1.106-.145s.08-.092.122-.134.088-.084.135-.123.1-.073.145-.106a1.849,1.849,0,0,1,.317-.17,1.918,1.918,0,0,1,.345-.1c.058-.012.119-.021.178-.028a1.979,1.979,0,0,1,.362,0c.059.007.12.015.179.028a1.863,1.863,0,0,1,.344.1,1.789,1.789,0,0,1,.317.17c.051.033.1.069.146.106s.091.08.134.123a1.609,1.609,0,0,1,.121.134,1.557,1.557,0,0,1,.108.145,1.874,1.874,0,0,1,.273.663,1.568,1.568,0,0,1,.028.178c.006.061.008.121.008.181s0,.121-.008.181a1.592,1.592,0,0,1-.028.179,1.882,1.882,0,0,1-.273.661c-.033.051-.07.1-.108.146s-.079.091-.121.134-.088.083-.135.121a1.393,1.393,0,0,1-.145.108,1.783,1.783,0,0,1-.317.168,1.762,1.762,0,0,1-.344.1,1.606,1.606,0,0,1-.179.028c-.059.006-.12.01-.181.01" transform="translate(-428.509 -122.294)"/>
      <path id="Trazado_600337" data-name="Trazado 600337" d="M563.421,145.559c-.061,0-.122,0-.182-.01a1.59,1.59,0,0,1-.178-.028,1.767,1.767,0,0,1-.344-.1,1.855,1.855,0,0,1-.319-.168,1.759,1.759,0,0,1-.145-.108c-.047-.039-.091-.079-.134-.121a1.752,1.752,0,0,1-.229-.28,1.9,1.9,0,0,1-.17-.317,1.864,1.864,0,0,1-.1-.344c-.011-.059-.021-.119-.026-.179a1.6,1.6,0,0,1-.01-.181,1.634,1.634,0,0,1,.01-.181c.006-.059.015-.12.026-.178a1.911,1.911,0,0,1,.1-.345,1.954,1.954,0,0,1,.17-.317,1.791,1.791,0,0,1,.108-.145,1.421,1.421,0,0,1,.122-.134c.043-.043.087-.084.134-.123s.1-.073.145-.106a1.867,1.867,0,0,1,.663-.275c.059-.012.119-.021.178-.028a1.992,1.992,0,0,1,.363,0c.059.007.119.015.178.028a1.839,1.839,0,0,1,.662.275c.05.033.1.069.145.106a1.632,1.632,0,0,1,.134.123,1.42,1.42,0,0,1,.121.134,1.778,1.778,0,0,1,.108.145,1.845,1.845,0,0,1,.275.663c.011.058.021.119.026.178a1.605,1.605,0,0,1,.01.181,1.572,1.572,0,0,1-.01.181c-.006.061-.015.12-.026.179a1.852,1.852,0,0,1-.275.661,1.59,1.59,0,0,1-.108.146,1.859,1.859,0,0,1-.255.255,1.761,1.761,0,0,1-.145.108,1.888,1.888,0,0,1-.317.168,1.806,1.806,0,0,1-.345.1,1.589,1.589,0,0,1-.178.028c-.061.006-.122.01-.181.01" transform="translate(-484.063 -122.294)"/>
      <path id="Trazado_600338" data-name="Trazado 600338" d="M202.852,526.651h-28a1.84,1.84,0,1,1,0-3.681h28a1.84,1.84,0,1,1,0,3.681" transform="translate(-149.129 -450.782)"/>
      <path id="Trazado_600339" data-name="Trazado 600339" d="M161.085,324.318a1.841,1.841,0,0,1-1.84-1.84v-9.94h-3.983a3.447,3.447,0,0,1-3.444-3.442v-6.706a3.447,3.447,0,0,1,3.444-3.442h10.45a3.447,3.447,0,0,1,3.444,3.442v7.542c0,13.328-7.542,14.338-7.863,14.375a1.845,1.845,0,0,1-.208.012M155.5,308.857h3.982a3.447,3.447,0,0,1,3.444,3.442v7.025c1.232-1.349,2.549-4.042,2.549-9.392v-7.3H155.5Zm3.982,3.681h0Zm6.23-9.91h0Z" transform="translate(-130.862 -257.682)"/>
      <path id="Trazado_600340" data-name="Trazado 600340" d="M307.391,324.318a1.84,1.84,0,0,1-1.84-1.84v-9.94h-3.983a3.447,3.447,0,0,1-3.444-3.442v-6.706a3.447,3.447,0,0,1,3.444-3.442h10.45a3.447,3.447,0,0,1,3.444,3.442v7.542c0,13.328-7.541,14.338-7.862,14.375a1.846,1.846,0,0,1-.208.012M301.8,308.857h3.982a3.447,3.447,0,0,1,3.444,3.442v7.025c1.232-1.349,2.549-4.042,2.549-9.392v-7.3H301.8Zm3.982,3.681h0Zm6.23-9.91h0Z" transform="translate(-256.973 -257.682)"/>
      <path id="Trazado_600333" data-name="Trazado 600333" d="M39.722,235.405a1.835,1.835,0,0,1-1.3-.538L33.39,229.84H6.123A6.128,6.128,0,0,1,0,223.721V173.672a6.128,6.128,0,0,1,6.123-6.119H48.334a1.84,1.84,0,0,1,0,3.681H6.123a2.443,2.443,0,0,0-2.442,2.438v50.048a2.443,2.443,0,0,0,2.442,2.439H34.152a1.84,1.84,0,0,1,1.3.538l4.27,4.266,4.27-4.266a1.841,1.841,0,0,1,1.3-.538H73.322a2.443,2.443,0,0,0,2.442-2.439V183.384a1.84,1.84,0,1,1,3.681,0v40.337a6.128,6.128,0,0,1-6.123,6.119H46.055l-5.031,5.027a1.835,1.835,0,0,1-1.3.538" transform="translate(0 -144.425)"/>
    </g>
  </g>
</svg>
