<svg xmlns="http://www.w3.org/2000/svg" width="92" height="92" viewBox="0 0 92 92">
  <g id="Grupo_1069953" data-name="Grupo 1069953" transform="translate(-2562 10828)">
    <circle id="Elipse_9037" data-name="Elipse 9037" cx="46" cy="46" r="46" transform="translate(2562 -10828)" fill="#f77e6b"/>
    <g id="macbook-pro_1_" data-name="macbook-pro (1)" transform="translate(2580 -10817.859)">
      <path id="Trazado_813535" data-name="Trazado 813535" d="M132.237,188.86H100.98a.971.971,0,0,1-.968-.968h0a.971.971,0,0,1,.968-.968h31.257a.971.971,0,0,1,.968.968h0A.971.971,0,0,1,132.237,188.86Z" transform="translate(-89.254 -158.496)" fill="#444443"/>
      <path id="Trazado_813536" data-name="Trazado 813536" d="M87.309,197.17c-.254-.052-43.754-.038-43.937,0a1.324,1.324,0,0,0-1.054,1.292c0,30.711-.006,29.423.007,29.55a1.323,1.323,0,0,0,1.312,1.184c.189,0,43.441.021,43.672-.027a1.324,1.324,0,0,0,1.054-1.292V198.462A1.324,1.324,0,0,0,87.309,197.17Z" transform="translate(-37.765 -167.61)" fill="#efefef"/>
      <path id="Trazado_813537" data-name="Trazado 813537" d="M45.061,227.927c0-30.711-.006-29.423.007-29.55a1.323,1.323,0,0,1,1.312-1.184,27.5,27.5,0,0,0-3.009.027,1.324,1.324,0,0,0-1.054,1.292c0,30.711-.006,29.423.007,29.55a1.323,1.323,0,0,0,1.312,1.184h2.744A1.323,1.323,0,0,1,45.061,227.927Z" transform="translate(-37.765 -167.659)" fill="#ddd"/>
      <path id="Trazado_813538" data-name="Trazado 813538" d="M59.485,16.8H8.988a1.484,1.484,0,0,0-1.447,1.81l3.712,16.44A1.484,1.484,0,0,0,12.7,36.208h5.63a1.283,1.283,0,0,1,1.121-.659h29.57a1.283,1.283,0,0,1,1.121.659h5.63a1.484,1.484,0,0,0,1.447-1.157l3.712-16.44A1.484,1.484,0,0,0,59.485,16.8Z" transform="translate(-6.697 -6.674)" fill="#666"/>
      <path id="Trazado_813539" data-name="Trazado 813539" d="M14.293,35.051,10.58,18.611a1.484,1.484,0,0,1,1.447-1.81H8.988a1.484,1.484,0,0,0-1.447,1.81l3.712,16.44A1.484,1.484,0,0,0,12.7,36.208H15.74A1.483,1.483,0,0,1,14.293,35.051Z" transform="translate(-6.697 -6.674)" fill="#535454"/>
      <path id="Trazado_813540" data-name="Trazado 813540" d="M75.329,255.976V267.59h38.944V255.976Z" transform="translate(-67.226 -220.12)" fill="#efefef"/>
      <path id="Trazado_813541" data-name="Trazado 813541" d="M78.057,255.976H75.328V267.59h2.729V255.976Z" transform="translate(-67.225 -220.12)" fill="#ddd"/>
      <path id="Trazado_813542" data-name="Trazado 813542" d="M78.869,229.175h-3.54v2.883h38.944v-2.883Z" transform="translate(-67.226 -196.202)" fill="#b6adf7"/>
      <path id="Trazado_813543" data-name="Trazado 813543" d="M75.329,229.175v2.883h2.734v-2.883Z" transform="translate(-67.226 -196.202)" fill="#a695f4"/>
      <path id="Trazado_813544" data-name="Trazado 813544" d="M191.46,229.175v2.883h13.518v-2.883Z" transform="translate(-170.864 -196.202)" fill="#8970e5"/>
      <path id="Trazado_813545" data-name="Trazado 813545" d="M156.547,388.549h-1.311a.589.589,0,0,0-.589.589v10.879h21.806V389.068a.519.519,0,0,0-.519-.519Z" transform="translate(-138.011 -338.431)" fill="#ccc"/>
      <path id="Trazado_813546" data-name="Trazado 813546" d="M158.464,388.549h-3.227a.589.589,0,0,0-.589.589v10.879h3.227V389.138A.589.589,0,0,1,158.464,388.549Z" transform="translate(-138.011 -338.431)" fill="#bababa"/>
      <path id="Trazado_813547" data-name="Trazado 813547" d="M83.007,57.855H43.2a.556.556,0,0,1-.543-.434L39.863,45.062a.557.557,0,0,1,.543-.679H85.8a.557.557,0,0,1,.543.679L83.55,57.421A.557.557,0,0,1,83.007,57.855Z" transform="translate(-35.562 -31.289)" fill="#a4d9f4"/>
      <path id="Trazado_813548" data-name="Trazado 813548" d="M45.881,57.421,43.09,45.062a.557.557,0,0,1,.543-.679H40.406a.557.557,0,0,0-.543.679l2.791,12.359a.557.557,0,0,0,.543.434h3.227A.557.557,0,0,1,45.881,57.421Z" transform="translate(-35.562 -31.289)" fill="#7cc9e8"/>
      <path id="Trazado_813549" data-name="Trazado 813549" d="M86.34,45.062a.557.557,0,0,0-.543-.679H40.405a.557.557,0,0,0-.543.679l.536,2.373H85.8Z" transform="translate(-35.562 -31.289)" fill="#70b5e8"/>
      <path id="Trazado_813550" data-name="Trazado 813550" d="M43.626,47.419l-.536-2.373a.557.557,0,0,1,.543-.679c-3.511,0-3.288-.015-3.422.035a.557.557,0,0,0-.349.644l.536,2.373Z" transform="translate(-35.563 -31.274)" fill="#52a5d8"/>
      <path id="Trazado_813551" data-name="Trazado 813551" d="M55.021,12.117a2.29,2.29,0,0,0-2.234-2.795H2.291a2.29,2.29,0,0,0-2.234,2.8c4.014,17.393,3.56,16.62,4.159,17.37a2.119,2.119,0,0,0-.5,1.151c-.021.2-.007-1.331-.011,23.334a.807.807,0,0,0,1.614,0c0-24.178,0-23.122,0-23.17a.517.517,0,0,1,.407-.449c.1-.021-1.647-.01,37.712-.01,6.2,0,5.824-.005,5.9.01a.516.516,0,0,1,.41.5c0,30.784,0,29.417,0,29.468a.516.516,0,0,1-.509.46H39.249V50.909a1.6,1.6,0,0,0-1.6-1.6H17.374a1.547,1.547,0,0,0-1.545,1.545v9.923c-10.651,0-10,.009-10.1-.01a.516.516,0,0,1-.41-.5V57.737a.807.807,0,1,0-1.614,0c0,2.676-.008,2.56.011,2.749A2.138,2.138,0,0,0,5.835,62.4H49.243a2.137,2.137,0,0,0,2.126-2.126c0-31.348.01-29.429-.011-29.632a2.119,2.119,0,0,0-.5-1.151,2.3,2.3,0,0,0,.447-.93ZM37.635,60.782H17.443V50.927H37.635v9.855ZM49.735,28.2a.673.673,0,0,1-.66.528H43.847a2.092,2.092,0,0,0-1.523-.659H12.754a2.093,2.093,0,0,0-1.523.659H6a.673.673,0,0,1-.66-.528C1.579,11.1,1.377,11.672,1.762,11.19s-2.668-.157,51.025-.254a.677.677,0,0,1,.66.826Z" transform="translate(0)"/>
      <path id="Trazado_813552" data-name="Trazado 813552" d="M79.482,36.914c-.342-.1-45.917-.049-45.928-.047a1.363,1.363,0,0,0-1.175,1.655l2.791,12.359a1.356,1.356,0,0,0,1.33,1.063H76.31a1.356,1.356,0,0,0,1.33-1.063L80.43,38.522A1.359,1.359,0,0,0,79.482,36.914Zm-1.019,3H72.484a.807.807,0,1,0,0,1.614H78.1L76.11,50.331H36.7l-1.989-8.807H68.719a.807.807,0,1,0,0-1.614H34.347l-.325-1.438H78.788Z" transform="translate(-28.866 -24.569)"/>
      <path id="Trazado_813553" data-name="Trazado 813553" d="M73.834,223.309a.807.807,0,0,0,0-1.614H69.361a1.534,1.534,0,0,0-1.532,1.532v12.8a1.781,1.781,0,0,0,1.779,1.779h37.1a1.683,1.683,0,0,0,1.681-1.681V223.338a1.645,1.645,0,0,0-1.643-1.643H77.6a.807.807,0,0,0,0,1.614c30.416.014,29.174-.029,29.174.029v1.24H69.443v-1.269Zm-2.465,12.883H69.608a.165.165,0,0,1-.165-.165v-1.275h1.927v1.44Zm3.54,0H72.983v-1.44H74.91Zm0-3.054H69.443V231.9H74.91Zm3.54,3.054H76.523v-1.44H78.45Zm0-3.054H76.523V231.9H78.45Zm17.7,3.054H80.064v-1.44H96.152v1.44Zm-16.088-3.054V231.9H81.99v1.24Zm3.54,0V231.9H85.53v1.24Zm3.54,0V231.9h1.927v1.24Zm3.54,0V231.9h1.927v1.24Zm5.467,0H94.225V231.9h1.927Zm3.54,3.054H97.765v-1.44h1.926Zm0-3.054H97.765V231.9h1.926v1.24Zm3.54,3.054h-1.927v-1.44h1.927Zm3.473,0h-1.859v-1.44h1.927C106.745,236.046,106.834,236.192,106.7,236.192Zm.068-3.054h-5.467V231.9h5.467v1.24Zm0-2.853h-3.7v-1.24h3.7Zm-5.467-4.093h5.467v1.24h-5.467Zm.157,2.853v1.24H99.536v-1.24h1.927Zm-3.7-2.853h1.926v1.24H97.765Zm.156,2.853v1.24H96v-1.24h1.927Zm-3.7-2.853h1.927v1.24H94.225Zm.156,2.853v1.24H92.455v-1.24h1.927Zm-3.7-2.853h1.927v1.24H90.685Zm.156,2.853v1.24H88.914v-1.24h1.927Zm-3.7-2.853h1.927v1.24H87.144v-1.24Zm.156,2.853v1.24H85.374v-1.24H87.3Zm-3.7-2.853H85.53v1.24H83.6Zm.157,2.853v1.24H81.834v-1.24H83.76Zm-3.7-2.853H81.99v1.24H80.064Zm.157,2.853v1.24H78.294v-1.24H80.22Zm-3.7-2.853H78.45v1.24H76.523Zm.157,2.853v1.24H74.753v-1.24H76.68Zm-3.7-2.853H74.91v1.24H72.983Zm.157,2.853v1.24h-3.7v-1.24h3.7Zm-1.77-2.853v1.24H69.443v-1.24Z" transform="translate(-60.533 -189.527)"/>
    </g>
  </g>
</svg>
