<svg xmlns="http://www.w3.org/2000/svg" xmlns:xlink="http://www.w3.org/1999/xlink" width="141" height="141" viewBox="0 0 141 141">
  <defs>
    <clipPath id="clip-path">
      <rect id="Rect치ngulo_45192" data-name="Rect치ngulo 45192" width="93.822" height="93.822" fill="none"/>
    </clipPath>
    <clipPath id="clip-path-2">
      <rect id="Rect치ngulo_45199" data-name="Rect치ngulo 45199" width="33.397" height="32.312" fill="none"/>
    </clipPath>
  </defs>
  <g id="Grupo_157309" data-name="Grupo 157309" transform="translate(-730 -1907)">
    <circle id="Elipse_5535" data-name="Elipse 5535" cx="70.5" cy="70.5" r="70.5" transform="translate(730 1907)" fill="#ff6148"/>
    <path id="Trazado_600358" data-name="Trazado 600358" d="M12237.357-10442.395h-43.937s-2.69,1-3.188,5.28,0,48.62,0,48.62.7,3.788,3.188,3.887,29.391,0,29.391,0l5.48,5.778,5.978-5.778h27.5a8.3,8.3,0,0,0,3.786-3.089c1.2-2.093.5-41.546.5-41.546l-2.192-2.093-25.107-.8-1.4-2.292Z" transform="translate(-11435 12398.197)" fill="#fff"/>
    <path id="Trazado_600359" data-name="Trazado 600359" d="M12237.2-10460.419v26.977l1.763,1.763,2.683.613h22.608l4.829,4.139,3.525-4.139,7.356-1.072.844-2.912v-25.828l-2.606-1.687h-38.4Z" transform="translate(-11435 12398.197)" fill="#ffe5cf"/>
    <g id="Grupo_157304" data-name="Grupo 157304" transform="translate(754 1930.588)">
      <g id="Grupo_157294" data-name="Grupo 157294" transform="translate(0 0.001)">
        <g id="Grupo_157293" data-name="Grupo 157293" clip-path="url(#clip-path)">
          <path id="Trazado_600346" data-name="Trazado 600346" d="M39.55,235.111a1.827,1.827,0,0,1-1.3-.536l-5.01-5.005H6.1A6.1,6.1,0,0,1,0,223.477V173.646a6.1,6.1,0,0,1,6.1-6.093H48.124a1.832,1.832,0,0,1,0,3.665H6.1a2.432,2.432,0,0,0-2.432,2.428v49.831A2.432,2.432,0,0,0,6.1,225.9H34a1.832,1.832,0,0,1,1.3.536l4.251,4.247,4.251-4.247a1.833,1.833,0,0,1,1.3-.536H73a2.433,2.433,0,0,0,2.432-2.428V183.315a1.832,1.832,0,1,1,3.665,0v40.162A6.1,6.1,0,0,1,73,229.57H45.855l-5.01,5.005a1.827,1.827,0,0,1-1.3.536" transform="translate(0 -144.525)"/>
          <path id="Trazado_600347" data-name="Trazado 600347" d="M371.6,63.21a1.833,1.833,0,0,1-1.287-.528l-3.845-3.8H343.622a5.371,5.371,0,0,1-5.367-5.364V28.914a5.37,5.37,0,0,1,5.365-5.362h36.6a5.371,5.371,0,0,1,5.367,5.364V53.523a5.369,5.369,0,0,1-5.365,5.362h-4.313l-2.875,3.63a1.832,1.832,0,0,1-1.325.691c-.037,0-.075,0-.112,0M343.62,27.217a1.7,1.7,0,0,0-1.7,1.7V53.521a1.7,1.7,0,0,0,1.7,1.7h23.6a1.832,1.832,0,0,1,1.287.529l2.925,2.888,2.156-2.722a1.833,1.833,0,0,1,1.436-.695h5.2a1.7,1.7,0,0,0,1.7-1.7V28.916a1.7,1.7,0,0,0-1.7-1.7Z" transform="translate(-291.767 -20.315)"/>
          <path id="Trazado_600348" data-name="Trazado 600348" d="M434.5,145.543c-.06,0-.121,0-.18-.008a1.563,1.563,0,0,1-.179-.027,1.758,1.758,0,0,1-.342-.1,1.783,1.783,0,0,1-.316-.168,1.586,1.586,0,0,1-.146-.107c-.045-.038-.091-.078-.133-.121s-.082-.087-.121-.133-.074-.095-.107-.146a1.792,1.792,0,0,1-.168-.316,1.756,1.756,0,0,1-.1-.342,1.586,1.586,0,0,1-.027-.179c-.006-.059-.01-.12-.01-.18s0-.12.01-.18a1.562,1.562,0,0,1,.027-.177,1.8,1.8,0,0,1,.1-.344,1.843,1.843,0,0,1,.168-.316,1.576,1.576,0,0,1,.107-.144c.039-.047.078-.092.121-.135s.087-.082.133-.121.095-.073.146-.106a1.788,1.788,0,0,1,.316-.169,1.857,1.857,0,0,1,.342-.1,1.557,1.557,0,0,1,.179-.026,1.753,1.753,0,0,1,.36,0,1.532,1.532,0,0,1,.177.026,1.9,1.9,0,0,1,.344.1,1.839,1.839,0,0,1,.316.169c.049.033.1.069.144.106s.092.08.135.121.082.088.121.135.073.095.106.144a1.838,1.838,0,0,1,.169.316,1.9,1.9,0,0,1,.1.344,1.539,1.539,0,0,1,.026.177,1.606,1.606,0,0,1,.01.18,1.965,1.965,0,0,1-.036.359,1.856,1.856,0,0,1-.1.342,1.788,1.788,0,0,1-.169.316c-.033.051-.069.1-.106.146s-.08.091-.121.133-.088.082-.135.121a1.57,1.57,0,0,1-.144.107,1.835,1.835,0,0,1-.316.168,1.8,1.8,0,0,1-.344.1,1.539,1.539,0,0,1-.177.027c-.06.005-.121.008-.18.008" transform="translate(-373.206 -122.38)"/>
          <path id="Trazado_600349" data-name="Trazado 600349" d="M498.962,145.543c-.059,0-.12,0-.18-.01a1.54,1.54,0,0,1-.177-.027,1.806,1.806,0,0,1-.344-.1,1.833,1.833,0,0,1-.316-.168,1.564,1.564,0,0,1-.144-.107c-.047-.038-.092-.078-.135-.121s-.083-.087-.121-.133-.073-.095-.106-.146a1.792,1.792,0,0,1-.169-.316,1.858,1.858,0,0,1-.1-.342c-.012-.059-.021-.118-.028-.179s-.008-.12-.008-.18,0-.12.008-.18.015-.12.028-.177a1.9,1.9,0,0,1,.1-.344,1.841,1.841,0,0,1,.169-.316c.033-.049.069-.1.106-.144s.08-.092.121-.133.088-.084.135-.122.095-.073.144-.106a1.84,1.84,0,0,1,.316-.169,1.911,1.911,0,0,1,.344-.1c.058-.012.118-.021.177-.027a1.967,1.967,0,0,1,.36,0c.059.007.12.015.179.027a1.853,1.853,0,0,1,.342.1,1.781,1.781,0,0,1,.316.169c.051.033.1.069.146.106s.091.08.133.122a1.619,1.619,0,0,1,.121.133,1.566,1.566,0,0,1,.107.144,1.837,1.837,0,0,1,.168.316,1.816,1.816,0,0,1,.1.344,1.568,1.568,0,0,1,.027.177c.005.06.008.121.008.18s0,.121-.008.18a1.593,1.593,0,0,1-.027.179,1.873,1.873,0,0,1-.272.658c-.033.051-.07.1-.107.146s-.078.091-.121.133-.088.082-.135.121a1.39,1.39,0,0,1-.144.107,1.775,1.775,0,0,1-.316.168,1.754,1.754,0,0,1-.342.1,1.6,1.6,0,0,1-.179.027c-.059.006-.12.01-.18.01" transform="translate(-428.807 -122.379)"/>
          <path id="Trazado_600350" data-name="Trazado 600350" d="M563.413,145.543c-.06,0-.121,0-.181-.01a1.579,1.579,0,0,1-.177-.027,1.761,1.761,0,0,1-.342-.1,1.844,1.844,0,0,1-.317-.168,1.747,1.747,0,0,1-.144-.107c-.047-.038-.091-.078-.133-.121a1.742,1.742,0,0,1-.228-.279,1.879,1.879,0,0,1-.169-.316,1.859,1.859,0,0,1-.1-.342c-.011-.059-.021-.118-.026-.179a1.6,1.6,0,0,1-.01-.18,1.635,1.635,0,0,1,.01-.18c.006-.059.015-.12.026-.177a1.905,1.905,0,0,1,.1-.344,1.933,1.933,0,0,1,.169-.316,1.775,1.775,0,0,1,.107-.144,1.411,1.411,0,0,1,.121-.133c.043-.043.087-.084.133-.122s.095-.073.144-.106a1.859,1.859,0,0,1,.66-.273c.059-.012.118-.021.177-.027a1.981,1.981,0,0,1,.361,0c.059.007.118.015.177.027a1.832,1.832,0,0,1,.66.273c.05.033.1.069.144.106a1.608,1.608,0,0,1,.133.122,1.418,1.418,0,0,1,.121.133,1.776,1.776,0,0,1,.107.144,1.834,1.834,0,0,1,.274.66c.011.058.021.118.026.177a1.606,1.606,0,0,1,.01.18,1.572,1.572,0,0,1-.01.18c-.006.06-.015.12-.026.179a1.842,1.842,0,0,1-.274.658,1.586,1.586,0,0,1-.107.146,1.611,1.611,0,0,1-.121.133,1.593,1.593,0,0,1-.133.121,1.76,1.76,0,0,1-.144.107,1.88,1.88,0,0,1-.316.168,1.8,1.8,0,0,1-.344.1,1.579,1.579,0,0,1-.177.027c-.06.006-.121.01-.18.01" transform="translate(-484.399 -122.379)"/>
        </g>
      </g>
    </g>
    <g id="Grupo_157307" data-name="Grupo 157307" transform="translate(776.603 1971.429)">
      <g id="Grupo_157306" data-name="Grupo 157306" transform="translate(0 0)" clip-path="url(#clip-path-2)">
        <path id="Trazado_600362" data-name="Trazado 600362" d="M16.806,0a3.616,3.616,0,1,0,3.623,3.616A3.616,3.616,0,0,0,16.806,0Zm4.711,8.347,0,3.312L18.594,8.348H15.842v4.86h2.02l.029-3.22L20.7,13.206l2.83.01.025-4.855-2.042-.013Zm-12.425,0h0l-.038,4.865,5.874-.007,0-1.083-3.726,0,.015-.917,3.313-.014V10.15l-3.3.061V9.445l3.572-.009.007-1.084-5.723,0Zm20.264,0H27.014L23.7,13.209l2.107,0,.5-.929,3.417.017.508.909H32.5Zm-24.235,0H4.738A6.985,6.985,0,0,0,3.61,8.4a3.862,3.862,0,0,0-1.342.374,1.282,1.282,0,0,0-.614.634A1.3,1.3,0,0,0,1.6,9.73a1.032,1.032,0,0,0,.109.519.775.775,0,0,0,.138.2,2.076,2.076,0,0,0,1.121.56,16,16,0,0,0,1.607.322,6.587,6.587,0,0,1,.972.2,1.1,1.1,0,0,1,.394.2.212.212,0,0,1-.033.3l-.007.005a1.132,1.132,0,0,1-.57.2,5.094,5.094,0,0,1-1.017-.013c-.392-.059-.632-.19-.685-.374a.934.934,0,0,1-.02-.158L3.6,11.583l-.15,0c-.083,0-.555,0-1.048,0l-.9.006v.065A1.963,1.963,0,0,0,1.549,12c.127.527.536.858,1.281,1.04a6.9,6.9,0,0,0,.98.15c.329.024,1,.032,1.433.017,1.528-.056,2.556-.42,2.87-1.014a.981.981,0,0,0,.114-.473,1,1,0,0,0-.181-.594,1.534,1.534,0,0,0-.8-.563,8.018,8.018,0,0,0-1.638-.374,9.243,9.243,0,0,1-1.348-.271.792.792,0,0,1-.394-.233.224.224,0,0,1,0-.167c.055-.12.3-.212.645-.239a4.228,4.228,0,0,1,.795.024,1.155,1.155,0,0,1,.564.209.509.509,0,0,1,.111.212c.012.046.021.062.035.064s.459,0,1,0l.977,0,0-.06a1.146,1.146,0,0,0-.05-.318c-.162-.55-.758-.879-1.826-1.013a6.88,6.88,0,0,0-1-.053Zm22.943,1.2,1.048,1.768L26.951,11.3Zm-12.588,4.7L0,14.255v2.573H4.989c4.781,0,4.991,0,5.136.071a.624.624,0,0,1,.336.556c.037.41.1-.02-3.734,6.674L4.45,28.038l1.84,1.729,9.186-15.522Zm2.409.013,9.2,15.48,1.874-1.707-2.308-3.919c-3.847-6.607-3.775-6.28-3.738-6.685a.613.613,0,0,1,.337-.549c.145-.066.356-.07,5.149-.07h5V14.267l-15.513-.011Zm-1.248,2.707L8.263,31.2l2.179,1.033,4.77-8.133.8-1.431c.1-.186.231-.258.613-.259a.664.664,0,0,1,.617.255l.879,1.469L23,32.312l2.227-1.256-8.588-14.1Z" transform="translate(0 0)" fill-rule="evenodd"/>
      </g>
    </g>
  </g>
</svg>
