<svg xmlns="http://www.w3.org/2000/svg" xmlns:xlink="http://www.w3.org/1999/xlink" width="141" height="141" viewBox="0 0 141 141">
  <defs>
    <clipPath id="clip-path">
      <rect id="Rectángulo_45192" data-name="Rectángulo 45192" width="93.822" height="93.822" fill="none"/>
    </clipPath>
  </defs>
  <g id="Grupo_157308" data-name="Grupo 157308" transform="translate(-730 -2082)">
    <circle id="Elipse_5531" data-name="Elipse 5531" cx="70.5" cy="70.5" r="70.5" transform="translate(730 2082)" fill="#df503a"/>
    <path id="Trazado_600361" data-name="Trazado 600361" d="M12237.357-10442.395h-43.937s-2.69,1-3.188,5.28,0,48.62,0,48.62.7,3.788,3.188,3.887,29.391,0,29.391,0l5.48,5.778,5.978-5.778h27.5a8.3,8.3,0,0,0,3.786-3.089c1.2-2.093.5-41.546.5-41.546l-2.192-2.093-25.107-.8-1.4-2.292Z" transform="translate(-11435 12573.608)" fill="#fff"/>
    <path id="Trazado_600360" data-name="Trazado 600360" d="M12237.2-10460.419v26.977l1.763,1.763,2.683.613h22.608l4.829,4.139,3.525-4.139,7.356-1.072.844-2.912v-25.828l-2.606-1.687h-38.4Z" transform="translate(-11435 12573.608)" fill="#ffe5cf"/>
    <g id="Grupo_157305" data-name="Grupo 157305" transform="translate(754 2105.999)">
      <g id="Grupo_157294" data-name="Grupo 157294" transform="translate(0 0.001)">
        <g id="Grupo_157293" data-name="Grupo 157293" clip-path="url(#clip-path)">
          <path id="Trazado_600346" data-name="Trazado 600346" d="M39.55,235.111a1.827,1.827,0,0,1-1.3-.536l-5.01-5.005H6.1A6.1,6.1,0,0,1,0,223.477V173.646a6.1,6.1,0,0,1,6.1-6.093H48.124a1.832,1.832,0,0,1,0,3.665H6.1a2.432,2.432,0,0,0-2.432,2.428v49.831A2.432,2.432,0,0,0,6.1,225.9H34a1.832,1.832,0,0,1,1.3.536l4.251,4.247,4.251-4.247a1.833,1.833,0,0,1,1.3-.536H73a2.433,2.433,0,0,0,2.432-2.428V183.315a1.832,1.832,0,1,1,3.665,0v40.162A6.1,6.1,0,0,1,73,229.57H45.855l-5.01,5.005a1.827,1.827,0,0,1-1.3.536" transform="translate(0 -144.525)"/>
          <path id="Trazado_600347" data-name="Trazado 600347" d="M371.6,63.21a1.833,1.833,0,0,1-1.287-.528l-3.845-3.8H343.622a5.371,5.371,0,0,1-5.367-5.364V28.914a5.37,5.37,0,0,1,5.365-5.362h36.6a5.371,5.371,0,0,1,5.367,5.364V53.523a5.369,5.369,0,0,1-5.365,5.362h-4.313l-2.875,3.63a1.832,1.832,0,0,1-1.325.691c-.037,0-.075,0-.112,0M343.62,27.217a1.7,1.7,0,0,0-1.7,1.7V53.521a1.7,1.7,0,0,0,1.7,1.7h23.6a1.832,1.832,0,0,1,1.287.529l2.925,2.888,2.156-2.722a1.833,1.833,0,0,1,1.436-.695h5.2a1.7,1.7,0,0,0,1.7-1.7V28.916a1.7,1.7,0,0,0-1.7-1.7Z" transform="translate(-291.767 -20.315)"/>
          <path id="Trazado_600348" data-name="Trazado 600348" d="M434.5,145.543c-.06,0-.121,0-.18-.008a1.563,1.563,0,0,1-.179-.027,1.758,1.758,0,0,1-.342-.1,1.783,1.783,0,0,1-.316-.168,1.586,1.586,0,0,1-.146-.107c-.045-.038-.091-.078-.133-.121s-.082-.087-.121-.133-.074-.095-.107-.146a1.792,1.792,0,0,1-.168-.316,1.756,1.756,0,0,1-.1-.342,1.586,1.586,0,0,1-.027-.179c-.006-.059-.01-.12-.01-.18s0-.12.01-.18a1.562,1.562,0,0,1,.027-.177,1.8,1.8,0,0,1,.1-.344,1.843,1.843,0,0,1,.168-.316,1.576,1.576,0,0,1,.107-.144c.039-.047.078-.092.121-.135s.087-.082.133-.121.095-.073.146-.106a1.788,1.788,0,0,1,.316-.169,1.857,1.857,0,0,1,.342-.1,1.557,1.557,0,0,1,.179-.026,1.753,1.753,0,0,1,.36,0,1.532,1.532,0,0,1,.177.026,1.9,1.9,0,0,1,.344.1,1.839,1.839,0,0,1,.316.169c.049.033.1.069.144.106s.092.08.135.121.082.088.121.135.073.095.106.144a1.838,1.838,0,0,1,.169.316,1.9,1.9,0,0,1,.1.344,1.539,1.539,0,0,1,.026.177,1.606,1.606,0,0,1,.01.18,1.965,1.965,0,0,1-.036.359,1.856,1.856,0,0,1-.1.342,1.788,1.788,0,0,1-.169.316c-.033.051-.069.1-.106.146s-.08.091-.121.133-.088.082-.135.121a1.57,1.57,0,0,1-.144.107,1.835,1.835,0,0,1-.316.168,1.8,1.8,0,0,1-.344.1,1.539,1.539,0,0,1-.177.027c-.06.005-.121.008-.18.008" transform="translate(-373.206 -122.38)"/>
          <path id="Trazado_600349" data-name="Trazado 600349" d="M498.962,145.543c-.059,0-.12,0-.18-.01a1.54,1.54,0,0,1-.177-.027,1.806,1.806,0,0,1-.344-.1,1.833,1.833,0,0,1-.316-.168,1.564,1.564,0,0,1-.144-.107c-.047-.038-.092-.078-.135-.121s-.083-.087-.121-.133-.073-.095-.106-.146a1.792,1.792,0,0,1-.169-.316,1.858,1.858,0,0,1-.1-.342c-.012-.059-.021-.118-.028-.179s-.008-.12-.008-.18,0-.12.008-.18.015-.12.028-.177a1.9,1.9,0,0,1,.1-.344,1.841,1.841,0,0,1,.169-.316c.033-.049.069-.1.106-.144s.08-.092.121-.133.088-.084.135-.122.095-.073.144-.106a1.84,1.84,0,0,1,.316-.169,1.911,1.911,0,0,1,.344-.1c.058-.012.118-.021.177-.027a1.967,1.967,0,0,1,.36,0c.059.007.12.015.179.027a1.853,1.853,0,0,1,.342.1,1.781,1.781,0,0,1,.316.169c.051.033.1.069.146.106s.091.08.133.122a1.619,1.619,0,0,1,.121.133,1.566,1.566,0,0,1,.107.144,1.837,1.837,0,0,1,.168.316,1.816,1.816,0,0,1,.1.344,1.568,1.568,0,0,1,.027.177c.005.06.008.121.008.18s0,.121-.008.18a1.593,1.593,0,0,1-.027.179,1.873,1.873,0,0,1-.272.658c-.033.051-.07.1-.107.146s-.078.091-.121.133-.088.082-.135.121a1.39,1.39,0,0,1-.144.107,1.775,1.775,0,0,1-.316.168,1.754,1.754,0,0,1-.342.1,1.6,1.6,0,0,1-.179.027c-.059.006-.12.01-.18.01" transform="translate(-428.807 -122.379)"/>
          <path id="Trazado_600350" data-name="Trazado 600350" d="M563.413,145.543c-.06,0-.121,0-.181-.01a1.579,1.579,0,0,1-.177-.027,1.761,1.761,0,0,1-.342-.1,1.844,1.844,0,0,1-.317-.168,1.747,1.747,0,0,1-.144-.107c-.047-.038-.091-.078-.133-.121a1.742,1.742,0,0,1-.228-.279,1.879,1.879,0,0,1-.169-.316,1.859,1.859,0,0,1-.1-.342c-.011-.059-.021-.118-.026-.179a1.6,1.6,0,0,1-.01-.18,1.635,1.635,0,0,1,.01-.18c.006-.059.015-.12.026-.177a1.905,1.905,0,0,1,.1-.344,1.933,1.933,0,0,1,.169-.316,1.775,1.775,0,0,1,.107-.144,1.411,1.411,0,0,1,.121-.133c.043-.043.087-.084.133-.122s.095-.073.144-.106a1.859,1.859,0,0,1,.66-.273c.059-.012.118-.021.177-.027a1.981,1.981,0,0,1,.361,0c.059.007.118.015.177.027a1.832,1.832,0,0,1,.66.273c.05.033.1.069.144.106a1.608,1.608,0,0,1,.133.122,1.418,1.418,0,0,1,.121.133,1.776,1.776,0,0,1,.107.144,1.834,1.834,0,0,1,.274.66c.011.058.021.118.026.177a1.606,1.606,0,0,1,.01.18,1.572,1.572,0,0,1-.01.18c-.006.06-.015.12-.026.179a1.842,1.842,0,0,1-.274.658,1.586,1.586,0,0,1-.107.146,1.611,1.611,0,0,1-.121.133,1.593,1.593,0,0,1-.133.121,1.76,1.76,0,0,1-.144.107,1.88,1.88,0,0,1-.316.168,1.8,1.8,0,0,1-.344.1,1.579,1.579,0,0,1-.177.027c-.06.006-.121.01-.18.01" transform="translate(-484.399 -122.379)"/>
        </g>
      </g>
    </g>
    <path id="Trazado_602917" data-name="Trazado 602917" d="M-14.716-4.8l1.733-8.411h3.406L-12.946,0H-15.9l-2.5-8.313L-20.9,0h-2.942l-3.369-13.208h3.406l1.721,8.4,2.417-8.4h2.551Zm18.372,0,1.733-8.411H8.8L5.426,0H2.472l-2.5-8.313L-2.533,0H-5.475L-8.844-13.208h3.406l1.721,8.4,2.417-8.4H1.251Zm18.372,0,1.733-8.411h3.406L23.8,0H20.844l-2.5-8.313L15.839,0H12.9L9.528-13.208h3.406l1.721,8.4,2.417-8.4h2.551Z" transform="translate(793 2169)"/>
  </g>
</svg>
