<svg xmlns="http://www.w3.org/2000/svg" xmlns:xlink="http://www.w3.org/1999/xlink" width="84" height="84" viewBox="0 0 84 84">
  <defs>
    <clipPath id="clip-path">
      <rect id="Rectángulo_45190" data-name="Rectángulo 45190" width="84" height="84" transform="translate(0.288 0.288)" fill="none"/>
    </clipPath>
  </defs>
  <g id="Grupo_157290" data-name="Grupo 157290" transform="translate(-0.288 -0.289)">
    <g id="Grupo_157290-2" data-name="Grupo 157290" transform="translate(0 0.001)" clip-path="url(#clip-path)">
      <path id="Trazado_600304" data-name="Trazado 600304" d="M126.107,102.915H72.823a.823.823,0,0,1-.823-.823V34.157a.823.823,0,0,1,.823-.823h53.284a.823.823,0,0,1,.823.823v67.935a.823.823,0,0,1-.823.823" transform="translate(-63.11 -29.218)" fill="#a79ca7"/>
      <path id="Trazado_600305" data-name="Trazado 600305" d="M117.342,95.384H64.058A2.06,2.06,0,0,1,62,93.327V25.392a2.06,2.06,0,0,1,2.058-2.058h53.284a2.06,2.06,0,0,1,2.058,2.058V93.327a2.06,2.06,0,0,1-2.058,2.058M64.469,92.915H116.93V25.8H64.469Z" transform="translate(-54.345 -20.453)"/>
      <path id="Trazado_600306" data-name="Trazado 600306" d="M167.646,144.654H114.361a.823.823,0,0,1-.823-.823V75.9a.823.823,0,0,1,.823-.823h53.284a.823.823,0,0,1,.823.823v67.935a.823.823,0,0,1-.823.823" transform="translate(-99.52 -65.804)" fill="#fff"/>
      <path id="Trazado_600307" data-name="Trazado 600307" d="M120.426,255.92V202.951h-6.889V255.92a.823.823,0,0,0,.823.823h6.889a.823.823,0,0,1-.823-.823" transform="translate(-99.519 -177.893)" fill="#f3f0f3"/>
      <path id="Trazado_600308" data-name="Trazado 600308" d="M158.879,137.125H105.595a2.06,2.06,0,0,1-2.058-2.058V67.132a2.06,2.06,0,0,1,2.058-2.058H118.74a1.235,1.235,0,1,1,0,2.469H106.006v67.112h52.461V67.543H124.5a1.235,1.235,0,1,1,0-2.469h34.378a2.06,2.06,0,0,1,2.058,2.058v67.935a2.06,2.06,0,0,1-2.058,2.058" transform="translate(-90.753 -57.039)"/>
      <path id="Trazado_600309" data-name="Trazado 600309" d="M604.529,282.667H609.5v9.369a4.118,4.118,0,0,1-.265,1.454l-1.913,5.068a.329.329,0,0,1-.616,0l-1.913-5.068a4.118,4.118,0,0,1-.265-1.454Z" transform="translate(-529.888 -247.766)" fill="#fff"/>
      <path id="Trazado_600310" data-name="Trazado 600310" d="M598.25,291.24a1.552,1.552,0,0,1-1.463-1.011l-1.914-5.069a5.328,5.328,0,0,1-.345-1.89V273.9a1.235,1.235,0,0,1,1.235-1.235h4.973a1.235,1.235,0,0,1,1.235,1.235v9.369a5.333,5.333,0,0,1-.345,1.89l-1.913,5.068a1.552,1.552,0,0,1-1.462,1.011Zm.847-1.884h0Zm-2.1-14.22v8.134a2.869,2.869,0,0,0,.186,1.018l1.066,2.824,1.066-2.824a2.873,2.873,0,0,0,.186-1.018v-8.134Z" transform="translate(-521.123 -239.001)"/>
      <path id="Trazado_600311" data-name="Trazado 600311" d="M609.5,108.271V77.56a2.487,2.487,0,0,0-4.973,0v30.712Z" transform="translate(-529.888 -65.804)" fill="#2efec7"/>
      <path id="Trazado_600312" data-name="Trazado 600312" d="M600.739,100.742h-4.973a1.235,1.235,0,0,1-1.235-1.235V68.8a3.721,3.721,0,1,1,7.442,0V82.556a1.235,1.235,0,1,1-2.469,0V68.8a1.252,1.252,0,0,0-2.5,0V98.272h2.5V88.318a1.235,1.235,0,1,1,2.469,0V99.507a1.235,1.235,0,0,1-1.235,1.235" transform="translate(-521.125 -57.039)"/>
      <path id="Trazado_600313" data-name="Trazado 600313" d="M453.976,486.15A12.272,12.272,0,1,1,441.7,473.878a12.272,12.272,0,0,1,12.272,12.272" transform="translate(-376.41 -415.369)" fill="#ffc8bf"/>
      <path id="Trazado_600314" data-name="Trazado 600314" d="M436.154,486.15a12.275,12.275,0,0,1,8.911-11.8,12.272,12.272,0,1,0,0,23.6,12.274,12.274,0,0,1-8.911-11.8" transform="translate(-376.41 -415.369)" fill="#ffe7e3"/>
      <path id="Trazado_600315" data-name="Trazado 600315" d="M432.938,490.892a13.507,13.507,0,1,1,13.014-17.122,1.235,1.235,0,1,1-2.38.66,11.032,11.032,0,1,0,.178,5.184,1.235,1.235,0,1,1,2.419.5,13.548,13.548,0,0,1-13.232,10.782" transform="translate(-367.644 -406.604)"/>
      <path id="Trazado_600316" data-name="Trazado 600316" d="M475.182,543.57a1.231,1.231,0,0,1-.873-.362l-4.647-4.647a1.235,1.235,0,0,1,1.746-1.746l3.774,3.774,6.709-6.709a1.235,1.235,0,0,1,1.746,1.746l-7.582,7.582a1.231,1.231,0,0,1-.873.362" transform="translate(-411.356 -467.646)"/>
      <path id="Trazado_600317" data-name="Trazado 600317" d="M55.486,33.823h-16.8A.823.823,0,0,1,37.859,33V10.823A.823.823,0,0,1,38.682,10h16.8a.823.823,0,0,1,.823.823V33a.823.823,0,0,1-.823.823" transform="translate(-33.185 -8.765)" fill="#ff6148"/>
      <path id="Trazado_600318" data-name="Trazado 600318" d="M43.049,33V10.823A.823.823,0,0,1,43.872,10H38.681a.823.823,0,0,0-.823.823V33a.823.823,0,0,0,.823.823h5.191A.823.823,0,0,1,43.049,33" transform="translate(-33.184 -8.765)" fill="#e44931"/>
      <path id="Trazado_600319" data-name="Trazado 600319" d="M39.5,138.76h16.8a.82.82,0,0,0,.707-.409c-.681-4.888-4.5-8.633-9.109-8.633s-8.428,3.745-9.109,8.633a.82.82,0,0,0,.707.409" transform="translate(-34.007 -113.702)" fill="#27a5fe"/>
      <path id="Trazado_600320" data-name="Trazado 600320" d="M47.906,131.962a5,5,0,0,1-1.944-.391,9.836,9.836,0,0,0-7.166,8.4.82.82,0,0,0,.707.409h5.142a.82.82,0,0,1-.707-.409,9.935,9.935,0,0,1,6.538-8.23q-.309-.1-.626-.175a5,5,0,0,1-1.945.391" transform="translate(-34.007 -115.326)" fill="#0593fc"/>
      <path id="Trazado_600321" data-name="Trazado 600321" d="M46.72,26.293h-16.8a2.06,2.06,0,0,1-2.058-2.058V2.058A2.06,2.06,0,0,1,29.916,0h16.8a2.06,2.06,0,0,1,2.058,2.058V24.235a2.06,2.06,0,0,1-2.058,2.058M30.327,23.823H46.308V2.469H30.327Z" transform="translate(-24.418 0)"/>
      <path id="Trazado_600322" data-name="Trazado 600322" d="M48.247,130.821a1.235,1.235,0,0,1-1.221-1.065c-.6-4.315-3.992-7.569-7.886-7.569s-7.285,3.254-7.886,7.569a1.235,1.235,0,0,1-2.446-.341,11.77,11.77,0,0,1,3.449-6.871,9.794,9.794,0,0,1,13.766,0,11.769,11.769,0,0,1,3.449,6.871,1.235,1.235,0,0,1-1.052,1.393,1.249,1.249,0,0,1-.172.012" transform="translate(-25.24 -104.937)"/>
      <path id="Trazado_600323" data-name="Trazado 600323" d="M81.986,58.515A5.015,5.015,0,1,1,76.97,53.5a5.015,5.015,0,0,1,5.015,5.015" transform="translate(-63.071 -46.895)" fill="#27a5fe"/>
      <path id="Trazado_600324" data-name="Trazado 600324" d="M68.205,56a6.25,6.25,0,1,1,6.25-6.25A6.257,6.257,0,0,1,68.205,56m0-10.031a3.781,3.781,0,1,0,3.781,3.781,3.785,3.785,0,0,0-3.781-3.781" transform="translate(-54.305 -38.129)"/>
      <path id="Trazado_600325" data-name="Trazado 600325" d="M181.3,561.208H165.143a1.235,1.235,0,1,1,0-2.469H181.3a1.235,1.235,0,1,1,0,2.469" transform="translate(-143.67 -489.752)"/>
      <path id="Trazado_600326" data-name="Trazado 600326" d="M182.226,474.6H174.4a.494.494,0,0,1-.494-.494v-5.989a.494.494,0,0,1,.494-.494h7.825a.494.494,0,0,1,.494.494v5.989a.494.494,0,0,1-.494.494" transform="translate(-152.436 -409.89)" fill="#f6a96c"/>
      <path id="Trazado_600327" data-name="Trazado 600327" d="M173.461,467.073h-7.825a1.731,1.731,0,0,1-1.729-1.729v-5.989a1.73,1.73,0,0,1,1.729-1.729h7.825a1.73,1.73,0,0,1,1.729,1.729v5.989a1.731,1.731,0,0,1-1.729,1.729m-7.084-2.469h6.343V460.1h-6.343Z" transform="translate(-143.67 -401.124)"/>
      <path id="Trazado_600328" data-name="Trazado 600328" d="M290.268,144.864H278.151a1.235,1.235,0,1,1,0-2.469h12.117a1.235,1.235,0,1,1,0,2.469" transform="translate(-242.725 -124.814)"/>
      <path id="Trazado_600329" data-name="Trazado 600329" d="M264.513,195.42H243.951a1.235,1.235,0,0,1,0-2.469h20.562a1.235,1.235,0,0,1,0,2.469" transform="translate(-212.748 -169.128)"/>
      <path id="Trazado_600330" data-name="Trazado 600330" d="M205.166,281.662H165.143a1.235,1.235,0,1,1,0-2.469h40.023a1.235,1.235,0,1,1,0,2.469" transform="translate(-143.67 -244.721)"/>
      <path id="Trazado_600331" data-name="Trazado 600331" d="M205.166,332.218H165.143a1.235,1.235,0,1,1,0-2.469h40.023a1.235,1.235,0,1,1,0,2.469" transform="translate(-143.67 -289.035)"/>
      <path id="Trazado_600332" data-name="Trazado 600332" d="M205.166,382.774H165.143a1.235,1.235,0,1,1,0-2.469h40.023a1.235,1.235,0,1,1,0,2.469" transform="translate(-143.67 -333.349)"/>
    </g>
  </g>
</svg>
