<svg xmlns="http://www.w3.org/2000/svg" width="92" height="92" viewBox="0 0 92 92">
  <g id="Grupo_1069958" data-name="Grupo 1069958" transform="translate(-2211 10078)">
    <circle id="Elipse_9163" data-name="Elipse 9163" cx="46" cy="46" r="46" transform="translate(2211 -10078)" fill="#f77e6b"/>
    <g id="nube" transform="translate(2228 -10061)">
      <g id="Grupo_1069968" data-name="Grupo 1069968" transform="translate(0.935 0.935)">
        <g id="Grupo_1069959" data-name="Grupo 1069959" transform="translate(0)">
          <path id="Trazado_816573" data-name="Trazado 816573" d="M62.211,19.273a6.532,6.532,0,0,0-4.631-1.918h-.244a6.525,6.525,0,0,0-3.476,1h0a20.469,20.469,0,0,0-35.59,0,6.525,6.525,0,0,0-3.476-1h-.244a6.548,6.548,0,1,0,0,13.1H57.581a6.549,6.549,0,0,0,4.631-11.179Z" transform="translate(-8 -8)" fill="#e6e9ed"/>
        </g>
        <g id="Grupo_1069960" data-name="Grupo 1069960" transform="translate(0 42.313)">
          <path id="Trazado_816574" data-name="Trazado 816574" d="M51.032,369.85c7.87,1.326,13.1,3.666,13.1,6.332,0,4.134-12.565,7.484-28.065,7.484S8,380.316,8,376.182c0-2.666,5.227-5.006,13.1-6.332v2.975c-3.48.754-5.613,1.77-5.613,2.889s2.133,2.135,5.613,2.889l.076-.022a1.87,1.87,0,0,0,1.795,1.342H49.161a1.869,1.869,0,0,0,1.782-1.3c3.533-.755,5.7-1.78,5.7-2.908s-2.133-2.135-5.613-2.889Z" transform="translate(-8 -369.85)" fill="#aab2bd"/>
        </g>
        <g id="Grupo_1069961" data-name="Grupo 1069961" transform="translate(42.943 45.288)">
          <path id="Trazado_816575" data-name="Trazado 816575" d="M375.329,395.29c3.48.754,5.613,1.77,5.613,2.889s-2.169,2.153-5.7,2.908a1.831,1.831,0,0,0,.089-.569Z" transform="translate(-375.24 -395.29)" fill="#ccd1d9"/>
        </g>
        <g id="Grupo_1069962" data-name="Grupo 1069962" transform="translate(7.484 45.288)">
          <path id="Trazado_816576" data-name="Trazado 816576" d="M77.689,401.047l-.076.022C74.133,400.315,72,399.3,72,398.18s2.133-2.135,5.613-2.889v5.228A1.875,1.875,0,0,0,77.689,401.047Z" transform="translate(-72 -395.29)" fill="#ccd1d9"/>
        </g>
        <g id="Grupo_1069963" data-name="Grupo 1069963" transform="translate(35.548 22.452)">
          <path id="Trazado_816577" data-name="Trazado 816577" d="M312,200h3.742v3.742H312Z" transform="translate(-312 -200)" fill="#969faa"/>
        </g>
        <g id="Grupo_1069964" data-name="Grupo 1069964" transform="translate(16.839 7.484)">
          <path id="Trazado_816578" data-name="Trazado 816578" d="M174.452,82.29a.934.934,0,0,1-.935.935h-1.871a.935.935,0,0,1-.935-.935,6.548,6.548,0,0,0-6.548-6.548h-.935a7.483,7.483,0,0,0-7.484,7.484V90.71H152V83.226A11.226,11.226,0,0,1,163.226,72h.935A10.29,10.29,0,0,1,174.452,82.29Z" transform="translate(-152 -72)" fill="#969faa"/>
        </g>
        <g id="Grupo_1069965" data-name="Grupo 1069965" transform="translate(13.097 26.194)">
          <path id="Trazado_816579" data-name="Trazado 816579" d="M149.935,251.094v5.228a1.832,1.832,0,0,1-.089.569,1.869,1.869,0,0,1-1.782,1.3H121.871A1.87,1.87,0,0,1,120,256.323V233.871A1.87,1.87,0,0,1,121.871,232h26.194a1.87,1.87,0,0,1,1.871,1.871v17.223Z" transform="translate(-120 -232)" fill="#b4dd7f"/>
        </g>
        <g id="Grupo_1069966" data-name="Grupo 1069966" transform="translate(18.71 30.871)">
          <path id="Trazado_816580" data-name="Trazado 816580" d="M186.71,272.935V277.2a13.127,13.127,0,0,1-9.355,12.573A13.127,13.127,0,0,1,168,277.2v-4.266a10.156,10.156,0,0,0,9-.721l.358-.214.358.214A10.154,10.154,0,0,0,186.71,272.935Z" transform="translate(-168 -272)" fill="#ccd1d9"/>
        </g>
        <g id="Grupo_1069967" data-name="Grupo 1069967" transform="translate(26.194 35.548)">
          <circle id="Elipse_9173" data-name="Elipse 9173" cx="2" cy="2" r="2" transform="translate(-0.129 -0.483)" fill="#fcd770"/>
        </g>
      </g>
      <g id="Grupo_1069969" data-name="Grupo 1069969" transform="translate(0)">
        <path id="Trazado_816581" data-name="Trazado 816581" d="M225.871,309.452v3.9h1.871v-3.9a2.806,2.806,0,1,0-1.871,0Zm.935-3.581a.935.935,0,1,1-.935.935A.937.937,0,0,1,226.806,305.871Z" transform="translate(-197.806 -268.452)"/>
        <path id="Trazado_816582" data-name="Trazado 816582" d="M170.021,282.431l.269.081.269-.081a14.062,14.062,0,0,0,10.021-13.469v-5.647l-1.283.513a9.271,9.271,0,0,1-8.168-.654l-.839-.5-.839.5a9.271,9.271,0,0,1-8.169.655L160,263.315v5.647a14.062,14.062,0,0,0,10.021,13.469Zm-8.151-16.443a11.165,11.165,0,0,0,8.419-1.137,11.168,11.168,0,0,0,8.419,1.137v2.974a12.113,12.113,0,0,1-8.419,11.593,12.113,12.113,0,0,1-8.419-11.593Z" transform="translate(-141.29 -231.955)"/>
        <path id="Trazado_816583" data-name="Trazado 816583" d="M44.9,42.463V31.806h.935a.937.937,0,0,1,.935.935v5.613a2.806,2.806,0,0,0,5.613,0V29.935H50.516v8.419a.935.935,0,0,1-1.871,0V32.742a2.81,2.81,0,0,0-2.806-2.806H44.9V29A2.81,2.81,0,0,0,42.1,26.194h-.935V24.323h9.355a7.484,7.484,0,1,0,0-14.968h-.244a7.5,7.5,0,0,0-3.137.683,21.4,21.4,0,0,0-36.27,0,7.5,7.5,0,0,0-3.137-.683H7.484a7.484,7.484,0,1,0,0,14.968h9.355v1.871H15.9A2.81,2.81,0,0,0,13.1,29v.935h-.935a2.81,2.81,0,0,0-2.806,2.806v5.613a.935.935,0,0,1-1.871,0V29.935H5.613v8.419a2.806,2.806,0,0,0,5.613,0V32.742a.937.937,0,0,1,.935-.935H13.1V42.463C7.869,43.409,0,45.511,0,49.581c0,2.5,3.083,4.641,8.914,6.2A81.511,81.511,0,0,0,29,58a81.511,81.511,0,0,0,20.086-2.224c5.832-1.555,8.914-3.7,8.914-6.2C58,45.511,50.131,43.409,44.9,42.463Zm0,4.944c2.84.734,3.672,1.471,3.74,1.707-.069.237-.9.973-3.74,1.707ZM39.29,26.194H37.419V24.323H39.29ZM22.452,24.323h13.1v1.871h-13.1ZM7.484,22.452a5.613,5.613,0,1,1,0-11.226h.244a5.586,5.586,0,0,1,5.211,3.528l.224.561L14.9,14.62l-.224-.561a7.485,7.485,0,0,0-2.223-3.032,19.53,19.53,0,0,1,33.094,0,7.485,7.485,0,0,0-2.224,3.032l-.224.561,1.737.695.224-.561a5.586,5.586,0,0,1,5.212-3.528h.244a5.613,5.613,0,1,1,0,11.226H22.452V19.645A6.556,6.556,0,0,1,29,13.1h.935a5.619,5.619,0,0,1,5.613,5.613,1.873,1.873,0,0,0,1.871,1.871H39.29a1.873,1.873,0,0,0,1.871-1.871A11.238,11.238,0,0,0,29.935,7.484H29A12.175,12.175,0,0,0,16.839,19.645v2.806ZM18.71,19.645A10.3,10.3,0,0,1,29,9.355h.935A9.365,9.365,0,0,1,39.29,18.71H37.419a7.492,7.492,0,0,0-7.484-7.484H29a8.429,8.429,0,0,0-8.419,8.419v6.548H18.71ZM14.968,29a.937.937,0,0,1,.935-.935H42.1a.937.937,0,0,1,.935.935V51.452a.937.937,0,0,1-.935.935H15.9a.937.937,0,0,1-.935-.935ZM13.1,50.819c-2.84-.734-3.672-1.471-3.74-1.707.069-.235.9-.972,3.74-1.707ZM48.6,53.969A79.628,79.628,0,0,1,29,56.129a79.628,79.628,0,0,1-19.6-2.16c-5.548-1.48-7.525-3.237-7.525-4.388,0-1.587,3.482-3.774,11.226-5.216v1.113c-3.774.907-5.613,2.1-5.613,3.635,0,1.586,1.957,2.8,5.978,3.721A2.808,2.808,0,0,0,15.9,54.258H42.1a2.808,2.808,0,0,0,2.441-1.425c4.021-.917,5.978-2.135,5.978-3.721,0-1.537-1.838-2.729-5.613-3.635V44.365c7.743,1.442,11.226,3.629,11.226,5.216,0,1.151-1.977,2.909-7.525,4.388Z" transform="translate(0)"/>
        <path id="Trazado_816584" data-name="Trazado 816584" d="M432,224h1.871v1.871H432Z" transform="translate(-381.484 -197.806)"/>
        <path id="Trazado_816585" data-name="Trazado 816585" d="M464,208h1.871v14.968H464Z" transform="translate(-409.742 -183.677)"/>
        <path id="Trazado_816586" data-name="Trazado 816586" d="M464,352h1.871v1.871H464Z" transform="translate(-409.742 -310.839)"/>
        <path id="Trazado_816587" data-name="Trazado 816587" d="M48,224h1.871v1.871H48Z" transform="translate(-42.387 -197.806)"/>
        <path id="Trazado_816588" data-name="Trazado 816588" d="M16,208h1.871v14.968H16Z" transform="translate(-14.129 -183.677)"/>
        <path id="Trazado_816589" data-name="Trazado 816589" d="M16,352h1.871v1.871H16Z" transform="translate(-14.129 -310.839)"/>
      </g>
    </g>
  </g>
</svg>
