<svg xmlns="http://www.w3.org/2000/svg" width="222.07" height="204.703" viewBox="0 0 222.07 204.703">
  <g id="Grupo_1070083" data-name="Grupo 1070083" transform="translate(-2744.658 8173.351)">
    <path id="Trazado_816731" data-name="Trazado 816731" d="M102.587,21.636c62.625-5.579,62.726,29.752,90.943,62.67s34.256,47.837,23.618,85.784-46.479,67.689-90.822,50.836-69.744-.666-97.714-15.636-38.35-43.884-17.878-77.963S25.371,28.513,102.587,21.636Z" transform="translate(2744.655 -8194.402)" fill="#fff"/>
    <g id="_5990697" data-name="5990697" transform="translate(2751.338 -8175.5)">
      <g id="Wifi_Icon" data-name="Wifi Icon" transform="translate(95.135 27.986)">
        <g id="Grupo_1068058" data-name="Grupo 1068058">
          <path id="Trazado_814118" data-name="Trazado 814118" d="M261.044,62.3c18.7.289,34.311,7.384,46.6,21.575a4.321,4.321,0,0,1-.4,6.237,4.261,4.261,0,0,1-6.081-.565A53.469,53.469,0,0,0,285.444,76.88a52.074,52.074,0,0,0-58.186,6.33,79.389,79.389,0,0,0-6.308,6.29,4.408,4.408,0,0,1-6.232.565,4.34,4.34,0,0,1-.3-6.237,60.74,60.74,0,0,1,38.879-21.152c1.223-.169,2.456-.3,3.688-.356,1.348-.062,2.7-.013,4.057-.013Z" transform="translate(-213.242 -62.289)" fill="#263238"/>
          <path id="Trazado_814119" data-name="Trazado 814119" d="M279.266,101.294c11.82.307,22.936,5.356,31.677,15.463a4.217,4.217,0,0,1-.391,6.21,4.269,4.269,0,0,1-6.143-.6,33.727,33.727,0,0,0-16.837-10.979c-13.741-3.71-25.623-.325-35.57,9.844-.369.378-.712.783-1.063,1.179a4.32,4.32,0,1,1-6.526-5.658,43.39,43.39,0,0,1,13.932-10.925c6.117-3.034,12.6-4.511,20.921-4.542Z" transform="translate(-229.921 -83.941)" fill="#263238"/>
          <path id="Trazado_814120" data-name="Trazado 814120" d="M315.412,152.706a4.317,4.317,0,0,1-2.762,4.044,4.266,4.266,0,0,1-4.818-1.21,18.313,18.313,0,0,0-6.6-4.907,17.442,17.442,0,0,0-20.2,4.822,4.181,4.181,0,0,1-4.617,1.379,4.312,4.312,0,0,1-2-6.931,25.964,25.964,0,0,1,39.965.076,12.058,12.058,0,0,1,1.272,2.625l-.227.107Z" transform="translate(-246.614 -105.774)" fill="#263238"/>
          <path id="Trazado_814121" data-name="Trazado 814121" d="M309.817,197.179a8.674,8.674,0,1,1,8.648-8.639,8.631,8.631,0,0,1-8.648,8.639Z" transform="translate(-262.028 -127.542)" fill="#263238"/>
        </g>
      </g>
      <g id="Globe_Icon" data-name="Globe Icon" transform="translate(68.965 6.179)">
        <g id="Grupo_1068059" data-name="Grupo 1068059" transform="translate(0 116.333)">
          <circle id="Elipse_9060" data-name="Elipse 9060" cx="10.343" cy="10.343" r="10.343" transform="translate(0 14.627) rotate(-45)" fill="none" stroke="#263238" stroke-linecap="round" stroke-linejoin="round" stroke-width="2"/>
          <ellipse id="Elipse_9061" data-name="Elipse 9061" cx="5.116" cy="10.343" rx="5.116" ry="10.343" transform="translate(9.509 4.282)" fill="none" stroke="#263238" stroke-linecap="round" stroke-linejoin="round" stroke-width="2"/>
          <path id="Trazado_814122" data-name="Trazado 814122" d="M171.29,279.243a10.345,10.345,0,0,0,14.333-.093" transform="translate(-163.783 -271.937)" fill="none" stroke="#263238" stroke-linecap="round" stroke-linejoin="round" stroke-width="2"/>
          <path id="Trazado_814123" data-name="Trazado 814123" d="M185.4,308.745a10.342,10.342,0,0,0-14.4.1" transform="translate(-163.622 -286.776)" fill="none" stroke="#263238" stroke-linecap="round" stroke-linejoin="round" stroke-width="2"/>
          <line id="Línea_3528" data-name="Línea 3528" x2="20.685" transform="translate(4.282 14.624)" fill="none" stroke="#263238" stroke-linecap="round" stroke-linejoin="round" stroke-width="2"/>
          <line id="Línea_3529" data-name="Línea 3529" y2="20.685" transform="translate(14.625 4.282)" fill="none" stroke="#263238" stroke-linecap="round" stroke-linejoin="round" stroke-width="2"/>
        </g>
        <g id="Grupo_1068060" data-name="Grupo 1068060" transform="translate(14.678)">
          <line id="Línea_3530" data-name="Línea 3530" y1="1.112" transform="translate(0 116.233)" fill="none" stroke="#263238" stroke-linecap="round" stroke-linejoin="round" stroke-width="1"/>
          <line id="Línea_3531" data-name="Línea 3531" y1="111.731" transform="translate(0 2.242)" fill="none" stroke="#263238" stroke-linecap="round" stroke-linejoin="round" stroke-width="1" stroke-dasharray="0 0 5.07 5.07"/>
          <line id="Línea_3532" data-name="Línea 3532" y1="1.112" fill="none" stroke="#263238" stroke-linecap="round" stroke-linejoin="round" stroke-width="1"/>
        </g>
      </g>
      <g id="Ubication_Icon" data-name="Ubication Icon" transform="translate(60.525 6.179)">
        <path id="Trazado_814124" data-name="Trazado 814124" d="M141.868,129.68a6.428,6.428,0,0,0-6.428,6.428c0,3.55,6.428,10.81,6.428,10.81s6.428-7.26,6.428-10.81A6.428,6.428,0,0,0,141.868,129.68Zm0,9.346a2.923,2.923,0,1,1,2.923-2.923A2.922,2.922,0,0,1,141.868,139.026Z" transform="translate(-135.44 -72.624)" fill="#263238" stroke="#263238" stroke-linecap="round" stroke-linejoin="round" stroke-width="1"/>
        <g id="Grupo_1068061" data-name="Grupo 1068061" transform="translate(6.428)">
          <line id="Línea_3533" data-name="Línea 3533" y1="1.112" transform="translate(0 55.944)" fill="none" stroke="#263238" stroke-linecap="round" stroke-linejoin="round" stroke-width="1"/>
          <line id="Línea_3534" data-name="Línea 3534" y1="51.54" transform="translate(0 2.211)" fill="none" stroke="#263238" stroke-linecap="round" stroke-linejoin="round" stroke-width="1" stroke-dasharray="0 0 4.93 4.93"/>
          <line id="Línea_3535" data-name="Línea 3535" y1="1.112" fill="none" stroke="#263238" stroke-linecap="round" stroke-linejoin="round" stroke-width="1"/>
        </g>
      </g>
      <g id="Chat_Icon" data-name="Chat Icon" transform="translate(35.262 6.579)">
        <g id="Grupo_1068064" data-name="Grupo 1068064" transform="translate(0 109.378)">
          <path id="Trazado_814125" data-name="Trazado 814125" d="M95.145,248.2H82.409a3.76,3.76,0,0,0-3.759,3.759v5.8a3.76,3.76,0,0,0,3.759,3.759h0l.125,5.823,4-5.823h8.612A3.76,3.76,0,0,0,98.9,257.76v-5.8A3.76,3.76,0,0,0,95.145,248.2Z" transform="translate(-78.65 -248.2)" fill="#fff" stroke="#263238" stroke-linecap="round" stroke-linejoin="round" stroke-width="1"/>
          <g id="Grupo_1068063" data-name="Grupo 1068063" transform="translate(8.603 3.132)">
            <path id="Trazado_814126" data-name="Trazado 814126" d="M101.077,255.24h10.467a3.089,3.089,0,0,1,3.087,3.087V263.1a3.089,3.089,0,0,1-3.087,3.087h0l-.1,4.787-3.287-4.787h-7.077A3.089,3.089,0,0,1,97.99,263.1v-4.769A3.089,3.089,0,0,1,101.077,255.24Z" transform="translate(-97.99 -255.24)" fill="#263238" stroke="#263238" stroke-linecap="round" stroke-linejoin="round" stroke-width="1"/>
            <g id="Grupo_1068062" data-name="Grupo 1068062" transform="translate(3.915 4.315)">
              <path id="Trazado_814127" data-name="Trazado 814127" d="M109.094,266.092a1.152,1.152,0,1,0-1.152,1.152A1.152,1.152,0,0,0,109.094,266.092Z" transform="translate(-106.79 -264.94)" fill="#1fb4e7"/>
              <circle id="Elipse_9062" data-name="Elipse 9062" cx="1.152" cy="1.152" r="1.152" transform="translate(3.563)" fill="#1fb4e7"/>
              <circle id="Elipse_9063" data-name="Elipse 9063" cx="1.152" cy="1.152" r="1.152" transform="translate(7.126)" fill="#1fb4e7"/>
            </g>
          </g>
        </g>
        <g id="Grupo_1068065" data-name="Grupo 1068065" transform="translate(13.933)">
          <line id="Línea_3536" data-name="Línea 3536" y1="1.112" transform="translate(0 104.2)" fill="none" stroke="#263238" stroke-linecap="round" stroke-linejoin="round" stroke-width="1"/>
          <line id="Línea_3537" data-name="Línea 3537" y1="99.796" transform="translate(0 2.211)" fill="none" stroke="#263238" stroke-linecap="round" stroke-linejoin="round" stroke-width="1" stroke-dasharray="0 0 4.93 4.93"/>
          <line id="Línea_3538" data-name="Línea 3538" y1="1.112" fill="none" stroke="#263238" stroke-linecap="round" stroke-linejoin="round" stroke-width="1"/>
        </g>
      </g>
      <g id="Email_Icon" data-name="Email Icon" transform="translate(21.957 52.324)">
        <g id="Grupo_1068066" data-name="Grupo 1068066" transform="translate(0 21.619)">
          <rect id="Rectángulo_374042" data-name="Rectángulo 374042" width="22.491" height="13.145" fill="#fff" stroke="#263238" stroke-linecap="round" stroke-linejoin="round" stroke-width="1"/>
          <path id="Trazado_814128" data-name="Trazado 814128" d="M48.74,182.393,59.808,172.17l11.424,10.222Z" transform="translate(-48.74 -169.247)" fill="#fff" stroke="#263238" stroke-linecap="round" stroke-linejoin="round" stroke-width="1"/>
          <path id="Trazado_814129" data-name="Trazado 814129" d="M48.74,165.6l11.246,6.575L71.231,165.6Z" transform="translate(-48.74 -165.6)" fill="#fff" stroke="#263238" stroke-linecap="round" stroke-linejoin="round" stroke-width="1"/>
        </g>
        <g id="Grupo_1068067" data-name="Grupo 1068067" transform="translate(11.045)">
          <line id="Línea_3539" data-name="Línea 3539" y1="1.112" transform="translate(0 19.907)" fill="none" stroke="#263238" stroke-linecap="round" stroke-linejoin="round" stroke-width="1"/>
          <line id="Línea_3540" data-name="Línea 3540" y1="15.663" transform="translate(0 2.157)" fill="none" stroke="#263238" stroke-linecap="round" stroke-linejoin="round" stroke-width="1" stroke-dasharray="0 0 4.69 4.69"/>
          <line id="Línea_3541" data-name="Línea 3541" y1="1.112" fill="none" stroke="#263238" stroke-linecap="round" stroke-linejoin="round" stroke-width="1"/>
        </g>
      </g>
      <g id="Cloud_Icon" data-name="Cloud Icon" transform="translate(8.233 5.77)">
        <path id="Trazado_814130" data-name="Trazado 814130" d="M48.673,65.914a12.187,12.187,0,0,0-22.651,2.2c-.2-.013-.387-.031-.587-.031a7.375,7.375,0,0,0-.983,14.7v.071H47.205a8.519,8.519,0,0,0,1.468-16.94Z" transform="translate(-17.89 -33.071)" fill="#fff" stroke="#263238" stroke-linecap="round" stroke-linejoin="round" stroke-width="1"/>
        <g id="Grupo_1068068" data-name="Grupo 1068068" transform="translate(19.862 0)">
          <line id="Línea_3542" data-name="Línea 3542" y1="1.112" transform="translate(0 24.982)" fill="none" stroke="#263238" stroke-linecap="round" stroke-linejoin="round" stroke-width="1"/>
          <line id="Línea_3543" data-name="Línea 3543" y1="20.614" transform="translate(0 2.198)" fill="none" stroke="#263238" stroke-linecap="round" stroke-linejoin="round" stroke-width="1" stroke-dasharray="0 0 4.88 4.88"/>
          <line id="Línea_3544" data-name="Línea 3544" y1="1.112" fill="none" stroke="#263238" stroke-linecap="round" stroke-linejoin="round" stroke-width="1"/>
        </g>
      </g>
      <g id="Share_Icon" data-name="Share Icon" transform="translate(2.117 5.769)">
        <path id="Trazado_814131" data-name="Trazado 814131" d="M15.666,228.951a2.322,2.322,0,0,0-1.41.476l-5.6-4.2a2.337,2.337,0,1,0-.77,1.028l5.6,4.2a2.3,2.3,0,0,0,0,1.664l-5.6,4.2a2.35,2.35,0,1,0,.77,1.028l5.6-4.2a2.335,2.335,0,1,0,1.41-4.195Z" transform="translate(-4.14 -123.798)" fill="#263238"/>
        <g id="Grupo_1068069" data-name="Grupo 1068069" transform="translate(8.078)">
          <line id="Línea_3545" data-name="Línea 3545" y1="1.112" transform="translate(0 27.38)" fill="none" stroke="#263238" stroke-linecap="round" stroke-linejoin="round" stroke-width="1"/>
          <line id="Línea_3546" data-name="Línea 3546" y1="22.687" transform="translate(0 2.309)" fill="none" stroke="#263238" stroke-linecap="round" stroke-linejoin="round" stroke-width="1" stroke-dasharray="0 0 5.37 5.37"/>
          <line id="Línea_3547" data-name="Línea 3547" y1="1.112" fill="none" stroke="#263238" stroke-linecap="round" stroke-linejoin="round" stroke-width="1"/>
        </g>
        <g id="Grupo_1068070" data-name="Grupo 1068070" transform="translate(8.078 51.117)">
          <line id="Línea_3548" data-name="Línea 3548" y1="1.112" transform="translate(0 47.976)" fill="none" stroke="#263238" stroke-linecap="round" stroke-linejoin="round" stroke-width="1"/>
          <line id="Línea_3549" data-name="Línea 3549" y1="43.519" transform="translate(0 2.229)" fill="none" stroke="#263238" stroke-linecap="round" stroke-linejoin="round" stroke-width="1" stroke-dasharray="0 0 5.02 5.02"/>
          <line id="Línea_3550" data-name="Línea 3550" y1="1.112" fill="none" stroke="#263238" stroke-linecap="round" stroke-linejoin="round" stroke-width="1"/>
        </g>
      </g>
      <g id="Plant" transform="translate(0.496 133.31)">
        <g id="Grupo_1068074" data-name="Grupo 1068074" transform="translate(0 0)">
          <g id="Grupo_1068071" data-name="Grupo 1068071">
            <path id="Trazado_814189" data-name="Trazado 814189" d="M5.641,0c3.115,0,5.641,6.624,5.641,14.8s-2.525,14.8-5.641,14.8S0,22.967,0,14.8,2.525,0,5.641,0Z" transform="translate(27.885 7.147)" fill="#1fb4e7" stroke="#263238" stroke-width="1"/>
            <ellipse id="Elipse_9065" data-name="Elipse 9065" cx="10.543" cy="4.591" rx="10.543" ry="4.591" transform="translate(39.105 20.095) rotate(-72.37)" fill="#1fb4e7" stroke="#263238" stroke-miterlimit="10" stroke-width="1"/>
            <path id="Trazado_814132" data-name="Trazado 814132" d="M10.155,391.393C4.412,390.418.1,387.607.524,385.107s5.423-3.737,11.161-2.762,10.053,3.786,9.631,6.286S15.894,392.367,10.155,391.393Z" transform="translate(-0.496 -345.108)" fill="#1fb4e7" stroke="#263238" stroke-miterlimit="10" stroke-width="1"/>
            <path id="Trazado_814133" data-name="Trazado 814133" d="M110.313,355.5c-4.8,4.755-10.463,6.819-12.656,4.6s-.085-7.86,4.711-12.616,10.463-6.819,12.656-4.6.085,7.86-4.711,12.616Z" transform="translate(-53.954 -322.89)" fill="#1fb4e7" stroke="#263238" stroke-miterlimit="10" stroke-width="1"/>
            <path id="Trazado_814134" data-name="Trazado 814134" d="M33.886,331.708c4.635,6.726,6.019,13.821,3.087,15.841s-9.07-1.793-13.706-8.523S17.249,325.2,20.18,323.185s9.07,1.793,13.706,8.523Z" transform="translate(-10.57 -312.15)" fill="#1fb4e7" stroke="#263238" stroke-miterlimit="10" stroke-width="1"/>
            <line id="Línea_3551" data-name="Línea 3551" x2="0.44" y2="20.343" transform="translate(33.917 36)" fill="none" stroke="#263238" stroke-linecap="round" stroke-miterlimit="10" stroke-width="1"/>
            <line id="Línea_3552" data-name="Línea 3552" x2="0.525" y2="19.56" transform="translate(33.392 16.44)" fill="none" stroke="#263238" stroke-linecap="round" stroke-miterlimit="10" stroke-width="1"/>
            <line id="Línea_3553" data-name="Línea 3553" x1="0.04" y2="1.495" transform="translate(33.392 13.25)" fill="none" stroke="#263238" stroke-linecap="round" stroke-miterlimit="10" stroke-width="1"/>
            <path id="Trazado_814135" data-name="Trazado 814135" d="M59.8,376.47a56.763,56.763,0,0,1,5.569,21.344" transform="translate(-33.419 -342.032)" fill="none" stroke="#263238" stroke-linecap="round" stroke-miterlimit="10" stroke-width="1"/>
            <path id="Trazado_814136" data-name="Trazado 814136" d="M38.02,343.15a66.992,66.992,0,0,1,9.689,14.822" transform="translate(-21.328 -323.534)" fill="none" stroke="#263238" stroke-linecap="round" stroke-miterlimit="10" stroke-width="1"/>
            <path id="Trazado_814137" data-name="Trazado 814137" d="M31.16,335.9s.583.534,1.548,1.557" transform="translate(-17.519 -319.509)" fill="none" stroke="#263238" stroke-linecap="round" stroke-miterlimit="10" stroke-width="1"/>
            <path id="Trazado_814138" data-name="Trazado 814138" d="M88.116,381.17a66.733,66.733,0,0,0-9.146,18.15" transform="translate(-44.061 -344.641)" fill="none" stroke="#263238" stroke-linecap="round" stroke-miterlimit="10" stroke-width="1"/>
            <path id="Trazado_814139" data-name="Trazado 814139" d="M106.02,364.41a53.517,53.517,0,0,0-6.49,7.456" transform="translate(-55.475 -335.336)" fill="none" stroke="#263238" stroke-linecap="round" stroke-miterlimit="10" stroke-width="1"/>
            <path id="Trazado_814140" data-name="Trazado 814140" d="M123.522,352.53a29.749,29.749,0,0,0-4.942,3.5" transform="translate(-66.051 -328.741)" fill="none" stroke="#263238" stroke-linecap="round" stroke-miterlimit="10" stroke-width="1"/>
            <path id="Trazado_814141" data-name="Trazado 814141" d="M87.425,344.24c-3.123,9.836-7.318,24.364-9.275,36.98" transform="translate(-43.606 -324.139)" fill="none" stroke="#263238" stroke-linecap="round" stroke-miterlimit="10" stroke-width="1"/>
            <path id="Trazado_814142" data-name="Trazado 814142" d="M100.9,331.13c-.556,1.659-1.2,3.63-1.9,5.832" transform="translate(-55.181 -316.861)" fill="none" stroke="#263238" stroke-linecap="round" stroke-miterlimit="10" stroke-width="1"/>
            <path id="Trazado_814143" data-name="Trazado 814143" d="M105.884,318.44s-.547,1.5-1.424,4.088" transform="translate(-58.212 -309.816)" fill="none" stroke="#263238" stroke-linecap="round" stroke-miterlimit="10" stroke-width="1"/>
            <path id="Trazado_814144" data-name="Trazado 814144" d="M46.65,393.82a15.468,15.468,0,0,1,9.569,9.747" transform="translate(-26.119 -351.664)" fill="none" stroke="#263238" stroke-linecap="round" stroke-miterlimit="10" stroke-width="1"/>
            <path id="Trazado_814145" data-name="Trazado 814145" d="M30.44,390.52a24.543,24.543,0,0,1,7.211,1.468" transform="translate(-17.119 -349.832)" fill="none" stroke="#263238" stroke-linecap="round" stroke-miterlimit="10" stroke-width="1"/>
            <path id="Trazado_814146" data-name="Trazado 814146" d="M19.94,390.6s.694-.1,1.842-.142" transform="translate(-11.29 -349.798)" fill="none" stroke="#263238" stroke-linecap="round" stroke-miterlimit="10" stroke-width="1"/>
            <path id="Trazado_814147" data-name="Trazado 814147" d="M118.7,391.393c5.743-.974,10.053-3.786,9.631-6.286s-5.423-3.737-11.161-2.762-10.053,3.786-9.631,6.286S112.957,392.367,118.7,391.393Z" transform="translate(-59.903 -345.108)" fill="#1fb4e7" stroke="#263238" stroke-miterlimit="10" stroke-width="1"/>
            <path id="Trazado_814148" data-name="Trazado 814148" d="M96.4,393.71A15.489,15.489,0,0,0,86.71,403.5" transform="translate(-48.358 -351.602)" fill="none" stroke="#263238" stroke-linecap="round" stroke-miterlimit="10" stroke-width="1"/>
            <path id="Trazado_814149" data-name="Trazado 814149" d="M116.191,390.46a25.077,25.077,0,0,0-7.691,1.45" transform="translate(-60.455 -349.798)" fill="none" stroke="#263238" stroke-linecap="round" stroke-miterlimit="10" stroke-width="1"/>
            <path id="Trazado_814150" data-name="Trazado 814150" d="M133.391,390.636s-.458-.067-1.241-.116" transform="translate(-73.584 -349.832)" fill="none" stroke="#263238" stroke-linecap="round" stroke-miterlimit="10" stroke-width="1"/>
          </g>
          <g id="Grupo_1068073" data-name="Grupo 1068073" transform="translate(18.45 50.422)">
            <path id="Trazado_814151" data-name="Trazado 814151" d="M71.485,431.168a27.34,27.34,0,0,0,2.669-11.646,23.936,23.936,0,0,0-1.068-7.122H43.038a24.058,24.058,0,0,0-1.068,7.122,27.34,27.34,0,0,0,2.669,11.646H71.485Z" transform="translate(-41.97 -412.4)" fill="#263238"/>
            <g id="Grupo_1068072" data-name="Grupo 1068072" transform="translate(0.098 3.327)">
              <path id="Trazado_814152" data-name="Trazado 814152" d="M42.39,419.88c-.085.547-.151,1.1-.2,1.664H74.179c-.049-.561-.116-1.117-.2-1.664Z" transform="translate(-42.19 -419.88)" fill="#7a7a7a"/>
              <path id="Trazado_814153" data-name="Trazado 814153" d="M73.942,436.934c.1-.552.187-1.108.254-1.664H42.38c.067.556.151,1.112.254,1.664Z" transform="translate(-42.295 -428.424)" fill="#7a7a7a"/>
            </g>
            <path id="Trazado_814154" data-name="Trazado 814154" d="M47.469,427a1.294,1.294,0,1,1-1.294-1.295A1.293,1.293,0,0,1,47.469,427Z" transform="translate(-43.586 -419.789)" fill="#8c8c8c"/>
            <path id="Trazado_814155" data-name="Trazado 814155" d="M62.019,427a1.294,1.294,0,1,1-1.294-1.295A1.293,1.293,0,0,1,62.019,427Z" transform="translate(-51.663 -419.789)" fill="#8c8c8c"/>
            <path id="Trazado_814156" data-name="Trazado 814156" d="M76.569,427a1.294,1.294,0,1,1-1.294-1.295A1.293,1.293,0,0,1,76.569,427Z" transform="translate(-59.741 -419.789)" fill="#8c8c8c"/>
            <circle id="Elipse_9066" data-name="Elipse 9066" cx="1.294" cy="1.294" r="1.294" transform="translate(20.716 5.921)" fill="#8c8c8c"/>
            <path id="Trazado_814157" data-name="Trazado 814157" d="M105.679,427a1.295,1.295,0,1,1-1.294-1.295A1.293,1.293,0,0,1,105.679,427Z" transform="translate(-75.901 -419.789)" fill="#8c8c8c"/>
          </g>
        </g>
      </g>
      <g id="Device" transform="translate(59.844 101.037)">
        <g id="Grupo_1068077" data-name="Grupo 1068077">
          <path id="Trazado_814158" data-name="Trazado 814158" d="M412.979,226.516h0a1.718,1.718,0,0,0-1.9,1.49l-8.63,66.611,5.614.632,6.441-66.856a1.726,1.726,0,0,0-1.521-1.877Z" transform="translate(-282.992 -226.505)" fill="#263238" stroke="#263238" stroke-linecap="round" stroke-linejoin="round" stroke-width="1"/>
          <path id="Trazado_814159" data-name="Trazado 814159" d="M229.316,226.516h0a1.718,1.718,0,0,1,1.9,1.49l8.63,66.611-5.614.632-6.441-66.856a1.726,1.726,0,0,1,1.521-1.877Z" transform="translate(-186.024 -226.505)" fill="#263238" stroke="#263238" stroke-linecap="round" stroke-linejoin="round" stroke-width="1"/>
          <g id="Grupo_1068076" data-name="Grupo 1068076" transform="translate(0 66.769)">
            <rect id="Rectángulo_374043" data-name="Rectángulo 374043" width="91.838" height="34.689" rx="4.59" transform="translate(50.103)" fill="#fff" stroke="#263238" stroke-linecap="round" stroke-linejoin="round" stroke-width="1"/>
            <rect id="Rectángulo_374044" data-name="Rectángulo 374044" width="95.726" height="26.139" rx="4.17" transform="translate(48.159 4.279)" fill="#fff" stroke="#263238" stroke-linecap="round" stroke-linejoin="round" stroke-width="1"/>
            <rect id="Rectángulo_374045" data-name="Rectángulo 374045" width="91.838" height="34.689" rx="4.59" transform="translate(1.94)" fill="#fff" stroke="#263238" stroke-linecap="round" stroke-linejoin="round" stroke-width="1"/>
            <rect id="Rectángulo_374046" data-name="Rectángulo 374046" width="95.726" height="26.139" rx="4.17" transform="translate(0 4.279)" fill="#fff" stroke="#263238" stroke-linecap="round" stroke-linejoin="round" stroke-width="1"/>
            <rect id="Rectángulo_374047" data-name="Rectángulo 374047" width="80.446" height="14.048" rx="5.01" transform="translate(8.052 10.009)" fill="#263238" stroke="#263238" stroke-linecap="round" stroke-linejoin="round" stroke-width="1"/>
            <g id="Grupo_1068075" data-name="Grupo 1068075" transform="translate(10.169 11.966)">
              <path id="Trazado_814160" data-name="Trazado 814160" d="M159.119,406.75a3.736,3.736,0,1,0,2.843.027" transform="translate(-156.77 -405.304)" fill="none" stroke="#1fb4e7" stroke-linecap="round" stroke-miterlimit="10" stroke-width="3"/>
              <line id="Línea_3554" data-name="Línea 3554" y2="2.762" transform="translate(3.777)" fill="none" stroke="#1fb4e7" stroke-linecap="round" stroke-miterlimit="10" stroke-width="3"/>
            </g>
          </g>
        </g>
      </g>
      <g id="Character" transform="translate(109.713 109.758)">
        <g id="Grupo_1068085" data-name="Grupo 1068085">
          <g id="Grupo_1068078" data-name="Grupo 1068078" transform="translate(0 78.991)">
            <path id="Trazado_814161" data-name="Trazado 814161" d="M253.628,423.68s-3.634,1.139-4.4,1.29-3.141-.467-3.212.463,1.366,1.748,3.648,2.665a17.951,17.951,0,0,0,6.486,1.593c1.7-.08,1.375-3.425,1.468-3.995s-3.986-2.015-3.986-2.015Z" transform="translate(-246.014 -423.68)" fill="#fff" stroke="#263238" stroke-linecap="round" stroke-linejoin="round" stroke-width="1"/>
            <path id="Trazado_814162" data-name="Trazado 814162" d="M250.857,429.169c-2.847-1.174-4.168-1.784-4.746-2.069a.434.434,0,0,0-.093.231c-.071.93,1.366,1.748,3.648,2.665a17.951,17.951,0,0,0,6.486,1.593c.632-.031.988-.516,1.183-1.139A16.508,16.508,0,0,1,250.857,429.169Z" transform="translate(-246.014 -425.579)" fill="#fff" stroke="#263238" stroke-linecap="round" stroke-linejoin="round" stroke-width="1"/>
          </g>
          <path id="Trazado_814163" data-name="Trazado 814163" d="M285.2,346.128l-.952.52v1.383s-19.853,3.31-20.111,5.04-1.045,27.474-1.045,27.474,3.2,3.448,3.892,2.669.867-3.274.867-3.274l3.3-22.8s22.362,2.055,25.734,1.014,5.018-5.538,5.107-7.616.085-3.029.085-3.029l-15.227-2.077-1.646.694Z" transform="translate(-255.494 -301.248)" fill="#e4e9eb" stroke="#263238" stroke-linecap="round" stroke-linejoin="round" stroke-width="1"/>
          <g id="Grupo_1068079" data-name="Grupo 1068079" transform="translate(16.549 79.663)">
            <path id="Trazado_814164" data-name="Trazado 814164" d="M289.629,425.448s-.049.085-.142.236a21.867,21.867,0,0,1-2.451,3.225c-1.472,1.557-3.892,2.856-3.808,3.376s1.73.863,7.353-.863c2.531-.778,4.413-.778,4.671-1.646s-1.815-4.586-1.815-4.586Z" transform="translate(-283.221 -425.19)" fill="#fff" stroke="#263238" stroke-linecap="round" stroke-linejoin="round" stroke-width="1"/>
            <path id="Trazado_814165" data-name="Trazado 814165" d="M295.246,433.969a2.48,2.48,0,0,0-.222-1.219,34.453,34.453,0,0,1-5.921,2.171,38.522,38.522,0,0,1-5.609,1.108c-.187.182-.294.338-.276.449.085.52,1.73.863,7.353-.863,2.531-.778,4.413-.778,4.671-1.646Z" transform="translate(-283.216 -429.387)" fill="#fff" stroke="#263238" stroke-linecap="round" stroke-linejoin="round" stroke-width="1"/>
          </g>
          <path id="Trazado_814166" data-name="Trazado 814166" d="M299.287,353.989s-2.077-1.815-2.251-.778-.52,1.3-.52,1.3-14.533,1.73-16.179,2.767-2.162,2.424-1.21,4.5,7.353,24.831,7.353,24.831a10.444,10.444,0,0,0,2.077.694,7.232,7.232,0,0,0,2.94-.779s-.24-4.239-.845-5.623-3.083-17.344-3.083-17.344,10.507.04,14.053.04,7.442-2.94,8.221-5.365.432-2.94.432-2.94" transform="translate(-264.133 -305.39)" fill="#e4e9eb" stroke="#263238" stroke-linecap="round" stroke-linejoin="round" stroke-width="1"/>
          <line id="Línea_3555" data-name="Línea 3555" x1="0.498" y1="2.722" transform="translate(22.939 55.441)" fill="none" stroke="#263238" stroke-linecap="round" stroke-linejoin="round" stroke-width="1"/>
          <path id="Trazado_814167" data-name="Trazado 814167" d="M335.84,363.96a5.774,5.774,0,0,1,.672,1.259" transform="translate(-295.882 -311.535)" fill="none" stroke="#263238" stroke-linecap="round" stroke-linejoin="round" stroke-width="1"/>
          <path id="Trazado_814168" data-name="Trazado 814168" d="M326.95,357.21a10.085,10.085,0,0,1,3.4,2.313" transform="translate(-290.946 -307.787)" fill="none" stroke="#263238" stroke-linecap="round" stroke-linejoin="round" stroke-width="1"/>
          <path id="Trazado_814169" data-name="Trazado 814169" d="M334.34,358.31a7,7,0,0,1,3.167,2.923" transform="translate(-295.049 -308.398)" fill="none" stroke="#263238" stroke-linecap="round" stroke-linejoin="round" stroke-width="1"/>
          <g id="Grupo_1068080" data-name="Grupo 1068080" transform="translate(28.566 18.288)">
            <path id="Trazado_814170" data-name="Trazado 814170" d="M311.578,292.58s-.009.12-.022.338c-.076,1.219-1.428,3.043-.623,5.32,1.837,5.178,1.464,8.981,1.3,7.874.258,1.73-1.3,5.449-1.3,6.664s-3.2,1.392,4.066,3.559,9.778,2.069,11.593,1.375,3.114-1.3,3.287-2.767-1.383-4.066-1.472-6.317-.391-9.293-2.558-13.79-7.874-7.616-7.874-7.616l-6.4,5.365Z" transform="translate(-310.23 -287.22)" fill="#fff" stroke="#263238" stroke-linecap="round" stroke-linejoin="round" stroke-width="1"/>
            <path id="Trazado_814171" data-name="Trazado 814171" d="M338.86,336.312c.378-.289.734-.578,1.054-.872" transform="translate(-326.124 -313.99)" fill="none" stroke="#263238" stroke-linecap="round" stroke-linejoin="round" stroke-width="1"/>
            <path id="Trazado_814172" data-name="Trazado 814172" d="M318.36,343.738a57.635,57.635,0,0,0,7.736-4.128" transform="translate(-314.743 -316.305)" fill="none" stroke="#263238" stroke-linecap="round" stroke-linejoin="round" stroke-width="1"/>
            <path id="Trazado_814173" data-name="Trazado 814173" d="M320.632,347.77A17.788,17.788,0,0,1,317.42,349" transform="translate(-314.222 -320.835)" fill="none" stroke="#263238" stroke-linecap="round" stroke-linejoin="round" stroke-width="1"/>
            <path id="Trazado_814174" data-name="Trazado 814174" d="M326.974,346.06s-.24.151-.654.374" transform="translate(-319.163 -319.885)" fill="none" stroke="#263238" stroke-linecap="round" stroke-linejoin="round" stroke-width="1"/>
            <line id="Línea_3556" data-name="Línea 3556" y1="2.856" x2="2.335" transform="translate(9.013 11.882)" fill="none" stroke="#263238" stroke-linecap="round" stroke-linejoin="round" stroke-width="1"/>
          </g>
          <g id="Grupo_1068081" data-name="Grupo 1068081" transform="translate(24.5 3.72)">
            <path id="Trazado_814175" data-name="Trazado 814175" d="M305.685,255.214a12.551,12.551,0,0,0-1.561,2c-.378.747-.431,1.286-1.09,1.762s-1.975.173-1.944.943a2.694,2.694,0,0,0,.836,1.5s-.649,4.7-.4,5.445,3.6.885,3.6.885l1.713,5.578,6.05-4.1.16-1.624a25.826,25.826,0,0,1,2.131-4.222c.9-1.526.5-5.561-1.668-7.3s-5.045-1.557-5.93-1.619a3.405,3.405,0,0,0-1.9.747Z" transform="translate(-301.089 -254.472)" fill="#fff" stroke="#263238" stroke-linecap="round" stroke-linejoin="round" stroke-width="1"/>
            <path id="Trazado_814176" data-name="Trazado 814176" d="M303.9,272.17a2.143,2.143,0,0,0,2.238.507" transform="translate(-302.649 -264.297)" fill="none" stroke="#263238" stroke-linecap="round" stroke-linejoin="round" stroke-width="1"/>
            <path id="Trazado_814177" data-name="Trazado 814177" d="M308.914,264.9c-.147.343-.378.569-.516.512s-.129-.383.018-.725.378-.569.516-.512S309.06,264.561,308.914,264.9Z" transform="translate(-305.092 -259.856)" fill="#263238"/>
            <path id="Trazado_814178" data-name="Trazado 814178" d="M309.16,261.974a1.223,1.223,0,0,1,1.495,1.032" transform="translate(-305.57 -258.625)" fill="none" stroke="#263238" stroke-linecap="round" stroke-linejoin="round" stroke-width="1"/>
            <path id="Trazado_814179" data-name="Trazado 814179" d="M310.17,284.22l2.1-.08-1.432,1.753Z" transform="translate(-306.13 -270.943)" fill="#263238" stroke="#263238" stroke-linecap="round" stroke-linejoin="round" stroke-width="1"/>
            <path id="Trazado_814180" data-name="Trazado 814180" d="M319.116,279.1l-.908-.271-.538.845" transform="translate(-310.294 -267.995)" fill="none" stroke="#263238" stroke-linecap="round" stroke-linejoin="round" stroke-width="1"/>
          </g>
          <path id="Trazado_814181" data-name="Trazado 814181" d="M311.493,248.507s1.308-1.5-.262-2.206-6.913.583-6.335,2.927,5.561,2.642,6.037,2.682-.952.547-.561,1.259,1.348,1.068,1.383,1.837-.894,1.806-.44,2.251,1.157-.222,1.61-.4,1.695,1.077.716,2.651S312,260.94,312,260.94a1.481,1.481,0,0,0,.449,1.695,2.4,2.4,0,0,0,3.092-.2,20.089,20.089,0,0,1,2.816-2.963c1.6-1.575,2.362-5.556,1.254-8.3s-6.112-3.875-8.114-2.669Z" transform="translate(-278.678 -246.109)" fill="#263238" stroke="#263238" stroke-linecap="round" stroke-linejoin="round" stroke-width="1"/>
          <path id="Trazado_814182" data-name="Trazado 814182" d="M317.327,284.34l-8.247,6.072.472,2.616,9.279-6.833Z" transform="translate(-281.026 -267.333)" fill="#fff" stroke="#263238" stroke-linecap="round" stroke-linejoin="round" stroke-width="1"/>
          <g id="Grupo_1068082" data-name="Grupo 1068082" transform="translate(6.502 37.363)">
            <path id="Trazado_814183" data-name="Trazado 814183" d="M278.047,357.446l14.52-3.181-3.39-2.015L275.4,355.324Z" transform="translate(-268.83 -342.397)" fill="#fff" stroke="#263238" stroke-linecap="round" stroke-linejoin="round" stroke-width="1"/>
            <path id="Trazado_814184" data-name="Trazado 814184" d="M263.384,331.368l6.464,13.781-2.647-2.122L260.63,330.1Z" transform="translate(-260.63 -330.1)" fill="#263238" stroke="#263238" stroke-linecap="round" stroke-linejoin="round" stroke-width="1"/>
          </g>
          <g id="Grupo_1068083" data-name="Grupo 1068083" transform="translate(15.514 31.531)">
            <path id="Trazado_814185" data-name="Trazado 814185" d="M286.313,350.76l-3.345.863-2.077,3a.822.822,0,0,0,.636.231,5.217,5.217,0,0,0,1.268-.863l2.424-.636s-1.268.752-1.268.921.231.231.81.173,1.962-1.326,1.962-1.326l.921-1.152-1.326-1.21Z" transform="translate(-280.89 -335.738)" fill="#fff" stroke="#263238" stroke-linecap="round" stroke-linejoin="round" stroke-width="1"/>
            <path id="Trazado_814186" data-name="Trazado 814186" d="M302.115,316.99l-1.708,7.811-7.327,7.211,1.73,1.615,6.085-2.771.418-1.094,1.472-6.544Z" transform="translate(-287.657 -316.99)" fill="#fff" stroke="#263238" stroke-linecap="round" stroke-linejoin="round" stroke-width="1"/>
          </g>
          <g id="Grupo_1068084" data-name="Grupo 1068084" transform="translate(10.511 20.581)">
            <path id="Trazado_814187" data-name="Trazado 814187" d="M278.04,347.209s-2.335.347-3.2.347a15.87,15.87,0,0,0-3.287.347c-.347.173-1.988,1.21-1.9,1.988s1.557.085,1.557.085a11.019,11.019,0,0,0,1.125,1.988c.694.952,1.036.605,2.424.085a19,19,0,0,0,3.461-2.077l1.21-1.125L278.04,347.2Z" transform="translate(-269.643 -322.811)" fill="#fff" stroke="#263238" stroke-linecap="round" stroke-linejoin="round" stroke-width="1"/>
            <path id="Trazado_814188" data-name="Trazado 814188" d="M308.465,292.448s-3.545-.52-4.844,1.21a16.742,16.742,0,0,0-2.856,7.006,43.318,43.318,0,0,1-1.9,6.748l-11,9.159,1.9,2.856s13.336-6.214,13.683-6.65,4.76-11.855,4.76-11.855" transform="translate(-279.756 -292.375)" fill="#fff" stroke="#263238" stroke-linecap="round" stroke-linejoin="round" stroke-width="1"/>
          </g>
        </g>
      </g>
      <g id="Floor" transform="translate(5.151 202.499)">
        <line id="Línea_3557" data-name="Línea 3557" x2="204.677" fill="none" stroke="#263238" stroke-linecap="round" stroke-linejoin="round" stroke-width="1"/>
      </g>
    </g>
  </g>
</svg>
