<svg xmlns="http://www.w3.org/2000/svg" width="915" height="224.329" viewBox="0 0 915 224.329">
  <g id="Grupo_1070085" data-name="Grupo 1070085" transform="translate(-369 -5236)">
    <rect id="Rectángulo_2197" data-name="Rectángulo 2197" width="915" height="224.329" transform="translate(369 5236)" fill="#ececec" opacity="0.997"/>
    <g id="Grupo_1068440" data-name="Grupo 1068440" transform="translate(-4.305 3341.851)">
      <g id="fOXuZZ" transform="translate(-4227.474 -2358.051)">
        <g id="Grupo_155295" data-name="Grupo 155295" transform="translate(4774.778 4270.2)">
          <path id="Trazado_197123" data-name="Trazado 197123" d="M4860.691,4270.216h68.87c2.634,0,5.268-.04,7.9.008a9.185,9.185,0,0,1,8.849,7.621,10.482,10.482,0,0,1,.152,1.765q.016,10.456.008,20.912,0,5.73,0,11.461a9.332,9.332,0,0,1-9.384,9.368q-40.555,0-81.109-.006-35.868,0-71.735,0a9.384,9.384,0,0,1-9.424-9.272c-.028-10.922-.08-21.846.019-32.768a9.115,9.115,0,0,1,8.93-9.071c9.838-.058,19.677-.025,29.515-.026q23.706,0,47.411,0Zm-.073,4.956v-.021h-28.733q-23.118,0-46.237.006a10.906,10.906,0,0,0-2.46.128,4.32,4.32,0,0,0-3.42,4.535q-.011,15.879,0,31.757a4.493,4.493,0,0,0,4.833,4.818h77.535q37.373,0,74.746.009a4.6,4.6,0,0,0,4.667-4.675c-.088-5.162-.028-10.326-.028-15.489,0-5.448-.077-10.9.033-16.343a4.692,4.692,0,0,0-4.8-4.768c-13.475.081-26.951.039-40.427.04Z" transform="translate(-4774.778 -4270.2)" fill="#12263f"/>
          <path id="Trazado_197124" data-name="Trazado 197124" d="M4860.757,5047.635q-35.01,0-70.02,0c-2.427,0-4.855.028-7.28-.057a9.265,9.265,0,0,1-8.363-7.812,22.671,22.671,0,0,1-.143-2.469q-.015-15.61-.006-31.22a9.351,9.351,0,0,1,7.514-9.385,10.106,10.106,0,0,1,2.147-.207q17.391-.01,34.782.008,20.569,0,41.136-.016,25.293,0,50.585,0c8.65,0,17.3-.023,25.952.01a9.131,9.131,0,0,1,8.5,5.052,10.767,10.767,0,0,1,1.058,5.386c-.037,3.484-.01,6.97-.01,10.454q0,10.459,0,20.917a9.322,9.322,0,0,1-7.923,9.259,11.212,11.212,0,0,1-1.7.077q-27.231,0-54.462-.009-9.877,0-19.755.012Zm.019-4.972v0h71.255c1.857,0,3.715.033,5.57-.021a4.282,4.282,0,0,0,4.051-4.18q.03-16.345.03-32.69a3.642,3.642,0,0,0-.216-1.282,4.526,4.526,0,0,0-4.536-3.062q-18.394,0-36.788,0h-44.622l-45.083,0q-12.934,0-25.868,0a4.476,4.476,0,0,0-4.664,4.678c0,10.613.022,21.227-.016,31.84a4.581,4.581,0,0,0,4.754,4.739c3.482-.106,6.969-.027,10.454-.026l24.55,0Z" transform="translate(-4774.918 -4883.938)" fill="#12263f"/>
          <path id="Trazado_197125" data-name="Trazado 197125" d="M4860.76,4684.52h-76.225a9.245,9.245,0,0,1-9.363-7.409,9.742,9.742,0,0,1-.225-2.146q-.021-16-.008-31.992a9.375,9.375,0,0,1,9.587-9.583l135.64.006q8.4,0,16.81-.006a9.352,9.352,0,0,1,9.594,8.177,6.887,6.887,0,0,1,.034,1.083q0,16.305,0,32.611a9.258,9.258,0,0,1-9.229,9.256Q4899.066,4684.528,4860.76,4684.52Zm0-4.956H4875.1q31.1,0,62.208,0a4.346,4.346,0,0,0,4.345-4.311q.029-7.668.039-15.337c0-5.6-.092-11.206-.008-16.807a4.659,4.659,0,0,0-4.785-4.794c-15.235.054-30.471.027-45.707.027H4784.511a4.424,4.424,0,0,0-4.611,4.555c-.006,10.665.009,21.33-.01,32a4.6,4.6,0,0,0,4.722,4.7Q4822.688,4679.528,4860.764,4679.564Z" transform="translate(-4774.912 -4577.115)" fill="#12263f"/>
          <path id="Trazado_197126" data-name="Trazado 197126" d="M5668.737,4382.9a9.6,9.6,0,0,1,19.194.045,9.6,9.6,0,1,1-19.194-.045Zm4.962.017a4.577,4.577,0,0,0,4.641,4.663,4.744,4.744,0,0,0,4.645-4.643,4.683,4.683,0,0,0-4.619-4.631A4.571,4.571,0,0,0,5673.7,4382.915Z" transform="translate(-5530.222 -4357.364)" fill="#12263f"/>
          <path id="Trazado_197127" data-name="Trazado 197127" d="M5500.792,4382.907a9.585,9.585,0,0,1,19.17-.011,9.585,9.585,0,1,1-19.17.011Zm9.579-4.6a4.64,4.64,0,0,0-.006,9.28,4.64,4.64,0,1,0,.006-9.28Z" transform="translate(-5388.3 -4357.364)" fill="#12263f"/>
          <path id="Trazado_197128" data-name="Trazado 197128" d="M4986.082,4361.83c-1.027,0-2.062.076-3.08-.021a2.418,2.418,0,0,1-2.094-2.388,2.321,2.321,0,0,1,2.057-2.4c2.076-.1,4.165-.106,6.241-.008a2.285,2.285,0,0,1,2.074,2.453,2.335,2.335,0,0,1-2.114,2.351c-1.02.1-2.055.02-3.083.02Z" transform="translate(-4948.969 -4343.501)" fill="#12263f"/>
          <path id="Trazado_197129" data-name="Trazado 197129" d="M5104.4,4356.811c.9,0,1.809-.035,2.71.008a2.47,2.47,0,1,1-.069,4.94q-2.594.039-5.189.006a2.477,2.477,0,1,1-.084-4.948c.875-.042,1.755-.008,2.632-.008Z" transform="translate(-5048.956 -4343.378)" fill="#12263f"/>
          <path id="Trazado_197130" data-name="Trazado 197130" d="M4868.02,4361.688c-.878,0-1.757.024-2.634-.006a2.4,2.4,0,0,1-2.521-2.37,2.329,2.329,0,0,1,2.4-2.546c1.855-.076,3.719-.074,5.575-.005a2.46,2.46,0,0,1,2.379,2.469,2.519,2.519,0,0,1-2.491,2.448c-.9.036-1.805.006-2.708.006Z" transform="translate(-4849.215 -4343.304)" fill="#12263f"/>
          <path id="Trazado_197131" data-name="Trazado 197131" d="M5222.923,4361.689c-1.029,0-2.062.065-3.085-.018a2.268,2.268,0,0,1-2.1-2.023,2.386,2.386,0,0,1,1.5-2.661,3.542,3.542,0,0,1,1.2-.208c1.647-.024,3.295-.021,4.942-.014a2.5,2.5,0,1,1-.063,4.978c-.8-.01-1.6,0-2.394,0Z" transform="translate(-5149.083 -4343.348)" fill="#12263f"/>
          <path id="Trazado_197132" data-name="Trazado 197132" d="M5104.457,4424.283c-.852,0-1.7.011-2.556,0a2.57,2.57,0,0,1-2.654-2.537,2.453,2.453,0,0,1,2.647-2.414q2.594-.006,5.189,0a2.358,2.358,0,0,1,2.5,2.373,2.465,2.465,0,0,1-2.422,2.571C5106.265,4424.31,5105.36,4424.282,5104.457,4424.283Z" transform="translate(-5048.972 -4396.221)" fill="#12263f"/>
          <path id="Trazado_197133" data-name="Trazado 197133" d="M4986.037,4486.22c-.876,0-1.752,0-2.627,0a2.468,2.468,0,0,1-.18-4.932q2.9-.083,5.794,0a2.47,2.47,0,0,1-.128,4.928C4987.943,4486.235,4986.989,4486.22,4986.037,4486.22Z" transform="translate(-4948.966 -4448.545)" fill="#12263f"/>
          <path id="Trazado_197134" data-name="Trazado 197134" d="M4868.023,4486.222c-.9,0-1.8.007-2.7,0a2.4,2.4,0,0,1-2.446-2.271,2.43,2.43,0,0,1,2.3-2.663c1.9-.053,3.813-.047,5.718,0a2.47,2.47,0,0,1-.161,4.936C4869.827,4486.23,4868.925,4486.222,4868.023,4486.222Z" transform="translate(-4849.221 -4448.547)" fill="#12263f"/>
          <path id="Trazado_197135" data-name="Trazado 197135" d="M4868.055,4419.3c.875,0,1.751,0,2.627,0a2.484,2.484,0,0,1,2.558,2.429,2.519,2.519,0,0,1-2.421,2.516q-2.741.076-5.487,0a2.434,2.434,0,0,1-2.44-2.615,2.38,2.38,0,0,1,2.536-2.325c.876-.009,1.752,0,2.628,0Z" transform="translate(-4849.238 -4396.195)" fill="#12263f"/>
          <path id="Trazado_197136" data-name="Trazado 197136" d="M4986.218,4424.281c-1.1-.067-2.211-.078-3.3-.218a2.3,2.3,0,0,1-2-2.357,2.331,2.331,0,0,1,2.1-2.38c2.087-.094,4.182-.093,6.27-.022a2.419,2.419,0,0,1,2,2.557,2.538,2.538,0,0,1-2.425,2.359c-.051,0-.1,0-.155,0h-2.479Z" transform="translate(-4948.971 -4396.158)" fill="#12263f"/>
          <path id="Trazado_197137" data-name="Trazado 197137" d="M5222.969,4419.328c.852,0,1.7,0,2.556,0a2.4,2.4,0,0,1,2.573,2.22,2.477,2.477,0,0,1-2.435,2.726q-2.745.069-5.493-.006a2.437,2.437,0,0,1-2.373-2.61,2.369,2.369,0,0,1,2.462-2.327C5221.162,4419.322,5222.065,4419.329,5222.969,4419.328Z" transform="translate(-5149.152 -4396.22)" fill="#12263f"/>
          <path id="Trazado_197138" data-name="Trazado 197138" d="M5104.554,4486.242c-.929,0-1.859.011-2.789,0a2.466,2.466,0,0,1-.1-4.926c1.91-.05,3.822-.058,5.731-.006a2.441,2.441,0,0,1,2.276,2.617,2.388,2.388,0,0,1-2.408,2.316C5106.361,4486.251,5105.458,4486.242,5104.554,4486.242Z" transform="translate(-5049.059 -4448.567)" fill="#12263f"/>
          <path id="Trazado_197139" data-name="Trazado 197139" d="M5222.912,4486.315c-.877,0-1.754,0-2.63,0a2.47,2.47,0,0,1-.118-4.937c1.879-.032,3.763-.028,5.641.051a2.257,2.257,0,0,1,2.257,2.653,2.3,2.3,0,0,1-2.442,2.233C5224.717,4486.319,5223.814,4486.315,5222.912,4486.315Z" transform="translate(-5149.166 -4448.64)" fill="#12263f"/>
          <path id="Trazado_197140" data-name="Trazado 197140" d="M5678.292,5118.857a9.5,9.5,0,0,1-9.541-9.515,9.6,9.6,0,1,1,9.541,9.515Zm-4.579-9.614a4.568,4.568,0,0,0,4.536,4.654,4.659,4.659,0,0,0,4.74-4.572,4.734,4.734,0,0,0-4.662-4.684A4.613,4.613,0,0,0,5673.712,5109.243Z" transform="translate(-5530.234 -4971.149)" fill="#12263f"/>
          <path id="Trazado_197141" data-name="Trazado 197141" d="M5510.264,5118.9a9.538,9.538,0,0,1-9.581-9.481,9.6,9.6,0,1,1,9.581,9.481Zm-.053-4.962a4.605,4.605,0,0,0,4.692-4.613,4.671,4.671,0,0,0-4.622-4.639,4.612,4.612,0,0,0-4.627,4.605A4.557,4.557,0,0,0,5510.211,5113.938Z" transform="translate(-5388.207 -4971.192)" fill="#12263f"/>
          <path id="Trazado_197142" data-name="Trazado 197142" d="M4986.1,5088.263c-.9,0-1.8.009-2.706,0a2.472,2.472,0,0,1-.058-4.943c1.854-.028,3.711-.032,5.565,0a2.471,2.471,0,0,1-.1,4.94C4987.9,5088.269,4987,5088.262,4986.1,5088.263Z" transform="translate(-4948.969 -4957.311)" fill="#12263f"/>
          <path id="Trazado_197143" data-name="Trazado 197143" d="M4868.018,5088.286c-.9,0-1.8.01-2.705,0a2.472,2.472,0,0,1-.033-4.943c1.828-.024,3.658-.021,5.487,0a2.484,2.484,0,0,1,2.467,2.457,2.518,2.518,0,0,1-2.511,2.487C4869.821,5088.293,4868.919,5088.286,4868.018,5088.286Z" transform="translate(-4849.232 -4957.334)" fill="#12263f"/>
          <path id="Trazado_197144" data-name="Trazado 197144" d="M5104.5,5213.046c-.852,0-1.7.016-2.555,0a2.529,2.529,0,0,1-2.635-2.545,2.448,2.448,0,0,1,2.654-2.409c1.7-.012,3.407-.016,5.11.007a2.345,2.345,0,0,1,2.562,2.383,2.435,2.435,0,0,1-2.5,2.559C5106.254,5213.076,5105.375,5213.046,5104.5,5213.046Z" transform="translate(-5049.022 -5062.76)" fill="#12263f"/>
          <path id="Trazado_197145" data-name="Trazado 197145" d="M4868.031,5207.986c.85,0,1.7-.013,2.549,0a2.544,2.544,0,0,1,2.625,2.382,2.512,2.512,0,0,1-2.438,2.576c-1.826.073-3.659.076-5.483,0a2.4,2.4,0,0,1-2.429-2.688,2.435,2.435,0,0,1,2.627-2.263C4866.332,5207.976,4867.182,5207.987,4868.031,5207.986Z" transform="translate(-4849.204 -5062.677)" fill="#12263f"/>
          <path id="Trazado_197146" data-name="Trazado 197146" d="M4986.065,5208.037c.9,0,1.8-.025,2.7.006a2.46,2.46,0,0,1,2.478,2.263,2.339,2.339,0,0,1-2.162,2.618c-1.48.14-2.981.067-4.473.073a9.277,9.277,0,0,1-1.612-.07,2.451,2.451,0,0,1,.36-4.879c.9-.033,1.8-.006,2.7-.006Z" transform="translate(-4948.939 -5062.716)" fill="#12263f"/>
          <path id="Trazado_197147" data-name="Trazado 197147" d="M5104.486,5150.313c-.852,0-1.708-.056-2.555.014a2.458,2.458,0,0,1-2.642-2.429,2.511,2.511,0,0,1,2.5-2.527c1.806-.053,3.616-.061,5.42,0a2.433,2.433,0,0,1,2.413,2.648,2.354,2.354,0,0,1-2.578,2.287C5106.189,5150.317,5105.338,5150.313,5104.486,5150.313Z" transform="translate(-5049.006 -5009.732)" fill="#12263f"/>
          <path id="Trazado_197148" data-name="Trazado 197148" d="M5104.432,5088.238c-.878,0-1.756.005-2.634,0a2.469,2.469,0,0,1-.14-4.937c1.884-.046,3.771-.042,5.655,0a2.473,2.473,0,0,1-.092,4.938C5106.291,5088.249,5105.361,5088.238,5104.432,5088.238Z" transform="translate(-5048.995 -4957.286)" fill="#12263f"/>
          <path id="Trazado_197149" data-name="Trazado 197149" d="M5222.991,5208.042c.875,0,1.751-.024,2.626.005a2.474,2.474,0,0,1,2.526,2.459,2.528,2.528,0,0,1-2.525,2.5c-1.775.044-3.554.05-5.328-.009a2.478,2.478,0,1,1,.074-4.955c.875-.021,1.751,0,2.626,0Z" transform="translate(-5149.155 -5062.72)" fill="#12263f"/>
          <path id="Trazado_197150" data-name="Trazado 197150" d="M4986.139,5150.308c-.85,0-1.7-.044-2.55.009a2.482,2.482,0,1,1-.143-4.957c1.775-.06,3.555-.046,5.331,0a2.537,2.537,0,0,1,2.445,1.885,2.383,2.383,0,0,1-1.019,2.623,3.9,3.9,0,0,1-1.439.422,8.381,8.381,0,0,1-1.311.015h-1.314Z" transform="translate(-4948.973 -5009.725)" fill="#12263f"/>
          <path id="Trazado_197151" data-name="Trazado 197151" d="M5222.976,5150.271c-.826,0-1.652,0-2.478,0-1.6-.008-2.627-.876-2.682-2.256a2.415,2.415,0,0,1,2.459-2.68c1.8-.076,3.615-.069,5.419,0a2.487,2.487,0,0,1,1.1,4.687,2.856,2.856,0,0,1-1.112.243C5224.784,5150.295,5223.88,5150.272,5222.976,5150.271Z" transform="translate(-5149.167 -5009.69)" fill="#12263f"/>
          <path id="Trazado_197152" data-name="Trazado 197152" d="M4867.982,5150.5c-.927,0-1.854.015-2.781,0a2.414,2.414,0,0,1-2.373-2.1,2.284,2.284,0,0,1,1.984-2.726,50.572,50.572,0,0,1,6.162-.065,2.416,2.416,0,0,1,2.195,2.544,2.477,2.477,0,0,1-2.638,2.344c-.85,0-1.7,0-2.549,0Z" transform="translate(-4849.174 -5009.91)" fill="#12263f"/>
          <path id="Trazado_197153" data-name="Trazado 197153" d="M5222.936,5088.263c-.9,0-1.806.009-2.708,0a2.472,2.472,0,0,1-.039-4.943c1.727-.025,3.454-.035,5.18.008a2.419,2.419,0,0,1,2.406,1.244,2.513,2.513,0,0,1-.1,2.641,2.343,2.343,0,0,1-1.958,1.048C5224.793,5088.276,5223.864,5088.263,5222.936,5088.263Z" transform="translate(-5149.151 -4957.311)" fill="#12263f"/>
          <path id="Trazado_197154" data-name="Trazado 197154" d="M5668.753,4746.035a9.6,9.6,0,1,1,9.451,9.6A9.582,9.582,0,0,1,5668.753,4746.035Zm9.613,4.646a4.731,4.731,0,0,0,4.626-4.642,4.779,4.779,0,0,0-4.706-4.661,4.71,4.71,0,0,0-4.6,4.583A4.654,4.654,0,0,0,5678.366,4750.682Z" transform="translate(-5530.236 -4664.193)" fill="#12263f"/>
          <path id="Trazado_197155" data-name="Trazado 197155" d="M5500.765,4746.091a9.486,9.486,0,0,1,9.67-9.518,9.591,9.591,0,1,1-9.67,9.518Zm14.2-.024a4.722,4.722,0,0,0-4.5-4.6,4.665,4.665,0,1,0,4.5,4.6Z" transform="translate(-5388.275 -4664.309)" fill="#12263f"/>
          <path id="Trazado_197156" data-name="Trazado 197156" d="M5104.484,4725.19c-.878,0-1.756.016-2.633,0a2.514,2.514,0,0,1-2.526-2.492,2.411,2.411,0,0,1,2.517-2.456q2.671-.026,5.342,0a2.378,2.378,0,0,1,2.471,2.416,2.455,2.455,0,0,1-2.462,2.529c-.9.023-1.806,0-2.709,0Z" transform="translate(-5049.038 -4650.497)" fill="#12263f"/>
          <path id="Trazado_197157" data-name="Trazado 197157" d="M5222.88,4787.3c-.875,0-1.751,0-2.627,0a2.349,2.349,0,0,1-2.438-2.166,2.392,2.392,0,0,1,2.131-2.723c2.055-.07,4.12-.041,6.173.079a2.314,2.314,0,0,1,2.026,2.491,2.46,2.46,0,0,1-2.405,2.345c-.67.013-1.34,0-2.01,0h-.85Z" transform="translate(-5149.162 -4703.018)" fill="#12263f"/>
          <path id="Trazado_197158" data-name="Trazado 197158" d="M5104.5,4849.408c-.9,0-1.808.022-2.71-.005a2.4,2.4,0,0,1-2.445-2.372,2.435,2.435,0,0,1,2.364-2.554c1.882-.065,3.771-.071,5.651.008a2.384,2.384,0,0,1,2.3,2.658,2.344,2.344,0,0,1-2.451,2.264c-.9.026-1.807.005-2.71.005Z" transform="translate(-5049.055 -4755.454)" fill="#12263f"/>
          <path id="Trazado_197159" data-name="Trazado 197159" d="M4986.093,4849.443c-.876,0-1.753.024-2.627,0a2.483,2.483,0,1,1,.013-4.963q2.626-.049,5.254.012a2.479,2.479,0,1,1-.015,4.955c-.875.027-1.751,0-2.626,0Z" transform="translate(-4948.964 -4755.476)" fill="#12263f"/>
          <path id="Trazado_197160" data-name="Trazado 197160" d="M5222.918,4725.253a29.143,29.143,0,0,1-3.383-.224,2.308,2.308,0,0,1-1.744-2.71,2.379,2.379,0,0,1,2.318-2.075q2.749-.035,5.5-.007a2.428,2.428,0,0,1,2.508,2.4,2.528,2.528,0,0,1-2.484,2.547c-.9.036-1.807.007-2.711.007Z" transform="translate(-5149.133 -4650.495)" fill="#12263f"/>
          <path id="Trazado_197161" data-name="Trazado 197161" d="M4986.374,4787.379c-.9,0-1.807.009-2.709,0a2.358,2.358,0,0,1-2.4-2.329,2.181,2.181,0,0,1,1.985-2.492c2.082-.112,4.175-.165,6.257-.08a2.4,2.4,0,0,1,2.069,2.648,2.477,2.477,0,0,1-2.419,2.253C4988.232,4787.392,4987.3,4787.38,4986.374,4787.379Z" transform="translate(-4949.271 -4703.066)" fill="#12263f"/>
          <path id="Trazado_197162" data-name="Trazado 197162" d="M4868.008,4849.378c-.878,0-1.757.031-2.633-.007a2.412,2.412,0,0,1-2.509-2.307,2.379,2.379,0,0,1,2.342-2.624c1.88-.091,3.77-.08,5.651-.01a2.471,2.471,0,0,1-.063,4.939C4869.869,4849.419,4868.938,4849.378,4868.008,4849.378Z" transform="translate(-4849.216 -4755.409)" fill="#12263f"/>
          <path id="Trazado_197163" data-name="Trazado 197163" d="M4868.092,4720.237c.852,0,1.705-.013,2.557,0a2.471,2.471,0,1,1,.115,4.941q-2.748.074-5.5,0a2.431,2.431,0,0,1-2.414-2.5,2.37,2.37,0,0,1,2.453-2.435c.929-.028,1.859-.005,2.789-.005Z" transform="translate(-4849.204 -4650.502)" fill="#12263f"/>
          <path id="Trazado_197164" data-name="Trazado 197164" d="M5222.992,4849.555c-.98,0-1.963.045-2.94-.011a2.325,2.325,0,0,1-2.251-2.222,2.262,2.262,0,0,1,1.985-2.593c1.665-.149,3.348-.091,5.023-.113a6.593,6.593,0,0,1,1.155.051,2.468,2.468,0,0,1,2.171,2.5,2.427,2.427,0,0,1-2.433,2.394c-.9.038-1.807.007-2.71.007Z" transform="translate(-5149.153 -4755.61)" fill="#12263f"/>
          <path id="Trazado_197165" data-name="Trazado 197165" d="M4868.029,4787.25c-.928,0-1.856.01-2.784,0a2.471,2.471,0,0,1-.068-4.938q2.821-.056,5.644,0a2.492,2.492,0,0,1,2.366,2.478,2.462,2.462,0,0,1-2.451,2.46C4869.833,4787.261,4868.932,4787.25,4868.029,4787.25Z" transform="translate(-4849.189 -4702.937)" fill="#12263f"/>
          <path id="Trazado_197166" data-name="Trazado 197166" d="M5104.589,4787.212c-.878,0-1.756.006-2.634,0a2.467,2.467,0,0,1-.23-4.922c1.96-.065,3.926-.075,5.886-.006a2.472,2.472,0,0,1-.233,4.928C5106.448,4787.221,5105.518,4787.212,5104.589,4787.212Z" transform="translate(-5049.182 -4702.897)" fill="#12263f"/>
          <path id="Trazado_197167" data-name="Trazado 197167" d="M4986.229,4720.237c.876,0,1.751-.012,2.627,0a2.474,2.474,0,0,1,.06,4.947c-1.876.041-3.754.028-5.63-.006a2.579,2.579,0,0,1-2.29-2.651,2.485,2.485,0,0,1,2.3-2.279c.488-.022.978-.013,1.467-.016S4985.74,4720.235,4986.229,4720.237Z" transform="translate(-4949.043 -4650.502)" fill="#12263f"/>
        </g>
      </g>
      <g id="Grupo_155296" data-name="Grupo 155296" transform="translate(-0.824 2)">
        <text id="Server" transform="translate(606.924 2093)" fill="#12263f" font-size="20" font-family="Roboto-Bold, Roboto" font-weight="700"><tspan x="0" y="0">Server</tspan></text>
        <text id="Disk_Storage" data-name="Disk Storage" transform="translate(986.924 2093)" fill="#12263f" font-size="20" font-family="Roboto-Bold, Roboto" font-weight="700"><tspan x="0" y="0">Disk Storage</tspan></text>
        <text id="eSATA_FC_SAS" data-name="eSATA / FC / SAS" transform="translate(768.924 1993)" fill="#12263f" font-size="20" font-family="Roboto-Bold, Roboto" font-weight="700"><tspan x="0" y="0">eSATA / FC / SAS</tspan></text>
      </g>
      <g id="_14590S.tif" data-name="14590S.tif" transform="translate(-5064.563 -5778.291)">
        <g id="Grupo_155297" data-name="Grupo 155297" transform="translate(6020.235 7690.442)">
          <path id="Trazado_197168" data-name="Trazado 197168" d="M6093.819,7690.441c2.2.212,4.392.414,6.586.636,12.871,1.3,25.417,3.84,36.982,9.954,4.828,2.553,9.171,5.739,12.219,10.405a16.1,16.1,0,0,1,2.707,9.026c-.022,9.482-.013,18.964-.033,28.445a6.9,6.9,0,0,1-.234,2.124,3.26,3.26,0,0,1-6.318-1.165c-.045-4.792-.022-9.584-.026-14.377v-1.63c-2.8,1.823-5.366,3.719-8.132,5.244-8.518,4.7-17.794,7.157-27.305,8.8a139.6,139.6,0,0,1-29.393,1.839c-14.377-.569-28.5-2.659-41.722-8.668-4.214-1.915-8.094-4.566-12.137-6.887,0,2.942.255,6.235-.055,9.475-.563,5.873,2.292,9.814,6.68,13.045,6.372,4.689,13.681,7.239,21.234,9.182a129.917,129.917,0,0,0,31.19,3.706,3.3,3.3,0,0,1,3.38,2.176,3.048,3.048,0,0,1-1.1,3.705,4.449,4.449,0,0,1-2.291.712c-14.547-.071-28.83-1.822-42.574-6.882a54.442,54.442,0,0,1-16.352-9.252c-.043.534-.105.955-.106,1.376-.007,4.276.183,8.564-.055,12.828-.258,4.636,1.765,8.018,5.085,10.871a44.413,44.413,0,0,0,13.828,7.663,105.213,105.213,0,0,0,28.438,5.934c.77.061,1.537.158,2.3.244a3.31,3.31,0,0,1,3.146,3.508,3.216,3.216,0,0,1-3.59,3.035c-4.1-.362-8.2-.719-12.269-1.33-8.876-1.338-17.571-3.462-25.666-7.437-3.854-1.893-7.448-4.315-11.156-6.5a7.243,7.243,0,0,0-.066.873c-.007,4.639.059,9.277-.028,13.914a10.719,10.719,0,0,0,2.594,7.237c2.98,3.63,6.9,5.994,11.053,7.983a80.713,80.713,0,0,0,23.125,6.829c5.132.766,10.323,1.134,15.492,1.646,1.518.15,2.86.536,3.5,2.079a2.885,2.885,0,0,1-.538,3.432,4.076,4.076,0,0,1-2.543,1.152c-15.584-.745-30.787-3.21-44.784-10.624a32.87,32.87,0,0,1-11.035-9.027,19.727,19.727,0,0,1-3.622-9.036V7719.2a20.788,20.788,0,0,1,3.067-8.147,30.549,30.549,0,0,1,9.958-8.86c11.139-6.517,23.432-9.24,36.061-10.8,3.209-.4,6.438-.641,9.658-.955Zm-7.585,53.089c6.556-.571,13.129-.981,19.661-1.754a85.021,85.021,0,0,0,24.484-6.512c4.831-2.133,9.434-4.665,12.811-8.889,3.315-4.148,3.286-8.371-.034-12.529-3.033-3.8-7.1-6.223-11.421-8.231-10.632-4.947-21.967-7.09-33.55-8.045a140.748,140.748,0,0,0-28.974.551,97.515,97.515,0,0,0-25.928,6.462c-4.87,2.043-9.484,4.513-13.111,8.481-4.181,4.575-4.2,9.469-.069,14.056.448.5.919.975,1.413,1.426,4.734,4.329,10.449,6.88,16.42,8.906C6060.34,7741.661,6073.173,7743.106,6086.233,7743.53Z" transform="translate(-6020.234 -7690.441)" fill="#12263f"/>
          <path id="Trazado_197169" data-name="Trazado 197169" d="M6288.429,7982.307c-7.2,10.345-19.94,10.45-27.33,3.948a18.185,18.185,0,1,1,25.476-25.859,9.079,9.079,0,0,0,.907-.423c5.6-3.36,11.194-6.744,16.817-10.073a1.39,1.39,0,0,0,.751-1.937c-2.95-10.608,3.411-21.05,14.277-22.95,13.1-2.29,21.141,8.765,21.262,17.361.125,8.914-6.62,17.231-15.39,18.418a17.992,17.992,0,0,1-14.868-4.44c-.464-.4-.906-.833-1.362-1.247-.034-.031-.1-.028-.307-.081l-18.63,11.173a20.578,20.578,0,0,1,.954,9.146,1.412,1.412,0,0,0,.737,1.083c4.847,1.99,9.726,3.9,14.577,5.885,1.022.418,1.245-.355,1.647-.888a18.217,18.217,0,0,1,28.071-1.184,18.591,18.591,0,0,1,2.325,20.882c-3.717,6.611-11.436,10.473-18.447,9.188-8.253-1.514-14.152-7.247-15.287-15.036a54.281,54.281,0,0,1-.129-5.519c-.017-.417-.224-1.073-.519-1.194C6298.793,7986.433,6293.6,7984.373,6288.429,7982.307Zm22.56,9.994a11.425,11.425,0,0,0,11.4,11.533,11.52,11.52,0,1,0-11.4-11.533Zm0-49.381a11.495,11.495,0,0,0,22.99-.054,11.5,11.5,0,1,0-22.99.054Zm-49.467,29.551a11.493,11.493,0,0,0,22.984.218A11.613,11.613,0,0,0,6273.02,7961,11.493,11.493,0,0,0,6261.521,7972.471Z" transform="translate(-6182.164 -7852.143)" fill="#12263f"/>
        </g>
      </g>
      <path id="Trazado_197170" data-name="Trazado 197170" d="M3277.334-9694.771H3501.3" transform="translate(-2551.324 11700)" fill="none" stroke="#12263f" stroke-width="5"/>
    </g>
  </g>
</svg>
