<svg xmlns="http://www.w3.org/2000/svg" width="65.351" height="40.708" viewBox="0 0 65.351 40.708">
  <g id="Grupo_1068464" data-name="Grupo 1068464" transform="translate(0 -6.064)">
    <g id="Grupo_89383" data-name="Grupo 89383" transform="translate(0 6.064)">
      <ellipse id="Elipse_4804" data-name="Elipse 4804" cx="2.183" cy="2.05" rx="2.183" ry="2.05" transform="translate(1.018 1)" fill="#ff933a"/>
      <path id="Elipse_4804_-_Contorno" data-name="Elipse 4804 - Contorno" d="M2.2-1A3.132,3.132,0,0,1,5.4,2.05,3.132,3.132,0,0,1,2.2,5.1,3.132,3.132,0,0,1-1,2.05,3.132,3.132,0,0,1,2.2-1Zm0,4.1A1.113,1.113,0,0,0,3.367,2.05,1.113,1.113,0,0,0,2.2,1,1.113,1.113,0,0,0,1.037,2.05,1.113,1.113,0,0,0,2.2,3.1Z" transform="translate(1 1)" fill="#ff933a"/>
      <path id="Trazado_122445" data-name="Trazado 122445" d="M427.026,112.336a2.188,2.188,0,1,1-2.182-2.049A2.121,2.121,0,0,1,427.026,112.336Z" transform="translate(-401.993 -109.286)" fill="#ff933a"/>
      <path id="Trazado_122445_-_Contorno" data-name="Trazado 122445 - Contorno" d="M424.863,109.287a3.054,3.054,0,1,1-3.2,3.049A3.131,3.131,0,0,1,424.863,109.287Zm0,4.1a1.056,1.056,0,1,0-1.166-1.052A1.113,1.113,0,0,0,424.863,113.388Z" transform="translate(-402.011 -109.286)" fill="#ff933a"/>
      <ellipse id="Elipse_4805" data-name="Elipse 4805" cx="2.183" cy="2.05" rx="2.183" ry="2.05" transform="translate(40.315 1)" fill="#ff933a"/>
      <path id="Elipse_4805_-_Contorno" data-name="Elipse 4805 - Contorno" d="M2.2-1A3.132,3.132,0,0,1,5.4,2.05,3.132,3.132,0,0,1,2.2,5.1,3.132,3.132,0,0,1-1,2.05,3.132,3.132,0,0,1,2.2-1Zm0,4.1A1.113,1.113,0,0,0,3.367,2.05,1.113,1.113,0,0,0,2.2,1,1.113,1.113,0,0,0,1.037,2.05,1.113,1.113,0,0,0,2.2,3.1Z" transform="translate(40.297 1)" fill="#ff933a"/>
      <path id="Trazado_122446" data-name="Trazado 122446" d="M443.92,112.336a2.188,2.188,0,1,1-2.185-2.049A2.121,2.121,0,0,1,443.92,112.336Z" transform="translate(-379.587 -109.286)" fill="#ff933a"/>
      <path id="Trazado_122446_-_Contorno" data-name="Trazado 122446 - Contorno" d="M441.753,109.287a3.054,3.054,0,1,1-3.2,3.049A3.132,3.132,0,0,1,441.753,109.287Zm0,4.1a1.056,1.056,0,1,0-1.164-1.052A1.115,1.115,0,0,0,441.753,113.388Z" transform="translate(-379.605 -109.286)" fill="#ff933a"/>
    </g>
    <g id="Grupo_89384" data-name="Grupo 89384" transform="translate(0 23.366)">
      <path id="Trazado_122448" data-name="Trazado 122448" d="M418.581,119.846a2.188,2.188,0,1,1-2.184-2.052A2.121,2.121,0,0,1,418.581,119.846Z" transform="translate(-413.196 -116.794)" fill="#ff933a"/>
      <path id="Trazado_122448_-_Contorno" data-name="Trazado 122448 - Contorno" d="M416.414,122.9a3.055,3.055,0,1,1,3.2-3.052A3.132,3.132,0,0,1,416.414,122.9Zm0-4.1a1.057,1.057,0,1,0,1.166,1.052A1.113,1.113,0,0,0,416.414,118.794Z" transform="translate(-413.214 -116.794)" fill="#ff933a"/>
      <path id="Trazado_122449" data-name="Trazado 122449" d="M427.026,119.846a2.187,2.187,0,1,1-2.182-2.052A2.121,2.121,0,0,1,427.026,119.846Z" transform="translate(-401.993 -116.794)" fill="#ff933a"/>
      <path id="Trazado_122449_-_Contorno" data-name="Trazado 122449 - Contorno" d="M424.863,122.9a3.055,3.055,0,1,1,3.2-3.052A3.133,3.133,0,0,1,424.863,122.9Zm0-4.1a1.057,1.057,0,1,0,1.164,1.052A1.115,1.115,0,0,0,424.863,118.794Z" transform="translate(-402.011 -116.794)" fill="#ff933a"/>
      <path id="Trazado_122450" data-name="Trazado 122450" d="M435.473,119.846a2.188,2.188,0,1,1-2.182-2.052A2.121,2.121,0,0,1,435.473,119.846Z" transform="translate(-390.791 -116.794)" fill="#ff933a"/>
      <path id="Trazado_122450_-_Contorno" data-name="Trazado 122450 - Contorno" d="M433.309,122.9a3.055,3.055,0,1,1,3.2-3.052A3.133,3.133,0,0,1,433.309,122.9Zm0-4.1a1.057,1.057,0,1,0,1.164,1.052A1.115,1.115,0,0,0,433.309,118.794Z" transform="translate(-390.81 -116.794)" fill="#ff933a"/>
      <path id="Trazado_122451" data-name="Trazado 122451" d="M443.92,119.846a2.187,2.187,0,1,1-2.185-2.052A2.121,2.121,0,0,1,443.92,119.846Z" transform="translate(-379.587 -116.794)" fill="#ff933a"/>
      <path id="Trazado_122451_-_Contorno" data-name="Trazado 122451 - Contorno" d="M441.753,122.9a3.055,3.055,0,1,1,3.2-3.052A3.132,3.132,0,0,1,441.753,122.9Zm0-4.1a1.057,1.057,0,1,0,1.166,1.052A1.113,1.113,0,0,0,441.753,118.794Z" transform="translate(-379.606 -116.794)" fill="#ff933a"/>
    </g>
    <g id="Grupo_1068442" data-name="Grupo 1068442" transform="translate(0 40.669)">
      <path id="Trazado_122448-2" data-name="Trazado 122448" d="M418.581,119.846a2.188,2.188,0,1,1-2.184-2.052A2.121,2.121,0,0,1,418.581,119.846Z" transform="translate(-413.196 -116.794)" fill="#ff933a"/>
      <path id="Trazado_122448_-_Contorno-2" data-name="Trazado 122448 - Contorno" d="M416.414,122.9a3.055,3.055,0,1,1,3.2-3.052A3.132,3.132,0,0,1,416.414,122.9Zm0-4.1a1.057,1.057,0,1,0,1.166,1.052A1.113,1.113,0,0,0,416.414,118.794Z" transform="translate(-413.214 -116.794)" fill="#ff933a"/>
      <path id="Trazado_122449-2" data-name="Trazado 122449" d="M427.026,119.846a2.187,2.187,0,1,1-2.182-2.052A2.121,2.121,0,0,1,427.026,119.846Z" transform="translate(-401.993 -116.794)" fill="#ff933a"/>
      <path id="Trazado_122449_-_Contorno-2" data-name="Trazado 122449 - Contorno" d="M424.863,122.9a3.055,3.055,0,1,1,3.2-3.052A3.133,3.133,0,0,1,424.863,122.9Zm0-4.1a1.057,1.057,0,1,0,1.164,1.052A1.115,1.115,0,0,0,424.863,118.794Z" transform="translate(-402.011 -116.794)" fill="#ff933a"/>
      <path id="Trazado_122450-2" data-name="Trazado 122450" d="M435.473,119.846a2.188,2.188,0,1,1-2.182-2.052A2.121,2.121,0,0,1,435.473,119.846Z" transform="translate(-390.791 -116.794)" fill="#ff933a"/>
      <path id="Trazado_122450_-_Contorno-2" data-name="Trazado 122450 - Contorno" d="M433.309,122.9a3.055,3.055,0,1,1,3.2-3.052A3.133,3.133,0,0,1,433.309,122.9Zm0-4.1a1.057,1.057,0,1,0,1.164,1.052A1.115,1.115,0,0,0,433.309,118.794Z" transform="translate(-390.81 -116.794)" fill="#ff933a"/>
      <path id="Trazado_122451-2" data-name="Trazado 122451" d="M443.92,119.846a2.187,2.187,0,1,1-2.185-2.052A2.121,2.121,0,0,1,443.92,119.846Z" transform="translate(-379.587 -116.794)" fill="#ff933a"/>
      <path id="Trazado_122451_-_Contorno-2" data-name="Trazado 122451 - Contorno" d="M441.753,122.9a3.055,3.055,0,1,1,3.2-3.052A3.132,3.132,0,0,1,441.753,122.9Zm0-4.1a1.057,1.057,0,1,0,1.166,1.052A1.113,1.113,0,0,0,441.753,118.794Z" transform="translate(-379.606 -116.794)" fill="#ff933a"/>
    </g>
  </g>
</svg>
