<svg xmlns="http://www.w3.org/2000/svg" width="388" height="399.06" viewBox="0 0 388 399.06">
  <g id="Grupo_1070086" data-name="Grupo 1070086" transform="translate(-2212 6650)">
    <rect id="Rectángulo_374099" data-name="Rectángulo 374099" width="388" height="399.06" transform="translate(2212 -6650)" fill="#ececec"/>
    <g id="Grupo_1068454" data-name="Grupo 1068454" transform="translate(1875.308 -9012.781)">
      <g id="Grupo_155299" data-name="Grupo 155299" transform="translate(374.885 2387.606)">
        <path id="Trazado_197174" data-name="Trazado 197174" d="M7627.417,4989.794c.011,32.015.022,134.71.006,166.726-.009,18.3-6.366,24.8-24.341,24.84-16.6.04-33.2.119-49.8-.021-14.375-.122-22.019-7.617-22.039-21.973-.093-66.1-.083-209.075.006-275.18.02-14.3,7.843-22.129,21.871-22.223q26.232-.175,52.467,0c14.574.09,21.732,7.248,21.785,22.044C7627.487,4917.208,7627.408,4956.594,7627.417,4989.794Zm-10.633-5.837q0-49.348-.021-98.694c-.018-10-2.687-12.691-12.611-12.746q-24.45-.137-48.9-.009c-10.343.041-13.387,2.894-13.4,13.079-.056,65.2-.053,207.271.022,272.473.011,9.757,3,12.591,12.839,12.646q24.451.137,48.9.007c10.93-.048,13.12-2.181,13.14-12.975C7616.814,5125.432,7616.777,5016.262,7616.785,4983.957Z" transform="translate(-7531.178 -4861.879)" fill="#12263f"/>
        <path id="Trazado_197176" data-name="Trazado 197176" d="M7583.373,5095.684c6.8,0,13.633-.389,20.378.216,2.208.2,4.185,2.975,6.266,4.572-2.1,1.9-4.141,5.374-6.3,5.447-14.469.49-28.968.46-43.44.025-2-.06-3.9-3.285-5.851-5.044,1.963-1.737,3.82-4.809,5.908-4.974C7567.972,5095.323,7575.688,5095.688,7583.373,5095.684Z" transform="translate(-7533.887 -4812.238)" fill="#12263f"/>
        <path id="Trazado_197177" data-name="Trazado 197177" d="M7581.635,5071.491c7.393,0,14.815-.363,22.163.218,2.182.172,4.156,2.99,6.226,4.6-2.112,1.9-4.17,5.358-6.343,5.432-14.474.488-28.979.456-43.457.015-1.981-.061-3.866-3.324-5.8-5.105,1.972-1.717,3.829-4.729,5.936-4.916C7567.406,5071.106,7574.538,5071.494,7581.635,5071.491Z" transform="translate(-7533.886 -4809.421)" fill="#12263f"/>
        <path id="Trazado_197178" data-name="Trazado 197178" d="M7581.842,5033.633c-6.8-.006-13.648.438-20.382-.238-2.471-.249-4.676-3.146-7-4.836,2.155-1.817,4.261-5.132,6.475-5.207q21.268-.71,42.567.01c2.226.074,4.345,3.335,6.513,5.122-2.293,1.719-4.467,4.688-6.9,4.92C7596.077,5034.072,7588.939,5033.64,7581.842,5033.633Z" transform="translate(-7533.89 -4803.785)" fill="#12263f"/>
        <path id="Trazado_197179" data-name="Trazado 197179" d="M7582.928,5047.282c6.8,0,13.645-.449,20.375.236,2.382.243,4.482,3.246,6.713,4.988-2.242,1.766-4.437,4.983-6.736,5.06q-21.261.708-42.554-.022c-2.159-.076-4.2-3.583-6.29-5.5,2.106-1.584,4.119-4.361,6.336-4.536C7568.118,5046.927,7575.536,5047.286,7582.928,5047.282Z" transform="translate(-7533.887 -4806.597)" fill="#12263f"/>
        <path id="Trazado_814594" data-name="Trazado 814594" d="M7582.928,5047.282c6.8,0,13.645-.449,20.375.236,2.382.243,4.482,3.246,6.713,4.988-2.242,1.766-4.437,4.983-6.736,5.06q-21.261.708-42.554-.022c-2.159-.076-4.2-3.583-6.29-5.5,2.106-1.584,4.119-4.361,6.336-4.536C7568.118,5046.927,7575.536,5047.286,7582.928,5047.282Z" transform="translate(-7533.887 -4849.355)" fill="#12263f"/>
        <g id="Grupo_1068459" data-name="Grupo 1068459" transform="translate(32.442 31.006)">
          <circle id="Elipse_5971" data-name="Elipse 5971" cx="15.903" cy="15.903" r="15.903" transform="translate(0 0)" fill="#12263f"/>
          <circle id="Elipse_9082" data-name="Elipse 9082" cx="15.903" cy="15.903" r="15.903" transform="translate(0 55.661)" fill="#12263f"/>
          <circle id="Elipse_9084" data-name="Elipse 9084" cx="15.903" cy="15.903" r="15.903" transform="translate(0 111.321)" fill="#12263f"/>
          <circle id="Elipse_5972" data-name="Elipse 5972" cx="8.835" cy="8.835" r="8.835" transform="translate(7.068 7.068)" fill="#f6f6f6"/>
          <circle id="Elipse_9083" data-name="Elipse 9083" cx="8.835" cy="8.835" r="8.835" transform="translate(7.068 62.729)" fill="#f6f6f6"/>
          <circle id="Elipse_9085" data-name="Elipse 9085" cx="8.835" cy="8.835" r="8.835" transform="translate(7.068 118.389)" fill="#f6f6f6"/>
        </g>
      </g>
      <text id="Nas_Server" data-name="Nas Server" transform="translate(380.001 2732.733)" fill="#12263f" font-size="16" font-family="Roboto-Bold, Roboto" font-weight="700"><tspan x="0" y="0">Nas Server</tspan></text>
      <g id="Grupo_1068458" data-name="Grupo 1068458" transform="translate(497.248 2606.856)">
        <g id="Grupo_155300" data-name="Grupo 155300" transform="translate(0 0)">
          <path id="Trazado_197171" data-name="Trazado 197171" d="M7478.365,4866.62v-8.061c-6.15,0-12.009-.117-17.86.041-4.066.109-5.563-1.583-5.535-5.642q.193-28.1.012-56.208c-.025-4.032,1.519-5.734,5.545-5.725q38.162.086,76.325,0c4.065-.007,5.593,1.98,5.583,5.856q-.079,28.1.005,56.208c.014,4.073-1.826,5.625-5.788,5.515-5.684-.157-11.375-.04-17.5-.04v8.043c5.8,0,11.665.11,17.518-.039,3.984-.1,5.848,1.521,5.76,5.565-.1,4.73,0,9.465-.031,14.2-.018,3.374-1.649,4.983-5.13,4.978q-38.755-.071-77.509-.007c-3.635.005-4.83-1.8-4.753-5.163.108-4.731.164-9.472-.017-14.2-.161-4.24,1.9-5.491,5.8-5.373C7466.465,4866.749,7472.152,4866.62,7478.365,4866.62Zm-15.979-15.6h72.936c0-16.776-.029-33.1.021-49.42.012-4.119-2.891-3.476-5.37-3.478q-28.978-.035-57.954-.015h-9.632Zm72.5,23H7462.57v9.792h72.318Zm-48.938-7.836h27.119c-1.831-3.274-2.889-7.157-4.248-7.267-7.531-.6-15.131-.289-22.871-.289Z" transform="translate(-7454.969 -4791.026)" fill="#12263f"/>
          <path id="Trazado_197172" data-name="Trazado 197172" d="M7499.358,4808.973a39.36,39.36,0,0,1-3.006,3.965c-6.628,6.7-13.179,13.5-20.1,19.882-1.372,1.266-4.255.89-6.439,1.272.467-2.04.276-4.7,1.511-6.018,6.568-7.025,13.417-13.8,20.372-20.443a8.32,8.32,0,0,1,5.117-1.707C7497.552,4805.894,7498.37,4807.729,7499.358,4808.973Z" transform="translate(-7452.246 -4788.292)" fill="#12263f"/>
          <path id="Trazado_197173" data-name="Trazado 197173" d="M7483.143,4801.705c.758.524,2.271,1.021,2.458,1.826.31,1.327.289,3.344-.516,4.213-4.4,4.746-8.967,9.352-13.755,13.7-.917.833-3.349.811-4.577.187-.8-.405-1.431-3.295-.871-3.9,4.909-5.32,10.091-10.389,15.242-15.482C7481.478,4801.9,7482.223,4801.936,7483.143,4801.705Z" transform="translate(-7453.006 -4789.067)" fill="#12263f"/>
        </g>
        <g id="Grupo_155301" data-name="Grupo 155301" transform="translate(101.778 0)">
          <path id="Trazado_197171-2" data-name="Trazado 197171" d="M7478.365,4866.62v-8.061c-6.15,0-12.009-.117-17.86.041-4.066.109-5.563-1.583-5.535-5.642q.193-28.1.012-56.208c-.025-4.032,1.519-5.734,5.545-5.725q38.162.086,76.325,0c4.065-.007,5.593,1.98,5.583,5.856q-.079,28.1.005,56.208c.014,4.073-1.826,5.625-5.788,5.515-5.684-.157-11.375-.04-17.5-.04v8.043c5.8,0,11.665.11,17.518-.039,3.984-.1,5.848,1.521,5.76,5.565-.1,4.73,0,9.465-.031,14.2-.018,3.374-1.649,4.983-5.13,4.978q-38.755-.071-77.509-.007c-3.635.005-4.83-1.8-4.753-5.163.108-4.731.164-9.472-.017-14.2-.161-4.24,1.9-5.491,5.8-5.373C7466.465,4866.749,7472.152,4866.62,7478.365,4866.62Zm-15.979-15.6h72.936c0-16.776-.029-33.1.021-49.42.012-4.119-2.891-3.476-5.37-3.478q-28.978-.035-57.954-.015h-9.632Zm72.5,23H7462.57v9.792h72.318Zm-48.938-7.836h27.119c-1.831-3.274-2.889-7.157-4.248-7.267-7.531-.6-15.131-.289-22.871-.289Z" transform="translate(-7454.969 -4791.026)" fill="#12263f"/>
          <path id="Trazado_197172-2" data-name="Trazado 197172" d="M7499.358,4808.973a39.36,39.36,0,0,1-3.006,3.965c-6.628,6.7-13.179,13.5-20.1,19.882-1.372,1.266-4.255.89-6.439,1.272.467-2.04.276-4.7,1.511-6.018,6.568-7.025,13.417-13.8,20.372-20.443a8.32,8.32,0,0,1,5.117-1.707C7497.552,4805.894,7498.37,4807.729,7499.358,4808.973Z" transform="translate(-7452.246 -4788.292)" fill="#12263f"/>
          <path id="Trazado_197173-2" data-name="Trazado 197173" d="M7483.143,4801.705c.758.524,2.271,1.021,2.458,1.826.31,1.327.289,3.344-.516,4.213-4.4,4.746-8.967,9.352-13.755,13.7-.917.833-3.349.811-4.577.187-.8-.405-1.431-3.295-.871-3.9,4.909-5.32,10.091-10.389,15.242-15.482C7481.478,4801.9,7482.223,4801.936,7483.143,4801.705Z" transform="translate(-7453.006 -4789.067)" fill="#12263f"/>
        </g>
      </g>
      <g id="Grupo_1068461" data-name="Grupo 1068461" transform="translate(497.248 2387.606)">
        <g id="Grupo_155300-2" data-name="Grupo 155300">
          <path id="Trazado_197171-3" data-name="Trazado 197171" d="M7478.365,4866.62v-8.061c-6.15,0-12.009-.117-17.86.041-4.066.109-5.563-1.583-5.535-5.642q.193-28.1.012-56.208c-.025-4.032,1.519-5.734,5.545-5.725q38.162.086,76.325,0c4.065-.007,5.593,1.98,5.583,5.856q-.079,28.1.005,56.208c.014,4.073-1.826,5.625-5.788,5.515-5.684-.157-11.375-.04-17.5-.04v8.043c5.8,0,11.665.11,17.518-.039,3.984-.1,5.848,1.521,5.76,5.565-.1,4.73,0,9.465-.031,14.2-.018,3.374-1.649,4.983-5.13,4.978q-38.755-.071-77.509-.007c-3.635.005-4.83-1.8-4.753-5.163.108-4.731.164-9.472-.017-14.2-.161-4.24,1.9-5.491,5.8-5.373C7466.465,4866.749,7472.152,4866.62,7478.365,4866.62Zm-15.979-15.6h72.936c0-16.776-.029-33.1.021-49.42.012-4.119-2.891-3.476-5.37-3.478q-28.978-.035-57.954-.015h-9.632Zm72.5,23H7462.57v9.792h72.318Zm-48.938-7.836h27.119c-1.831-3.274-2.889-7.157-4.248-7.267-7.531-.6-15.131-.289-22.871-.289Z" transform="translate(-7454.969 -4791.026)" fill="#12263f"/>
          <path id="Trazado_197172-3" data-name="Trazado 197172" d="M7499.358,4808.973a39.36,39.36,0,0,1-3.006,3.965c-6.628,6.7-13.179,13.5-20.1,19.882-1.372,1.266-4.255.89-6.439,1.272.467-2.04.276-4.7,1.511-6.018,6.568-7.025,13.417-13.8,20.372-20.443a8.32,8.32,0,0,1,5.117-1.707C7497.552,4805.894,7498.37,4807.729,7499.358,4808.973Z" transform="translate(-7452.246 -4788.292)" fill="#12263f"/>
          <path id="Trazado_197173-3" data-name="Trazado 197173" d="M7483.143,4801.705c.758.524,2.271,1.021,2.458,1.826.31,1.327.289,3.344-.516,4.213-4.4,4.746-8.967,9.352-13.755,13.7-.917.833-3.349.811-4.577.187-.8-.405-1.431-3.295-.871-3.9,4.909-5.32,10.091-10.389,15.242-15.482C7481.478,4801.9,7482.223,4801.936,7483.143,4801.705Z" transform="translate(-7453.006 -4789.067)" fill="#12263f"/>
        </g>
        <g id="Grupo_155301-2" data-name="Grupo 155301" transform="translate(101.778)">
          <path id="Trazado_197171-4" data-name="Trazado 197171" d="M7478.365,4866.62v-8.061c-6.15,0-12.009-.117-17.86.041-4.066.109-5.563-1.583-5.535-5.642q.193-28.1.012-56.208c-.025-4.032,1.519-5.734,5.545-5.725q38.162.086,76.325,0c4.065-.007,5.593,1.98,5.583,5.856q-.079,28.1.005,56.208c.014,4.073-1.826,5.625-5.788,5.515-5.684-.157-11.375-.04-17.5-.04v8.043c5.8,0,11.665.11,17.518-.039,3.984-.1,5.848,1.521,5.76,5.565-.1,4.73,0,9.465-.031,14.2-.018,3.374-1.649,4.983-5.13,4.978q-38.755-.071-77.509-.007c-3.635.005-4.83-1.8-4.753-5.163.108-4.731.164-9.472-.017-14.2-.161-4.24,1.9-5.491,5.8-5.373C7466.465,4866.749,7472.152,4866.62,7478.365,4866.62Zm-15.979-15.6h72.936c0-16.776-.029-33.1.021-49.42.012-4.119-2.891-3.476-5.37-3.478q-28.978-.035-57.954-.015h-9.632Zm72.5,23H7462.57v9.792h72.318Zm-48.938-7.836h27.119c-1.831-3.274-2.889-7.157-4.248-7.267-7.531-.6-15.131-.289-22.871-.289Z" transform="translate(-7454.969 -4791.026)" fill="#12263f"/>
          <path id="Trazado_197172-4" data-name="Trazado 197172" d="M7499.358,4808.973a39.36,39.36,0,0,1-3.006,3.965c-6.628,6.7-13.179,13.5-20.1,19.882-1.372,1.266-4.255.89-6.439,1.272.467-2.04.276-4.7,1.511-6.018,6.568-7.025,13.417-13.8,20.372-20.443a8.32,8.32,0,0,1,5.117-1.707C7497.552,4805.894,7498.37,4807.729,7499.358,4808.973Z" transform="translate(-7452.246 -4788.292)" fill="#12263f"/>
          <path id="Trazado_197173-4" data-name="Trazado 197173" d="M7483.143,4801.705c.758.524,2.271,1.021,2.458,1.826.31,1.327.289,3.344-.516,4.213-4.4,4.746-8.967,9.352-13.755,13.7-.917.833-3.349.811-4.577.187-.8-.405-1.431-3.295-.871-3.9,4.909-5.32,10.091-10.389,15.242-15.482C7481.478,4801.9,7482.223,4801.936,7483.143,4801.705Z" transform="translate(-7453.006 -4789.067)" fill="#12263f"/>
        </g>
      </g>
      <g id="Grupo_1068460" data-name="Grupo 1068460" transform="translate(558.389 2515.803)">
        <text id="Ethernet" transform="translate(7.842 67.428)" fill="#12263f" font-size="13" font-family="Roboto-Bold, Roboto" font-weight="700"><tspan x="0" y="0">Ethernet</tspan></text>
        <path id="Trazado_197180" data-name="Trazado 197180" d="M16.166,39.157c-2.21-3.837-4.247-7.376-6.528-11.336-1.788,1-3.384,1.931-5.021,2.787-2.927,1.528-4.738.513-4.61-2.686C.34,19.558.884,11.2,1.5,2.852c.2-2.7,1.905-3.52,4.354-2.3,7.354,3.665,14.722,7.308,22.014,11.094,2.855,1.484,2.947,3.491.26,5.366-1.435,1-2.992,1.826-4.91,2.981l6.372,11.2a20.914,20.914,0,0,1,2.225-.972c2.126-.625,4.27-1.19,6.407-1.778.332,2.082,1.009,4.178.93,6.244-.267,6.9-.833,13.78-1.229,20.672-.218,3.809-1.974,4.547-5.225,2.891-6.928-3.529-13.922-6.933-20.821-10.517-3.564-1.852-3.5-3.754.01-5.983C13.118,40.967,14.381,40.235,16.166,39.157ZM5.517,24.031c5.056-3.961,7.386-2.019,9.293,1.979,1.512,3.17,3.481,6.121,5.238,9.175,3.2,5.573,3.2,5.575-2.035,9.724l15.145,7.608V36.251c-5.747,1.81-5.745,1.809-9.085-3.977-1.468-2.542-2.952-5.077-4.418-7.621-3.418-5.931-3.415-5.932,1.488-10.474L6.526,6.829C6.182,12.7,5.883,17.794,5.517,24.031Z" transform="translate(0 33.912) rotate(-60)" fill="#12263f"/>
      </g>
      <text id="Client" transform="translate(518.711 2733.017)" fill="#12263f" font-size="16" font-family="Roboto-Bold, Roboto" font-weight="700"><tspan x="0" y="0">Client</tspan></text>
      <text id="Client-2" data-name="Client" transform="translate(518.711 2513.767)" fill="#12263f" font-size="16" font-family="Roboto-Bold, Roboto" font-weight="700"><tspan x="0" y="0">Client</tspan></text>
      <text id="Client-3" data-name="Client" transform="translate(622.964 2733.017)" fill="#12263f" font-size="16" font-family="Roboto-Bold, Roboto" font-weight="700"><tspan x="0" y="0">Client</tspan></text>
      <text id="Client-4" data-name="Client" transform="translate(622.964 2513.767)" fill="#12263f" font-size="16" font-family="Roboto-Bold, Roboto" font-weight="700"><tspan x="0" y="0">Client</tspan></text>
    </g>
  </g>
</svg>
