<svg xmlns="http://www.w3.org/2000/svg" width="92" height="92" viewBox="0 0 92 92">
  <g id="Grupo_1070001" data-name="Grupo 1070001" transform="translate(-1133 -3124)">
    <circle id="Elipse_9118" data-name="Elipse 9118" cx="46" cy="46" r="46" transform="translate(1133 3124)" fill="#f77e6b"/>
    <g id="unido" transform="translate(1145.461 3137.23)">
      <path id="Trazado_814964" data-name="Trazado 814964" d="M199.242,189.777l-14.794-14.794a2.369,2.369,0,1,1,3.35-3.35l-3.81-3.809a2.363,2.363,0,0,1-.7-1.676,2.437,2.437,0,0,1,.03-.379,2.365,2.365,0,0,1,3.79-1.49l-1.45-1.45a2.37,2.37,0,0,1-.7-1.678,2.26,2.26,0,0,1,.032-.385,2.37,2.37,0,0,1,4.015-1.288l1.66,1.66a2.369,2.369,0,1,1,3.35-3.35l9.614,9.615.027-.038a4.332,4.332,0,0,1,6.132,0l4.483,4.483a4.6,4.6,0,0,1,1.347,3.246l0,2.8a4.95,4.95,0,0,0,1.451,3.5l1,1-11.434,11.434-1.277-1.277a4.952,4.952,0,0,0-3.178-1.44A4.6,4.6,0,0,1,199.242,189.777Zm0,0" transform="translate(-159.279 -136.511)" fill="#fecbaa"/>
      <path id="Trazado_814965" data-name="Trazado 814965" d="M353.751,354.982,366.729,342a1.1,1.1,0,0,1,1.549,0l4.622,4.622a1.1,1.1,0,0,1,0,1.549l-12.978,12.978a1.1,1.1,0,0,1-1.549,0l-4.622-4.622a1.1,1.1,0,0,1,0-1.549Zm0,0" transform="translate(-307.127 -296.918)" fill="#fdd559"/>
      <path id="Trazado_814966" data-name="Trazado 814966" d="M82,189.787l14.794-14.794a2.369,2.369,0,1,0-3.351-3.35l3.81-3.81a2.367,2.367,0,0,0-3.125-3.546l1.45-1.45a2.369,2.369,0,0,0,.7-1.678,2.259,2.259,0,0,0-.032-.385,2.36,2.36,0,0,0-1.96-1.953,2.369,2.369,0,0,0-2.055.665l-1.66,1.66a2.369,2.369,0,1,0-3.349-3.35L77.6,167.412l-.027-.038a4.332,4.332,0,0,0-6.132,0l-4.483,4.483a4.6,4.6,0,0,0-1.347,3.246l0,2.8a4.947,4.947,0,0,1-1.45,3.5l-1,1L74.59,193.842l1.278-1.277a4.952,4.952,0,0,1,3.178-1.44A4.6,4.6,0,0,0,82,189.787Zm0,0" transform="translate(-54.882 -136.52)" fill="#fecbaa"/>
      <path id="Trazado_814967" data-name="Trazado 814967" d="M26.964,354.99,13.986,342.012a1.1,1.1,0,0,0-1.549,0l-4.622,4.622a1.1,1.1,0,0,0,0,1.549l12.978,12.978a1.1,1.1,0,0,0,1.549,0l4.622-4.622a1.1,1.1,0,0,0,0-1.549Zm0,0" transform="translate(-6.513 -296.925)" fill="#ff84a7"/>
      <path id="Trazado_814968" data-name="Trazado 814968" d="M173.606,82.209V103.13a2.369,2.369,0,1,1-4.738,0v5.387a2.367,2.367,0,0,1-4.716.3v2.051a2.368,2.368,0,0,1-.694,1.678,2.221,2.221,0,0,1-.295.25,2.37,2.37,0,0,1-3.75-1.928v-2.348a2.369,2.369,0,1,1-4.737,0v-13.6l-.046.008A4.333,4.333,0,0,1,150.3,90.59V84.25A4.6,4.6,0,0,1,151.64,81l1.981-1.985a4.95,4.95,0,0,0,1.446-3.5V74.105h16.17v1.807a4.955,4.955,0,0,0,1.229,3.265,4.6,4.6,0,0,1,1.14,3.032Zm0,0" transform="translate(-130.607 -64.396)" fill="#fedfc5"/>
      <path id="Trazado_814969" data-name="Trazado 814969" d="M166.383,171.64a2.371,2.371,0,0,0-3.353,0l3.81-3.81a2.367,2.367,0,0,0-3.125-3.546l1.45-1.45a2.368,2.368,0,0,0,.7-1.678,2.207,2.207,0,0,0-.032-.385,2.37,2.37,0,0,0-4.015-1.288l-1.66,1.66a2.369,2.369,0,1,0-3.35-3.35l-9.615,9.615-.027-.038a4.316,4.316,0,0,0-3.923-1.179,6.357,6.357,0,0,0,3.338,2.525v11.922a4.339,4.339,0,0,0,5.181,4.255,4.342,4.342,0,0,0,2.513,2.206l12.109-12.11a2.368,2.368,0,0,0,0-3.352Zm0,0" transform="translate(-124.473 -136.519)" fill="#ffae85"/>
      <path id="Trazado_814970" data-name="Trazado 814970" d="M204.233,175.247V166.88a4.338,4.338,0,0,0-.579.486l-.027.038-9.614-9.615a2.371,2.371,0,0,0-3.353,0,2.371,2.371,0,0,0,0,3.353l-1.66-1.66a2.368,2.368,0,0,0-4.015,1.288,2.262,2.262,0,0,0-.031.385,2.366,2.366,0,0,0,.7,1.678l1.45,1.45a2.368,2.368,0,0,0-3.125,3.546l3.81,3.81a2.369,2.369,0,1,0-3.349,3.35l9.911,9.911a4.351,4.351,0,0,0,.814.076,4.3,4.3,0,0,0,2.535-.82,4.333,4.333,0,0,0,1.8-3.517v-1.068q.2.018.4.018a4.341,4.341,0,0,0,4.334-4.338Zm0,0" transform="translate(-159.269 -136.512)" fill="#ffae85"/>
      <path id="Trazado_814971" data-name="Trazado 814971" d="M173.606,82.208V103.13a2.369,2.369,0,0,1-2.369,2.373c-.035,0-.073,0-.112,0a2.344,2.344,0,0,1-1.272-.445l0,0a2.368,2.368,0,0,1-.983-1.923v5.387a2.367,2.367,0,0,1-4.716.3v2.051a2.368,2.368,0,0,1-.694,1.678,2.221,2.221,0,0,1-.295.25,2.37,2.37,0,0,1-3.75-1.928v-2.348a2.369,2.369,0,1,1-4.737,0v-13.6l-.046.008A4.333,4.333,0,0,1,150.3,90.59V84.25A4.6,4.6,0,0,1,151.64,81l1.981-1.985a4.96,4.96,0,0,0,1.446-3.5V74.105h16.17v1.807a4.463,4.463,0,0,0,.156,1.223,4.921,4.921,0,0,0,1.073,2.042,4.633,4.633,0,0,1,1.14,3.032Zm0,0" transform="translate(-130.607 -64.396)" fill="#fedfc5"/>
      <path id="Trazado_814972" data-name="Trazado 814972" d="M203.78,82.208V103.13a2.369,2.369,0,0,1-2.369,2.373c-.035,0-.073,0-.112,0a2.343,2.343,0,0,1-1.272-.445l.04-20.161a3.091,3.091,0,0,0-.079-.559,9.113,9.113,0,0,0-9.116-7.354H185.02a4.933,4.933,0,0,0,.221-1.462V74.1h16.17v1.807a4.463,4.463,0,0,0,.156,1.223,4.921,4.921,0,0,0,1.073,2.042,4.633,4.633,0,0,1,1.14,3.032Zm0,0" transform="translate(-160.78 -64.396)" fill="#fecbaa"/>
      <path id="Trazado_814973" data-name="Trazado 814973" d="M189.148,16.227H170.793a1.1,1.1,0,0,1-1.095-1.1V8.6a1.1,1.1,0,0,1,1.095-1.1h18.354a1.1,1.1,0,0,1,1.095,1.1v6.536A1.1,1.1,0,0,1,189.148,16.227Zm0,0" transform="translate(-147.466 -6.517)" fill="#83d9ff"/>
      <path id="Trazado_814974" data-name="Trazado 814974" d="M202.533,447.756l-.2.963.19-.964a.982.982,0,1,0-.38,1.928l.018,0a1,1,0,0,0,.186.018.983.983,0,0,0,.183-1.948Zm0,0" transform="translate(-174.974 -389.077)"/>
      <path id="Trazado_814975" data-name="Trazado 814975" d="M261.833,450.261l.1.977-.1-.977a.983.983,0,0,0,.1,1.96c.034,0,.068,0,.1-.005l.027,0a.983.983,0,0,0-.225-1.952Zm0,0" transform="translate(-226.761 -391.267)"/>
      <path id="Trazado_814976" data-name="Trazado 814976" d="M232.135,451.232h-.014a.977.977,0,0,0-1.018.938.988.988,0,0,0,.944,1.026h.046a.983.983,0,0,0,.044-1.964Zm0,0" transform="translate(-200.825 -392.114)"/>
      <path id="Trazado_814977" data-name="Trazado 814977" d="M173.9,439.852l-.012,0a.977.977,0,0,0-1.251.595.986.986,0,1,0,1.263-.59Zm0,0" transform="translate(-149.967 -382.172)"/>
      <path id="Trazado_814978" data-name="Trazado 814978" d="M291.093,444.835l.242.952-.245-.951a.982.982,0,1,0,.49,1.9l.026-.007a.983.983,0,0,0-.513-1.9Zm0,0" transform="translate(-252.313 -386.528)"/>
      <path id="Trazado_814979" data-name="Trazado 814979" d="M319.184,435.036l.389.9-.393-.9a.983.983,0,1,0,.785,1.8l.024-.011a.982.982,0,0,0-.805-1.792Zm0,0" transform="translate(-276.851 -377.968)"/>
      <path id="Trazado_814980" data-name="Trazado 814980" d="M147.464,80.655a.983.983,0,1,0-.459-1.851l-.012.006a.981.981,0,0,0,.471,1.844Zm0,0" transform="translate(-127.288 -68.379)"/>
      <path id="Trazado_814981" data-name="Trazado 814981" d="M63.763,165.1a.983.983,0,0,0,1.327-.414l.017-.034a.983.983,0,1,0-1.344.448Zm0,0" transform="translate(-54.952 -141.848)"/>
      <path id="Trazado_814982" data-name="Trazado 814982" d="M52.264,192.908a.981.981,0,0,0,1.246-.616l.013-.039a.983.983,0,1,0-1.258.655Zm0,0" transform="translate(-44.837 -165.961)"/>
      <path id="Trazado_814983" data-name="Trazado 814983" d="M79.367,139.383a.982.982,0,0,0,1.373-.216l.013-.017a.983.983,0,0,0-1.6-1.143l.792.582-.795-.578a.983.983,0,0,0,.216,1.373Zm0,0" transform="translate(-68.618 -119.57)"/>
      <path id="Trazado_814984" data-name="Trazado 814984" d="M122.027,96.8a.987.987,0,1,0-.569-1.786l-.025.018a.984.984,0,0,0,.594,1.768Zm0,0" transform="translate(-105.187 -82.397)"/>
      <path id="Trazado_814985" data-name="Trazado 814985" d="M49.684,310.905a.982.982,0,1,0-.013-.043Zm0,0" transform="translate(-43.134 -269.056)"/>
      <path id="Trazado_814986" data-name="Trazado 814986" d="M99.373,116.58a.986.986,0,1,0-.686-1.685l-.016.016a.982.982,0,0,0,.7,1.668Zm0,0" transform="translate(-85.5 -99.592)"/>
      <path id="Trazado_814987" data-name="Trazado 814987" d="M45.307,281.049a.983.983,0,0,0-1.95.243l.006.039a.983.983,0,0,0,1.945-.282Zm0,0" transform="translate(-37.67 -243.485)"/>
      <path id="Trazado_814988" data-name="Trazado 814988" d="M42.544,252.126h.03a.982.982,0,0,0,.982-.954v-.042a.983.983,0,1,0-1.012,1Zm0,0" transform="translate(-36.142 -217.376)"/>
      <path id="Trazado_814989" data-name="Trazado 814989" d="M45.142,222.147a1.015,1.015,0,0,0,.175.015.984.984,0,0,0,.966-.81c0-.014,0-.029.007-.043a.983.983,0,1,0-1.147.837Zm0,0" transform="translate(-38.524 -191.337)"/>
      <path id="Trazado_814990" data-name="Trazado 814990" d="M403.1,143.306a.983.983,0,0,0,1.618-1.116l-.817.547.814-.551a.983.983,0,0,0-1.627,1.1Zm0,0" transform="translate(-350.128 -123.183)"/>
      <path id="Trazado_814991" data-name="Trazado 814991" d="M436.813,229.029a.982.982,0,0,0-.866,1.086l.005.042a.983.983,0,0,0,.972.843,1,1,0,0,0,.14-.01.99.99,0,0,0-.251-1.963Zm0,0" transform="translate(-378.828 -199.018)"/>
      <path id="Trazado_814992" data-name="Trazado 814992" d="M429.679,199.546l0,.013a.983.983,0,0,0,.942.706.967.967,0,0,0,.277-.04.983.983,0,0,0,.666-1.22l0-.013a.983.983,0,1,0-1.885.555Zm0,0" transform="translate(-373.351 -172.307)"/>
      <path id="Trazado_814993" data-name="Trazado 814993" d="M418.64,170.386a.988.988,0,0,0,.886.552.982.982,0,0,0,.88-1.413l-.89.415.889-.417a.983.983,0,0,0-1.779.834Zm0,0" transform="translate(-363.7 -146.821)"/>
      <path id="Trazado_814994" data-name="Trazado 814994" d="M383.484,119.031a.99.99,0,1,0-.03-.031Zm0,0" transform="translate(-332.992 -101.976)"/>
      <path id="Trazado_814995" data-name="Trazado 814995" d="M438.328,260.385a.989.989,0,0,0-.084,1.975l.056,0a.983.983,0,0,0,.98-.928l0-.04A.981.981,0,0,0,438.328,260.385Zm0,0" transform="translate(-380.023 -226.271)"/>
      <path id="Trazado_814996" data-name="Trazado 814996" d="M334.063,81.115l.024.013a.979.979,0,0,0,1.323-.4.986.986,0,0,0-.4-1.33l-.475.86.472-.862a.983.983,0,1,0-.945,1.723Zm0,0" transform="translate(-289.854 -68.885)"/>
      <path id="Trazado_814997" data-name="Trazado 814997" d="M360.266,98.108l.015.012a.983.983,0,0,0,1.188-1.566l-.007,0a.983.983,0,1,0-1.2,1.559Zm0,0" transform="translate(-312.734 -83.723)"/>
      <path id="Trazado_814998" data-name="Trazado 814998" d="M66.471,48.989l-4.613-4.621a2.075,2.075,0,0,0-2.938,0l-.107.107-.3-.3a3.966,3.966,0,0,1-.86-1.287.958.958,0,0,0-.07-.182,3.973,3.973,0,0,1-.229-1.335V40.062a.99.99,0,1,0-.006-1.747,5.539,5.539,0,0,0-1.624-3.695l-4.475-4.483a5.309,5.309,0,0,0-6.789-.61l-.475-.477V17.812a5.58,5.58,0,0,0-1.384-3.68,3.965,3.965,0,0,1-.985-2.617v-.823h.068a2.08,2.08,0,0,0,2.077-2.078V2.078A2.08,2.08,0,0,0,41.681,0H23.327A2.08,2.08,0,0,0,21.25,2.078V8.614a2.08,2.08,0,0,0,2.077,2.078h.151v.431a3.942,3.942,0,0,1-1.16,2.8l-1.981,1.985a5.543,5.543,0,0,0-1.63,3.942v6.339a5.3,5.3,0,0,0,.571,2.4,5.276,5.276,0,0,0-3.448,1.55L11.356,34.62a5.544,5.544,0,0,0-1.63,3.942v2.807a3.942,3.942,0,0,1-1.159,2.8l-.3.3,0,0-.106-.107a2.075,2.075,0,0,0-2.938,0L.606,48.989a2.083,2.083,0,0,0,0,2.939l1.58,1.582a.982.982,0,1,0,1.39-1.388L2,50.539a.114.114,0,0,1,0-.161L6.61,45.757a.11.11,0,0,1,.156,0l.8.8h0L18.519,57.53l1.227,1.229a.114.114,0,0,1,0,.161l-4.613,4.621a.11.11,0,0,1-.157,0L6.358,54.908A.983.983,0,0,0,4.967,56.3l8.619,8.633a2.075,2.075,0,0,0,2.938,0l4.613-4.621a2.082,2.082,0,0,0,0-2.938l-.05-.05.582-.583a3.948,3.948,0,0,1,2.542-1.152,5.56,5.56,0,0,0,3.578-1.622l4.237-4.247a3.364,3.364,0,0,0,2.432-2.563,3.35,3.35,0,0,0,4.788-3.032V41.788a3.349,3.349,0,0,0,4.737-3.054v-6.9L47,34.874A.983.983,0,0,0,48.4,33.488l-2.52-2.532a3.347,3.347,0,0,1,3.978.571l4.475,4.482a3.592,3.592,0,0,1,1.056,2.554v2.807a5.9,5.9,0,0,0,1.733,4.192l.305.306L56,47.294l-8.62,8.635-.481-.482-.015-.014-.084-.085a5.916,5.916,0,0,0-3.8-1.725,3.6,3.6,0,0,1-2.317-1.052l-3.229-3.211a.982.982,0,1,0-1.386,1.393l3.227,3.209a5.56,5.56,0,0,0,3.578,1.622,3.95,3.95,0,0,1,2.541,1.152l.048.048a.945.945,0,0,0,.081.082l.453.453-.05.051a2.082,2.082,0,0,0,0,2.938l4.613,4.621a2.076,2.076,0,0,0,2.939,0l12.979-13a2.082,2.082,0,0,0,0-2.938ZM58.01,39.219l-.018,0-.179-.036ZM26.4,52.574a3.6,3.6,0,0,1-2.314,1.05,5.916,5.916,0,0,0-3.805,1.725l-.58.581-.522-.523-.02-.02-9.5-9.52.305-.306a5.9,5.9,0,0,0,1.733-4.192V38.562a3.59,3.59,0,0,1,1.056-2.554l4.475-4.482a3.346,3.346,0,0,1,3.983-.568l-2.524,2.528a.983.983,0,0,0,1.391,1.388l3.015-3.02V44.122a3.35,3.35,0,0,0,4.806,3.023,3.367,3.367,0,0,0,1.665,2.263Zm15.62-13.84a1.386,1.386,0,1,1-2.773,0V27.774a.983.983,0,0,0-1.965,0V44.122a1.385,1.385,0,0,1-2.752.23V27.763a.993.993,0,0,0-1.986.011V44.121a3.368,3.368,0,0,0,.02.368v1.98a1.386,1.386,0,1,1-2.772,0V27.751a.983.983,0,0,0-1.966,0v16.37a1.386,1.386,0,1,1-2.772,0V25.844a.983.983,0,1,0-1.965,0v3.381a.965.965,0,0,0-.236.113,3.362,3.362,0,0,1-2.178-3.145V19.854A3.592,3.592,0,0,1,21.729,17.3l1.981-1.985a5.894,5.894,0,0,0,1.734-4.192v-.431h1.975a.983.983,0,0,0,0-1.965H23.327a.112.112,0,0,1-.112-.113V2.078a.112.112,0,0,1,.112-.113H41.681a.113.113,0,0,1,.113.113V8.614a.112.112,0,0,1-.113.113H32.032a.983.983,0,0,0,0,1.965h7.617v.823a5.933,5.933,0,0,0,1.472,3.913,3.613,3.613,0,0,1,.9,2.383Zm23.063,11.8-12.979,13a.105.105,0,0,1-.078.033.107.107,0,0,1-.078-.033L47.332,58.92a.114.114,0,0,1,0-.161l.743-.744h0l7.535-7.547,4.7-4.71a.11.11,0,0,1,.156,0l4.613,4.621a.114.114,0,0,1,0,.161Zm0,0" transform="translate(0)"/>
      <path id="Trazado_814999" data-name="Trazado 814999" d="M194.863,32.8a1.048,1.048,0,1,0,1.047,1.048A1.048,1.048,0,0,0,194.863,32.8Zm0,0" transform="translate(-168.425 -28.507)"/>
      <path id="Trazado_815000" data-name="Trazado 815000" d="M456.46,374.688a1.048,1.048,0,1,0,1.046,1.048A1.048,1.048,0,0,0,456.46,374.688Zm0,0" transform="translate(-395.75 -325.599)"/>
      <path id="Trazado_815001" data-name="Trazado 815001" d="M111.1,444.251a1.046,1.046,0,1,0-1.046,1.048A1.048,1.048,0,0,0,111.1,444.251Zm0,0" transform="translate(-94.73 -385.138)"/>
    </g>
  </g>
</svg>
