<svg xmlns="http://www.w3.org/2000/svg" xmlns:xlink="http://www.w3.org/1999/xlink" width="92" height="92" viewBox="0 0 92 92">
  <defs>
    <clipPath id="clip-path">
      <path id="path5931" d="M0-682.665H67v67H0Z" transform="translate(0 682.665)"/>
    </clipPath>
  </defs>
  <g id="Grupo_1069999" data-name="Grupo 1069999" transform="translate(-5413 8619)">
    <circle id="Elipse_9121" data-name="Elipse 9121" cx="46" cy="46" r="46" transform="translate(5413 -8619)" fill="#d89ca7"/>
    <g id="g5925" transform="translate(5425.5 -7923.835)">
      <g id="g5927" transform="translate(0 -682.665)">
        <g id="g5929" clip-path="url(#clip-path)">
          <g id="g5935" transform="translate(50.315 21.273)">
            <path id="path5937" d="M-36.074,0a3.926,3.926,0,0,1,3.926,3.926v15.7H-40V3.926A3.926,3.926,0,0,1-36.074,0" transform="translate(40)" fill="#f6bf9b"/>
          </g>
          <g id="g5939" transform="translate(54.241 12.767)">
            <path id="path5941" d="M-36.074,0A3.926,3.926,0,0,0-40,3.926v15.7h7.852V3.926A3.926,3.926,0,0,0-36.074,0" transform="translate(40)" fill="#fecbaa"/>
          </g>
          <g id="g5943" transform="translate(51.624 8.842)">
            <path id="path5945" d="M-96.2,0A3.9,3.9,0,0,0-97.85.365L-99.571,33.2l-7.1,16.787,13.333-18.763a7.329,7.329,0,0,0,1.062-3.614V3.926A3.926,3.926,0,0,0-96.2,0" transform="translate(106.666)" fill="#fecbaa"/>
          </g>
          <g id="g5947" transform="translate(35.474 9.207)">
            <path id="path5949" d="M-244.6-32.719V-7.071a10.464,10.464,0,0,1-.756,3.627l-9.712,16.787v7.2h-16.149V16.615l4.241-14.862,18.451-14.843V-32.719a3.922,3.922,0,0,1,2.273-3.561,4.206,4.206,0,0,1,1.653,3.561" transform="translate(271.214 36.28)" fill="#fedfc5"/>
          </g>
          <g id="g5951" transform="translate(35.474 28.47)">
            <path id="path5953" d="M-146.948-10.57a3.924,3.924,0,0,1,5.551,0,3.91,3.91,0,0,1,1.15,2.776,3.91,3.91,0,0,1-1.15,2.776L-155.088,8.674V14.06a7.875,7.875,0,0,1-7.852,7.852V8.683a7.837,7.837,0,0,1,2.294-5.556Z" transform="translate(162.94 11.72)" fill="#fecbaa"/>
          </g>
          <g id="g5955" transform="translate(8.833 21.273)">
            <path id="path5957" d="M-36.074,0A3.926,3.926,0,0,0-40,3.926v15.7h7.852V3.926A3.926,3.926,0,0,0-36.074,0" transform="translate(40)" fill="#f6bf9b"/>
          </g>
          <g id="g5959" transform="translate(12.759 21.273)">
            <path id="path5961" d="M-36.074-87.268v-5.571A3.926,3.926,0,0,0-40-96.765" transform="translate(40 96.765)" fill="none" stroke="#000" stroke-linecap="round" stroke-linejoin="round" stroke-miterlimit="10" stroke-width="1.3"/>
          </g>
          <g id="g5963" transform="translate(50.315 21.273)">
            <path id="path5965" d="M0-87.268v-5.571a3.926,3.926,0,0,1,3.926-3.926" transform="translate(0 96.765)" fill="none" stroke="#000" stroke-linecap="round" stroke-linejoin="round" stroke-miterlimit="10" stroke-width="1.3"/>
          </g>
          <g id="g5967" transform="translate(4.907 12.767)">
            <path id="path5969" d="M-36.074,0A3.926,3.926,0,0,0-40,3.926v15.7h7.852V3.926A3.926,3.926,0,0,0-36.074,0" transform="translate(40)" fill="#fecbaa"/>
          </g>
          <g id="g5971" transform="translate(8.833 12.767)">
            <path id="path5973" d="M-36.074-144.377v-11.786A3.926,3.926,0,0,0-40-160.089" transform="translate(40 160.089)" fill="none" stroke="#000" stroke-linecap="round" stroke-linejoin="round" stroke-miterlimit="10" stroke-width="1.3"/>
          </g>
          <g id="g5975" transform="translate(19.748 50.289)">
            <path id="path5977" d="M-108.222-108.545v3.926h-3.926L-120-120.357Z" transform="translate(120 120.357)" fill="#ff9e90"/>
          </g>
          <g id="g5979" transform="translate(12.494 28.47)">
            <path id="path5981" d="M-153.806-136.424l-13.7-13.7a3.913,3.913,0,0,0-3.041-1.141l15.106,32.563a7.788,7.788,0,0,0,3.926,1.059v-13.228a7.837,7.837,0,0,0-2.294-5.556" transform="translate(170.544 151.27)" fill="#f6bf9b"/>
          </g>
          <g id="g5983" transform="translate(0.981 8.842)">
            <path id="path5985" d="M-235.684-358.938l-17.8-15.507v-19.629A3.926,3.926,0,0,0-257.407-398a3.926,3.926,0,0,0-3.926,3.926v23.686a7.329,7.329,0,0,0,1.062,3.614l13.333,18.763v7.2h12.224V-345.8Z" transform="translate(261.333 397.999)" fill="#fedfc5"/>
          </g>
          <g id="g5987" transform="translate(8.833 28.479)">
            <path id="path5989" d="M-172.452-187.4v12.17a7.869,7.869,0,0,1-3.926-6.793v-5.386L-190.069-201.1a3.91,3.91,0,0,1-1.15-2.776,3.91,3.91,0,0,1,1.15-2.776,3.906,3.906,0,0,1,2.51-1.141,3.015,3.015,0,0,1,2.074,1.141l11.138,13.7a8.735,8.735,0,0,1,1.895,5.556" transform="translate(191.22 207.793)" fill="#fecbaa"/>
          </g>
          <g id="g5991" transform="translate(0.981 8.842)">
            <path id="path5993" d="M-72.148-217.046V-236.74a3.926,3.926,0,0,0-3.926-3.926A3.926,3.926,0,0,0-80-236.74v23.686a7.329,7.329,0,0,0,1.062,3.614l13.333,18.763v7.2h16.15v-17.154a7.834,7.834,0,0,0-2.294-5.556l-13.7-13.7a3.926,3.926,0,0,0-5.552,0,3.926,3.926,0,0,0,0,5.552l13.691,13.691" transform="translate(80 240.666)" fill="none" stroke="#000" stroke-linecap="round" stroke-linejoin="round" stroke-miterlimit="10" stroke-width="1.3"/>
          </g>
          <g id="g5995" transform="translate(54.241 12.767)">
            <path id="path5997" d="M0-144.3v-11.777A3.926,3.926,0,0,1,3.926-160" transform="translate(0 159.998)" fill="none" stroke="#000" stroke-linecap="round" stroke-linejoin="round" stroke-miterlimit="10" stroke-width="1.3"/>
          </g>
          <g id="g5999" transform="translate(35.474 8.842)">
            <path id="path6001" d="M-208.523-217.046V-236.74a3.926,3.926,0,0,1,3.926-3.926,3.926,3.926,0,0,1,3.926,3.926v23.686a7.329,7.329,0,0,1-1.062,3.614l-13.333,18.763v7.2h-16.15v-17.154a7.835,7.835,0,0,1,2.294-5.556l13.7-13.7a3.926,3.926,0,0,1,5.552,0,3.926,3.926,0,0,1,0,5.552l-13.691,13.691" transform="translate(231.215 240.666)" fill="none" stroke="#000" stroke-linecap="round" stroke-linejoin="round" stroke-miterlimit="10" stroke-width="1.3"/>
          </g>
          <g id="g6003" transform="translate(32.093 0.973)">
            <path id="path6005" d="M-84.173-98.063l1.83-10.672-4.315,2.268-6.676,12.329,13.5,4.128,3.416-.5Z" transform="translate(93.333 108.734)" fill="#eec23c"/>
          </g>
          <g id="g6007" transform="translate(17.993 0.973)">
            <path id="path6009" d="M-190.909-20.845l-5.269,2.77-9.584-5.038,1.83,10.672-7.753,7.558,10.715,1.557,4.792,9.709,4.792-9.709,7.3-1.06-8.263-8.054Z" transform="translate(211.685 23.113)" fill="#fdd559"/>
          </g>
          <g id="g6011" transform="translate(17.993 0.973)">
            <path id="path6013" d="M-71.246-98.063-79-90.5l10.715,1.557,4.792,9.709,4.792-9.709L-47.986-90.5l-7.753-7.558,1.83-10.672-9.584,5.038-9.584-5.038,1.157,6.746" transform="translate(79 108.734)" fill="none" stroke="#000" stroke-linecap="round" stroke-linejoin="round" stroke-miterlimit="10" stroke-width="1.3"/>
          </g>
        </g>
      </g>
    </g>
  </g>
</svg>
