<svg id="Grupo_155273" data-name="Grupo 155273" xmlns="http://www.w3.org/2000/svg" width="58.436" height="73.639" viewBox="0 0 58.436 73.639">
  <path id="Trazado_197098" data-name="Trazado 197098" d="M4288.5,4288.557h-1.027c-5.8,0-11.595.009-17.392,0a6.935,6.935,0,0,1-6.968-5.227,7.292,7.292,0,0,1-.223-1.768q-.023-10.189-.01-20.379c0-.176-.052-.4.036-.519.14-.187.377-.418.573-.417a.807.807,0,0,1,.548.432,1.73,1.73,0,0,1,.042.72c0,6.66-.007,13.32.009,19.98a5.716,5.716,0,0,0,3.024,5.247,5.788,5.788,0,0,0,8.546-4.75c.014-.354.007-.708.007-1.062q0-20.611,0-41.222v-.841h-11.587v.928q0,8.762,0,17.524c0,.463.145,1.1-.581,1.11-.71.007-.615-.608-.615-1.09q0-9.327,0-18.653c0-1.027.092-1.117,1.148-1.117h11.588c.04-.554.07-1.054.114-1.552a6.987,6.987,0,0,1,2.348-4.616,1.385,1.385,0,0,0,.4-.894c.036-2.013,0-4.027.036-6.041a2.664,2.664,0,0,1,.306-1.185c1.038-1.9,2.11-3.783,3.182-5.666.474-.833.947-.819,1.424.024,1.065,1.887,2.141,3.768,3.18,5.668a2.534,2.534,0,0,1,.284,1.124c.032,1.481.013,2.964.013,4.447v.785c.345.016.623.039.9.039q13.143,0,26.286,0a6.917,6.917,0,0,1,7.2,7.117q.028,26.419.008,52.838c0,.9-.087.978-1.077.978h-30.6c-1.084,0-1.121-.04-1.12-1.125C4288.5,4289.151,4288.5,4288.91,4288.5,4288.557Zm-1.42-55.717-.182.055v.787q0,14.572,0,29.144c0,.91-.088,1-.978,1q-3.087.005-6.173,0c-1.233,0-1.251-.018-1.251-1.275q0-14.473,0-28.945v-.89a4.07,4.07,0,0,0-.321.279,4.2,4.2,0,0,0-.28.37,6.382,6.382,0,0,0-1,3.714q.023,22.14.012,44.281a7.02,7.02,0,0,1-2.555,5.6,1.208,1.208,0,0,1-.368.143l.159.19h14.321c.013-.261.034-.477.034-.694,0-1.682-.022-3.364.013-5.045.013-.577-.145-.761-.74-.754-2.521.032-5.045.016-7.567.013-.814,0-.965-.149-.966-.969q-.007-4.183,0-8.365c0-.8.185-.98.973-.98q17.26,0,34.521,0c.883,0,.989.106.99,1q.005,4.05,0,8.1c0,1.213,0,1.214-1.232,1.214-7.988,0-15.977.009-23.965-.016-.687,0-.855.2-.845.857.039,2.323.03,4.647,0,6.97-.006.554.173.708.721.707q14.506-.022,29.011,0c.572,0,.7-.2.694-.726q-.018-25.924-.015-51.849a5.8,5.8,0,0,0-5.963-5.96q-13.277-.023-26.555,0c-.2,0-.4.029-.671.05a1.8,1.8,0,0,0,.186.261,7.356,7.356,0,0,1,2.619,6.037c-.036,10.334-.015,20.668-.016,31,0,.2.058.446-.037.584a1,1,0,0,1-.6.459c-.169.013-.423-.256-.528-.458a1.546,1.546,0,0,1-.032-.654v-18.588c0-4.271.006-8.542,0-12.813A5.627,5.627,0,0,0,4287.08,4232.84ZM4302.1,4271.8h-3.742c-.126.493.146,1.2-.642,1.217-.851.022-.487-.776-.7-1.214h-3.661c-.162.483.114,1.213-.663,1.219-.817.005-.512-.766-.667-1.235h-3.761c0,.7,0,1.377,0,2.055,0,.425-.05.844-.6.843s-.615-.4-.611-.835c.006-.678,0-1.356,0-2.066h-3.74c-.122.49.116,1.238-.677,1.236s-.54-.755-.658-1.211h-1.492c0,2.4.02,4.747-.014,7.09-.009.592.169.737.748.736q16.3-.026,32.592,0c.534,0,.735-.128.728-.7-.03-2.168-.012-4.337-.015-6.505,0-.212-.025-.425-.038-.629h-6.075c-.09.518.1,1.208-.651,1.22-.809.013-.561-.734-.688-1.22h-3.733c0,.714-.005,1.374,0,2.034,0,.435-.065.833-.6.847s-.635-.386-.638-.82C4302.1,4273.18,4302.1,4272.5,4302.1,4271.8Zm-16.394-28.215v-17.518c0-1.569,0-1.569-1.552-1.569-.853,0-.854,0-.854.866q0,17.883,0,35.766c0,1.511,0,1.511,1.542,1.507.86,0,.863,0,.864-.87Q4285.705,4252.673,4285.705,4243.582Zm-6-19.053v36.514c0,1.6,0,1.565,1.594,1.6.648.016.812-.194.811-.822q-.026-18.255-.015-36.511c0-.257-.032-.514-.05-.786Zm.487-1.309h5.011c-.391-.7-.718-1.325-1.085-1.926-.247-.406-2.568-.435-2.819-.031C4280.921,4221.874,4280.589,4222.515,4280.194,4223.22Zm2.516-4.45-.533.961h1.047Z" transform="translate(-4262.865 -4216.879)" fill="#12263f"/>
  <path id="Trazado_197099" data-name="Trazado 197099" d="M4494.537,4413.769h-3.881c-1.19,0-1.24-.05-1.239-1.227,0-1.306.02-2.612-.008-3.917-.013-.594.23-.867.808-.867l10.09,0c.548,0,.794.267.789.825-.016,1.438-.021,2.876,0,4.315.011.641-.295.871-.886.868-1.413-.006-2.827,0-4.28,0a2,2,0,0,0,.566,2.107,24.1,24.1,0,0,1,2.257,2.243,1.533,1.533,0,0,0,1.278.514c1.615-.031,3.23,0,4.846-.017.613-.008.921.217.874.855-.015.2.018.4,0,.6a1.75,1.75,0,0,0,1.119,2.144,2.965,2.965,0,0,1,1.341,3.667,3.224,3.224,0,0,1-6.24-.588,3.225,3.225,0,0,1,1.922-3.384c.229-.1.591-.235.614-.4a6.336,6.336,0,0,0-.019-1.514c-.006-.068-.3-.156-.455-.157-1.482-.011-2.965-.015-4.447.007a.932.932,0,0,0-.575.252q-1.451,1.411-2.866,2.86a2.364,2.364,0,0,0,.068,2.442c1,1.006,2,2,3,3.007.548.553.548.757-.011,1.321-1.1,1.117-2.228,2.216-3.326,3.339a.742.742,0,0,1-1.236.018q-1.694-1.733-3.422-3.43a.723.723,0,0,1,0-1.19q1.507-1.5,3-3a2.123,2.123,0,0,0-.025-2.67c-.876-.875-1.749-1.755-2.636-2.62a.97.97,0,0,0-.547-.32c-1.433-.026-2.867-.015-4.4-.015a11.085,11.085,0,0,0,.025,1.564c.026.176.316.366.526.455a3.2,3.2,0,0,1,2.024,3,3.148,3.148,0,0,1-1.96,2.97,3.212,3.212,0,0,1-4.2-1.736,3.151,3.151,0,0,1,1.735-4.173.772.772,0,0,0,.608-.908c-.042-.528-.013-1.061-.009-1.592a.7.7,0,0,1,.813-.8c1.5.017,3.01.026,4.514-.012a1.531,1.531,0,0,0,.907-.384c.782-.716,1.478-1.53,2.28-2.221A1.946,1.946,0,0,0,4494.537,4413.769Zm-3.893-1.3h9.185v-3.411h-9.185Zm1.883,16.5,2.729,2.74,2.639-2.646-2.691-2.722Zm2.624-12.594c-.748.771-1.538,1.514-2.224,2.343a1.078,1.078,0,0,0,.011,1.035c.677.836,1.457,1.588,2.165,2.337l2.924-2.84Zm-9.187,10.471a1.99,1.99,0,1,0-1.971-2.011A2.042,2.042,0,0,0,4485.964,4426.847Zm21.16-1.978a1.969,1.969,0,1,0-3.938-.019,1.969,1.969,0,1,0,3.938.019Z" transform="translate(-4453.576 -4382.414)" fill="#12263f"/>
  <path id="Trazado_197100" data-name="Trazado 197100" d="M4614.282,4643.349a2.1,2.1,0,0,1,2.138,2.2,2.158,2.158,0,0,1-2.2,2.159,2.2,2.2,0,0,1-2.151-2.223A2.132,2.132,0,0,1,4614.282,4643.349Zm-.056,3.1a.987.987,0,0,0,.99-.95,1.025,1.025,0,0,0-.936-.954.963.963,0,0,0-.968.965A.919.919,0,0,0,4614.227,4646.453Z" transform="translate(-4565.702 -4586.723)" fill="#12263f"/>
</svg>
