<svg xmlns="http://www.w3.org/2000/svg" width="49.185" height="46.786" viewBox="0 0 49.185 46.786">
  <g id="Wj2Qew.tif" transform="translate(1063.904 5938.546)">
    <g id="Grupo_155569" data-name="Grupo 155569" transform="translate(-1063.904 -5938.546)">
      <path id="Trazado_197643" data-name="Trazado 197643" d="M-1063.9-5926.2c.538-.521,1.1-1.021,1.606-1.574a1.448,1.448,0,0,1,1.256-.51c.789.042,1.583.011,2.523.011-.511-.507-.928-.9-1.31-1.315a.888.888,0,0,1-.221-.535c-.018-1.216-.023-2.433,0-3.648a4.835,4.835,0,0,1,6.1-4.437,4.856,4.856,0,0,1,3.578,4.773c.008,1.071.017,2.145-.011,3.216a1.116,1.116,0,0,1-.271.661c-.363.4-.778.758-1.26,1.215a3.943,3.943,0,0,0,.46.068c.72.006,1.443.034,2.161-.008a1.141,1.141,0,0,1,1.172.63c-.276.262-.57.547-.872.823a.327.327,0,0,1-.207.074c-3.824-.01-7.647-.019-11.471-.047a1.36,1.36,0,0,0-.922.38,2.4,2.4,0,0,0-.893,2.16c.062,2.862.023,5.728.023,8.593a1.374,1.374,0,0,0,1.4,1.381h.637V-5923h1.476v22.255c.742,0,1.441.023,2.137-.01.349-.018.865-.745.865-1.135q0-4.969,0-9.937v-.613h1.451v.548q0,4.969,0,9.938a1.206,1.206,0,0,0,1.218,1.212h1.756v-22.244h1.445v8.677h1.33v1.447h-1.31v13.585h-2.58c-.128,0-.257-.01-.384,0-.862.077-1.676.035-2.109-.849-.1.027-.144.024-.157.044a2.184,2.184,0,0,1-2.186.815c-.954-.058-1.915-.013-2.926-.013v-13.577a8.741,8.741,0,0,0-1.042.007,1.419,1.419,0,0,1-1.368-.572,14.174,14.174,0,0,0-1.095-1.067Zm5.206-5.948.076.009c0,.464-.007.928,0,1.392a.646.646,0,0,0,.1.4,11.714,11.714,0,0,0,2.071,1.981c.484.294,1.277.08,1.931.094a.722.722,0,0,0,.239,0,1.376,1.376,0,0,0,.5-.218q.888-.844,1.733-1.729a.734.734,0,0,0,.2-.454c.005-1.056.024-2.113-.037-3.166a3.261,3.261,0,0,0-3.161-3.083,3.22,3.22,0,0,0-3.37,2.365A17.092,17.092,0,0,0-1058.7-5932.15Z" transform="translate(1063.904 5938.415)" fill="#12263f"/>
      <path id="Trazado_197644" data-name="Trazado 197644" d="M-1004.2-5513.6c-.138-.033-.274-.077-.414-.1a3.255,3.255,0,0,1-2.651-3.771,3.264,3.264,0,0,1,3.583-2.622,3.422,3.422,0,0,1,1.937.962.915.915,0,0,0,.58.233q5.041.02,10.083,0a.986.986,0,0,0,.618-.252,3.224,3.224,0,0,1,4.607-.006.978.978,0,0,0,.615.257q5.041.023,10.083,0a1,1,0,0,0,.616-.263,3.263,3.263,0,0,1,3.634-.674,3.238,3.238,0,0,1,1.866,3.412,3.245,3.245,0,0,1-2.421,2.678c-.213.056-.431.094-.647.141h-.288a1.808,1.808,0,0,0-.31-.094,2.779,2.779,0,0,1-1.729-.841,1.035,1.035,0,0,0-.843-.329q-4.536.014-9.072,0c-.7,0-1.408-.083-1.893.587a.175.175,0,0,1-.079.052q-.866.313-1.733.624h-.192a1.687,1.687,0,0,0-.318-.09,2.861,2.861,0,0,1-1.817-.87.957.957,0,0,0-.754-.305q-4.656.014-9.312,0c-.629,0-1.248-.054-1.663.557a.338.338,0,0,1-.159.1c-.544.2-1.089.4-1.635.6Zm12.769-3.806h-9.379v1.054h9.379Zm15.933-.006h-9.367v1.046h9.367Zm3.277,2.3a1.745,1.745,0,0,0,1.751-1.815,1.8,1.8,0,0,0-1.8-1.744,1.828,1.828,0,0,0-1.767,1.791A1.769,1.769,0,0,0-972.222-5515.112Zm-31.875,0a1.773,1.773,0,0,0,1.814-1.77,1.837,1.837,0,0,0-1.77-1.79,1.8,1.8,0,0,0-1.794,1.746A1.741,1.741,0,0,0-1004.1-5515.112Zm15.95,0a1.751,1.751,0,0,0,1.763-1.756,1.793,1.793,0,0,0-1.788-1.8,1.8,1.8,0,0,0-1.767,1.779A1.757,1.757,0,0,0-988.147-5515.112Z" transform="translate(1012.751 5560.385)" fill="#12263f"/>
      <path id="Trazado_197645" data-name="Trazado 197645" d="M-721.7-5928.284c.89,0,1.782-.023,2.671.014a1.282,1.282,0,0,1,.742.309c.548.491,1.063,1.02,1.564,1.559a.935.935,0,0,1,.243.574q.021,5.474,0,10.948a1.605,1.605,0,0,1-.232.583c-.025.055-.094.087-.133.138a2.783,2.783,0,0,1-2.932,1.305c-.04-.008-.088.024-.185.053v13.517h-1.964c-.224,0-.448,0-.672,0-.942-.007-1.969.247-2.55-1.026-.564,1.148-1.475,1.06-2.382,1.032s-1.817-.006-2.777-.006v-13.577c-.525,0-1,.026-1.473-.012a1.093,1.093,0,0,1-.62-.25,5.09,5.09,0,0,1-1.37-1.451,5.284,5.284,0,0,1-.071-1.945c0-3.057,0-6.114-.008-9.171a.986.986,0,0,1,.334-.794c.525-.493,1.009-1.029,1.542-1.513a1.14,1.14,0,0,1,.663-.273c.751-.034,1.5-.011,2.257-.014a.99.99,0,0,0,.521-.137c-.411-.393-.829-.779-1.229-1.182a.671.671,0,0,1-.226-.394,43.173,43.173,0,0,1,.1-4.408,4.8,4.8,0,0,1,4.316-3.993,4.8,4.8,0,0,1,4.986,3.321,7.383,7.383,0,0,1,.26,1.787c.041.991-.006,1.985.02,2.977a1.011,1.011,0,0,1-.374.87c-.374.323-.722.677-1.081,1.017Zm-7.159,5.267v22.268h1.731a1.2,1.2,0,0,0,1.25-1.228q0-4.969,0-9.939v-.541h1.446v.595q0,4.97,0,9.939c0,.422.518,1.146.888,1.163.683.031,1.368.009,2.114.009V-5923h1.477v8.7h.521a1.381,1.381,0,0,0,1.525-1.5c0-2.833-.034-5.667.02-8.5a2.335,2.335,0,0,0-.872-2.12,1.444,1.444,0,0,0-.963-.4c-3.362.018-6.725.046-10.086-.014a2.352,2.352,0,0,0-2.254.979,1.433,1.433,0,0,0-.3.7q-.029,4.8,0,9.6a1.4,1.4,0,0,0,.268.667c.416.665,1.059.648,1.778.53v-8.669Zm7.141-9.134c-.034-.638-.031-1.28-.11-1.913a3.271,3.271,0,0,0-3.159-2.876,3.2,3.2,0,0,0-3.327,2.294,19.2,19.2,0,0,0-.225,2.321,3.3,3.3,0,0,0,1.307,3.244,2.912,2.912,0,0,0,2,.832,2.9,2.9,0,0,0,2.292-.956C-722.088-5930.054-721.391-5930.859-721.717-5932.151Z" transform="translate(765.654 5938.424)" fill="#12263f"/>
      <path id="Trazado_197646" data-name="Trazado 197646" d="M-894.066-5900.873c.748,0,1.419.016,2.09-.006.387-.013.9-.691.9-1.135q0-4.97,0-9.94v-.613h1.482v.573q0,4.946,0,9.892a1.2,1.2,0,0,0,1.25,1.231h1.737v-22.259h1.43v8.686h1.338v1.438h-1.3v13.6h-.747c-.961,0-1.922-.025-2.882.011a1.249,1.249,0,0,1-1.167-.487,2.874,2.874,0,0,0-.361-.348c-.061.02-.1.021-.118.041a2.056,2.056,0,0,1-2.051.8c-.988-.058-1.982-.014-3.021-.014v-13.577c-.518,0-.993.025-1.463-.011a1.364,1.364,0,0,1-.628-.243,3.526,3.526,0,0,1-1.479-3.4c.119-3.052.041-6.112.03-9.169a.994.994,0,0,1,.331-.8c.524-.494,1.008-1.031,1.541-1.514a1.123,1.123,0,0,1,.664-.272c.9-.031,1.81-.013,2.714-.013l.067-.128c-.4-.382-.814-.749-1.186-1.155a1.04,1.04,0,0,1-.27-.616q-.04-1.632-.008-3.265a4.86,4.86,0,0,1,4.082-4.9,4.828,4.828,0,0,1,5.264,3.085,7.746,7.746,0,0,1,.327,1.922c.053,1.038.03,2.081,0,3.12a1.123,1.123,0,0,1-.277.661c-.362.4-.775.757-1.265,1.224.266.027.395.051.524.052.72,0,1.443.034,2.161-.009a1.093,1.093,0,0,1,1.1.587.462.462,0,0,1-.024.041,2.076,2.076,0,0,1-1.92.89c-3.521-.07-7.044-.024-10.566-.037a1.375,1.375,0,0,0-.927.365,2.355,2.355,0,0,0-.878,2.117c.056,2.88.021,5.762.021,8.643a1.339,1.339,0,0,0,1.38,1.388h.654v-8.7h1.449Zm7.107-31.545c0-.463.013-.928,0-1.392a3.4,3.4,0,0,0-3.355-3.277,3.4,3.4,0,0,0-3.383,3.3,13.861,13.861,0,0,1-.02,1.582,3.042,3.042,0,0,0,1.159,2.871,3.023,3.023,0,0,0,2.337.964,2.79,2.79,0,0,0,1.961-.814C-887.267-5930.085-886.591-5931.015-886.959-5932.418Z" transform="translate(914.924 5938.546)" fill="#12263f"/>
      <path id="Trazado_197647" data-name="Trazado 197647" d="M-956.226-5606.964H-957.6v-5.283h1.374Z" transform="translate(967.83 5643.647)" fill="#12263f"/>
      <path id="Trazado_197648" data-name="Trazado 197648" d="M-790.849-5607.111h-1.386v-5.284h1.386Z" transform="translate(818.378 5643.781)" fill="#12263f"/>
      <path id="Trazado_197649" data-name="Trazado 197649" d="M-957.677-5637.371h1.381v1.417h-1.381Z" transform="translate(967.899 5666.354)" fill="#12263f"/>
      <path id="Trazado_197650" data-name="Trazado 197650" d="M-956.209-5660.821h-1.382v-1.435h1.382Z" transform="translate(967.822 5688.844)" fill="#12263f"/>
      <path id="Trazado_197651" data-name="Trazado 197651" d="M-790.764-5662.15v1.4h-1.4v-1.4Z" transform="translate(818.315 5688.749)" fill="#12263f"/>
      <path id="Trazado_197652" data-name="Trazado 197652" d="M-792.267-5635.869v-1.419h1.4v1.419Z" transform="translate(818.407 5666.278)" fill="#12263f"/>
      <path id="Trazado_197653" data-name="Trazado 197653" d="M-970.39-5866.784c.047,1-.965,1.245-1.369,1.93l-1-1.011A1.789,1.789,0,0,1-970.39-5866.784Z" transform="translate(981.531 5873.832)" fill="#12263f"/>
      <path id="Trazado_197654" data-name="Trazado 197654" d="M-971.852-5912.574c-.9.978-.9.978-1.781.6v-1.395A2.365,2.365,0,0,1-971.852-5912.574Z" transform="translate(982.32 5915.789)" fill="#12263f"/>
      <path id="Trazado_197655" data-name="Trazado 197655" d="M-963.13-5892.241l1.367-.234v1.533h-1.367Z" transform="translate(972.828 5896.909)" fill="#12263f"/>
      <path id="Trazado_197656" data-name="Trazado 197656" d="M-625.955-5607.433h-1.436a2.821,2.821,0,0,1-.044-.356c0-1.5.009-3.007-.01-4.51,0-.368.12-.457.469-.455,1.022.006,1.022-.008,1.022,1q0,1.9,0,3.79Z" transform="translate(669.446 5644.106)" fill="#12263f"/>
      <path id="Trazado_197657" data-name="Trazado 197657" d="M-626.239-5661.508h-1.476a3.6,3.6,0,0,1,.027-1.236c.195-.489.724-.135,1.1-.206a.424.424,0,0,1,.334.25A11.55,11.55,0,0,1-626.239-5661.508Z" transform="translate(669.729 5689.523)" fill="#12263f"/>
      <path id="Trazado_197658" data-name="Trazado 197658" d="M-626.238-5636.558h-1.476a3.606,3.606,0,0,1,.027-1.236c.195-.489.724-.134,1.1-.206a.423.423,0,0,1,.334.25A11.539,11.539,0,0,1-626.238-5636.558Z" transform="translate(669.728 5666.974)" fill="#12263f"/>
      <path id="Trazado_197659" data-name="Trazado 197659" d="M-642.154-5865.849a1.811,1.811,0,0,1,2.345-.944c.142,1.027-.938,1.254-1.341,1.986Z" transform="translate(682.74 5873.825)" fill="#12263f"/>
      <path id="Trazado_197660" data-name="Trazado 197660" d="M-632.273-5892.217l1.376-.227v1.541h-1.376Z" transform="translate(673.81 5896.881)" fill="#12263f"/>
      <path id="Trazado_197661" data-name="Trazado 197661" d="M-643.092-5913.337a2.419,2.419,0,0,1,1.82.806c-.31.281-.591.557-.9.8a.377.377,0,0,1-.357.013c-.188-.152-.59-.034-.568-.457C-643.077-5912.54-643.092-5912.905-643.092-5913.337Z" transform="translate(683.592 5915.763)" fill="#12263f"/>
      <path id="Trazado_197662" data-name="Trazado 197662" d="M-806.543-5864.773l-1.021-1.023a1.781,1.781,0,0,1,2.356-.939C-805.07-5865.733-806.154-5865.516-806.543-5864.773Z" transform="translate(832.232 5873.787)" fill="#12263f"/>
      <path id="Trazado_197663" data-name="Trazado 197663" d="M-806.291-5912.553l-1.044.925-.749-.336v-1.4A2.415,2.415,0,0,1-806.291-5912.553Z" transform="translate(832.702 5915.789)" fill="#12263f"/>
      <path id="Trazado_197664" data-name="Trazado 197664" d="M-797.781-5892.264l1.382-.239v1.532h-1.382Z" transform="translate(823.39 5896.933)" fill="#12263f"/>
    </g>
  </g>
</svg>
