<svg xmlns="http://www.w3.org/2000/svg" xmlns:xlink="http://www.w3.org/1999/xlink" width="105" height="103" viewBox="0 0 105 103">
  <defs>
    <clipPath id="clip-path">
      <path id="path9927" d="M0-682.665H80.676v80.676H0Z" transform="translate(0 682.665)"/>
    </clipPath>
  </defs>
  <g id="Grupo_1070110" data-name="Grupo 1070110" transform="translate(-213 -3080.284)">
    <rect id="Rectángulo_374321" data-name="Rectángulo 374321" width="105" height="103" rx="6" transform="translate(213 3080.284)" fill="#ff8e7c"/>
    <g id="g9921" transform="translate(225.162 3774.111)">
      <g id="g9923" transform="translate(0 -682.665)">
        <g id="g9925" clip-path="url(#clip-path)">
          <g id="g9931" transform="translate(17.83 1.182)">
            <path id="path9933" d="M-376.156-543.8h-47.8a2.606,2.606,0,0,1-2.606-2.606V-614.07a2.606,2.606,0,0,1,2.606-2.606h47.8a2.606,2.606,0,0,1,2.606,2.606V-546.4a2.606,2.606,0,0,1-2.606,2.606" transform="translate(426.567 616.676)" fill="#ffe5c2"/>
          </g>
          <g id="g9935" transform="translate(60.184 1.182)">
            <path id="path9937" d="M-60.117,0h-8.057a2.605,2.605,0,0,1,2.606,2.606V70.272a2.606,2.606,0,0,1-2.606,2.606h8.057a2.606,2.606,0,0,0,2.606-2.606V2.606A2.605,2.605,0,0,0-60.117,0" transform="translate(68.173)" fill="#fed2a4"/>
          </g>
          <g id="g9939" transform="translate(13.181 27.296)">
            <path id="path9941" d="M-387.977-16.484V10.653h-51.995V-16.484a2.21,2.21,0,0,1,2.209-2.209h47.576a2.21,2.21,0,0,1,2.209,2.209" transform="translate(439.972 18.693)" fill="#fed2a4"/>
          </g>
          <g id="g9943" transform="translate(13.181 41.264)">
            <path id="path9945" d="M-387.977-.188V15.164h-51.995V6.2h34.908l1.58-4.119a3.576,3.576,0,0,1,3.339-2.294h11.807a2.48,2.48,0,0,1,.361.025" transform="translate(439.972 0.213)" fill="#ffbd86"/>
          </g>
          <g id="g9947" transform="translate(54.91 27.296)">
            <path id="path9949" d="M-60.118,0h-8.057a2.21,2.21,0,0,1,2.21,2.21V29.346h8.056V2.21A2.21,2.21,0,0,0-60.118,0" transform="translate(68.174)" fill="#ffbd86"/>
          </g>
          <g id="g9951" transform="translate(23.79 7.81)">
            <path id="path9953" d="M-121.549-103.121H-135.81a2.029,2.029,0,0,1-2.029-2.029v-9.763a2.029,2.029,0,0,1,2.029-2.029h14.261a2.029,2.029,0,0,1,2.029,2.029v9.763a2.029,2.029,0,0,1-2.029,2.029" transform="translate(137.838 116.941)" fill="#fed2a4"/>
          </g>
          <g id="g9955" transform="translate(20.554 32.241)">
            <path id="path9957" d="M-94.626-80.28h-11.1a1.579,1.579,0,0,1-1.579-1.579v-7.6a1.579,1.579,0,0,1,1.579-1.579h11.1a1.579,1.579,0,0,1,1.579,1.579v7.6a1.579,1.579,0,0,1-1.579,1.579" transform="translate(107.308 91.038)" fill="#f6a96c"/>
          </g>
          <g id="g9959" transform="translate(13.181 41.264)">
            <path id="path9961" d="M-445.4-285.263h-57.068a2.623,2.623,0,0,1-2.623-2.623v-26.571a2.623,2.623,0,0,1,2.623-2.623h40.342l1.581-4.119a3.575,3.575,0,0,1,3.338-2.294H-445.4a2.623,2.623,0,0,1,2.623,2.623v32.984a2.623,2.623,0,0,1-2.623,2.623" transform="translate(505.088 323.493)" fill="#7ca1b1"/>
          </g>
          <g id="g9963" transform="translate(64.815 41.264)">
            <path id="path9965" d="M-60.117,0h-8.057A2.623,2.623,0,0,1-65.55,2.623V35.607a2.623,2.623,0,0,1-2.623,2.623h8.057a2.623,2.623,0,0,0,2.623-2.623V2.623A2.623,2.623,0,0,0-60.117,0" transform="translate(68.173)" fill="#678d98"/>
          </g>
          <g id="g9967" transform="translate(5.182 47.678)">
            <path id="path9969" d="M-143.036-167.909h-15.836a3.333,3.333,0,0,1-3.333-3.333v-15.836a3.333,3.333,0,0,1,3.333-3.333h15.836a3.333,3.333,0,0,1,3.333,3.333v15.836a3.333,3.333,0,0,1-3.333,3.333" transform="translate(162.205 190.412)" fill="#fd4755"/>
          </g>
          <g id="g9971" transform="translate(19.539 47.678)">
            <path id="path9973" d="M-35.9,0h-4.811A3.333,3.333,0,0,1-37.38,3.333V19.169A3.333,3.333,0,0,1-40.713,22.5H-35.9a3.333,3.333,0,0,0,3.333-3.333V3.333A3.333,3.333,0,0,0-35.9,0" transform="translate(40.713)" fill="#fb2b3a"/>
          </g>
          <g id="g9975" transform="translate(12.007 58.099)">
            <path id="path9977" d="M-56.039-54.125h-6.168a1.342,1.342,0,0,1-1.342-1.342v-4.57a1.342,1.342,0,0,1,1.342-1.342h6.168A1.342,1.342,0,0,1-54.7-60.037v4.57a1.342,1.342,0,0,1-1.342,1.342" transform="translate(63.549 61.379)" fill="#fef056"/>
          </g>
          <g id="g9979" transform="translate(14.706 58.099)">
            <path id="path9981" d="M-35.9,0h-4.811a1.342,1.342,0,0,1,1.342,1.342v4.57a1.342,1.342,0,0,1-1.342,1.342H-35.9A1.342,1.342,0,0,0-34.56,5.912V1.342A1.342,1.342,0,0,0-35.9,0" transform="translate(40.713)" fill="#fcde06"/>
          </g>
          <g id="g9983" transform="translate(17.83 1.182)">
            <path id="path9985" d="M0-153.39v-17.95a2.605,2.605,0,0,1,2.606-2.606h47.8a2.605,2.605,0,0,1,2.606,2.606v37.476" transform="translate(0 173.946)" fill="none" stroke="#000" stroke-linecap="round" stroke-linejoin="round" stroke-miterlimit="10" stroke-width="2.5"/>
          </g>
          <g id="g9987" transform="translate(12.007 58.099)">
            <path id="path9989" d="M-56.039-54.125h-6.168a1.342,1.342,0,0,1-1.342-1.342v-4.57a1.342,1.342,0,0,1,1.342-1.342h6.168A1.342,1.342,0,0,1-54.7-60.037v4.57A1.342,1.342,0,0,1-56.039-54.125Z" transform="translate(63.549 61.379)" fill="none" stroke="#000" stroke-linecap="round" stroke-linejoin="round" stroke-miterlimit="10" stroke-width="2.5"/>
          </g>
          <g id="g9991" transform="translate(13.636 52.505)">
            <path id="path9993" d="M-20.871,0h0a2.8,2.8,0,0,0-2.8,2.8v2.8h5.594V2.8A2.8,2.8,0,0,0-20.871,0Z" transform="translate(23.668)" fill="none" stroke="#000" stroke-linecap="round" stroke-linejoin="round" stroke-miterlimit="10" stroke-width="2.5"/>
          </g>
          <g id="g9995" transform="translate(5.182 47.678)">
            <path id="path9997" d="M-143.036-167.909h-15.836a3.333,3.333,0,0,1-3.333-3.333v-15.836a3.333,3.333,0,0,1,3.333-3.333h15.836a3.333,3.333,0,0,1,3.333,3.333v15.836A3.333,3.333,0,0,1-143.036-167.909Z" transform="translate(162.205 190.412)" fill="none" stroke="#000" stroke-linecap="round" stroke-linejoin="round" stroke-miterlimit="10" stroke-width="2.5"/>
          </g>
          <g id="g9999" transform="translate(15.803 41.264)">
            <path id="path10001" d="M-445.4-192.873V-216.1a2.622,2.622,0,0,0-2.622-2.622H-459.83a3.576,3.576,0,0,0-3.339,2.294l-1.58,4.119h-40.343" transform="translate(505.092 218.721)" fill="none" stroke="#000" stroke-linecap="round" stroke-linejoin="round" stroke-miterlimit="10" stroke-width="2.5"/>
          </g>
          <g id="g10003" transform="translate(13.181 70.18)">
            <path id="path10005" d="M0,0V6.692A2.622,2.622,0,0,0,2.622,9.314H59.691a2.622,2.622,0,0,0,2.622-2.622V2.486" fill="none" stroke="#000" stroke-linecap="round" stroke-linejoin="round" stroke-miterlimit="10" stroke-width="2.5"/>
          </g>
          <g id="g10007" transform="translate(62.477 47.678)">
            <path id="path10009" d="M0,0H8.369" fill="none" stroke="#000" stroke-linecap="round" stroke-linejoin="round" stroke-miterlimit="10" stroke-width="2.5"/>
          </g>
          <g id="g10011" transform="translate(23.79 7.81)">
            <path id="path10013" d="M-121.549-103.121H-135.81a2.029,2.029,0,0,1-2.029-2.029v-9.763a2.029,2.029,0,0,1,2.029-2.029h14.261a2.029,2.029,0,0,1,2.029,2.029v9.763A2.029,2.029,0,0,1-121.549-103.121Z" transform="translate(137.838 116.941)" fill="none" stroke="#000" stroke-linecap="round" stroke-linejoin="round" stroke-miterlimit="10" stroke-width="2.5"/>
          </g>
          <g id="g10015" transform="translate(23.79 9.839)">
            <path id="path10017" d="M-136.687,0-155,9.763" transform="translate(155.005)" fill="none" stroke="#000" stroke-linecap="round" stroke-linejoin="round" stroke-miterlimit="10" stroke-width="2.5"/>
          </g>
          <g id="g10019" transform="translate(20.554 32.241)">
            <path id="path10021" d="M-94.626-80.28h-11.1a1.579,1.579,0,0,1-1.579-1.579v-7.6a1.579,1.579,0,0,1,1.579-1.579h11.1a1.579,1.579,0,0,1,1.579,1.579v7.6A1.579,1.579,0,0,1-94.626-80.28Z" transform="translate(107.308 91.038)" fill="none" stroke="#000" stroke-linecap="round" stroke-linejoin="round" stroke-miterlimit="10" stroke-width="2.5"/>
          </g>
          <g id="g10023" transform="translate(20.554 33.82)">
            <path id="path10025" d="M-106.411,0l-14.261,7.6" transform="translate(120.672)" fill="none" stroke="#000" stroke-linecap="round" stroke-linejoin="round" stroke-miterlimit="10" stroke-width="2.5"/>
          </g>
          <g id="g10027" transform="translate(50.016 7.81)">
            <path id="path10029" d="M0,0,4.775,4.775" fill="none" stroke="#000" stroke-linecap="round" stroke-linejoin="round" stroke-miterlimit="10" stroke-width="2.5"/>
          </g>
          <g id="g10031" transform="translate(50.016 7.81)">
            <path id="path10033" d="M-35.631,0l-4.775,4.775" transform="translate(40.407)" fill="none" stroke="#000" stroke-linecap="round" stroke-linejoin="round" stroke-miterlimit="10" stroke-width="2.5"/>
          </g>
          <g id="g10035" transform="translate(60.401 7.81)">
            <path id="path10037" d="M0,0,4.775,4.775" fill="none" stroke="#000" stroke-linecap="round" stroke-linejoin="round" stroke-miterlimit="10" stroke-width="2.5"/>
          </g>
          <g id="g10039" transform="translate(60.401 7.81)">
            <path id="path10041" d="M-35.631,0l-4.775,4.775" transform="translate(40.407)" fill="none" stroke="#000" stroke-linecap="round" stroke-linejoin="round" stroke-miterlimit="10" stroke-width="2.5"/>
          </g>
          <g id="g10043" transform="translate(13.181 27.296)">
            <path id="path10045" d="M0-152.085v-18.173a2.21,2.21,0,0,1,2.209-2.209H49.786a2.21,2.21,0,0,1,2.209,2.209V-158.5" transform="translate(0 172.466)" fill="none" stroke="#000" stroke-linecap="round" stroke-linejoin="round" stroke-miterlimit="10" stroke-width="2.5"/>
          </g>
          <g id="g10047" transform="translate(42.108 32.241)">
            <path id="path10049" d="M0,0H6.588" fill="none" stroke="#000" stroke-linecap="round" stroke-linejoin="round" stroke-miterlimit="10" stroke-width="2.5"/>
          </g>
          <g id="g10051" transform="translate(42.108 37.06)">
            <path id="path10053" d="M0,0H10.932" fill="none" stroke="#000" stroke-linecap="round" stroke-linejoin="round" stroke-miterlimit="10" stroke-width="2.5"/>
          </g>
        </g>
      </g>
    </g>
  </g>
</svg>
