<svg xmlns="http://www.w3.org/2000/svg" width="37.05" height="37.044" viewBox="0 0 37.05 37.044">
  <g id="_5xrIOp.tif" data-name="5xrIOp.tif" transform="translate(908.557 5952.899)">
    <g id="Grupo_155585" data-name="Grupo 155585" transform="translate(-908.557 -5952.899)">
      <path id="Trazado_197693" data-name="Trazado 197693" d="M-871.507-5935.463a12.449,12.449,0,0,1-.441,1.589,6.216,6.216,0,0,1-5.532,4.056,4.213,4.213,0,0,1-.757.013.586.586,0,0,1-.565-.591.6.6,0,0,1,.623-.576,6.1,6.1,0,0,0,2.159-.361,5.193,5.193,0,0,0,1.934-8.36,5.245,5.245,0,0,0-2.434-1.482c-.522-.15-.63-.242-.66-.8a10.031,10.031,0,0,0-.6-3.1,9.786,9.786,0,0,0-7.171-6.362,9.9,9.9,0,0,0-10.718,4.446c-.071.112-.134.228-.2.34a.653.653,0,0,1-.939.329,3.847,3.847,0,0,0-4.373,1.069,3.6,3.6,0,0,0-.92,1.927.789.789,0,0,1-.677.688,5.894,5.894,0,0,0-4.542,6.441,5.939,5.939,0,0,0,5.883,5.22c.579.007,1.157,0,1.736,0,.616,0,.816.2.818.827,0,1.133,0,2.267,0,3.4q0,2.062,0,4.124c0,.667-.194.859-.859.863-.422,0-.844.01-1.266,0a.36.36,0,0,0-.416.284,2.569,2.569,0,0,1-2.414,1.694,2.58,2.58,0,0,1-2.4-1.76,2.52,2.52,0,0,1,.9-2.865,2.543,2.543,0,0,1,3.908,1.154c.094.252.208.336.462.317.275-.021.553,0,.86,0v-6.868c-.586,0-1.174.035-1.757-.006a6.778,6.778,0,0,1-5.882-3.839,7.07,7.07,0,0,1,4.23-10.036.6.6,0,0,0,.334-.342,5.15,5.15,0,0,1,4.861-3.747,7.007,7.007,0,0,1,1.284.156.416.416,0,0,0,.5-.191,11.135,11.135,0,0,1,7.866-4.988c.175-.027.349-.06.524-.089h1.881c.271.048.542.1.814.143a10.988,10.988,0,0,1,7.606,4.873,10.633,10.633,0,0,1,1.816,5.253.534.534,0,0,0,.42.521,6.283,6.283,0,0,1,3.86,4.2c.1.329.162.669.242,1Zm-30.953,13.117a1.376,1.376,0,0,0-1.365-1.39,1.379,1.379,0,0,0-1.358,1.364,1.363,1.363,0,0,0,1.369,1.382A1.359,1.359,0,0,0-902.459-5922.346Z" transform="translate(908.557 5952.899)" fill="#12263f"/>
      <path id="Trazado_197694" data-name="Trazado 197694" d="M-581.056-5649.3c-1.027,0-1.991,0-2.954,0a2.9,2.9,0,0,1-.432-.022.585.585,0,0,1-.54-.61.585.585,0,0,1,.6-.556c.735-.012,1.471,0,2.206,0,.518,0,1.037,0,1.555,0,.554,0,.764.21.764.764q0,3.417,0,6.835v.43c.377,0,.724.02,1.067-.013.094-.009.21-.159.255-.269a2.5,2.5,0,0,1,1.989-1.65,2.435,2.435,0,0,1,2.434.943,2.416,2.416,0,0,1,.354,2.552,2.448,2.448,0,0,1-2.052,1.556,2.519,2.519,0,0,1-2.705-1.647.356.356,0,0,0-.411-.291c-.409.016-.819.005-1.229,0-.719,0-.9-.181-.9-.892q0-3.327,0-6.653Zm6.3,7.414a1.378,1.378,0,0,0-1.355-1.367,1.375,1.375,0,0,0-1.368,1.387,1.359,1.359,0,0,0,1.387,1.358A1.362,1.362,0,0,0-574.754-5641.884Z" transform="translate(608.438 5672.414)" fill="#12263f"/>
      <path id="Trazado_197695" data-name="Trazado 197695" d="M-754.895-5649.311c-1,0-1.976,0-2.951,0a2.7,2.7,0,0,1-.431-.026.556.556,0,0,1-.51-.625.564.564,0,0,1,.574-.536c.433-.015.867-.005,1.3-.005h2.385c.665,0,.864.2.864.854,0,2.892.007,5.783-.007,8.674a.617.617,0,0,0,.448.708,2.512,2.512,0,0,1,1.372,3.156,2.575,2.575,0,0,1-2.892,1.682,2.552,2.552,0,0,1-2.07-2.8,2.478,2.478,0,0,1,1.672-2.124c.181-.07.273-.131.273-.345q-.011-4.21-.006-8.421C-754.873-5649.163-754.883-5649.209-754.895-5649.311Zm-.735,11.354a1.349,1.349,0,0,0,1.37,1.372,1.345,1.345,0,0,0,1.35-1.354,1.338,1.338,0,0,0-1.332-1.367A1.34,1.34,0,0,0-755.629-5637.956Z" transform="translate(769.646 5672.427)" fill="#12263f"/>
      <path id="Trazado_197696" data-name="Trazado 197696" d="M-667.974-5649.289c-1.021,0-2,0-2.973,0a2.443,2.443,0,0,1-.431-.031.56.56,0,0,1-.495-.607.563.563,0,0,1,.565-.548q1.989-.015,3.978,0a.589.589,0,0,1,.578.621c.015.252,0,.506,0,.76q0,4.159,0,8.318a.4.4,0,0,0,.311.467,2.541,2.541,0,0,1,1.619,2.8,2.566,2.566,0,0,1-2.5,2.146,2.558,2.558,0,0,1-2.537-2.05,2.525,2.525,0,0,1,1.572-2.883.43.43,0,0,0,.333-.491c-.01-2.7-.006-5.4-.007-8.1C-667.956-5649.009-667.966-5649.127-667.974-5649.289Zm-.735,11.357a1.344,1.344,0,0,0,1.336,1.368,1.346,1.346,0,0,0,1.384-1.356,1.339,1.339,0,0,0-1.337-1.364A1.34,1.34,0,0,0-668.708-5637.932Z" transform="translate(689.03 5672.405)" fill="#12263f"/>
      <path id="Trazado_197697" data-name="Trazado 197697" d="M-620.732-5909.327a7.941,7.941,0,0,1,5.632,2.77c.312.352.329.7.047.952a.614.614,0,0,1-.918-.139,6.772,6.772,0,0,0-3.63-2.22,11.263,11.263,0,0,0-1.462-.2c-.454-.043-.743-.283-.713-.64s.329-.576.791-.545Z" transform="translate(642.566 5912.506)" fill="#12263f"/>
      <path id="Trazado_197698" data-name="Trazado 197698" d="M-523.991-5840.666a.634.634,0,0,1-.6.676c-.329,0-.544-.262-.606-.639-.127-.765-.27-1.527-.435-2.285-.094-.431.009-.729.364-.847a.58.58,0,0,1,.765.459c.226.865.408,1.741.608,2.612Z" transform="translate(553.42 5851.702)" fill="#12263f"/>
    </g>
  </g>
</svg>
