<svg xmlns="http://www.w3.org/2000/svg" width="36.11" height="36.806" viewBox="0 0 36.11 36.806">
  <g id="bd2iio.tif" transform="translate(528.836 -111.062)">
    <g id="Grupo_155491" data-name="Grupo 155491" transform="translate(-528.836 111.062)">
      <path id="Trazado_197383" data-name="Trazado 197383" d="M-528.836,334.277a1.292,1.292,0,0,1,1.4-.869c3.538.02,7.076.009,10.614.01,1.013,0,1.388.375,1.388,1.382q0,8.373,0,16.746c0,1-.385,1.383-1.391,1.384-3.538,0-7.076-.01-10.614.009a1.293,1.293,0,0,1-1.4-.877Zm11.2,1.321h-9v15.136h9Z" transform="translate(528.836 -316.327)" fill="#12263f"/>
      <path id="Trazado_197384" data-name="Trazado 197384" d="M-219.529,120.94q0,4.216,0,8.432c0,.931-.391,1.321-1.332,1.322q-5.346,0-10.693,0c-.957,0-1.351-.393-1.351-1.351q0-8.413,0-16.826c0-.971.376-1.344,1.341-1.344h10.731c.921,0,1.3.379,1.3,1.3Q-219.528,116.7-219.529,120.94Zm-2.183,7.554V113.346h-9v15.148Z" transform="translate(255.639 -111.164)" fill="#12263f"/>
      <path id="Trazado_197385" data-name="Trazado 197385" d="M-305.367,397.041c.446.411.844.733,1.188,1.1a1.07,1.07,0,0,1-.482,1.8.962.962,0,0,1-.992-.24c-.958-.939-1.912-1.882-2.847-2.843a1.034,1.034,0,0,1,.011-1.486q1.393-1.425,2.821-2.815a1.027,1.027,0,0,1,1.481.018,1.068,1.068,0,0,1,.051,1.488c-.154.182-.327.348-.491.522l.048.091c.632-.224,1.282-.405,1.892-.679a12.677,12.677,0,0,0,7.326-8.518c.045-.159.078-.322.127-.48a1.073,1.073,0,0,1,1.319-.8,1.064,1.064,0,0,1,.773,1.336,14.293,14.293,0,0,1-1.289,3.546,14.718,14.718,0,0,1-7.9,7.1c-.8.311-1.657.492-2.488.731C-304.956,396.958-305.091,396.98-305.367,397.041Z" transform="translate(325.712 -363.187)" fill="#12263f"/>
      <path id="Trazado_197386" data-name="Trazado 197386" d="M-470.969,114.02c-.414-.4-.762-.714-1.093-1.049a1.075,1.075,0,0,1-.06-1.6,1.094,1.094,0,0,1,1.6.081q1.307,1.294,2.6,2.6a1.083,1.083,0,0,1,.018,1.709q-1.305,1.323-2.629,2.627a1.079,1.079,0,0,1-1.6.064,1.075,1.075,0,0,1,.076-1.6,3.1,3.1,0,0,1,.4-.3l-.076-.117a1.616,1.616,0,0,0-.264.036,12.653,12.653,0,0,0-8.825,8.64,5.942,5.942,0,0,1-.195.578,1.079,1.079,0,0,1-1.265.615,1.025,1.025,0,0,1-.77-1.13,6.332,6.332,0,0,1,.347-1.287,14.87,14.87,0,0,1,10.62-9.643C-471.757,114.161-471.418,114.111-470.969,114.02Z" transform="translate(486.58 -111.062)" fill="#12263f"/>
      <path id="Trazado_197387" data-name="Trazado 197387" d="M-483.648,381.828c-.791,0-1.582-.01-2.373,0a1.09,1.09,0,0,0-1.17,1.1,1.09,1.09,0,0,0,1.181,1.086q2.316.015,4.632-.005a1.525,1.525,0,0,0,.688-.183,1.048,1.048,0,0,0,.47-1.193,1.108,1.108,0,0,0-1.093-.8C-482.091,381.817-482.87,381.829-483.648,381.828Zm-.058,12.079h0c.766,0,1.531.005,2.3,0a1.1,1.1,0,0,0,1.217-1.087,1.091,1.091,0,0,0-1.205-1.1c-1.531-.008-3.063-.01-4.594.005a1.555,1.555,0,0,0-.691.177,1.045,1.045,0,0,0-.48,1.189,1.1,1.1,0,0,0,1.083.809C-485.288,393.918-484.5,393.906-483.706,393.906Zm-.008-4.963c.8,0,1.607.007,2.411,0a1.05,1.05,0,0,0,1.111-1.1,1.051,1.051,0,0,0-1.121-1.049q-2.373-.008-4.745,0a1.052,1.052,0,0,0-1.131,1.079,1.055,1.055,0,0,0,1.141,1.069C-485.271,388.95-484.492,388.944-483.714,388.944Z" transform="translate(490.395 -361.025)" fill="#12263f"/>
      <path id="Trazado_197388" data-name="Trazado 197388" d="M-483.591,381.829c.778,0,1.557-.011,2.335,0a1.108,1.108,0,0,1,1.093.8,1.048,1.048,0,0,1-.47,1.193,1.524,1.524,0,0,1-.688.183q-2.316.024-4.632.005a1.09,1.09,0,0,1-1.181-1.086,1.09,1.09,0,0,1,1.17-1.1C-485.173,381.818-484.382,381.828-483.591,381.829Z" transform="translate(490.338 -361.025)" fill="#12263f"/>
      <path id="Trazado_197389" data-name="Trazado 197389" d="M-483.706,512.774c-.791,0-1.583.012-2.373,0a1.1,1.1,0,0,1-1.083-.809,1.045,1.045,0,0,1,.48-1.189,1.554,1.554,0,0,1,.691-.177c1.531-.015,3.063-.014,4.594-.005a1.091,1.091,0,0,1,1.205,1.1,1.1,1.1,0,0,1-1.217,1.087c-.766.007-1.531,0-2.3,0Z" transform="translate(490.395 -479.893)" fill="#12263f"/>
      <path id="Trazado_197390" data-name="Trazado 197390" d="M-483.641,448.639c-.778,0-1.556.006-2.334,0a1.055,1.055,0,0,1-1.141-1.069,1.052,1.052,0,0,1,1.131-1.079q2.373-.007,4.745,0a1.051,1.051,0,0,1,1.121,1.049,1.05,1.05,0,0,1-1.111,1.1C-482.033,448.645-482.837,448.638-483.641,448.639Z" transform="translate(490.321 -420.719)" fill="#12263f"/>
      <path id="Trazado_197391" data-name="Trazado 197391" d="M-187.958,161.7c-.766,0-1.532,0-2.3,0a1.109,1.109,0,0,1-1.21-1.06,1.078,1.078,0,0,1,1.155-1.11q2.355-.026,4.71,0a1.1,1.1,0,0,1,1.159,1.112,1.119,1.119,0,0,1-1.218,1.058C-186.427,161.707-187.193,161.7-187.958,161.7Z" transform="translate(217.383 -155.796)" fill="#12263f"/>
      <path id="Trazado_197392" data-name="Trazado 197392" d="M-188.024,290.445c-.791,0-1.583.009-2.374,0a1.091,1.091,0,0,1-1.084-.855,1.061,1.061,0,0,1,.536-1.165,1.491,1.491,0,0,1,.624-.146c1.557-.012,3.115-.021,4.672,0a1.077,1.077,0,0,1,1.111,1.4,1.09,1.09,0,0,1-1.111.767C-186.441,290.45-187.233,290.445-188.024,290.445Z" transform="translate(217.421 -274.65)" fill="#12263f"/>
      <path id="Trazado_197393" data-name="Trazado 197393" d="M-187.907,224c.766,0,1.532,0,2.3,0a1.1,1.1,0,0,1,1.169,1.063,1.085,1.085,0,0,1-1.132,1.093q-2.393.018-4.787,0a1.063,1.063,0,0,1-1.106-1.074,1.092,1.092,0,0,1,1.146-1.08C-189.515,224-188.711,224-187.907,224Z" transform="translate(217.381 -215.327)" fill="#12263f"/>
    </g>
  </g>
</svg>
