<svg xmlns="http://www.w3.org/2000/svg" xmlns:xlink="http://www.w3.org/1999/xlink" width="397.944" height="194.14" viewBox="0 0 397.944 194.14">
  <defs>
    <linearGradient id="linear-gradient" x1="0.5" x2="0.5" y2="1" gradientUnits="objectBoundingBox">
      <stop offset="0" stop-color="#50ffd2"/>
      <stop offset="0.068" stop-color="#4bf4d5"/>
      <stop offset="0.39" stop-color="#23a7ec"/>
      <stop offset="0.583" stop-color="#6fe1e6"/>
      <stop offset="1" stop-color="#0870fd"/>
    </linearGradient>
  </defs>
  <g id="_5990697" data-name="5990697" transform="translate(-82.897 4.189)">
    <path id="IBM_Cloud" data-name="IBM Cloud" d="M191.3,113.631v-6.006h8.348V59.879H191.3V53.873h23.924v6.006h-8.348v47.745h8.348v6.006Zm37.056-59.758H252.89c9.875,0,15.881,6.108,15.881,15.372s-5.7,12.114-9.671,12.623v.509c4.276.305,11.707,3.97,11.707,13.845s-6.617,17.306-15.372,17.306H228.356Zm7.126,25.858h16.492c5.6,0,9.06-2.952,9.06-8.246V68.533c0-5.294-3.461-8.246-9.06-8.246H235.482Zm0,27.588H253.2c6.21,0,9.875-3.258,9.875-9.264V95.1c0-6.006-3.767-9.264-9.875-9.264H235.482Zm95.083-43.978h-.407l-5.09,9.977-14.252,25.96-14.15-25.96-5.09-9.875h-.407v50.188h-7.024V53.873h9.366l17.1,32.169h.305l17.2-32.169h9.366v59.656h-7.024l.1-50.188h0ZM366.6,84.21c0-20.157,10.384-31.253,26.468-31.253,10.995,0,17.917,4.479,22.295,14.049l-11.2,5.8c-1.527-4.988-4.683-8.246-11.1-8.246-7.635,0-12.623,5.09-12.623,14.558v9.569c0,9.366,5.09,14.558,12.623,14.558,6.414,0,10.078-3.97,11.911-8.857l10.587,6.21c-4.479,9.06-11.5,14.252-22.5,14.252-16.085-.2-26.468-10.486-26.468-30.642Zm69.938,29.421c-8.653,0-12.623-4.378-12.623-12.318v-51h12.623v53.446h5.6v9.875Zm10.486-22.5c0-14.456,7.839-23.414,21.073-23.414s21.073,8.959,21.073,23.414-7.839,23.516-21.073,23.516S447.027,105.589,447.027,91.133Zm28.912,4.581V86.552c0-5.6-2.952-8.857-7.839-8.857s-7.839,3.258-7.839,8.857v9.162c0,5.6,2.952,8.857,7.839,8.857C472.986,104.672,475.939,101.415,475.939,95.714ZM524.6,106.1h-.407c-1.527,4.581-5.192,8.551-12.623,8.551-9.162,0-14.049-6.414-14.049-17.714v-28.2h12.623V95.816c0,5.5,1.833,8.551,6.414,8.551,3.97,0,7.941-2.24,7.941-6.515V68.634h12.624v44.895H524.5C524.6,113.631,524.6,106.1,524.6,106.1Zm52.021,0h-.407c-1.323,4.886-6.21,8.551-12.114,8.551-11.4,0-17.306-8.246-17.306-23.516s5.9-23.414,17.306-23.414c5.8,0,10.791,3.563,12.114,8.551h.407V50.31h12.623v63.321H576.621Zm0-8.348V84.516c0-4.072-3.461-6.617-8.246-6.617s-8.246,3.665-8.246,9.366V95c0,5.6,3.461,9.366,8.246,9.366S576.621,101.924,576.621,97.75Z" transform="translate(-108.402 75.098)" fill="#231f20"/>
    <g id="Layer_2" data-name="Layer 2" transform="translate(214.82 -4.19)">
      <g id="Grupo_1069276" data-name="Grupo 1069276" transform="translate(0)">
        <path id="Trazado_816053" data-name="Trazado 816053" d="M18.13,48.059a2.051,2.051,0,0,1-1.25-.357L4.733,40.646a2.623,2.623,0,0,1-1.25-3.215,2.512,2.512,0,0,1,3.3-1.518c.179.089.268.089.447.179l12.146,7.056a2.76,2.76,0,0,1,1.161,3.483A2.93,2.93,0,0,1,18.13,48.059ZM39.118,27.071a2.751,2.751,0,0,1-2.233-1.25L29.83,13.674a2.738,2.738,0,0,1,.536-3.394,2.654,2.654,0,0,1,3.662.268h0c.089.089.179.268.268.357l7.056,12.146a2.693,2.693,0,0,1-.714,3.572,3.011,3.011,0,0,1-1.518.447ZM65.287,16.621V2.778a2.8,2.8,0,0,1,2.5-2.769,2.591,2.591,0,0,1,2.679,2.5V16.8a2.592,2.592,0,0,1-2.59,2.59h-.089a2.8,2.8,0,0,1-2.5-2.769ZM96.635,27.071a2.471,2.471,0,0,1-1.429-.447,2.75,2.75,0,0,1-.714-3.572l7.056-12.146a2.546,2.546,0,0,1,3.483-.982c.089.089.268.179.357.268a2.738,2.738,0,0,1,.536,3.394L98.868,25.731A2.75,2.75,0,0,1,96.635,27.071Zm20.988,20.988a2.532,2.532,0,0,1-1.161-4.823l12.057-6.966a2.694,2.694,0,0,1,3.3.447,2.654,2.654,0,0,1-.268,3.662h0c-.089.089-.268.179-.357.268l-12.325,7.145A2.852,2.852,0,0,1,117.623,48.059ZM35.189,106.915a46.228,46.228,0,0,1,65.376-65.376,52.4,52.4,0,0,1,3.662,4.108c.8.982,1.518,2.054,2.233,3.126l-4.287,2.858a30.881,30.881,0,0,0-1.965-2.769A42.172,42.172,0,0,0,96.9,45.2a41.112,41.112,0,0,0-58.142,58.142l-3.572,3.572Zm65.644,13.575H29.651A29.846,29.846,0,0,1,0,90.393H5.18a24.738,24.738,0,0,0,24.561,24.918h71.092a30.171,30.171,0,0,0,22.507-50.282l3.84-3.394a35.335,35.335,0,0,1-2.769,49.925,35.856,35.856,0,0,1-23.578,8.931ZM5.18,90.393H0a29.865,29.865,0,0,1,24.918-29.2l.893,5.091A24.612,24.612,0,0,0,5.18,90.393Zm65.465-5.448h-5.18a35.3,35.3,0,0,1,61.625-23.31l-3.84,3.394a30.207,30.207,0,0,0-42.6-2.411,30.649,30.649,0,0,0-10,22.328Z" transform="translate(0.001 -0.005)" fill="url(#linear-gradient)"/>
      </g>
    </g>
  </g>
</svg>
