<svg id="Grupo_1065601" data-name="Grupo 1065601" xmlns="http://www.w3.org/2000/svg" xmlns:xlink="http://www.w3.org/1999/xlink" width="56.612" height="56.612" viewBox="0 0 56.612 56.612">
  <defs>
    <radialGradient id="radial-gradient" cx="0.076" cy="0.019" r="1.465" gradientTransform="translate(0.001)" gradientUnits="objectBoundingBox">
      <stop offset="0" stop-color="#f6f6f7"/>
      <stop offset="0.477" stop-color="#f9f9fa"/>
      <stop offset="0.715" stop-color="#fff"/>
    </radialGradient>
  </defs>
  <g id="Grupo_42274" data-name="Grupo 42274" transform="translate(0 0)">
    <g id="Grupo_18423" data-name="Grupo 18423" transform="translate(0 0)">
      <g id="Grupo_18421" data-name="Grupo 18421">
        <g id="Grupo_18420" data-name="Grupo 18420">
          <g id="Grupo_18419" data-name="Grupo 18419">
            <path id="Trazado_40936" data-name="Trazado 40936" d="M251.235,2174.026a28.306,28.306,0,1,1-28.306-28.305A28.305,28.305,0,0,1,251.235,2174.026Z" transform="translate(-194.623 -2145.721)" fill="#fff"/>
          </g>
        </g>
      </g>
      <path id="Trazado_40937" data-name="Trazado 40937" d="M251.366,2174.171a28.305,28.305,0,1,0-28.306,28.306A28.192,28.192,0,0,0,251.366,2174.171Z" transform="translate(-194.754 -2145.866)" fill="url(#radial-gradient)"/>
      <path id="Trazado_40938" data-name="Trazado 40938" d="M245.948,2175.459a21.606,21.606,0,1,0-21.606,21.606A21.525,21.525,0,0,0,245.948,2175.459Z" transform="translate(-195.951 -2147.06)" fill="none" stroke="#f95035" stroke-miterlimit="10" stroke-width="2"/>
      <g id="Grupo_18422" data-name="Grupo 18422" transform="translate(5.015 15.892)">
        <path id="Trazado_40939" data-name="Trazado 40939" d="M249.28,2164.488a28.309,28.309,0,0,1-48.735,28.188,28.219,28.219,0,0,0,48.735-28.188Z" transform="translate(-200.545 -2164.488)" fill="#eceef0"/>
      </g>
    </g>
  </g>
  <g id="boMHB4.tif" transform="translate(15.478 16.48)">
    <g id="Grupo_161617" data-name="Grupo 161617">
      <path id="Trazado_199748" data-name="Trazado 199748" d="M1024.116-1270.7v1.078c.231.1.449.2.676.278a.271.271,0,0,0,.224-.064c.216-.207.419-.429.65-.67.352.355.678.686,1.006,1.015.271.272.536.552.82.81a.461.461,0,0,0,.321.112,9.919,9.919,0,0,1,5.2.706,10.267,10.267,0,0,1,6.227,7.573,9.812,9.812,0,0,1,.044,3.735.334.334,0,0,0,.049.249,5.059,5.059,0,0,1,1.32,2.886.858.858,0,0,0,.026.095h1.225v.838h-1.2c-.138.5-.238.97-.4,1.421a4.382,4.382,0,0,1-1.4,1.946.635.635,0,0,0-.3.624,4.64,4.64,0,0,1,0,.541h.814v.837h-.8v1.642h-5.81v-1.624h-.8v-.839h.778v-.65c-.55.147-1.09.323-1.642.434a10.091,10.091,0,0,1-6.17-.641,10.236,10.236,0,0,1-3.782-2.818,10.253,10.253,0,0,1-2.328-5.048,9.983,9.983,0,0,1-.04-2.87.416.416,0,0,0-.151-.39c-.59-.58-1.174-1.165-1.791-1.779.229-.224.444-.443.67-.649a.2.2,0,0,0,.049-.28c-.1-.2-.178-.41-.27-.625h-1.077v-3.309a2.559,2.559,0,0,1,.449,0c.454.076.769-.044.853-.542.007-.04.049-.077.047-.114-.006-.086,0-.2-.052-.25-.212-.222-.442-.427-.657-.63l2.38-2.388a8.459,8.459,0,0,0,.633.661c.282.24.478-.136.734-.149.119-.006.176-.086.172-.223-.009-.308,0-.617,0-.925Zm0,12.413H1020.8c0-.318,0-.618,0-.918,0-.064-.032-.161-.078-.184-.209-.1-.427-.187-.644-.271a.133.133,0,0,0-.114.021.683.683,0,0,0-.306.491c-.014.616-.063,1.233-.052,1.848a8.214,8.214,0,0,0,.731,3.172,9.38,9.38,0,0,0,4.762,4.894,9.369,9.369,0,0,0,6.419.567c.243-.061.479-.149.732-.229-.039-.052-.052-.073-.07-.09a4.852,4.852,0,0,1-1.391-2.9c-.016-.147-.089-.173-.215-.171-.356.005-.712,0-1.067,0v-.85h1.239a4.909,4.909,0,0,1,2.834-4.054,4.869,4.869,0,0,1,4.91.348,8.872,8.872,0,0,0-.184-3.562,9.375,9.375,0,0,0-3.42-5.215,9.289,9.289,0,0,0-4.363-1.872,9.648,9.648,0,0,0-2.792-.017.405.405,0,0,0-.348.629,1.883,1.883,0,0,1,.129.325c.037.154.126.188.271.183.29-.009.579,0,.876,0v3.314a3.143,3.143,0,0,1-.464,0c-.432-.067-.745.031-.819.52a.241.241,0,0,1-.042.09.218.218,0,0,0,.054.324c.219.2.422.417.586.58l-2.356,2.363c-.18-.187-.377-.4-.588-.605a.275.275,0,0,0-.225-.076,6.933,6.933,0,0,0-.683.356c-.022.013,0,.1,0,.145C1024.114-1258.859,1024.114-1258.584,1024.114-1258.285Zm-2.483-.842h1.642v-.816l1.843-.765.511.562,1.189-1.188-.575-.51.761-1.838h.819v-1.628h-.379c-.481,0-.467-.005-.636-.455s-.37-.885-.578-1.375l.582-.513-1.2-1.207-.5.574c-.609-.234-1.153-.438-1.69-.657a.287.287,0,0,1-.14-.206c-.018-.229-.007-.46-.007-.7h-1.641c0,.242.01.474-.006.705a.265.265,0,0,1-.123.2c-.545.221-1.1.428-1.727.67l-.5-.6-1.206,1.206.6.5c-.242.631-.449,1.182-.67,1.727a.265.265,0,0,1-.2.124c-.231.016-.463.006-.7.006v1.642c.25,0,.483-.008.715.005a.241.241,0,0,1,.177.115c.221.554.429,1.112.675,1.757l-.578.5,1.194,1.19.508-.589c.608.231,1.152.433,1.69.65a.292.292,0,0,1,.141.212C1021.643-1259.6,1021.631-1259.362,1021.631-1259.127Zm16.131,11.592c0-.335.016-.652,0-.967a.589.589,0,0,1,.294-.591,4.048,4.048,0,0,0,1.684-4.275,4.106,4.106,0,0,0-5.578-2.938,4.083,4.083,0,0,0-2.556,4.328,4.049,4.049,0,0,0,1.869,2.975.334.334,0,0,1,.171.324c-.01.381,0,.762,0,1.142h1.642c0-.089.01-.162.01-.235,0-.961,0-1.922.005-2.883a.268.268,0,0,0-.215-.3,1.634,1.634,0,0,1-1.005-1.818,1.674,1.674,0,0,1,1.625-1.37,1.7,1.7,0,0,1,1.637,1.363,1.648,1.648,0,0,1-1.008,1.823.273.273,0,0,0-.209.306c.007.961,0,1.922,0,2.883,0,.073.009.146.015.232Zm-4.114,1.655h4.1v-.782h-4.1Zm2.871-6.61a.818.818,0,0,0-.815-.81.817.817,0,0,0-.816.833.821.821,0,0,0,.814.814A.823.823,0,0,0,1036.52-1252.49Z" transform="translate(-1016.245 1270.698)" fill="#12263f"/>
      <path id="Trazado_199749" data-name="Trazado 199749" d="M1109.467-1007.918l-.742,1.228-.714-.428,1.441-2.405,2.834,1.416-.374.746-1.605-.8a6.128,6.128,0,0,0,5.5,4.548v.825a6.931,6.931,0,0,1-3.99-1.555A7.074,7.074,0,0,1,1109.467-1007.918Z" transform="translate(-1103.401 1022.641)" fill="#12263f"/>
      <path id="Trazado_199750" data-name="Trazado 199750" d="M1283.81-1149.606l.267-.787,1.738.575a6.08,6.08,0,0,0-2.034-3.275,6.128,6.128,0,0,0-3.55-1.435v-.859a7.153,7.153,0,0,1,6.365,5.121l.721-1.191.716.427c-.454.757-.9,1.5-1.351,2.241a.206.206,0,0,1-.175.081C1285.613-1149,1284.722-1149.3,1283.81-1149.606Z" transform="translate(-1266.972 1161.179)" fill="#12263f"/>
      <path id="Trazado_199751" data-name="Trazado 199751" d="M1074.015-1209.616a3.3,3.3,0,0,1,3.316-3.3,3.307,3.307,0,0,1,3.306,3.316,3.316,3.316,0,0,1-3.344,3.307A3.307,3.307,0,0,1,1074.015-1209.616Zm4.977.419v-.842h.816l-.423-.99-.131-.04-.408.536-.672-.619.624-.508-1.069-.431v.82h-.828v-.823l-.995.418-.017.1.542.48-.626.652-.52-.658-.445,1.088h.816v.83h-.815l.416,1,.092.028.47-.595.632.644-.6.55,1.053.431v-.8h.839v.809l1-.42.044-.132-.574-.429.606-.631.511.575a2.088,2.088,0,0,0,.411-1.034Z" transform="translate(-1071.113 1215.821)" fill="#12263f"/>
      <path id="Trazado_199752" data-name="Trazado 199752" d="M1338.007-916.082h.807v.814h-.807Z" transform="translate(-1321.846 933.893)" fill="#12263f"/>
      <path id="Trazado_199753" data-name="Trazado 199753" d="M1434.436-959l-.528.534-.575-.571.582-.534Z" transform="translate(-1412.384 975.196)" fill="#12263f"/>
      <path id="Trazado_199754" data-name="Trazado 199754" d="M1395.717-972.959v-.811h.8v.811Z" transform="translate(-1376.657 988.684)" fill="#12263f"/>
      <path id="Trazado_199755" data-name="Trazado 199755" d="M1435.318-876.882l-.547.54-.519-.563.544-.515Z" transform="translate(-1413.256 897.174)" fill="#12263f"/>
      <path id="Trazado_199756" data-name="Trazado 199756" d="M1352.03-958.864l-.564-.558.577-.563.542.57Z" transform="translate(-1334.628 975.591)" fill="#12263f"/>
      <path id="Trazado_199757" data-name="Trazado 199757" d="M1352.457-877.974l.526-.553.543.566-.534.518Z" transform="translate(-1335.57 898.225)" fill="#12263f"/>
      <path id="Trazado_199758" data-name="Trazado 199758" d="M1453.457-916h.8v.814h-.8Z" transform="translate(-1431.497 933.812)" fill="#12263f"/>
    </g>
  </g>
</svg>
