<svg id="Grupo_1065608" data-name="Grupo 1065608" xmlns="http://www.w3.org/2000/svg" xmlns:xlink="http://www.w3.org/1999/xlink" width="56.612" height="56.612" viewBox="0 0 56.612 56.612">
  <defs>
    <radialGradient id="radial-gradient" cx="0.076" cy="0.019" r="1.465" gradientTransform="translate(0.001)" gradientUnits="objectBoundingBox">
      <stop offset="0" stop-color="#f6f6f7"/>
      <stop offset="0.477" stop-color="#f9f9fa"/>
      <stop offset="0.715" stop-color="#fff"/>
    </radialGradient>
  </defs>
  <g id="Grupo_42274" data-name="Grupo 42274" transform="translate(0 0)">
    <g id="Grupo_18423" data-name="Grupo 18423" transform="translate(0 0)">
      <g id="Grupo_18421" data-name="Grupo 18421">
        <g id="Grupo_18420" data-name="Grupo 18420">
          <g id="Grupo_18419" data-name="Grupo 18419">
            <path id="Trazado_40936" data-name="Trazado 40936" d="M251.235,2174.026a28.306,28.306,0,1,1-28.306-28.305A28.305,28.305,0,0,1,251.235,2174.026Z" transform="translate(-194.623 -2145.721)" fill="#fff"/>
          </g>
        </g>
      </g>
      <path id="Trazado_40937" data-name="Trazado 40937" d="M251.366,2174.171a28.305,28.305,0,1,0-28.306,28.306A28.192,28.192,0,0,0,251.366,2174.171Z" transform="translate(-194.754 -2145.866)" fill="url(#radial-gradient)"/>
      <path id="Trazado_40938" data-name="Trazado 40938" d="M245.948,2175.459a21.606,21.606,0,1,0-21.606,21.606A21.525,21.525,0,0,0,245.948,2175.459Z" transform="translate(-195.951 -2147.06)" fill="none" stroke="#f95035" stroke-miterlimit="10" stroke-width="2"/>
      <g id="Grupo_18422" data-name="Grupo 18422" transform="translate(5.015 15.892)">
        <path id="Trazado_40939" data-name="Trazado 40939" d="M249.28,2164.488a28.309,28.309,0,0,1-48.735,28.188,28.219,28.219,0,0,0,48.735-28.188Z" transform="translate(-200.545 -2164.488)" fill="#eceef0"/>
      </g>
    </g>
  </g>
  <g id="Grupo_1065629" data-name="Grupo 1065629" transform="translate(15.479 16.479)">
    <path id="Trazado_199784" data-name="Trazado 199784" d="M1016.245-3634.391v-2.5h.8v-11.975h-.8v-2.5h19.017v2.5h-.792v7.424c.724,0,1.432-.013,2.14,0a2.869,2.869,0,0,1,2.785,2.638c.044.632.036,1.268.024,1.9a3.7,3.7,0,0,1-1.252,2.791,1.083,1.083,0,0,0-.1.141,6.76,6.76,0,0,1,.949.006,3.294,3.294,0,0,1,2.879,3.362q0,2.442,0,4.884h-9.921v-4.553h-.307c-1.152,0-2.3,0-3.456,0a.324.324,0,0,1-.342-.21c-.607-1.232-1.229-2.458-1.834-3.691a.357.357,0,0,0-.38-.232q-4.582.01-9.165,0C1016.411-3634.4,1016.328-3634.394,1016.245-3634.391Zm1.672-14.477v11.96h6.747c-.105-.212-.214-.4-.291-.6a.305.305,0,0,0-.344-.208c-1.686.005-3.373,0-5.059.007-.2,0-.257-.052-.255-.252.009-1.085,0-2.17.005-3.256,0-.073.01-.146.015-.222h5.8v1.78a.4.4,0,0,0,.078-.04,1.714,1.714,0,0,1,2.8.534c.343.695.729,1.368,1.086,2.055a.33.33,0,0,0,.341.215c.96-.011,1.92,0,2.88-.005.08,0,.16-.008.265-.015,0-.606-.02-1.19,0-1.772a2.764,2.764,0,0,1,1.42-2.355.39.39,0,0,0,.227-.387c-.008-2.387-.005-4.775-.005-7.162v-.281Zm12.416,17.769h2.471v4.523h5.791v-4.1h.835v1.628h1.62c0-.6.025-1.194-.006-1.783a2.358,2.358,0,0,0-1.427-2.1,5.787,5.787,0,0,0-.911-.265l.365,1.484a.3.3,0,0,1-.052.044c-1.078.463-2.157.927-3.238,1.384a.335.335,0,0,1-.231-.017c-1.019-.432-2.035-.874-3.056-1.3-.161-.067-.183-.146-.14-.3.111-.407.2-.818.311-1.25h-2.333Zm-.856-.008c0-.792,0-1.542,0-2.293a.481.481,0,0,0-.064-.21q-1.392-2.614-2.794-5.223a1.187,1.187,0,0,0-.381-.415.844.844,0,0,0-1.017.113.94.94,0,0,0-.161,1.13q1.679,3.376,3.372,6.746a.271.271,0,0,0,.172.145C1028.883-3631.1,1029.165-3631.107,1029.477-3631.107Zm3.349-5.789a2.876,2.876,0,0,0,2.9,2.9,2.868,2.868,0,0,0,2.834-2.936,2.863,2.863,0,0,1-1.7-.97,2.925,2.925,0,0,1-2.546,1.015C1033.829-3636.917,1033.336-3636.9,1032.826-3636.9Zm-15.731-12.841h17.33v-.779H1017.1Zm21.494,11.943c0-.262.009-.5,0-.728a2.075,2.075,0,0,0-2.181-2.087c-.5,0-1-.025-1.5.009a2.527,2.527,0,0,0-.938.211,2.291,2.291,0,0,0-1.133,2.657c.563,0,1.13-.016,1.695,0a2.111,2.111,0,0,0,1.7-.7c.244-.26.5-.509.771-.782C1037.4-3638.585,1037.765-3637.949,1038.589-3637.793Zm-19.024-.765h4.1v-2.036h-4.1Zm-2.47,3.3h8.392c-.1-.208-.2-.389-.279-.578a.325.325,0,0,0-.357-.227q-3.745.011-7.49,0h-.267Zm23.941,8.685v-1.607h-1.589v1.607Zm-8.981-9.47h-2.989c.133.25.248.479.376.7a.212.212,0,0,0,.15.094c.907.006,1.814,0,2.744,0Zm1.256,2.043a.81.81,0,0,0-.785-.412c-.758.028-1.519.009-2.278.009h-.274c.068.3.2.427.506.412.566-.028,1.135-.008,1.7-.008Zm1.519.847.863,1.292.862-1.292Zm.041,1.655.03-.036c-.344-.517-.685-1.037-1.038-1.547a.3.3,0,0,0-.237-.077c-.046,0-.11.088-.127.147-.075.271-.136.546-.206.836Zm1.616-.043.034.041,1.574-.676c-.071-.289-.13-.556-.206-.818-.019-.066-.087-.157-.141-.163a.287.287,0,0,0-.233.084C1037.164-3632.565,1036.827-3632.05,1036.487-3631.539Z" transform="translate(-1016.245 3651.376)" fill="#12263f"/>
    <path id="Trazado_199785" data-name="Trazado 199785" d="M1071.12-3580.456l-.639.636c-.148-.172-.292-.355-.456-.519a.268.268,0,0,0-.227-.051c-.2.065-.382.159-.6.252v.838h-.834v-.834c-.223-.1-.417-.191-.62-.262a.245.245,0,0,0-.208.046c-.17.159-.323.334-.5.517l-.573-.632.574-.545-.32-.769h-.833v-.832c.235,0,.458-.007.681,0a.193.193,0,0,0,.231-.168.4.4,0,0,1,.054-.165c.263-.327.094-.548-.173-.75-.086-.066-.168-.137-.264-.216l.676-.6.509.576c.24-.1.444-.166.637-.259a.252.252,0,0,0,.113-.181c.014-.224.005-.45.005-.7h.842c0,.229.006.453,0,.676-.005.13.034.206.17.224a.282.282,0,0,1,.142.044c.343.289.577.105.788-.178.065-.087.127-.176.18-.249l.646.624-.609.555c.1.246.164.451.26.642a.29.29,0,0,0,.212.114c.215.015.431.005.666.005v.833c-.219,0-.434.007-.648,0a.209.209,0,0,0-.252.172c-.056.189-.147.369-.243.6Zm-3.571-1.737a1.219,1.219,0,0,0,1.237,1.233,1.238,1.238,0,0,0,1.227-1.227,1.256,1.256,0,0,0-1.245-1.242A1.236,1.236,0,0,0,1067.549-3582.193Z" transform="translate(-1063.398 3588.396)" fill="#12263f"/>
    <path id="Trazado_199786" data-name="Trazado 199786" d="M1200.279-3500.238h-2.455v-2.451h2.455Zm-1.625-1.633v.816c.238,0,.462.006.684-.005a.171.171,0,0,0,.12-.114c.012-.229.005-.46.005-.7Z" transform="translate(-1188.708 3510.153)" fill="#12263f"/>
    <path id="Trazado_199787" data-name="Trazado 199787" d="M1197.789-3582.241v-.833c.389,0,.769-.01,1.149,0a.426.426,0,0,0,.425-.222c.451-.7.923-1.387,1.379-2.084a.33.33,0,0,1,.318-.178c.55.01,1.1,0,1.67,0v.841c-.372,0-.753.015-1.132-.006a.457.457,0,0,0-.461.25c-.446.694-.913,1.374-1.366,2.063a.313.313,0,0,1-.3.166C1198.915-3582.246,1198.359-3582.241,1197.789-3582.241Z" transform="translate(-1188.675 3588.859)" fill="#12263f"/>
    <path id="Trazado_199788" data-name="Trazado 199788" d="M1314.832-3584.265H1313.2v-.806h1.628Z" transform="translate(-1298.296 3588.4)" fill="#12263f"/>
    <path id="Trazado_199789" data-name="Trazado 199789" d="M1263.778-3485.558v-.814h1.627v.814Z" transform="translate(-1251.351 3494.656)" fill="#12263f"/>
    <path id="Trazado_199790" data-name="Trazado 199790" d="M1314.844-3486.2v.806h-1.629v-.806Z" transform="translate(-1298.307 3494.493)" fill="#12263f"/>
  </g>
</svg>
