<svg xmlns="http://www.w3.org/2000/svg" xmlns:xlink="http://www.w3.org/1999/xlink" width="309.9" height="47" viewBox="0 0 309.9 47">
  <defs>
    <clipPath id="clip-path">
      <rect id="Rectángulo_374492" data-name="Rectángulo 374492" width="49" height="47" fill="none" stroke="#707070" stroke-width="1"/>
    </clipPath>
  </defs>
  <g id="Grupo_1070271" data-name="Grupo 1070271" transform="translate(-180 -4480.766)">
    <rect id="Rectángulo_374489" data-name="Rectángulo 374489" width="290.396" height="39" rx="19.5" transform="translate(180 4488.594)" fill="#083142"/>
    <g id="Enmascarar_grupo_1067927" data-name="Enmascarar grupo 1067927" transform="translate(440.9 4480.766)" clip-path="url(#clip-path)">
      <g id="Grupo_1070258" data-name="Grupo 1070258" transform="translate(-3.775 -3.529)">
        <rect id="Rectángulo_374490" data-name="Rectángulo 374490" width="24.699" height="51.752" rx="12.349" transform="translate(36.594) rotate(45)" fill="#ff6148"/>
        <rect id="Rectángulo_374491" data-name="Rectángulo 374491" width="15.615" height="32.719" rx="7.808" transform="translate(43.912 14.927) rotate(45)" fill="#ffb476"/>
      </g>
    </g>
    <path id="Trazado_816872" data-name="Trazado 816872" d="M7.725.283a7.369,7.369,0,0,1,3.5.781A5.1,5.1,0,0,1,13.838,5H11.914a3.494,3.494,0,0,0-1.455-2.29,5.008,5.008,0,0,0-2.783-.718A4.362,4.362,0,0,0,4.321,3.486,6.412,6.412,0,0,0,2.959,7.939,7.116,7.116,0,0,0,4.082,12.1a4.152,4.152,0,0,0,3.662,1.606,4.676,4.676,0,0,0,3.218-1.128,4.722,4.722,0,0,0,1.3-3.647H7.773V7.324h6.3V15h-1.25l-.469-1.846a7.368,7.368,0,0,1-1.748,1.5,6.552,6.552,0,0,1-3.252.723,6.336,6.336,0,0,1-4.385-1.65,7.832,7.832,0,0,1-2-5.684A8.151,8.151,0,0,1,2.92,2.314,6.208,6.208,0,0,1,7.725.283ZM21.2,4.307a4.771,4.771,0,0,1,2.158.522,3.98,3.98,0,0,1,1.592,1.353,4.666,4.666,0,0,1,.7,1.846,12.076,12.076,0,0,1,.156,2.3H18.145a4.473,4.473,0,0,0,.752,2.554,2.518,2.518,0,0,0,2.178.962,2.815,2.815,0,0,0,2.2-.908,3.062,3.062,0,0,0,.664-1.221h1.729A3.64,3.64,0,0,1,25.21,13a4.567,4.567,0,0,1-.864,1.157,4.1,4.1,0,0,1-1.982,1.055,6.022,6.022,0,0,1-1.436.156,4.4,4.4,0,0,1-3.311-1.421A5.529,5.529,0,0,1,16.26,9.971a6.011,6.011,0,0,1,1.367-4.092A4.51,4.51,0,0,1,21.2,4.307ZM24,8.936a4.554,4.554,0,0,0-.5-1.826,2.553,2.553,0,0,0-2.412-1.27,2.674,2.674,0,0,0-2.031.874,3.3,3.3,0,0,0-.869,2.222Zm5.01,2.783a2.556,2.556,0,0,0,.439,1.348,2.762,2.762,0,0,0,2.3.85,3.4,3.4,0,0,0,1.719-.425,1.411,1.411,0,0,0,.742-1.313,1.123,1.123,0,0,0-.6-1.025,7.082,7.082,0,0,0-1.5-.5l-1.4-.352a6.812,6.812,0,0,1-1.973-.742,2.218,2.218,0,0,1-1.133-1.973,3.014,3.014,0,0,1,1.069-2.4,4.266,4.266,0,0,1,2.876-.918,3.992,3.992,0,0,1,3.408,1.387,3.009,3.009,0,0,1,.635,1.895h-1.66a2.034,2.034,0,0,0-.42-1.084,2.678,2.678,0,0,0-2.1-.693,2.51,2.51,0,0,0-1.509.381A1.194,1.194,0,0,0,29.4,7.158a1.238,1.238,0,0,0,.674,1.094,4.049,4.049,0,0,0,1.152.43l1.162.283a8.985,8.985,0,0,1,2.539.889,2.353,2.353,0,0,1,1.025,2.119,3.229,3.229,0,0,1-1.06,2.412A4.51,4.51,0,0,1,31.67,15.4a4.33,4.33,0,0,1-3.306-1.06,4.007,4.007,0,0,1-1.04-2.622Zm9.307-10.1H40.1v2.92h1.67V5.977H40.1V12.8a.739.739,0,0,0,.371.732,1.577,1.577,0,0,0,.684.107q.127,0,.273,0t.342-.024V15a3.924,3.924,0,0,1-.63.127,5.988,5.988,0,0,1-.708.039,1.908,1.908,0,0,1-1.67-.63A2.8,2.8,0,0,1,38.32,12.9V5.977H36.9V4.541H38.32ZM43.525,4.59h1.787V15H43.525Zm0-3.936h1.787V2.646H43.525Zm8.594,13.213a2.424,2.424,0,0,0,2.4-1.323A6.592,6.592,0,0,0,55.166,9.6,5.242,5.242,0,0,0,54.7,7.217a2.637,2.637,0,0,0-2.559-1.445A2.523,2.523,0,0,0,49.795,7a5.7,5.7,0,0,0-.732,2.969,4.961,4.961,0,0,0,.732,2.783A2.58,2.58,0,0,0,52.119,13.867Zm.068-9.629a4.736,4.736,0,0,1,3.418,1.348A5.263,5.263,0,0,1,57,9.551a6.8,6.8,0,0,1-1.23,4.18,4.451,4.451,0,0,1-3.818,1.65,4.311,4.311,0,0,1-3.428-1.46A5.767,5.767,0,0,1,47.256,10a6.239,6.239,0,0,1,1.338-4.2A4.49,4.49,0,0,1,52.188,4.238ZM54.229.332,51.621,3.154H50.273L52.061.332Zm4.863,4.209h1.67V6.025a4.684,4.684,0,0,1,1.572-1.318,4.193,4.193,0,0,1,1.846-.4,3.043,3.043,0,0,1,3.008,1.553,5.514,5.514,0,0,1,.43,2.432V15H65.83V8.408a3.569,3.569,0,0,0-.283-1.543,1.717,1.717,0,0,0-1.7-.977,3.46,3.46,0,0,0-1.025.127,2.641,2.641,0,0,0-1.27.859,2.587,2.587,0,0,0-.571,1.069,7.2,7.2,0,0,0-.132,1.577V15H59.092ZM76.885,9.893a5.184,5.184,0,0,0,.713,2.813,2.5,2.5,0,0,0,2.285,1.133,2.407,2.407,0,0,0,2.007-1.05,4.958,4.958,0,0,0,.786-3.013,4.455,4.455,0,0,0-.811-2.935,2.528,2.528,0,0,0-2-.952A2.643,2.643,0,0,0,77.71,6.9,4.652,4.652,0,0,0,76.885,9.893Zm2.646-5.537a3.721,3.721,0,0,1,2.012.508,4.725,4.725,0,0,1,1.064,1.025V.605H84.3V15H82.715V13.545a3.8,3.8,0,0,1-1.455,1.4,4.165,4.165,0,0,1-1.924.43,3.9,3.9,0,0,1-3.027-1.47A5.746,5.746,0,0,1,75.029,9.99,6.752,6.752,0,0,1,76.2,6.03,3.821,3.821,0,0,1,79.531,4.355ZM91.25,4.307a4.771,4.771,0,0,1,2.158.522A3.98,3.98,0,0,1,95,6.182a4.666,4.666,0,0,1,.7,1.846,12.076,12.076,0,0,1,.156,2.3H88.193a4.473,4.473,0,0,0,.752,2.554,2.518,2.518,0,0,0,2.178.962,2.815,2.815,0,0,0,2.2-.908,3.062,3.062,0,0,0,.664-1.221h1.729A3.64,3.64,0,0,1,95.259,13a4.568,4.568,0,0,1-.864,1.157,4.1,4.1,0,0,1-1.982,1.055,6.022,6.022,0,0,1-1.436.156,4.4,4.4,0,0,1-3.311-1.421,5.529,5.529,0,0,1-1.357-3.979,6.011,6.011,0,0,1,1.367-4.092A4.51,4.51,0,0,1,91.25,4.307Zm2.8,4.629a4.554,4.554,0,0,0-.5-1.826,2.553,2.553,0,0,0-2.412-1.27,2.674,2.674,0,0,0-2.031.874,3.3,3.3,0,0,0-.869,2.222Zm9.57-8.281h1.758V15h-1.758Zm5.742,11.563a1.448,1.448,0,0,0,.557,1.2,2.064,2.064,0,0,0,1.318.439,4.008,4.008,0,0,0,1.8-.43,2.418,2.418,0,0,0,1.465-2.334V9.678a3.007,3.007,0,0,1-.83.342,7.073,7.073,0,0,1-1,.2l-1.064.137a4.071,4.071,0,0,0-1.436.4A1.56,1.56,0,0,0,109.365,12.217Zm4.258-3.555a.955.955,0,0,0,.811-.508,1.545,1.545,0,0,0,.117-.674,1.428,1.428,0,0,0-.64-1.3,3.432,3.432,0,0,0-1.831-.405,2.327,2.327,0,0,0-1.953.742,2.442,2.442,0,0,0-.42,1.221h-1.641a3.02,3.02,0,0,1,1.255-2.69,5.152,5.152,0,0,1,2.8-.757,5.693,5.693,0,0,1,3,.7,2.385,2.385,0,0,1,1.143,2.188V13.2a.771.771,0,0,0,.112.439.542.542,0,0,0,.474.166q.117,0,.264-.015t.313-.044v1.3a4.9,4.9,0,0,1-.625.146,4.567,4.567,0,0,1-.586.029,1.446,1.446,0,0,1-1.318-.645,2.487,2.487,0,0,1-.3-.967,4.472,4.472,0,0,1-1.543,1.221,4.773,4.773,0,0,1-2.217.518,3.3,3.3,0,0,1-2.378-.884,2.936,2.936,0,0,1-.923-2.212A2.849,2.849,0,0,1,108.438,10a4.321,4.321,0,0,1,2.383-.986ZM128.73,4.238a4.56,4.56,0,0,1,2.876.859,4.117,4.117,0,0,1,1.333,2.959H131.23a3.155,3.155,0,0,0-.713-1.606,2.252,2.252,0,0,0-1.787-.64,2.469,2.469,0,0,0-2.4,1.641,6.517,6.517,0,0,0-.469,2.627,4.943,4.943,0,0,0,.664,2.646,2.574,2.574,0,0,0,3.823.405,3.678,3.678,0,0,0,.884-1.831h1.709a4.587,4.587,0,0,1-1.465,3.042,4.57,4.57,0,0,1-3,.962,4,4,0,0,1-3.271-1.5,5.737,5.737,0,0,1-1.221-3.745,6.309,6.309,0,0,1,1.338-4.287A4.323,4.323,0,0,1,128.73,4.238Zm10.117,9.629a2.424,2.424,0,0,0,2.4-1.323,6.592,6.592,0,0,0,.649-2.944,5.242,5.242,0,0,0-.469-2.383,2.637,2.637,0,0,0-2.559-1.445A2.523,2.523,0,0,0,136.523,7a5.7,5.7,0,0,0-.732,2.969,4.961,4.961,0,0,0,.732,2.783A2.58,2.58,0,0,0,138.848,13.867Zm.068-9.629a4.736,4.736,0,0,1,3.418,1.348,5.263,5.263,0,0,1,1.4,3.965,6.8,6.8,0,0,1-1.23,4.18,4.451,4.451,0,0,1-3.818,1.65,4.311,4.311,0,0,1-3.428-1.46A5.767,5.767,0,0,1,133.984,10a6.239,6.239,0,0,1,1.338-4.2A4.49,4.49,0,0,1,138.916,4.238Zm6.9.3h1.67V6.025a4.684,4.684,0,0,1,1.572-1.318,4.193,4.193,0,0,1,1.846-.4,3.043,3.043,0,0,1,3.008,1.553,5.514,5.514,0,0,1,.43,2.432V15h-1.787V8.408a3.569,3.569,0,0,0-.283-1.543,1.717,1.717,0,0,0-1.7-.977,3.46,3.46,0,0,0-1.025.127,2.641,2.641,0,0,0-1.27.859,2.587,2.587,0,0,0-.571,1.069,7.2,7.2,0,0,0-.132,1.577V15H145.82Zm11.475-2.92h1.777v2.92h1.67V5.977h-1.67V12.8a.739.739,0,0,0,.371.732,1.577,1.577,0,0,0,.684.107q.127,0,.273,0t.342-.024V15a3.924,3.924,0,0,1-.63.127,5.988,5.988,0,0,1-.708.039,1.908,1.908,0,0,1-1.67-.63,2.8,2.8,0,0,1-.439-1.636V5.977h-1.416V4.541h1.416ZM162.5,4.59h1.787V15H162.5Zm0-3.936h1.787V2.646H162.5Zm4.443,3.887h1.67V6.025a4.684,4.684,0,0,1,1.572-1.318,4.193,4.193,0,0,1,1.846-.4,3.043,3.043,0,0,1,3.008,1.553,5.514,5.514,0,0,1,.43,2.432V15h-1.787V8.408a3.569,3.569,0,0,0-.283-1.543,1.717,1.717,0,0,0-1.7-.977,3.46,3.46,0,0,0-1.025.127,2.641,2.641,0,0,0-1.27.859,2.587,2.587,0,0,0-.571,1.069,7.2,7.2,0,0,0-.132,1.577V15h-1.758Zm12.881,0v6.943a2.928,2.928,0,0,0,.254,1.309,1.772,1.772,0,0,0,1.748.938,2.471,2.471,0,0,0,2.5-1.641,6.509,6.509,0,0,0,.361-2.412V4.541h1.758V15h-1.66l.02-1.543a3.546,3.546,0,0,1-.85,1.006,3.739,3.739,0,0,1-2.441.82,3.149,3.149,0,0,1-3.047-1.494,4.45,4.45,0,0,1-.439-2.139V4.541Zm9.365.049h1.787V15h-1.787Zm0-3.936h1.787V2.646h-1.787Zm5.557,9.238a5.184,5.184,0,0,0,.713,2.813,2.5,2.5,0,0,0,2.285,1.133,2.407,2.407,0,0,0,2.007-1.05,4.958,4.958,0,0,0,.786-3.013,4.455,4.455,0,0,0-.811-2.935,2.528,2.528,0,0,0-2-.952A2.643,2.643,0,0,0,195.571,6.9,4.652,4.652,0,0,0,194.746,9.893Zm2.646-5.537a3.721,3.721,0,0,1,2.012.508,4.726,4.726,0,0,1,1.064,1.025V.605h1.689V15h-1.582V13.545a3.8,3.8,0,0,1-1.455,1.4,4.165,4.165,0,0,1-1.924.43,3.9,3.9,0,0,1-3.027-1.47,5.746,5.746,0,0,1-1.279-3.911,6.751,6.751,0,0,1,1.167-3.96A3.821,3.821,0,0,1,197.393,4.355Zm8.711,7.861a1.448,1.448,0,0,0,.557,1.2,2.064,2.064,0,0,0,1.318.439,4.008,4.008,0,0,0,1.8-.43,2.418,2.418,0,0,0,1.465-2.334V9.678a3.007,3.007,0,0,1-.83.342,7.074,7.074,0,0,1-1,.2l-1.064.137a4.071,4.071,0,0,0-1.436.4A1.56,1.56,0,0,0,206.1,12.217Zm4.258-3.555a.955.955,0,0,0,.811-.508,1.545,1.545,0,0,0,.117-.674,1.428,1.428,0,0,0-.64-1.3,3.432,3.432,0,0,0-1.831-.405,2.327,2.327,0,0,0-1.953.742,2.442,2.442,0,0,0-.42,1.221H204.8a3.02,3.02,0,0,1,1.255-2.69,5.152,5.152,0,0,1,2.8-.757,5.693,5.693,0,0,1,3,.7A2.385,2.385,0,0,1,213,7.178V13.2a.771.771,0,0,0,.112.439.542.542,0,0,0,.474.166q.117,0,.264-.015t.313-.044v1.3a4.9,4.9,0,0,1-.625.146,4.567,4.567,0,0,1-.586.029,1.446,1.446,0,0,1-1.318-.645,2.487,2.487,0,0,1-.3-.967,4.472,4.472,0,0,1-1.543,1.221,4.773,4.773,0,0,1-2.217.518,3.3,3.3,0,0,1-2.378-.884,2.936,2.936,0,0,1-.923-2.212A2.849,2.849,0,0,1,205.176,10a4.321,4.321,0,0,1,2.383-.986Zm6.631,1.23a5.184,5.184,0,0,0,.713,2.813,2.5,2.5,0,0,0,2.285,1.133A2.407,2.407,0,0,0,222,12.788a4.958,4.958,0,0,0,.786-3.013,4.455,4.455,0,0,0-.811-2.935,2.528,2.528,0,0,0-2-.952A2.643,2.643,0,0,0,217.817,6.9,4.652,4.652,0,0,0,216.992,9.893Zm2.646-5.537a3.721,3.721,0,0,1,2.012.508,4.726,4.726,0,0,1,1.064,1.025V.605H224.4V15h-1.582V13.545a3.8,3.8,0,0,1-1.455,1.4,4.165,4.165,0,0,1-1.924.43,3.9,3.9,0,0,1-3.027-1.47,5.746,5.746,0,0,1-1.279-3.911A6.751,6.751,0,0,1,216.3,6.03,3.821,3.821,0,0,1,219.639,4.355Z" transform="translate(204.996 4499.595)" fill="#fff"/>
  </g>
</svg>
