<svg xmlns="http://www.w3.org/2000/svg" width="93.625" height="93.625" viewBox="0 0 93.625 93.625">
  <g id="Fill_out_line" data-name="Fill out line" transform="translate(-16 -16)">
    <path id="Trazado_599660" data-name="Trazado 599660" d="M295.015,47.4a23.382,23.382,0,1,1-17.488-22.651A23.382,23.382,0,0,1,295.015,47.4Z" transform="translate(-186.951 -6.433)" fill="#8acce7"/>
    <path id="Trazado_599661" data-name="Trazado 599661" d="M397.846,50.521a23.334,23.334,0,0,1-7.656,17.311l-3.267-3.267,1.56-4.681L382.242,55.2l3.121-3.121V45.84h-4.681L376,38.038l4.357-10.168A23.417,23.417,0,0,1,397.846,50.521Z" transform="translate(-289.781 -9.555)" fill="#4ba477"/>
    <path id="Trazado_599662" data-name="Trazado 599662" d="M257.362,68.082l7.8,3.121-1.56,3.121h-6.242l-2.709,5.419A23.4,23.4,0,0,1,258.5,43.87l8.221,7.047-3.121,7.8L255.8,55.6l-1.56,4.681,3.121,1.56Z" transform="translate(-186.748 -22.434)" fill="#4ba477"/>
    <rect id="Rect치ngulo_44855" data-name="Rect치ngulo 44855" width="46.996" height="33.778" transform="translate(17.469 61.527)" fill="#ff6148"/>
    <path id="Trazado_599663" data-name="Trazado 599663" d="M70.812,392v1.56a4.682,4.682,0,0,1-4.681,4.681H28.681A4.682,4.682,0,0,1,24,393.56V392Z" transform="translate(-6.44 -302.66)" fill="#396795"/>
    <path id="Trazado_599664" data-name="Trazado 599664" d="M104,431.8l.786-.524a8.747,8.747,0,0,0,3.9-7.278h6.242a8.747,8.747,0,0,0,3.9,7.278l.786.524Z" transform="translate(-70.835 -328.419)" fill="#26507a"/>
    <rect id="Rect치ngulo_44856" data-name="Rect치ngulo 44856" width="24.967" height="4.406" rx="2.203" transform="translate(28.483 103.383)" fill="#396795"/>
    <ellipse id="Elipse_5055" data-name="Elipse 5055" cx="9.546" cy="9.179" rx="9.546" ry="9.179" transform="translate(31.421 65.933)" fill="#eedc9a"/>
    <path id="Trazado_599665" data-name="Trazado 599665" d="M128,296v9.362l7.8-4.681Z" transform="translate(-90.154 -225.385)" fill="#e44b4d"/>
    <path id="Trazado_599666" data-name="Trazado 599666" d="M109.625,40.967A24.967,24.967,0,1,0,83.1,65.883V92.46a1.562,1.562,0,0,1-1.56,1.56H72.175a4.681,4.681,0,1,0,0,9.362h4.681a1.56,1.56,0,0,1,0,3.121h-15.6a1.562,1.562,0,0,1-1.56-1.56v-7.8A6.249,6.249,0,0,0,65.933,90.9V65.933a6.249,6.249,0,0,0-6.242-6.242H22.242A6.249,6.249,0,0,0,16,65.933V90.9a6.249,6.249,0,0,0,6.242,6.242h13.87a7.167,7.167,0,0,1-3.026,4.419l-.393.262H30.824a3.9,3.9,0,0,0,0,7.8H51.109a3.9,3.9,0,1,0,0-7.8H49.241l-.393-.262a7.167,7.167,0,0,1-3.026-4.419H56.571v7.8a4.687,4.687,0,0,0,4.681,4.681h15.6a4.681,4.681,0,1,0,0-9.362H72.175a1.56,1.56,0,1,1,0-3.121h9.362a4.687,4.687,0,0,0,4.681-4.681V65.883A25,25,0,0,0,109.625,40.967ZM22.242,62.812h37.45a3.124,3.124,0,0,1,3.121,3.121V87.779H19.121V65.933a3.124,3.124,0,0,1,3.121-3.121ZM19.121,90.9H62.812a3.124,3.124,0,0,1-3.121,3.121H22.242A3.124,3.124,0,0,1,19.121,90.9ZM51.89,105.724a.781.781,0,0,1-.78.78H30.824a.78.78,0,0,1,0-1.56H51.109A.781.781,0,0,1,51.89,105.724Zm-7.255-3.9H37.3a10.269,10.269,0,0,0,1.985-4.681H42.65a10.269,10.269,0,0,0,1.985,4.681ZM106.5,40.967a21.77,21.77,0,0,1-6.086,15.113l-1.491-1.491,1.255-3.766a1.561,1.561,0,0,0-.544-1.742l-4.8-3.6,1.849-1.849a1.561,1.561,0,0,0,.457-1.1V36.285a1.56,1.56,0,0,0-1.56-1.56h-3.8l-3.816-6.36,3.5-8.157A21.884,21.884,0,0,1,106.5,40.967ZM88.4,19.442l-3.611,8.427a1.56,1.56,0,0,0,.1,1.418l4.681,7.8a1.561,1.561,0,0,0,1.338.758h3.121v4.035l-2.664,2.664a1.56,1.56,0,0,0,.167,2.352L96.866,50.9l-1.2,3.614a1.561,1.561,0,0,0,.377,1.6L98.1,58.176a21.8,21.8,0,0,1-28.286-1.2l1.764-3.529h5.277a1.56,1.56,0,0,0,1.4-.863l1.56-3.121A1.56,1.56,0,0,0,79,47.32l-6.821-2.728V39.406a1.56,1.56,0,0,0-.863-1.4l-1.91-.955.609-1.827,6.266,2.506a1.561,1.561,0,0,0,2.028-.869l3.121-7.8a1.56,1.56,0,0,0-.433-1.764L74.426,21.67A21.834,21.834,0,0,1,88.4,19.442ZM71.666,23.415l6.447,5.526-2.126,5.316-6.353-2.541a1.56,1.56,0,0,0-2.06.955l-1.56,4.681a1.56,1.56,0,0,0,.782,1.889l2.258,1.129v5.277a1.56,1.56,0,0,0,.981,1.449l6.228,2.491-.371.741H70.615a1.56,1.56,0,0,0-1.4.863l-1.671,3.341a21.814,21.814,0,0,1,4.118-31.118Z"/>
    <path id="Trazado_599667" data-name="Trazado 599667" d="M98.923,285.846A10.923,10.923,0,1,0,88,274.923,10.923,10.923,0,0,0,98.923,285.846Zm0-18.725a7.8,7.8,0,1,1-7.8,7.8A7.8,7.8,0,0,1,98.923,267.121Z" transform="translate(-57.956 -199.627)"/>
    <path id="Trazado_599668" data-name="Trazado 599668" d="M120.792,300.28a1.561,1.561,0,0,0,1.572-.02l7.8-4.681a1.561,1.561,0,0,0,0-2.676l-7.8-4.681A1.56,1.56,0,0,0,120,289.56v9.362a1.56,1.56,0,0,0,.792,1.358Zm2.329-7.964,3.209,1.925-3.209,1.925Z" transform="translate(-83.715 -218.945)"/>
  </g>
</svg>
