<svg xmlns="http://www.w3.org/2000/svg" width="70.73" height="70.689" viewBox="0 0 70.73 70.689">
  <g id="auditor_1_" data-name="auditor (1)" transform="translate(0 -0.018)">
    <path id="Trazado_813322" data-name="Trazado 813322" d="M45.6,38.712V19.856a18.856,18.856,0,0,0-37.712,0V38.712c0,4.749-2.451,7.955-5.185,9.039a1.162,1.162,0,0,0-.259,1.992,21.165,21.165,0,0,0,4.466,2.722H45.6Z" transform="translate(0.356 0.175)" fill="#806856"/>
    <path id="Trazado_813323" data-name="Trazado 813323" d="M38.712,43H39.89a12.94,12.94,0,0,1,10.736,5.692l2.227,3.736v8.249a1.178,1.178,0,0,1-1.178,1.178H2.178A1.178,1.178,0,0,1,1,60.677V55.963A12.963,12.963,0,0,1,13.963,43Z" transform="translate(0.178 7.672)" fill="#5b5b5b"/>
    <path id="Trazado_813324" data-name="Trazado 813324" d="M31.142,36.8v4.95L24.071,62.962,17,41.75V36.8Z" transform="translate(3.034 6.565)" fill="#e2b793"/>
    <path id="Trazado_813325" data-name="Trazado 813325" d="M40.868,28.326a1.178,1.178,0,0,0-.9,1.1,14.634,14.634,0,0,1-5.269,10.334l-4.643,3.712a6.71,6.71,0,0,1-8.391,0l-4.643-3.712a14.634,14.634,0,0,1-5.269-10.332,1.178,1.178,0,0,0-.9-1.1,4.115,4.115,0,0,1-2.666-1.814C7,24.585,7,23.4,7,19.871A1.957,1.957,0,0,1,9.922,18.1a3.831,3.831,0,0,1,1.736,2.711.572.572,0,0,0,.653.471c2.224-.338,10.052-1.921,12.9-7.686A2.4,2.4,0,0,1,27.96,12.39c3.386.837,9.842,2.912,11.592,6.874a.576.576,0,0,0,1.024.072A3.4,3.4,0,0,1,41.79,18.1a1.957,1.957,0,0,1,2.921,1.772c0,3.525,0,4.714-1.178,6.643a4.115,4.115,0,0,1-2.666,1.811Z" transform="translate(1.249 2.194)" fill="#eec7a4"/>
    <path id="Trazado_813326" data-name="Trazado 813326" d="M25.228,62.213H20.514l-3.685-9.842a1.178,1.178,0,0,0-1.1-.765H11.7a1.178,1.178,0,0,1-1.084-1.643l2.832-6.607L18.157,41Z" transform="translate(1.877 7.315)" fill="#f1f3f5"/>
    <path id="Trazado_813327" data-name="Trazado 813327" d="M23,62.213h4.714L31.4,52.371a1.178,1.178,0,0,1,1.1-.765h4.03a1.178,1.178,0,0,0,1.084-1.643l-2.832-6.607L30.071,41Z" transform="translate(4.105 7.315)" fill="#f1f3f5"/>
    <path id="Trazado_813328" data-name="Trazado 813328" d="M44,36h4.714v6.894H44Z" transform="translate(7.853 6.422)" fill="#7d838f"/>
    <circle id="Elipse_9021" data-name="Elipse 9021" cx="15.32" cy="15.32" r="15.32" transform="translate(38.89 12.96)" fill="#5b5b5b"/>
    <circle id="Elipse_9022" data-name="Elipse 9022" cx="10.606" cy="10.606" r="10.606" transform="translate(43.604 17.674)" fill="#51c0e8"/>
    <path id="Trazado_813329" data-name="Trazado 813329" d="M44.178,41h4.714a1.178,1.178,0,0,1,1.178,1.178v16.5a3.535,3.535,0,0,1-7.071,0v-16.5A1.178,1.178,0,0,1,44.178,41Z" transform="translate(7.675 7.315)" fill="#8c634c"/>
    <g id="Grupo_1067623" data-name="Grupo 1067623" transform="translate(0 0.018)">
      <path id="Trazado_813330" data-name="Trazado 813330" d="M2.357,70.706h49.5a2.348,2.348,0,0,0,.991-.225,4.649,4.649,0,0,0,6.08-4.489v-16.5a2.349,2.349,0,0,0-1.178-2.029V44.388a16.493,16.493,0,1,0-11.579-30.5,20.034,20.034,0,0,0-39.1,6.142V38.887c0,4.563-2.392,7.131-4.432,7.939a2.27,2.27,0,0,0-1.433,1.781,2.4,2.4,0,0,0,.861,2.23,22.656,22.656,0,0,0,2.97,1.994A14.11,14.11,0,0,0,0,63.635v4.714A2.357,2.357,0,0,0,2.357,70.706Zm20.851-2.357-3.4-9.074A2.368,2.368,0,0,0,17.6,57.743h-4.03l2.66-6.211,3.114-1.556,6.123,18.373ZM10.577,21.318a2.675,2.675,0,0,1,1.17,1.916,1.768,1.768,0,0,0,2,1.414c2.454-.378,10.7-2.1,13.781-8.326a1.223,1.223,0,0,1,1.4-.589c2.5.615,8.322,2.357,10.4,5.5A16.3,16.3,0,0,0,39.25,35.2a13.039,13.039,0,0,1-4.041,5.836l-4.646,3.712a5.68,5.68,0,0,1-6.918,0L19,41.032a13.472,13.472,0,0,1-4.832-9.494,2.357,2.357,0,0,0-1.825-2.167A2.93,2.93,0,0,1,10.43,28.09c-1-1.638-1-2.567-1-6.02a.775.775,0,0,1,1.149-.752ZM42.8,56.815l-2.111-4.927A11.785,11.785,0,0,1,49.5,56.6v9.39a4.666,4.666,0,0,0,.655,2.357H33.519L36.607,60.1h4.03A2.357,2.357,0,0,0,42.8,56.815Zm7.871-9.351A2.349,2.349,0,0,0,49.5,49.493v3.62a14.24,14.24,0,0,0-2.357-1.693V43.171a16.334,16.334,0,0,0,3.535,1.223Zm-5.892,2.854a14.087,14.087,0,0,0-4.714-.825h-.9l-3.814-1.907V43.933l1.325-1.061a15.133,15.133,0,0,0,4.056-5.1A16.61,16.61,0,0,0,44.783,41.8Zm-22.61-3.736a7.889,7.889,0,0,0,9.864,0L33,45.815v2.31L27.105,65.8,21.213,48.125v-2.31Zm6.569,21.767,6.128-18.373,3.114,1.556,2.655,6.211h-4.03A2.366,2.366,0,0,0,34.4,59.275L31,68.349Zm27.826-2.357a2.357,2.357,0,0,1-4.714,0v-16.5h4.714ZM55.389,47.136H53.032V44.719c.391.028.78.06,1.178.06s.787-.032,1.178-.06ZM68.352,28.28A14.142,14.142,0,1,1,54.21,14.139,14.142,14.142,0,0,1,68.352,28.28ZM27.105,2.354A17.594,17.594,0,0,1,44.113,15.262a16.6,16.6,0,0,0-3.535,3.746c-2.748-3.1-7.951-4.793-11.1-5.568a3.56,3.56,0,0,0-4.066,1.838c-2.391,4.832-8.828,6.471-11.474,6.953A4.773,4.773,0,0,0,11.785,19.3a2.957,2.957,0,0,0-2.306-.354A17.684,17.684,0,0,1,27.105,2.354ZM3.5,49.022c2.735-1.084,5.93-4.39,5.93-10.135V30.462A5.712,5.712,0,0,0,11.823,31.7a15.878,15.878,0,0,0,5.709,11.176l1.325,1.061v3.653l-3.814,1.906h-.9A14.035,14.035,0,0,0,7.23,51.31,23.256,23.256,0,0,1,3.5,49.022ZM2.357,63.635A11.785,11.785,0,0,1,13.52,51.882l-2.113,4.932A2.357,2.357,0,0,0,13.573,60.1H17.6l3.089,8.249H2.357Z" transform="translate(0 -0.018)" fill="#373737"/>
      <path id="Trazado_813331" data-name="Trazado 813331" d="M47.784,37.57a11.785,11.785,0,0,0,0-23.57,1.178,1.178,0,1,0,0,2.357,9.437,9.437,0,1,1-5.236,1.592,1.179,1.179,0,0,0-1.313-1.959A11.785,11.785,0,0,0,47.784,37.57Z" transform="translate(6.426 2.478)" fill="#373737"/>
      <path id="Trazado_813332" data-name="Trazado 813332" d="M43.178,22.535a1.178,1.178,0,0,0,.833-.345l1.179-1.179a1.178,1.178,0,1,0-1.667-1.667l-1.178,1.179a1.178,1.178,0,0,0,.833,2.012Z" transform="translate(7.496 3.37)" fill="#373737"/>
      <path id="Trazado_813333" data-name="Trazado 813333" d="M43.345,29.083a1.178,1.178,0,0,0,1.666,0l7.071-7.071a1.178,1.178,0,1,0-1.667-1.667l-7.071,7.071A1.178,1.178,0,0,0,43.345,29.083Z" transform="translate(7.675 3.548)" fill="#373737"/>
    </g>
  </g>
</svg>
