<svg xmlns="http://www.w3.org/2000/svg" width="44.445" height="44.445" viewBox="0 0 44.445 44.445">
  <g id="layer1" transform="translate(-0.529 -280.596)">
    <path id="rect4407-8-6-3" d="M31.958,283.824A2.957,2.957,0,0,0,29,280.861H12.7a2.957,2.957,0,0,0-2.963,2.963v4.445H3.069a1.478,1.478,0,0,0-1.482,1.481v5.926H40.107V289.75a1.478,1.478,0,0,0-1.481-1.481H31.958Z" transform="translate(1.906 0.476)" fill="#e86262"/>
    <path id="path8300" d="M6.085,281.919H19.419v8.889H6.085Z" transform="translate(10 2.381)" fill="#e6b57c"/>
    <path id="path8302" d="M6.085,281.919l6.667,5.185,6.667-5.185Z" transform="translate(10 2.381)" fill="#fdd5a6"/>
    <path id="rect8288" d="M.794,286.152H43.757v2.963H.794Z" transform="translate(0.477 9.999)" fill="#ff6b6b"/>
    <path id="rect4405-4" d="M1.588,287.21H40.107v22.223H1.587Z" transform="translate(1.906 11.903)" fill="#dbe9ee"/>
    <path id="rect4411-4" d="M2.646,288.8H14.5v17.778H2.646Z" transform="translate(3.81 14.761)" fill="#33658a"/>
    <path id="rect4443-2" d="M.794,295.148H43.757v2.963H.794Z" transform="translate(0.477 26.189)" fill="#ff6b6b"/>
    <path id="rect4461-5" d="M3.7,289.856H9.63v8.889H3.7Z" transform="translate(5.715 16.665)" fill="#33b9ef"/>
    <path id="path12010-1-4" d="M7.937,302.131H25.716V288.8H7.937Z" transform="translate(13.334 14.76)" fill="#33b9ef"/>
    <path id="rect4407-8-5-2" d="M14.6,280.6a3.71,3.71,0,0,0-3.7,3.7V288H4.975a2.235,2.235,0,0,0-2.221,2.225v5.184H1.272a.741.741,0,0,0-.744.738v2.964a.741.741,0,0,0,.744.744H44.236a.741.741,0,0,0,.738-.744v-2.964a.741.741,0,0,0-.738-.738H42.753v-5.184A2.239,2.239,0,0,0,40.528,288H34.606v-3.7a3.714,3.714,0,0,0-3.708-3.7Zm0,1.483H30.9a2.2,2.2,0,0,1,2.227,2.219v4.446a.741.741,0,0,0,.738.738h6.665a.728.728,0,0,1,.744.744v5.184H4.237v-5.184a.724.724,0,0,1,.738-.744H11.64a.741.741,0,0,0,.744-.738V284.3a2.2,2.2,0,0,1,2.221-2.219ZM29.5,283.558a.728.728,0,0,0-.083,0H16.051a.746.746,0,0,0-.7.738v8.892a.741.741,0,0,0,.738.738H29.416a.741.741,0,0,0,.744-.738V288a.741.741,0,1,0-1.482,0v4.445H16.829v-6.631l5.467,4.252a.741.741,0,0,0,.909,0l6.531-5.074a.741.741,0,0,0-.237-1.435Zm-11.26,1.479h9.025l-4.513,3.511ZM2.01,296.891H43.492v1.483H2.01Zm1.471,4.434a.742.742,0,0,0-.728.75V320.6H1.272a.741.741,0,0,0-.744.738V324.3a.741.741,0,0,0,.744.744H44.236a.741.741,0,0,0,.738-.744v-2.963a.741.741,0,0,0-.738-.738H42.753V302.075a.741.741,0,1,0-1.482,0V320.6H19.049v-17.04a.741.741,0,0,0-.744-.738H6.418a.745.745,0,0,0-.7.738V318.37a.741.741,0,1,0,1.476,0V304.3H17.567q0,8.152,0,16.3H4.237V302.075a.74.74,0,0,0-.755-.749Zm17.049,2.231v13.338a.741.741,0,0,0,.739.738H39.052a.741.741,0,0,0,.738-.738V303.557a.741.741,0,0,0-.738-.738H21.234A.745.745,0,0,0,20.53,303.557Zm1.483.745h7.4v11.849h-7.4Zm8.885,0h7.41v11.849H30.9ZM9.382,305.783a.745.745,0,0,0-.706.738v8.892a.741.741,0,0,0,.744.738h5.929a.741.741,0,0,0,.738-.738v-8.892a.741.741,0,0,0-.738-.738Zm.777,1.476H14.6v7.409H10.158ZM2.01,322.078H43.492v1.482H2.01Z" transform="translate(0 0)"/>
  </g>
</svg>
