<svg xmlns="http://www.w3.org/2000/svg" width="56.918" height="39.131" viewBox="0 0 56.918 39.131">
  <g id="Layer_22" data-name="Layer 22" transform="translate(0 -12)">
    <path id="Trazado_813632" data-name="Trazado 813632" d="M8.557,13h40.91a3.557,3.557,0,0,1,3.557,3.557V45.016H5V16.557A3.557,3.557,0,0,1,8.557,13Z" transform="translate(-0.553 -0.111)" fill="#98deea"/>
    <rect id="Rect치ngulo_373904" data-name="Rect치ngulo 373904" width="23" height="16" rx="2" transform="translate(22.459 23.565)" fill="#82d0d8"/>
    <path id="Trazado_813633" data-name="Trazado 813633" d="M5,47H53.024v1.779H5Z" transform="translate(-0.553 -3.873)" fill="#82d0d8"/>
    <path id="Trazado_813634" data-name="Trazado 813634" d="M1,49H56.139v1.779a3.557,3.557,0,0,1-3.557,3.557H4.557A3.557,3.557,0,0,1,1,50.779Z" transform="translate(-0.111 -4.095)" fill="#7a838b"/>
    <path id="Trazado_813635" data-name="Trazado 813635" d="M3.668,50.779V49H1v1.779a3.557,3.557,0,0,0,3.557,3.557H7.225A3.557,3.557,0,0,1,3.668,50.779Z" transform="translate(-0.111 -4.095)" fill="#5d6972"/>
    <path id="Trazado_813636" data-name="Trazado 813636" d="M25,49H37.451v.889a1.779,1.779,0,0,1-1.779,1.779H26.779A1.779,1.779,0,0,1,25,49.889Z" transform="translate(-2.767 -4.095)" fill="#5d6972"/>
    <rect id="Rect치ngulo_373905" data-name="Rect치ngulo 373905" width="23" height="16" rx="2" transform="translate(24.459 21.565)" fill="#faaf42"/>
    <path id="Trazado_813637" data-name="Trazado 813637" d="M38.632,30,27.64,39.3a1.768,1.768,0,0,0,1.209.481H48.415a1.768,1.768,0,0,0,1.209-.481Z" transform="translate(-3.059 -1.992)" fill="#f8c460"/>
    <path id="Trazado_813638" data-name="Trazado 813638" d="M39.608,35.336l3.153-2.668L39.608,30l-3.153,2.668Z" transform="translate(-4.034 -1.992)" fill="#faaf42"/>
    <path id="Trazado_813639" data-name="Trazado 813639" d="M38.632,32.783l10.992-9.3A1.768,1.768,0,0,0,48.415,23H28.849a1.768,1.768,0,0,0-1.21.481Z" transform="translate(-3.059 -1.217)" fill="#f8c460"/>
    <path id="Trazado_813640" data-name="Trazado 813640" d="M56.028,44.016H53.36V16.447A4.452,4.452,0,0,0,48.914,12H8a4.452,4.452,0,0,0-4.447,4.447V44.016H.889A.889.889,0,0,0,0,44.905v1.779a4.452,4.452,0,0,0,4.447,4.447H52.471a4.452,4.452,0,0,0,4.447-4.447V44.905A.889.889,0,0,0,56.028,44.016ZM5.336,16.447A2.668,2.668,0,0,1,8,13.779h40.91a2.668,2.668,0,0,1,2.668,2.668V44.016H5.336ZM33.795,45.795a.889.889,0,0,1-.889.889H24.012a.889.889,0,0,1-.889-.889Zm21.344.889a2.668,2.668,0,0,1-2.668,2.668H4.447a2.668,2.668,0,0,1-2.668-2.668v-.889H21.344a2.668,2.668,0,0,0,2.668,2.668h8.893a2.668,2.668,0,0,0,2.668-2.668H55.139Z"/>
    <path id="Trazado_813641" data-name="Trazado 813641" d="M22,27H14.889a.889.889,0,0,0,0,1.779H22A.889.889,0,1,0,22,27Z" transform="translate(-1.549 -1.66)"/>
    <path id="Trazado_813642" data-name="Trazado 813642" d="M21.783,31H12.889a.889.889,0,1,0,0,1.779h8.893a.889.889,0,1,0,0-1.779Z" transform="translate(-1.328 -2.103)"/>
    <path id="Trazado_813643" data-name="Trazado 813643" d="M21.561,35H10.889a.889.889,0,1,0,0,1.779H21.561a.889.889,0,1,0,0-1.779Z" transform="translate(-1.107 -2.545)"/>
    <path id="Trazado_813644" data-name="Trazado 813644" d="M28.668,39.787H48.233A2.668,2.668,0,0,0,50.9,37.119V24.668A2.668,2.668,0,0,0,48.233,22H28.668A2.668,2.668,0,0,0,26,24.668V37.119A2.668,2.668,0,0,0,28.668,39.787Zm9.208-6.435a.889.889,0,0,0,1.149,0l10.1-8.545V36.98l-4.762-4.03a.89.89,0,0,0-1.149,1.359l4.372,3.7H29.317l4.452-3.767a.89.89,0,0,0-1.148-1.359l-4.842,4.1V24.807Zm-8.559-9.573H47.584l-9.133,7.728Z" transform="translate(-2.877 -1.107)"/>
  </g>
</svg>
