<svg xmlns="http://www.w3.org/2000/svg" xmlns:xlink="http://www.w3.org/1999/xlink" width="134.388" height="126.993" viewBox="0 0 134.388 126.993">
  <defs>
    <clipPath id="clip-path">
      <path id="Trazado_814206" data-name="Trazado 814206" d="M0,1.376A1.376,1.376,0,1,0,1.375,0,1.375,1.375,0,0,0,0,1.376" fill="#ff8e7c"/>
    </clipPath>
    <clipPath id="clip-path-2">
      <path id="Trazado_814208" data-name="Trazado 814208" d="M0,1.376A1.376,1.376,0,1,0,1.376,0h0A1.377,1.377,0,0,0,0,1.376" fill="#ff8e7c"/>
    </clipPath>
    <clipPath id="clip-path-3">
      <path id="Trazado_814210" data-name="Trazado 814210" d="M1.375,0A1.375,1.375,0,1,0,2.751,1.376,1.375,1.375,0,0,0,1.375,0Z" fill="#ff8e7c"/>
    </clipPath>
    <clipPath id="clip-path-4">
      <path id="Trazado_814212" data-name="Trazado 814212" d="M0,1.376A1.375,1.375,0,1,0,1.375,0,1.375,1.375,0,0,0,0,1.376" fill="#ff8e7c"/>
    </clipPath>
    <clipPath id="clip-path-6">
      <path id="Trazado_814216" data-name="Trazado 814216" d="M1.375,0A1.375,1.375,0,1,0,2.75,1.376,1.375,1.375,0,0,0,1.375,0Z" fill="#ff8e7c"/>
    </clipPath>
    <clipPath id="clip-path-7">
      <path id="Trazado_814218" data-name="Trazado 814218" d="M0,1.376A1.376,1.376,0,1,0,1.375,0,1.376,1.376,0,0,0,0,1.376" fill="#ff8e7c"/>
    </clipPath>
    <clipPath id="clip-path-13">
      <path id="Trazado_814230" data-name="Trazado 814230" d="M1074.25,1088.088a1.673,1.673,0,1,0,1.673-1.674,1.673,1.673,0,0,0-1.673,1.674" transform="translate(-1074.25 -1086.414)" fill="#ffb476"/>
    </clipPath>
    <clipPath id="clip-path-14">
      <path id="Trazado_814232" data-name="Trazado 814232" d="M1074.25,1053.176a1.673,1.673,0,1,0,1.673-1.673h0a1.675,1.675,0,0,0-1.673,1.673" transform="translate(-1074.25 -1051.503)" fill="#ffb476"/>
    </clipPath>
    <clipPath id="clip-path-15">
      <path id="Trazado_814234" data-name="Trazado 814234" d="M1075.924,1013.613a1.673,1.673,0,1,0,1.673,1.674A1.673,1.673,0,0,0,1075.924,1013.613Z" transform="translate(-1074.251 -1013.613)" fill="#ffb476"/>
    </clipPath>
    <clipPath id="clip-path-16">
      <path id="Trazado_814236" data-name="Trazado 814236" d="M1104.611,1088.088a1.673,1.673,0,1,0,1.673-1.674,1.672,1.672,0,0,0-1.673,1.674" transform="translate(-1104.611 -1086.414)" fill="#ffb476"/>
    </clipPath>
    <clipPath id="clip-path-17">
      <path id="Trazado_814238" data-name="Trazado 814238" d="M1104.611,1053.176a1.673,1.673,0,1,0,1.673-1.673,1.673,1.673,0,0,0-1.673,1.673" transform="translate(-1104.611 -1051.503)" fill="#ffb476"/>
    </clipPath>
    <clipPath id="clip-path-18">
      <path id="Trazado_814240" data-name="Trazado 814240" d="M1106.285,1013.613a1.673,1.673,0,1,0,1.673,1.673A1.672,1.672,0,0,0,1106.285,1013.613Z" transform="translate(-1104.613 -1013.613)" fill="#ffb476"/>
    </clipPath>
    <clipPath id="clip-path-19">
      <path id="Trazado_814242" data-name="Trazado 814242" d="M1136.285,1088.088a1.674,1.674,0,1,0,1.673-1.674,1.674,1.674,0,0,0-1.673,1.674" transform="translate(-1136.285 -1086.414)" fill="#ffb476"/>
    </clipPath>
    <clipPath id="clip-path-20">
      <path id="Trazado_814244" data-name="Trazado 814244" d="M1136.285,1053.176a1.674,1.674,0,1,0,1.674-1.673h0a1.676,1.676,0,0,0-1.673,1.673" transform="translate(-1136.285 -1051.503)" fill="#ffb476"/>
    </clipPath>
    <clipPath id="clip-path-21">
      <path id="Trazado_814246" data-name="Trazado 814246" d="M1137.959,1013.613a1.673,1.673,0,1,0,1.673,1.674A1.673,1.673,0,0,0,1137.959,1013.613Z" transform="translate(-1136.287 -1013.613)" fill="#ffb476"/>
    </clipPath>
    <clipPath id="clip-path-22">
      <path id="Trazado_814248" data-name="Trazado 814248" d="M1166.647,1088.088a1.673,1.673,0,1,0,1.672-1.674,1.672,1.672,0,0,0-1.672,1.674" transform="translate(-1166.647 -1086.414)" fill="#ffb476"/>
    </clipPath>
    <clipPath id="clip-path-23">
      <path id="Trazado_814250" data-name="Trazado 814250" d="M1166.647,1053.176a1.673,1.673,0,1,0,1.672-1.673,1.672,1.672,0,0,0-1.672,1.673" transform="translate(-1166.647 -1051.503)" fill="#ffb476"/>
    </clipPath>
    <clipPath id="clip-path-24">
      <path id="Trazado_814252" data-name="Trazado 814252" d="M1168.32,1013.613a1.673,1.673,0,1,0,1.673,1.673A1.672,1.672,0,0,0,1168.32,1013.613Z" transform="translate(-1166.648 -1013.613)" fill="#ffb476"/>
    </clipPath>
    <clipPath id="clip-path-25">
      <path id="path10059" d="M0-682.665H92.563V-590.1H0Z" transform="translate(0 682.665)"/>
    </clipPath>
  </defs>
  <g id="Grupo_1068185" data-name="Grupo 1068185" transform="translate(0)">
    <g id="Grupo_1068156" data-name="Grupo 1068156" transform="translate(0 0)">
      <g id="Grupo_1068103" data-name="Grupo 1068103" transform="translate(0)">
        <path id="Trazado_814254" data-name="Trazado 814254" d="M63.5,0A63.5,63.5,0,1,1,0,63.5,63.5,63.5,0,0,1,63.5,0Z" transform="translate(7.396)" fill="#f77e6b"/>
        <g id="Grupo_1068128" data-name="Grupo 1068128" transform="translate(106.083 122.697) rotate(-90)">
          <g id="Group_881454" data-name="Group 881454" transform="translate(0 22.353)">
            <g id="Grupo_1068105" data-name="Grupo 1068105" transform="translate(0 0)">
              <path id="Trazado_814205" data-name="Trazado 814205" d="M0,1.376A1.376,1.376,0,1,0,1.375,0,1.375,1.375,0,0,0,0,1.376" fill="#ff8e7c"/>
              <g id="Grupo_1068104" data-name="Grupo 1068104" clip-path="url(#clip-path)">
                <g id="Group_881453" data-name="Group 881453" transform="translate(0 0)">
                  <rect id="Rectangle_298909" data-name="Rectangle 298909" width="2.751" height="2.751" fill="#ff8e7c"/>
                </g>
              </g>
            </g>
          </g>
          <g id="Group_881456" data-name="Group 881456" transform="translate(0 11.634)">
            <g id="Grupo_1068107" data-name="Grupo 1068107" transform="translate(0 0)">
              <path id="Trazado_814207" data-name="Trazado 814207" d="M0,1.376A1.376,1.376,0,1,0,1.376,0h0A1.377,1.377,0,0,0,0,1.376" fill="#ff8e7c"/>
              <g id="Grupo_1068106" data-name="Grupo 1068106" clip-path="url(#clip-path-2)">
                <g id="Group_881455" data-name="Group 881455" transform="translate(0 0)">
                  <rect id="Rectangle_298910" data-name="Rectangle 298910" width="2.751" height="2.751" fill="#ff8e7c"/>
                </g>
              </g>
            </g>
          </g>
          <g id="Group_881458" data-name="Group 881458" transform="translate(0 0)">
            <g id="Grupo_1068109" data-name="Grupo 1068109">
              <path id="Trazado_814209" data-name="Trazado 814209" d="M1.375,0A1.375,1.375,0,1,0,2.751,1.376,1.375,1.375,0,0,0,1.375,0Z" fill="#ff8e7c"/>
              <g id="Grupo_1068108" data-name="Grupo 1068108" clip-path="url(#clip-path-3)">
                <g id="Group_881457" data-name="Group 881457" transform="translate(0 0)">
                  <rect id="Rectangle_298911" data-name="Rectangle 298911" width="2.751" height="2.75" fill="#ff8e7c"/>
                </g>
              </g>
            </g>
          </g>
          <g id="Group_881460" data-name="Group 881460" transform="translate(9.322 22.353)">
            <g id="Grupo_1068111" data-name="Grupo 1068111" transform="translate(0 0)">
              <path id="Trazado_814211" data-name="Trazado 814211" d="M0,1.376A1.375,1.375,0,1,0,1.375,0,1.375,1.375,0,0,0,0,1.376" fill="#ff8e7c"/>
              <g id="Grupo_1068110" data-name="Grupo 1068110" clip-path="url(#clip-path-4)">
                <g id="Group_881459" data-name="Group 881459" transform="translate(0 0)">
                  <rect id="Rectangle_298912" data-name="Rectangle 298912" width="2.751" height="2.751" fill="#ff8e7c"/>
                </g>
              </g>
            </g>
          </g>
          <g id="Group_881462" data-name="Group 881462" transform="translate(9.322 11.634)">
            <g id="Grupo_1068113" data-name="Grupo 1068113" transform="translate(0 0)">
              <path id="Trazado_814213" data-name="Trazado 814213" d="M0,1.376A1.375,1.375,0,1,0,1.375,0,1.375,1.375,0,0,0,0,1.376" fill="#ff8e7c"/>
              <g id="Grupo_1068112" data-name="Grupo 1068112" clip-path="url(#clip-path-4)">
                <g id="Group_881461" data-name="Group 881461" transform="translate(0 0)">
                  <rect id="Rectangle_298913" data-name="Rectangle 298913" width="2.751" height="2.751" fill="#ff8e7c"/>
                </g>
              </g>
            </g>
          </g>
          <g id="Group_881464" data-name="Group 881464" transform="translate(9.323 0)">
            <g id="Grupo_1068115" data-name="Grupo 1068115" transform="translate(0)">
              <path id="Trazado_814215" data-name="Trazado 814215" d="M1.375,0A1.375,1.375,0,1,0,2.75,1.376,1.375,1.375,0,0,0,1.375,0Z" fill="#ff8e7c"/>
              <g id="Grupo_1068114" data-name="Grupo 1068114" clip-path="url(#clip-path-6)">
                <g id="Group_881463" data-name="Group 881463" transform="translate(-0.001 0)">
                  <rect id="Rectangle_298914" data-name="Rectangle 298914" width="2.751" height="2.75" fill="#ff8e7c"/>
                </g>
              </g>
            </g>
          </g>
          <g id="Group_881454-2" data-name="Group 881454" transform="translate(19.047 22.353)">
            <g id="Grupo_1068117" data-name="Grupo 1068117" transform="translate(0 0)">
              <path id="Trazado_814217" data-name="Trazado 814217" d="M0,1.376A1.376,1.376,0,1,0,1.375,0,1.376,1.376,0,0,0,0,1.376" fill="#ff8e7c"/>
              <g id="Grupo_1068116" data-name="Grupo 1068116" clip-path="url(#clip-path-7)">
                <g id="Group_881453-2" data-name="Group 881453" transform="translate(0 0)">
                  <rect id="Rectangle_298909-2" data-name="Rectangle 298909" width="2.751" height="2.751" fill="#ff8e7c"/>
                </g>
              </g>
            </g>
          </g>
          <g id="Group_881456-2" data-name="Group 881456" transform="translate(19.047 11.634)">
            <g id="Grupo_1068119" data-name="Grupo 1068119" transform="translate(0 0)">
              <path id="Trazado_814219" data-name="Trazado 814219" d="M0,1.376A1.376,1.376,0,1,0,1.376,0h0A1.377,1.377,0,0,0,0,1.376" fill="#ff8e7c"/>
              <g id="Grupo_1068118" data-name="Grupo 1068118" clip-path="url(#clip-path-2)">
                <g id="Group_881455-2" data-name="Group 881455" transform="translate(0 0)">
                  <rect id="Rectangle_298910-2" data-name="Rectangle 298910" width="2.751" height="2.751" fill="#ff8e7c"/>
                </g>
              </g>
            </g>
          </g>
          <g id="Group_881458-2" data-name="Group 881458" transform="translate(19.048 0)">
            <g id="Grupo_1068121" data-name="Grupo 1068121" transform="translate(0)">
              <path id="Trazado_814221" data-name="Trazado 814221" d="M1.375,0A1.375,1.375,0,1,0,2.75,1.376,1.375,1.375,0,0,0,1.375,0Z" fill="#ff8e7c"/>
              <g id="Grupo_1068120" data-name="Grupo 1068120" clip-path="url(#clip-path-6)">
                <g id="Group_881457-2" data-name="Group 881457" transform="translate(0 0)">
                  <rect id="Rectangle_298911-2" data-name="Rectangle 298911" width="2.751" height="2.75" fill="#ff8e7c"/>
                </g>
              </g>
            </g>
          </g>
          <g id="Group_881460-2" data-name="Group 881460" transform="translate(28.37 22.353)">
            <g id="Grupo_1068123" data-name="Grupo 1068123" transform="translate(0 0)">
              <path id="Trazado_814223" data-name="Trazado 814223" d="M0,1.376A1.375,1.375,0,1,0,1.375,0,1.375,1.375,0,0,0,0,1.376" fill="#ff8e7c"/>
              <g id="Grupo_1068122" data-name="Grupo 1068122" clip-path="url(#clip-path-4)">
                <g id="Group_881459-2" data-name="Group 881459" transform="translate(0 0)">
                  <rect id="Rectangle_298912-2" data-name="Rectangle 298912" width="2.751" height="2.751" fill="#ff8e7c"/>
                </g>
              </g>
            </g>
          </g>
          <g id="Group_881462-2" data-name="Group 881462" transform="translate(28.37 11.634)">
            <g id="Grupo_1068125" data-name="Grupo 1068125" transform="translate(0 0)">
              <path id="Trazado_814225" data-name="Trazado 814225" d="M0,1.376A1.375,1.375,0,1,0,1.375,0,1.375,1.375,0,0,0,0,1.376" fill="#ff8e7c"/>
              <g id="Grupo_1068124" data-name="Grupo 1068124" clip-path="url(#clip-path-4)">
                <g id="Group_881461-2" data-name="Group 881461" transform="translate(0 0)">
                  <rect id="Rectangle_298913-2" data-name="Rectangle 298913" width="2.751" height="2.751" fill="#ff8e7c"/>
                </g>
              </g>
            </g>
          </g>
          <g id="Group_881464-2" data-name="Group 881464" transform="translate(28.37 0)">
            <g id="Grupo_1068127" data-name="Grupo 1068127" transform="translate(0)">
              <path id="Trazado_814227" data-name="Trazado 814227" d="M1.375,0A1.375,1.375,0,1,0,2.75,1.376,1.375,1.375,0,0,0,1.375,0Z" fill="#ff8e7c"/>
              <g id="Grupo_1068126" data-name="Grupo 1068126" clip-path="url(#clip-path-6)">
                <g id="Group_881463-2" data-name="Group 881463" transform="translate(0 0)">
                  <rect id="Rectangle_298914-2" data-name="Rectangle 298914" width="2.751" height="2.75" fill="#ff8e7c"/>
                </g>
              </g>
            </g>
          </g>
        </g>
        <g id="Grupo_1068153" data-name="Grupo 1068153" transform="translate(0 12.29)">
          <g id="Group_881454-3" data-name="Group 881454" transform="translate(0 27.192)">
            <g id="Grupo_1068130" data-name="Grupo 1068130">
              <path id="Trazado_814229" data-name="Trazado 814229" d="M1074.25,1088.088a1.673,1.673,0,1,0,1.673-1.674,1.673,1.673,0,0,0-1.673,1.674" transform="translate(-1074.25 -1086.414)" fill="#ffb476"/>
              <g id="Grupo_1068129" data-name="Grupo 1068129" clip-path="url(#clip-path-13)">
                <g id="Group_881453-3" data-name="Group 881453" transform="translate(0 0)">
                  <rect id="Rectangle_298909-3" data-name="Rectangle 298909" width="3.346" height="3.346" fill="#ffb476"/>
                </g>
              </g>
            </g>
          </g>
          <g id="Group_881456-3" data-name="Group 881456" transform="translate(0 14.152)">
            <g id="Grupo_1068132" data-name="Grupo 1068132">
              <path id="Trazado_814231" data-name="Trazado 814231" d="M1074.25,1053.176a1.673,1.673,0,1,0,1.673-1.673h0a1.675,1.675,0,0,0-1.673,1.673" transform="translate(-1074.25 -1051.503)" fill="#ffb476"/>
              <g id="Grupo_1068131" data-name="Grupo 1068131" clip-path="url(#clip-path-14)">
                <g id="Group_881455-3" data-name="Group 881455" transform="translate(0 0)">
                  <rect id="Rectangle_298910-3" data-name="Rectangle 298910" width="3.346" height="3.346" fill="#ffb476"/>
                </g>
              </g>
            </g>
          </g>
          <g id="Group_881458-3" data-name="Group 881458" transform="translate(0 0)">
            <g id="Grupo_1068134" data-name="Grupo 1068134">
              <path id="Trazado_814233" data-name="Trazado 814233" d="M1075.924,1013.613a1.673,1.673,0,1,0,1.673,1.674A1.673,1.673,0,0,0,1075.924,1013.613Z" transform="translate(-1074.251 -1013.613)" fill="#ffb476"/>
              <g id="Grupo_1068133" data-name="Grupo 1068133" clip-path="url(#clip-path-15)">
                <g id="Group_881457-3" data-name="Group 881457" transform="translate(0 0)">
                  <rect id="Rectangle_298911-3" data-name="Rectangle 298911" width="3.346" height="3.346" fill="#ffb476"/>
                </g>
              </g>
            </g>
          </g>
          <g id="Group_881460-3" data-name="Group 881460" transform="translate(11.34 27.192)">
            <g id="Grupo_1068136" data-name="Grupo 1068136">
              <path id="Trazado_814235" data-name="Trazado 814235" d="M1104.611,1088.088a1.673,1.673,0,1,0,1.673-1.674,1.672,1.672,0,0,0-1.673,1.674" transform="translate(-1104.611 -1086.414)" fill="#ffb476"/>
              <g id="Grupo_1068135" data-name="Grupo 1068135" clip-path="url(#clip-path-16)">
                <g id="Group_881459-3" data-name="Group 881459" transform="translate(0 0)">
                  <rect id="Rectangle_298912-3" data-name="Rectangle 298912" width="3.346" height="3.346" fill="#ffb476"/>
                </g>
              </g>
            </g>
          </g>
          <g id="Group_881462-3" data-name="Group 881462" transform="translate(11.34 14.152)">
            <g id="Grupo_1068138" data-name="Grupo 1068138">
              <path id="Trazado_814237" data-name="Trazado 814237" d="M1104.611,1053.176a1.673,1.673,0,1,0,1.673-1.673,1.673,1.673,0,0,0-1.673,1.673" transform="translate(-1104.611 -1051.503)" fill="#ffb476"/>
              <g id="Grupo_1068137" data-name="Grupo 1068137" clip-path="url(#clip-path-17)">
                <g id="Group_881461-3" data-name="Group 881461" transform="translate(0 0)">
                  <rect id="Rectangle_298913-3" data-name="Rectangle 298913" width="3.346" height="3.346" fill="#ffb476"/>
                </g>
              </g>
            </g>
          </g>
          <g id="Group_881464-3" data-name="Group 881464" transform="translate(11.341 0)">
            <g id="Grupo_1068140" data-name="Grupo 1068140">
              <path id="Trazado_814239" data-name="Trazado 814239" d="M1106.285,1013.613a1.673,1.673,0,1,0,1.673,1.673A1.672,1.672,0,0,0,1106.285,1013.613Z" transform="translate(-1104.613 -1013.613)" fill="#ffb476"/>
              <g id="Grupo_1068139" data-name="Grupo 1068139" clip-path="url(#clip-path-18)">
                <g id="Group_881463-3" data-name="Group 881463" transform="translate(-0.001 0)">
                  <rect id="Rectangle_298914-3" data-name="Rectangle 298914" width="3.346" height="3.346" fill="#ffb476"/>
                </g>
              </g>
            </g>
          </g>
          <g id="Group_881454-4" data-name="Group 881454" transform="translate(23.171 27.192)">
            <g id="Grupo_1068142" data-name="Grupo 1068142">
              <path id="Trazado_814241" data-name="Trazado 814241" d="M1136.285,1088.088a1.674,1.674,0,1,0,1.673-1.674,1.674,1.674,0,0,0-1.673,1.674" transform="translate(-1136.285 -1086.414)" fill="#ffb476"/>
              <g id="Grupo_1068141" data-name="Grupo 1068141" clip-path="url(#clip-path-19)">
                <g id="Group_881453-4" data-name="Group 881453" transform="translate(0 0)">
                  <rect id="Rectangle_298909-4" data-name="Rectangle 298909" width="3.346" height="3.346" fill="#ffb476"/>
                </g>
              </g>
            </g>
          </g>
          <g id="Group_881456-4" data-name="Group 881456" transform="translate(23.171 14.152)">
            <g id="Grupo_1068144" data-name="Grupo 1068144">
              <path id="Trazado_814243" data-name="Trazado 814243" d="M1136.285,1053.176a1.674,1.674,0,1,0,1.674-1.673h0a1.676,1.676,0,0,0-1.673,1.673" transform="translate(-1136.285 -1051.503)" fill="#ffb476"/>
              <g id="Grupo_1068143" data-name="Grupo 1068143" clip-path="url(#clip-path-20)">
                <g id="Group_881455-4" data-name="Group 881455" transform="translate(0 0)">
                  <rect id="Rectangle_298910-4" data-name="Rectangle 298910" width="3.346" height="3.346" fill="#ffb476"/>
                </g>
              </g>
            </g>
          </g>
          <g id="Group_881458-4" data-name="Group 881458" transform="translate(23.171 0)">
            <g id="Grupo_1068146" data-name="Grupo 1068146">
              <path id="Trazado_814245" data-name="Trazado 814245" d="M1137.959,1013.613a1.673,1.673,0,1,0,1.673,1.674A1.673,1.673,0,0,0,1137.959,1013.613Z" transform="translate(-1136.287 -1013.613)" fill="#ffb476"/>
              <g id="Grupo_1068145" data-name="Grupo 1068145" clip-path="url(#clip-path-21)">
                <g id="Group_881457-4" data-name="Group 881457" transform="translate(-0.001 0)">
                  <rect id="Rectangle_298911-4" data-name="Rectangle 298911" width="3.346" height="3.346" fill="#ffb476"/>
                </g>
              </g>
            </g>
          </g>
          <g id="Group_881460-4" data-name="Group 881460" transform="translate(34.511 27.192)">
            <g id="Grupo_1068148" data-name="Grupo 1068148">
              <path id="Trazado_814247" data-name="Trazado 814247" d="M1166.647,1088.088a1.673,1.673,0,1,0,1.672-1.674,1.672,1.672,0,0,0-1.672,1.674" transform="translate(-1166.647 -1086.414)" fill="#ffb476"/>
              <g id="Grupo_1068147" data-name="Grupo 1068147" clip-path="url(#clip-path-22)">
                <g id="Group_881459-4" data-name="Group 881459" transform="translate(0 0)">
                  <rect id="Rectangle_298912-4" data-name="Rectangle 298912" width="3.346" height="3.346" fill="#ffb476"/>
                </g>
              </g>
            </g>
          </g>
          <g id="Group_881462-4" data-name="Group 881462" transform="translate(34.511 14.152)">
            <g id="Grupo_1068150" data-name="Grupo 1068150">
              <path id="Trazado_814249" data-name="Trazado 814249" d="M1166.647,1053.176a1.673,1.673,0,1,0,1.672-1.673,1.672,1.672,0,0,0-1.672,1.673" transform="translate(-1166.647 -1051.503)" fill="#ffb476"/>
              <g id="Grupo_1068149" data-name="Grupo 1068149" clip-path="url(#clip-path-23)">
                <g id="Group_881461-4" data-name="Group 881461" transform="translate(0 0)">
                  <rect id="Rectangle_298913-4" data-name="Rectangle 298913" width="3.346" height="3.346" fill="#ffb476"/>
                </g>
              </g>
            </g>
          </g>
          <g id="Group_881464-4" data-name="Group 881464" transform="translate(34.511 0)">
            <g id="Grupo_1068152" data-name="Grupo 1068152">
              <path id="Trazado_814251" data-name="Trazado 814251" d="M1168.32,1013.613a1.673,1.673,0,1,0,1.673,1.673A1.672,1.672,0,0,0,1168.32,1013.613Z" transform="translate(-1166.648 -1013.613)" fill="#ffb476"/>
              <g id="Grupo_1068151" data-name="Grupo 1068151" clip-path="url(#clip-path-24)">
                <g id="Group_881463-4" data-name="Group 881463" transform="translate(0 0)">
                  <rect id="Rectangle_298914-4" data-name="Rectangle 298914" width="3.346" height="3.346" fill="#ffb476"/>
                </g>
              </g>
            </g>
          </g>
        </g>
        <rect id="Rect치ngulo_374064" data-name="Rect치ngulo 374064" width="5.919" height="31.089" rx="2.96" transform="translate(124.661 6.203) rotate(45)" fill="#ffb476"/>
        <rect id="Rect치ngulo_374066" data-name="Rect치ngulo 374066" width="3.992" height="26.272" rx="1.996" transform="translate(35.034 104.187) rotate(45)" fill="#ffb476"/>
      </g>
    </g>
    <g id="g10053" transform="translate(31.358 26.572)">
      <g id="g10055" transform="translate(0 0)">
        <g id="g10057" clip-path="url(#clip-path-25)">
          <g id="g10063" transform="translate(64.749 64.748)">
            <path id="path10065" d="M-117.752-166.65-135.9-184.8a1.084,1.084,0,0,1,0-1.534l6.136-6.136a1.084,1.084,0,0,1,1.534,0l18.153,18.153a1.085,1.085,0,0,1,0,1.534l-6.136,6.136a1.084,1.084,0,0,1-1.534,0" transform="translate(136.222 192.79)" fill="#f78e36"/>
          </g>
          <g id="g10067" transform="translate(67.367 64.748)">
            <path id="path10069" d="M-24.45-2.026l-3.835,3.835a1.085,1.085,0,0,1,1.534,0L-8.6,19.961a1.085,1.085,0,0,1,0,1.534l3.835-3.835a1.085,1.085,0,0,0,0-1.534L-22.916-2.026a1.084,1.084,0,0,0-1.534,0" transform="translate(28.285 2.344)" fill="#f86f1b"/>
          </g>
          <g id="g10071" transform="translate(57.858 57.858)">
            <path id="path10073" d="M-77.739-53.29l-3.835,3.835-8.359-8.359,3.835-3.835Z" transform="translate(89.933 61.649)" fill="#4380a0"/>
          </g>
          <g id="g10075" transform="translate(68.454 68.454)">
            <path id="path10077" d="M-73.348-24.449l-7.67,7.67-3.835-3.835,7.67-7.67Z" transform="translate(84.853 28.284)" fill="#7be492"/>
          </g>
          <g id="g10079" transform="translate(72.289 68.454)">
            <path id="path10081" d="M0-24.449l3.835,3.835L7.67-24.449,3.835-28.284Z" transform="translate(0 28.284)" fill="#45d987"/>
          </g>
          <g id="g10083" transform="translate(1.356 1.356)">
            <path id="path10085" d="M-449.492-224.746a35.253,35.253,0,0,1-35.253,35.253A35.253,35.253,0,0,1-520-224.746,35.253,35.253,0,0,1-484.745-260a35.253,35.253,0,0,1,35.253,35.253" transform="translate(519.999 259.999)" fill="#43809f"/>
          </g>
          <g id="g10087" transform="translate(33.897 1.356)">
            <path id="path10089" d="M-17.288,0Q-18.657,0-20,.1A35.256,35.256,0,0,1,12.542,35.253,35.256,35.256,0,0,1-20,70.4q1.343.1,2.712.1A35.253,35.253,0,0,0,17.965,35.253,35.253,35.253,0,0,0-17.288,0" transform="translate(20)" fill="#3a7190"/>
          </g>
          <g id="g10091" transform="translate(6.779 6.779)">
            <path id="path10093" d="M-190.17-380.339A29.864,29.864,0,0,1-220-410.169,29.864,29.864,0,0,1-190.17-440a29.864,29.864,0,0,1,29.83,29.83,29.864,29.864,0,0,1-29.83,29.83" transform="translate(219.999 439.999)" fill="#f3f3f3"/>
          </g>
          <g id="g10095" transform="translate(33.897 6.779)">
            <path id="path10097" d="M-17.288,0C-18.2,0-19.107.044-20,.125A29.869,29.869,0,0,1,7.118,29.83,29.869,29.869,0,0,1-20,59.535c.893.081,1.8.125,2.712.125a29.864,29.864,0,0,0,29.83-29.83A29.864,29.864,0,0,0-17.288,0" transform="translate(20)" fill="#e4e4e4"/>
          </g>
          <g id="g10099" transform="translate(20.79 20.61)">
            <path id="path10101" d="M-69.153-106.034H-80v-15.909a.723.723,0,0,1,.723-.723h9.4a.723.723,0,0,1,.723.723Z" transform="translate(80 122.666)" fill="#29cef6"/>
          </g>
          <g id="g10103" transform="translate(26.214 20.61)">
            <path id="path10105" d="M0,0V16.632H5.424V.723A.723.723,0,0,0,4.7,0Z" fill="#22b5ed"/>
          </g>
          <g id="g10107" transform="translate(42.485 27.48)">
            <path id="path10109" d="M-69.153-62.237H-80v-9.039A.723.723,0,0,1-79.277-72h9.4a.723.723,0,0,1,.723.723Z" transform="translate(80 72)" fill="#7be492"/>
          </g>
          <g id="g10111" transform="translate(47.908 27.48)">
            <path id="path10113" d="M0,0V9.762H5.424V.723A.723.723,0,0,0,4.7,0Z" fill="#45d987"/>
          </g>
          <g id="g10115" transform="translate(31.638 13.74)">
            <path id="path10117" d="M-69.153-149.831H-80V-172.61a.723.723,0,0,1,.723-.723h9.4a.723.723,0,0,1,.723.723Z" transform="translate(80 173.333)" fill="#f78e36"/>
          </g>
          <g id="g10119" transform="translate(37.061 13.74)">
            <path id="path10121" d="M0,0V23.5H5.424V.723A.723.723,0,0,0,4.7,0Z" fill="#f86f1b"/>
          </g>
          <g id="g10123" transform="translate(41.701 71.629)">
            <path id="path10125" d="M0,0V10.079" transform="translate(0)" fill="none" stroke="#000" stroke-linecap="round" stroke-linejoin="round" stroke-miterlimit="10" stroke-width="1.5"/>
          </g>
          <g id="g10127" transform="translate(31.049 71.629)">
            <path id="path10129" d="M0,0V10.079" fill="none" stroke="#000" stroke-linecap="round" stroke-linejoin="round" stroke-miterlimit="10" stroke-width="1.5"/>
          </g>
          <g id="g10131" transform="translate(36.375 72.262)">
            <path id="path10133" d="M0,0V15.822" transform="translate(0)" fill="none" stroke="#000" stroke-linecap="round" stroke-linejoin="round" stroke-miterlimit="10" stroke-width="1.5"/>
          </g>
          <g id="g10135" transform="translate(71.863 32.361)">
            <path id="path10137" d="M0,0H10.079" fill="none" stroke="#000" stroke-linecap="round" stroke-linejoin="round" stroke-miterlimit="10" stroke-width="1.5"/>
          </g>
          <g id="g10139" transform="translate(71.863 43.013)">
            <path id="path10141" d="M0,0H10.079" fill="none" stroke="#000" stroke-linecap="round" stroke-linejoin="round" stroke-miterlimit="10" stroke-width="1.5"/>
          </g>
          <g id="g10143" transform="translate(72.266 37.687)">
            <path id="path10145" d="M0,0H16.138" fill="none" stroke="#000" stroke-linecap="round" stroke-linejoin="round" stroke-miterlimit="10" stroke-width="1.5"/>
          </g>
          <g id="g10147" transform="translate(64.749 64.749)">
            <path id="path10149" d="M-158.232-109.333l1.32,1.321a1.085,1.085,0,0,1,0,1.534l-6.136,6.136a1.084,1.084,0,0,1-1.534,0l-18.153-18.153a1.084,1.084,0,0,1,0-1.534l6.136-6.136a1.084,1.084,0,0,1,1.534,0l12.744,12.744" transform="translate(183.052 126.482)" fill="none" stroke="#000" stroke-linecap="round" stroke-linejoin="round" stroke-miterlimit="10" stroke-width="1.5"/>
          </g>
          <g id="g10151" transform="translate(59.785 59.777)">
            <path id="path10153" d="M-24.4,0l6.438,6.44L-21.8,10.274l-6.431-6.43" transform="translate(28.232)" fill="none" stroke="#000" stroke-linecap="round" stroke-linejoin="round" stroke-miterlimit="10" stroke-width="1.5"/>
          </g>
          <g id="g10155" transform="translate(68.454 68.454)">
            <path id="path10157" d="M-73.348-24.449l-7.67,7.67-3.835-3.835,7.67-7.67Z" transform="translate(84.853 28.284)" fill="none" stroke="#000" stroke-linecap="round" stroke-linejoin="round" stroke-miterlimit="10" stroke-width="1.5"/>
          </g>
          <g id="g10159" transform="translate(1.356 1.356)">
            <path id="path10161" d="M-401.062-85.364a35.1,35.1,0,0,1,7.6,21.863,35.253,35.253,0,0,1-35.253,35.253A35.253,35.253,0,0,1-463.972-63.5a35.253,35.253,0,0,1,35.253-35.253,35.125,35.125,0,0,1,23.7,9.158" transform="translate(463.972 98.754)" fill="none" stroke="#000" stroke-linecap="round" stroke-linejoin="round" stroke-miterlimit="10" stroke-width="1.5"/>
          </g>
          <g id="g10163" transform="translate(6.778 6.779)">
            <path id="path10165" d="M-47.814-316.614a29.065,29.065,0,0,1-7.5-19.834,29.977,29.977,0,0,1,29.83-29.83,29.864,29.864,0,0,1,29.83,29.83,29.864,29.864,0,0,1-29.83,29.83,30.556,30.556,0,0,1-18.067-6.093" transform="translate(55.314 366.278)" fill="none" stroke="#000" stroke-linecap="round" stroke-linejoin="round" stroke-miterlimit="10" stroke-width="1.5"/>
          </g>
          <g id="g10167" transform="translate(20.79 20.61)">
            <path id="path10169" d="M0-4.61a.723.723,0,0,1,.723-.723h9.4a.723.723,0,0,1,.723.723V11.3H0Z" transform="translate(0 5.333)" fill="none" stroke="#000" stroke-linecap="round" stroke-linejoin="round" stroke-miterlimit="10" stroke-width="1.5"/>
          </g>
          <g id="g10171" transform="translate(42.485 27.48)">
            <path id="path10173" d="M-69.153-62.237H-80v-9.039A.723.723,0,0,1-79.277-72h9.4a.723.723,0,0,1,.723.723Z" transform="translate(80 72)" fill="none" stroke="#000" stroke-linecap="round" stroke-linejoin="round" stroke-miterlimit="10" stroke-width="1.5"/>
          </g>
          <g id="g10175" transform="translate(31.638 13.74)">
            <path id="path10177" d="M-69.153-149.831H-80V-172.61a.723.723,0,0,1,.723-.723h9.4a.723.723,0,0,1,.723.723Z" transform="translate(80 173.333)" fill="none" stroke="#000" stroke-linecap="round" stroke-linejoin="round" stroke-miterlimit="10" stroke-width="1.5"/>
          </g>
          <g id="g10179" transform="translate(17.62 37.242)">
            <path id="path10181" d="M0,0H38.883" fill="none" stroke="#000" stroke-linecap="round" stroke-linejoin="round" stroke-miterlimit="10" stroke-width="1.5"/>
          </g>
          <g id="g10183" transform="translate(22.209 43.168)">
            <path id="path10185" d="M0-52.753H7.162l3.048-5.459,4.016,11.384,5.266-14.2,3.237,8.275h7.309" transform="translate(0 61.028)" fill="none" stroke="#000" stroke-linecap="round" stroke-linejoin="round" stroke-miterlimit="10" stroke-width="1.5"/>
          </g>
        </g>
      </g>
    </g>
  </g>
</svg>
