<svg xmlns="http://www.w3.org/2000/svg" xmlns:xlink="http://www.w3.org/1999/xlink" width="134.388" height="126.993" viewBox="0 0 134.388 126.993">
  <defs>
    <clipPath id="clip-path">
      <path id="Trazado_814206" data-name="Trazado 814206" d="M0,1.376A1.376,1.376,0,1,0,1.375,0,1.375,1.375,0,0,0,0,1.376" fill="#ff8e7c"/>
    </clipPath>
    <clipPath id="clip-path-2">
      <path id="Trazado_814208" data-name="Trazado 814208" d="M0,1.376A1.376,1.376,0,1,0,1.376,0h0A1.377,1.377,0,0,0,0,1.376" fill="#ff8e7c"/>
    </clipPath>
    <clipPath id="clip-path-3">
      <path id="Trazado_814210" data-name="Trazado 814210" d="M1.375,0A1.375,1.375,0,1,0,2.751,1.376,1.375,1.375,0,0,0,1.375,0Z" fill="#ff8e7c"/>
    </clipPath>
    <clipPath id="clip-path-4">
      <path id="Trazado_814212" data-name="Trazado 814212" d="M0,1.376A1.375,1.375,0,1,0,1.375,0,1.375,1.375,0,0,0,0,1.376" fill="#ff8e7c"/>
    </clipPath>
    <clipPath id="clip-path-6">
      <path id="Trazado_814216" data-name="Trazado 814216" d="M1.375,0A1.375,1.375,0,1,0,2.75,1.376,1.375,1.375,0,0,0,1.375,0Z" fill="#ff8e7c"/>
    </clipPath>
    <clipPath id="clip-path-7">
      <path id="Trazado_814218" data-name="Trazado 814218" d="M0,1.376A1.376,1.376,0,1,0,1.375,0,1.376,1.376,0,0,0,0,1.376" fill="#ff8e7c"/>
    </clipPath>
    <clipPath id="clip-path-13">
      <path id="Trazado_814230" data-name="Trazado 814230" d="M1074.25,1088.088a1.673,1.673,0,1,0,1.673-1.674,1.673,1.673,0,0,0-1.673,1.674" transform="translate(-1074.25 -1086.414)" fill="#ffb476"/>
    </clipPath>
    <clipPath id="clip-path-14">
      <path id="Trazado_814232" data-name="Trazado 814232" d="M1074.25,1053.176a1.673,1.673,0,1,0,1.673-1.673h0a1.675,1.675,0,0,0-1.673,1.673" transform="translate(-1074.25 -1051.503)" fill="#ffb476"/>
    </clipPath>
    <clipPath id="clip-path-15">
      <path id="Trazado_814234" data-name="Trazado 814234" d="M1075.924,1013.613a1.673,1.673,0,1,0,1.673,1.674A1.673,1.673,0,0,0,1075.924,1013.613Z" transform="translate(-1074.251 -1013.613)" fill="#ffb476"/>
    </clipPath>
    <clipPath id="clip-path-16">
      <path id="Trazado_814236" data-name="Trazado 814236" d="M1104.611,1088.088a1.673,1.673,0,1,0,1.673-1.674,1.672,1.672,0,0,0-1.673,1.674" transform="translate(-1104.611 -1086.414)" fill="#ffb476"/>
    </clipPath>
    <clipPath id="clip-path-17">
      <path id="Trazado_814238" data-name="Trazado 814238" d="M1104.611,1053.176a1.673,1.673,0,1,0,1.673-1.673,1.673,1.673,0,0,0-1.673,1.673" transform="translate(-1104.611 -1051.503)" fill="#ffb476"/>
    </clipPath>
    <clipPath id="clip-path-18">
      <path id="Trazado_814240" data-name="Trazado 814240" d="M1106.285,1013.613a1.673,1.673,0,1,0,1.673,1.673A1.672,1.672,0,0,0,1106.285,1013.613Z" transform="translate(-1104.613 -1013.613)" fill="#ffb476"/>
    </clipPath>
    <clipPath id="clip-path-19">
      <path id="Trazado_814242" data-name="Trazado 814242" d="M1136.285,1088.088a1.674,1.674,0,1,0,1.673-1.674,1.674,1.674,0,0,0-1.673,1.674" transform="translate(-1136.285 -1086.414)" fill="#ffb476"/>
    </clipPath>
    <clipPath id="clip-path-20">
      <path id="Trazado_814244" data-name="Trazado 814244" d="M1136.285,1053.176a1.674,1.674,0,1,0,1.674-1.673h0a1.676,1.676,0,0,0-1.673,1.673" transform="translate(-1136.285 -1051.503)" fill="#ffb476"/>
    </clipPath>
    <clipPath id="clip-path-21">
      <path id="Trazado_814246" data-name="Trazado 814246" d="M1137.959,1013.613a1.673,1.673,0,1,0,1.673,1.674A1.673,1.673,0,0,0,1137.959,1013.613Z" transform="translate(-1136.287 -1013.613)" fill="#ffb476"/>
    </clipPath>
    <clipPath id="clip-path-22">
      <path id="Trazado_814248" data-name="Trazado 814248" d="M1166.647,1088.088a1.673,1.673,0,1,0,1.672-1.674,1.672,1.672,0,0,0-1.672,1.674" transform="translate(-1166.647 -1086.414)" fill="#ffb476"/>
    </clipPath>
    <clipPath id="clip-path-23">
      <path id="Trazado_814250" data-name="Trazado 814250" d="M1166.647,1053.176a1.673,1.673,0,1,0,1.672-1.673,1.672,1.672,0,0,0-1.672,1.673" transform="translate(-1166.647 -1051.503)" fill="#ffb476"/>
    </clipPath>
    <clipPath id="clip-path-24">
      <path id="Trazado_814252" data-name="Trazado 814252" d="M1168.32,1013.613a1.673,1.673,0,1,0,1.673,1.673A1.672,1.672,0,0,0,1168.32,1013.613Z" transform="translate(-1166.648 -1013.613)" fill="#ffb476"/>
    </clipPath>
  </defs>
  <g id="Grupo_1068219" data-name="Grupo 1068219" transform="translate(0)">
    <g id="Grupo_1068156" data-name="Grupo 1068156" transform="translate(0 0)">
      <g id="Grupo_1068103" data-name="Grupo 1068103" transform="translate(0)">
        <path id="Trazado_814254" data-name="Trazado 814254" d="M63.5,0A63.5,63.5,0,1,1,0,63.5,63.5,63.5,0,0,1,63.5,0Z" transform="translate(7.396)" fill="#f77e6b"/>
        <g id="Grupo_1068128" data-name="Grupo 1068128" transform="translate(106.083 122.697) rotate(-90)">
          <g id="Group_881454" data-name="Group 881454" transform="translate(0 22.353)">
            <g id="Grupo_1068105" data-name="Grupo 1068105" transform="translate(0 0)">
              <path id="Trazado_814205" data-name="Trazado 814205" d="M0,1.376A1.376,1.376,0,1,0,1.375,0,1.375,1.375,0,0,0,0,1.376" fill="#ff8e7c"/>
              <g id="Grupo_1068104" data-name="Grupo 1068104" clip-path="url(#clip-path)">
                <g id="Group_881453" data-name="Group 881453" transform="translate(0 0)">
                  <rect id="Rectangle_298909" data-name="Rectangle 298909" width="2.751" height="2.751" fill="#ff8e7c"/>
                </g>
              </g>
            </g>
          </g>
          <g id="Group_881456" data-name="Group 881456" transform="translate(0 11.634)">
            <g id="Grupo_1068107" data-name="Grupo 1068107" transform="translate(0 0)">
              <path id="Trazado_814207" data-name="Trazado 814207" d="M0,1.376A1.376,1.376,0,1,0,1.376,0h0A1.377,1.377,0,0,0,0,1.376" fill="#ff8e7c"/>
              <g id="Grupo_1068106" data-name="Grupo 1068106" clip-path="url(#clip-path-2)">
                <g id="Group_881455" data-name="Group 881455" transform="translate(0 0)">
                  <rect id="Rectangle_298910" data-name="Rectangle 298910" width="2.751" height="2.751" fill="#ff8e7c"/>
                </g>
              </g>
            </g>
          </g>
          <g id="Group_881458" data-name="Group 881458" transform="translate(0 0)">
            <g id="Grupo_1068109" data-name="Grupo 1068109">
              <path id="Trazado_814209" data-name="Trazado 814209" d="M1.375,0A1.375,1.375,0,1,0,2.751,1.376,1.375,1.375,0,0,0,1.375,0Z" fill="#ff8e7c"/>
              <g id="Grupo_1068108" data-name="Grupo 1068108" clip-path="url(#clip-path-3)">
                <g id="Group_881457" data-name="Group 881457" transform="translate(0 0)">
                  <rect id="Rectangle_298911" data-name="Rectangle 298911" width="2.751" height="2.75" fill="#ff8e7c"/>
                </g>
              </g>
            </g>
          </g>
          <g id="Group_881460" data-name="Group 881460" transform="translate(9.322 22.353)">
            <g id="Grupo_1068111" data-name="Grupo 1068111" transform="translate(0 0)">
              <path id="Trazado_814211" data-name="Trazado 814211" d="M0,1.376A1.375,1.375,0,1,0,1.375,0,1.375,1.375,0,0,0,0,1.376" fill="#ff8e7c"/>
              <g id="Grupo_1068110" data-name="Grupo 1068110" clip-path="url(#clip-path-4)">
                <g id="Group_881459" data-name="Group 881459" transform="translate(0 0)">
                  <rect id="Rectangle_298912" data-name="Rectangle 298912" width="2.751" height="2.751" fill="#ff8e7c"/>
                </g>
              </g>
            </g>
          </g>
          <g id="Group_881462" data-name="Group 881462" transform="translate(9.322 11.634)">
            <g id="Grupo_1068113" data-name="Grupo 1068113" transform="translate(0 0)">
              <path id="Trazado_814213" data-name="Trazado 814213" d="M0,1.376A1.375,1.375,0,1,0,1.375,0,1.375,1.375,0,0,0,0,1.376" fill="#ff8e7c"/>
              <g id="Grupo_1068112" data-name="Grupo 1068112" clip-path="url(#clip-path-4)">
                <g id="Group_881461" data-name="Group 881461" transform="translate(0 0)">
                  <rect id="Rectangle_298913" data-name="Rectangle 298913" width="2.751" height="2.751" fill="#ff8e7c"/>
                </g>
              </g>
            </g>
          </g>
          <g id="Group_881464" data-name="Group 881464" transform="translate(9.323 0)">
            <g id="Grupo_1068115" data-name="Grupo 1068115" transform="translate(0)">
              <path id="Trazado_814215" data-name="Trazado 814215" d="M1.375,0A1.375,1.375,0,1,0,2.75,1.376,1.375,1.375,0,0,0,1.375,0Z" fill="#ff8e7c"/>
              <g id="Grupo_1068114" data-name="Grupo 1068114" clip-path="url(#clip-path-6)">
                <g id="Group_881463" data-name="Group 881463" transform="translate(-0.001 0)">
                  <rect id="Rectangle_298914" data-name="Rectangle 298914" width="2.751" height="2.75" fill="#ff8e7c"/>
                </g>
              </g>
            </g>
          </g>
          <g id="Group_881454-2" data-name="Group 881454" transform="translate(19.047 22.353)">
            <g id="Grupo_1068117" data-name="Grupo 1068117" transform="translate(0 0)">
              <path id="Trazado_814217" data-name="Trazado 814217" d="M0,1.376A1.376,1.376,0,1,0,1.375,0,1.376,1.376,0,0,0,0,1.376" fill="#ff8e7c"/>
              <g id="Grupo_1068116" data-name="Grupo 1068116" clip-path="url(#clip-path-7)">
                <g id="Group_881453-2" data-name="Group 881453" transform="translate(0 0)">
                  <rect id="Rectangle_298909-2" data-name="Rectangle 298909" width="2.751" height="2.751" fill="#ff8e7c"/>
                </g>
              </g>
            </g>
          </g>
          <g id="Group_881456-2" data-name="Group 881456" transform="translate(19.047 11.634)">
            <g id="Grupo_1068119" data-name="Grupo 1068119" transform="translate(0 0)">
              <path id="Trazado_814219" data-name="Trazado 814219" d="M0,1.376A1.376,1.376,0,1,0,1.376,0h0A1.377,1.377,0,0,0,0,1.376" fill="#ff8e7c"/>
              <g id="Grupo_1068118" data-name="Grupo 1068118" clip-path="url(#clip-path-2)">
                <g id="Group_881455-2" data-name="Group 881455" transform="translate(0 0)">
                  <rect id="Rectangle_298910-2" data-name="Rectangle 298910" width="2.751" height="2.751" fill="#ff8e7c"/>
                </g>
              </g>
            </g>
          </g>
          <g id="Group_881458-2" data-name="Group 881458" transform="translate(19.048 0)">
            <g id="Grupo_1068121" data-name="Grupo 1068121" transform="translate(0)">
              <path id="Trazado_814221" data-name="Trazado 814221" d="M1.375,0A1.375,1.375,0,1,0,2.75,1.376,1.375,1.375,0,0,0,1.375,0Z" fill="#ff8e7c"/>
              <g id="Grupo_1068120" data-name="Grupo 1068120" clip-path="url(#clip-path-6)">
                <g id="Group_881457-2" data-name="Group 881457" transform="translate(0 0)">
                  <rect id="Rectangle_298911-2" data-name="Rectangle 298911" width="2.751" height="2.75" fill="#ff8e7c"/>
                </g>
              </g>
            </g>
          </g>
          <g id="Group_881460-2" data-name="Group 881460" transform="translate(28.37 22.353)">
            <g id="Grupo_1068123" data-name="Grupo 1068123" transform="translate(0 0)">
              <path id="Trazado_814223" data-name="Trazado 814223" d="M0,1.376A1.375,1.375,0,1,0,1.375,0,1.375,1.375,0,0,0,0,1.376" fill="#ff8e7c"/>
              <g id="Grupo_1068122" data-name="Grupo 1068122" clip-path="url(#clip-path-4)">
                <g id="Group_881459-2" data-name="Group 881459" transform="translate(0 0)">
                  <rect id="Rectangle_298912-2" data-name="Rectangle 298912" width="2.751" height="2.751" fill="#ff8e7c"/>
                </g>
              </g>
            </g>
          </g>
          <g id="Group_881462-2" data-name="Group 881462" transform="translate(28.37 11.634)">
            <g id="Grupo_1068125" data-name="Grupo 1068125" transform="translate(0 0)">
              <path id="Trazado_814225" data-name="Trazado 814225" d="M0,1.376A1.375,1.375,0,1,0,1.375,0,1.375,1.375,0,0,0,0,1.376" fill="#ff8e7c"/>
              <g id="Grupo_1068124" data-name="Grupo 1068124" clip-path="url(#clip-path-4)">
                <g id="Group_881461-2" data-name="Group 881461" transform="translate(0 0)">
                  <rect id="Rectangle_298913-2" data-name="Rectangle 298913" width="2.751" height="2.751" fill="#ff8e7c"/>
                </g>
              </g>
            </g>
          </g>
          <g id="Group_881464-2" data-name="Group 881464" transform="translate(28.37 0)">
            <g id="Grupo_1068127" data-name="Grupo 1068127" transform="translate(0)">
              <path id="Trazado_814227" data-name="Trazado 814227" d="M1.375,0A1.375,1.375,0,1,0,2.75,1.376,1.375,1.375,0,0,0,1.375,0Z" fill="#ff8e7c"/>
              <g id="Grupo_1068126" data-name="Grupo 1068126" clip-path="url(#clip-path-6)">
                <g id="Group_881463-2" data-name="Group 881463" transform="translate(0 0)">
                  <rect id="Rectangle_298914-2" data-name="Rectangle 298914" width="2.751" height="2.75" fill="#ff8e7c"/>
                </g>
              </g>
            </g>
          </g>
        </g>
        <g id="Grupo_1068153" data-name="Grupo 1068153" transform="translate(0 12.29)">
          <g id="Group_881454-3" data-name="Group 881454" transform="translate(0 27.192)">
            <g id="Grupo_1068130" data-name="Grupo 1068130">
              <path id="Trazado_814229" data-name="Trazado 814229" d="M1074.25,1088.088a1.673,1.673,0,1,0,1.673-1.674,1.673,1.673,0,0,0-1.673,1.674" transform="translate(-1074.25 -1086.414)" fill="#ffb476"/>
              <g id="Grupo_1068129" data-name="Grupo 1068129" clip-path="url(#clip-path-13)">
                <g id="Group_881453-3" data-name="Group 881453" transform="translate(0 0)">
                  <rect id="Rectangle_298909-3" data-name="Rectangle 298909" width="3.346" height="3.346" fill="#ffb476"/>
                </g>
              </g>
            </g>
          </g>
          <g id="Group_881456-3" data-name="Group 881456" transform="translate(0 14.152)">
            <g id="Grupo_1068132" data-name="Grupo 1068132">
              <path id="Trazado_814231" data-name="Trazado 814231" d="M1074.25,1053.176a1.673,1.673,0,1,0,1.673-1.673h0a1.675,1.675,0,0,0-1.673,1.673" transform="translate(-1074.25 -1051.503)" fill="#ffb476"/>
              <g id="Grupo_1068131" data-name="Grupo 1068131" clip-path="url(#clip-path-14)">
                <g id="Group_881455-3" data-name="Group 881455" transform="translate(0 0)">
                  <rect id="Rectangle_298910-3" data-name="Rectangle 298910" width="3.346" height="3.346" fill="#ffb476"/>
                </g>
              </g>
            </g>
          </g>
          <g id="Group_881458-3" data-name="Group 881458" transform="translate(0 0)">
            <g id="Grupo_1068134" data-name="Grupo 1068134">
              <path id="Trazado_814233" data-name="Trazado 814233" d="M1075.924,1013.613a1.673,1.673,0,1,0,1.673,1.674A1.673,1.673,0,0,0,1075.924,1013.613Z" transform="translate(-1074.251 -1013.613)" fill="#ffb476"/>
              <g id="Grupo_1068133" data-name="Grupo 1068133" clip-path="url(#clip-path-15)">
                <g id="Group_881457-3" data-name="Group 881457" transform="translate(0 0)">
                  <rect id="Rectangle_298911-3" data-name="Rectangle 298911" width="3.346" height="3.346" fill="#ffb476"/>
                </g>
              </g>
            </g>
          </g>
          <g id="Group_881460-3" data-name="Group 881460" transform="translate(11.34 27.192)">
            <g id="Grupo_1068136" data-name="Grupo 1068136">
              <path id="Trazado_814235" data-name="Trazado 814235" d="M1104.611,1088.088a1.673,1.673,0,1,0,1.673-1.674,1.672,1.672,0,0,0-1.673,1.674" transform="translate(-1104.611 -1086.414)" fill="#ffb476"/>
              <g id="Grupo_1068135" data-name="Grupo 1068135" clip-path="url(#clip-path-16)">
                <g id="Group_881459-3" data-name="Group 881459" transform="translate(0 0)">
                  <rect id="Rectangle_298912-3" data-name="Rectangle 298912" width="3.346" height="3.346" fill="#ffb476"/>
                </g>
              </g>
            </g>
          </g>
          <g id="Group_881462-3" data-name="Group 881462" transform="translate(11.34 14.152)">
            <g id="Grupo_1068138" data-name="Grupo 1068138">
              <path id="Trazado_814237" data-name="Trazado 814237" d="M1104.611,1053.176a1.673,1.673,0,1,0,1.673-1.673,1.673,1.673,0,0,0-1.673,1.673" transform="translate(-1104.611 -1051.503)" fill="#ffb476"/>
              <g id="Grupo_1068137" data-name="Grupo 1068137" clip-path="url(#clip-path-17)">
                <g id="Group_881461-3" data-name="Group 881461" transform="translate(0 0)">
                  <rect id="Rectangle_298913-3" data-name="Rectangle 298913" width="3.346" height="3.346" fill="#ffb476"/>
                </g>
              </g>
            </g>
          </g>
          <g id="Group_881464-3" data-name="Group 881464" transform="translate(11.341 0)">
            <g id="Grupo_1068140" data-name="Grupo 1068140">
              <path id="Trazado_814239" data-name="Trazado 814239" d="M1106.285,1013.613a1.673,1.673,0,1,0,1.673,1.673A1.672,1.672,0,0,0,1106.285,1013.613Z" transform="translate(-1104.613 -1013.613)" fill="#ffb476"/>
              <g id="Grupo_1068139" data-name="Grupo 1068139" clip-path="url(#clip-path-18)">
                <g id="Group_881463-3" data-name="Group 881463" transform="translate(-0.001 0)">
                  <rect id="Rectangle_298914-3" data-name="Rectangle 298914" width="3.346" height="3.346" fill="#ffb476"/>
                </g>
              </g>
            </g>
          </g>
          <g id="Group_881454-4" data-name="Group 881454" transform="translate(23.171 27.192)">
            <g id="Grupo_1068142" data-name="Grupo 1068142">
              <path id="Trazado_814241" data-name="Trazado 814241" d="M1136.285,1088.088a1.674,1.674,0,1,0,1.673-1.674,1.674,1.674,0,0,0-1.673,1.674" transform="translate(-1136.285 -1086.414)" fill="#ffb476"/>
              <g id="Grupo_1068141" data-name="Grupo 1068141" clip-path="url(#clip-path-19)">
                <g id="Group_881453-4" data-name="Group 881453" transform="translate(0 0)">
                  <rect id="Rectangle_298909-4" data-name="Rectangle 298909" width="3.346" height="3.346" fill="#ffb476"/>
                </g>
              </g>
            </g>
          </g>
          <g id="Group_881456-4" data-name="Group 881456" transform="translate(23.171 14.152)">
            <g id="Grupo_1068144" data-name="Grupo 1068144">
              <path id="Trazado_814243" data-name="Trazado 814243" d="M1136.285,1053.176a1.674,1.674,0,1,0,1.674-1.673h0a1.676,1.676,0,0,0-1.673,1.673" transform="translate(-1136.285 -1051.503)" fill="#ffb476"/>
              <g id="Grupo_1068143" data-name="Grupo 1068143" clip-path="url(#clip-path-20)">
                <g id="Group_881455-4" data-name="Group 881455" transform="translate(0 0)">
                  <rect id="Rectangle_298910-4" data-name="Rectangle 298910" width="3.346" height="3.346" fill="#ffb476"/>
                </g>
              </g>
            </g>
          </g>
          <g id="Group_881458-4" data-name="Group 881458" transform="translate(23.171 0)">
            <g id="Grupo_1068146" data-name="Grupo 1068146">
              <path id="Trazado_814245" data-name="Trazado 814245" d="M1137.959,1013.613a1.673,1.673,0,1,0,1.673,1.674A1.673,1.673,0,0,0,1137.959,1013.613Z" transform="translate(-1136.287 -1013.613)" fill="#ffb476"/>
              <g id="Grupo_1068145" data-name="Grupo 1068145" clip-path="url(#clip-path-21)">
                <g id="Group_881457-4" data-name="Group 881457" transform="translate(-0.001 0)">
                  <rect id="Rectangle_298911-4" data-name="Rectangle 298911" width="3.346" height="3.346" fill="#ffb476"/>
                </g>
              </g>
            </g>
          </g>
          <g id="Group_881460-4" data-name="Group 881460" transform="translate(34.511 27.192)">
            <g id="Grupo_1068148" data-name="Grupo 1068148">
              <path id="Trazado_814247" data-name="Trazado 814247" d="M1166.647,1088.088a1.673,1.673,0,1,0,1.672-1.674,1.672,1.672,0,0,0-1.672,1.674" transform="translate(-1166.647 -1086.414)" fill="#ffb476"/>
              <g id="Grupo_1068147" data-name="Grupo 1068147" clip-path="url(#clip-path-22)">
                <g id="Group_881459-4" data-name="Group 881459" transform="translate(0 0)">
                  <rect id="Rectangle_298912-4" data-name="Rectangle 298912" width="3.346" height="3.346" fill="#ffb476"/>
                </g>
              </g>
            </g>
          </g>
          <g id="Group_881462-4" data-name="Group 881462" transform="translate(34.511 14.152)">
            <g id="Grupo_1068150" data-name="Grupo 1068150">
              <path id="Trazado_814249" data-name="Trazado 814249" d="M1166.647,1053.176a1.673,1.673,0,1,0,1.672-1.673,1.672,1.672,0,0,0-1.672,1.673" transform="translate(-1166.647 -1051.503)" fill="#ffb476"/>
              <g id="Grupo_1068149" data-name="Grupo 1068149" clip-path="url(#clip-path-23)">
                <g id="Group_881461-4" data-name="Group 881461" transform="translate(0 0)">
                  <rect id="Rectangle_298913-4" data-name="Rectangle 298913" width="3.346" height="3.346" fill="#ffb476"/>
                </g>
              </g>
            </g>
          </g>
          <g id="Group_881464-4" data-name="Group 881464" transform="translate(34.511 0)">
            <g id="Grupo_1068152" data-name="Grupo 1068152">
              <path id="Trazado_814251" data-name="Trazado 814251" d="M1168.32,1013.613a1.673,1.673,0,1,0,1.673,1.673A1.672,1.672,0,0,0,1168.32,1013.613Z" transform="translate(-1166.648 -1013.613)" fill="#ffb476"/>
              <g id="Grupo_1068151" data-name="Grupo 1068151" clip-path="url(#clip-path-24)">
                <g id="Group_881463-4" data-name="Group 881463" transform="translate(0 0)">
                  <rect id="Rectangle_298914-4" data-name="Rectangle 298914" width="3.346" height="3.346" fill="#ffb476"/>
                </g>
              </g>
            </g>
          </g>
        </g>
        <rect id="Rectángulo_374064" data-name="Rectángulo 374064" width="5.919" height="31.089" rx="2.96" transform="translate(124.661 6.203) rotate(45)" fill="#ffb476"/>
        <rect id="Rectángulo_374066" data-name="Rectángulo 374066" width="3.992" height="26.272" rx="1.996" transform="translate(35.034 104.187) rotate(45)" fill="#ffb476"/>
      </g>
    </g>
    <g id="database" transform="translate(35.272 24.843)">
      <path id="Trazado_814342" data-name="Trazado 814342" d="M49.384,28V40.884c0,3.556-10.385,6.442-23.192,6.442S3,44.44,3,40.884V28c0,3.556,10.385,6.442,23.192,6.442S49.384,31.556,49.384,28Z" transform="translate(-1.712 5.499)" fill="#c0ab91"/>
      <path id="Trazado_814343" data-name="Trazado 814343" d="M67.346,34.038v7.731l-5.875.979a16.86,16.86,0,0,1-1.263,3.066l3.453,4.845L58.2,56.122,54.088,53.2a2.6,2.6,0,0,0,1.662-2.409V40.48a2.538,2.538,0,0,0-.142-.837A11.054,11.054,0,0,0,55.75,37.9,10.307,10.307,0,0,0,39,29.864V22.442a16.762,16.762,0,0,1,1.6-.567L41.577,16h7.731l.979,5.875a16.86,16.86,0,0,1,3.066,1.263L58.2,19.685l5.463,5.463-3.453,4.845a16.861,16.861,0,0,1,1.263,3.066Z" transform="translate(8.672 2.038)" fill="#ffeb99"/>
      <rect id="Rectángulo_374071" data-name="Rectángulo 374071" width="51.434" height="15.692" rx="2" transform="translate(13.077 60.742)" fill="#57a4ff"/>
      <path id="Trazado_814344" data-name="Trazado 814344" d="M53.731,51.577V61.884a2.585,2.585,0,0,1-2.577,2.577H46a2.585,2.585,0,0,0,2.577-2.577V51.577A2.585,2.585,0,0,0,46,49h5.154A2.585,2.585,0,0,1,53.731,51.577Z" transform="translate(10.691 11.557)" fill="#2488ff"/>
      <path id="Trazado_814345" data-name="Trazado 814345" d="M55.75,35.306a11.053,11.053,0,0,1-.142,1.739,2.594,2.594,0,0,0-2.435-1.739H39v-8.04a10.307,10.307,0,0,1,16.75,8.04Z" transform="translate(8.672 4.635)" fill="#c6c5ca"/>
      <path id="Trazado_814346" data-name="Trazado 814346" d="M54.879,35.307a11.054,11.054,0,0,1-.142,1.739A2.594,2.594,0,0,0,52.3,35.307H49.725a10.329,10.329,0,0,0-7.7-9.985,10.307,10.307,0,0,1,12.859,9.985Z" transform="translate(9.543 4.634)" fill="#acabb1"/>
      <path id="Trazado_814347" data-name="Trazado 814347" d="M42,45h7.731v5.154H42Z" transform="translate(9.537 10.403)" fill="#c6c5ca"/>
      <path id="Trazado_814348" data-name="Trazado 814348" d="M49.384,18V30.884c0,3.556-10.385,6.442-23.192,6.442S3,34.44,3,30.884V18c0,3.556,10.385,6.442,23.192,6.442S49.384,21.556,49.384,18Z" transform="translate(-1.712 2.615)" fill="#c0ab91"/>
      <path id="Trazado_814349" data-name="Trazado 814349" d="M49.384,8V20.884c0,3.556-10.385,6.442-23.192,6.442S3,24.44,3,20.884V8c0,3.556,10.385,6.442,23.192,6.442S49.384,11.556,49.384,8Z" transform="translate(-1.712 -0.269)" fill="#c0ab91"/>
      <ellipse id="Elipse_9071" data-name="Elipse 9071" cx="23.538" cy="6.538" rx="23.538" ry="6.538" transform="translate(0.872 1.462)" fill="#ffcd00"/>
      <g id="Grupo_1068240" data-name="Grupo 1068240" transform="translate(21.903 7.731)">
        <path id="Trazado_814350" data-name="Trazado 814350" d="M44.769,28V40.884c0,3.556-10.385,6.442-23.192,6.442-.876,0-1.727-.013-2.577-.052,11.6-.348,20.615-3.079,20.615-6.391V32.046C42.836,30.938,44.769,29.533,44.769,28Z" transform="translate(-19 -2.231)" fill="#b39a7c"/>
        <path id="Trazado_814351" data-name="Trazado 814351" d="M40.154,18V30.884c0,1.533-1.933,2.938-5.154,4.046V22.046C38.221,20.938,40.154,19.533,40.154,18Z" transform="translate(-14.385 -5.116)" fill="#b39a7c"/>
        <path id="Trazado_814352" data-name="Trazado 814352" d="M40.154,8V20.884c0,1.533-1.933,2.938-5.154,4.046V12.046C38.221,10.938,40.154,9.533,40.154,8Z" transform="translate(-14.385 -8)" fill="#b39a7c"/>
      </g>
      <path id="Trazado_814353" data-name="Trazado 814353" d="M44.769,9.442c0,3.556-10.385,6.442-23.192,6.442-.876,0-1.727-.013-2.577-.052,11.6-.348,20.615-3.079,20.615-6.391S30.6,3.4,19,3.052C19.85,3.013,20.7,3,21.577,3,34.384,3,44.769,5.886,44.769,9.442Z" transform="translate(2.903 -1.712)" fill="#ebbf00"/>
      <path id="Trazado_814354" data-name="Trazado 814354" d="M24,53h5.154v5.154H24Z" transform="translate(4.346 12.71)" fill="#ffeb99"/>
      <rect id="Rectángulo_374072" data-name="Rectángulo 374072" width="51.434" height="15.692" rx="2" transform="translate(13.077 39.82)" fill="#57a4ff"/>
      <path id="Trazado_814355" data-name="Trazado 814355" d="M53.731,35.577V45.884a2.585,2.585,0,0,1-2.577,2.577H46a2.585,2.585,0,0,0,2.577-2.577V35.577A2.585,2.585,0,0,0,46,33h5.154A2.585,2.585,0,0,1,53.731,35.577Z" transform="translate(10.691 6.942)" fill="#2488ff"/>
      <path id="Trazado_814356" data-name="Trazado 814356" d="M24,37h5.154v5.154H24Z" transform="translate(4.346 8.095)" fill="#ffeb99"/>
      <path id="Trazado_814357" data-name="Trazado 814357" d="M16,45h7.731v5.154H16Z" transform="translate(2.038 10.403)" fill="#c6c5ca"/>
      <path id="Trazado_814358" data-name="Trazado 814358" d="M16,53h5.154v5.154H16Z" transform="translate(2.038 12.71)" fill="#ffeb99"/>
      <path id="Trazado_814359" data-name="Trazado 814359" d="M16,37h5.154v5.154H16Z" transform="translate(2.038 8.095)" fill="#ffeb99"/>
      <path id="Trazado_814360" data-name="Trazado 814360" d="M21.442,36H16.288A1.288,1.288,0,0,0,15,37.288v5.154a1.288,1.288,0,0,0,1.288,1.288h5.154a1.288,1.288,0,0,0,1.288-1.288V37.288A1.288,1.288,0,0,0,21.442,36Zm-1.288,5.154H17.577V38.577h2.577Z" transform="translate(1.75 7.807)"/>
      <path id="Trazado_814361" data-name="Trazado 814361" d="M29.442,36H24.288A1.288,1.288,0,0,0,23,37.288v5.154a1.288,1.288,0,0,0,1.288,1.288h5.154a1.288,1.288,0,0,0,1.288-1.288V37.288A1.288,1.288,0,0,0,29.442,36Zm-1.288,5.154H25.577V38.577h2.577Z" transform="translate(4.057 7.807)"/>
      <path id="Trazado_814362" data-name="Trazado 814362" d="M31,36H49.038v2.577H31Z" transform="translate(6.365 7.807)"/>
      <path id="Trazado_814363" data-name="Trazado 814363" d="M47,36h2.577v2.577H47Z" transform="translate(10.98 7.807)"/>
      <path id="Trazado_814364" data-name="Trazado 814364" d="M31,40H49.038v2.577H31Z" transform="translate(6.365 8.961)"/>
      <path id="Trazado_814365" data-name="Trazado 814365" d="M47,40h2.577v2.577H47Z" transform="translate(10.98 8.961)"/>
      <path id="Trazado_814366" data-name="Trazado 814366" d="M16.288,59.731h5.154a1.288,1.288,0,0,0,1.288-1.288V53.288A1.288,1.288,0,0,0,21.442,52H16.288A1.288,1.288,0,0,0,15,53.288v5.154A1.288,1.288,0,0,0,16.288,59.731Zm1.288-5.154h2.577v2.577H17.577Z" transform="translate(1.75 12.422)"/>
      <path id="Trazado_814367" data-name="Trazado 814367" d="M24.288,59.731h5.154a1.288,1.288,0,0,0,1.288-1.288V53.288A1.288,1.288,0,0,0,29.442,52H24.288A1.288,1.288,0,0,0,23,53.288v5.154A1.288,1.288,0,0,0,24.288,59.731Zm1.288-5.154h2.577v2.577H25.577Z" transform="translate(4.057 12.422)"/>
      <path id="Trazado_814368" data-name="Trazado 814368" d="M31,52H49.038v2.577H31Z" transform="translate(6.365 12.422)"/>
      <path id="Trazado_814369" data-name="Trazado 814369" d="M47,52h2.577v2.577H47Z" transform="translate(10.98 12.422)"/>
      <path id="Trazado_814370" data-name="Trazado 814370" d="M31,56H49.038v2.577H31Z" transform="translate(6.365 13.576)"/>
      <path id="Trazado_814371" data-name="Trazado 814371" d="M47,56h2.577v2.577H47Z" transform="translate(10.98 13.576)"/>
      <path id="Trazado_814372" data-name="Trazado 814372" d="M78.224,36.8l-5.1-.85a14.754,14.754,0,0,0-.747-1.8l3-4.213a1.288,1.288,0,0,0-.129-1.662l-5.463-5.463a1.288,1.288,0,0,0-1.662-.129l-4.213,3a18.329,18.329,0,0,0-1.8-.747l-.85-5.1A1.288,1.288,0,0,0,59.98,18.75H52.249a1.288,1.288,0,0,0-1.276,1.082l-.013.1V9.731C50.961,4.654,38.643,2,26.48,2S2,4.654,2,9.731V48.384c0,3.9,6.854,5.811,11.622,6.674a3.854,3.854,0,0,0,3.84,3.633H18.75v2.577H17.461A3.877,3.877,0,0,0,13.6,65.133V75.441a3.877,3.877,0,0,0,3.865,3.865H63.845a3.877,3.877,0,0,0,3.865-3.865V65.133a3.877,3.877,0,0,0-3.865-3.865H62.557V58.691h1.288a3.522,3.522,0,0,0,.644-.064l3.633,2.59a1.342,1.342,0,0,0,.747.232,1.319,1.319,0,0,0,.915-.374l5.463-5.463a1.288,1.288,0,0,0,.129-1.662l-3-4.213a14.752,14.752,0,0,0,.747-1.8l5.1-.85a1.288,1.288,0,0,0,1.082-1.276V38.076A1.288,1.288,0,0,0,78.224,36.8ZM50.961,34.585a8.966,8.966,0,0,1,14.108,6.288,3.881,3.881,0,0,0-1.224-.219H50.961ZM26.48,4.577c14.173,0,21.9,3.4,21.9,5.154s-7.731,5.154-21.9,5.154-21.9-3.4-21.9-5.154S12.307,4.577,26.48,4.577Zm-21.9,8.787c4.239,2.693,13.091,4.1,21.9,4.1s17.664-1.4,21.9-4.1v9.251c0,1.752-7.731,5.154-21.9,5.154s-21.9-3.4-21.9-5.154ZM13.6,44.518v7.911c-6.532-1.237-9.019-3.105-9.019-4.046V39.133a27.678,27.678,0,0,0,9.741,3.144,3.846,3.846,0,0,0-.722,2.242ZM4.577,35.5V26.248c4.239,2.693,13.091,4.1,21.9,4.1s17.664-1.4,21.9-4.1V35.5c0,1.752-7.731,5.154-21.9,5.154S4.577,37.252,4.577,35.5Zm43.807,3.633v1.52h-3.2a16.065,16.065,0,0,0,3.2-1.52ZM63.845,63.845a1.288,1.288,0,0,1,1.288,1.288V75.441a1.288,1.288,0,0,1-1.288,1.288H17.461a1.288,1.288,0,0,1-1.288-1.288V65.133a1.288,1.288,0,0,1,1.288-1.288ZM21.327,61.268V58.691H26.48v2.577Zm7.731,0V58.691H52.249v2.577Zm25.769,0V58.691H59.98v2.577Zm10.307-6.442a1.288,1.288,0,0,1-1.288,1.288H17.461a1.288,1.288,0,0,1-1.288-1.288V44.518a1.288,1.288,0,0,1,1.288-1.288H63.845a1.288,1.288,0,0,1,1.288,1.288Zm11.6-10.114-4.793.8a1.321,1.321,0,0,0-1.031.9,15.216,15.216,0,0,1-1.16,2.835,1.257,1.257,0,0,0,.09,1.353l2.809,3.955-3.917,3.917-1.83-1.3a3.829,3.829,0,0,0,.812-2.345V44.518a3.664,3.664,0,0,0-.129-.928,12.006,12.006,0,0,0,.129-1.649A11.57,11.57,0,0,0,50.961,31.57V27.4a6.35,6.35,0,0,1,.7-.245,1.325,1.325,0,0,0,.889-1.031l.8-4.793h5.54l.8,4.793a1.321,1.321,0,0,0,.9,1.031,15.59,15.59,0,0,1,2.835,1.16,1.288,1.288,0,0,0,1.353-.09l3.956-2.809,3.917,3.917-2.809,3.955a1.258,1.258,0,0,0-.09,1.353,15.216,15.216,0,0,1,1.16,2.835,1.321,1.321,0,0,0,1.031.9l4.793.8Z" transform="translate(-2 -2)"/>
      <path id="Trazado_814373" data-name="Trazado 814373" d="M6.577,48H4V58.307A1.288,1.288,0,0,0,5.288,59.6h5.154V57.019H6.577Z" transform="translate(-1.423 11.268)"/>
      <path id="Trazado_814374" data-name="Trazado 814374" d="M65.615,4H45V6.577H64.327V18.928l-3.488,3.488,1.822,1.822,3.865-3.865a1.288,1.288,0,0,0,.378-.911V5.288A1.288,1.288,0,0,0,65.615,4Z" transform="translate(10.403 -1.423)"/>
      <path id="Trazado_814375" data-name="Trazado 814375" d="M41,4h2.577V6.577H41Z" transform="translate(9.249 -1.423)"/>
      <path id="Trazado_814376" data-name="Trazado 814376" d="M4,44H6.577v2.577H4Z" transform="translate(-1.423 10.114)"/>
    </g>
  </g>
</svg>
