<svg xmlns="http://www.w3.org/2000/svg" xmlns:xlink="http://www.w3.org/1999/xlink" width="134.388" height="126.993" viewBox="0 0 134.388 126.993">
  <defs>
    <clipPath id="clip-path">
      <path id="Trazado_814206" data-name="Trazado 814206" d="M0,1.376A1.376,1.376,0,1,0,1.375,0,1.375,1.375,0,0,0,0,1.376" fill="#ff8e7c"/>
    </clipPath>
    <clipPath id="clip-path-2">
      <path id="Trazado_814208" data-name="Trazado 814208" d="M0,1.376A1.376,1.376,0,1,0,1.376,0h0A1.377,1.377,0,0,0,0,1.376" fill="#ff8e7c"/>
    </clipPath>
    <clipPath id="clip-path-3">
      <path id="Trazado_814210" data-name="Trazado 814210" d="M1.375,0A1.375,1.375,0,1,0,2.751,1.376,1.375,1.375,0,0,0,1.375,0Z" fill="#ff8e7c"/>
    </clipPath>
    <clipPath id="clip-path-4">
      <path id="Trazado_814212" data-name="Trazado 814212" d="M0,1.376A1.375,1.375,0,1,0,1.375,0,1.375,1.375,0,0,0,0,1.376" fill="#ff8e7c"/>
    </clipPath>
    <clipPath id="clip-path-6">
      <path id="Trazado_814216" data-name="Trazado 814216" d="M1.375,0A1.375,1.375,0,1,0,2.75,1.376,1.375,1.375,0,0,0,1.375,0Z" fill="#ff8e7c"/>
    </clipPath>
    <clipPath id="clip-path-7">
      <path id="Trazado_814218" data-name="Trazado 814218" d="M0,1.376A1.376,1.376,0,1,0,1.375,0,1.376,1.376,0,0,0,0,1.376" fill="#ff8e7c"/>
    </clipPath>
    <clipPath id="clip-path-13">
      <path id="Trazado_814230" data-name="Trazado 814230" d="M1074.25,1088.088a1.673,1.673,0,1,0,1.673-1.674,1.673,1.673,0,0,0-1.673,1.674" transform="translate(-1074.25 -1086.414)" fill="#ffb476"/>
    </clipPath>
    <clipPath id="clip-path-14">
      <path id="Trazado_814232" data-name="Trazado 814232" d="M1074.25,1053.176a1.673,1.673,0,1,0,1.673-1.673h0a1.675,1.675,0,0,0-1.673,1.673" transform="translate(-1074.25 -1051.503)" fill="#ffb476"/>
    </clipPath>
    <clipPath id="clip-path-15">
      <path id="Trazado_814234" data-name="Trazado 814234" d="M1075.924,1013.613a1.673,1.673,0,1,0,1.673,1.674A1.673,1.673,0,0,0,1075.924,1013.613Z" transform="translate(-1074.251 -1013.613)" fill="#ffb476"/>
    </clipPath>
    <clipPath id="clip-path-16">
      <path id="Trazado_814236" data-name="Trazado 814236" d="M1104.611,1088.088a1.673,1.673,0,1,0,1.673-1.674,1.672,1.672,0,0,0-1.673,1.674" transform="translate(-1104.611 -1086.414)" fill="#ffb476"/>
    </clipPath>
    <clipPath id="clip-path-17">
      <path id="Trazado_814238" data-name="Trazado 814238" d="M1104.611,1053.176a1.673,1.673,0,1,0,1.673-1.673,1.673,1.673,0,0,0-1.673,1.673" transform="translate(-1104.611 -1051.503)" fill="#ffb476"/>
    </clipPath>
    <clipPath id="clip-path-18">
      <path id="Trazado_814240" data-name="Trazado 814240" d="M1106.285,1013.613a1.673,1.673,0,1,0,1.673,1.673A1.672,1.672,0,0,0,1106.285,1013.613Z" transform="translate(-1104.613 -1013.613)" fill="#ffb476"/>
    </clipPath>
    <clipPath id="clip-path-19">
      <path id="Trazado_814242" data-name="Trazado 814242" d="M1136.285,1088.088a1.674,1.674,0,1,0,1.673-1.674,1.674,1.674,0,0,0-1.673,1.674" transform="translate(-1136.285 -1086.414)" fill="#ffb476"/>
    </clipPath>
    <clipPath id="clip-path-20">
      <path id="Trazado_814244" data-name="Trazado 814244" d="M1136.285,1053.176a1.674,1.674,0,1,0,1.674-1.673h0a1.676,1.676,0,0,0-1.673,1.673" transform="translate(-1136.285 -1051.503)" fill="#ffb476"/>
    </clipPath>
    <clipPath id="clip-path-21">
      <path id="Trazado_814246" data-name="Trazado 814246" d="M1137.959,1013.613a1.673,1.673,0,1,0,1.673,1.674A1.673,1.673,0,0,0,1137.959,1013.613Z" transform="translate(-1136.287 -1013.613)" fill="#ffb476"/>
    </clipPath>
    <clipPath id="clip-path-22">
      <path id="Trazado_814248" data-name="Trazado 814248" d="M1166.647,1088.088a1.673,1.673,0,1,0,1.672-1.674,1.672,1.672,0,0,0-1.672,1.674" transform="translate(-1166.647 -1086.414)" fill="#ffb476"/>
    </clipPath>
    <clipPath id="clip-path-23">
      <path id="Trazado_814250" data-name="Trazado 814250" d="M1166.647,1053.176a1.673,1.673,0,1,0,1.672-1.673,1.672,1.672,0,0,0-1.672,1.673" transform="translate(-1166.647 -1051.503)" fill="#ffb476"/>
    </clipPath>
    <clipPath id="clip-path-24">
      <path id="Trazado_814252" data-name="Trazado 814252" d="M1168.32,1013.613a1.673,1.673,0,1,0,1.673,1.673A1.672,1.672,0,0,0,1168.32,1013.613Z" transform="translate(-1166.648 -1013.613)" fill="#ffb476"/>
    </clipPath>
  </defs>
  <g id="Grupo_1068272" data-name="Grupo 1068272" transform="translate(0)">
    <g id="Grupo_1068156" data-name="Grupo 1068156" transform="translate(0 0)">
      <g id="Grupo_1068103" data-name="Grupo 1068103" transform="translate(0)">
        <path id="Trazado_814254" data-name="Trazado 814254" d="M63.5,0A63.5,63.5,0,1,1,0,63.5,63.5,63.5,0,0,1,63.5,0Z" transform="translate(7.396)" fill="#f77e6b"/>
        <g id="Grupo_1068128" data-name="Grupo 1068128" transform="translate(106.083 122.697) rotate(-90)">
          <g id="Group_881454" data-name="Group 881454" transform="translate(0 22.353)">
            <g id="Grupo_1068105" data-name="Grupo 1068105" transform="translate(0 0)">
              <path id="Trazado_814205" data-name="Trazado 814205" d="M0,1.376A1.376,1.376,0,1,0,1.375,0,1.375,1.375,0,0,0,0,1.376" fill="#ff8e7c"/>
              <g id="Grupo_1068104" data-name="Grupo 1068104" clip-path="url(#clip-path)">
                <g id="Group_881453" data-name="Group 881453" transform="translate(0 0)">
                  <rect id="Rectangle_298909" data-name="Rectangle 298909" width="2.751" height="2.751" fill="#ff8e7c"/>
                </g>
              </g>
            </g>
          </g>
          <g id="Group_881456" data-name="Group 881456" transform="translate(0 11.634)">
            <g id="Grupo_1068107" data-name="Grupo 1068107" transform="translate(0 0)">
              <path id="Trazado_814207" data-name="Trazado 814207" d="M0,1.376A1.376,1.376,0,1,0,1.376,0h0A1.377,1.377,0,0,0,0,1.376" fill="#ff8e7c"/>
              <g id="Grupo_1068106" data-name="Grupo 1068106" clip-path="url(#clip-path-2)">
                <g id="Group_881455" data-name="Group 881455" transform="translate(0 0)">
                  <rect id="Rectangle_298910" data-name="Rectangle 298910" width="2.751" height="2.751" fill="#ff8e7c"/>
                </g>
              </g>
            </g>
          </g>
          <g id="Group_881458" data-name="Group 881458" transform="translate(0 0)">
            <g id="Grupo_1068109" data-name="Grupo 1068109">
              <path id="Trazado_814209" data-name="Trazado 814209" d="M1.375,0A1.375,1.375,0,1,0,2.751,1.376,1.375,1.375,0,0,0,1.375,0Z" fill="#ff8e7c"/>
              <g id="Grupo_1068108" data-name="Grupo 1068108" clip-path="url(#clip-path-3)">
                <g id="Group_881457" data-name="Group 881457" transform="translate(0 0)">
                  <rect id="Rectangle_298911" data-name="Rectangle 298911" width="2.751" height="2.75" fill="#ff8e7c"/>
                </g>
              </g>
            </g>
          </g>
          <g id="Group_881460" data-name="Group 881460" transform="translate(9.322 22.353)">
            <g id="Grupo_1068111" data-name="Grupo 1068111" transform="translate(0 0)">
              <path id="Trazado_814211" data-name="Trazado 814211" d="M0,1.376A1.375,1.375,0,1,0,1.375,0,1.375,1.375,0,0,0,0,1.376" fill="#ff8e7c"/>
              <g id="Grupo_1068110" data-name="Grupo 1068110" clip-path="url(#clip-path-4)">
                <g id="Group_881459" data-name="Group 881459" transform="translate(0 0)">
                  <rect id="Rectangle_298912" data-name="Rectangle 298912" width="2.751" height="2.751" fill="#ff8e7c"/>
                </g>
              </g>
            </g>
          </g>
          <g id="Group_881462" data-name="Group 881462" transform="translate(9.322 11.634)">
            <g id="Grupo_1068113" data-name="Grupo 1068113" transform="translate(0 0)">
              <path id="Trazado_814213" data-name="Trazado 814213" d="M0,1.376A1.375,1.375,0,1,0,1.375,0,1.375,1.375,0,0,0,0,1.376" fill="#ff8e7c"/>
              <g id="Grupo_1068112" data-name="Grupo 1068112" clip-path="url(#clip-path-4)">
                <g id="Group_881461" data-name="Group 881461" transform="translate(0 0)">
                  <rect id="Rectangle_298913" data-name="Rectangle 298913" width="2.751" height="2.751" fill="#ff8e7c"/>
                </g>
              </g>
            </g>
          </g>
          <g id="Group_881464" data-name="Group 881464" transform="translate(9.323 0)">
            <g id="Grupo_1068115" data-name="Grupo 1068115" transform="translate(0)">
              <path id="Trazado_814215" data-name="Trazado 814215" d="M1.375,0A1.375,1.375,0,1,0,2.75,1.376,1.375,1.375,0,0,0,1.375,0Z" fill="#ff8e7c"/>
              <g id="Grupo_1068114" data-name="Grupo 1068114" clip-path="url(#clip-path-6)">
                <g id="Group_881463" data-name="Group 881463" transform="translate(-0.001 0)">
                  <rect id="Rectangle_298914" data-name="Rectangle 298914" width="2.751" height="2.75" fill="#ff8e7c"/>
                </g>
              </g>
            </g>
          </g>
          <g id="Group_881454-2" data-name="Group 881454" transform="translate(19.047 22.353)">
            <g id="Grupo_1068117" data-name="Grupo 1068117" transform="translate(0 0)">
              <path id="Trazado_814217" data-name="Trazado 814217" d="M0,1.376A1.376,1.376,0,1,0,1.375,0,1.376,1.376,0,0,0,0,1.376" fill="#ff8e7c"/>
              <g id="Grupo_1068116" data-name="Grupo 1068116" clip-path="url(#clip-path-7)">
                <g id="Group_881453-2" data-name="Group 881453" transform="translate(0 0)">
                  <rect id="Rectangle_298909-2" data-name="Rectangle 298909" width="2.751" height="2.751" fill="#ff8e7c"/>
                </g>
              </g>
            </g>
          </g>
          <g id="Group_881456-2" data-name="Group 881456" transform="translate(19.047 11.634)">
            <g id="Grupo_1068119" data-name="Grupo 1068119" transform="translate(0 0)">
              <path id="Trazado_814219" data-name="Trazado 814219" d="M0,1.376A1.376,1.376,0,1,0,1.376,0h0A1.377,1.377,0,0,0,0,1.376" fill="#ff8e7c"/>
              <g id="Grupo_1068118" data-name="Grupo 1068118" clip-path="url(#clip-path-2)">
                <g id="Group_881455-2" data-name="Group 881455" transform="translate(0 0)">
                  <rect id="Rectangle_298910-2" data-name="Rectangle 298910" width="2.751" height="2.751" fill="#ff8e7c"/>
                </g>
              </g>
            </g>
          </g>
          <g id="Group_881458-2" data-name="Group 881458" transform="translate(19.048 0)">
            <g id="Grupo_1068121" data-name="Grupo 1068121" transform="translate(0)">
              <path id="Trazado_814221" data-name="Trazado 814221" d="M1.375,0A1.375,1.375,0,1,0,2.75,1.376,1.375,1.375,0,0,0,1.375,0Z" fill="#ff8e7c"/>
              <g id="Grupo_1068120" data-name="Grupo 1068120" clip-path="url(#clip-path-6)">
                <g id="Group_881457-2" data-name="Group 881457" transform="translate(0 0)">
                  <rect id="Rectangle_298911-2" data-name="Rectangle 298911" width="2.751" height="2.75" fill="#ff8e7c"/>
                </g>
              </g>
            </g>
          </g>
          <g id="Group_881460-2" data-name="Group 881460" transform="translate(28.37 22.353)">
            <g id="Grupo_1068123" data-name="Grupo 1068123" transform="translate(0 0)">
              <path id="Trazado_814223" data-name="Trazado 814223" d="M0,1.376A1.375,1.375,0,1,0,1.375,0,1.375,1.375,0,0,0,0,1.376" fill="#ff8e7c"/>
              <g id="Grupo_1068122" data-name="Grupo 1068122" clip-path="url(#clip-path-4)">
                <g id="Group_881459-2" data-name="Group 881459" transform="translate(0 0)">
                  <rect id="Rectangle_298912-2" data-name="Rectangle 298912" width="2.751" height="2.751" fill="#ff8e7c"/>
                </g>
              </g>
            </g>
          </g>
          <g id="Group_881462-2" data-name="Group 881462" transform="translate(28.37 11.634)">
            <g id="Grupo_1068125" data-name="Grupo 1068125" transform="translate(0 0)">
              <path id="Trazado_814225" data-name="Trazado 814225" d="M0,1.376A1.375,1.375,0,1,0,1.375,0,1.375,1.375,0,0,0,0,1.376" fill="#ff8e7c"/>
              <g id="Grupo_1068124" data-name="Grupo 1068124" clip-path="url(#clip-path-4)">
                <g id="Group_881461-2" data-name="Group 881461" transform="translate(0 0)">
                  <rect id="Rectangle_298913-2" data-name="Rectangle 298913" width="2.751" height="2.751" fill="#ff8e7c"/>
                </g>
              </g>
            </g>
          </g>
          <g id="Group_881464-2" data-name="Group 881464" transform="translate(28.37 0)">
            <g id="Grupo_1068127" data-name="Grupo 1068127" transform="translate(0)">
              <path id="Trazado_814227" data-name="Trazado 814227" d="M1.375,0A1.375,1.375,0,1,0,2.75,1.376,1.375,1.375,0,0,0,1.375,0Z" fill="#ff8e7c"/>
              <g id="Grupo_1068126" data-name="Grupo 1068126" clip-path="url(#clip-path-6)">
                <g id="Group_881463-2" data-name="Group 881463" transform="translate(0 0)">
                  <rect id="Rectangle_298914-2" data-name="Rectangle 298914" width="2.751" height="2.75" fill="#ff8e7c"/>
                </g>
              </g>
            </g>
          </g>
        </g>
        <g id="Grupo_1068153" data-name="Grupo 1068153" transform="translate(0 12.29)">
          <g id="Group_881454-3" data-name="Group 881454" transform="translate(0 27.192)">
            <g id="Grupo_1068130" data-name="Grupo 1068130">
              <path id="Trazado_814229" data-name="Trazado 814229" d="M1074.25,1088.088a1.673,1.673,0,1,0,1.673-1.674,1.673,1.673,0,0,0-1.673,1.674" transform="translate(-1074.25 -1086.414)" fill="#ffb476"/>
              <g id="Grupo_1068129" data-name="Grupo 1068129" clip-path="url(#clip-path-13)">
                <g id="Group_881453-3" data-name="Group 881453" transform="translate(0 0)">
                  <rect id="Rectangle_298909-3" data-name="Rectangle 298909" width="3.346" height="3.346" fill="#ffb476"/>
                </g>
              </g>
            </g>
          </g>
          <g id="Group_881456-3" data-name="Group 881456" transform="translate(0 14.152)">
            <g id="Grupo_1068132" data-name="Grupo 1068132">
              <path id="Trazado_814231" data-name="Trazado 814231" d="M1074.25,1053.176a1.673,1.673,0,1,0,1.673-1.673h0a1.675,1.675,0,0,0-1.673,1.673" transform="translate(-1074.25 -1051.503)" fill="#ffb476"/>
              <g id="Grupo_1068131" data-name="Grupo 1068131" clip-path="url(#clip-path-14)">
                <g id="Group_881455-3" data-name="Group 881455" transform="translate(0 0)">
                  <rect id="Rectangle_298910-3" data-name="Rectangle 298910" width="3.346" height="3.346" fill="#ffb476"/>
                </g>
              </g>
            </g>
          </g>
          <g id="Group_881458-3" data-name="Group 881458" transform="translate(0 0)">
            <g id="Grupo_1068134" data-name="Grupo 1068134">
              <path id="Trazado_814233" data-name="Trazado 814233" d="M1075.924,1013.613a1.673,1.673,0,1,0,1.673,1.674A1.673,1.673,0,0,0,1075.924,1013.613Z" transform="translate(-1074.251 -1013.613)" fill="#ffb476"/>
              <g id="Grupo_1068133" data-name="Grupo 1068133" clip-path="url(#clip-path-15)">
                <g id="Group_881457-3" data-name="Group 881457" transform="translate(0 0)">
                  <rect id="Rectangle_298911-3" data-name="Rectangle 298911" width="3.346" height="3.346" fill="#ffb476"/>
                </g>
              </g>
            </g>
          </g>
          <g id="Group_881460-3" data-name="Group 881460" transform="translate(11.34 27.192)">
            <g id="Grupo_1068136" data-name="Grupo 1068136">
              <path id="Trazado_814235" data-name="Trazado 814235" d="M1104.611,1088.088a1.673,1.673,0,1,0,1.673-1.674,1.672,1.672,0,0,0-1.673,1.674" transform="translate(-1104.611 -1086.414)" fill="#ffb476"/>
              <g id="Grupo_1068135" data-name="Grupo 1068135" clip-path="url(#clip-path-16)">
                <g id="Group_881459-3" data-name="Group 881459" transform="translate(0 0)">
                  <rect id="Rectangle_298912-3" data-name="Rectangle 298912" width="3.346" height="3.346" fill="#ffb476"/>
                </g>
              </g>
            </g>
          </g>
          <g id="Group_881462-3" data-name="Group 881462" transform="translate(11.34 14.152)">
            <g id="Grupo_1068138" data-name="Grupo 1068138">
              <path id="Trazado_814237" data-name="Trazado 814237" d="M1104.611,1053.176a1.673,1.673,0,1,0,1.673-1.673,1.673,1.673,0,0,0-1.673,1.673" transform="translate(-1104.611 -1051.503)" fill="#ffb476"/>
              <g id="Grupo_1068137" data-name="Grupo 1068137" clip-path="url(#clip-path-17)">
                <g id="Group_881461-3" data-name="Group 881461" transform="translate(0 0)">
                  <rect id="Rectangle_298913-3" data-name="Rectangle 298913" width="3.346" height="3.346" fill="#ffb476"/>
                </g>
              </g>
            </g>
          </g>
          <g id="Group_881464-3" data-name="Group 881464" transform="translate(11.341 0)">
            <g id="Grupo_1068140" data-name="Grupo 1068140">
              <path id="Trazado_814239" data-name="Trazado 814239" d="M1106.285,1013.613a1.673,1.673,0,1,0,1.673,1.673A1.672,1.672,0,0,0,1106.285,1013.613Z" transform="translate(-1104.613 -1013.613)" fill="#ffb476"/>
              <g id="Grupo_1068139" data-name="Grupo 1068139" clip-path="url(#clip-path-18)">
                <g id="Group_881463-3" data-name="Group 881463" transform="translate(-0.001 0)">
                  <rect id="Rectangle_298914-3" data-name="Rectangle 298914" width="3.346" height="3.346" fill="#ffb476"/>
                </g>
              </g>
            </g>
          </g>
          <g id="Group_881454-4" data-name="Group 881454" transform="translate(23.171 27.192)">
            <g id="Grupo_1068142" data-name="Grupo 1068142">
              <path id="Trazado_814241" data-name="Trazado 814241" d="M1136.285,1088.088a1.674,1.674,0,1,0,1.673-1.674,1.674,1.674,0,0,0-1.673,1.674" transform="translate(-1136.285 -1086.414)" fill="#ffb476"/>
              <g id="Grupo_1068141" data-name="Grupo 1068141" clip-path="url(#clip-path-19)">
                <g id="Group_881453-4" data-name="Group 881453" transform="translate(0 0)">
                  <rect id="Rectangle_298909-4" data-name="Rectangle 298909" width="3.346" height="3.346" fill="#ffb476"/>
                </g>
              </g>
            </g>
          </g>
          <g id="Group_881456-4" data-name="Group 881456" transform="translate(23.171 14.152)">
            <g id="Grupo_1068144" data-name="Grupo 1068144">
              <path id="Trazado_814243" data-name="Trazado 814243" d="M1136.285,1053.176a1.674,1.674,0,1,0,1.674-1.673h0a1.676,1.676,0,0,0-1.673,1.673" transform="translate(-1136.285 -1051.503)" fill="#ffb476"/>
              <g id="Grupo_1068143" data-name="Grupo 1068143" clip-path="url(#clip-path-20)">
                <g id="Group_881455-4" data-name="Group 881455" transform="translate(0 0)">
                  <rect id="Rectangle_298910-4" data-name="Rectangle 298910" width="3.346" height="3.346" fill="#ffb476"/>
                </g>
              </g>
            </g>
          </g>
          <g id="Group_881458-4" data-name="Group 881458" transform="translate(23.171 0)">
            <g id="Grupo_1068146" data-name="Grupo 1068146">
              <path id="Trazado_814245" data-name="Trazado 814245" d="M1137.959,1013.613a1.673,1.673,0,1,0,1.673,1.674A1.673,1.673,0,0,0,1137.959,1013.613Z" transform="translate(-1136.287 -1013.613)" fill="#ffb476"/>
              <g id="Grupo_1068145" data-name="Grupo 1068145" clip-path="url(#clip-path-21)">
                <g id="Group_881457-4" data-name="Group 881457" transform="translate(-0.001 0)">
                  <rect id="Rectangle_298911-4" data-name="Rectangle 298911" width="3.346" height="3.346" fill="#ffb476"/>
                </g>
              </g>
            </g>
          </g>
          <g id="Group_881460-4" data-name="Group 881460" transform="translate(34.511 27.192)">
            <g id="Grupo_1068148" data-name="Grupo 1068148">
              <path id="Trazado_814247" data-name="Trazado 814247" d="M1166.647,1088.088a1.673,1.673,0,1,0,1.672-1.674,1.672,1.672,0,0,0-1.672,1.674" transform="translate(-1166.647 -1086.414)" fill="#ffb476"/>
              <g id="Grupo_1068147" data-name="Grupo 1068147" clip-path="url(#clip-path-22)">
                <g id="Group_881459-4" data-name="Group 881459" transform="translate(0 0)">
                  <rect id="Rectangle_298912-4" data-name="Rectangle 298912" width="3.346" height="3.346" fill="#ffb476"/>
                </g>
              </g>
            </g>
          </g>
          <g id="Group_881462-4" data-name="Group 881462" transform="translate(34.511 14.152)">
            <g id="Grupo_1068150" data-name="Grupo 1068150">
              <path id="Trazado_814249" data-name="Trazado 814249" d="M1166.647,1053.176a1.673,1.673,0,1,0,1.672-1.673,1.672,1.672,0,0,0-1.672,1.673" transform="translate(-1166.647 -1051.503)" fill="#ffb476"/>
              <g id="Grupo_1068149" data-name="Grupo 1068149" clip-path="url(#clip-path-23)">
                <g id="Group_881461-4" data-name="Group 881461" transform="translate(0 0)">
                  <rect id="Rectangle_298913-4" data-name="Rectangle 298913" width="3.346" height="3.346" fill="#ffb476"/>
                </g>
              </g>
            </g>
          </g>
          <g id="Group_881464-4" data-name="Group 881464" transform="translate(34.511 0)">
            <g id="Grupo_1068152" data-name="Grupo 1068152">
              <path id="Trazado_814251" data-name="Trazado 814251" d="M1168.32,1013.613a1.673,1.673,0,1,0,1.673,1.673A1.672,1.672,0,0,0,1168.32,1013.613Z" transform="translate(-1166.648 -1013.613)" fill="#ffb476"/>
              <g id="Grupo_1068151" data-name="Grupo 1068151" clip-path="url(#clip-path-24)">
                <g id="Group_881463-4" data-name="Group 881463" transform="translate(0 0)">
                  <rect id="Rectangle_298914-4" data-name="Rectangle 298914" width="3.346" height="3.346" fill="#ffb476"/>
                </g>
              </g>
            </g>
          </g>
        </g>
        <rect id="Rect치ngulo_374064" data-name="Rect치ngulo 374064" width="5.919" height="31.089" rx="2.96" transform="translate(124.661 6.203) rotate(45)" fill="#ffb476"/>
        <rect id="Rect치ngulo_374066" data-name="Rect치ngulo 374066" width="3.992" height="26.272" rx="1.996" transform="translate(35.034 104.187) rotate(45)" fill="#ffb476"/>
      </g>
    </g>
    <g id="big-data" transform="translate(29.599 17.519)">
      <g id="Grupo_1068286" data-name="Grupo 1068286" transform="translate(1.451 1.451)">
        <g id="Grupo_1068274" data-name="Grupo 1068274" transform="translate(13.058 81.25)">
          <path id="Trazado_814405" data-name="Trazado 814405" d="M62.232,57v5.8H10V57H62.232Z" transform="translate(-10 -57)" fill="#969faa"/>
        </g>
        <g id="Grupo_1068275" data-name="Grupo 1068275" transform="translate(30.469 72.544)">
          <path id="Trazado_814406" data-name="Trazado 814406" d="M22,51H39.411v8.705H22Z" transform="translate(-22 -51)" fill="#aab2bd"/>
        </g>
        <g id="Grupo_1068276" data-name="Grupo 1068276" transform="translate(0 11.607)">
          <path id="Trazado_814407" data-name="Trazado 814407" d="M79.348,43.038v21.1A5.791,5.791,0,0,1,75,69.749V64.134h-5.8v5.8h-5.8v-5.8h-5.8v5.8H6.8a5.8,5.8,0,0,1-5.8-5.8V14.8A5.8,5.8,0,0,1,6.8,9H42.365l.595,1.175A22.3,22.3,0,0,0,40.435,14.8H8.254A1.455,1.455,0,0,0,6.8,16.254V56.879A1.455,1.455,0,0,0,8.254,58.33H72.093a1.455,1.455,0,0,0,1.451-1.451V43.589a19.351,19.351,0,0,0,1.727-1.1l3.076,1.538Z" transform="translate(-1 -9)" fill="#ccd1d9"/>
        </g>
        <g id="Grupo_1068277" data-name="Grupo 1068277" transform="translate(5.804 17.411)">
          <path id="Trazado_814408" data-name="Trazado 814408" d="M71.741,41.786v13.29a1.455,1.455,0,0,1-1.451,1.451H6.451A1.455,1.455,0,0,1,5,55.076V14.451A1.455,1.455,0,0,1,6.451,13H38.631a23.186,23.186,0,0,0-1.349,4.715L34.018,18.8v5.8L37.282,25.7a22.935,22.935,0,0,0,3.874,9.344l-1.538,3.076,4.106,4.106L46.8,40.683a22.935,22.935,0,0,0,9.344,3.874l1.088,3.264h5.8l1.088-3.264A22.829,22.829,0,0,0,71.741,41.786Z" transform="translate(-5 -13)" fill="#69d6f4"/>
        </g>
        <g id="Grupo_1068278" data-name="Grupo 1068278" transform="translate(68.192 66.741)">
          <path id="Trazado_814409" data-name="Trazado 814409" d="M53.8,47v5.615a5.306,5.306,0,0,1-1.451.189H48V47Z" transform="translate(-48 -47)" fill="#ff826e"/>
        </g>
        <g id="Grupo_1068279" data-name="Grupo 1068279" transform="translate(56.584 66.741)">
          <path id="Trazado_814410" data-name="Trazado 814410" d="M40,47h5.8v5.8H40Z" transform="translate(-40 -47)" fill="#ff826e"/>
        </g>
        <g id="Grupo_1068280" data-name="Grupo 1068280" transform="translate(11.607 23.214)">
          <path id="Trazado_814411" data-name="Trazado 814411" d="M9,17H26.411v5.8H9Z" transform="translate(-9 -17)" fill="#e6e9ed"/>
        </g>
        <g id="Grupo_1068281" data-name="Grupo 1068281" transform="translate(11.607 34.821)">
          <path id="Trazado_814412" data-name="Trazado 814412" d="M9,25H26.411v5.8H9Z" transform="translate(-9 -25)" fill="#e6e9ed"/>
        </g>
        <g id="Grupo_1068282" data-name="Grupo 1068282" transform="translate(25.946 46.038)">
          <circle id="Elipse_9072" data-name="Elipse 9072" cx="4.395" cy="4.395" r="4.395" transform="translate(0 0)" fill="#ff826e"/>
        </g>
        <g id="Grupo_1068283" data-name="Grupo 1068283" transform="translate(12.133 46.038)">
          <circle id="Elipse_9073" data-name="Elipse 9073" cx="4.395" cy="4.395" r="4.395" transform="translate(0 0)" fill="#ff826e"/>
        </g>
        <g id="Grupo_1068284" data-name="Grupo 1068284" transform="translate(34.821)">
          <path id="Trazado_814413" data-name="Trazado 814413" d="M68.527,46.645l-1,.987L64.45,46.093a19.351,19.351,0,0,1-1.727,1.1,22.829,22.829,0,0,1-7.617,2.771l-1.088,3.264h-5.8l-1.088-3.264a22.935,22.935,0,0,1-9.344-3.874l-3.076,1.538L30.6,43.525l1.538-3.076a22.935,22.935,0,0,1-3.874-9.344L25,30.018v-5.8l3.264-1.088a23.186,23.186,0,0,1,1.349-4.715,22.3,22.3,0,0,1,2.525-4.628l-.595-1.175-.943-1.9L34.706,6.6l3.076,1.538a22.935,22.935,0,0,1,9.344-3.874L48.214,1h5.8l1.088,3.264A22.935,22.935,0,0,1,64.45,8.138L67.525,6.6l4.106,4.106-1.538,3.076a22.935,22.935,0,0,1,3.874,9.344l3.264,1.088v5.8l-3.264,1.088a22.935,22.935,0,0,1-3.874,9.344l1.538,3.076ZM64.1,38.737a17.458,17.458,0,1,0-12.985,5.789A17.422,17.422,0,0,0,64.1,38.737Z" transform="translate(-25 -1)" fill="#fcd770"/>
        </g>
        <g id="Grupo_1068285" data-name="Grupo 1068285" transform="translate(49.33 14.509)">
          <path id="Trazado_814414" data-name="Trazado 814414" d="M52.411,22.607V16.8h-5.8V11H40.8V25.509H35v8.705H58.214V22.607Z" transform="translate(-35 -11)" fill="#ffe5cf"/>
        </g>
      </g>
      <g id="Grupo_1068287" data-name="Grupo 1068287" transform="translate(0 0)">
        <path id="Trazado_814415" data-name="Trazado 814415" d="M48.861,6A18.861,18.861,0,1,0,67.723,24.861,18.883,18.883,0,0,0,48.861,6ZM59.018,35.018h-2.9V26.312h2.9Zm-5.8-11.607V35.018h-2.9V20.509h2.9Zm-5.8-5.8V35.018h-2.9V14.705h2.9Zm-5.8,17.411h-2.9v-5.8h2.9Zm-1.893,2.9H58.008a15.868,15.868,0,0,1-18.294,0Zm22.206-3.91v-10.6h-5.8v-5.8h-5.8V11.8H41.607V26.312H35.8v7.7a15.96,15.96,0,1,1,26.116,0Z" transform="translate(13.527 2.705)"/>
        <path id="Trazado_814416" data-name="Trazado 814416" d="M86.5,22.467a24.277,24.277,0,0,0-3.455-8.35l1.626-3.251L79.088,5.283l-3.25,1.626a24.275,24.275,0,0,0-8.35-3.453L66.336,0H58.442L57.29,3.455a24.315,24.315,0,0,0-8.35,3.453L45.688,5.281,40.1,10.864l.37.743H7.254A7.263,7.263,0,0,0,0,18.861v49.33a7.263,7.263,0,0,0,7.254,7.254H30.469v5.8H13.058v8.705H68.192V81.25H50.781v-5.8H74a7.263,7.263,0,0,0,7.254-7.254v-20.5l3.423-3.423-1.626-3.251a24.305,24.305,0,0,0,3.455-8.35l3.455-1.152V23.62ZM65.29,87.053H15.96v-2.9H65.29Zm-17.411-5.8H33.37v-5.8H47.879Zm14.509-8.705h-2.9v-2.9h2.9Zm8.705,0v-2.9H74v2.9Zm5.8-1.132V66.741H68.192v5.8h-2.9v-5.8H56.584v5.8H7.254A4.358,4.358,0,0,1,2.9,68.192V18.861a4.358,4.358,0,0,1,4.353-4.353H41.5a24.343,24.343,0,0,0-1.551,2.9H8.705a2.9,2.9,0,0,0-2.9,2.9V60.937a2.9,2.9,0,0,0,2.9,2.9H72.544a2.9,2.9,0,0,0,2.9-2.9V48.455c.129-.081.264-.147.392-.231l2.51,1.256V68.192A4.33,4.33,0,0,1,76.9,71.413ZM38.276,32.667a24.277,24.277,0,0,0,3.455,8.35L40.1,44.268l5.584,5.583,3.251-1.626a24.275,24.275,0,0,0,8.35,3.453l1.151,3.456h7.894l1.152-3.455a24.378,24.378,0,0,0,5.056-1.673V60.937H8.705V20.312H38.831c-.216.707-.4,1.425-.556,2.155l-3.455,1.152v7.894Zm48.777-3.244-3.1,1.033-.149.855a21.5,21.5,0,0,1-3.623,8.76l-.5.709,1.46,2.915-2.626,2.625L75.6,44.861l-.709.5a21.478,21.478,0,0,1-8.759,3.623l-.855.149-1.032,3.1H60.531l-1.033-3.1-.855-.149a21.469,21.469,0,0,1-8.759-3.623l-.709-.5-2.916,1.458-2.626-2.625,1.46-2.915-.5-.709a21.5,21.5,0,0,1-3.623-8.76l-.149-.855-3.1-1.033V25.71l3.1-1.033.149-.855a21.5,21.5,0,0,1,3.623-8.76l.5-.709-1.46-2.915,2.626-2.625,2.916,1.458.709-.5a21.478,21.478,0,0,1,8.759-3.623L59.5,6l1.032-3.1h3.713L65.278,6l.855.149a21.47,21.47,0,0,1,8.759,3.623l.709.5,2.916-1.458,2.626,2.625-1.461,2.915.5.709a21.5,21.5,0,0,1,3.623,8.76l.149.855,3.1,1.033Z" transform="translate(0 0)"/>
        <path id="Trazado_814417" data-name="Trazado 814417" d="M28.312,16H8v8.705H28.312Zm-2.9,5.8H10.9V18.9H25.411Z" transform="translate(3.607 7.214)"/>
        <path id="Trazado_814418" data-name="Trazado 814418" d="M28.312,24H8v8.705H28.312Zm-2.9,5.8H10.9V26.9H25.411Z" transform="translate(3.607 10.821)"/>
        <path id="Trazado_814419" data-name="Trazado 814419" d="M13.8,32a5.8,5.8,0,1,0,5.8,5.8A5.809,5.809,0,0,0,13.8,32Zm0,8.705a2.9,2.9,0,1,1,2.9-2.9A2.9,2.9,0,0,1,13.8,40.705Z" transform="translate(3.607 14.428)"/>
        <path id="Trazado_814420" data-name="Trazado 814420" d="M18,37.8A5.8,5.8,0,1,0,23.8,32,5.809,5.809,0,0,0,18,37.8Zm8.705,0a2.9,2.9,0,1,1-2.9-2.9A2.9,2.9,0,0,1,26.705,37.8Z" transform="translate(8.116 14.428)"/>
      </g>
    </g>
  </g>
</svg>
