<svg xmlns="http://www.w3.org/2000/svg" xmlns:xlink="http://www.w3.org/1999/xlink" width="134.388" height="126.993" viewBox="0 0 134.388 126.993">
  <defs>
    <clipPath id="clip-path">
      <path id="Trazado_814206" data-name="Trazado 814206" d="M0,1.376A1.376,1.376,0,1,0,1.375,0,1.375,1.375,0,0,0,0,1.376" fill="#ff8e7c"/>
    </clipPath>
    <clipPath id="clip-path-2">
      <path id="Trazado_814208" data-name="Trazado 814208" d="M0,1.376A1.376,1.376,0,1,0,1.376,0h0A1.377,1.377,0,0,0,0,1.376" fill="#ff8e7c"/>
    </clipPath>
    <clipPath id="clip-path-3">
      <path id="Trazado_814210" data-name="Trazado 814210" d="M1.375,0A1.375,1.375,0,1,0,2.751,1.376,1.375,1.375,0,0,0,1.375,0Z" fill="#ff8e7c"/>
    </clipPath>
    <clipPath id="clip-path-4">
      <path id="Trazado_814212" data-name="Trazado 814212" d="M0,1.376A1.375,1.375,0,1,0,1.375,0,1.375,1.375,0,0,0,0,1.376" fill="#ff8e7c"/>
    </clipPath>
    <clipPath id="clip-path-6">
      <path id="Trazado_814216" data-name="Trazado 814216" d="M1.375,0A1.375,1.375,0,1,0,2.75,1.376,1.375,1.375,0,0,0,1.375,0Z" fill="#ff8e7c"/>
    </clipPath>
    <clipPath id="clip-path-7">
      <path id="Trazado_814218" data-name="Trazado 814218" d="M0,1.376A1.376,1.376,0,1,0,1.375,0,1.376,1.376,0,0,0,0,1.376" fill="#ff8e7c"/>
    </clipPath>
    <clipPath id="clip-path-13">
      <path id="Trazado_814230" data-name="Trazado 814230" d="M1074.25,1088.088a1.673,1.673,0,1,0,1.673-1.674,1.673,1.673,0,0,0-1.673,1.674" transform="translate(-1074.25 -1086.414)" fill="#ffb476"/>
    </clipPath>
    <clipPath id="clip-path-14">
      <path id="Trazado_814232" data-name="Trazado 814232" d="M1074.25,1053.176a1.673,1.673,0,1,0,1.673-1.673h0a1.675,1.675,0,0,0-1.673,1.673" transform="translate(-1074.25 -1051.503)" fill="#ffb476"/>
    </clipPath>
    <clipPath id="clip-path-15">
      <path id="Trazado_814234" data-name="Trazado 814234" d="M1075.924,1013.613a1.673,1.673,0,1,0,1.673,1.674A1.673,1.673,0,0,0,1075.924,1013.613Z" transform="translate(-1074.251 -1013.613)" fill="#ffb476"/>
    </clipPath>
    <clipPath id="clip-path-16">
      <path id="Trazado_814236" data-name="Trazado 814236" d="M1104.611,1088.088a1.673,1.673,0,1,0,1.673-1.674,1.672,1.672,0,0,0-1.673,1.674" transform="translate(-1104.611 -1086.414)" fill="#ffb476"/>
    </clipPath>
    <clipPath id="clip-path-17">
      <path id="Trazado_814238" data-name="Trazado 814238" d="M1104.611,1053.176a1.673,1.673,0,1,0,1.673-1.673,1.673,1.673,0,0,0-1.673,1.673" transform="translate(-1104.611 -1051.503)" fill="#ffb476"/>
    </clipPath>
    <clipPath id="clip-path-18">
      <path id="Trazado_814240" data-name="Trazado 814240" d="M1106.285,1013.613a1.673,1.673,0,1,0,1.673,1.673A1.672,1.672,0,0,0,1106.285,1013.613Z" transform="translate(-1104.613 -1013.613)" fill="#ffb476"/>
    </clipPath>
    <clipPath id="clip-path-19">
      <path id="Trazado_814242" data-name="Trazado 814242" d="M1136.285,1088.088a1.674,1.674,0,1,0,1.673-1.674,1.674,1.674,0,0,0-1.673,1.674" transform="translate(-1136.285 -1086.414)" fill="#ffb476"/>
    </clipPath>
    <clipPath id="clip-path-20">
      <path id="Trazado_814244" data-name="Trazado 814244" d="M1136.285,1053.176a1.674,1.674,0,1,0,1.674-1.673h0a1.676,1.676,0,0,0-1.673,1.673" transform="translate(-1136.285 -1051.503)" fill="#ffb476"/>
    </clipPath>
    <clipPath id="clip-path-21">
      <path id="Trazado_814246" data-name="Trazado 814246" d="M1137.959,1013.613a1.673,1.673,0,1,0,1.673,1.674A1.673,1.673,0,0,0,1137.959,1013.613Z" transform="translate(-1136.287 -1013.613)" fill="#ffb476"/>
    </clipPath>
    <clipPath id="clip-path-22">
      <path id="Trazado_814248" data-name="Trazado 814248" d="M1166.647,1088.088a1.673,1.673,0,1,0,1.672-1.674,1.672,1.672,0,0,0-1.672,1.674" transform="translate(-1166.647 -1086.414)" fill="#ffb476"/>
    </clipPath>
    <clipPath id="clip-path-23">
      <path id="Trazado_814250" data-name="Trazado 814250" d="M1166.647,1053.176a1.673,1.673,0,1,0,1.672-1.673,1.672,1.672,0,0,0-1.672,1.673" transform="translate(-1166.647 -1051.503)" fill="#ffb476"/>
    </clipPath>
    <clipPath id="clip-path-24">
      <path id="Trazado_814252" data-name="Trazado 814252" d="M1168.32,1013.613a1.673,1.673,0,1,0,1.673,1.673A1.672,1.672,0,0,0,1168.32,1013.613Z" transform="translate(-1166.648 -1013.613)" fill="#ffb476"/>
    </clipPath>
  </defs>
  <g id="Grupo_1068396" data-name="Grupo 1068396" transform="translate(0)">
    <g id="Grupo_1068156" data-name="Grupo 1068156" transform="translate(0 0)">
      <g id="Grupo_1068103" data-name="Grupo 1068103" transform="translate(0)">
        <path id="Trazado_814254" data-name="Trazado 814254" d="M63.5,0A63.5,63.5,0,1,1,0,63.5,63.5,63.5,0,0,1,63.5,0Z" transform="translate(7.396)" fill="#f77e6b"/>
        <g id="Grupo_1068128" data-name="Grupo 1068128" transform="translate(106.083 122.697) rotate(-90)">
          <g id="Group_881454" data-name="Group 881454" transform="translate(0 22.353)">
            <g id="Grupo_1068105" data-name="Grupo 1068105" transform="translate(0 0)">
              <path id="Trazado_814205" data-name="Trazado 814205" d="M0,1.376A1.376,1.376,0,1,0,1.375,0,1.375,1.375,0,0,0,0,1.376" fill="#ff8e7c"/>
              <g id="Grupo_1068104" data-name="Grupo 1068104" clip-path="url(#clip-path)">
                <g id="Group_881453" data-name="Group 881453" transform="translate(0 0)">
                  <rect id="Rectangle_298909" data-name="Rectangle 298909" width="2.751" height="2.751" fill="#ff8e7c"/>
                </g>
              </g>
            </g>
          </g>
          <g id="Group_881456" data-name="Group 881456" transform="translate(0 11.634)">
            <g id="Grupo_1068107" data-name="Grupo 1068107" transform="translate(0 0)">
              <path id="Trazado_814207" data-name="Trazado 814207" d="M0,1.376A1.376,1.376,0,1,0,1.376,0h0A1.377,1.377,0,0,0,0,1.376" fill="#ff8e7c"/>
              <g id="Grupo_1068106" data-name="Grupo 1068106" clip-path="url(#clip-path-2)">
                <g id="Group_881455" data-name="Group 881455" transform="translate(0 0)">
                  <rect id="Rectangle_298910" data-name="Rectangle 298910" width="2.751" height="2.751" fill="#ff8e7c"/>
                </g>
              </g>
            </g>
          </g>
          <g id="Group_881458" data-name="Group 881458" transform="translate(0 0)">
            <g id="Grupo_1068109" data-name="Grupo 1068109">
              <path id="Trazado_814209" data-name="Trazado 814209" d="M1.375,0A1.375,1.375,0,1,0,2.751,1.376,1.375,1.375,0,0,0,1.375,0Z" fill="#ff8e7c"/>
              <g id="Grupo_1068108" data-name="Grupo 1068108" clip-path="url(#clip-path-3)">
                <g id="Group_881457" data-name="Group 881457" transform="translate(0 0)">
                  <rect id="Rectangle_298911" data-name="Rectangle 298911" width="2.751" height="2.75" fill="#ff8e7c"/>
                </g>
              </g>
            </g>
          </g>
          <g id="Group_881460" data-name="Group 881460" transform="translate(9.322 22.353)">
            <g id="Grupo_1068111" data-name="Grupo 1068111" transform="translate(0 0)">
              <path id="Trazado_814211" data-name="Trazado 814211" d="M0,1.376A1.375,1.375,0,1,0,1.375,0,1.375,1.375,0,0,0,0,1.376" fill="#ff8e7c"/>
              <g id="Grupo_1068110" data-name="Grupo 1068110" clip-path="url(#clip-path-4)">
                <g id="Group_881459" data-name="Group 881459" transform="translate(0 0)">
                  <rect id="Rectangle_298912" data-name="Rectangle 298912" width="2.751" height="2.751" fill="#ff8e7c"/>
                </g>
              </g>
            </g>
          </g>
          <g id="Group_881462" data-name="Group 881462" transform="translate(9.322 11.634)">
            <g id="Grupo_1068113" data-name="Grupo 1068113" transform="translate(0 0)">
              <path id="Trazado_814213" data-name="Trazado 814213" d="M0,1.376A1.375,1.375,0,1,0,1.375,0,1.375,1.375,0,0,0,0,1.376" fill="#ff8e7c"/>
              <g id="Grupo_1068112" data-name="Grupo 1068112" clip-path="url(#clip-path-4)">
                <g id="Group_881461" data-name="Group 881461" transform="translate(0 0)">
                  <rect id="Rectangle_298913" data-name="Rectangle 298913" width="2.751" height="2.751" fill="#ff8e7c"/>
                </g>
              </g>
            </g>
          </g>
          <g id="Group_881464" data-name="Group 881464" transform="translate(9.323 0)">
            <g id="Grupo_1068115" data-name="Grupo 1068115" transform="translate(0)">
              <path id="Trazado_814215" data-name="Trazado 814215" d="M1.375,0A1.375,1.375,0,1,0,2.75,1.376,1.375,1.375,0,0,0,1.375,0Z" fill="#ff8e7c"/>
              <g id="Grupo_1068114" data-name="Grupo 1068114" clip-path="url(#clip-path-6)">
                <g id="Group_881463" data-name="Group 881463" transform="translate(-0.001 0)">
                  <rect id="Rectangle_298914" data-name="Rectangle 298914" width="2.751" height="2.75" fill="#ff8e7c"/>
                </g>
              </g>
            </g>
          </g>
          <g id="Group_881454-2" data-name="Group 881454" transform="translate(19.047 22.353)">
            <g id="Grupo_1068117" data-name="Grupo 1068117" transform="translate(0 0)">
              <path id="Trazado_814217" data-name="Trazado 814217" d="M0,1.376A1.376,1.376,0,1,0,1.375,0,1.376,1.376,0,0,0,0,1.376" fill="#ff8e7c"/>
              <g id="Grupo_1068116" data-name="Grupo 1068116" clip-path="url(#clip-path-7)">
                <g id="Group_881453-2" data-name="Group 881453" transform="translate(0 0)">
                  <rect id="Rectangle_298909-2" data-name="Rectangle 298909" width="2.751" height="2.751" fill="#ff8e7c"/>
                </g>
              </g>
            </g>
          </g>
          <g id="Group_881456-2" data-name="Group 881456" transform="translate(19.047 11.634)">
            <g id="Grupo_1068119" data-name="Grupo 1068119" transform="translate(0 0)">
              <path id="Trazado_814219" data-name="Trazado 814219" d="M0,1.376A1.376,1.376,0,1,0,1.376,0h0A1.377,1.377,0,0,0,0,1.376" fill="#ff8e7c"/>
              <g id="Grupo_1068118" data-name="Grupo 1068118" clip-path="url(#clip-path-2)">
                <g id="Group_881455-2" data-name="Group 881455" transform="translate(0 0)">
                  <rect id="Rectangle_298910-2" data-name="Rectangle 298910" width="2.751" height="2.751" fill="#ff8e7c"/>
                </g>
              </g>
            </g>
          </g>
          <g id="Group_881458-2" data-name="Group 881458" transform="translate(19.048 0)">
            <g id="Grupo_1068121" data-name="Grupo 1068121" transform="translate(0)">
              <path id="Trazado_814221" data-name="Trazado 814221" d="M1.375,0A1.375,1.375,0,1,0,2.75,1.376,1.375,1.375,0,0,0,1.375,0Z" fill="#ff8e7c"/>
              <g id="Grupo_1068120" data-name="Grupo 1068120" clip-path="url(#clip-path-6)">
                <g id="Group_881457-2" data-name="Group 881457" transform="translate(0 0)">
                  <rect id="Rectangle_298911-2" data-name="Rectangle 298911" width="2.751" height="2.75" fill="#ff8e7c"/>
                </g>
              </g>
            </g>
          </g>
          <g id="Group_881460-2" data-name="Group 881460" transform="translate(28.37 22.353)">
            <g id="Grupo_1068123" data-name="Grupo 1068123" transform="translate(0 0)">
              <path id="Trazado_814223" data-name="Trazado 814223" d="M0,1.376A1.375,1.375,0,1,0,1.375,0,1.375,1.375,0,0,0,0,1.376" fill="#ff8e7c"/>
              <g id="Grupo_1068122" data-name="Grupo 1068122" clip-path="url(#clip-path-4)">
                <g id="Group_881459-2" data-name="Group 881459" transform="translate(0 0)">
                  <rect id="Rectangle_298912-2" data-name="Rectangle 298912" width="2.751" height="2.751" fill="#ff8e7c"/>
                </g>
              </g>
            </g>
          </g>
          <g id="Group_881462-2" data-name="Group 881462" transform="translate(28.37 11.634)">
            <g id="Grupo_1068125" data-name="Grupo 1068125" transform="translate(0 0)">
              <path id="Trazado_814225" data-name="Trazado 814225" d="M0,1.376A1.375,1.375,0,1,0,1.375,0,1.375,1.375,0,0,0,0,1.376" fill="#ff8e7c"/>
              <g id="Grupo_1068124" data-name="Grupo 1068124" clip-path="url(#clip-path-4)">
                <g id="Group_881461-2" data-name="Group 881461" transform="translate(0 0)">
                  <rect id="Rectangle_298913-2" data-name="Rectangle 298913" width="2.751" height="2.751" fill="#ff8e7c"/>
                </g>
              </g>
            </g>
          </g>
          <g id="Group_881464-2" data-name="Group 881464" transform="translate(28.37 0)">
            <g id="Grupo_1068127" data-name="Grupo 1068127" transform="translate(0)">
              <path id="Trazado_814227" data-name="Trazado 814227" d="M1.375,0A1.375,1.375,0,1,0,2.75,1.376,1.375,1.375,0,0,0,1.375,0Z" fill="#ff8e7c"/>
              <g id="Grupo_1068126" data-name="Grupo 1068126" clip-path="url(#clip-path-6)">
                <g id="Group_881463-2" data-name="Group 881463" transform="translate(0 0)">
                  <rect id="Rectangle_298914-2" data-name="Rectangle 298914" width="2.751" height="2.75" fill="#ff8e7c"/>
                </g>
              </g>
            </g>
          </g>
        </g>
        <g id="Grupo_1068153" data-name="Grupo 1068153" transform="translate(0 12.29)">
          <g id="Group_881454-3" data-name="Group 881454" transform="translate(0 27.192)">
            <g id="Grupo_1068130" data-name="Grupo 1068130">
              <path id="Trazado_814229" data-name="Trazado 814229" d="M1074.25,1088.088a1.673,1.673,0,1,0,1.673-1.674,1.673,1.673,0,0,0-1.673,1.674" transform="translate(-1074.25 -1086.414)" fill="#ffb476"/>
              <g id="Grupo_1068129" data-name="Grupo 1068129" clip-path="url(#clip-path-13)">
                <g id="Group_881453-3" data-name="Group 881453" transform="translate(0 0)">
                  <rect id="Rectangle_298909-3" data-name="Rectangle 298909" width="3.346" height="3.346" fill="#ffb476"/>
                </g>
              </g>
            </g>
          </g>
          <g id="Group_881456-3" data-name="Group 881456" transform="translate(0 14.152)">
            <g id="Grupo_1068132" data-name="Grupo 1068132">
              <path id="Trazado_814231" data-name="Trazado 814231" d="M1074.25,1053.176a1.673,1.673,0,1,0,1.673-1.673h0a1.675,1.675,0,0,0-1.673,1.673" transform="translate(-1074.25 -1051.503)" fill="#ffb476"/>
              <g id="Grupo_1068131" data-name="Grupo 1068131" clip-path="url(#clip-path-14)">
                <g id="Group_881455-3" data-name="Group 881455" transform="translate(0 0)">
                  <rect id="Rectangle_298910-3" data-name="Rectangle 298910" width="3.346" height="3.346" fill="#ffb476"/>
                </g>
              </g>
            </g>
          </g>
          <g id="Group_881458-3" data-name="Group 881458" transform="translate(0 0)">
            <g id="Grupo_1068134" data-name="Grupo 1068134">
              <path id="Trazado_814233" data-name="Trazado 814233" d="M1075.924,1013.613a1.673,1.673,0,1,0,1.673,1.674A1.673,1.673,0,0,0,1075.924,1013.613Z" transform="translate(-1074.251 -1013.613)" fill="#ffb476"/>
              <g id="Grupo_1068133" data-name="Grupo 1068133" clip-path="url(#clip-path-15)">
                <g id="Group_881457-3" data-name="Group 881457" transform="translate(0 0)">
                  <rect id="Rectangle_298911-3" data-name="Rectangle 298911" width="3.346" height="3.346" fill="#ffb476"/>
                </g>
              </g>
            </g>
          </g>
          <g id="Group_881460-3" data-name="Group 881460" transform="translate(11.34 27.192)">
            <g id="Grupo_1068136" data-name="Grupo 1068136">
              <path id="Trazado_814235" data-name="Trazado 814235" d="M1104.611,1088.088a1.673,1.673,0,1,0,1.673-1.674,1.672,1.672,0,0,0-1.673,1.674" transform="translate(-1104.611 -1086.414)" fill="#ffb476"/>
              <g id="Grupo_1068135" data-name="Grupo 1068135" clip-path="url(#clip-path-16)">
                <g id="Group_881459-3" data-name="Group 881459" transform="translate(0 0)">
                  <rect id="Rectangle_298912-3" data-name="Rectangle 298912" width="3.346" height="3.346" fill="#ffb476"/>
                </g>
              </g>
            </g>
          </g>
          <g id="Group_881462-3" data-name="Group 881462" transform="translate(11.34 14.152)">
            <g id="Grupo_1068138" data-name="Grupo 1068138">
              <path id="Trazado_814237" data-name="Trazado 814237" d="M1104.611,1053.176a1.673,1.673,0,1,0,1.673-1.673,1.673,1.673,0,0,0-1.673,1.673" transform="translate(-1104.611 -1051.503)" fill="#ffb476"/>
              <g id="Grupo_1068137" data-name="Grupo 1068137" clip-path="url(#clip-path-17)">
                <g id="Group_881461-3" data-name="Group 881461" transform="translate(0 0)">
                  <rect id="Rectangle_298913-3" data-name="Rectangle 298913" width="3.346" height="3.346" fill="#ffb476"/>
                </g>
              </g>
            </g>
          </g>
          <g id="Group_881464-3" data-name="Group 881464" transform="translate(11.341 0)">
            <g id="Grupo_1068140" data-name="Grupo 1068140">
              <path id="Trazado_814239" data-name="Trazado 814239" d="M1106.285,1013.613a1.673,1.673,0,1,0,1.673,1.673A1.672,1.672,0,0,0,1106.285,1013.613Z" transform="translate(-1104.613 -1013.613)" fill="#ffb476"/>
              <g id="Grupo_1068139" data-name="Grupo 1068139" clip-path="url(#clip-path-18)">
                <g id="Group_881463-3" data-name="Group 881463" transform="translate(-0.001 0)">
                  <rect id="Rectangle_298914-3" data-name="Rectangle 298914" width="3.346" height="3.346" fill="#ffb476"/>
                </g>
              </g>
            </g>
          </g>
          <g id="Group_881454-4" data-name="Group 881454" transform="translate(23.171 27.192)">
            <g id="Grupo_1068142" data-name="Grupo 1068142">
              <path id="Trazado_814241" data-name="Trazado 814241" d="M1136.285,1088.088a1.674,1.674,0,1,0,1.673-1.674,1.674,1.674,0,0,0-1.673,1.674" transform="translate(-1136.285 -1086.414)" fill="#ffb476"/>
              <g id="Grupo_1068141" data-name="Grupo 1068141" clip-path="url(#clip-path-19)">
                <g id="Group_881453-4" data-name="Group 881453" transform="translate(0 0)">
                  <rect id="Rectangle_298909-4" data-name="Rectangle 298909" width="3.346" height="3.346" fill="#ffb476"/>
                </g>
              </g>
            </g>
          </g>
          <g id="Group_881456-4" data-name="Group 881456" transform="translate(23.171 14.152)">
            <g id="Grupo_1068144" data-name="Grupo 1068144">
              <path id="Trazado_814243" data-name="Trazado 814243" d="M1136.285,1053.176a1.674,1.674,0,1,0,1.674-1.673h0a1.676,1.676,0,0,0-1.673,1.673" transform="translate(-1136.285 -1051.503)" fill="#ffb476"/>
              <g id="Grupo_1068143" data-name="Grupo 1068143" clip-path="url(#clip-path-20)">
                <g id="Group_881455-4" data-name="Group 881455" transform="translate(0 0)">
                  <rect id="Rectangle_298910-4" data-name="Rectangle 298910" width="3.346" height="3.346" fill="#ffb476"/>
                </g>
              </g>
            </g>
          </g>
          <g id="Group_881458-4" data-name="Group 881458" transform="translate(23.171 0)">
            <g id="Grupo_1068146" data-name="Grupo 1068146">
              <path id="Trazado_814245" data-name="Trazado 814245" d="M1137.959,1013.613a1.673,1.673,0,1,0,1.673,1.674A1.673,1.673,0,0,0,1137.959,1013.613Z" transform="translate(-1136.287 -1013.613)" fill="#ffb476"/>
              <g id="Grupo_1068145" data-name="Grupo 1068145" clip-path="url(#clip-path-21)">
                <g id="Group_881457-4" data-name="Group 881457" transform="translate(-0.001 0)">
                  <rect id="Rectangle_298911-4" data-name="Rectangle 298911" width="3.346" height="3.346" fill="#ffb476"/>
                </g>
              </g>
            </g>
          </g>
          <g id="Group_881460-4" data-name="Group 881460" transform="translate(34.511 27.192)">
            <g id="Grupo_1068148" data-name="Grupo 1068148">
              <path id="Trazado_814247" data-name="Trazado 814247" d="M1166.647,1088.088a1.673,1.673,0,1,0,1.672-1.674,1.672,1.672,0,0,0-1.672,1.674" transform="translate(-1166.647 -1086.414)" fill="#ffb476"/>
              <g id="Grupo_1068147" data-name="Grupo 1068147" clip-path="url(#clip-path-22)">
                <g id="Group_881459-4" data-name="Group 881459" transform="translate(0 0)">
                  <rect id="Rectangle_298912-4" data-name="Rectangle 298912" width="3.346" height="3.346" fill="#ffb476"/>
                </g>
              </g>
            </g>
          </g>
          <g id="Group_881462-4" data-name="Group 881462" transform="translate(34.511 14.152)">
            <g id="Grupo_1068150" data-name="Grupo 1068150">
              <path id="Trazado_814249" data-name="Trazado 814249" d="M1166.647,1053.176a1.673,1.673,0,1,0,1.672-1.673,1.672,1.672,0,0,0-1.672,1.673" transform="translate(-1166.647 -1051.503)" fill="#ffb476"/>
              <g id="Grupo_1068149" data-name="Grupo 1068149" clip-path="url(#clip-path-23)">
                <g id="Group_881461-4" data-name="Group 881461" transform="translate(0 0)">
                  <rect id="Rectangle_298913-4" data-name="Rectangle 298913" width="3.346" height="3.346" fill="#ffb476"/>
                </g>
              </g>
            </g>
          </g>
          <g id="Group_881464-4" data-name="Group 881464" transform="translate(34.511 0)">
            <g id="Grupo_1068152" data-name="Grupo 1068152">
              <path id="Trazado_814251" data-name="Trazado 814251" d="M1168.32,1013.613a1.673,1.673,0,1,0,1.673,1.673A1.672,1.672,0,0,0,1168.32,1013.613Z" transform="translate(-1166.648 -1013.613)" fill="#ffb476"/>
              <g id="Grupo_1068151" data-name="Grupo 1068151" clip-path="url(#clip-path-24)">
                <g id="Group_881463-4" data-name="Group 881463" transform="translate(0 0)">
                  <rect id="Rectangle_298914-4" data-name="Rectangle 298914" width="3.346" height="3.346" fill="#ffb476"/>
                </g>
              </g>
            </g>
          </g>
        </g>
        <rect id="Rect치ngulo_374064" data-name="Rect치ngulo 374064" width="5.919" height="31.089" rx="2.96" transform="translate(124.661 6.203) rotate(45)" fill="#ffb476"/>
        <rect id="Rect치ngulo_374066" data-name="Rect치ngulo 374066" width="3.992" height="26.272" rx="1.996" transform="translate(35.034 104.187) rotate(45)" fill="#ffb476"/>
      </g>
    </g>
    <g id="distribuido-" transform="translate(25.285 23.036)">
      <g id="Grupo_1068349" data-name="Grupo 1068349" transform="translate(2.392 2.392)">
        <path id="Trazado_814475" data-name="Trazado 814475" d="M66.709,2V18.709H50V2Z" transform="translate(16.838 -2)" fill="#ffeaa7"/>
        <path id="Trazado_814476" data-name="Trazado 814476" d="M42.71,10.355v8.355H26V2H42.71Z" transform="translate(7.419 -2)" fill="#ffeaa7"/>
        <path id="Trazado_814477" data-name="Trazado 814477" d="M18.709,10.355v8.355H2V2H18.709Z" transform="translate(-2 -2)" fill="#ffeaa7"/>
      </g>
      <path id="Trazado_814478" data-name="Trazado 814478" d="M12,28V53.064a2.793,2.793,0,0,0,2.785,2.785H64.913A2.793,2.793,0,0,0,67.7,53.064V28Z" transform="translate(4.317 10.596)" fill="#e6e9ed"/>
      <path id="Trazado_814479" data-name="Trazado 814479" d="M67.7,22.785V31.14H12V25.57a2.793,2.793,0,0,1,2.785-2.785H42.634L44.6,20.822A2.793,2.793,0,0,1,46.575,20H64.913A2.793,2.793,0,0,1,67.7,22.785Z" transform="translate(4.317 7.457)" fill="#9d66d5"/>
      <path id="Trazado_814480" data-name="Trazado 814480" d="M54.382,42.822a2.723,2.723,0,0,1,.822,1.963,2.793,2.793,0,0,1-2.785,2.785H21.785A2.805,2.805,0,0,1,19,44.785,2.793,2.793,0,0,1,21.785,42H52.419A2.723,2.723,0,0,1,54.382,42.822Z" transform="translate(7.064 16.091)" fill="#5cd6b3"/>
      <path id="Trazado_814481" data-name="Trazado 814481" d="M54.382,52.822a2.723,2.723,0,0,1,.822,1.963,2.793,2.793,0,0,1-2.785,2.785H21.785A2.805,2.805,0,0,1,19,54.785,2.793,2.793,0,0,1,21.785,52H52.419A2.723,2.723,0,0,1,54.382,52.822Z" transform="translate(7.064 20.015)" fill="#5cd6b3"/>
      <path id="Trazado_814482" data-name="Trazado 814482" d="M60.559,58.785V61.57a2.793,2.793,0,0,1-2.785,2.785H18.785A2.793,2.793,0,0,1,16,61.57V58.785A2.793,2.793,0,0,1,18.785,56H57.774A2.793,2.793,0,0,1,60.559,58.785Z" transform="translate(5.887 21.585)" fill="#fcd770"/>
      <path id="Trazado_814483" data-name="Trazado 814483" d="M60.559,48.785V51.57a2.793,2.793,0,0,1-2.785,2.785H18.785A2.793,2.793,0,0,1,16,51.57V48.785A2.793,2.793,0,0,1,18.785,46H57.774A2.793,2.793,0,0,1,60.559,48.785Z" transform="translate(5.887 17.661)" fill="#fcd770"/>
      <path id="Trazado_814484" data-name="Trazado 814484" d="M60.559,38.785V41.57a2.793,2.793,0,0,1-2.785,2.785H18.785A2.793,2.793,0,0,1,16,41.57V38.785A2.793,2.793,0,0,1,18.785,36H57.774A2.793,2.793,0,0,1,60.559,38.785Z" transform="translate(5.887 13.736)" fill="#fcd770"/>
      <path id="Trazado_814485" data-name="Trazado 814485" d="M47,23h2.785v2.785H47Z" transform="translate(18.053 8.634)"/>
      <path id="Trazado_814486" data-name="Trazado 814486" d="M43,23h2.785v2.785H43Z" transform="translate(16.483 8.634)"/>
      <path id="Trazado_814487" data-name="Trazado 814487" d="M39,23h2.785v2.785H39Z" transform="translate(14.913 8.634)"/>
      <path id="Trazado_814488" data-name="Trazado 814488" d="M5,5h8.355V7.785H5Z" transform="translate(1.57 1.57)"/>
      <path id="Trazado_814489" data-name="Trazado 814489" d="M5,9h8.355v2.785H5Z" transform="translate(1.57 3.14)"/>
      <path id="Trazado_814490" data-name="Trazado 814490" d="M29,5h8.355V7.785H29Z" transform="translate(10.989 1.57)"/>
      <path id="Trazado_814491" data-name="Trazado 814491" d="M29,9h8.355v2.785H29Z" transform="translate(10.989 3.14)"/>
      <path id="Trazado_814492" data-name="Trazado 814492" d="M87.332,20.494V1H67.838V9.355H53.913V1H34.419V9.355H20.494V1H1V20.494H20.494V12.14H34.419v8.355h8.355v8.355H19.1a4.182,4.182,0,0,0-4.177,4.177V63.661A4.182,4.182,0,0,0,19.1,67.838h1.392V69.23a4.182,4.182,0,0,0,4.177,4.177h.256a3.912,3.912,0,0,0,0,2.785h-.256a4.182,4.182,0,0,0-4.177,4.177v2.785a4.182,4.182,0,0,0,4.177,4.177H63.661a4.182,4.182,0,0,0,4.177-4.177V80.37a4.182,4.182,0,0,0-4.177-4.177H63.4a3.912,3.912,0,0,0,0-2.785h.256a4.182,4.182,0,0,0,4.177-4.177V67.838H69.23a4.182,4.182,0,0,0,4.177-4.177V30.242a4.182,4.182,0,0,0-4.177-4.177H50.889a4.147,4.147,0,0,0-2.953,1.224l-1.561,1.561h-.816V20.494h8.355V12.14H67.838v8.355ZM17.709,17.709H3.785V3.785H17.709ZM65.053,80.37v2.785a1.394,1.394,0,0,1-1.392,1.392H24.672a1.394,1.394,0,0,1-1.392-1.392V80.37a1.394,1.394,0,0,1,1.392-1.392H63.661A1.394,1.394,0,0,1,65.053,80.37ZM60.876,74.8a1.394,1.394,0,0,1-1.392,1.392H28.849a1.392,1.392,0,0,1,0-2.785H59.483A1.394,1.394,0,0,1,60.876,74.8Zm4.177-5.57a1.394,1.394,0,0,1-1.392,1.392H24.672a1.394,1.394,0,0,1-1.392-1.392V66.446a1.394,1.394,0,0,1,1.392-1.392H63.661a1.394,1.394,0,0,1,1.392,1.392Zm-37.6-8.355a1.394,1.394,0,0,1,1.392-1.392H59.483a1.392,1.392,0,1,1,0,2.785H28.849A1.394,1.394,0,0,1,27.457,60.876ZM59.483,56.7H24.672a1.394,1.394,0,0,1-1.392-1.392V52.521a1.394,1.394,0,0,1,1.392-1.392H63.661a1.394,1.394,0,0,1,1.392,1.392v2.785A1.394,1.394,0,0,1,63.661,56.7Zm9.747,8.355H67.582a4.172,4.172,0,0,0-3.921-2.785H63.4a3.912,3.912,0,0,0,0-2.785h.256a4.182,4.182,0,0,0,4.177-4.177V52.521a4.182,4.182,0,0,0-4.177-4.177H24.672a4.182,4.182,0,0,0-4.177,4.177v2.785a4.182,4.182,0,0,0,4.177,4.177h.256a3.912,3.912,0,0,0,0,2.785h-.256a4.172,4.172,0,0,0-3.921,2.785H19.1a1.394,1.394,0,0,1-1.392-1.392V39.989H70.623V63.661A1.394,1.394,0,0,1,69.23,65.053Zm-21.7-33.419L49.9,29.257a1.405,1.405,0,0,1,.984-.408H69.23a1.394,1.394,0,0,1,1.392,1.392V37.2H17.71V33.027A1.394,1.394,0,0,1,19.1,31.634Zm3.6-13.925H37.2V3.785H51.128ZM70.623,3.785H84.547V17.709H70.623Z"/>
      <path id="Trazado_814493" data-name="Trazado 814493" d="M53,5h8.355V7.785H53Z" transform="translate(20.408 1.57)"/>
      <path id="Trazado_814494" data-name="Trazado 814494" d="M53,9h8.355v2.785H53Z" transform="translate(20.408 3.14)"/>
      <path id="Trazado_814495" data-name="Trazado 814495" d="M15,31h2.785v2.785H15Z" transform="translate(5.494 11.774)"/>
      <path id="Trazado_814496" data-name="Trazado 814496" d="M19,31h2.785v2.785H19Z" transform="translate(7.064 11.774)"/>
      <path id="Trazado_814497" data-name="Trazado 814497" d="M23,31h2.785v2.785H23Z" transform="translate(8.634 11.774)"/>
    </g>
  </g>
</svg>
