<svg xmlns="http://www.w3.org/2000/svg" xmlns:xlink="http://www.w3.org/1999/xlink" width="213.81" height="47" viewBox="0 0 213.81 47">
  <defs>
    <clipPath id="clip-path">
      <rect id="Rectángulo_374500" data-name="Rectángulo 374500" width="49" height="47" fill="none" stroke="#707070" stroke-width="1"/>
    </clipPath>
  </defs>
  <g id="Grupo_1070277" data-name="Grupo 1070277" transform="translate(-180 -4336.622)">
    <rect id="Rectángulo_374497" data-name="Rectángulo 374497" width="194.306" height="39" rx="19.5" transform="translate(180 4340.622)" fill="#083142"/>
    <g id="Enmascarar_grupo_1067929" data-name="Enmascarar grupo 1067929" transform="translate(344.81 4336.622)" clip-path="url(#clip-path)">
      <g id="Grupo_1070260" data-name="Grupo 1070260" transform="translate(-3.775 -3.529)">
        <rect id="Rectángulo_374498" data-name="Rectángulo 374498" width="24.699" height="51.752" rx="12.349" transform="translate(36.594) rotate(45)" fill="#ff6148"/>
        <rect id="Rectángulo_374499" data-name="Rectángulo 374499" width="15.615" height="32.719" rx="7.808" transform="translate(43.912 14.927) rotate(45)" fill="#ffb476"/>
      </g>
    </g>
    <path id="Trazado_816898" data-name="Trazado 816898" d="M7.725.283a7.369,7.369,0,0,1,3.5.781A5.1,5.1,0,0,1,13.838,5H11.914a3.494,3.494,0,0,0-1.455-2.29,5.008,5.008,0,0,0-2.783-.718A4.362,4.362,0,0,0,4.321,3.486,6.412,6.412,0,0,0,2.959,7.939,7.116,7.116,0,0,0,4.082,12.1a4.152,4.152,0,0,0,3.662,1.606,4.676,4.676,0,0,0,3.218-1.128,4.722,4.722,0,0,0,1.3-3.647H7.773V7.324h6.3V15h-1.25l-.469-1.846a7.368,7.368,0,0,1-1.748,1.5,6.552,6.552,0,0,1-3.252.723,6.336,6.336,0,0,1-4.385-1.65,7.832,7.832,0,0,1-2-5.684A8.151,8.151,0,0,1,2.92,2.314,6.208,6.208,0,0,1,7.725.283ZM21.2,4.307a4.771,4.771,0,0,1,2.158.522,3.98,3.98,0,0,1,1.592,1.353,4.666,4.666,0,0,1,.7,1.846,12.076,12.076,0,0,1,.156,2.3H18.145a4.473,4.473,0,0,0,.752,2.554,2.518,2.518,0,0,0,2.178.962,2.815,2.815,0,0,0,2.2-.908,3.062,3.062,0,0,0,.664-1.221h1.729A3.64,3.64,0,0,1,25.21,13a4.567,4.567,0,0,1-.864,1.157,4.1,4.1,0,0,1-1.982,1.055,6.022,6.022,0,0,1-1.436.156,4.4,4.4,0,0,1-3.311-1.421A5.529,5.529,0,0,1,16.26,9.971a6.011,6.011,0,0,1,1.367-4.092A4.51,4.51,0,0,1,21.2,4.307ZM24,8.936a4.554,4.554,0,0,0-.5-1.826,2.553,2.553,0,0,0-2.412-1.27,2.674,2.674,0,0,0-2.031.874,3.3,3.3,0,0,0-.869,2.222Zm3.965-4.395h1.67V6.025a4.684,4.684,0,0,1,1.572-1.318,4.193,4.193,0,0,1,1.846-.4,3.043,3.043,0,0,1,3.008,1.553,5.514,5.514,0,0,1,.43,2.432V15H34.707V8.408a3.569,3.569,0,0,0-.283-1.543,1.717,1.717,0,0,0-1.7-.977,3.46,3.46,0,0,0-1.025.127,2.641,2.641,0,0,0-1.27.859,2.587,2.587,0,0,0-.571,1.069,7.2,7.2,0,0,0-.132,1.577V15H27.969Zm15.479-.234a4.771,4.771,0,0,1,2.158.522A3.98,3.98,0,0,1,47.2,6.182a4.666,4.666,0,0,1,.7,1.846,12.076,12.076,0,0,1,.156,2.3H40.391a4.473,4.473,0,0,0,.752,2.554,2.518,2.518,0,0,0,2.178.962,2.815,2.815,0,0,0,2.2-.908,3.062,3.062,0,0,0,.664-1.221H47.91A3.64,3.64,0,0,1,47.456,13a4.567,4.567,0,0,1-.864,1.157,4.1,4.1,0,0,1-1.982,1.055,6.022,6.022,0,0,1-1.436.156,4.4,4.4,0,0,1-3.311-1.421,5.529,5.529,0,0,1-1.357-3.979,6.011,6.011,0,0,1,1.367-4.092A4.51,4.51,0,0,1,43.447,4.307Zm2.8,4.629a4.554,4.554,0,0,0-.5-1.826A2.553,2.553,0,0,0,43.34,5.84a2.674,2.674,0,0,0-2.031.874,3.3,3.3,0,0,0-.869,2.222Zm4.014-4.395h1.67V6.348a3.992,3.992,0,0,1,1.006-1.284,2.608,2.608,0,0,1,1.846-.757q.049,0,.166.01t.4.039V6.211a2.626,2.626,0,0,0-.288-.039q-.132-.01-.288-.01a2.508,2.508,0,0,0-2.041.854,2.983,2.983,0,0,0-.713,1.968V15H50.264Zm7.959,7.676a1.448,1.448,0,0,0,.557,1.2,2.064,2.064,0,0,0,1.318.439,4.008,4.008,0,0,0,1.8-.43,2.418,2.418,0,0,0,1.465-2.334V9.678a3.007,3.007,0,0,1-.83.342,7.073,7.073,0,0,1-1,.2l-1.064.137a4.071,4.071,0,0,0-1.436.4A1.56,1.56,0,0,0,58.223,12.217ZM62.48,8.662a.955.955,0,0,0,.811-.508,1.545,1.545,0,0,0,.117-.674,1.428,1.428,0,0,0-.64-1.3,3.432,3.432,0,0,0-1.831-.405,2.327,2.327,0,0,0-1.953.742,2.442,2.442,0,0,0-.42,1.221H56.924a3.02,3.02,0,0,1,1.255-2.69,5.152,5.152,0,0,1,2.8-.757,5.693,5.693,0,0,1,3,.7,2.385,2.385,0,0,1,1.143,2.188V13.2a.771.771,0,0,0,.112.439.542.542,0,0,0,.474.166q.117,0,.264-.015t.313-.044v1.3a4.9,4.9,0,0,1-.625.146,4.567,4.567,0,0,1-.586.029,1.446,1.446,0,0,1-1.318-.645,2.487,2.487,0,0,1-.3-.967A4.472,4.472,0,0,1,61.9,14.834a4.773,4.773,0,0,1-2.217.518,3.3,3.3,0,0,1-2.378-.884,2.936,2.936,0,0,1-.923-2.212A2.849,2.849,0,0,1,57.295,10a4.321,4.321,0,0,1,2.383-.986ZM68.047.654H69.8V15H68.047ZM72.441,4.59h1.787V15H72.441Zm0-3.936h1.787V2.646H72.441ZM78,9.893a5.184,5.184,0,0,0,.713,2.813A2.5,2.5,0,0,0,81,13.838,2.407,2.407,0,0,0,83,12.788a4.958,4.958,0,0,0,.786-3.013,4.455,4.455,0,0,0-.811-2.935,2.528,2.528,0,0,0-2-.952A2.643,2.643,0,0,0,78.823,6.9,4.652,4.652,0,0,0,78,9.893Zm2.646-5.537a3.721,3.721,0,0,1,2.012.508,4.725,4.725,0,0,1,1.064,1.025V.605H85.41V15H83.828V13.545a3.8,3.8,0,0,1-1.455,1.4,4.165,4.165,0,0,1-1.924.43,3.9,3.9,0,0,1-3.027-1.47A5.746,5.746,0,0,1,76.143,9.99,6.752,6.752,0,0,1,77.31,6.03,3.821,3.821,0,0,1,80.645,4.355Zm8.711,7.861a1.448,1.448,0,0,0,.557,1.2,2.064,2.064,0,0,0,1.318.439,4.008,4.008,0,0,0,1.8-.43,2.418,2.418,0,0,0,1.465-2.334V9.678a3.007,3.007,0,0,1-.83.342,7.073,7.073,0,0,1-1,.2l-1.064.137a4.071,4.071,0,0,0-1.436.4A1.56,1.56,0,0,0,89.355,12.217Zm4.258-3.555a.955.955,0,0,0,.811-.508,1.545,1.545,0,0,0,.117-.674,1.428,1.428,0,0,0-.64-1.3,3.432,3.432,0,0,0-1.831-.405,2.327,2.327,0,0,0-1.953.742,2.442,2.442,0,0,0-.42,1.221H88.057a3.02,3.02,0,0,1,1.255-2.69,5.152,5.152,0,0,1,2.8-.757,5.693,5.693,0,0,1,3,.7A2.385,2.385,0,0,1,96.25,7.178V13.2a.771.771,0,0,0,.112.439.542.542,0,0,0,.474.166q.117,0,.264-.015t.313-.044v1.3a4.9,4.9,0,0,1-.625.146,4.567,4.567,0,0,1-.586.029,1.446,1.446,0,0,1-1.318-.645,2.487,2.487,0,0,1-.3-.967,4.472,4.472,0,0,1-1.543,1.221,4.773,4.773,0,0,1-2.217.518,3.3,3.3,0,0,1-2.378-.884,2.936,2.936,0,0,1-.923-2.212A2.849,2.849,0,0,1,88.428,10a4.321,4.321,0,0,1,2.383-.986Zm6.631,1.23a5.184,5.184,0,0,0,.713,2.813,2.5,2.5,0,0,0,2.285,1.133,2.407,2.407,0,0,0,2.007-1.05,4.958,4.958,0,0,0,.786-3.013,4.455,4.455,0,0,0-.811-2.935,2.528,2.528,0,0,0-2-.952A2.643,2.643,0,0,0,101.069,6.9,4.652,4.652,0,0,0,100.244,9.893Zm2.646-5.537a3.721,3.721,0,0,1,2.012.508,4.725,4.725,0,0,1,1.064,1.025V.605h1.689V15h-1.582V13.545a3.8,3.8,0,0,1-1.455,1.4,4.165,4.165,0,0,1-1.924.43,3.9,3.9,0,0,1-3.027-1.47A5.746,5.746,0,0,1,98.389,9.99a6.752,6.752,0,0,1,1.167-3.96A3.821,3.821,0,0,1,102.891,4.355Zm11.719-.049a4.771,4.771,0,0,1,2.158.522,3.98,3.98,0,0,1,1.592,1.353,4.666,4.666,0,0,1,.7,1.846,12.076,12.076,0,0,1,.156,2.3h-7.666a4.473,4.473,0,0,0,.752,2.554,2.518,2.518,0,0,0,2.178.962,2.815,2.815,0,0,0,2.2-.908,3.062,3.062,0,0,0,.664-1.221h1.729A3.64,3.64,0,0,1,118.618,13a4.568,4.568,0,0,1-.864,1.157,4.1,4.1,0,0,1-1.982,1.055,6.022,6.022,0,0,1-1.436.156,4.4,4.4,0,0,1-3.311-1.421,5.529,5.529,0,0,1-1.357-3.979,6.011,6.011,0,0,1,1.367-4.092A4.51,4.51,0,0,1,114.609,4.307Zm2.8,4.629a4.554,4.554,0,0,0-.5-1.826A2.553,2.553,0,0,0,114.5,5.84a2.674,2.674,0,0,0-2.031.874,3.3,3.3,0,0,0-.869,2.222Zm5.01,2.783a2.556,2.556,0,0,0,.439,1.348,2.762,2.762,0,0,0,2.3.85,3.4,3.4,0,0,0,1.719-.425,1.411,1.411,0,0,0,.742-1.313,1.123,1.123,0,0,0-.6-1.025,7.083,7.083,0,0,0-1.5-.5l-1.4-.352a6.812,6.812,0,0,1-1.973-.742,2.218,2.218,0,0,1-1.133-1.973,3.014,3.014,0,0,1,1.069-2.4,4.266,4.266,0,0,1,2.876-.918,3.992,3.992,0,0,1,3.408,1.387,3.009,3.009,0,0,1,.635,1.895h-1.66a2.034,2.034,0,0,0-.42-1.084,2.678,2.678,0,0,0-2.1-.693,2.51,2.51,0,0,0-1.509.381,1.194,1.194,0,0,0-.513,1.006,1.238,1.238,0,0,0,.674,1.094,4.049,4.049,0,0,0,1.152.43l1.162.283a8.985,8.985,0,0,1,2.539.889,2.353,2.353,0,0,1,1.025,2.119,3.229,3.229,0,0,1-1.06,2.412,4.51,4.51,0,0,1-3.228,1.016,4.33,4.33,0,0,1-3.306-1.06,4.007,4.007,0,0,1-1.04-2.622Z" transform="translate(204.996 4347.623)" fill="#fff"/>
  </g>
</svg>
