<svg xmlns="http://www.w3.org/2000/svg" xmlns:xlink="http://www.w3.org/1999/xlink" width="371.804" height="47" viewBox="0 0 371.804 47">
  <defs>
    <clipPath id="clip-path">
      <rect id="Rectángulo_374508" data-name="Rectángulo 374508" width="49" height="47" fill="none" stroke="#707070" stroke-width="1"/>
    </clipPath>
  </defs>
  <g id="Grupo_1070279" data-name="Grupo 1070279" transform="translate(-180 -5641.671)">
    <rect id="Rectángulo_374505" data-name="Rectángulo 374505" width="352.3" height="39" rx="19.5" transform="translate(180 5645.67)" fill="#083142"/>
    <g id="Enmascarar_grupo_1067931" data-name="Enmascarar grupo 1067931" transform="translate(502.804 5641.671)" clip-path="url(#clip-path)">
      <g id="Grupo_1070262" data-name="Grupo 1070262" transform="translate(-3.775 -3.529)">
        <rect id="Rectángulo_374506" data-name="Rectángulo 374506" width="24.699" height="51.752" rx="12.349" transform="translate(36.594) rotate(45)" fill="#ff6148"/>
        <rect id="Rectángulo_374507" data-name="Rectángulo 374507" width="15.615" height="32.719" rx="7.808" transform="translate(43.912 14.927) rotate(45)" fill="#ffb476"/>
      </g>
    </g>
    <path id="Trazado_816900" data-name="Trazado 816900" d="M11.963.654V2.363H7.129V15H5.156V2.363H.322V.654Zm3.682,3.652a4.771,4.771,0,0,1,2.158.522,3.98,3.98,0,0,1,1.592,1.353,4.666,4.666,0,0,1,.7,1.846,12.076,12.076,0,0,1,.156,2.3H12.588a4.473,4.473,0,0,0,.752,2.554,2.518,2.518,0,0,0,2.178.962,2.815,2.815,0,0,0,2.2-.908,3.062,3.062,0,0,0,.664-1.221h1.729A3.64,3.64,0,0,1,19.653,13a4.567,4.567,0,0,1-.864,1.157,4.1,4.1,0,0,1-1.982,1.055,6.022,6.022,0,0,1-1.436.156,4.4,4.4,0,0,1-3.311-1.421A5.529,5.529,0,0,1,10.7,9.971,6.011,6.011,0,0,1,12.07,5.879,4.51,4.51,0,0,1,15.645,4.307Zm2.8,4.629a4.554,4.554,0,0,0-.5-1.826,2.553,2.553,0,0,0-2.412-1.27,2.674,2.674,0,0,0-2.031.874,3.3,3.3,0,0,0-.869,2.222Zm8-4.7a4.56,4.56,0,0,1,2.876.859,4.117,4.117,0,0,1,1.333,2.959H28.945a3.155,3.155,0,0,0-.713-1.606,2.252,2.252,0,0,0-1.787-.64,2.469,2.469,0,0,0-2.4,1.641,6.517,6.517,0,0,0-.469,2.627,4.943,4.943,0,0,0,.664,2.646,2.278,2.278,0,0,0,2.09,1.074,2.285,2.285,0,0,0,1.733-.669,3.678,3.678,0,0,0,.884-1.831h1.709a4.587,4.587,0,0,1-1.465,3.042,4.57,4.57,0,0,1-3,.962,4,4,0,0,1-3.271-1.5A5.738,5.738,0,0,1,21.7,10.059a6.309,6.309,0,0,1,1.338-4.287A4.323,4.323,0,0,1,26.445,4.238Zm5.967.3h1.67V6.025a4.684,4.684,0,0,1,1.572-1.318,4.193,4.193,0,0,1,1.846-.4,3.043,3.043,0,0,1,3.008,1.553,5.514,5.514,0,0,1,.43,2.432V15H39.15V8.408a3.569,3.569,0,0,0-.283-1.543,1.717,1.717,0,0,0-1.7-.977,3.46,3.46,0,0,0-1.025.127,2.641,2.641,0,0,0-1.27.859A2.587,2.587,0,0,0,34.3,7.944a7.2,7.2,0,0,0-.132,1.577V15H32.412Zm15.273,9.326a2.424,2.424,0,0,0,2.4-1.323A6.592,6.592,0,0,0,50.732,9.6a5.242,5.242,0,0,0-.469-2.383,2.637,2.637,0,0,0-2.559-1.445A2.523,2.523,0,0,0,45.361,7a5.7,5.7,0,0,0-.732,2.969,4.961,4.961,0,0,0,.732,2.783A2.58,2.58,0,0,0,47.686,13.867Zm.068-9.629a4.736,4.736,0,0,1,3.418,1.348,5.263,5.263,0,0,1,1.4,3.965,6.8,6.8,0,0,1-1.23,4.18,4.451,4.451,0,0,1-3.818,1.65,4.311,4.311,0,0,1-3.428-1.46A5.767,5.767,0,0,1,42.822,10,6.239,6.239,0,0,1,44.16,5.8,4.49,4.49,0,0,1,47.754,4.238ZM54.707.654h1.758V15H54.707Zm8.545,13.213a2.424,2.424,0,0,0,2.4-1.323A6.592,6.592,0,0,0,66.3,9.6a5.242,5.242,0,0,0-.469-2.383,2.637,2.637,0,0,0-2.559-1.445A2.523,2.523,0,0,0,60.928,7,5.7,5.7,0,0,0,60.2,9.971a4.961,4.961,0,0,0,.732,2.783A2.58,2.58,0,0,0,63.252,13.867Zm.068-9.629a4.736,4.736,0,0,1,3.418,1.348,5.263,5.263,0,0,1,1.4,3.965,6.8,6.8,0,0,1-1.23,4.18,4.451,4.451,0,0,1-3.818,1.65,4.311,4.311,0,0,1-3.428-1.46A5.767,5.767,0,0,1,58.389,10a6.239,6.239,0,0,1,1.338-4.2A4.49,4.49,0,0,1,63.32,4.238Zm10.6.117a3.812,3.812,0,0,1,2.148.605,4.826,4.826,0,0,1,1.016,1V4.639H78.7V14.15a7.014,7.014,0,0,1-.586,3.145q-1.094,2.129-4.131,2.129a5.067,5.067,0,0,1-2.842-.757A2.951,2.951,0,0,1,69.854,16.3h1.787a1.989,1.989,0,0,0,.508,1.084,3.215,3.215,0,0,0,4.521-.84,8.03,8.03,0,0,0,.342-3,3.449,3.449,0,0,1-1.27,1.191,4.553,4.553,0,0,1-4.937-.815,5.3,5.3,0,0,1-1.274-3.989,6.042,6.042,0,0,1,1.284-4.1A3.971,3.971,0,0,1,73.916,4.355ZM77.08,9.727a4.36,4.36,0,0,0-.8-2.881,2.566,2.566,0,0,0-2.041-.937A2.52,2.52,0,0,0,71.7,7.646a6.816,6.816,0,0,0-.361,2.432,4.316,4.316,0,0,0,.718,2.69,2.317,2.317,0,0,0,1.929.923,2.708,2.708,0,0,0,2.666-1.709A5.512,5.512,0,0,0,77.08,9.727ZM81.9,4.59h1.787V15H81.9ZM85.02.332,82.412,3.154H81.064L82.852.332Zm3.232,11.885a1.448,1.448,0,0,0,.557,1.2,2.064,2.064,0,0,0,1.318.439,4.008,4.008,0,0,0,1.8-.43,2.418,2.418,0,0,0,1.465-2.334V9.678a3.007,3.007,0,0,1-.83.342,7.073,7.073,0,0,1-1,.2l-1.064.137a4.071,4.071,0,0,0-1.436.4A1.56,1.56,0,0,0,88.252,12.217ZM92.51,8.662a.955.955,0,0,0,.811-.508,1.545,1.545,0,0,0,.117-.674,1.428,1.428,0,0,0-.64-1.3,3.432,3.432,0,0,0-1.831-.405,2.327,2.327,0,0,0-1.953.742,2.442,2.442,0,0,0-.42,1.221H86.953a3.02,3.02,0,0,1,1.255-2.69,5.152,5.152,0,0,1,2.8-.757,5.693,5.693,0,0,1,3,.7,2.385,2.385,0,0,1,1.143,2.188V13.2a.771.771,0,0,0,.112.439.542.542,0,0,0,.474.166q.117,0,.264-.015t.313-.044v1.3a4.9,4.9,0,0,1-.625.146,4.567,4.567,0,0,1-.586.029,1.446,1.446,0,0,1-1.318-.645,2.487,2.487,0,0,1-.3-.967,4.472,4.472,0,0,1-1.543,1.221,4.773,4.773,0,0,1-2.217.518,3.3,3.3,0,0,1-2.378-.884,2.936,2.936,0,0,1-.923-2.212A2.849,2.849,0,0,1,87.324,10a4.321,4.321,0,0,1,2.383-.986Zm6.563,3.057a2.556,2.556,0,0,0,.439,1.348,2.762,2.762,0,0,0,2.3.85,3.4,3.4,0,0,0,1.719-.425,1.411,1.411,0,0,0,.742-1.313,1.123,1.123,0,0,0-.6-1.025,7.083,7.083,0,0,0-1.5-.5l-1.4-.352a6.812,6.812,0,0,1-1.973-.742,2.218,2.218,0,0,1-1.133-1.973,3.014,3.014,0,0,1,1.069-2.4,4.266,4.266,0,0,1,2.876-.918,3.992,3.992,0,0,1,3.408,1.387,3.009,3.009,0,0,1,.635,1.895H104a2.034,2.034,0,0,0-.42-1.084,2.678,2.678,0,0,0-2.1-.693,2.51,2.51,0,0,0-1.509.381,1.194,1.194,0,0,0-.513,1.006,1.238,1.238,0,0,0,.674,1.094,4.049,4.049,0,0,0,1.152.43l1.162.283a8.985,8.985,0,0,1,2.539.889,2.353,2.353,0,0,1,1.025,2.119,3.229,3.229,0,0,1-1.06,2.412,4.51,4.51,0,0,1-3.228,1.016,4.33,4.33,0,0,1-3.306-1.06,4.007,4.007,0,0,1-1.04-2.622ZM114.7,9.893a5.184,5.184,0,0,0,.713,2.813,2.5,2.5,0,0,0,2.285,1.133,2.407,2.407,0,0,0,2.007-1.05,4.958,4.958,0,0,0,.786-3.013,4.455,4.455,0,0,0-.811-2.935,2.528,2.528,0,0,0-2-.952A2.643,2.643,0,0,0,115.522,6.9,4.652,4.652,0,0,0,114.7,9.893Zm2.646-5.537a3.721,3.721,0,0,1,2.012.508,4.725,4.725,0,0,1,1.064,1.025V.605h1.689V15h-1.582V13.545a3.8,3.8,0,0,1-1.455,1.4,4.165,4.165,0,0,1-1.924.43,3.9,3.9,0,0,1-3.027-1.47,5.746,5.746,0,0,1-1.279-3.911,6.752,6.752,0,0,1,1.167-3.96A3.821,3.821,0,0,1,117.344,4.355Zm11.719-.049a4.771,4.771,0,0,1,2.158.522,3.98,3.98,0,0,1,1.592,1.353,4.666,4.666,0,0,1,.7,1.846,12.075,12.075,0,0,1,.156,2.3h-7.666a4.473,4.473,0,0,0,.752,2.554,2.518,2.518,0,0,0,2.178.962,2.815,2.815,0,0,0,2.2-.908,3.062,3.062,0,0,0,.664-1.221h1.729A3.641,3.641,0,0,1,133.071,13a4.567,4.567,0,0,1-.864,1.157,4.1,4.1,0,0,1-1.982,1.055,6.022,6.022,0,0,1-1.436.156,4.4,4.4,0,0,1-3.311-1.421,5.529,5.529,0,0,1-1.357-3.979,6.011,6.011,0,0,1,1.367-4.092A4.51,4.51,0,0,1,129.063,4.307Zm2.8,4.629a4.554,4.554,0,0,0-.5-1.826,2.553,2.553,0,0,0-2.412-1.27,2.674,2.674,0,0,0-2.031.874,3.3,3.3,0,0,0-.869,2.222Zm10.869,3.281a1.448,1.448,0,0,0,.557,1.2,2.064,2.064,0,0,0,1.318.439,4.008,4.008,0,0,0,1.8-.43,2.418,2.418,0,0,0,1.465-2.334V9.678a3.007,3.007,0,0,1-.83.342,7.074,7.074,0,0,1-1,.2l-1.064.137a4.071,4.071,0,0,0-1.436.4A1.56,1.56,0,0,0,142.734,12.217Zm4.258-3.555a.955.955,0,0,0,.811-.508,1.545,1.545,0,0,0,.117-.674,1.428,1.428,0,0,0-.64-1.3,3.432,3.432,0,0,0-1.831-.405,2.327,2.327,0,0,0-1.953.742,2.442,2.442,0,0,0-.42,1.221h-1.641a3.02,3.02,0,0,1,1.255-2.69,5.152,5.152,0,0,1,2.8-.757,5.693,5.693,0,0,1,3,.7,2.385,2.385,0,0,1,1.143,2.188V13.2a.771.771,0,0,0,.112.439.542.542,0,0,0,.474.166q.117,0,.264-.015t.313-.044v1.3a4.9,4.9,0,0,1-.625.146,4.567,4.567,0,0,1-.586.029,1.446,1.446,0,0,1-1.318-.645,2.487,2.487,0,0,1-.3-.967,4.472,4.472,0,0,1-1.543,1.221,4.773,4.773,0,0,1-2.217.518,3.3,3.3,0,0,1-2.378-.884,2.936,2.936,0,0,1-.923-2.212A2.849,2.849,0,0,1,141.807,10a4.321,4.321,0,0,1,2.383-.986ZM152.559.654h1.758V15h-1.758Zm4.395,3.887h1.738V6.025A5.843,5.843,0,0,1,159.824,4.9a3.407,3.407,0,0,1,1.973-.6,3.1,3.1,0,0,1,2.012.615,3.216,3.216,0,0,1,.781,1.035,3.8,3.8,0,0,1,1.377-1.245,3.841,3.841,0,0,1,1.777-.405,2.906,2.906,0,0,1,2.871,1.523,4.98,4.98,0,0,1,.41,2.207V15H169.2V7.734a1.692,1.692,0,0,0-.522-1.436,2.068,2.068,0,0,0-1.274-.391,2.53,2.53,0,0,0-1.782.693,3.045,3.045,0,0,0-.747,2.314V15h-1.787V8.174a3.547,3.547,0,0,0-.254-1.553,1.548,1.548,0,0,0-1.494-.732,2.578,2.578,0,0,0-1.812.771,3.781,3.781,0,0,0-.815,2.793V15h-1.758Zm18.008,7.676a1.448,1.448,0,0,0,.557,1.2,2.064,2.064,0,0,0,1.318.439,4.008,4.008,0,0,0,1.8-.43,2.418,2.418,0,0,0,1.465-2.334V9.678a3.007,3.007,0,0,1-.83.342,7.074,7.074,0,0,1-1,.2l-1.064.137a4.071,4.071,0,0,0-1.436.4A1.56,1.56,0,0,0,174.961,12.217Zm4.258-3.555a.955.955,0,0,0,.811-.508,1.545,1.545,0,0,0,.117-.674,1.428,1.428,0,0,0-.64-1.3,3.432,3.432,0,0,0-1.831-.405,2.327,2.327,0,0,0-1.953.742,2.442,2.442,0,0,0-.42,1.221h-1.641a3.02,3.02,0,0,1,1.255-2.69,5.152,5.152,0,0,1,2.8-.757,5.693,5.693,0,0,1,3,.7,2.385,2.385,0,0,1,1.143,2.188V13.2a.771.771,0,0,0,.112.439.542.542,0,0,0,.474.166q.117,0,.264-.015t.313-.044v1.3a4.9,4.9,0,0,1-.625.146,4.567,4.567,0,0,1-.586.029,1.446,1.446,0,0,1-1.318-.645,2.487,2.487,0,0,1-.3-.967,4.472,4.472,0,0,1-1.543,1.221,4.773,4.773,0,0,1-2.217.518,3.3,3.3,0,0,1-2.378-.884,2.936,2.936,0,0,1-.923-2.212A2.849,2.849,0,0,1,174.033,10a4.321,4.321,0,0,1,2.383-.986Zm9.551-4.424a4.56,4.56,0,0,1,2.876.859,4.117,4.117,0,0,1,1.333,2.959H191.27a3.155,3.155,0,0,0-.713-1.606,2.252,2.252,0,0,0-1.787-.64,2.469,2.469,0,0,0-2.4,1.641,6.517,6.517,0,0,0-.469,2.627,4.943,4.943,0,0,0,.664,2.646,2.574,2.574,0,0,0,3.823.405,3.678,3.678,0,0,0,.884-1.831h1.709a4.587,4.587,0,0,1-1.465,3.042,4.57,4.57,0,0,1-3,.962,4,4,0,0,1-3.271-1.5,5.738,5.738,0,0,1-1.221-3.745,6.309,6.309,0,0,1,1.338-4.287A4.323,4.323,0,0,1,188.77,4.238Zm10.322.068a4.771,4.771,0,0,1,2.158.522,3.98,3.98,0,0,1,1.592,1.353,4.666,4.666,0,0,1,.7,1.846,12.075,12.075,0,0,1,.156,2.3h-7.666a4.473,4.473,0,0,0,.752,2.554,2.518,2.518,0,0,0,2.178.962,2.815,2.815,0,0,0,2.2-.908,3.062,3.062,0,0,0,.664-1.221h1.729A3.641,3.641,0,0,1,203.1,13a4.567,4.567,0,0,1-.864,1.157,4.1,4.1,0,0,1-1.982,1.055,6.022,6.022,0,0,1-1.436.156,4.4,4.4,0,0,1-3.311-1.421,5.529,5.529,0,0,1-1.357-3.979,6.011,6.011,0,0,1,1.367-4.092A4.51,4.51,0,0,1,199.092,4.307Zm2.8,4.629a4.554,4.554,0,0,0-.5-1.826,2.553,2.553,0,0,0-2.412-1.27,2.674,2.674,0,0,0-2.031.874,3.3,3.3,0,0,0-.869,2.222Zm3.965-4.395h1.67V6.025A4.684,4.684,0,0,1,209.1,4.707a4.193,4.193,0,0,1,1.846-.4,3.043,3.043,0,0,1,3.008,1.553,5.514,5.514,0,0,1,.43,2.432V15H212.6V8.408a3.569,3.569,0,0,0-.283-1.543,1.717,1.717,0,0,0-1.7-.977,3.46,3.46,0,0,0-1.025.127,2.641,2.641,0,0,0-1.27.859,2.587,2.587,0,0,0-.571,1.069,7.2,7.2,0,0,0-.132,1.577V15h-1.758Zm12.471,7.676a1.448,1.448,0,0,0,.557,1.2,2.064,2.064,0,0,0,1.318.439,4.008,4.008,0,0,0,1.8-.43,2.418,2.418,0,0,0,1.465-2.334V9.678a3.007,3.007,0,0,1-.83.342,7.074,7.074,0,0,1-1,.2l-1.064.137a4.071,4.071,0,0,0-1.436.4A1.56,1.56,0,0,0,218.33,12.217Zm4.258-3.555a.955.955,0,0,0,.811-.508,1.545,1.545,0,0,0,.117-.674,1.428,1.428,0,0,0-.64-1.3,3.432,3.432,0,0,0-1.831-.405,2.327,2.327,0,0,0-1.953.742,2.442,2.442,0,0,0-.42,1.221h-1.641a3.02,3.02,0,0,1,1.255-2.69,5.152,5.152,0,0,1,2.8-.757,5.693,5.693,0,0,1,3,.7,2.385,2.385,0,0,1,1.143,2.188V13.2a.771.771,0,0,0,.112.439.542.542,0,0,0,.474.166q.117,0,.264-.015t.313-.044v1.3a4.9,4.9,0,0,1-.625.146,4.567,4.567,0,0,1-.586.029,1.446,1.446,0,0,1-1.318-.645,2.487,2.487,0,0,1-.3-.967,4.472,4.472,0,0,1-1.543,1.221,4.773,4.773,0,0,1-2.217.518,3.3,3.3,0,0,1-2.378-.884,2.936,2.936,0,0,1-.923-2.212A2.849,2.849,0,0,1,217.4,10a4.321,4.321,0,0,1,2.383-.986Zm5.518-4.121h1.738V6.025A5.843,5.843,0,0,1,230.977,4.9a3.407,3.407,0,0,1,1.973-.6,3.1,3.1,0,0,1,2.012.615,3.216,3.216,0,0,1,.781,1.035,3.8,3.8,0,0,1,1.377-1.245,3.841,3.841,0,0,1,1.777-.405,2.906,2.906,0,0,1,2.871,1.523,4.98,4.98,0,0,1,.41,2.207V15h-1.826V7.734a1.692,1.692,0,0,0-.522-1.436,2.068,2.068,0,0,0-1.274-.391,2.53,2.53,0,0,0-1.782.693,3.045,3.045,0,0,0-.747,2.314V15h-1.787V8.174a3.547,3.547,0,0,0-.254-1.553,1.548,1.548,0,0,0-1.494-.732,2.578,2.578,0,0,0-1.812.771,3.781,3.781,0,0,0-.815,2.793V15h-1.758Zm16.66.049h1.787V15h-1.787Zm0-3.936h1.787V2.646h-1.787Zm8.8,3.652a4.771,4.771,0,0,1,2.158.522,3.98,3.98,0,0,1,1.592,1.353,4.666,4.666,0,0,1,.7,1.846,12.077,12.077,0,0,1,.156,2.3h-7.666a4.473,4.473,0,0,0,.752,2.554,2.518,2.518,0,0,0,2.178.962,2.815,2.815,0,0,0,2.2-.908,3.062,3.062,0,0,0,.664-1.221h1.729A3.64,3.64,0,0,1,257.573,13a4.568,4.568,0,0,1-.864,1.157,4.1,4.1,0,0,1-1.982,1.055,6.022,6.022,0,0,1-1.436.156,4.4,4.4,0,0,1-3.311-1.421,5.529,5.529,0,0,1-1.357-3.979,6.011,6.011,0,0,1,1.367-4.092A4.51,4.51,0,0,1,253.564,4.307Zm2.8,4.629a4.554,4.554,0,0,0-.5-1.826,2.553,2.553,0,0,0-2.412-1.27,2.674,2.674,0,0,0-2.031.874,3.3,3.3,0,0,0-.869,2.222Zm3.965-4.395H262V6.025a4.684,4.684,0,0,1,1.572-1.318,4.193,4.193,0,0,1,1.846-.4,3.043,3.043,0,0,1,3.008,1.553,5.513,5.513,0,0,1,.43,2.432V15H267.07V8.408a3.569,3.569,0,0,0-.283-1.543,1.717,1.717,0,0,0-1.7-.977,3.46,3.46,0,0,0-1.025.127,2.641,2.641,0,0,0-1.27.859,2.587,2.587,0,0,0-.571,1.069,7.2,7.2,0,0,0-.132,1.577V15h-1.758Zm11.475-2.92h1.777v2.92h1.67V5.977h-1.67V12.8a.739.739,0,0,0,.371.732,1.577,1.577,0,0,0,.684.107q.127,0,.273,0t.342-.024V15a3.924,3.924,0,0,1-.63.127,5.989,5.989,0,0,1-.708.039,1.908,1.908,0,0,1-1.67-.63,2.8,2.8,0,0,1-.439-1.636V5.977h-1.416V4.541h1.416Zm9.355,12.246a2.424,2.424,0,0,0,2.4-1.323,6.592,6.592,0,0,0,.649-2.944,5.242,5.242,0,0,0-.469-2.383,2.637,2.637,0,0,0-2.559-1.445A2.523,2.523,0,0,0,278.838,7a5.7,5.7,0,0,0-.732,2.969,4.961,4.961,0,0,0,.732,2.783A2.58,2.58,0,0,0,281.162,13.867Zm.068-9.629a4.736,4.736,0,0,1,3.418,1.348,5.263,5.263,0,0,1,1.4,3.965,6.8,6.8,0,0,1-1.23,4.18A4.451,4.451,0,0,1,281,15.381a4.311,4.311,0,0,1-3.428-1.46A5.767,5.767,0,0,1,276.3,10a6.239,6.239,0,0,1,1.338-4.2A4.49,4.49,0,0,1,281.23,4.238Z" transform="translate(203.996 5655.671)" fill="#fff"/>
  </g>
</svg>
