<svg xmlns="http://www.w3.org/2000/svg" xmlns:xlink="http://www.w3.org/1999/xlink" width="204.111" height="47" viewBox="0 0 204.111 47">
  <defs>
    <clipPath id="clip-path">
      <rect id="Rectángulo_374512" data-name="Rectángulo 374512" width="49" height="47" fill="none" stroke="#707070" stroke-width="1"/>
    </clipPath>
  </defs>
  <rect id="Rectángulo_374509" data-name="Rectángulo 374509" width="184.607" height="39" rx="19.5" transform="translate(0 4)" fill="#083142"/>
  <g id="Enmascarar_grupo_1067932" data-name="Enmascarar grupo 1067932" transform="translate(155.111)" clip-path="url(#clip-path)">
    <g id="Grupo_1070263" data-name="Grupo 1070263" transform="translate(-3.775 -3.529)">
      <rect id="Rectángulo_374510" data-name="Rectángulo 374510" width="24.699" height="51.752" rx="12.349" transform="translate(36.594) rotate(45)" fill="#ff6148"/>
      <rect id="Rectángulo_374511" data-name="Rectángulo 374511" width="15.615" height="32.719" rx="7.808" transform="translate(43.912 14.927) rotate(45)" fill="#ffb476"/>
    </g>
  </g>
  <path id="Trazado_816901" data-name="Trazado 816901" d="M8.887,9.121,6.709,2.783,4.395,9.121ZM5.693.654h2.2L13.1,15H10.967L9.512,10.7H3.838L2.285,15H.293Zm8.984,3.887h1.67V6.348a3.992,3.992,0,0,1,1.006-1.284A2.608,2.608,0,0,1,19.2,4.307q.049,0,.166.01t.4.039V6.211a2.625,2.625,0,0,0-.288-.039q-.132-.01-.288-.01a2.508,2.508,0,0,0-2.041.854,2.983,2.983,0,0,0-.713,1.968V15H14.678Zm6.66,0h1.67V6.348a3.992,3.992,0,0,1,1.006-1.284,2.608,2.608,0,0,1,1.846-.757q.049,0,.166.01t.4.039V6.211a2.625,2.625,0,0,0-.288-.039q-.132-.01-.288-.01a2.508,2.508,0,0,0-2.041.854A2.983,2.983,0,0,0,23.1,8.984V15H21.338ZM32.3,4.307a4.771,4.771,0,0,1,2.158.522,3.98,3.98,0,0,1,1.592,1.353,4.666,4.666,0,0,1,.7,1.846,12.076,12.076,0,0,1,.156,2.3H29.248A4.473,4.473,0,0,0,30,12.886a2.518,2.518,0,0,0,2.178.962,2.815,2.815,0,0,0,2.2-.908,3.062,3.062,0,0,0,.664-1.221h1.729A3.64,3.64,0,0,1,36.313,13a4.567,4.567,0,0,1-.864,1.157,4.1,4.1,0,0,1-1.982,1.055,6.022,6.022,0,0,1-1.436.156,4.4,4.4,0,0,1-3.311-1.421,5.529,5.529,0,0,1-1.357-3.979A6.011,6.011,0,0,1,28.73,5.879,4.51,4.51,0,0,1,32.3,4.307Zm2.8,4.629a4.554,4.554,0,0,0-.5-1.826A2.553,2.553,0,0,0,32.2,5.84a2.674,2.674,0,0,0-2.031.874A3.3,3.3,0,0,0,29.3,8.936Zm7.656-4.58a3.812,3.812,0,0,1,2.148.605,4.826,4.826,0,0,1,1.016,1V4.639h1.621V14.15a7.014,7.014,0,0,1-.586,3.145q-1.094,2.129-4.131,2.129a5.067,5.067,0,0,1-2.842-.757A2.951,2.951,0,0,1,38.7,16.3h1.787A1.989,1.989,0,0,0,41,17.383a2.589,2.589,0,0,0,1.875.586,2.58,2.58,0,0,0,2.646-1.426,8.03,8.03,0,0,0,.342-3,3.449,3.449,0,0,1-1.27,1.191,4.553,4.553,0,0,1-4.937-.815,5.3,5.3,0,0,1-1.274-3.989,6.041,6.041,0,0,1,1.284-4.1A3.971,3.971,0,0,1,42.764,4.355Zm3.164,5.371a4.36,4.36,0,0,0-.8-2.881,2.566,2.566,0,0,0-2.041-.937,2.52,2.52,0,0,0-2.539,1.738,6.816,6.816,0,0,0-.361,2.432,4.316,4.316,0,0,0,.718,2.69,2.317,2.317,0,0,0,1.929.923A2.708,2.708,0,0,0,45.5,11.982,5.512,5.512,0,0,0,45.928,9.727ZM50.244.654H52V15H50.244Zm8.545,13.213a2.424,2.424,0,0,0,2.4-1.323A6.592,6.592,0,0,0,61.836,9.6a5.242,5.242,0,0,0-.469-2.383,2.637,2.637,0,0,0-2.559-1.445A2.523,2.523,0,0,0,56.465,7a5.7,5.7,0,0,0-.732,2.969,4.961,4.961,0,0,0,.732,2.783A2.58,2.58,0,0,0,58.789,13.867Zm.068-9.629a4.736,4.736,0,0,1,3.418,1.348,5.263,5.263,0,0,1,1.4,3.965,6.8,6.8,0,0,1-1.23,4.18,4.451,4.451,0,0,1-3.818,1.65,4.311,4.311,0,0,1-3.428-1.46A5.767,5.767,0,0,1,53.926,10a6.239,6.239,0,0,1,1.338-4.2A4.49,4.49,0,0,1,58.857,4.238Zm7.949,7.48a2.556,2.556,0,0,0,.439,1.348,2.762,2.762,0,0,0,2.3.85,3.4,3.4,0,0,0,1.719-.425,1.411,1.411,0,0,0,.742-1.313,1.123,1.123,0,0,0-.6-1.025,7.083,7.083,0,0,0-1.5-.5l-1.4-.352a6.812,6.812,0,0,1-1.973-.742A2.218,2.218,0,0,1,65.41,7.588a3.014,3.014,0,0,1,1.069-2.4,4.266,4.266,0,0,1,2.876-.918,3.992,3.992,0,0,1,3.408,1.387A3.009,3.009,0,0,1,73.4,7.549h-1.66a2.034,2.034,0,0,0-.42-1.084,2.678,2.678,0,0,0-2.1-.693,2.51,2.51,0,0,0-1.509.381A1.194,1.194,0,0,0,67.2,7.158a1.238,1.238,0,0,0,.674,1.094,4.049,4.049,0,0,0,1.152.43l1.162.283a8.985,8.985,0,0,1,2.539.889,2.353,2.353,0,0,1,1.025,2.119,3.229,3.229,0,0,1-1.06,2.412A4.51,4.51,0,0,1,69.463,15.4a4.33,4.33,0,0,1-3.306-1.06,4.007,4.007,0,0,1-1.04-2.622ZM88.223,7.227a3.766,3.766,0,0,0,2.163-.547,2.226,2.226,0,0,0,.8-1.973,2.116,2.116,0,0,0-1.113-2.09,3.638,3.638,0,0,0-1.592-.293H83.73v4.9ZM81.787.654h6.641a6.623,6.623,0,0,1,2.705.479,3.388,3.388,0,0,1,2.021,3.389,3.811,3.811,0,0,1-.532,2.109,3.846,3.846,0,0,1-1.489,1.318,2.934,2.934,0,0,1,1.265.9,3.227,3.227,0,0,1,.474,1.807l.068,1.924a5.914,5.914,0,0,0,.137,1.221,1.2,1.2,0,0,0,.625.879V15H91.318a1.792,1.792,0,0,1-.156-.479,9.184,9.184,0,0,1-.1-1.133L90.947,11A2.01,2.01,0,0,0,89.9,9.111a4.322,4.322,0,0,0-1.748-.264H83.73V15H81.787ZM97.109,12.217a1.448,1.448,0,0,0,.557,1.2,2.064,2.064,0,0,0,1.318.439,4.008,4.008,0,0,0,1.8-.43,2.418,2.418,0,0,0,1.465-2.334V9.678a3.007,3.007,0,0,1-.83.342,7.073,7.073,0,0,1-1,.2l-1.064.137a4.071,4.071,0,0,0-1.436.4A1.56,1.56,0,0,0,97.109,12.217Zm4.258-3.555a.955.955,0,0,0,.811-.508,1.545,1.545,0,0,0,.117-.674,1.428,1.428,0,0,0-.64-1.3,3.432,3.432,0,0,0-1.831-.405,2.327,2.327,0,0,0-1.953.742,2.442,2.442,0,0,0-.42,1.221H95.811a3.02,3.02,0,0,1,1.255-2.69,5.152,5.152,0,0,1,2.8-.757,5.693,5.693,0,0,1,3,.7A2.385,2.385,0,0,1,104,7.178V13.2a.771.771,0,0,0,.112.439.542.542,0,0,0,.474.166q.117,0,.264-.015t.313-.044v1.3a4.9,4.9,0,0,1-.625.146,4.567,4.567,0,0,1-.586.029,1.446,1.446,0,0,1-1.318-.645,2.487,2.487,0,0,1-.3-.967,4.472,4.472,0,0,1-1.543,1.221,4.773,4.773,0,0,1-2.217.518,3.3,3.3,0,0,1-2.378-.884,2.936,2.936,0,0,1-.923-2.212A2.849,2.849,0,0,1,96.182,10a4.321,4.321,0,0,1,2.383-.986Zm5.518-4.072h1.787V15h-1.787Zm0-3.936h1.787V2.646h-1.787Zm5.557,9.238a5.184,5.184,0,0,0,.713,2.813,2.5,2.5,0,0,0,2.285,1.133,2.407,2.407,0,0,0,2.007-1.05,4.958,4.958,0,0,0,.786-3.013,4.455,4.455,0,0,0-.811-2.935,2.528,2.528,0,0,0-2-.952A2.643,2.643,0,0,0,113.267,6.9,4.652,4.652,0,0,0,112.441,9.893Zm2.646-5.537a3.721,3.721,0,0,1,2.012.508,4.725,4.725,0,0,1,1.064,1.025V.605h1.689V15h-1.582V13.545a3.8,3.8,0,0,1-1.455,1.4,4.165,4.165,0,0,1-1.924.43,3.9,3.9,0,0,1-3.027-1.47,5.746,5.746,0,0,1-1.279-3.911,6.752,6.752,0,0,1,1.167-3.96A3.821,3.821,0,0,1,115.088,4.355Z" transform="translate(22.996 15)" fill="#fff"/>
</svg>
