<svg xmlns="http://www.w3.org/2000/svg" width="42.82" height="42.82" viewBox="0 0 42.82 42.82">
  <g id="recursos-humanos_1_" data-name="recursos-humanos (1)" transform="translate(0.5 0.5)">
    <g id="Grupo_1068587" data-name="Grupo 1068587" transform="translate(0 0)">
      <g id="Grupo_1068585" data-name="Grupo 1068585" transform="translate(1.36 5.326)">
        <path id="Trazado_814830" data-name="Trazado 814830" d="M57.575,86.092l-.548-8.4a7.378,7.378,0,0,0-7.362-6.9h0a7.378,7.378,0,0,0-7.362,6.9l-.548,8.4a1.36,1.36,0,0,0,1.357,1.449H56.218A1.36,1.36,0,0,0,57.575,86.092Z" transform="translate(-40.23 -70.795)" fill="#7a6d79"/>
        <path id="Trazado_814831" data-name="Trazado 814831" d="M129.434,86.092l-.548-8.4a7.378,7.378,0,0,0-7.362-6.9h0a7.4,7.4,0,0,0-1.311.118,7.378,7.378,0,0,1,6.051,6.779l.548,8.4a1.36,1.36,0,0,1-1.357,1.449h2.622A1.36,1.36,0,0,0,129.434,86.092Z" transform="translate(-112.089 -70.795)" fill="#685e68"/>
        <path id="Trazado_814832" data-name="Trazado 814832" d="M35.138,282.529h-4.08a10.522,10.522,0,0,0-7.4,10.047v1.151h18.87v-1.151a10.522,10.522,0,0,0-7.4-10.047Z" transform="translate(-23.663 -264.713)" fill="#00f2a6"/>
        <path id="Trazado_814833" data-name="Trazado 814833" d="M135.98,282.529h-2.21a10.522,10.522,0,0,1,7.4,10.047v1.151h2.21v-1.151A10.522,10.522,0,0,0,135.98,282.529Z" transform="translate(-124.505 -264.713)" fill="#0ed290"/>
        <path id="Trazado_814834" data-name="Trazado 814834" d="M141.826,284.831a10.5,10.5,0,0,0-4-2.3h-2.04v3.74l1.429,1.429a1.7,1.7,0,0,0,2.147.212A6.452,6.452,0,0,0,141.826,284.831Z" transform="translate(-126.356 -264.713)" fill="#eaf6ff"/>
        <path id="Trazado_814835" data-name="Trazado 814835" d="M64.064,284.831a10.5,10.5,0,0,1,4-2.3H70.1v3.74L68.671,287.7a1.7,1.7,0,0,1-2.147.212A6.453,6.453,0,0,1,64.064,284.831Z" transform="translate(-60.664 -264.713)" fill="#eaf6ff"/>
        <path id="Trazado_814836" data-name="Trazado 814836" d="M97.784,257.253h0v-2.322H93.7v2.322h0a10.536,10.536,0,0,0-1.639.667,3.739,3.739,0,0,0,7.359,0A10.545,10.545,0,0,0,97.784,257.253Z" transform="translate(-86.309 -239.437)" fill="#f6a96c"/>
        <path id="Trazado_814837" data-name="Trazado 814837" d="M86.958,152.06a4.08,4.08,0,0,1-2.437-.807l-1.262-.94a.34.34,0,0,0-.406,0l-1.262.94a4.08,4.08,0,0,1-2.437.807h-.943v3.4a4.845,4.845,0,0,0,4.845,4.845h0A4.845,4.845,0,0,0,87.9,155.46v-3.4Z" transform="translate(-73.621 -143.56)" fill="#fed2a4"/>
        <path id="Trazado_814838" data-name="Trazado 814838" d="M127.666,169.613a4.081,4.081,0,0,1-1.267-.2v3.6a4.846,4.846,0,0,1-3.74,4.717,4.854,4.854,0,0,0,1.105.128h0a4.845,4.845,0,0,0,4.845-4.845v-3.4Z" transform="translate(-114.329 -161.113)" fill="#ffbd86"/>
      </g>
      <path id="Trazado_814839" data-name="Trazado 814839" d="M25.8,418.5H48.479a.841.841,0,0,0,.841-.842v-1.207a.841.841,0,0,0-.841-.842H8.341a.841.841,0,0,0-.841.842v1.207a.841.841,0,0,0,.841.842H25.8Z" transform="translate(-7.5 -381.27)" fill="#d8ecfe"/>
      <path id="Trazado_814840" data-name="Trazado 814840" d="M470.45,415.61h-2.21a.841.841,0,0,1,.841.841v1.207a.841.841,0,0,1-.841.841h2.21a.841.841,0,0,0,.841-.841v-1.207A.841.841,0,0,0,470.45,415.61Z" transform="translate(-429.471 -381.27)" fill="#c4e2ff"/>
      <rect id="Rectángulo_374157" data-name="Rectángulo 374157" width="39.1" height="4.59" transform="translate(1.36 37.23)" fill="#d8ecfe"/>
      <rect id="Rectángulo_374158" data-name="Rectángulo 374158" width="39.1" height="2.21" transform="translate(1.36 37.23)" fill="#b3dafe"/>
      <g id="Grupo_1068586" data-name="Grupo 1068586" transform="translate(22.95 20.4)">
        <path id="Trazado_814841" data-name="Trazado 814841" d="M306.156,261.159h-15.81v-10.03a1.19,1.19,0,0,1,1.19-1.19h13.43a1.19,1.19,0,0,1,1.19,1.19Z" transform="translate(-289.496 -249.939)" fill="#918291"/>
        <path id="Trazado_814842" data-name="Trazado 814842" d="M440.04,249.939h-2.21a1.19,1.19,0,0,1,1.19,1.19v10.03h2.21v-10.03A1.19,1.19,0,0,0,440.04,249.939Z" transform="translate(-424.57 -249.939)" fill="#7a6d79"/>
        <path id="Trazado_814843" data-name="Trazado 814843" d="M281.434,386h15.13a1.19,1.19,0,0,0,1.19-1.19v-1.02a.51.51,0,0,0-.51-.51h-16.49a.51.51,0,0,0-.51.51v1.02A1.19,1.19,0,0,0,281.434,386Z" transform="translate(-280.244 -372.061)" fill="#7a6d79"/>
        <path id="Trazado_814844" data-name="Trazado 814844" d="M450.821,383.28h-2.21a.51.51,0,0,1,.51.51v1.02a1.19,1.19,0,0,1-1.19,1.19h2.21a1.19,1.19,0,0,0,1.19-1.19v-1.02A.51.51,0,0,0,450.821,383.28Z" transform="translate(-433.821 -372.06)" fill="#685e68"/>
      </g>
      <path id="Trazado_814845" data-name="Trazado 814845" d="M299.259,17.116V15.091a.8.8,0,0,0-.674-.788l-1.085-.171a.634.634,0,0,1-.5-.4q-.083-.222-.182-.436a.634.634,0,0,1,.066-.636l.647-.889a.8.8,0,0,0-.081-1.034L296.024,9.3a.8.8,0,0,0-1.034-.081l-.889.647a.634.634,0,0,1-.636.066q-.214-.1-.436-.182a.633.633,0,0,1-.4-.5l-.171-1.085a.8.8,0,0,0-.788-.674h-2.025a.8.8,0,0,0-.788.674l-.171,1.085a.633.633,0,0,1-.4.5q-.222.083-.436.182a.634.634,0,0,1-.636-.066l-.889-.647a.8.8,0,0,0-1.034.081l-1.432,1.432a.8.8,0,0,0-.081,1.034l.647.889a.634.634,0,0,1,.066.636q-.1.214-.182.436a.633.633,0,0,1-.5.4l-1.085.171a.8.8,0,0,0-.674.788v2.025a.8.8,0,0,0,.674.788l1.085.171a.633.633,0,0,1,.5.4q.083.222.182.436a.634.634,0,0,1-.066.636l-.647.889a.8.8,0,0,0,.081,1.034L285.29,22.9a.8.8,0,0,0,1.034.081l.889-.647a.634.634,0,0,1,.636-.066q.214.1.436.182a.634.634,0,0,1,.4.5l.171,1.085a.8.8,0,0,0,.788.674h2.025a.8.8,0,0,0,.788-.674l.171-1.085a.633.633,0,0,1,.4-.5q.222-.083.436-.182a.634.634,0,0,1,.636.066l.889.647a.8.8,0,0,0,1.034-.081l1.432-1.432a.8.8,0,0,0,.081-1.034l-.647-.889a.634.634,0,0,1-.066-.636q.1-.214.182-.436a.633.633,0,0,1,.5-.4l1.085-.171A.8.8,0,0,0,299.259,17.116Zm-8.6,2.345a3.357,3.357,0,1,1,3.357-3.357A3.357,3.357,0,0,1,290.657,19.461Z" transform="translate(-258.952 -7.501)" fill="#60b7ff"/>
      <path id="Trazado_814846" data-name="Trazado 814846" d="M315.68,31.4l-1.085-.171a.633.633,0,0,1-.5-.4q-.083-.222-.182-.436a.634.634,0,0,1,.066-.636l.647-.889a.8.8,0,0,0-.081-1.034L313.118,26.4a.8.8,0,0,0-.732-.215,8.6,8.6,0,0,1-11.65,11.65.8.8,0,0,0,.215.732L302.384,40a.8.8,0,0,0,1.034.081l.889-.647a.634.634,0,0,1,.636-.066q.214.1.436.182a.633.633,0,0,1,.4.5l.171,1.085a.8.8,0,0,0,.788.674h2.025a.8.8,0,0,0,.788-.674l.171-1.085a.633.633,0,0,1,.4-.5q.222-.083.436-.182a.634.634,0,0,1,.636.066l.889.647A.8.8,0,0,0,313.118,40l1.432-1.432a.8.8,0,0,0,.081-1.034l-.647-.889a.634.634,0,0,1-.066-.636q.1-.214.182-.436a.634.634,0,0,1,.5-.4L315.68,35a.8.8,0,0,0,.674-.788V32.185A.8.8,0,0,0,315.68,31.4Z" transform="translate(-276.046 -24.595)" fill="#26a6fe"/>
      <path id="Trazado_814847" data-name="Trazado 814847" d="M356.726,303.167h-4.08a.68.68,0,0,1-.68-.68v-1.36a.68.68,0,0,1,.68-.68h4.08a.68.68,0,0,1,.68.68v1.36A.68.68,0,0,1,356.726,303.167Z" transform="translate(-322.981 -275.797)" fill="#d8ecfe"/>
    </g>
    <g id="Grupo_1068588" data-name="Grupo 1068588" transform="translate(0 0)">
      <path id="Trazado_814848" data-name="Trazado 814848" d="M43.38,112.59a7.345,7.345,0,0,0-1.075,3.381l-.548,8.4a1.36,1.36,0,0,0,1.356,1.449h4.514" transform="translate(-38.872 -103.747)" fill="none" stroke="#000" stroke-linecap="round" stroke-linejoin="round" stroke-miterlimit="10" stroke-width="1"/>
      <path id="Trazado_814849" data-name="Trazado 814849" d="M84.88,72.17A7.38,7.38,0,0,1,96.527,77.7l.548,8.4a1.361,1.361,0,0,1-1.357,1.449H91.2" transform="translate(-78.369 -65.474)" fill="none" stroke="#000" stroke-linecap="round" stroke-linejoin="round" stroke-miterlimit="10" stroke-width="1"/>
      <path id="Trazado_814850" data-name="Trazado 814850" d="M135.791,311.324l1.429,1.429a1.7,1.7,0,0,0,2.147.212,6.453,6.453,0,0,0,2.46-3.078" transform="translate(-124.996 -284.442)" fill="none" stroke="#000" stroke-linecap="round" stroke-linejoin="round" stroke-miterlimit="10" stroke-width="1"/>
      <path id="Trazado_814851" data-name="Trazado 814851" d="M70.1,311.324l-1.429,1.429a1.7,1.7,0,0,1-2.147.212,6.453,6.453,0,0,1-2.46-3.078" transform="translate(-59.304 -284.442)" fill="none" stroke="#000" stroke-linecap="round" stroke-linejoin="round" stroke-miterlimit="10" stroke-width="1"/>
      <path id="Trazado_814852" data-name="Trazado 814852" d="M86.958,152.06a4.08,4.08,0,0,1-2.437-.807l-1.262-.94a.34.34,0,0,0-.406,0l-1.262.94a4.08,4.08,0,0,1-2.437.807h-.943v3.4a4.845,4.845,0,0,0,4.845,4.845h0A4.845,4.845,0,0,0,87.9,155.46v-3.4Z" transform="translate(-72.261 -138.234)" fill="none" stroke="#000" stroke-linecap="round" stroke-linejoin="round" stroke-miterlimit="10" stroke-width="1"/>
      <path id="Trazado_814853" data-name="Trazado 814853" d="M31.058,282.529h0a10.522,10.522,0,0,0-7.4,10.047v1.151h18.87v-1.151a10.522,10.522,0,0,0-7.4-10.047h0" transform="translate(-22.303 -259.387)" fill="none" stroke="#000" stroke-linecap="round" stroke-linejoin="round" stroke-miterlimit="10" stroke-width="1"/>
      <path id="Trazado_814854" data-name="Trazado 814854" d="M97.781,264.455v1.521a10.626,10.626,0,0,1,1.64.667,3.74,3.74,0,0,1-7.359,0,10.635,10.635,0,0,1,1.64-.667v-1.521" transform="translate(-84.946 -242.834)" fill="none" stroke="#000" stroke-linecap="round" stroke-linejoin="round" stroke-miterlimit="10" stroke-width="1"/>
      <path id="Trazado_814855" data-name="Trazado 814855" d="M25.8,418.5H48.479a.841.841,0,0,0,.841-.842v-1.207a.841.841,0,0,0-.841-.842H8.341a.841.841,0,0,0-.841.842v1.207a.841.841,0,0,0,.841.842H22.858" transform="translate(-7.5 -381.27)" fill="none" stroke="#000" stroke-linecap="round" stroke-linejoin="round" stroke-miterlimit="10" stroke-width="1"/>
      <line id="Línea_3579" data-name="Línea 3579" y1="4.59" transform="translate(1.36 37.23)" fill="none" stroke="#000" stroke-linecap="round" stroke-linejoin="round" stroke-miterlimit="10" stroke-width="1"/>
      <line id="Línea_3580" data-name="Línea 3580" y2="4.59" transform="translate(40.46 37.23)" fill="none" stroke="#000" stroke-linecap="round" stroke-linejoin="round" stroke-miterlimit="10" stroke-width="1"/>
      <path id="Trazado_814856" data-name="Trazado 814856" d="M281.434,386h15.13a1.19,1.19,0,0,0,1.19-1.19v-1.02a.51.51,0,0,0-.51-.51h-16.49a.51.51,0,0,0-.51.51v1.02A1.19,1.19,0,0,0,281.434,386Z" transform="translate(-257.294 -351.661)" fill="none" stroke="#000" stroke-linecap="round" stroke-linejoin="round" stroke-miterlimit="10" stroke-width="1"/>
      <path id="Trazado_814857" data-name="Trazado 814857" d="M306.16,256.558v4.6H290.35V251.13a1.19,1.19,0,0,1,1.19-1.19h13.43a1.19,1.19,0,0,1,1.191,1.19v2.483" transform="translate(-266.55 -229.54)" fill="none" stroke="#000" stroke-linecap="round" stroke-linejoin="round" stroke-miterlimit="10" stroke-width="1"/>
      <path id="Trazado_814858" data-name="Trazado 814858" d="M299.259,17.116V15.091a.8.8,0,0,0-.674-.788l-1.085-.171a.634.634,0,0,1-.5-.4q-.083-.222-.182-.436a.634.634,0,0,1,.066-.636l.647-.889a.8.8,0,0,0-.081-1.034L296.024,9.3a.8.8,0,0,0-1.034-.081l-.889.647a.634.634,0,0,1-.636.066q-.214-.1-.436-.182a.633.633,0,0,1-.4-.5l-.171-1.085a.8.8,0,0,0-.788-.674h-2.025a.8.8,0,0,0-.788.674l-.171,1.085a.633.633,0,0,1-.4.5q-.222.083-.436.182a.634.634,0,0,1-.636-.066l-.889-.647a.8.8,0,0,0-1.034.081l-1.432,1.432a.8.8,0,0,0-.081,1.034l.647.889a.634.634,0,0,1,.066.636q-.1.214-.182.436a.633.633,0,0,1-.5.4l-1.085.171a.8.8,0,0,0-.674.788v2.025a.8.8,0,0,0,.674.788l1.085.171a.633.633,0,0,1,.5.4q.083.222.182.436a.634.634,0,0,1-.066.636l-.647.889a.8.8,0,0,0,.081,1.034L285.29,22.9a.8.8,0,0,0,1.034.081l.889-.647a.634.634,0,0,1,.636-.066q.214.1.436.182a.634.634,0,0,1,.4.5l.171,1.085a.8.8,0,0,0,.788.674h2.025a.8.8,0,0,0,.788-.674l.171-1.085a.633.633,0,0,1,.4-.5q.222-.083.436-.182a.634.634,0,0,1,.636.066l.889.647a.8.8,0,0,0,1.034-.081l1.432-1.432a.8.8,0,0,0,.081-1.034l-.647-.889a.634.634,0,0,1-.066-.636q.1-.214.182-.436a.633.633,0,0,1,.5-.4l1.085-.171A.8.8,0,0,0,299.259,17.116Zm-8.6,2.345a3.357,3.357,0,1,1,3.357-3.357A3.357,3.357,0,0,1,290.657,19.461Z" transform="translate(-258.952 -7.501)" fill="none" stroke="#000" stroke-linecap="round" stroke-linejoin="round" stroke-miterlimit="10" stroke-width="1"/>
      <path id="Trazado_814859" data-name="Trazado 814859" d="M356.726,303.167h-4.08a.68.68,0,0,1-.68-.68v-1.36a.68.68,0,0,1,.68-.68h4.08a.68.68,0,0,1,.68.68v1.36A.68.68,0,0,1,356.726,303.167Z" transform="translate(-322.981 -275.797)" fill="none" stroke="#000" stroke-linecap="round" stroke-linejoin="round" stroke-miterlimit="10" stroke-width="1"/>
    </g>
  </g>
</svg>
