<svg id="Grupo_64168" data-name="Grupo 64168" xmlns="http://www.w3.org/2000/svg" width="55.991" height="51.63" viewBox="0 0 55.991 51.63">
  <g id="Grupo_39107" data-name="Grupo 39107">
    <path id="Trazado_91710" data-name="Trazado 91710" d="M458.246,328.666H420.78a3.839,3.839,0,0,1-3.835-3.835l0-2.169a.89.89,0,0,1,.89-.891h0a.89.89,0,0,1,.89.89l0,2.17a2.056,2.056,0,0,0,2.054,2.054h37.466a2.056,2.056,0,0,0,2.054-2.053v-5.888a2.056,2.056,0,0,0-2.054-2.053H420.78a2.056,2.056,0,0,0-2.054,2.053v1.075a.891.891,0,1,1-1.782,0v-1.075a3.839,3.839,0,0,1,3.835-3.835h37.466a3.839,3.839,0,0,1,3.835,3.835v5.888A3.838,3.838,0,0,1,458.246,328.666Z" transform="translate(-416.942 -315.108)" fill="#00223d"/>
  </g>
  <g id="Grupo_39109" data-name="Grupo 39109" transform="translate(34.5 4.016)">
    <path id="Trazado_91711" data-name="Trazado 91711" d="M463.871,325.777a2.764,2.764,0,1,1,2.765-2.764A2.767,2.767,0,0,1,463.871,325.777Zm0-3.746a.983.983,0,0,0-.982.982.972.972,0,0,0,.982.983.984.984,0,0,0,.983-.983A1,1,0,0,0,463.871,322.031Z" transform="translate(-461.107 -320.249)"/>
  </g>
  <g id="Grupo_39112" data-name="Grupo 39112" transform="translate(5.584 4.019)">
    <path id="Trazado_91714" data-name="Trazado 91714" d="M424.98,325.781a.89.89,0,0,1-.89-.891v-3.746a.891.891,0,1,1,1.782,0v3.746A.891.891,0,0,1,424.98,325.781Z" transform="translate(-424.09 -320.253)" fill="#00223d"/>
  </g>
  <g id="Grupo_39113" data-name="Grupo 39113" transform="translate(10.936 4.019)">
    <path id="Trazado_91715" data-name="Trazado 91715" d="M431.833,325.781a.89.89,0,0,1-.891-.891v-3.746a.891.891,0,1,1,1.782,0v3.746A.89.89,0,0,1,431.833,325.781Z" transform="translate(-430.942 -320.253)" fill="#00223d"/>
  </g>
  <g id="Grupo_39114" data-name="Grupo 39114" transform="translate(16.289 4.019)">
    <path id="Trazado_91716" data-name="Trazado 91716" d="M438.737,325.781a.891.891,0,0,1-.891-.878l-.051-3.747a.891.891,0,0,1,.878-.9h.012a.891.891,0,0,1,.891.879l.051,3.746a.89.89,0,0,1-.879.9Z" transform="translate(-437.795 -320.253)" fill="#00223d"/>
  </g>
  <g id="Grupo_39115" data-name="Grupo 39115" transform="translate(0 16.631)">
    <path id="Trazado_91717" data-name="Trazado 91717" d="M446.351,349.955H420.777a3.839,3.839,0,0,1-3.835-3.835v-5.888a3.839,3.839,0,0,1,3.835-3.835h37.467a3.755,3.755,0,0,1,.983.127.891.891,0,0,1-.151,1.747c-.013.006-.047.023-.082.037l-10.661,4.615a1.8,1.8,0,0,0-1.091,1.645v4.5A.89.89,0,0,1,446.351,349.955ZM420.777,338.18a2.055,2.055,0,0,0-2.053,2.053v5.888a2.056,2.056,0,0,0,2.053,2.054H445.46v-3.605a3.58,3.58,0,0,1,2.162-3.279l7.183-3.11Z" transform="translate(-416.942 -336.398)" fill="#00223d"/>
  </g>
  <g id="Grupo_39116" data-name="Grupo 39116" transform="translate(5.584 20.656)">
    <path id="Trazado_91718" data-name="Trazado 91718" d="M424.98,347.08a.891.891,0,0,1-.89-.891v-3.747a.891.891,0,1,1,1.782,0v3.747A.891.891,0,0,1,424.98,347.08Z" transform="translate(-424.09 -341.551)" fill="#00223d"/>
  </g>
  <g id="Grupo_39117" data-name="Grupo 39117" transform="translate(10.936 20.656)">
    <path id="Trazado_91719" data-name="Trazado 91719" d="M431.833,347.08a.891.891,0,0,1-.891-.891v-3.747a.891.891,0,1,1,1.782,0v3.747A.891.891,0,0,1,431.833,347.08Z" transform="translate(-430.942 -341.551)" fill="#00223d"/>
  </g>
  <g id="Grupo_39118" data-name="Grupo 39118" transform="translate(16.289 20.657)">
    <path id="Trazado_91720" data-name="Trazado 91720" d="M438.737,347.08a.891.891,0,0,1-.891-.879l-.051-3.746a.89.89,0,0,1,.878-.9h.012a.891.891,0,0,1,.891.879l.051,3.747a.89.89,0,0,1-.879.9Z" transform="translate(-437.795 -341.552)" fill="#00223d"/>
  </g>
  <g id="Grupo_39119" data-name="Grupo 39119" transform="translate(0.012 33.287)">
    <path id="Trazado_91721" data-name="Trazado 91721" d="M451.032,371.279H420.792a3.838,3.838,0,0,1-3.835-3.835v-1.887a.891.891,0,0,1,1.781,0v1.887a2.056,2.056,0,0,0,2.054,2.053h28.262a19.943,19.943,0,0,1-2.782-4.628,9.938,9.938,0,0,1-.808-3.977V359.5H420.792a2.056,2.056,0,0,0-2.054,2.054v1.72a.891.891,0,1,1-1.781,0v-1.72a3.839,3.839,0,0,1,3.835-3.835h25.562a.891.891,0,0,1,.891.891v2.28a8.184,8.184,0,0,0,.665,3.275,18.318,18.318,0,0,0,3.759,5.6.89.89,0,0,1-.636,1.514Z" transform="translate(-416.957 -357.721)" fill="#00223d"/>
  </g>
  <g id="Grupo_39120" data-name="Grupo 39120" transform="translate(5.584 37.294)">
    <path id="Trazado_91722" data-name="Trazado 91722" d="M424.98,368.378a.89.89,0,0,1-.89-.891V363.74a.891.891,0,0,1,1.782,0v3.747A.891.891,0,0,1,424.98,368.378Z" transform="translate(-424.09 -362.85)" fill="#00223d"/>
  </g>
  <g id="Grupo_39121" data-name="Grupo 39121" transform="translate(10.936 37.294)">
    <path id="Trazado_91723" data-name="Trazado 91723" d="M431.833,368.378a.89.89,0,0,1-.891-.891V363.74a.891.891,0,0,1,1.782,0v3.747A.89.89,0,0,1,431.833,368.378Z" transform="translate(-430.942 -362.85)" fill="#00223d"/>
  </g>
  <g id="Grupo_39122" data-name="Grupo 39122" transform="translate(16.289 37.294)">
    <path id="Trazado_91724" data-name="Trazado 91724" d="M438.737,368.378a.891.891,0,0,1-.891-.879l-.051-3.746a.89.89,0,0,1,.878-.9h.012a.891.891,0,0,1,.891.879l.051,3.746a.89.89,0,0,1-.879.9Z" transform="translate(-437.795 -362.85)" fill="#00223d"/>
  </g>
  <g id="Grupo_39125" data-name="Grupo 39125" transform="translate(4.43 11.777)">
    <path id="Trazado_91725" data-name="Trazado 91725" d="M458.015,336.825H423.5a.89.89,0,0,1-.89-.891v-4.859a.891.891,0,0,1,.89-.891h34.512a.891.891,0,0,1,.891.891v4.859A.89.89,0,0,1,458.015,336.825Zm-33.621-1.781h32.73v-3.079h-32.73Z" transform="translate(-422.613 -330.184)" fill="#00223d"/>
  </g>
  <g id="Grupo_39126" data-name="Grupo 39126" transform="translate(4.432 28.417)">
    <path id="Trazado_91726" data-name="Trazado 91726" d="M447.592,358.138H423.507a.89.89,0,0,1-.891-.891v-4.87a.89.89,0,0,1,.891-.891h24.085a.89.89,0,0,1,.891.891v4.87A.89.89,0,0,1,447.592,358.138ZM424.4,356.357h22.3v-3.089H424.4Z" transform="translate(-422.616 -351.487)" fill="#00223d"/>
  </g>
  <g id="Grupo_39129" data-name="Grupo 39129" transform="translate(28.518 16.705)">
    <path id="Trazado_91729" data-name="Trazado 91729" d="M467.186,371.418a2.242,2.242,0,0,1-.7-.11,19.718,19.718,0,0,1-12.229-11.085,9.938,9.938,0,0,1-.808-3.977V344.59a3.58,3.58,0,0,1,2.162-3.279l10.685-4.625a2.026,2.026,0,0,1,.6-.166,2.1,2.1,0,0,1,1.2.172l10.67,4.617a3.591,3.591,0,0,1,2.153,3.281v4.5a.891.891,0,1,1-1.781,0v-4.5a1.805,1.805,0,0,0-1.085-1.647l-10.678-4.622a.406.406,0,0,0-.243-.036.622.622,0,0,0-.152.045l-10.661,4.615a1.8,1.8,0,0,0-1.091,1.645v11.657a8.186,8.186,0,0,0,.665,3.274,17.927,17.927,0,0,0,11.151,10.095.568.568,0,0,0,.317-.012,18.176,18.176,0,0,0,11.124-10.084,8.327,8.327,0,0,0,.655-3.274v-4.715a.891.891,0,1,1,1.781,0v4.715a10.1,10.1,0,0,1-.8,3.977A19.868,19.868,0,0,1,468,371.265,2.06,2.06,0,0,1,467.186,371.418Z" transform="translate(-453.45 -336.493)" fill="#00223d"/>
  </g>
  <g id="Grupo_39132" data-name="Grupo 39132" transform="translate(32.342 21.088)">
    <path id="Trazado_91732" data-name="Trazado 91732" d="M468.252,368.318a.885.885,0,0,1-.3-.052,15.321,15.321,0,0,1-9.05-8.415,6.643,6.643,0,0,1-.53-2.629l-.027-10.321a.892.892,0,0,1,.537-.819l9.025-3.9a.888.888,0,0,1,.708,0l8.99,3.893a.891.891,0,0,1,.537.817v10.335a6.634,6.634,0,0,1-.526,2.621,15.317,15.317,0,0,1-9.068,8.423A.873.873,0,0,1,468.252,368.318Zm-8.123-20.833.026,9.735a4.868,4.868,0,0,0,.385,1.928,13.542,13.542,0,0,0,7.713,7.33,13.541,13.541,0,0,0,7.725-7.337,4.869,4.869,0,0,0,.381-1.919v-9.75l-8.1-3.507Z" transform="translate(-458.345 -342.104)" fill="#00223d"/>
  </g>
</svg>
