<svg id="Grupo_155352" data-name="Grupo 155352" xmlns="http://www.w3.org/2000/svg" width="65.235" height="60.955" viewBox="0 0 65.235 60.955">
  <path id="Trazado_122984" data-name="Trazado 122984" d="M-522.556,264.73l3.359,3.145c4.571-2.371,8.726-1.616,11.269,2.021a7.993,7.993,0,0,1-1.231,10.5,8.012,8.012,0,0,1-10.517.2,8.088,8.088,0,0,1-1.085-11.237l-3.352-3.148c-5.74,3.877-11.415,3.877-17.158.019l-3.514,3.288a28.571,28.571,0,0,1,1.247,3.683,7.868,7.868,0,0,1-4.007,8.276,8.031,8.031,0,0,1-9.054-.913,7.986,7.986,0,0,1-2.215-9.215,8.034,8.034,0,0,1,8.068-4.891,8.037,8.037,0,0,1,3.858,1.37c.169.113.548.172.661.071,1.147-1.02,2.254-2.079,3.391-3.142a14.079,14.079,0,0,1-3.074-14.016c-1.461-.476-2.886-.959-4.331-1.383-.142-.042-.437.217-.58.4a7.909,7.909,0,0,1-6.611,3.291,8.015,8.015,0,0,1-7.693-6.245,7.978,7.978,0,0,1,4.088-8.846,7.611,7.611,0,0,1,8.652.784,7.681,7.681,0,0,1,2.879,8.146c-.02.084-.032.172-.045.262a1.11,1.11,0,0,0,.013.146l4.483,1.464a14.133,14.133,0,0,1,11.249-7.447v-3.793a8.083,8.083,0,0,1-6.854-9,7.971,7.971,0,0,1,8.182-7.009,8,8,0,0,1,7.745,7.126,8.087,8.087,0,0,1-6.87,8.869v3.8a14.432,14.432,0,0,1,6.617,2.332,14.205,14.205,0,0,1,4.69,5.29l4.431-1.435c-.091-.833-.237-1.616-.246-2.4a8.026,8.026,0,0,1,7.23-8.056,8.052,8.052,0,0,1,8.658,6.588,8.006,8.006,0,0,1-4.72,8.772,7.942,7.942,0,0,1-9.517-2.5.722.722,0,0,0-.981-.3c-1.318.463-2.653.881-4,1.325A14.072,14.072,0,0,1-522.556,264.73Zm1.62-9.575a11.815,11.815,0,0,0-11.891-11.732,11.819,11.819,0,0,0-11.648,11.91,11.823,11.823,0,0,0,11.923,11.632A11.829,11.829,0,0,0-520.937,255.155Zm-11.742-31.513a5.912,5.912,0,0,0-5.908,5.889,5.928,5.928,0,0,0,5.853,5.882,5.938,5.938,0,0,0,5.915-5.9A5.927,5.927,0,0,0-532.679,223.642Zm18.687,21.365a5.93,5.93,0,0,0,5.84,5.915,5.938,5.938,0,0,0,5.928-5.83,5.926,5.926,0,0,0-5.811-5.941A5.913,5.913,0,0,0-513.992,245.007Zm-37.428.049a5.921,5.921,0,0,0-5.843-5.908,5.931,5.931,0,0,0-5.924,5.83,5.935,5.935,0,0,0,5.814,5.941A5.918,5.918,0,0,0-551.42,245.056Zm.007,23.506a5.939,5.939,0,0,0-5.892,5.8,5.927,5.927,0,0,0,5.846,5.973,5.944,5.944,0,0,0,5.924-5.83A5.925,5.925,0,0,0-551.414,268.562Zm36.877,11.771a5.92,5.92,0,0,0,5.892-5.924,5.931,5.931,0,0,0-5.905-5.85,5.933,5.933,0,0,0-5.863,5.9A5.933,5.933,0,0,0-514.536,280.333Z" transform="translate(565.333 -221.51)" fill="#12263f"/>
  <path id="Trazado_122985" data-name="Trazado 122985" d="M-544.6,230.382l1.471,1.506-8.966,8.969-5.186-5.208,1.445-1.334,3.618,3.7Z" transform="translate(583.368 -201.644)" fill="#12263f"/>
  <path id="Trazado_122986" data-name="Trazado 122986" d="M-548.943,226.582a3.723,3.723,0,0,1-3.738,3.718,3.721,3.721,0,0,1-3.732-3.718,3.716,3.716,0,0,1,3.767-3.751A3.721,3.721,0,0,1-548.943,226.582Zm-3.771,1.59a1.66,1.66,0,0,0,1.639-1.59,1.657,1.657,0,0,0-1.607-1.623,1.657,1.657,0,0,0-1.6,1.555A1.662,1.662,0,0,0-552.714,228.172Z" transform="translate(585.307 -218.551)" fill="#12263f"/>
  <path id="Trazado_122987" data-name="Trazado 122987" d="M-545.089,227.619a3.72,3.72,0,0,1,3.738,3.715,3.722,3.722,0,0,1-3.7,3.754,3.725,3.725,0,0,1-3.77-3.683A3.72,3.72,0,0,1-545.089,227.619Zm1.607,3.725a1.654,1.654,0,0,0-1.629-1.6,1.655,1.655,0,0,0-1.581,1.581,1.657,1.657,0,0,0,1.594,1.633A1.662,1.662,0,0,0-543.482,231.344Z" transform="translate(602.309 -207.83)" fill="#12263f"/>
  <path id="Trazado_122988" data-name="Trazado 122988" d="M-560.223,227.619a3.718,3.718,0,0,1,3.683,3.77,3.719,3.719,0,0,1-3.819,3.7,3.725,3.725,0,0,1-3.647-3.8A3.718,3.718,0,0,1-560.223,227.619Zm-.048,2.128a1.662,1.662,0,0,0-1.607,1.623,1.654,1.654,0,0,0,1.636,1.59,1.654,1.654,0,0,0,1.574-1.587A1.655,1.655,0,0,0-560.271,229.747Z" transform="translate(568.306 -207.831)" fill="#12263f"/>
  <path id="Trazado_122989" data-name="Trazado 122989" d="M-554.721,240.47a3.716,3.716,0,0,1-3.751,3.7,3.721,3.721,0,0,1-3.718-3.8A3.715,3.715,0,0,1-558.4,236.7,3.723,3.723,0,0,1-554.721,240.47Zm-2.131-.045a1.654,1.654,0,0,0-1.629-1.6,1.652,1.652,0,0,0-1.578,1.581,1.657,1.657,0,0,0,1.594,1.632A1.651,1.651,0,0,0-556.853,240.425Z" transform="translate(572.37 -187.497)" fill="#12263f"/>
  <path id="Trazado_122990" data-name="Trazado 122990" d="M-547.083,244.169a3.722,3.722,0,0,1-3.719-3.735,3.719,3.719,0,0,1,3.715-3.735,3.718,3.718,0,0,1,3.754,3.7A3.723,3.723,0,0,1-547.083,244.169Zm1.62-3.706a1.652,1.652,0,0,0-1.59-1.636,1.659,1.659,0,0,0-1.617,1.613,1.654,1.654,0,0,0,1.561,1.6A1.651,1.651,0,0,0-545.463,240.464Z" transform="translate(597.873 -187.497)" fill="#12263f"/>
</svg>
