<svg xmlns="http://www.w3.org/2000/svg" width="607" height="1288" viewBox="0 0 607 1288">
  <g id="Grupo_159422" data-name="Grupo 159422" transform="translate(-9853 5871)">
    <path id="Trazado_603084" data-name="Trazado 603084" d="M0,0H607V1288H0Z" transform="translate(9853 -5871)" fill="none"/>
    <path id="Trazado_603085" data-name="Trazado 603085" d="M5.88-4.685h-2.1V0H1.143V-12.8H5.9a5.375,5.375,0,0,1,3.5,1.011,3.488,3.488,0,0,1,1.23,2.856,3.937,3.937,0,0,1-.567,2.184A3.866,3.866,0,0,1,8.341-5.353L11.109-.123V0H8.279ZM3.779-6.82H5.906a2.178,2.178,0,0,0,1.538-.505,1.806,1.806,0,0,0,.545-1.393,1.933,1.933,0,0,0-.514-1.424A2.137,2.137,0,0,0,5.9-10.661H3.779Zm13.061,7a4.668,4.668,0,0,1-3.406-1.283A4.561,4.561,0,0,1,12.12-4.526v-.246a5.745,5.745,0,0,1,.554-2.562,4.064,4.064,0,0,1,1.569-1.74,4.4,4.4,0,0,1,2.316-.611,3.947,3.947,0,0,1,3.072,1.23,5,5,0,0,1,1.121,3.489v1.037H14.7a2.36,2.36,0,0,0,.743,1.494,2.245,2.245,0,0,0,1.569.563A2.742,2.742,0,0,0,19.3-2.936l1.248,1.4A3.813,3.813,0,0,1,19-.277,5.075,5.075,0,0,1,16.84.176Zm-.29-7.813a1.587,1.587,0,0,0-1.226.512,2.651,2.651,0,0,0-.6,1.466h3.533v-.2A1.891,1.891,0,0,0,17.8-7.174,1.638,1.638,0,0,0,16.55-7.638Zm9.6,5.766a1.666,1.666,0,0,0,1.143-.387,1.355,1.355,0,0,0,.457-1.028h2.382A3.258,3.258,0,0,1,29.6-1.516,3.48,3.48,0,0,1,28.182-.268a4.442,4.442,0,0,1-1.991.444,4.129,4.129,0,0,1-3.217-1.3A5.13,5.13,0,0,1,21.8-4.7v-.167a5.071,5.071,0,0,1,1.169-3.507,4.08,4.08,0,0,1,3.208-1.31A4,4,0,0,1,29.035-8.67a3.594,3.594,0,0,1,1.094,2.7H27.747a1.745,1.745,0,0,0-.457-1.206,1.524,1.524,0,0,0-1.16-.464,1.53,1.53,0,0,0-1.34.647,3.749,3.749,0,0,0-.453,2.1v.264a3.8,3.8,0,0,0,.448,2.113A1.549,1.549,0,0,0,26.147-1.872Zm11.127.905a3.185,3.185,0,0,1-2.6,1.143A3,3,0,0,1,32.339-.7a3.752,3.752,0,0,1-.822-2.575V-9.51h2.54v6.151q0,1.487,1.354,1.487a1.834,1.834,0,0,0,1.775-.9V-9.51h2.549V0H37.345ZM47-7.128a6.9,6.9,0,0,0-.914-.07,1.86,1.86,0,0,0-1.89.976V0h-2.54V-9.51h2.4l.07,1.134a2.354,2.354,0,0,1,2.118-1.31,2.662,2.662,0,0,1,.791.114Zm6.372,4.5a.818.818,0,0,0-.461-.734,5.241,5.241,0,0,0-1.481-.479q-3.393-.712-3.393-2.883a2.613,2.613,0,0,1,1.05-2.114,4.237,4.237,0,0,1,2.747-.848,4.56,4.56,0,0,1,2.9.853,2.687,2.687,0,0,1,1.085,2.215h-2.54a1.229,1.229,0,0,0-.352-.9,1.488,1.488,0,0,0-1.1-.356,1.52,1.52,0,0,0-.993.29.916.916,0,0,0-.352.738.783.783,0,0,0,.4.681,4.114,4.114,0,0,0,1.349.448,11.019,11.019,0,0,1,1.6.426,2.628,2.628,0,0,1,2.013,2.558,2.481,2.481,0,0,1-1.116,2.1,4.815,4.815,0,0,1-2.883.8A5.029,5.029,0,0,1,49.715-.25a3.561,3.561,0,0,1-1.455-1.169,2.716,2.716,0,0,1-.527-1.6h2.408a1.326,1.326,0,0,0,.5,1.037,1.987,1.987,0,0,0,1.248.36,1.839,1.839,0,0,0,1.1-.277A.861.861,0,0,0,53.367-2.628Zm3.709-2.215a5.64,5.64,0,0,1,.545-2.522A3.989,3.989,0,0,1,59.19-9.079a4.577,4.577,0,0,1,2.377-.606,4.33,4.33,0,0,1,3.142,1.178,4.727,4.727,0,0,1,1.358,3.2l.018.65a4.97,4.97,0,0,1-1.222,3.511A4.247,4.247,0,0,1,61.585.176,4.268,4.268,0,0,1,58.3-1.143a5.058,5.058,0,0,1-1.226-3.586Zm2.54.18a3.555,3.555,0,0,0,.51,2.073,1.682,1.682,0,0,0,1.459.717,1.686,1.686,0,0,0,1.441-.709,3.89,3.89,0,0,0,.519-2.267,3.519,3.519,0,0,0-.519-2.06,1.686,1.686,0,0,0-1.459-.731,1.658,1.658,0,0,0-1.441.726A3.955,3.955,0,0,0,59.616-4.662ZM72.8-2.628a.818.818,0,0,0-.461-.734,5.241,5.241,0,0,0-1.481-.479q-3.393-.712-3.393-2.883a2.613,2.613,0,0,1,1.05-2.114,4.237,4.237,0,0,1,2.747-.848,4.56,4.56,0,0,1,2.9.853,2.687,2.687,0,0,1,1.085,2.215H72.7a1.229,1.229,0,0,0-.352-.9,1.488,1.488,0,0,0-1.1-.356,1.52,1.52,0,0,0-.993.29.916.916,0,0,0-.352.738.783.783,0,0,0,.4.681,4.114,4.114,0,0,0,1.349.448,11.019,11.019,0,0,1,1.6.426A2.628,2.628,0,0,1,75.27-2.733a2.481,2.481,0,0,1-1.116,2.1,4.815,4.815,0,0,1-2.883.8A5.029,5.029,0,0,1,69.148-.25a3.561,3.561,0,0,1-1.455-1.169,2.716,2.716,0,0,1-.527-1.6h2.408a1.326,1.326,0,0,0,.5,1.037,1.987,1.987,0,0,0,1.248.36,1.839,1.839,0,0,0,1.1-.277A.861.861,0,0,0,72.8-2.628Z" transform="translate(9989 -4978)" fill="#083142"/>
    <path id="Trazado_603086" data-name="Trazado 603086" d="M8.842-5.229H3.779V0H1.143V-12.8H9.475v2.136h-5.7v3.3H8.842ZM15.214.176a4.668,4.668,0,0,1-3.406-1.283,4.561,4.561,0,0,1-1.314-3.419v-.246a5.745,5.745,0,0,1,.554-2.562,4.064,4.064,0,0,1,1.569-1.74,4.4,4.4,0,0,1,2.316-.611A3.947,3.947,0,0,1,18-8.455a5,5,0,0,1,1.121,3.489v1.037H13.069a2.36,2.36,0,0,0,.743,1.494,2.245,2.245,0,0,0,1.569.563,2.742,2.742,0,0,0,2.294-1.063l1.248,1.4A3.813,3.813,0,0,1,17.376-.277,5.075,5.075,0,0,1,15.214.176Zm-.29-7.813a1.587,1.587,0,0,0-1.226.512,2.651,2.651,0,0,0-.6,1.466h3.533v-.2a1.891,1.891,0,0,0-.457-1.311A1.638,1.638,0,0,0,14.924-7.638Zm9.6,5.766a1.666,1.666,0,0,0,1.143-.387,1.355,1.355,0,0,0,.457-1.028H28.5a3.258,3.258,0,0,1-.527,1.771A3.48,3.48,0,0,1,26.556-.268a4.442,4.442,0,0,1-1.991.444,4.129,4.129,0,0,1-3.217-1.3A5.13,5.13,0,0,1,20.171-4.7v-.167A5.071,5.071,0,0,1,21.34-8.376a4.08,4.08,0,0,1,3.208-1.31A4,4,0,0,1,27.409-8.67a3.594,3.594,0,0,1,1.094,2.7H26.121a1.745,1.745,0,0,0-.457-1.206,1.524,1.524,0,0,0-1.16-.464,1.53,1.53,0,0,0-1.34.647,3.749,3.749,0,0,0-.453,2.1v.264a3.8,3.8,0,0,0,.448,2.113A1.549,1.549,0,0,0,24.521-1.872Zm7.91-6.6a3.17,3.17,0,0,1,2.54-1.213q3.094,0,3.138,3.595V0h-2.54V-6.021a1.767,1.767,0,0,0-.352-1.208,1.507,1.507,0,0,0-1.169-.391,1.729,1.729,0,0,0-1.617.861V0h-2.54V-13.5h2.54ZM45.536,0a2.821,2.821,0,0,1-.255-.853,3.073,3.073,0,0,1-2.4,1.028,3.376,3.376,0,0,1-2.316-.809,2.6,2.6,0,0,1-.918-2.039,2.687,2.687,0,0,1,1.121-2.32,5.529,5.529,0,0,1,3.239-.817h1.169v-.545a1.567,1.567,0,0,0-.338-1.055,1.331,1.331,0,0,0-1.068-.4,1.513,1.513,0,0,0-1.006.308,1.045,1.045,0,0,0-.365.844h-2.54a2.551,2.551,0,0,1,.51-1.529,3.37,3.37,0,0,1,1.441-1.1,5.253,5.253,0,0,1,2.092-.4,4.15,4.15,0,0,1,2.791.883,3.09,3.09,0,0,1,1.033,2.483V-2.2A4.546,4.546,0,0,0,48.1-.149V0Zm-2.1-1.767a2.188,2.188,0,0,0,1.037-.25,1.645,1.645,0,0,0,.7-.672V-4.324h-.949q-1.907,0-2.03,1.318l-.009.149a1.017,1.017,0,0,0,.334.782A1.3,1.3,0,0,0,43.436-1.767Zm11.391-.861a.818.818,0,0,0-.461-.734,5.241,5.241,0,0,0-1.481-.479q-3.393-.712-3.393-2.883a2.613,2.613,0,0,1,1.05-2.114,4.237,4.237,0,0,1,2.747-.848,4.56,4.56,0,0,1,2.9.853A2.687,2.687,0,0,1,57.27-6.618h-2.54a1.229,1.229,0,0,0-.352-.9,1.488,1.488,0,0,0-1.1-.356,1.52,1.52,0,0,0-.993.29.916.916,0,0,0-.352.738.783.783,0,0,0,.4.681,4.114,4.114,0,0,0,1.349.448,11.019,11.019,0,0,1,1.6.426A2.628,2.628,0,0,1,57.3-2.733a2.481,2.481,0,0,1-1.116,2.1,4.815,4.815,0,0,1-2.883.8A5.029,5.029,0,0,1,51.174-.25,3.561,3.561,0,0,1,49.72-1.419a2.716,2.716,0,0,1-.527-1.6H51.6a1.326,1.326,0,0,0,.5,1.037,1.987,1.987,0,0,0,1.248.36,1.839,1.839,0,0,0,1.1-.277A.861.861,0,0,0,54.826-2.628Z" transform="translate(10249 -4977)" fill="#083142"/>
    <path id="Trazado_603087" data-name="Trazado 603087" d="M5.88-4.685h-2.1V0H1.143V-12.8H5.9a5.375,5.375,0,0,1,3.5,1.011,3.488,3.488,0,0,1,1.23,2.856,3.937,3.937,0,0,1-.567,2.184A3.866,3.866,0,0,1,8.341-5.353L11.109-.123V0H8.279ZM3.779-6.82H5.906a2.178,2.178,0,0,0,1.538-.505,1.806,1.806,0,0,0,.545-1.393,1.933,1.933,0,0,0-.514-1.424A2.137,2.137,0,0,0,5.9-10.661H3.779Zm13.061,7a4.668,4.668,0,0,1-3.406-1.283A4.561,4.561,0,0,1,12.12-4.526v-.246a5.745,5.745,0,0,1,.554-2.562,4.064,4.064,0,0,1,1.569-1.74,4.4,4.4,0,0,1,2.316-.611,3.947,3.947,0,0,1,3.072,1.23,5,5,0,0,1,1.121,3.489v1.037H14.7a2.36,2.36,0,0,0,.743,1.494,2.245,2.245,0,0,0,1.569.563A2.742,2.742,0,0,0,19.3-2.936l1.248,1.4A3.813,3.813,0,0,1,19-.277,5.075,5.075,0,0,1,16.84.176Zm-.29-7.813a1.587,1.587,0,0,0-1.226.512,2.651,2.651,0,0,0-.6,1.466h3.533v-.2A1.891,1.891,0,0,0,17.8-7.174,1.638,1.638,0,0,0,16.55-7.638ZM21.8-4.843a5.684,5.684,0,0,1,1-3.542,3.261,3.261,0,0,1,2.738-1.3,2.92,2.92,0,0,1,2.435,1.169l.167-.993h2.232V3.656H27.817V-.817a2.928,2.928,0,0,1-2.3.993,3.237,3.237,0,0,1-2.707-1.318A5.963,5.963,0,0,1,21.8-4.843Zm2.54.18a3.729,3.729,0,0,0,.479,2.077,1.533,1.533,0,0,0,1.349.713,1.708,1.708,0,0,0,1.652-.933V-6.74a1.694,1.694,0,0,0-1.635-.9,1.552,1.552,0,0,0-1.362.713A4.118,4.118,0,0,0,24.337-4.662Zm13.72,3.7a3.185,3.185,0,0,1-2.6,1.143A3,3,0,0,1,33.122-.7,3.752,3.752,0,0,1,32.3-3.278V-9.51h2.54v6.151q0,1.487,1.354,1.487a1.834,1.834,0,0,0,1.775-.9V-9.51h2.549V0H38.127ZM45.114,0H42.565V-9.51h2.549Zm-2.7-11.971a1.251,1.251,0,0,1,.382-.94,1.436,1.436,0,0,1,1.042-.369,1.44,1.44,0,0,1,1.037.369,1.244,1.244,0,0,1,.387.94,1.247,1.247,0,0,1-.391.949,1.443,1.443,0,0,1-1.033.369,1.443,1.443,0,0,1-1.033-.369A1.247,1.247,0,0,1,42.416-11.971Zm9.94,9.343a.818.818,0,0,0-.461-.734,5.241,5.241,0,0,0-1.481-.479q-3.393-.712-3.393-2.883a2.613,2.613,0,0,1,1.05-2.114,4.237,4.237,0,0,1,2.747-.848,4.56,4.56,0,0,1,2.9.853A2.687,2.687,0,0,1,54.8-6.618H52.26a1.229,1.229,0,0,0-.352-.9,1.488,1.488,0,0,0-1.1-.356,1.52,1.52,0,0,0-.993.29.916.916,0,0,0-.352.738.783.783,0,0,0,.4.681,4.114,4.114,0,0,0,1.349.448,11.019,11.019,0,0,1,1.6.426,2.628,2.628,0,0,1,2.013,2.558,2.481,2.481,0,0,1-1.116,2.1,4.815,4.815,0,0,1-2.883.8A5.029,5.029,0,0,1,48.7-.25,3.561,3.561,0,0,1,47.25-1.419a2.716,2.716,0,0,1-.527-1.6h2.408a1.326,1.326,0,0,0,.5,1.037,1.987,1.987,0,0,0,1.248.36,1.839,1.839,0,0,0,1.1-.277A.861.861,0,0,0,52.356-2.628ZM59.142,0H56.593V-9.51h2.549Zm-2.7-11.971a1.251,1.251,0,0,1,.382-.94,1.436,1.436,0,0,1,1.042-.369,1.44,1.44,0,0,1,1.037.369,1.244,1.244,0,0,1,.387.94,1.247,1.247,0,0,1-.391.949,1.443,1.443,0,0,1-1.033.369,1.443,1.443,0,0,1-1.033-.369A1.247,1.247,0,0,1,56.443-11.971Zm7.831.123V-9.51H65.9v1.863H64.274V-2.9a1.133,1.133,0,0,0,.2.756,1.015,1.015,0,0,0,.773.229A4.051,4.051,0,0,0,66-1.978V-.053a5.229,5.229,0,0,1-1.538.229,2.425,2.425,0,0,1-2.725-2.7V-7.646H60.346V-9.51h1.389v-2.338Zm2.382,7A5.64,5.64,0,0,1,67.2-7.365,3.989,3.989,0,0,1,68.77-9.079a4.577,4.577,0,0,1,2.377-.606A4.33,4.33,0,0,1,74.29-8.508a4.727,4.727,0,0,1,1.358,3.2l.018.65a4.97,4.97,0,0,1-1.222,3.511A4.247,4.247,0,0,1,71.165.176a4.268,4.268,0,0,1-3.283-1.318,5.058,5.058,0,0,1-1.226-3.586Zm2.54.18a3.555,3.555,0,0,0,.51,2.073,1.682,1.682,0,0,0,1.459.717,1.686,1.686,0,0,0,1.441-.709,3.89,3.89,0,0,0,.519-2.267,3.519,3.519,0,0,0-.519-2.06,1.686,1.686,0,0,0-1.459-.731,1.658,1.658,0,0,0-1.441.726A3.955,3.955,0,0,0,69.2-4.662ZM82.38-2.628a.818.818,0,0,0-.461-.734,5.241,5.241,0,0,0-1.481-.479q-3.393-.712-3.393-2.883A2.613,2.613,0,0,1,78.1-8.837a4.237,4.237,0,0,1,2.747-.848,4.56,4.56,0,0,1,2.9.853,2.687,2.687,0,0,1,1.085,2.215h-2.54a1.229,1.229,0,0,0-.352-.9,1.488,1.488,0,0,0-1.1-.356,1.52,1.52,0,0,0-.993.29.916.916,0,0,0-.352.738.783.783,0,0,0,.4.681,4.114,4.114,0,0,0,1.349.448,11.019,11.019,0,0,1,1.6.426A2.628,2.628,0,0,1,84.85-2.733a2.481,2.481,0,0,1-1.116,2.1,4.815,4.815,0,0,1-2.883.8A5.029,5.029,0,0,1,78.728-.25a3.561,3.561,0,0,1-1.455-1.169,2.716,2.716,0,0,1-.527-1.6h2.408a1.326,1.326,0,0,0,.5,1.037,1.987,1.987,0,0,0,1.248.36,1.839,1.839,0,0,0,1.1-.277A.861.861,0,0,0,82.38-2.628Z" transform="translate(10109 -4640)" fill="#083142"/>
    <path id="Trazado_602901" data-name="Trazado 602901" d="M25.553,0,11.011,5.3,0,11.643H257.689l-11.1-6.4L233.637,0Z" transform="translate(10280.503 -4920.357) rotate(180)" fill="#083142"/>
    <path id="Trazado_602902" data-name="Trazado 602902" d="M0,0V23.227L109.727,212.637l7.312,2.961,11.8,6.8Z" transform="translate(10145.838 -4699.515) rotate(180)" fill="#ff6148"/>
    <path id="Trazado_602903" data-name="Trazado 602903" d="M128.837,0,0,222.4l11.888-6.852,7.017-2.555L128.837,23.227Z" transform="translate(10286.317 -4699.515) rotate(180)" fill="#ffb476"/>
    <g id="Trazado_603088" data-name="Trazado 603088" transform="translate(10227 -4622) rotate(180)" fill="none" stroke-dasharray="4">
      <path d="M0,0H149V49H0Z" stroke="none"/>
      <path d="M 8 0 L 12 0 L 12 1 L 8 1 L 8 0 Z M 16 0 L 20 0 L 20 1 L 16 1 L 16 0 Z M 24 0 L 28 0 L 28 1 L 24 1 L 24 0 Z M 32 0 L 36 0 L 36 1 L 32 1 L 32 0 Z M 40 0 L 44 0 L 44 1 L 40 1 L 40 0 Z M 48 0 L 52 0 L 52 1 L 48 1 L 48 0 Z M 56 0 L 60 0 L 60 1 L 56 1 L 56 0 Z M 64 0 L 68 0 L 68 1 L 64 1 L 64 0 Z M 72 0 L 76 0 L 76 1 L 72 1 L 72 0 Z M 80 0 L 84 0 L 84 1 L 80 1 L 80 0 Z M 88 0 L 92 0 L 92 1 L 88 1 L 88 0 Z M 96 0 L 100 0 L 100 1 L 96 1 L 96 0 Z M 104 0 L 108 0 L 108 1 L 104 1 L 104 0 Z M 112 0 L 116 0 L 116 1 L 112 1 L 112 0 Z M 120 0 L 124 0 L 124 1 L 120 1 L 120 0 Z M 128 0 L 132 0 L 132 1 L 128 1 L 128 0 Z M 136 0 L 140 0 L 140 1 L 136 1 L 136 0 Z M 144 0 L 148 0 L 148 1 L 144 1 L 144 0 Z M 148 3 L 149 3 C 149 3 149 7 149 7 L 148 7 L 148 3 Z M 148 11 L 149 11 C 149 11 149 15 149 15 L 148 15 L 148 11 Z M 148 19 L 149 19 C 149 19 149 23 149 23 L 148 23 L 148 19 Z M 148 27 L 149 27 C 149 27 149 31 149 31 L 148 31 L 148 27 Z M 148 35 L 149 35 C 149 35 149 39 149 39 L 148 39 L 148 35 Z M 148 43 L 149 43 C 149 43 149 47 149 47 L 148 47 L 148 43 Z M 143 48 L 147 48 L 147 49 C 147 49 143 49 143 49 L 143 48 Z M 135 48 L 139 48 L 139 49 C 139 49 135 49 135 49 L 135 48 Z M 127 48 L 131 48 L 131 49 C 131 49 127 49 127 49 L 127 48 Z M 119 48 L 123 48 L 123 49 C 123 49 119 49 119 49 L 119 48 Z M 111 48 L 115 48 L 115 49 C 115 49 111 49 111 49 L 111 48 Z M 103 48 L 107 48 L 107 49 C 107 49 103 49 103 49 L 103 48 Z M 95 48 L 99 48 L 99 49 C 99 49 95 49 95 49 L 95 48 Z M 87 48 L 91 48 L 91 49 C 91 49 87 49 87 49 L 87 48 Z M 79 48 L 83 48 L 83 49 C 83 49 79 49 79 49 L 79 48 Z M 71 48 L 75 48 L 75 49 C 75 49 71 49 71 49 L 71 48 Z M 63 48 L 67 48 L 67 49 C 67 49 63 49 63 49 L 63 48 Z M 55 48 L 59 48 L 59 49 C 59 49 55 49 55 49 L 55 48 Z M 47 48 L 51 48 L 51 49 C 51 49 47 49 47 49 L 47 48 Z M 39 48 L 43 48 L 43 49 C 43 49 39 49 39 49 L 39 48 Z M 31 48 L 35 48 L 35 49 C 35 49 31 49 31 49 L 31 48 Z M 23 48 L 27 48 L 27 49 C 27 49 23 49 23 49 L 23 48 Z M 15 48 L 19 48 L 19 49 C 19 49 15 49 15 49 L 15 48 Z M 7 48 L 11 48 L 11 49 C 11 49 7 49 7 49 L 7 48 Z M 0 48 L 3 48 L 3 49 C 3 49 0 49 0 49 L 0 48 Z M 0 40 L 1 40 L 1 44 L 0 44 L 0 40 Z M 0 32 L 1 32 L 1 36 L 0 36 L 0 32 Z M 0 24 L 1 24 L 1 28 L 0 28 L 0 24 Z M 0 16 L 1 16 L 1 20 L 0 20 L 0 16 Z M 0 8 L 1 8 L 1 12 L 0 12 L 0 8 Z M 0 0 L 4 0 L 4 1 L 1 1 L 1 4 L 0 4 L 0 0 Z" stroke="none" fill="#083142"/>
    </g>
    <g id="Trazado_603089" data-name="Trazado 603089" transform="translate(10101 -4960) rotate(180)" fill="none" stroke-dasharray="4">
      <path d="M0,0H149V49H0Z" stroke="none"/>
      <path d="M 8 0 L 12 0 L 12 1 L 8 1 L 8 0 Z M 16 0 L 20 0 L 20 1 L 16 1 L 16 0 Z M 24 0 L 28 0 L 28 1 L 24 1 L 24 0 Z M 32 0 L 36 0 L 36 1 L 32 1 L 32 0 Z M 40 0 L 44 0 L 44 1 L 40 1 L 40 0 Z M 48 0 L 52 0 L 52 1 L 48 1 L 48 0 Z M 56 0 L 60 0 L 60 1 L 56 1 L 56 0 Z M 64 0 L 68 0 L 68 1 L 64 1 L 64 0 Z M 72 0 L 76 0 L 76 1 L 72 1 L 72 0 Z M 80 0 L 84 0 L 84 1 L 80 1 L 80 0 Z M 88 0 L 92 0 L 92 1 L 88 1 L 88 0 Z M 96 0 L 100 0 L 100 1 L 96 1 L 96 0 Z M 104 0 L 108 0 L 108 1 L 104 1 L 104 0 Z M 112 0 L 116 0 L 116 1 L 112 1 L 112 0 Z M 120 0 L 124 0 L 124 1 L 120 1 L 120 0 Z M 128 0 L 132 0 L 132 1 L 128 1 L 128 0 Z M 136 0 L 140 0 L 140 1 L 136 1 L 136 0 Z M 144 0 L 148 0 L 148 1 L 144 1 L 144 0 Z M 148 3 L 149 3 C 149 3 149 7 149 7 L 148 7 L 148 3 Z M 148 11 L 149 11 C 149 11 149 15 149 15 L 148 15 L 148 11 Z M 148 19 L 149 19 C 149 19 149 23 149 23 L 148 23 L 148 19 Z M 148 27 L 149 27 C 149 27 149 31 149 31 L 148 31 L 148 27 Z M 148 35 L 149 35 C 149 35 149 39 149 39 L 148 39 L 148 35 Z M 148 43 L 149 43 C 149 43 149 47 149 47 L 148 47 L 148 43 Z M 143 48 L 147 48 L 147 49 C 147 49 143 49 143 49 L 143 48 Z M 135 48 L 139 48 L 139 49 C 139 49 135 49 135 49 L 135 48 Z M 127 48 L 131 48 L 131 49 C 131 49 127 49 127 49 L 127 48 Z M 119 48 L 123 48 L 123 49 C 123 49 119 49 119 49 L 119 48 Z M 111 48 L 115 48 L 115 49 C 115 49 111 49 111 49 L 111 48 Z M 103 48 L 107 48 L 107 49 C 107 49 103 49 103 49 L 103 48 Z M 95 48 L 99 48 L 99 49 C 99 49 95 49 95 49 L 95 48 Z M 87 48 L 91 48 L 91 49 C 91 49 87 49 87 49 L 87 48 Z M 79 48 L 83 48 L 83 49 C 83 49 79 49 79 49 L 79 48 Z M 71 48 L 75 48 L 75 49 C 75 49 71 49 71 49 L 71 48 Z M 63 48 L 67 48 L 67 49 C 67 49 63 49 63 49 L 63 48 Z M 55 48 L 59 48 L 59 49 C 59 49 55 49 55 49 L 55 48 Z M 47 48 L 51 48 L 51 49 C 51 49 47 49 47 49 L 47 48 Z M 39 48 L 43 48 L 43 49 C 43 49 39 49 39 49 L 39 48 Z M 31 48 L 35 48 L 35 49 C 35 49 31 49 31 49 L 31 48 Z M 23 48 L 27 48 L 27 49 C 27 49 23 49 23 49 L 23 48 Z M 15 48 L 19 48 L 19 49 C 19 49 15 49 15 49 L 15 48 Z M 7 48 L 11 48 L 11 49 C 11 49 7 49 7 49 L 7 48 Z M 0 48 L 3 48 L 3 49 C 3 49 0 49 0 49 L 0 48 Z M 0 40 L 1 40 L 1 44 L 0 44 L 0 40 Z M 0 32 L 1 32 L 1 36 L 0 36 L 0 32 Z M 0 24 L 1 24 L 1 28 L 0 28 L 0 24 Z M 0 16 L 1 16 L 1 20 L 0 20 L 0 16 Z M 0 8 L 1 8 L 1 12 L 0 12 L 0 8 Z M 0 0 L 4 0 L 4 1 L 1 1 L 1 4 L 0 4 L 0 0 Z" stroke="none" fill="#083142"/>
    </g>
    <g id="Trazado_603090" data-name="Trazado 603090" transform="translate(10352 -4959) rotate(180)" fill="none" stroke-dasharray="4">
      <path d="M0,0H149V49H0Z" stroke="none"/>
      <path d="M 8 0 L 12 0 L 12 1 L 8 1 L 8 0 Z M 16 0 L 20 0 L 20 1 L 16 1 L 16 0 Z M 24 0 L 28 0 L 28 1 L 24 1 L 24 0 Z M 32 0 L 36 0 L 36 1 L 32 1 L 32 0 Z M 40 0 L 44 0 L 44 1 L 40 1 L 40 0 Z M 48 0 L 52 0 L 52 1 L 48 1 L 48 0 Z M 56 0 L 60 0 L 60 1 L 56 1 L 56 0 Z M 64 0 L 68 0 L 68 1 L 64 1 L 64 0 Z M 72 0 L 76 0 L 76 1 L 72 1 L 72 0 Z M 80 0 L 84 0 L 84 1 L 80 1 L 80 0 Z M 88 0 L 92 0 L 92 1 L 88 1 L 88 0 Z M 96 0 L 100 0 L 100 1 L 96 1 L 96 0 Z M 104 0 L 108 0 L 108 1 L 104 1 L 104 0 Z M 112 0 L 116 0 L 116 1 L 112 1 L 112 0 Z M 120 0 L 124 0 L 124 1 L 120 1 L 120 0 Z M 128 0 L 132 0 L 132 1 L 128 1 L 128 0 Z M 136 0 L 140 0 L 140 1 L 136 1 L 136 0 Z M 144 0 L 148 0 L 148 1 L 144 1 L 144 0 Z M 148 3 L 149 3 C 149 3 149 7 149 7 L 148 7 L 148 3 Z M 148 11 L 149 11 C 149 11 149 15 149 15 L 148 15 L 148 11 Z M 148 19 L 149 19 C 149 19 149 23 149 23 L 148 23 L 148 19 Z M 148 27 L 149 27 C 149 27 149 31 149 31 L 148 31 L 148 27 Z M 148 35 L 149 35 C 149 35 149 39 149 39 L 148 39 L 148 35 Z M 148 43 L 149 43 C 149 43 149 47 149 47 L 148 47 L 148 43 Z M 143 48 L 147 48 L 147 49 C 147 49 143 49 143 49 L 143 48 Z M 135 48 L 139 48 L 139 49 C 139 49 135 49 135 49 L 135 48 Z M 127 48 L 131 48 L 131 49 C 131 49 127 49 127 49 L 127 48 Z M 119 48 L 123 48 L 123 49 C 123 49 119 49 119 49 L 119 48 Z M 111 48 L 115 48 L 115 49 C 115 49 111 49 111 49 L 111 48 Z M 103 48 L 107 48 L 107 49 C 107 49 103 49 103 49 L 103 48 Z M 95 48 L 99 48 L 99 49 C 99 49 95 49 95 49 L 95 48 Z M 87 48 L 91 48 L 91 49 C 91 49 87 49 87 49 L 87 48 Z M 79 48 L 83 48 L 83 49 C 83 49 79 49 79 49 L 79 48 Z M 71 48 L 75 48 L 75 49 C 75 49 71 49 71 49 L 71 48 Z M 63 48 L 67 48 L 67 49 C 67 49 63 49 63 49 L 63 48 Z M 55 48 L 59 48 L 59 49 C 59 49 55 49 55 49 L 55 48 Z M 47 48 L 51 48 L 51 49 C 51 49 47 49 47 49 L 47 48 Z M 39 48 L 43 48 L 43 49 C 43 49 39 49 39 49 L 39 48 Z M 31 48 L 35 48 L 35 49 C 35 49 31 49 31 49 L 31 48 Z M 23 48 L 27 48 L 27 49 C 27 49 23 49 23 49 L 23 48 Z M 15 48 L 19 48 L 19 49 C 19 49 15 49 15 49 L 15 48 Z M 7 48 L 11 48 L 11 49 C 11 49 7 49 7 49 L 7 48 Z M 0 48 L 3 48 L 3 49 C 3 49 0 49 0 49 L 0 48 Z M 0 40 L 1 40 L 1 44 L 0 44 L 0 40 Z M 0 32 L 1 32 L 1 36 L 0 36 L 0 32 Z M 0 24 L 1 24 L 1 28 L 0 28 L 0 24 Z M 0 16 L 1 16 L 1 20 L 0 20 L 0 16 Z M 0 8 L 1 8 L 1 12 L 0 12 L 0 8 Z M 0 0 L 4 0 L 4 1 L 1 1 L 1 4 L 0 4 L 0 0 Z" stroke="none" fill="#083142"/>
    </g>
    <path id="Trazado_603091" data-name="Trazado 603091" d="M0,0H190V386H0Z" transform="translate(10062 -5423)" fill="#fff3ea"/>
    <path id="Trazado_603092" data-name="Trazado 603092" d="M0,0H139V45H0Z" transform="translate(10227 -5352) rotate(180)" fill="#fff"/>
    <path id="Trazado_603093" data-name="Trazado 603093" d="M0,0H139V45H0Z" transform="translate(10227 -5063) rotate(180)" fill="#fff"/>
    <path id="Trazado_602904" data-name="Trazado 602904" d="M8918.84-5899.365v211.939" transform="translate(1238.661 560.197)" fill="none" stroke="#ff6148" stroke-width="5" stroke-dasharray="5"/>
    <path id="Trazado_602907" data-name="Trazado 602907" d="M8899.886-5733.8l17.982,19.245,17.455-19.245" transform="translate(1239.396 594.201)" fill="none" stroke="#ff6148" stroke-width="5"/>
    <path id="Trazado_603094" data-name="Trazado 603094" d="M8.842-5.229H3.779V0H1.143V-12.8H9.475v2.136h-5.7v3.3H8.842ZM13.518,0H10.969V-9.51h2.549Zm-2.7-11.971a1.251,1.251,0,0,1,.382-.94,1.436,1.436,0,0,1,1.042-.369,1.44,1.44,0,0,1,1.037.369,1.244,1.244,0,0,1,.387.94,1.247,1.247,0,0,1-.391.949,1.443,1.443,0,0,1-1.033.369,1.443,1.443,0,0,1-1.033-.369A1.247,1.247,0,0,1,10.819-11.971ZM18.3-9.51V.519a3.4,3.4,0,0,1-.835,2.448,3.174,3.174,0,0,1-2.408.875A5.165,5.165,0,0,1,13.8,3.691V1.679a4.768,4.768,0,0,0,.8.079q1.151,0,1.151-1.222V-9.51Zm-2.751-2.461a1.251,1.251,0,0,1,.382-.94,1.436,1.436,0,0,1,1.042-.369,1.436,1.436,0,0,1,1.042.369,1.251,1.251,0,0,1,.382.94,1.247,1.247,0,0,1-.391.949,1.443,1.443,0,0,1-1.033.369,1.443,1.443,0,0,1-1.033-.369A1.247,1.247,0,0,1,15.548-11.971ZM25.8,0a2.821,2.821,0,0,1-.255-.853,3.073,3.073,0,0,1-2.4,1.028,3.376,3.376,0,0,1-2.316-.809,2.6,2.6,0,0,1-.918-2.039,2.687,2.687,0,0,1,1.121-2.32,5.529,5.529,0,0,1,3.239-.817h1.169v-.545A1.567,1.567,0,0,0,25.1-7.409a1.331,1.331,0,0,0-1.068-.4,1.513,1.513,0,0,0-1.006.308,1.045,1.045,0,0,0-.365.844h-2.54a2.551,2.551,0,0,1,.51-1.529,3.37,3.37,0,0,1,1.441-1.1,5.253,5.253,0,0,1,2.092-.4,4.15,4.15,0,0,1,2.791.883,3.09,3.09,0,0,1,1.033,2.483V-2.2a4.546,4.546,0,0,0,.378,2.048V0ZM23.7-1.767a2.188,2.188,0,0,0,1.037-.25,1.645,1.645,0,0,0,.7-.672V-4.324h-.949q-1.907,0-2.03,1.318l-.009.149a1.017,1.017,0,0,0,.334.782A1.3,1.3,0,0,0,23.7-1.767ZM29.54-4.825a5.731,5.731,0,0,1,1-3.542,3.237,3.237,0,0,1,2.729-1.318,2.913,2.913,0,0,1,2.294,1.037V-13.5h2.549V0H35.815l-.123-1.011A2.989,2.989,0,0,1,33.249.176a3.228,3.228,0,0,1-2.694-1.323A5.916,5.916,0,0,1,29.54-4.825Zm2.54.189a3.754,3.754,0,0,0,.466,2.051,1.517,1.517,0,0,0,1.354.713,1.7,1.7,0,0,0,1.661-.995V-6.625a1.675,1.675,0,0,0-1.644-.995Q32.08-7.62,32.08-4.636Zm7.6-.207a5.64,5.64,0,0,1,.545-2.522A3.989,3.989,0,0,1,41.8-9.079a4.577,4.577,0,0,1,2.377-.606,4.33,4.33,0,0,1,3.142,1.178,4.727,4.727,0,0,1,1.358,3.2l.018.65A4.97,4.97,0,0,1,47.47-1.147,4.247,4.247,0,0,1,44.191.176a4.268,4.268,0,0,1-3.283-1.318,5.058,5.058,0,0,1-1.226-3.586Zm2.54.18a3.555,3.555,0,0,0,.51,2.073,1.682,1.682,0,0,0,1.459.717,1.686,1.686,0,0,0,1.441-.709,3.89,3.89,0,0,0,.519-2.267,3.519,3.519,0,0,0-.519-2.06,1.686,1.686,0,0,0-1.459-.731,1.658,1.658,0,0,0-1.441.726A3.955,3.955,0,0,0,42.223-4.662Z" transform="translate(10133 -5368)" fill="#083142"/>
    <path id="Trazado_603095" data-name="Trazado 603095" d="M8.842-5.546H3.779v3.428H9.721V0H1.143V-12.8H9.7v2.136H3.779v3.05H8.842Zm7.409,2.918a.818.818,0,0,0-.461-.734,5.241,5.241,0,0,0-1.481-.479q-3.393-.712-3.393-2.883a2.613,2.613,0,0,1,1.05-2.114,4.237,4.237,0,0,1,2.747-.848,4.56,4.56,0,0,1,2.9.853,2.687,2.687,0,0,1,1.085,2.215h-2.54a1.229,1.229,0,0,0-.352-.9,1.488,1.488,0,0,0-1.1-.356,1.52,1.52,0,0,0-.993.29.916.916,0,0,0-.352.738.783.783,0,0,0,.4.681,4.114,4.114,0,0,0,1.349.448,11.019,11.019,0,0,1,1.6.426,2.628,2.628,0,0,1,2.013,2.558A2.481,2.481,0,0,1,17.6-.628a4.815,4.815,0,0,1-2.883.8A5.029,5.029,0,0,1,12.6-.25a3.561,3.561,0,0,1-1.455-1.169,2.716,2.716,0,0,1-.527-1.6h2.408a1.326,1.326,0,0,0,.5,1.037,1.987,1.987,0,0,0,1.248.36,1.839,1.839,0,0,0,1.1-.277A.861.861,0,0,0,16.251-2.628Zm7.146-9.22V-9.51h1.626v1.863H23.4V-2.9a1.133,1.133,0,0,0,.2.756,1.015,1.015,0,0,0,.773.229,4.051,4.051,0,0,0,.747-.062V-.053a5.229,5.229,0,0,1-1.538.229,2.425,2.425,0,0,1-2.725-2.7V-7.646H19.468V-9.51h1.389v-2.338ZM29.118,0H26.569V-9.51h2.549Zm-2.7-11.971a1.251,1.251,0,0,1,.382-.94,1.436,1.436,0,0,1,1.042-.369,1.44,1.44,0,0,1,1.037.369,1.244,1.244,0,0,1,.387.94,1.247,1.247,0,0,1-.391.949,1.443,1.443,0,0,1-1.033.369,1.443,1.443,0,0,1-1.033-.369A1.247,1.247,0,0,1,26.42-11.971ZM33.592-9.51l.079,1.063A3.342,3.342,0,0,1,36.4-9.686a2.536,2.536,0,0,1,2.522,1.45,3.265,3.265,0,0,1,2.856-1.45,2.836,2.836,0,0,1,2.3.9,4.141,4.141,0,0,1,.756,2.711V0H42.293V-6.064a1.811,1.811,0,0,0-.316-1.182A1.4,1.4,0,0,0,40.86-7.62a1.585,1.585,0,0,0-1.582,1.09L39.287,0h-2.54V-6.056a1.789,1.789,0,0,0-.325-1.2,1.416,1.416,0,0,0-1.107-.369,1.646,1.646,0,0,0-1.564.9V0H31.21V-9.51ZM52.3,0a2.821,2.821,0,0,1-.255-.853,3.073,3.073,0,0,1-2.4,1.028,3.376,3.376,0,0,1-2.316-.809,2.6,2.6,0,0,1-.918-2.039,2.687,2.687,0,0,1,1.121-2.32,5.529,5.529,0,0,1,3.239-.817h1.169v-.545A1.567,1.567,0,0,0,51.6-7.409a1.331,1.331,0,0,0-1.068-.4,1.513,1.513,0,0,0-1.006.308,1.045,1.045,0,0,0-.365.844h-2.54a2.551,2.551,0,0,1,.51-1.529,3.37,3.37,0,0,1,1.441-1.1,5.253,5.253,0,0,1,2.092-.4,4.15,4.15,0,0,1,2.791.883,3.09,3.09,0,0,1,1.033,2.483V-2.2A4.546,4.546,0,0,0,54.87-.149V0ZM50.2-1.767a2.188,2.188,0,0,0,1.037-.25,1.645,1.645,0,0,0,.7-.672V-4.324h-.949q-1.907,0-2.03,1.318l-.009.149a1.017,1.017,0,0,0,.334.782A1.3,1.3,0,0,0,50.2-1.767Zm5.845-3.059a5.731,5.731,0,0,1,1-3.542,3.237,3.237,0,0,1,2.729-1.318,2.913,2.913,0,0,1,2.294,1.037V-13.5h2.549V0H62.323L62.2-1.011A2.989,2.989,0,0,1,59.757.176a3.228,3.228,0,0,1-2.694-1.323A5.916,5.916,0,0,1,56.048-4.825Zm2.54.189a3.754,3.754,0,0,0,.466,2.051,1.517,1.517,0,0,0,1.354.713,1.7,1.7,0,0,0,1.661-.995V-6.625a1.675,1.675,0,0,0-1.644-.995Q58.588-7.62,58.588-4.636Zm7.6-.207a5.64,5.64,0,0,1,.545-2.522A3.989,3.989,0,0,1,68.3-9.079a4.577,4.577,0,0,1,2.377-.606,4.33,4.33,0,0,1,3.142,1.178,4.727,4.727,0,0,1,1.358,3.2l.018.65a4.97,4.97,0,0,1-1.222,3.511A4.247,4.247,0,0,1,70.7.176a4.268,4.268,0,0,1-3.283-1.318A5.058,5.058,0,0,1,66.19-4.729Zm2.54.18a3.555,3.555,0,0,0,.51,2.073,1.682,1.682,0,0,0,1.459.717,1.686,1.686,0,0,0,1.441-.709,3.89,3.89,0,0,0,.519-2.267,3.519,3.519,0,0,0-.519-2.06,1.686,1.686,0,0,0-1.459-.731,1.658,1.658,0,0,0-1.441.726A3.955,3.955,0,0,0,68.73-4.662Z" transform="translate(10119 -5080)" fill="#083142"/>
    <path id="Trazado_603096" data-name="Trazado 603096" d="M94,0l94,162H0Z" transform="translate(10247 -4744) rotate(180)" fill="#ffe7e3"/>
    <path id="Trazado_603097" data-name="Trazado 603097" d="M9.15-2.656h-4.7L3.633,0H-.029L5.186-14.219H8.408L13.662,0H9.98ZM5.273-5.3H8.33L6.8-10.234ZM7.246-18.027h3.477L8.008-14.961l-2.686,0ZM14.16-5.361a7.134,7.134,0,0,1,.527-2.832,4.245,4.245,0,0,1,1.514-1.9,3.99,3.99,0,0,1,2.295-.669,3.173,3.173,0,0,1,2.578,1.113l.117-.918H24.18V-.4a4.455,4.455,0,0,1-.649,2.427,4.167,4.167,0,0,1-1.88,1.582A6.91,6.91,0,0,1,18.8,4.16a5.961,5.961,0,0,1-2.251-.439,4.063,4.063,0,0,1-1.665-1.143L16.26.645a3.018,3.018,0,0,0,2.422,1.084A1.96,1.96,0,0,0,20.869-.518V-.85A3.09,3.09,0,0,1,18.477.2a3.819,3.819,0,0,1-3.125-1.479,6.13,6.13,0,0,1-1.191-3.96Zm3.3.205A3.759,3.759,0,0,0,17.949-3.1a1.541,1.541,0,0,0,1.367.757,1.748,1.748,0,0,0,1.553-.713V-7.5a1.7,1.7,0,0,0-1.533-.723,1.551,1.551,0,0,0-1.377.786A4.287,4.287,0,0,0,17.461-5.156ZM29.521,0h-3.3V-10.566h3.3Zm-3.5-13.291a1.469,1.469,0,0,1,.508-1.152,1.916,1.916,0,0,1,1.318-.449,1.916,1.916,0,0,1,1.318.449,1.469,1.469,0,0,1,.508,1.152,1.469,1.469,0,0,1-.508,1.152,1.916,1.916,0,0,1-1.318.449,1.916,1.916,0,0,1-1.318-.449A1.469,1.469,0,0,1,26.025-13.291ZM35.02,0h-3.3V-15h3.3Z" transform="translate(10134 -4860)" fill="#ff6148"/>
    <path id="Trazado_603098" data-name="Trazado 603098" d="M5.88-4.685h-2.1V0H1.143V-12.8H5.9a5.375,5.375,0,0,1,3.5,1.011,3.488,3.488,0,0,1,1.23,2.856,3.937,3.937,0,0,1-.567,2.184A3.866,3.866,0,0,1,8.341-5.353L11.109-.123V0H8.279ZM3.779-6.82H5.906a2.178,2.178,0,0,0,1.538-.505,1.806,1.806,0,0,0,.545-1.393,1.933,1.933,0,0,0-.514-1.424A2.137,2.137,0,0,0,5.9-10.661H3.779Zm13.061,7a4.668,4.668,0,0,1-3.406-1.283A4.561,4.561,0,0,1,12.12-4.526v-.246a5.745,5.745,0,0,1,.554-2.562,4.064,4.064,0,0,1,1.569-1.74,4.4,4.4,0,0,1,2.316-.611,3.947,3.947,0,0,1,3.072,1.23,5,5,0,0,1,1.121,3.489v1.037H14.7a2.36,2.36,0,0,0,.743,1.494,2.245,2.245,0,0,0,1.569.563A2.742,2.742,0,0,0,19.3-2.936l1.248,1.4A3.813,3.813,0,0,1,19-.277,5.075,5.075,0,0,1,16.84.176Zm-.29-7.813a1.587,1.587,0,0,0-1.226.512,2.651,2.651,0,0,0-.6,1.466h3.533v-.2A1.891,1.891,0,0,0,17.8-7.174,1.638,1.638,0,0,0,16.55-7.638ZM21.8-4.843a5.684,5.684,0,0,1,1-3.542,3.261,3.261,0,0,1,2.738-1.3,2.92,2.92,0,0,1,2.435,1.169l.167-.993h2.232V3.656H27.817V-.817a2.928,2.928,0,0,1-2.3.993,3.237,3.237,0,0,1-2.707-1.318A5.963,5.963,0,0,1,21.8-4.843Zm2.54.18a3.729,3.729,0,0,0,.479,2.077,1.533,1.533,0,0,0,1.349.713,1.708,1.708,0,0,0,1.652-.933V-6.74a1.694,1.694,0,0,0-1.635-.9,1.552,1.552,0,0,0-1.362.713A4.118,4.118,0,0,0,24.337-4.662Zm13.72,3.7a3.185,3.185,0,0,1-2.6,1.143A3,3,0,0,1,33.122-.7,3.752,3.752,0,0,1,32.3-3.278V-9.51h2.54v6.151q0,1.487,1.354,1.487a1.834,1.834,0,0,0,1.775-.9V-9.51h2.549V0H38.127ZM45.114,0H42.565V-9.51h2.549Zm-2.7-11.971a1.251,1.251,0,0,1,.382-.94,1.436,1.436,0,0,1,1.042-.369,1.44,1.44,0,0,1,1.037.369,1.244,1.244,0,0,1,.387.94,1.247,1.247,0,0,1-.391.949,1.443,1.443,0,0,1-1.033.369,1.443,1.443,0,0,1-1.033-.369A1.247,1.247,0,0,1,42.416-11.971Zm9.94,9.343a.818.818,0,0,0-.461-.734,5.241,5.241,0,0,0-1.481-.479q-3.393-.712-3.393-2.883a2.613,2.613,0,0,1,1.05-2.114,4.237,4.237,0,0,1,2.747-.848,4.56,4.56,0,0,1,2.9.853A2.687,2.687,0,0,1,54.8-6.618H52.26a1.229,1.229,0,0,0-.352-.9,1.488,1.488,0,0,0-1.1-.356,1.52,1.52,0,0,0-.993.29.916.916,0,0,0-.352.738.783.783,0,0,0,.4.681,4.114,4.114,0,0,0,1.349.448,11.019,11.019,0,0,1,1.6.426,2.628,2.628,0,0,1,2.013,2.558,2.481,2.481,0,0,1-1.116,2.1,4.815,4.815,0,0,1-2.883.8A5.029,5.029,0,0,1,48.7-.25,3.561,3.561,0,0,1,47.25-1.419a2.716,2.716,0,0,1-.527-1.6h2.408a1.326,1.326,0,0,0,.5,1.037,1.987,1.987,0,0,0,1.248.36,1.839,1.839,0,0,0,1.1-.277A.861.861,0,0,0,52.356-2.628ZM59.142,0H56.593V-9.51h2.549Zm-2.7-11.971a1.251,1.251,0,0,1,.382-.94,1.436,1.436,0,0,1,1.042-.369,1.44,1.44,0,0,1,1.037.369,1.244,1.244,0,0,1,.387.94,1.247,1.247,0,0,1-.391.949,1.443,1.443,0,0,1-1.033.369,1.443,1.443,0,0,1-1.033-.369A1.247,1.247,0,0,1,56.443-11.971Zm7.831.123V-9.51H65.9v1.863H64.274V-2.9a1.133,1.133,0,0,0,.2.756,1.015,1.015,0,0,0,.773.229A4.051,4.051,0,0,0,66-1.978V-.053a5.229,5.229,0,0,1-1.538.229,2.425,2.425,0,0,1-2.725-2.7V-7.646H60.346V-9.51h1.389v-2.338Zm2.382,7A5.64,5.64,0,0,1,67.2-7.365,3.989,3.989,0,0,1,68.77-9.079a4.577,4.577,0,0,1,2.377-.606A4.33,4.33,0,0,1,74.29-8.508a4.727,4.727,0,0,1,1.358,3.2l.018.65a4.97,4.97,0,0,1-1.222,3.511A4.247,4.247,0,0,1,71.165.176a4.268,4.268,0,0,1-3.283-1.318,5.058,5.058,0,0,1-1.226-3.586Zm2.54.18a3.555,3.555,0,0,0,.51,2.073,1.682,1.682,0,0,0,1.459.717,1.686,1.686,0,0,0,1.441-.709,3.89,3.89,0,0,0,.519-2.267,3.519,3.519,0,0,0-.519-2.06,1.686,1.686,0,0,0-1.459-.731,1.658,1.658,0,0,0-1.441.726A3.955,3.955,0,0,0,69.2-4.662ZM82.38-2.628a.818.818,0,0,0-.461-.734,5.241,5.241,0,0,0-1.481-.479q-3.393-.712-3.393-2.883A2.613,2.613,0,0,1,78.1-8.837a4.237,4.237,0,0,1,2.747-.848,4.56,4.56,0,0,1,2.9.853,2.687,2.687,0,0,1,1.085,2.215h-2.54a1.229,1.229,0,0,0-.352-.9,1.488,1.488,0,0,0-1.1-.356,1.52,1.52,0,0,0-.993.29.916.916,0,0,0-.352.738.783.783,0,0,0,.4.681,4.114,4.114,0,0,0,1.349.448,11.019,11.019,0,0,1,1.6.426A2.628,2.628,0,0,1,84.85-2.733a2.481,2.481,0,0,1-1.116,2.1,4.815,4.815,0,0,1-2.883.8A5.029,5.029,0,0,1,78.728-.25a3.561,3.561,0,0,1-1.455-1.169,2.716,2.716,0,0,1-.527-1.6h2.408a1.326,1.326,0,0,0,.5,1.037,1.987,1.987,0,0,0,1.248.36,1.839,1.839,0,0,0,1.1-.277A.861.861,0,0,0,82.38-2.628Z" transform="translate(10116 -5807)" fill="#083142"/>
    <path id="Trazado_603099" data-name="Trazado 603099" d="M5.88-4.685h-2.1V0H1.143V-12.8H5.9a5.375,5.375,0,0,1,3.5,1.011,3.488,3.488,0,0,1,1.23,2.856,3.937,3.937,0,0,1-.567,2.184A3.866,3.866,0,0,1,8.341-5.353L11.109-.123V0H8.279ZM3.779-6.82H5.906a2.178,2.178,0,0,0,1.538-.505,1.806,1.806,0,0,0,.545-1.393,1.933,1.933,0,0,0-.514-1.424A2.137,2.137,0,0,0,5.9-10.661H3.779Zm13.061,7a4.668,4.668,0,0,1-3.406-1.283A4.561,4.561,0,0,1,12.12-4.526v-.246a5.745,5.745,0,0,1,.554-2.562,4.064,4.064,0,0,1,1.569-1.74,4.4,4.4,0,0,1,2.316-.611,3.947,3.947,0,0,1,3.072,1.23,5,5,0,0,1,1.121,3.489v1.037H14.7a2.36,2.36,0,0,0,.743,1.494,2.245,2.245,0,0,0,1.569.563A2.742,2.742,0,0,0,19.3-2.936l1.248,1.4A3.813,3.813,0,0,1,19-.277,5.075,5.075,0,0,1,16.84.176Zm-.29-7.813a1.587,1.587,0,0,0-1.226.512,2.651,2.651,0,0,0-.6,1.466h3.533v-.2A1.891,1.891,0,0,0,17.8-7.174,1.638,1.638,0,0,0,16.55-7.638Zm9.6,5.766a1.666,1.666,0,0,0,1.143-.387,1.355,1.355,0,0,0,.457-1.028h2.382A3.258,3.258,0,0,1,29.6-1.516,3.48,3.48,0,0,1,28.182-.268a4.442,4.442,0,0,1-1.991.444,4.129,4.129,0,0,1-3.217-1.3A5.13,5.13,0,0,1,21.8-4.7v-.167a5.071,5.071,0,0,1,1.169-3.507,4.08,4.08,0,0,1,3.208-1.31A4,4,0,0,1,29.035-8.67a3.594,3.594,0,0,1,1.094,2.7H27.747a1.745,1.745,0,0,0-.457-1.206,1.524,1.524,0,0,0-1.16-.464,1.53,1.53,0,0,0-1.34.647,3.749,3.749,0,0,0-.453,2.1v.264a3.8,3.8,0,0,0,.448,2.113A1.549,1.549,0,0,0,26.147-1.872Zm11.127.905a3.185,3.185,0,0,1-2.6,1.143A3,3,0,0,1,32.339-.7a3.752,3.752,0,0,1-.822-2.575V-9.51h2.54v6.151q0,1.487,1.354,1.487a1.834,1.834,0,0,0,1.775-.9V-9.51h2.549V0H37.345ZM47-7.128a6.9,6.9,0,0,0-.914-.07,1.86,1.86,0,0,0-1.89.976V0h-2.54V-9.51h2.4l.07,1.134a2.354,2.354,0,0,1,2.118-1.31,2.662,2.662,0,0,1,.791.114Zm6.372,4.5a.818.818,0,0,0-.461-.734,5.241,5.241,0,0,0-1.481-.479q-3.393-.712-3.393-2.883a2.613,2.613,0,0,1,1.05-2.114,4.237,4.237,0,0,1,2.747-.848,4.56,4.56,0,0,1,2.9.853,2.687,2.687,0,0,1,1.085,2.215h-2.54a1.229,1.229,0,0,0-.352-.9,1.488,1.488,0,0,0-1.1-.356,1.52,1.52,0,0,0-.993.29.916.916,0,0,0-.352.738.783.783,0,0,0,.4.681,4.114,4.114,0,0,0,1.349.448,11.019,11.019,0,0,1,1.6.426,2.628,2.628,0,0,1,2.013,2.558,2.481,2.481,0,0,1-1.116,2.1,4.815,4.815,0,0,1-2.883.8A5.029,5.029,0,0,1,49.715-.25a3.561,3.561,0,0,1-1.455-1.169,2.716,2.716,0,0,1-.527-1.6h2.408a1.326,1.326,0,0,0,.5,1.037,1.987,1.987,0,0,0,1.248.36,1.839,1.839,0,0,0,1.1-.277A.861.861,0,0,0,53.367-2.628Zm3.709-2.215a5.64,5.64,0,0,1,.545-2.522A3.989,3.989,0,0,1,59.19-9.079a4.577,4.577,0,0,1,2.377-.606,4.33,4.33,0,0,1,3.142,1.178,4.727,4.727,0,0,1,1.358,3.2l.018.65a4.97,4.97,0,0,1-1.222,3.511A4.247,4.247,0,0,1,61.585.176,4.268,4.268,0,0,1,58.3-1.143a5.058,5.058,0,0,1-1.226-3.586Zm2.54.18a3.555,3.555,0,0,0,.51,2.073,1.682,1.682,0,0,0,1.459.717,1.686,1.686,0,0,0,1.441-.709,3.89,3.89,0,0,0,.519-2.267,3.519,3.519,0,0,0-.519-2.06,1.686,1.686,0,0,0-1.459-.731,1.658,1.658,0,0,0-1.441.726A3.955,3.955,0,0,0,59.616-4.662ZM72.8-2.628a.818.818,0,0,0-.461-.734,5.241,5.241,0,0,0-1.481-.479q-3.393-.712-3.393-2.883a2.613,2.613,0,0,1,1.05-2.114,4.237,4.237,0,0,1,2.747-.848,4.56,4.56,0,0,1,2.9.853,2.687,2.687,0,0,1,1.085,2.215H72.7a1.229,1.229,0,0,0-.352-.9,1.488,1.488,0,0,0-1.1-.356,1.52,1.52,0,0,0-.993.29.916.916,0,0,0-.352.738.783.783,0,0,0,.4.681,4.114,4.114,0,0,0,1.349.448,11.019,11.019,0,0,1,1.6.426A2.628,2.628,0,0,1,75.27-2.733a2.481,2.481,0,0,1-1.116,2.1,4.815,4.815,0,0,1-2.883.8A5.029,5.029,0,0,1,69.148-.25a3.561,3.561,0,0,1-1.455-1.169,2.716,2.716,0,0,1-.527-1.6h2.408a1.326,1.326,0,0,0,.5,1.037,1.987,1.987,0,0,0,1.248.36,1.839,1.839,0,0,0,1.1-.277A.861.861,0,0,0,72.8-2.628Z" transform="translate(9994 -5469)" fill="#083142"/>
    <path id="Trazado_603100" data-name="Trazado 603100" d="M8.842-5.229H3.779V0H1.143V-12.8H9.475v2.136h-5.7v3.3H8.842ZM15.214.176a4.668,4.668,0,0,1-3.406-1.283,4.561,4.561,0,0,1-1.314-3.419v-.246a5.745,5.745,0,0,1,.554-2.562,4.064,4.064,0,0,1,1.569-1.74,4.4,4.4,0,0,1,2.316-.611A3.947,3.947,0,0,1,18-8.455a5,5,0,0,1,1.121,3.489v1.037H13.069a2.36,2.36,0,0,0,.743,1.494,2.245,2.245,0,0,0,1.569.563,2.742,2.742,0,0,0,2.294-1.063l1.248,1.4A3.813,3.813,0,0,1,17.376-.277,5.075,5.075,0,0,1,15.214.176Zm-.29-7.813a1.587,1.587,0,0,0-1.226.512,2.651,2.651,0,0,0-.6,1.466h3.533v-.2a1.891,1.891,0,0,0-.457-1.311A1.638,1.638,0,0,0,14.924-7.638Zm9.6,5.766a1.666,1.666,0,0,0,1.143-.387,1.355,1.355,0,0,0,.457-1.028H28.5a3.258,3.258,0,0,1-.527,1.771A3.48,3.48,0,0,1,26.556-.268a4.442,4.442,0,0,1-1.991.444,4.129,4.129,0,0,1-3.217-1.3A5.13,5.13,0,0,1,20.171-4.7v-.167A5.071,5.071,0,0,1,21.34-8.376a4.08,4.08,0,0,1,3.208-1.31A4,4,0,0,1,27.409-8.67a3.594,3.594,0,0,1,1.094,2.7H26.121a1.745,1.745,0,0,0-.457-1.206,1.524,1.524,0,0,0-1.16-.464,1.53,1.53,0,0,0-1.34.647,3.749,3.749,0,0,0-.453,2.1v.264a3.8,3.8,0,0,0,.448,2.113A1.549,1.549,0,0,0,24.521-1.872Zm7.91-6.6a3.17,3.17,0,0,1,2.54-1.213q3.094,0,3.138,3.595V0h-2.54V-6.021a1.767,1.767,0,0,0-.352-1.208,1.507,1.507,0,0,0-1.169-.391,1.729,1.729,0,0,0-1.617.861V0h-2.54V-13.5h2.54ZM45.536,0a2.821,2.821,0,0,1-.255-.853,3.073,3.073,0,0,1-2.4,1.028,3.376,3.376,0,0,1-2.316-.809,2.6,2.6,0,0,1-.918-2.039,2.687,2.687,0,0,1,1.121-2.32,5.529,5.529,0,0,1,3.239-.817h1.169v-.545a1.567,1.567,0,0,0-.338-1.055,1.331,1.331,0,0,0-1.068-.4,1.513,1.513,0,0,0-1.006.308,1.045,1.045,0,0,0-.365.844h-2.54a2.551,2.551,0,0,1,.51-1.529,3.37,3.37,0,0,1,1.441-1.1,5.253,5.253,0,0,1,2.092-.4,4.15,4.15,0,0,1,2.791.883,3.09,3.09,0,0,1,1.033,2.483V-2.2A4.546,4.546,0,0,0,48.1-.149V0Zm-2.1-1.767a2.188,2.188,0,0,0,1.037-.25,1.645,1.645,0,0,0,.7-.672V-4.324h-.949q-1.907,0-2.03,1.318l-.009.149a1.017,1.017,0,0,0,.334.782A1.3,1.3,0,0,0,43.436-1.767Zm11.391-.861a.818.818,0,0,0-.461-.734,5.241,5.241,0,0,0-1.481-.479q-3.393-.712-3.393-2.883a2.613,2.613,0,0,1,1.05-2.114,4.237,4.237,0,0,1,2.747-.848,4.56,4.56,0,0,1,2.9.853A2.687,2.687,0,0,1,57.27-6.618h-2.54a1.229,1.229,0,0,0-.352-.9,1.488,1.488,0,0,0-1.1-.356,1.52,1.52,0,0,0-.993.29.916.916,0,0,0-.352.738.783.783,0,0,0,.4.681,4.114,4.114,0,0,0,1.349.448,11.019,11.019,0,0,1,1.6.426A2.628,2.628,0,0,1,57.3-2.733a2.481,2.481,0,0,1-1.116,2.1,4.815,4.815,0,0,1-2.883.8A5.029,5.029,0,0,1,51.174-.25,3.561,3.561,0,0,1,49.72-1.419a2.716,2.716,0,0,1-.527-1.6H51.6a1.326,1.326,0,0,0,.5,1.037,1.987,1.987,0,0,0,1.248.36,1.839,1.839,0,0,0,1.1-.277A.861.861,0,0,0,54.826-2.628Z" transform="translate(10254 -5469)" fill="#083142"/>
    <g id="Grupo_159319" data-name="Grupo 159319" transform="translate(10022 -5761)">
      <path id="Trazado_602901-2" data-name="Trazado 602901" d="M33.044,284.515l-14.542,5.3L7.491,296.158H265.18l-11.1-6.4-12.951-5.245Z" transform="translate(-1.677 -63.673)" fill="#083142"/>
      <path id="Trazado_602902-2" data-name="Trazado 602902" d="M180.983,0V23.227L290.71,212.636l7.312,2.961,11.8,6.8Z" transform="translate(-40.504 0)" fill="#ff6148"/>
      <path id="Trazado_602903-2" data-name="Trazado 602903" d="M128.837,0,0,222.4l11.888-6.852,7.017-2.555L128.837,23.227Z" transform="translate(-0.001 0)" fill="#ffb476"/>
    </g>
    <g id="Trazado_603101" data-name="Trazado 603101" transform="translate(10084 -5838)" fill="none" stroke-dasharray="4">
      <path d="M0,0H149V49H0Z" stroke="none"/>
      <path d="M 8 0 L 12 0 L 12 1 L 8 1 L 8 0 Z M 16 0 L 20 0 L 20 1 L 16 1 L 16 0 Z M 24 0 L 28 0 L 28 1 L 24 1 L 24 0 Z M 32 0 L 36 0 L 36 1 L 32 1 L 32 0 Z M 40 0 L 44 0 L 44 1 L 40 1 L 40 0 Z M 48 0 L 52 0 L 52 1 L 48 1 L 48 0 Z M 56 0 L 60 0 L 60 1 L 56 1 L 56 0 Z M 64 0 L 68 0 L 68 1 L 64 1 L 64 0 Z M 72 0 L 76 0 L 76 1 L 72 1 L 72 0 Z M 80 0 L 84 0 L 84 1 L 80 1 L 80 0 Z M 88 0 L 92 0 L 92 1 L 88 1 L 88 0 Z M 96 0 L 100 0 L 100 1 L 96 1 L 96 0 Z M 104 0 L 108 0 L 108 1 L 104 1 L 104 0 Z M 112 0 L 116 0 L 116 1 L 112 1 L 112 0 Z M 120 0 L 124 0 L 124 1 L 120 1 L 120 0 Z M 128 0 L 132 0 L 132 1 L 128 1 L 128 0 Z M 136 0 L 140 0 L 140 1 L 136 1 L 136 0 Z M 144 0 L 148 0 L 148 1 L 144 1 L 144 0 Z M 148 3 L 149 3 C 149 3 149 7 149 7 L 148 7 L 148 3 Z M 148 11 L 149 11 C 149 11 149 15 149 15 L 148 15 L 148 11 Z M 148 19 L 149 19 C 149 19 149 23 149 23 L 148 23 L 148 19 Z M 148 27 L 149 27 C 149 27 149 31 149 31 L 148 31 L 148 27 Z M 148 35 L 149 35 C 149 35 149 39 149 39 L 148 39 L 148 35 Z M 148 43 L 149 43 C 149 43 149 47 149 47 L 148 47 L 148 43 Z M 143 48 L 147 48 L 147 49 C 147 49 143 49 143 49 L 143 48 Z M 135 48 L 139 48 L 139 49 C 139 49 135 49 135 49 L 135 48 Z M 127 48 L 131 48 L 131 49 C 131 49 127 49 127 49 L 127 48 Z M 119 48 L 123 48 L 123 49 C 123 49 119 49 119 49 L 119 48 Z M 111 48 L 115 48 L 115 49 C 115 49 111 49 111 49 L 111 48 Z M 103 48 L 107 48 L 107 49 C 107 49 103 49 103 49 L 103 48 Z M 95 48 L 99 48 L 99 49 C 99 49 95 49 95 49 L 95 48 Z M 87 48 L 91 48 L 91 49 C 91 49 87 49 87 49 L 87 48 Z M 79 48 L 83 48 L 83 49 C 83 49 79 49 79 49 L 79 48 Z M 71 48 L 75 48 L 75 49 C 75 49 71 49 71 49 L 71 48 Z M 63 48 L 67 48 L 67 49 C 67 49 63 49 63 49 L 63 48 Z M 55 48 L 59 48 L 59 49 C 59 49 55 49 55 49 L 55 48 Z M 47 48 L 51 48 L 51 49 C 51 49 47 49 47 49 L 47 48 Z M 39 48 L 43 48 L 43 49 C 43 49 39 49 39 49 L 39 48 Z M 31 48 L 35 48 L 35 49 C 35 49 31 49 31 49 L 31 48 Z M 23 48 L 27 48 L 27 49 C 27 49 23 49 23 49 L 23 48 Z M 15 48 L 19 48 L 19 49 C 19 49 15 49 15 49 L 15 48 Z M 7 48 L 11 48 L 11 49 C 11 49 7 49 7 49 L 7 48 Z M 0 48 L 3 48 L 3 49 C 3 49 0 49 0 49 L 0 48 Z M 0 40 L 1 40 L 1 44 L 0 44 L 0 40 Z M 0 32 L 1 32 L 1 36 L 0 36 L 0 32 Z M 0 24 L 1 24 L 1 28 L 0 28 L 0 24 Z M 0 16 L 1 16 L 1 20 L 0 20 L 0 16 Z M 0 8 L 1 8 L 1 12 L 0 12 L 0 8 Z M 0 0 L 4 0 L 4 1 L 1 1 L 1 4 L 0 4 L 0 0 Z" stroke="none" fill="#083142"/>
    </g>
    <g id="Trazado_603102" data-name="Trazado 603102" transform="translate(10208 -5500)" fill="none" stroke-dasharray="4">
      <path d="M0,0H149V49H0Z" stroke="none"/>
      <path d="M 8 0 L 12 0 L 12 1 L 8 1 L 8 0 Z M 16 0 L 20 0 L 20 1 L 16 1 L 16 0 Z M 24 0 L 28 0 L 28 1 L 24 1 L 24 0 Z M 32 0 L 36 0 L 36 1 L 32 1 L 32 0 Z M 40 0 L 44 0 L 44 1 L 40 1 L 40 0 Z M 48 0 L 52 0 L 52 1 L 48 1 L 48 0 Z M 56 0 L 60 0 L 60 1 L 56 1 L 56 0 Z M 64 0 L 68 0 L 68 1 L 64 1 L 64 0 Z M 72 0 L 76 0 L 76 1 L 72 1 L 72 0 Z M 80 0 L 84 0 L 84 1 L 80 1 L 80 0 Z M 88 0 L 92 0 L 92 1 L 88 1 L 88 0 Z M 96 0 L 100 0 L 100 1 L 96 1 L 96 0 Z M 104 0 L 108 0 L 108 1 L 104 1 L 104 0 Z M 112 0 L 116 0 L 116 1 L 112 1 L 112 0 Z M 120 0 L 124 0 L 124 1 L 120 1 L 120 0 Z M 128 0 L 132 0 L 132 1 L 128 1 L 128 0 Z M 136 0 L 140 0 L 140 1 L 136 1 L 136 0 Z M 144 0 L 148 0 L 148 1 L 144 1 L 144 0 Z M 148 3 L 149 3 C 149 3 149 7 149 7 L 148 7 L 148 3 Z M 148 11 L 149 11 C 149 11 149 15 149 15 L 148 15 L 148 11 Z M 148 19 L 149 19 C 149 19 149 23 149 23 L 148 23 L 148 19 Z M 148 27 L 149 27 C 149 27 149 31 149 31 L 148 31 L 148 27 Z M 148 35 L 149 35 C 149 35 149 39 149 39 L 148 39 L 148 35 Z M 148 43 L 149 43 C 149 43 149 47 149 47 L 148 47 L 148 43 Z M 143 48 L 147 48 L 147 49 C 147 49 143 49 143 49 L 143 48 Z M 135 48 L 139 48 L 139 49 C 139 49 135 49 135 49 L 135 48 Z M 127 48 L 131 48 L 131 49 C 131 49 127 49 127 49 L 127 48 Z M 119 48 L 123 48 L 123 49 C 123 49 119 49 119 49 L 119 48 Z M 111 48 L 115 48 L 115 49 C 115 49 111 49 111 49 L 111 48 Z M 103 48 L 107 48 L 107 49 C 107 49 103 49 103 49 L 103 48 Z M 95 48 L 99 48 L 99 49 C 99 49 95 49 95 49 L 95 48 Z M 87 48 L 91 48 L 91 49 C 91 49 87 49 87 49 L 87 48 Z M 79 48 L 83 48 L 83 49 C 83 49 79 49 79 49 L 79 48 Z M 71 48 L 75 48 L 75 49 C 75 49 71 49 71 49 L 71 48 Z M 63 48 L 67 48 L 67 49 C 67 49 63 49 63 49 L 63 48 Z M 55 48 L 59 48 L 59 49 C 59 49 55 49 55 49 L 55 48 Z M 47 48 L 51 48 L 51 49 C 51 49 47 49 47 49 L 47 48 Z M 39 48 L 43 48 L 43 49 C 43 49 39 49 39 49 L 39 48 Z M 31 48 L 35 48 L 35 49 C 35 49 31 49 31 49 L 31 48 Z M 23 48 L 27 48 L 27 49 C 27 49 23 49 23 49 L 23 48 Z M 15 48 L 19 48 L 19 49 C 19 49 15 49 15 49 L 15 48 Z M 7 48 L 11 48 L 11 49 C 11 49 7 49 7 49 L 7 48 Z M 0 48 L 3 48 L 3 49 C 3 49 0 49 0 49 L 0 48 Z M 0 40 L 1 40 L 1 44 L 0 44 L 0 40 Z M 0 32 L 1 32 L 1 36 L 0 36 L 0 32 Z M 0 24 L 1 24 L 1 28 L 0 28 L 0 24 Z M 0 16 L 1 16 L 1 20 L 0 20 L 0 16 Z M 0 8 L 1 8 L 1 12 L 0 12 L 0 8 Z M 0 0 L 4 0 L 4 1 L 1 1 L 1 4 L 0 4 L 0 0 Z" stroke="none" fill="#083142"/>
    </g>
    <g id="Trazado_603103" data-name="Trazado 603103" transform="translate(9957 -5500)" fill="none" stroke-dasharray="4">
      <path d="M0,0H149V49H0Z" stroke="none"/>
      <path d="M 8 0 L 12 0 L 12 1 L 8 1 L 8 0 Z M 16 0 L 20 0 L 20 1 L 16 1 L 16 0 Z M 24 0 L 28 0 L 28 1 L 24 1 L 24 0 Z M 32 0 L 36 0 L 36 1 L 32 1 L 32 0 Z M 40 0 L 44 0 L 44 1 L 40 1 L 40 0 Z M 48 0 L 52 0 L 52 1 L 48 1 L 48 0 Z M 56 0 L 60 0 L 60 1 L 56 1 L 56 0 Z M 64 0 L 68 0 L 68 1 L 64 1 L 64 0 Z M 72 0 L 76 0 L 76 1 L 72 1 L 72 0 Z M 80 0 L 84 0 L 84 1 L 80 1 L 80 0 Z M 88 0 L 92 0 L 92 1 L 88 1 L 88 0 Z M 96 0 L 100 0 L 100 1 L 96 1 L 96 0 Z M 104 0 L 108 0 L 108 1 L 104 1 L 104 0 Z M 112 0 L 116 0 L 116 1 L 112 1 L 112 0 Z M 120 0 L 124 0 L 124 1 L 120 1 L 120 0 Z M 128 0 L 132 0 L 132 1 L 128 1 L 128 0 Z M 136 0 L 140 0 L 140 1 L 136 1 L 136 0 Z M 144 0 L 148 0 L 148 1 L 144 1 L 144 0 Z M 148 3 L 149 3 C 149 3 149 7 149 7 L 148 7 L 148 3 Z M 148 11 L 149 11 C 149 11 149 15 149 15 L 148 15 L 148 11 Z M 148 19 L 149 19 C 149 19 149 23 149 23 L 148 23 L 148 19 Z M 148 27 L 149 27 C 149 27 149 31 149 31 L 148 31 L 148 27 Z M 148 35 L 149 35 C 149 35 149 39 149 39 L 148 39 L 148 35 Z M 148 43 L 149 43 C 149 43 149 47 149 47 L 148 47 L 148 43 Z M 143 48 L 147 48 L 147 49 C 147 49 143 49 143 49 L 143 48 Z M 135 48 L 139 48 L 139 49 C 139 49 135 49 135 49 L 135 48 Z M 127 48 L 131 48 L 131 49 C 131 49 127 49 127 49 L 127 48 Z M 119 48 L 123 48 L 123 49 C 123 49 119 49 119 49 L 119 48 Z M 111 48 L 115 48 L 115 49 C 115 49 111 49 111 49 L 111 48 Z M 103 48 L 107 48 L 107 49 C 107 49 103 49 103 49 L 103 48 Z M 95 48 L 99 48 L 99 49 C 99 49 95 49 95 49 L 95 48 Z M 87 48 L 91 48 L 91 49 C 91 49 87 49 87 49 L 87 48 Z M 79 48 L 83 48 L 83 49 C 83 49 79 49 79 49 L 79 48 Z M 71 48 L 75 48 L 75 49 C 75 49 71 49 71 49 L 71 48 Z M 63 48 L 67 48 L 67 49 C 67 49 63 49 63 49 L 63 48 Z M 55 48 L 59 48 L 59 49 C 59 49 55 49 55 49 L 55 48 Z M 47 48 L 51 48 L 51 49 C 51 49 47 49 47 49 L 47 48 Z M 39 48 L 43 48 L 43 49 C 43 49 39 49 39 49 L 39 48 Z M 31 48 L 35 48 L 35 49 C 35 49 31 49 31 49 L 31 48 Z M 23 48 L 27 48 L 27 49 C 27 49 23 49 23 49 L 23 48 Z M 15 48 L 19 48 L 19 49 C 19 49 15 49 15 49 L 15 48 Z M 7 48 L 11 48 L 11 49 C 11 49 7 49 7 49 L 7 48 Z M 0 48 L 3 48 L 3 49 C 3 49 0 49 0 49 L 0 48 Z M 0 40 L 1 40 L 1 44 L 0 44 L 0 40 Z M 0 32 L 1 32 L 1 36 L 0 36 L 0 32 Z M 0 24 L 1 24 L 1 28 L 0 28 L 0 24 Z M 0 16 L 1 16 L 1 20 L 0 20 L 0 16 Z M 0 8 L 1 8 L 1 12 L 0 12 L 0 8 Z M 0 0 L 4 0 L 4 1 L 1 1 L 1 4 L 0 4 L 0 0 Z" stroke="none" fill="#083142"/>
    </g>
    <path id="Trazado_603104" data-name="Trazado 603104" d="M94,0l94,162H0Z" transform="translate(10064 -5716)" fill="#ffe7e3"/>
    <path id="Trazado_603105" data-name="Trazado 603105" d="M12.236-11.572H7.969V0H4.541V-11.572H.352v-2.646H12.236Zm7.051,3.984L18.2-7.666a1.947,1.947,0,0,0-1.992.977V0H12.92V-10.566h3.086l.107,1.357a2.548,2.548,0,0,1,2.314-1.553,3.209,3.209,0,0,1,.918.117ZM26.133,0a3.716,3.716,0,0,1-.312-.947A3.06,3.06,0,0,1,23.281.2a3.749,3.749,0,0,1-2.539-.9A2.875,2.875,0,0,1,19.7-2.979a2.955,2.955,0,0,1,1.27-2.6,6.468,6.468,0,0,1,3.691-.879h1.016v-.559q0-1.462-1.26-1.462a1.03,1.03,0,0,0-1.172,1.158H19.951a2.95,2.95,0,0,1,1.3-2.487,5.479,5.479,0,0,1,3.325-.956,4.8,4.8,0,0,1,3.193.986,3.429,3.429,0,0,1,1.2,2.705v4.678a4.79,4.79,0,0,0,.449,2.227V0ZM24.072-2.148a1.836,1.836,0,0,0,1.021-.264,1.653,1.653,0,0,0,.581-.6V-4.7h-.957Q23-4.7,23-3.154a.942.942,0,0,0,.3.728A1.1,1.1,0,0,0,24.072-2.148Zm6.309-3.213a6.455,6.455,0,0,1,1.084-3.955,3.568,3.568,0,0,1,3.027-1.445,3.035,3.035,0,0,1,2.383,1.113V-15h3.3V0H37.217l-.166-1.133A3.116,3.116,0,0,1,34.473.2,3.562,3.562,0,0,1,31.484-1.25,6.659,6.659,0,0,1,30.381-5.361Zm3.291.205q0,2.813,1.641,2.813a1.62,1.62,0,0,0,1.563-.918V-7.285a1.576,1.576,0,0,0-1.543-.937q-1.523,0-1.65,2.461ZM45.518,0h-3.3V-10.566h3.3Zm-3.5-13.291a1.469,1.469,0,0,1,.508-1.152,1.916,1.916,0,0,1,1.318-.449,1.916,1.916,0,0,1,1.318.449,1.469,1.469,0,0,1,.508,1.152,1.469,1.469,0,0,1-.508,1.152,1.916,1.916,0,0,1-1.318.449,1.916,1.916,0,0,1-1.318-.449A1.469,1.469,0,0,1,42.021-13.291Zm9.99,10.947a1.464,1.464,0,0,0,1.074-.376,1.379,1.379,0,0,0,.371-1.05h3.086A3.653,3.653,0,0,1,55.3-.918,4.631,4.631,0,0,1,52.09.2,4.689,4.689,0,0,1,48.457-1.25a5.7,5.7,0,0,1-1.328-4v-.137a6.436,6.436,0,0,1,.591-2.827,4.3,4.3,0,0,1,1.7-1.885,5.081,5.081,0,0,1,2.637-.659,4.573,4.573,0,0,1,3.271,1.143,4.053,4.053,0,0,1,1.211,3.1H53.457a1.807,1.807,0,0,0-.4-1.26,1.382,1.382,0,0,0-1.074-.439q-1.279,0-1.494,1.631a11.507,11.507,0,0,0-.068,1.426A4.52,4.52,0,0,0,50.8-2.959,1.319,1.319,0,0,0,52.012-2.344ZM61.406,0h-3.3V-10.566h3.3Zm-3.5-13.291a1.469,1.469,0,0,1,.508-1.152,1.916,1.916,0,0,1,1.318-.449,1.916,1.916,0,0,1,1.318.449,1.469,1.469,0,0,1,.508,1.152,1.469,1.469,0,0,1-.508,1.152,1.916,1.916,0,0,1-1.318.449,1.916,1.916,0,0,1-1.318-.449A1.469,1.469,0,0,1,57.91-13.291Zm5.107,7.91A6.236,6.236,0,0,1,63.633-8.2,4.4,4.4,0,0,1,65.4-10.1a5.323,5.323,0,0,1,2.705-.664,4.858,4.858,0,0,1,3.74,1.47,5.64,5.64,0,0,1,1.367,4v.117a5.472,5.472,0,0,1-1.372,3.921A4.871,4.871,0,0,1,68.125.2,4.927,4.927,0,0,1,64.5-1.157a5.29,5.29,0,0,1-1.475-3.667Zm3.291.205a3.932,3.932,0,0,0,.459,2.148,1.529,1.529,0,0,0,1.357.684q1.758,0,1.8-2.705v-.332q0-2.842-1.816-2.842-1.65,0-1.787,2.451Zm11.377-5.391.107,1.24a3.583,3.583,0,0,1,3.018-1.436,3.015,3.015,0,0,1,2.466.986,4.7,4.7,0,0,1,.845,2.969V0h-3.3V-6.67A1.783,1.783,0,0,0,80.5-7.847a1.491,1.491,0,0,0-1.172-.376,1.569,1.569,0,0,0-1.436.762V0H74.6V-10.566ZM91.895,0a3.716,3.716,0,0,1-.312-.947A3.06,3.06,0,0,1,89.043.2a3.749,3.749,0,0,1-2.539-.9,2.875,2.875,0,0,1-1.045-2.271,2.955,2.955,0,0,1,1.27-2.6,6.468,6.468,0,0,1,3.691-.879h1.016v-.559q0-1.462-1.26-1.462A1.03,1.03,0,0,0,89-7.319H85.713a2.95,2.95,0,0,1,1.3-2.487,5.479,5.479,0,0,1,3.325-.956,4.8,4.8,0,0,1,3.193.986,3.429,3.429,0,0,1,1.2,2.705v4.678a4.79,4.79,0,0,0,.449,2.227V0ZM89.834-2.148a1.836,1.836,0,0,0,1.021-.264,1.653,1.653,0,0,0,.581-.6V-4.7h-.957q-1.719,0-1.719,1.543a.942.942,0,0,0,.3.728A1.1,1.1,0,0,0,89.834-2.148ZM100.029,0h-3.3V-15h3.3Z" transform="translate(10106 -5583)" fill="#ff6148"/>
  </g>
</svg>
