<svg xmlns="http://www.w3.org/2000/svg" xmlns:xlink="http://www.w3.org/1999/xlink" width="93" height="93" viewBox="0 0 93 93">
  <defs>
    <clipPath id="clip-path">
      <rect id="Rectángulo_45270" data-name="Rectángulo 45270" width="63.054" height="63.054" transform="translate(0 0)" fill="#fff"/>
    </clipPath>
  </defs>
  <g id="Grupo_157524" data-name="Grupo 157524" transform="translate(-281 -7508)">
    <circle id="Elipse_5068" data-name="Elipse 5068" cx="46.5" cy="46.5" r="46.5" transform="translate(281 7508)" fill="#083142"/>
    <g id="Grupo_157523" data-name="Grupo 157523" transform="translate(295.973 7526.945)">
      <g id="Grupo_157522" data-name="Grupo 157522" transform="translate(0 0.001)" clip-path="url(#clip-path)">
        <path id="Trazado_600541" data-name="Trazado 600541" d="M21.741,25.25H3.505A3.509,3.509,0,0,1,0,21.745V3.509A3.509,3.509,0,0,1,3.505,0H21.741a3.509,3.509,0,0,1,3.505,3.505V21.745a3.509,3.509,0,0,1-3.505,3.505M3.695,21.556H21.552V3.7H3.695ZM21.741,3.7h0Z" transform="translate(0 -0.004)" fill="#fff"/>
        <path id="Trazado_600542" data-name="Trazado 600542" d="M171.623,277.259H155.687a5.444,5.444,0,0,1-3.835-1.542l-13.284-12.736a1.847,1.847,0,0,1,.132-2.782l1.32-1.046a10.31,10.31,0,0,1,11.177-1.16V241.546a5.542,5.542,0,0,1,11.084,0v9.591l11.417,4.61a5.449,5.449,0,0,1,3.467,5.139v10.831a5.549,5.549,0,0,1-5.542,5.542m-28.958-15.47,11.745,11.261a1.724,1.724,0,0,0,1.279.514h15.935a1.855,1.855,0,0,0,1.848-1.847V260.886a1.794,1.794,0,0,0-1.156-1.713L159.742,254.1a1.847,1.847,0,0,1-1.155-1.713V241.546a1.847,1.847,0,0,0-3.695,0v19.633a1.847,1.847,0,0,1-2.774,1.6l-2.2-1.276a6.639,6.639,0,0,0-7.254.289" transform="translate(-125.253 -214.206)" fill="#fff"/>
        <path id="Trazado_600543" data-name="Trazado 600543" d="M421.956,25.25a12.623,12.623,0,1,1,12.623-12.623A12.637,12.637,0,0,1,421.956,25.25m0-21.552a8.928,8.928,0,1,0,8.929,8.929A8.939,8.939,0,0,0,421.956,3.7" transform="translate(-371.525 -0.004)" fill="#fff"/>
      </g>
    </g>
    <path id="Trazado_600544" data-name="Trazado 600544" d="M8417.948-4170.108l19.927,19.773v-19.773l-19.927,19.773" transform="translate(-8119 11700)" fill="none" stroke="#fff" stroke-linecap="round" stroke-linejoin="round" stroke-width="4"/>
  </g>
</svg>
