<svg id="Grupo_155567" data-name="Grupo 155567" xmlns="http://www.w3.org/2000/svg" width="48.285" height="48.308" viewBox="0 0 48.285 48.308">
  <path id="Trazado_197627" data-name="Trazado 197627" d="M-1603.63-4927.735a1.351,1.351,0,0,1,1.3-.651c2.641.02,5.281,0,7.922.015a.769.769,0,0,0,.7-.337,7.254,7.254,0,0,1,4.634-3.072,7.367,7.367,0,0,1,6.751,2.315,1.922,1.922,0,0,0,.719.479c2.072.719,4.148,1.43,6.233,2.11a4.709,4.709,0,0,1,3.235,2.823c1.432-.4,2.845-.8,4.264-1.174,1.225-.326,2.444-.7,3.689-.922a3.529,3.529,0,0,1,3.766,1.924,3.579,3.579,0,0,1-.507,4.2,5.146,5.146,0,0,1-2.161,1.458c-4.665,1.66-9.323,3.34-13.989,5-.793.282-1.611.494-2.417.738h-1.886a17.292,17.292,0,0,1-4.86-1.913c-1.254-.643-2.476-1.348-3.71-2.03a5.47,5.47,0,0,0-2.568-.741c-.184,1.013-.4,1.187-1.415,1.188h-2.164c-.011.162-.024.27-.026.377-.021,1.11-.3,1.39-1.4,1.391-1.585,0-3.17-.014-4.755.008a1.407,1.407,0,0,1-1.356-.637Zm11.074,8.294a9.205,9.205,0,0,1,4.151,1.327c1.757.968,3.547,1.878,5.342,2.773a5.4,5.4,0,0,0,3.475.532,13.261,13.261,0,0,0,1.93-.569q7-2.49,13.985-5a2.883,2.883,0,0,0,1.513-1.143,1.775,1.775,0,0,0-1.38-2.743,3.554,3.554,0,0,0-1.115.119c-2.328.631-4.648,1.292-6.976,1.924a.674.674,0,0,0-.524.506,3.7,3.7,0,0,1-4.421,2.438c-.561-.139-1.1-.351-1.658-.524q-3.362-1.06-6.724-2.117c-.09-.028-.18-.056-.267-.092a.951.951,0,0,1-.569-1.23.932.932,0,0,1,1.19-.557c1.78.553,3.555,1.121,5.334,1.679,1.09.342,2.169.739,3.28.994a1.766,1.766,0,0,0,2.074-2.165,2.427,2.427,0,0,0-1.843-1.7c-2.314-.786-4.632-1.56-6.94-2.366a2.008,2.008,0,0,1-.818-.573,5.45,5.45,0,0,0-5.206-1.976,5.416,5.416,0,0,0-3.541,2.457,1.569,1.569,0,0,0-.28.857c-.023,2.215-.013,4.431-.013,6.646Zm-5.528,2.929v-9.921h-3.624v9.921Zm2-9.916v8.172h1.585v-8.172Z" transform="translate(1603.63 4961.142)" fill="#12263f"/>
  <path id="Trazado_197628" data-name="Trazado 197628" d="M-1539.829-5235.375c.261-1.046.418-1.167,1.517-1.167h2.1c0-.243-.007-.455,0-.666a.971.971,0,0,1,1.088-1.071q2.687-.01,5.375,0a.926.926,0,0,1,1.045,1.044q0,5.846,0,11.692a.936.936,0,0,1-1.057,1.036c-2.7,0-5.406.007-8.109-.006a.85.85,0,0,0-.776.376,7.573,7.573,0,0,1-4.593,3.063,5.153,5.153,0,0,1-1.31.089.954.954,0,0,0-.824.312q-4.454,4.48-8.928,8.941c-.77.77-1.21.77-1.977,0l-17.337-17.333c-.785-.784-.788-1.156-.016-1.928l9.969-9.967c.728-.728,1.125-.724,1.862.013.878.878,1.764,1.748,2.627,2.64a.554.554,0,0,0,.692.158c1.544-.564,3.081-1.16,4.654-1.634a7.017,7.017,0,0,1,5.142.44c2.093,1,4.133,2.108,6.185,3.192A5.221,5.221,0,0,0-1539.829-5235.375Zm-17.564-1.16c1.2,1.2,2.316,2.319,3.444,3.432a1.044,1.044,0,0,0,.412.207c1.119.358,2.24.707,3.36,1.061,1,.316,2,.626,3,.957a.926.926,0,0,1,.671,1.133.924.924,0,0,1-1.106.708,3.148,3.148,0,0,1-.452-.125q-4.01-1.267-8.02-2.533a1.732,1.732,0,0,0-1.861.454,1.7,1.7,0,0,0-.445,1.78,2.462,2.462,0,0,0,1.754,1.564c2.314.784,4.631,1.558,6.936,2.369a2.352,2.352,0,0,1,.93.65,5.412,5.412,0,0,0,5.416,1.868,5.627,5.627,0,0,0,3.492-2.689.769.769,0,0,0,.088-.4c.005-2.309,0-4.619.009-6.928,0-.3-.095-.418-.4-.436a7.692,7.692,0,0,1-3.165-.967c-2.007-1.064-4.015-2.13-6.049-3.143a5.221,5.221,0,0,0-3.761-.406C-1554.553-5237.591-1555.923-5237.043-1557.393-5236.535Zm-1.372,19.553a6.039,6.039,0,0,1,6.922-.02l2.143-2.15a6.039,6.039,0,0,1-.989-4.435.384.384,0,0,0-.154-.328c-.969-.345-1.946-.667-2.94-1-.063.161-.111.274-.152.389a5.35,5.35,0,0,1-5.922,3.519,5.355,5.355,0,0,1-4.484-4.575,5.331,5.331,0,0,1,3.533-5.785,2.311,2.311,0,0,0,1.241-.869,4.662,4.662,0,0,1,1.25-1.039,5.226,5.226,0,0,1,1-.407l-1.951-1.943a6.067,6.067,0,0,1-6.923.014l-2.131,2.127a6.139,6.139,0,0,1-.006,6.938Zm28.151-9.42v-9.957h-3.636v9.957Zm-29.752-3.093a3.472,3.472,0,0,0-2.086,3.748,3.492,3.492,0,0,0,3.192,2.909,3.529,3.529,0,0,0,3.5-2.2c.151-.378.1-.577-.317-.667-.259-.056-.5-.168-.76-.244A4.494,4.494,0,0,1-1560.367-5229.5Zm22.542-5.1v8.178h1.585v-8.178Zm-31.924,2.494-2.062,2.054,2.069,2.074A3.868,3.868,0,0,0-1569.749-5232.1Zm16.528,16.535a3.833,3.833,0,0,0-4.048-.048l2.049,2.048Zm-7.49-21.461-2.041-2.045-2.014,2.024A3.817,3.817,0,0,0-1560.711-5237.023Zm12.339,16.552,1.044-1.033-1.62-.874Z" transform="translate(1576.984 5241.499)" fill="#12263f"/>
  <path id="Trazado_197629" data-name="Trazado 197629" d="M-1450.158-4858.081a.943.943,0,0,1,.957.942.977.977,0,0,1-.97.942.937.937,0,0,1-.917-.932A.91.91,0,0,1-1450.158-4858.081Z" transform="translate(1465.503 4894.311)" fill="#12263f"/>
  <path id="Trazado_197630" data-name="Trazado 197630" d="M-1263.268-5117.181a.951.951,0,0,1-.94.962.983.983,0,0,1-.949-.967.982.982,0,0,1,.931-.937A.95.95,0,0,1-1263.268-5117.181Z" transform="translate(1297.141 5129.781)" fill="#12263f"/>
</svg>
