<svg xmlns="http://www.w3.org/2000/svg" width="93" height="93" viewBox="0 0 93 93">
  <g id="Grupo_157525" data-name="Grupo 157525" transform="translate(-596 -7508)">
    <circle id="Elipse_5069" data-name="Elipse 5069" cx="46.5" cy="46.5" r="46.5" transform="translate(596 7508)" fill="#083142"/>
    <g id="ajustes" transform="translate(609 7521.001)">
      <path id="Trazado_600539" data-name="Trazado 600539" d="M23.034,10.5A12.534,12.534,0,1,0,35.569,23.034,12.534,12.534,0,0,0,23.034,10.5Zm0,20.511a7.976,7.976,0,1,1,7.976-7.976A7.976,7.976,0,0,1,23.034,31.011Z" transform="translate(10.872 10.873)" fill="#fff"/>
      <path id="Trazado_600540" data-name="Trazado 600540" d="M64.262,27.185l-7-2.279c-.137-.365-.273-.706-.433-1.071L60.115,17.2a2.279,2.279,0,0,0-.433-2.644L53.255,8.132A2.279,2.279,0,0,0,50.611,7.7l-6.586,3.282-1-.433-2.279-7A2.279,2.279,0,0,0,38.464,2H29.348a2.279,2.279,0,0,0-2.165,1.55l-2.393,7-1.071.433L17.2,7.7a2.279,2.279,0,0,0-2.644.433L8.131,14.559A2.279,2.279,0,0,0,7.7,17.2l3.282,6.586c-.137.365-.3.706-.433,1.071l-7,2.279A2.279,2.279,0,0,0,2,29.35v9.116a2.279,2.279,0,0,0,1.55,2.165l7,2.279c.137.365.3.706.433,1.071L7.7,50.613a2.279,2.279,0,0,0,.433,2.644l6.427,6.427a2.279,2.279,0,0,0,2.644.433l6.586-3.282,1.071.433,2.279,7a2.279,2.279,0,0,0,2.211,1.55h9.116a2.279,2.279,0,0,0,2.165-1.55l2.279-7,1.071-.433,6.586,3.282a2.279,2.279,0,0,0,2.644-.433l6.427-6.427a2.279,2.279,0,0,0,.433-2.644l-3.282-6.586c.16-.365.3-.706.433-1.071l7-2.279a2.279,2.279,0,0,0,1.6-2.211V29.35a2.279,2.279,0,0,0-1.55-2.165Zm-3.008,9.64L54.782,38.99a2.279,2.279,0,0,0-1.436,1.436,21.331,21.331,0,0,1-1.094,2.6,2.279,2.279,0,0,0,0,2.028l3.054,6.108-4.125,4.125-6.108-3.031a2.279,2.279,0,0,0-2.028,0,21.332,21.332,0,0,1-2.621,1.094,2.279,2.279,0,0,0-1.436,1.436l-2.165,6.472H30.989L28.71,54.783a2.279,2.279,0,0,0-1.436-1.436,21.332,21.332,0,0,1-2.484-1.094,2.279,2.279,0,0,0-2.028,0l-6.131,3.054-4.125-4.125,3.168-6.108a2.279,2.279,0,0,0,0-2.051A21.332,21.332,0,0,1,14.58,40.4a2.279,2.279,0,0,0-1.436-1.436L6.558,36.825V30.991l6.472-2.279a2.279,2.279,0,0,0,1.436-1.436,22.9,22.9,0,0,1,1.208-2.484,2.279,2.279,0,0,0,0-2.028l-3.168-6.13,4.125-4.125,6.108,3.168a2.279,2.279,0,0,0,2.051,0,22.9,22.9,0,0,1,2.621-1.094,2.279,2.279,0,0,0,1.436-1.436l2.279-6.472H36.96l2.165,6.472a2.279,2.279,0,0,0,1.436,1.436,21.331,21.331,0,0,1,2.461,1.094,2.279,2.279,0,0,0,2.028,0l6.108-3.054,4.125,4.125-3.031,5.994a2.279,2.279,0,0,0,0,2.028,22.9,22.9,0,0,1,1.094,2.621,2.279,2.279,0,0,0,1.436,1.436L61.254,31.1Z" transform="translate(0 0)" fill="#fff"/>
    </g>
  </g>
</svg>
