<svg xmlns="http://www.w3.org/2000/svg" width="73.925" height="100.806" viewBox="0 0 73.925 100.806">
  <g id="layer1" transform="translate(-2.646 -280.595)">
    <path id="path7763" d="M10.583,286.279a3.643,3.643,0,0,1,6.72,1.68,6.568,6.568,0,0,1-6.72,6.72Z" transform="translate(42.466 21.2)" fill="#fdce97"/>
    <path id="path8631" d="M12.012,286.279a3.643,3.643,0,0,0-6.72,1.68,6.568,6.568,0,0,0,6.72,6.72Z" transform="translate(14.155 21.2)" fill="#fdce97"/>
    <path id="path7673" d="M2.91,322.929V309.489a20.117,20.117,0,0,1,20.161-20.161H53.314a20.117,20.117,0,0,1,20.161,20.161v13.441Z" transform="translate(1.416 46.715)" fill="#893fd4"/>
    <path id="path7761" d="M7.144,297.556V287.475h16.8v10.081l-8.4,6.72Z" transform="translate(24.064 36.808)" fill="#fdce97"/>
    <path id="path7767" d="M33.232,284.3v11.761a13.441,13.441,0,0,1-26.882,0V284.3Z" transform="translate(19.817 19.819)" fill="#fdd5a6"/>
    <path id="path7771" d="M8.123,291.973H48.445a3.353,3.353,0,0,1,3.36,3.36v23.522H4.763V295.333a3.353,3.353,0,0,1,3.36-3.36Z" transform="translate(11.324 60.87)" fill="#e6b57c"/>
    <g id="Grupo_1069214" data-name="Grupo 1069214" transform="translate(22.807 300.759)">
      <path id="path7795" d="M6.35,292.158l5.04,10.081,8.4-5.04L9.71,288.8Z" transform="translate(-2.99 -256.876)" fill="#893fd4"/>
      <path id="path7797" d="M21.907,292.158l-5.04,10.081-8.4-5.04,10.081-8.4Z" transform="translate(8.334 -256.876)" fill="#893fd4"/>
      <path id="path8070" d="M39.423,287.131s-1.68,5.04-5.04,5.04H10.861c-3.36,0-5.04-5.04-5.04-5.04a40.769,40.769,0,0,1,16.8-3.36,40.769,40.769,0,0,1,16.8,3.36Z" transform="translate(-5.821 -283.771)" fill="#893fd4"/>
    </g>
    <path id="path8072" d="M22.622,299.342a40.769,40.769,0,0,0-16.8,3.36v-8.4a13.411,13.411,0,0,1,13.441-13.441h6.72A13.411,13.411,0,0,1,39.423,294.3v8.4a40.769,40.769,0,0,0-16.8-3.36Z" transform="translate(16.986 1.418)" fill="#893fd4"/>
    <path id="rect8627" d="M2.91,294.619H14.671V304.7H2.91Z" transform="translate(1.416 75.026)" fill="#fdd5a6"/>
    <path id="rect8629" d="M12.171,294.619H23.932V304.7H12.171Z" transform="translate(50.959 75.026)" fill="#fdd5a6"/>
    <path id="path13911-8" d="M28.336,331.494l-3.363,3.364a1.68,1.68,0,0,0-.308,1.933L29.7,346.874a1.68,1.68,0,0,0,2.369.682l7.541-4.518,7.541,4.518a1.681,1.681,0,0,0,2.356-.682l5.05-10.084a1.68,1.68,0,0,0-.325-1.933l-3.347-3.364a1.681,1.681,0,0,0-1.191-.5v-3.875a15.069,15.069,0,0,0,4.958-9.713,8.18,8.18,0,0,0,6.8-8.281,5.156,5.156,0,0,0-3.36-4.658v-8.758A15.119,15.119,0,0,0,42.972,280.6H36.248A15.119,15.119,0,0,0,21.13,295.713v1.69a1.68,1.68,0,1,0,3.36,0v-1.69a11.69,11.69,0,0,1,11.757-11.754h6.724a11.687,11.687,0,0,1,11.754,11.754v5.913a45.3,45.3,0,0,0-15.118-2.55,42.778,42.778,0,0,0-17.549,3.534,1.666,1.666,0,0,0-.87,1.857,5.124,5.124,0,0,0-3.423,4.634c0,.019,0,.038,0,.057a8.171,8.171,0,0,0,6.8,8.253,15.068,15.068,0,0,0,4.955,9.71L29.519,331a1.683,1.683,0,0,0-1.183.5Zm11.272-29.057a42.6,42.6,0,0,1,14.566,2.543c-.7,1.363-1.792,2.52-2.809,2.491H27.851c-1.283.013-2.279-1.582-2.829-2.471a41.754,41.754,0,0,1,14.586-2.563Zm-15.118,7.157v4.322a4.785,4.785,0,0,1-3.357-4.715,1.843,1.843,0,0,1,1.491-1.688A9.16,9.16,0,0,0,24.491,309.594Zm33.592-.394a4.785,4.785,0,0,1-3.357,4.715V309.6a8.945,8.945,0,0,0,1.846-2.059A1.765,1.765,0,0,1,58.083,309.2Zm-30.232,1.634H51.366v5.047a11.757,11.757,0,0,1-23.515,0Zm5.037,18.573a14.991,14.991,0,0,0,13.444,0v3.879l-6.724,5.608-6.72-5.6Zm-3.262,5.549,7.094,5.9-4.827,2.891-3.682-7.38Zm19.955,0,1.427,1.414-3.685,7.38L42.5,340.859Zm9.828,3.354A18.419,18.419,0,0,1,73.21,356.2v11.757h-8.4V356.2a5.056,5.056,0,0,0-5.034-5.034H19.444a5.058,5.058,0,0,0-5.037,5.034v11.757h-8.4V356.2A18.417,18.417,0,0,1,19.818,338.31a1.681,1.681,0,0,0-.84-3.255A21.817,21.817,0,0,0,2.646,356.2v23.521a1.68,1.68,0,0,0,1.68,1.68H74.89a1.68,1.68,0,0,0,1.68-1.68V356.2a21.814,21.814,0,0,0-16.319-21.143,1.68,1.68,0,0,0-.843,3.252Zm-39.965,16.2H59.776A1.641,1.641,0,0,1,61.45,356.2v21.841H17.77V356.2a1.641,1.641,0,0,1,1.674-1.687Zm-13.438,16.8h8.4v6.724h-8.4Zm58.8,0h8.4v6.724h-8.4Z" transform="translate(0 0)"/>
    <path id="icloud" d="M22.8,87.316a6.584,6.584,0,0,0,.064-.915,6.4,6.4,0,0,0-11.893-3.278,4.521,4.521,0,0,0-1.825-.38,4.579,4.579,0,0,0-4.573,4.573c0,.093,0,.185.009.274A6.4,6.4,0,0,0,6.4,100.12H22.863a6.4,6.4,0,1,0-.064-12.8Z" transform="translate(26.167 276.033)" fill="#fff"/>
  </g>
</svg>
