<svg xmlns="http://www.w3.org/2000/svg" width="92" height="92" viewBox="0 0 92 92">
  <g id="Grupo_1069954" data-name="Grupo 1069954" transform="translate(-2211 10828)">
    <circle id="Elipse_9031" data-name="Elipse 9031" cx="46" cy="46" r="46" transform="translate(2211 -10828)" fill="#f77e6b"/>
    <g id="tecnologia" transform="translate(2228 -10811.433)">
      <g id="Grupo_1067774" data-name="Grupo 1067774" transform="translate(1.917 1.917)">
        <g id="Grupo_1067758" data-name="Grupo 1067758" transform="translate(40.356 49.527)">
          <path id="Trazado_813500" data-name="Trazado 813500" d="M60.675,57.834v1.834A1.84,1.84,0,0,1,58.84,61.5H47.834A1.84,1.84,0,0,1,46,59.669V57.834A1.84,1.84,0,0,1,47.834,56H58.84A1.84,1.84,0,0,1,60.675,57.834Z" transform="translate(-46 -56)" fill="#fcd770"/>
        </g>
        <g id="Grupo_1067759" data-name="Grupo 1067759" transform="translate(40.356 44.024)">
          <path id="Trazado_813501" data-name="Trazado 813501" d="M60.675,51.834v1.834A1.84,1.84,0,0,1,58.84,55.5H47.834A1.84,1.84,0,0,1,46,53.669V51.834A1.84,1.84,0,0,1,47.834,50H58.84A1.84,1.84,0,0,1,60.675,51.834Z" transform="translate(-46 -50)" fill="#fcd770"/>
        </g>
        <g id="Grupo_1067760" data-name="Grupo 1067760" transform="translate(40.356 38.521)">
          <path id="Trazado_813502" data-name="Trazado 813502" d="M60.675,45.834v1.834A1.84,1.84,0,0,1,58.84,49.5H47.834A1.84,1.84,0,0,1,46,47.669V45.834A1.84,1.84,0,0,1,47.834,44H58.84A1.84,1.84,0,0,1,60.675,45.834Z" transform="translate(-46 -44)" fill="#fcd770"/>
        </g>
        <g id="Grupo_1067761" data-name="Grupo 1067761" transform="translate(44.024 12.84)">
          <path id="Trazado_813503" data-name="Trazado 813503" d="M50,16h5.5v3.669H50Z" transform="translate(-50 -16)" fill="#aab2bd"/>
        </g>
        <g id="Grupo_1067762" data-name="Grupo 1067762" transform="translate(38.521 9.172)">
          <path id="Trazado_813504" data-name="Trazado 813504" d="M60.509,12v1.834a1.84,1.84,0,0,1-1.834,1.834H45.834A1.84,1.84,0,0,1,44,13.834V12Z" transform="translate(-44 -12)" fill="#ccd1d9"/>
        </g>
        <g id="Grupo_1067763" data-name="Grupo 1067763" transform="translate(1.834 38.521)">
          <path id="Trazado_813505" data-name="Trazado 813505" d="M20.509,45.834V56.84H4V45.834A1.84,1.84,0,0,1,5.834,44h12.84A1.84,1.84,0,0,1,20.509,45.834Z" transform="translate(-4 -44)" fill="#ccd1d9"/>
        </g>
        <g id="Grupo_1067764" data-name="Grupo 1067764" transform="translate(0 51.362)">
          <path id="Trazado_813506" data-name="Trazado 813506" d="M22.178,58.917a2.756,2.756,0,0,1-2.752,2.752H4.752A2.748,2.748,0,0,1,2,58.917.92.92,0,0,1,2.917,58H21.261A.92.92,0,0,1,22.178,58.917Z" transform="translate(-2 -58)" fill="#969faa"/>
        </g>
        <g id="Grupo_1067765" data-name="Grupo 1067765" transform="translate(0 0)">
          <path id="Trazado_813507" data-name="Trazado 813507" d="M13.006,3.834V5.669H2V3.834A1.84,1.84,0,0,1,3.834,2h7.337A1.84,1.84,0,0,1,13.006,3.834Z" transform="translate(-2 -2)" fill="#969faa"/>
        </g>
        <g id="Grupo_1067766" data-name="Grupo 1067766" transform="translate(0 12.84)">
          <path id="Trazado_813508" data-name="Trazado 813508" d="M13.006,16v1.834a1.84,1.84,0,0,1-1.834,1.834H3.834A1.84,1.84,0,0,1,2,17.834V16Z" transform="translate(-2 -16)" fill="#969faa"/>
        </g>
        <g id="Grupo_1067767" data-name="Grupo 1067767" transform="translate(11.923 14.675)">
          <path id="Trazado_813509" data-name="Trazado 813509" d="M42.515,27.172a5.5,5.5,0,0,1,0,11.006H20.5a5.5,5.5,0,0,1,0-11.006h.046a10.081,10.081,0,0,1,20.1.33A5.445,5.445,0,0,1,42.515,27.172Z" transform="translate(-15 -18)" fill="#e6e9ed"/>
        </g>
        <g id="Grupo_1067768" data-name="Grupo 1067768" transform="translate(32.682 27.516)">
          <ellipse id="Elipse_9034" data-name="Elipse 9034" cx="2" cy="1.5" rx="2" ry="1.5" transform="translate(-0.167 -0.001)" fill="#ff826e"/>
        </g>
        <g id="Grupo_1067769" data-name="Grupo 1067769" transform="translate(25.448 27.516)">
          <ellipse id="Elipse_9035" data-name="Elipse 9035" cx="2" cy="1.5" rx="2" ry="1.5" transform="translate(0.067 -0.001)" fill="#ff826e"/>
        </g>
        <g id="Grupo_1067770" data-name="Grupo 1067770" transform="translate(18.215 27.516)">
          <ellipse id="Elipse_9036" data-name="Elipse 9036" cx="2" cy="1.5" rx="2" ry="1.5" transform="translate(0.3 -0.001)" fill="#ff826e"/>
        </g>
        <g id="Grupo_1067771" data-name="Grupo 1067771" transform="translate(5.503 42.19)">
          <path id="Trazado_813510" data-name="Trazado 813510" d="M8,48h9.172v5.5H8Z" transform="translate(-8 -48)" fill="#69d6f4"/>
        </g>
        <g id="Grupo_1067772" data-name="Grupo 1067772" transform="translate(38.521 0)">
          <path id="Trazado_813511" data-name="Trazado 813511" d="M60.509,3.834v7.337H44V3.834A1.84,1.84,0,0,1,45.834,2h12.84A1.84,1.84,0,0,1,60.509,3.834Z" transform="translate(-44 -2)" fill="#69d6f4"/>
        </g>
        <g id="Grupo_1067773" data-name="Grupo 1067773" transform="translate(0 3.669)">
          <path id="Trazado_813512" data-name="Trazado 813512" d="M2,6H13.006v9.172H2Z" transform="translate(-2 -6)" fill="#69d6f4"/>
        </g>
      </g>
      <g id="Grupo_1067775" data-name="Grupo 1067775" transform="translate(1 1)">
        <path id="Trazado_813513" data-name="Trazado 813513" d="M14,32.592a6.428,6.428,0,0,0,6.42,6.42H42.432a6.42,6.42,0,0,0,0-12.84,6.239,6.239,0,0,0-1.068.092,11,11,0,0,0-21.712-.046A6.43,6.43,0,0,0,14,32.592Zm6.412-4.585h0l.886.051.08-.884a9.162,9.162,0,0,1,18.273.3l.071,1.226,1.156-.415a4.583,4.583,0,1,1,1.554,8.895H20.42a4.585,4.585,0,0,1-.008-9.171Z" transform="translate(-2.077 -2.325)"/>
        <path id="Trazado_813514" data-name="Trazado 813514" d="M31.337,22.834V21A7.346,7.346,0,0,0,24,28.337h1.834A5.509,5.509,0,0,1,31.337,22.834Z" transform="translate(-2.905 -2.657)"/>
        <path id="Trazado_813515" data-name="Trazado 813515" d="M29,33.752A2.752,2.752,0,1,0,31.752,31,2.755,2.755,0,0,0,29,33.752Zm3.669,0a.917.917,0,1,1-.917-.917A.918.918,0,0,1,32.669,33.752Z" transform="translate(-3.319 -3.485)"/>
        <path id="Trazado_813516" data-name="Trazado 813516" d="M23.752,36.5A2.752,2.752,0,1,0,21,33.752,2.755,2.755,0,0,0,23.752,36.5Zm0-3.669a.917.917,0,1,1-.917.917A.918.918,0,0,1,23.752,32.834Z" transform="translate(-2.657 -3.485)"/>
        <path id="Trazado_813517" data-name="Trazado 813517" d="M39.752,36.5A2.752,2.752,0,1,0,37,33.752,2.755,2.755,0,0,0,39.752,36.5Zm0-3.669a.917.917,0,1,1-.917.917A.918.918,0,0,1,39.752,32.834Z" transform="translate(-3.982 -3.485)"/>
        <path id="Trazado_813518" data-name="Trazado 813518" d="M37.193,9.252l1.3-1.3a10.1,10.1,0,0,0-14.268,0l1.3,1.3A8.264,8.264,0,0,1,37.193,9.252Z" transform="translate(-2.923 -1.332)"/>
        <path id="Trazado_813519" data-name="Trazado 813519" d="M36.13,10.881a6.419,6.419,0,0,0-9.08,0l1.3,1.3a4.586,4.586,0,0,1,6.486,0Z" transform="translate(-3.158 -1.663)"/>
        <path id="Trazado_813520" data-name="Trazado 813520" d="M29.878,13.809l1.3,1.3a.936.936,0,0,1,1.3,0l1.3-1.3A2.819,2.819,0,0,0,29.878,13.809Z" transform="translate(-3.392 -1.996)"/>
        <path id="Trazado_813521" data-name="Trazado 813521" d="M24.222,48.956l1.3,1.3a8.264,8.264,0,0,1,11.675,0l1.3-1.3A10.1,10.1,0,0,0,24.222,48.956Z" transform="translate(-2.923 -4.728)"/>
        <path id="Trazado_813522" data-name="Trazado 813522" d="M27.05,51.881l1.3,1.3a4.586,4.586,0,0,1,6.486,0l1.3-1.3a6.419,6.419,0,0,0-9.08,0Z" transform="translate(-3.158 -5.059)"/>
        <path id="Trazado_813523" data-name="Trazado 813523" d="M29.878,54.809l1.3,1.3a.936.936,0,0,1,1.3,0l1.3-1.3A2.819,2.819,0,0,0,29.878,54.809Z" transform="translate(-3.392 -5.392)"/>
        <path id="Trazado_813524" data-name="Trazado 813524" d="M1.222,25.956l1.3,1.3a8.264,8.264,0,0,1,11.675,0l1.3-1.3a10.1,10.1,0,0,0-14.268,0Z" transform="translate(-1.018 -2.823)"/>
        <path id="Trazado_813525" data-name="Trazado 813525" d="M13.13,28.881a6.419,6.419,0,0,0-9.08,0l1.3,1.3a4.586,4.586,0,0,1,6.486,0Z" transform="translate(-1.253 -3.153)"/>
        <path id="Trazado_813526" data-name="Trazado 813526" d="M6.878,31.809l1.3,1.3a.936.936,0,0,1,1.3,0l1.3-1.3a2.819,2.819,0,0,0-3.892,0Z" transform="translate(-1.487 -3.487)"/>
        <path id="Trazado_813527" data-name="Trazado 813527" d="M61.489,25.956a10.1,10.1,0,0,0-14.268,0l1.3,1.3a8.264,8.264,0,0,1,11.675,0Z" transform="translate(-4.828 -2.823)"/>
        <path id="Trazado_813528" data-name="Trazado 813528" d="M59.13,28.881a6.419,6.419,0,0,0-9.08,0l1.3,1.3a4.586,4.586,0,0,1,6.486,0Z" transform="translate(-5.063 -3.153)"/>
        <path id="Trazado_813529" data-name="Trazado 813529" d="M52.878,31.809l1.3,1.3a.936.936,0,0,1,1.3,0l1.3-1.3A2.819,2.819,0,0,0,52.878,31.809Z" transform="translate(-5.297 -3.487)"/>
        <path id="Trazado_813530" data-name="Trazado 813530" d="M58.592,1H45.752A2.755,2.755,0,0,0,43,3.752v9.172a2.755,2.755,0,0,0,2.752,2.752H48.5v1.834H46.669v1.834H57.675V17.509H55.84V15.675h2.752a2.755,2.755,0,0,0,2.752-2.752V3.752A2.755,2.755,0,0,0,58.592,1ZM45.752,2.834h12.84a.918.918,0,0,1,.917.917v6.42H44.834V3.752A.918.918,0,0,1,45.752,2.834Zm8.255,14.675H50.337V15.675h3.669Zm4.586-3.669H45.752a.918.918,0,0,1-.917-.917v-.917H59.509v.917A.918.918,0,0,1,58.592,13.84Z" transform="translate(-4.479 -1)"/>
        <path id="Trazado_813531" data-name="Trazado 813531" d="M3.752,19.343h7.337a2.755,2.755,0,0,0,2.752-2.752V3.752A2.755,2.755,0,0,0,11.089,1H3.752A2.755,2.755,0,0,0,1,3.752v12.84A2.755,2.755,0,0,0,3.752,19.343Zm7.337-1.834H3.752a.918.918,0,0,1-.917-.917v-.917h9.172v.917A.918.918,0,0,1,11.089,17.509ZM2.834,13.84V6.5h9.172V13.84ZM3.752,2.834h7.337a.918.918,0,0,1,.917.917v.917H2.834V3.752A.918.918,0,0,1,3.752,2.834Z" transform="translate(-1 -1)"/>
        <path id="Trazado_813532" data-name="Trazado 813532" d="M58.758,43H47.752A2.755,2.755,0,0,0,45,45.752v1.834a2.734,2.734,0,0,0,.715,1.834A2.729,2.729,0,0,0,45,51.255v1.834a2.734,2.734,0,0,0,.715,1.834A2.729,2.729,0,0,0,45,56.758v1.834a2.755,2.755,0,0,0,2.752,2.752H58.758a2.755,2.755,0,0,0,2.752-2.752V56.758a2.734,2.734,0,0,0-.715-1.834,2.729,2.729,0,0,0,.715-1.834V51.255a2.734,2.734,0,0,0-.715-1.834,2.729,2.729,0,0,0,.715-1.834V45.752A2.755,2.755,0,0,0,58.758,43ZM46.834,45.752a.918.918,0,0,1,.917-.917H58.758a.918.918,0,0,1,.917.917v1.834a.918.918,0,0,1-.917.917H47.752a.918.918,0,0,1-.917-.917Zm12.84,5.5v1.834a.918.918,0,0,1-.917.917H47.752a.918.918,0,0,1-.917-.917V51.255a.918.918,0,0,1,.917-.917H58.758A.918.918,0,0,1,59.675,51.255Zm0,7.337a.918.918,0,0,1-.917.917H47.752a.918.918,0,0,1-.917-.917V56.758a.918.918,0,0,1,.917-.917H58.758a.918.918,0,0,1,.917.917Z" transform="translate(-4.644 -4.479)"/>
        <path id="Trazado_813533" data-name="Trazado 813533" d="M21.178,55.84V45.752A2.755,2.755,0,0,0,18.426,43H5.586a2.755,2.755,0,0,0-2.752,2.752V55.84A1.836,1.836,0,0,0,1,57.675a3.672,3.672,0,0,0,3.669,3.669H19.343a3.672,3.672,0,0,0,3.669-3.669A1.836,1.836,0,0,0,21.178,55.84ZM4.669,45.752a.918.918,0,0,1,.917-.917h12.84a.918.918,0,0,1,.917.917V55.84H4.669ZM19.343,59.509H4.669a1.836,1.836,0,0,1-1.834-1.834H21.178A1.836,1.836,0,0,1,19.343,59.509Z" transform="translate(-1 -4.479)"/>
        <path id="Trazado_813534" data-name="Trazado 813534" d="M7,54.337H18.006V47H7Zm1.834-5.5h7.337V52.5H8.834Z" transform="translate(-1.497 -4.81)"/>
      </g>
    </g>
  </g>
</svg>
