<svg xmlns="http://www.w3.org/2000/svg" width="92" height="92" viewBox="0 0 92 92">
  <g id="Grupo_1069951" data-name="Grupo 1069951" transform="translate(-2211 10449)">
    <circle id="Elipse_9038" data-name="Elipse 9038" cx="46" cy="46" r="46" transform="translate(2211 -10449)" fill="#9f0925"/>
    <g id="centro-de-datos" transform="translate(2227.806 -10432.194)">
      <g id="Grupo_1067794" data-name="Grupo 1067794" transform="translate(1.909 1.909)">
        <g id="Grupo_1067778" data-name="Grupo 1067778" transform="translate(11.823)">
          <path id="Trazado_813554" data-name="Trazado 813554" d="M47.678,12.914H45.923l-.6,2.183a8.581,8.581,0,0,0-1.4.582L41.957,14.56l-2.574,2.574L40.5,19.1a8.58,8.58,0,0,0-.582,1.4l-2.183.6v2.728H26.823V22.009A1.824,1.824,0,0,0,25,20.19H15.227A7.493,7.493,0,0,1,15,18.371a7.262,7.262,0,0,1,4.575-6.748c-.009-.182-.027-.355-.027-.528A9.1,9.1,0,0,1,36.973,7.439a7.273,7.273,0,0,1,10.7,5.475Z" transform="translate(-15 -2)" fill="#e6e9ed"/>
        </g>
        <g id="Grupo_1067779" data-name="Grupo 1067779" transform="translate(34.561 10.914)">
          <path id="Trazado_813555" data-name="Trazado 813555" d="M60.009,22.185v3.638l-2.183.6a8.581,8.581,0,0,1-.582,1.4l1.119,1.965-2.392,2.4H47.276V27.642A4.547,4.547,0,1,0,45.457,24a4.286,4.286,0,0,0,.091.909H40V22.185l2.183-.6a8.58,8.58,0,0,1,.582-1.4L41.646,18.22l2.574-2.574,1.965,1.119a8.58,8.58,0,0,1,1.4-.582l.6-2.183h3.638l.6,2.183a8.581,8.581,0,0,1,1.4.582l1.965-1.119,2.574,2.574-1.119,1.965a8.58,8.58,0,0,1,.582,1.4Z" transform="translate(-40 -14)" fill="#fcd770"/>
        </g>
        <g id="Grupo_1067780" data-name="Grupo 1067780" transform="translate(40.018 29.104)">
          <path id="Trazado_813556" data-name="Trazado 813556" d="M58.733,34H47.819V57.647A1.824,1.824,0,0,1,46,59.466H58.733a1.824,1.824,0,0,0,1.819-1.819V35.819A1.824,1.824,0,0,0,58.733,34Z" transform="translate(-46 -34)" fill="#ccd1d9"/>
        </g>
        <g id="Grupo_1067781" data-name="Grupo 1067781" transform="translate(21.828 21.828)">
          <path id="Trazado_813557" data-name="Trazado 813557" d="M44.281,26H27.819V56.923A1.824,1.824,0,0,1,26,58.742H44.19a1.824,1.824,0,0,0,1.819-1.819v-29.1A1.825,1.825,0,0,0,44.281,26Z" transform="translate(-26 -26)" fill="#aab2bd"/>
        </g>
        <g id="Grupo_1067782" data-name="Grupo 1067782" transform="translate(0 18.19)">
          <path id="Trazado_813558" data-name="Trazado 813558" d="M25.647,54.742v1.819a1.824,1.824,0,0,1-1.819,1.819H3.819A1.824,1.824,0,0,1,2,56.561V23.819A1.824,1.824,0,0,1,3.819,22H23.828a1.824,1.824,0,0,1,1.819,1.819V54.742Z" transform="translate(-2 -22)" fill="#969faa"/>
        </g>
        <g id="Grupo_1067783" data-name="Grupo 1067783" transform="translate(3.638 43.656)">
          <path id="Trazado_813559" data-name="Trazado 813559" d="M6,50H22.371v7.276H6Z" transform="translate(-6 -50)" fill="#ff826e"/>
        </g>
        <g id="Grupo_1067784" data-name="Grupo 1067784" transform="translate(23.647 47.294)">
          <path id="Trazado_813560" data-name="Trazado 813560" d="M28,54H42.552v3.638H28Z" transform="translate(-28 -54)" fill="#ff826e"/>
        </g>
        <g id="Grupo_1067785" data-name="Grupo 1067785" transform="translate(41.837 47.294)">
          <path id="Trazado_813561" data-name="Trazado 813561" d="M48,54h9.095v3.638H48Z" transform="translate(-48 -54)" fill="#fcd770"/>
        </g>
        <g id="Grupo_1067786" data-name="Grupo 1067786" transform="translate(41.837 40.018)">
          <path id="Trazado_813562" data-name="Trazado 813562" d="M48,46h9.095v3.638H48Z" transform="translate(-48 -46)" fill="#fcd770"/>
        </g>
        <g id="Grupo_1067787" data-name="Grupo 1067787" transform="translate(41.837 32.742)">
          <path id="Trazado_813563" data-name="Trazado 813563" d="M48,38h9.095v3.638H48Z" transform="translate(-48 -38)" fill="#69d6f4"/>
        </g>
        <g id="Grupo_1067788" data-name="Grupo 1067788" transform="translate(23.647 40.018)">
          <path id="Trazado_813564" data-name="Trazado 813564" d="M28,46H42.552v3.638H28Z" transform="translate(-28 -46)" fill="#fcd770"/>
        </g>
        <g id="Grupo_1067789" data-name="Grupo 1067789" transform="translate(23.647 32.742)">
          <path id="Trazado_813565" data-name="Trazado 813565" d="M28,38H42.552v3.638H28Z" transform="translate(-28 -38)" fill="#fcd770"/>
        </g>
        <g id="Grupo_1067790" data-name="Grupo 1067790" transform="translate(23.647 25.466)">
          <path id="Trazado_813566" data-name="Trazado 813566" d="M28,30H42.552v3.638H28Z" transform="translate(-28 -30)" fill="#69d6f4"/>
        </g>
        <g id="Grupo_1067791" data-name="Grupo 1067791" transform="translate(3.638 36.38)">
          <path id="Trazado_813567" data-name="Trazado 813567" d="M6,42H22.371v3.638H6Z" transform="translate(-6 -42)" fill="#fcd770"/>
        </g>
        <g id="Grupo_1067792" data-name="Grupo 1067792" transform="translate(3.638 29.104)">
          <path id="Trazado_813568" data-name="Trazado 813568" d="M6,34H22.371v3.638H6Z" transform="translate(-6 -34)" fill="#fcd770"/>
        </g>
        <g id="Grupo_1067793" data-name="Grupo 1067793" transform="translate(3.638 21.828)">
          <path id="Trazado_813569" data-name="Trazado 813569" d="M6,26H22.371v3.638H6Z" transform="translate(-6 -26)" fill="#69d6f4"/>
        </g>
      </g>
      <g id="Grupo_1067795" data-name="Grupo 1067795" transform="translate(1 1)">
        <path id="Trazado_813570" data-name="Trazado 813570" d="M57.389,25.341V20.315L55,19.662c-.078-.209-.166-.417-.26-.623l1.229-2.151-3.553-3.554-2.153,1.228c-.206-.095-.414-.182-.622-.26l-.653-2.387H47.175A8.181,8.181,0,0,0,36.119,6.149a10,10,0,0,0-18.748,4.8,8.095,8.095,0,0,0-4.49,8.239H3.728A2.732,2.732,0,0,0,1,21.918V54.66a2.732,2.732,0,0,0,2.728,2.728H54.66a2.732,2.732,0,0,0,2.728-2.728V32.832A2.732,2.732,0,0,0,54.66,30.1h-.026l1.336-1.336-1.229-2.151c.095-.206.182-.414.26-.623ZM14.642,18.28a6.338,6.338,0,0,1,4-5.908l.607-.243-.048-.818c-.005-.1-.014-.2-.014-.307A8.184,8.184,0,0,1,34.87,7.718l.4.909.87-.478a6.36,6.36,0,0,1,9.154,3.764H43.961L43.308,14.3q-.312.117-.622.26l-2.153-1.228L36.98,16.888l1.229,2.151c-.095.206-.182.414-.26.623l-2.387.653v2.513H26.466v-.909a2.732,2.732,0,0,0-2.728-2.728H14.712a6.463,6.463,0,0,1-.07-.909Zm24.556,10V30.1H35.561V28.285ZM33.742,30.1H30.1V28.285h3.638Zm-5.457,0H26.466V28.285h1.819ZM26.466,50.113H39.2v1.819H26.466Zm0-7.276H39.2v1.819H26.466Zm0-7.276H39.2V37.38H26.466ZM21.918,55.57H3.728a.91.91,0,0,1-.909-.909V21.918a.91.91,0,0,1,.909-.909H23.737a.91.91,0,0,1,.909.909V54.66a.91.91,0,0,1-.909.909Zm17.28,0H26.3a2.7,2.7,0,0,0,.167-.909v-.909H41.018V48.294H26.466V46.475H41.018V41.018H26.466V39.2H41.018V33.742H26.466V31.923H41.018V26.466H26.466V24.647H41.927a.91.91,0,0,1,.909.909v29.1a.91.91,0,0,1-.909.909Zm3.638-32.742a3.638,3.638,0,1,1,3.638,3.638,3.6,3.6,0,0,1-1.819-.5v-.412A2.724,2.724,0,0,0,42.854,23C42.851,22.943,42.837,22.885,42.837,22.828Zm9.095,12.733V37.38H48.294V35.561ZM46.475,37.38H44.656V35.561h1.819ZM44.656,50.113h7.276v1.819H44.656Zm0-7.276h7.276v1.819H44.656Zm10.914-10V54.66a.91.91,0,0,1-.909.909H44.488a2.7,2.7,0,0,0,.167-.909v-.909h9.095V48.294H44.656V46.475h9.095V41.018H44.656V39.2h9.095V33.742H44.656V31.923h10A.91.91,0,0,1,55.57,32.832ZM53.7,28.463,52.061,30.1H44.656V27.967a5.454,5.454,0,1,0-3.638-5.14H37.38V21.7l1.995-.546.146-.477a7.283,7.283,0,0,1,.52-1.245l.235-.442-1.028-1.8L40.839,15.6l1.8,1.027.441-.233a7.281,7.281,0,0,1,1.247-.52l.477-.147.548-1.995H47.6l.547,1.995.477.147a7.281,7.281,0,0,1,1.247.52l.441.233,1.8-1.027L53.7,17.193l-1.028,1.8.235.442a7.21,7.21,0,0,1,.52,1.245l.146.477,1.995.546v2.25l-1.995.546-.146.477a7.283,7.283,0,0,1-.52,1.245l-.235.442Z" transform="translate(-1 -1)"/>
        <path id="Trazado_813571" data-name="Trazado 813571" d="M5,30.457H23.19V25H5Zm7.276-1.819V26.819h3.638v1.819Zm9.095,0H17.733V26.819h3.638ZM6.819,26.819h3.638v1.819H6.819Z" transform="translate(-1.362 -3.172)"/>
        <path id="Trazado_813572" data-name="Trazado 813572" d="M5,38.457H23.19V33H5Zm1.819-3.638H21.371v1.819H6.819Z" transform="translate(-1.362 -3.896)"/>
        <path id="Trazado_813573" data-name="Trazado 813573" d="M5,46.457H23.19V41H5Zm1.819-3.638H21.371v1.819H6.819Z" transform="translate(-1.362 -4.62)"/>
        <path id="Trazado_813574" data-name="Trazado 813574" d="M5,58.095H23.19V49H5Zm1.819-7.276H21.371v5.457H6.819Z" transform="translate(-1.362 -5.344)"/>
        <path id="Trazado_813575" data-name="Trazado 813575" d="M17,53h1.819v1.819H17Z" transform="translate(-2.448 -5.706)"/>
        <path id="Trazado_813576" data-name="Trazado 813576" d="M13,53h1.819v1.819H13Z" transform="translate(-2.086 -5.706)"/>
        <path id="Trazado_813577" data-name="Trazado 813577" d="M9,53h1.819v1.819H9Z" transform="translate(-1.724 -5.706)"/>
        <path id="Trazado_813578" data-name="Trazado 813578" d="M40,13h1.819v1.819H40Z" transform="translate(-4.53 -2.086)"/>
        <path id="Trazado_813579" data-name="Trazado 813579" d="M32,13h1.819v1.819H32Z" transform="translate(-3.806 -2.086)"/>
        <path id="Trazado_813580" data-name="Trazado 813580" d="M36,13h1.819v1.819H36Z" transform="translate(-4.168 -2.086)"/>
        <path id="Trazado_813581" data-name="Trazado 813581" d="M28,13h1.819v1.819H28Z" transform="translate(-3.444 -2.086)"/>
        <path id="Trazado_813582" data-name="Trazado 813582" d="M24,13h1.819v1.819H24Z" transform="translate(-3.082 -2.086)"/>
      </g>
    </g>
  </g>
</svg>
