<svg xmlns="http://www.w3.org/2000/svg" width="92" height="92" viewBox="0 0 92 92">
  <g id="Grupo_1069952" data-name="Grupo 1069952" transform="translate(-2562 10449)">
    <circle id="Elipse_9039" data-name="Elipse 9039" cx="46" cy="46" r="46" transform="translate(2562 -10449)" fill="#f77e6b"/>
    <g id="ingeniero_3_" data-name="ingeniero (3)" transform="translate(2581.806 -10433.194)">
      <path id="Trazado_813583" data-name="Trazado 813583" d="M55.96,141.184a2.516,2.516,0,0,0-2.516-2.516H13.184a2.516,2.516,0,0,0-2.516,2.516v25.162H55.96Zm0,0" transform="translate(-9.41 -122.313)" fill="#7cc9e8"/>
      <path id="Trazado_813584" data-name="Trazado 813584" d="M10.668,373.332v5.033a2.516,2.516,0,0,0,2.516,2.516H53.443a2.516,2.516,0,0,0,2.516-2.516v-5.033Zm0,0" transform="translate(-9.41 -329.299)" fill="#cbd3db"/>
      <path id="Trazado_813585" data-name="Trazado 813585" d="M138.668,437.332h15.1v7.549h-15.1Zm0,0" transform="translate(-122.313 -385.75)" fill="#6c8199"/>
      <path id="Trazado_813586" data-name="Trazado 813586" d="M313.162,20.733v5.033h-2.843a10.436,10.436,0,0,1-1.069,2.592l2.013,2.013L307.7,33.93l-2.013-2.013a10.435,10.435,0,0,1-2.592,1.069V35.83h-5.033V32.987a10.435,10.435,0,0,1-2.592-1.069L293.46,33.93,289.9,30.37l2.013-2.013a10.436,10.436,0,0,1-1.069-2.592H288V20.733h2.843a10.436,10.436,0,0,1,1.069-2.592L289.9,16.128l3.56-3.561,2.013,2.013a10.434,10.434,0,0,1,2.592-1.069V10.668H303.1v2.843a10.435,10.435,0,0,1,2.592,1.069l2.013-2.013,3.561,3.561-2.013,2.013a10.436,10.436,0,0,1,1.069,2.592Zm-8.806,2.516a3.774,3.774,0,1,0-3.774,3.774A3.774,3.774,0,0,0,304.355,23.249Zm0,0" transform="translate(-254.031 -9.41)" fill="#9d66d5"/>
      <path id="Trazado_813587" data-name="Trazado 813587" d="M90.365,23.849a2.516,2.516,0,1,1-2.516-2.516A2.516,2.516,0,0,1,90.365,23.849Zm0,0" transform="translate(-75.267 -18.816)" fill="#fff"/>
      <path id="Trazado_813588" data-name="Trazado 813588" d="M90.365,205.184a2.516,2.516,0,1,1-2.516-2.516A2.516,2.516,0,0,1,90.365,205.184Zm0,0" transform="translate(-75.267 -178.764)" fill="#fff"/>
      <path id="Trazado_813589" data-name="Trazado 813589" d="M303.7,333.184a2.516,2.516,0,1,1-2.516-2.516A2.516,2.516,0,0,1,303.7,333.184Zm0,0" transform="translate(-263.441 -291.667)" fill="#fff"/>
      <g id="Grupo_1067797" data-name="Grupo 1067797" transform="translate(0 0)">
        <path id="Trazado_813590" data-name="Trazado 813590" d="M45.291,161.969a1.258,1.258,0,0,1-1.258,1.258H3.774a1.258,1.258,0,0,1-1.258-1.258v-3.774H31.453v-2.516H2.516v-23.9a1.258,1.258,0,0,1,1.258-1.258H20.13V128H3.774A3.774,3.774,0,0,0,0,131.774v30.194a3.774,3.774,0,0,0,3.774,3.774H15.1v5.033H12.581v2.516H35.227v-2.516H32.71v-5.033H44.033a3.774,3.774,0,0,0,3.774-3.774V149.387H45.291Zm-15.1,8.807H17.613v-5.033H30.194Zm0,0" transform="translate(0 -112.903)" fill="#12263f"/>
        <path id="Trazado_813591" data-name="Trazado 813591" d="M303.752,10.065h-1.915a11.42,11.42,0,0,0-.454-1.1l1.353-1.355a1.259,1.259,0,0,0,0-1.779l-3.558-3.558a1.259,1.259,0,0,0-1.779,0l-1.355,1.354a11.527,11.527,0,0,0-1.1-.455V1.258A1.258,1.258,0,0,0,293.687,0h-5.033A1.258,1.258,0,0,0,287.4,1.258V3.173a11.356,11.356,0,0,0-1.1.454l-1.355-1.353a1.258,1.258,0,0,0-1.779,0l-3.558,3.558a1.259,1.259,0,0,0,0,1.779l1.354,1.355a11.415,11.415,0,0,0-.456,1.1H278.59a1.258,1.258,0,0,0-1.258,1.258v5.033a1.258,1.258,0,0,0,1.258,1.258H280.5a11.364,11.364,0,0,0,.454,1.1l-1.353,1.355a1.258,1.258,0,0,0,0,1.779l3.559,3.559a1.259,1.259,0,0,0,1.779,0l1.355-1.354a11.4,11.4,0,0,0,1.1.454V26.42a1.258,1.258,0,0,0,1.258,1.258h5.033a1.258,1.258,0,0,0,1.258-1.258V24.505a11.354,11.354,0,0,0,1.1-.454L297.4,25.4a1.258,1.258,0,0,0,1.779,0l3.559-3.559a1.258,1.258,0,0,0,0-1.779l-1.354-1.355a11.4,11.4,0,0,0,.453-1.1h1.915a1.258,1.258,0,0,0,1.258-1.258V11.323a1.258,1.258,0,0,0-1.258-1.258ZM302.494,15.1h-1.588a1.259,1.259,0,0,0-1.218.944,8.752,8.752,0,0,1-.937,2.264,1.258,1.258,0,0,0,.193,1.529l1.122,1.122-1.78,1.78-1.122-1.122a1.259,1.259,0,0,0-1.529-.194,8.759,8.759,0,0,1-2.264.938,1.257,1.257,0,0,0-.944,1.218v1.586h-2.515V23.574a1.258,1.258,0,0,0-.944-1.218,8.752,8.752,0,0,1-2.264-.937,1.258,1.258,0,0,0-1.529.194l-1.122,1.122-1.78-1.78,1.122-1.122a1.259,1.259,0,0,0,.194-1.529,8.745,8.745,0,0,1-.938-2.264,1.258,1.258,0,0,0-1.218-.944h-1.586V12.581h1.588a1.258,1.258,0,0,0,1.218-.944,8.755,8.755,0,0,1,.937-2.265,1.257,1.257,0,0,0-.193-1.528l-1.122-1.122,1.78-1.78,1.122,1.122a1.258,1.258,0,0,0,1.529.194,8.745,8.745,0,0,1,2.264-.937,1.258,1.258,0,0,0,.942-1.217V2.516h2.516V4.1a1.259,1.259,0,0,0,.944,1.218,8.754,8.754,0,0,1,2.265.937,1.257,1.257,0,0,0,1.528-.194l1.122-1.122,1.78,1.78-1.122,1.122a1.258,1.258,0,0,0-.194,1.529,8.758,8.758,0,0,1,.937,2.264,1.257,1.257,0,0,0,1.218.944h1.587Zm0,0" transform="translate(-244.622 0)" fill="#12263f"/>
        <path id="Trazado_813592" data-name="Trazado 813592" d="M357.033,74.668a5.032,5.032,0,1,0,5.032,5.032,5.032,5.032,0,0,0-5.032-5.032Zm0,7.549a2.516,2.516,0,1,1,2.516-2.516A2.516,2.516,0,0,1,357.033,82.217Zm0,0" transform="translate(-310.483 -65.861)" fill="#12263f"/>
        <path id="Trazado_813593" data-name="Trazado 813593" d="M78.436,18.305a3.774,3.774,0,0,0,3.543-2.516h4.006a1.258,1.258,0,0,1,1.258,1.258v6.29a3.774,3.774,0,0,0,3.774,3.774h5.033V24.6H91.017a1.258,1.258,0,0,1-1.258-1.258v-6.29a3.774,3.774,0,0,0-3.774-3.774H81.979a3.768,3.768,0,1,0-3.543,5.033Zm0-5.033a1.258,1.258,0,1,1-1.258,1.258A1.258,1.258,0,0,1,78.436,13.273Zm0,0" transform="translate(-65.855 -9.499)" fill="#12263f"/>
        <path id="Trazado_813594" data-name="Trazado 813594" d="M78.323,192a3.774,3.774,0,1,0,3.543,5.033H99.71a1.259,1.259,0,0,0,.89-.369l1.258-1.258-1.779-1.779-.889.889H81.865A3.774,3.774,0,0,0,78.323,192Zm0,5.033a1.258,1.258,0,1,1,1.258-1.258A1.258,1.258,0,0,1,78.323,197.032Zm0,0" transform="translate(-65.742 -169.354)" fill="#12263f"/>
        <path id="Trazado_813595" data-name="Trazado 813595" d="M298.062,257.258h-3.774a3.774,3.774,0,0,0-3.774,3.774v2.747a3.774,3.774,0,1,0,2.517,0v-2.747a1.258,1.258,0,0,1,1.258-1.258h3.774A3.774,3.774,0,0,0,301.836,256H299.32A1.258,1.258,0,0,1,298.062,257.258Zm-6.29,11.323a1.258,1.258,0,1,1,1.258-1.258A1.258,1.258,0,0,1,291.771,268.581Zm0,0" transform="translate(-254.029 -225.806)" fill="#12263f"/>
      </g>
    </g>
  </g>
</svg>
