<svg xmlns="http://www.w3.org/2000/svg" width="92" height="92" viewBox="0 0 92 92">
  <g id="Grupo_1069950" data-name="Grupo 1069950" transform="translate(-2211 10078)">
    <circle id="Elipse_9163" data-name="Elipse 9163" cx="46" cy="46" r="46" transform="translate(2211 -10078)" fill="#9f0925"/>
    <g id="_x35_18_x2C__Chip_x2C__Electronic_x2C__Memory_x2C__Ram" transform="translate(2191.403 -10099.583)">
      <g id="Grupo_1069949" data-name="Grupo 1069949" transform="translate(37.5 39.687)">
        <path id="Trazado_816498" data-name="Trazado 816498" d="M192.2,50H176.162a3.661,3.661,0,0,0-3.662,3.662v46.344a3.661,3.661,0,0,0,3.662,3.662H192.2a3.661,3.661,0,0,0,3.662-3.662V53.662A3.661,3.661,0,0,0,192.2,50Z" transform="translate(-155.452 -48.506)" fill="#68ca44"/>
        <path id="Trazado_816499" data-name="Trazado 816499" d="M212.5,155v27.908h13.259V155Z" transform="translate(-190.401 -140.247)" fill="#a0e557"/>
        <path id="Trazado_816500" data-name="Trazado 816500" d="M219.13,215a6.63,6.63,0,1,0,6.63,6.63A6.629,6.629,0,0,0,219.13,215Z" transform="translate(-190.401 -192.67)" fill="#d7deed"/>
        <path id="Trazado_816501" data-name="Trazado 816501" d="M440.026,60a2.526,2.526,0,1,1-2.526,2.526A2.525,2.525,0,0,1,440.026,60Z" transform="translate(-386.989 -57.243)" fill="#6499f3"/>
        <path id="Trazado_816502" data-name="Trazado 816502" d="M45.657,425a3.157,3.157,0,1,1-3.157,3.157A3.157,3.157,0,0,1,45.657,425Z" transform="translate(-41.869 -376.152)" fill="#6499f3"/>
        <g id="Grupo_1069948" data-name="Grupo 1069948" transform="translate(10.734 7.808)">
          <path id="Trazado_816503" data-name="Trazado 816503" d="M383.763,400a1.894,1.894,0,0,1,0,3.788H382.5V400Z" transform="translate(-349.668 -362.116)" fill="#313a52"/>
          <path id="Trazado_816504" data-name="Trazado 816504" d="M383.763,350a1.894,1.894,0,0,1,0,3.788H382.5V350Z" transform="translate(-349.668 -318.43)" fill="#313a52"/>
          <path id="Trazado_816505" data-name="Trazado 816505" d="M383.763,300a1.894,1.894,0,0,1,0,3.788H382.5V300Z" transform="translate(-349.668 -274.744)" fill="#313a52"/>
          <path id="Trazado_816506" data-name="Trazado 816506" d="M383.763,250a1.894,1.894,0,0,1,0,3.788H382.5V250Z" transform="translate(-349.668 -231.058)" fill="#313a52"/>
          <path id="Trazado_816507" data-name="Trazado 816507" d="M383.763,150a1.894,1.894,0,0,1,0,3.788H382.5V150Z" transform="translate(-349.668 -143.686)" fill="#313a52"/>
          <path id="Trazado_816508" data-name="Trazado 816508" d="M383.763,200a1.894,1.894,0,0,1,0,3.788H382.5V200Z" transform="translate(-349.668 -187.372)" fill="#313a52"/>
          <path id="Trazado_816509" data-name="Trazado 816509" d="M383.763,100a1.894,1.894,0,0,1,0,3.788H382.5V100Z" transform="translate(-349.668 -100)" fill="#313a52"/>
          <path id="Trazado_816510" data-name="Trazado 816510" d="M125.657,400v3.788h-1.263a1.894,1.894,0,1,1,0-3.788Z" transform="translate(-122.5 -362.116)" fill="#313a52"/>
          <path id="Trazado_816511" data-name="Trazado 816511" d="M125.657,350v3.788h-1.263a1.894,1.894,0,1,1,0-3.788Z" transform="translate(-122.5 -318.43)" fill="#313a52"/>
          <path id="Trazado_816512" data-name="Trazado 816512" d="M125.657,300v3.788h-1.263a1.894,1.894,0,1,1,0-3.788Z" transform="translate(-122.5 -274.744)" fill="#313a52"/>
          <path id="Trazado_816513" data-name="Trazado 816513" d="M125.657,250v3.788h-1.263a1.894,1.894,0,1,1,0-3.788Z" transform="translate(-122.5 -231.058)" fill="#313a52"/>
          <path id="Trazado_816514" data-name="Trazado 816514" d="M125.657,200v3.788h-1.263a1.894,1.894,0,0,1,0-3.788Z" transform="translate(-122.5 -187.372)" fill="#313a52"/>
          <path id="Trazado_816515" data-name="Trazado 816515" d="M125.657,150v3.788h-1.263a1.894,1.894,0,1,1,0-3.788Z" transform="translate(-122.5 -143.686)" fill="#313a52"/>
          <path id="Trazado_816516" data-name="Trazado 816516" d="M125.657,100v3.788h-1.263a1.894,1.894,0,1,1,0-3.788Z" transform="translate(-122.5 -100)" fill="#313a52"/>
        </g>
        <path id="Trazado_816517" data-name="Trazado 816517" d="M360.657,128.566v1.768H357.5V85h3.157v43.566Z" transform="translate(-317.091 -79.086)" fill="#4aa525"/>
        <path id="Trazado_816518" data-name="Trazado 816518" d="M150.657,90.683v39.652H147.5V85h3.157v5.683Z" transform="translate(-133.609 -79.086)" fill="#4aa525"/>
        <path id="Trazado_816519" data-name="Trazado 816519" d="M245.341,245a2.841,2.841,0,1,1-2.841,2.841A2.841,2.841,0,0,1,245.341,245Z" transform="translate(-216.613 -218.882)" fill="#232b3f"/>
        <circle id="Elipse_9166" data-name="Elipse 9166" cx="0.947" cy="0.947" r="0.947" transform="translate(52.406 27.065)"/>
        <circle id="Elipse_9167" data-name="Elipse 9167" cx="0.737" cy="0.737" r="0.737" transform="translate(52.055 51.602)"/>
        <circle id="Elipse_9168" data-name="Elipse 9168" cx="1.106" cy="1.106" r="1.106" transform="translate(49.843 12.532)"/>
        <ellipse id="Elipse_9169" data-name="Elipse 9169" cx="0.737" cy="1.106" rx="0.737" ry="1.106" transform="translate(12.248 52.339)"/>
        <circle id="Elipse_9170" data-name="Elipse 9170" cx="1.106" cy="1.106" r="1.106" transform="translate(9.299 0)"/>
        <ellipse id="Elipse_9171" data-name="Elipse 9171" cx="0.737" cy="1.106" rx="0.737" ry="1.106" transform="translate(3.402 30.961)"/>
        <ellipse id="Elipse_9172" data-name="Elipse 9172" cx="1.106" cy="0.737" rx="1.106" ry="0.737" transform="translate(1.928 15.481)"/>
        <path id="Trazado_816520" data-name="Trazado 816520" d="M191.493,50.683a.631.631,0,0,1-.631-.631v-.758a3.034,3.034,0,0,0-3.031-3.031H171.793a3.034,3.034,0,0,0-3.031,3.031v.758a.631.631,0,0,1-1.263,0v-.758A4.3,4.3,0,0,1,171.793,45h16.037a4.3,4.3,0,0,1,4.293,4.293v.758A.631.631,0,0,1,191.493,50.683Z" transform="translate(-151.084 -44.138)"/>
        <path id="Trazado_816521" data-name="Trazado 816521" d="M187.831,444.177H171.793a4.3,4.3,0,0,1-4.293-4.293v-.253a.631.631,0,0,1,1.263,0v.253a3.034,3.034,0,0,0,3.031,3.031h16.037a3.034,3.034,0,0,0,3.031-3.031v-.253a.631.631,0,0,1,1.263,0v.253A4.3,4.3,0,0,1,187.831,444.177Z" transform="translate(-151.084 -388.384)"/>
        <path id="Trazado_816522" data-name="Trazado 816522" d="M378.131,378.788a.631.631,0,0,1-.631-.631v-2.526a.631.631,0,0,1,1.263,0v2.526A.631.631,0,0,1,378.131,378.788Z" transform="translate(-334.565 -332.466)"/>
        <path id="Trazado_816523" data-name="Trazado 816523" d="M378.131,328.788a.631.631,0,0,1-.631-.631v-2.526a.631.631,0,0,1,1.263,0v2.526A.631.631,0,0,1,378.131,328.788Z" transform="translate(-334.565 -288.78)"/>
        <path id="Trazado_816524" data-name="Trazado 816524" d="M378.131,278.788a.631.631,0,0,1-.631-.631v-2.526a.631.631,0,0,1,1.263,0v2.526A.631.631,0,0,1,378.131,278.788Z" transform="translate(-334.565 -245.094)"/>
        <path id="Trazado_816525" data-name="Trazado 816525" d="M378.131,228.788a.631.631,0,0,1-.631-.631v-2.526a.631.631,0,0,1,1.263,0v2.526A.631.631,0,0,1,378.131,228.788Z" transform="translate(-334.565 -201.407)"/>
        <path id="Trazado_816526" data-name="Trazado 816526" d="M378.131,178.788a.631.631,0,0,1-.631-.631v-2.526a.631.631,0,0,1,1.263,0v2.526A.631.631,0,0,1,378.131,178.788Z" transform="translate(-334.565 -157.721)"/>
        <path id="Trazado_816527" data-name="Trazado 816527" d="M378.131,128.788a.631.631,0,0,1-.631-.631v-2.526a.631.631,0,0,1,1.263,0v2.526A.631.631,0,0,1,378.131,128.788Z" transform="translate(-334.565 -114.035)"/>
        <path id="Trazado_816528" data-name="Trazado 816528" d="M356.288,126.6h-3.157a.631.631,0,0,1-.631-.631V80.631a.631.631,0,0,1,.631-.631h3.157a.631.631,0,0,1,.631.631v1.894a.631.631,0,1,1-1.263,0V81.263h-1.894v44.071h1.894V124.2a.631.631,0,0,1,1.263,0v1.768A.631.631,0,0,1,356.288,126.6Z" transform="translate(-312.722 -74.718)"/>
        <path id="Trazado_816529" data-name="Trazado 816529" d="M379.394,100.051h-1.263a.631.631,0,0,1-.631-.631V95.631a.631.631,0,0,1,.631-.631h1.263a2.528,2.528,0,0,1,2.526,2.526,2.528,2.528,0,0,1-2.526,2.526Zm-.631-1.263h.631a1.266,1.266,0,0,0,1.263-1.263,1.264,1.264,0,0,0-1.263-1.263h-.631Z" transform="translate(-334.565 -87.824)"/>
        <path id="Trazado_816530" data-name="Trazado 816530" d="M405.026,111.263h-1.894a.631.631,0,0,1,0-1.263h1.894a.631.631,0,1,1,0,1.263Z" transform="translate(-356.408 -100.929)"/>
        <path id="Trazado_816531" data-name="Trazado 816531" d="M379.394,150.051h-1.263a.631.631,0,0,1-.631-.631v-3.788a.631.631,0,0,1,.631-.631h1.263a2.528,2.528,0,0,1,2.526,2.526,2.528,2.528,0,0,1-2.526,2.526Zm-.631-1.263h.631a1.266,1.266,0,0,0,1.263-1.263,1.264,1.264,0,0,0-1.263-1.263h-.631Z" transform="translate(-334.565 -131.51)"/>
        <path id="Trazado_816532" data-name="Trazado 816532" d="M405.026,161.263h-1.894a.631.631,0,0,1,0-1.263h1.894a.631.631,0,1,1,0,1.263Z" transform="translate(-356.408 -144.616)"/>
        <path id="Trazado_816533" data-name="Trazado 816533" d="M379.394,200.051h-1.263a.631.631,0,0,1-.631-.631v-3.788a.631.631,0,0,1,.631-.631h1.263a2.528,2.528,0,0,1,2.526,2.526,2.528,2.528,0,0,1-2.526,2.526Zm-.631-1.263h.631a1.266,1.266,0,0,0,1.263-1.263,1.264,1.264,0,0,0-1.263-1.263h-.631Z" transform="translate(-334.565 -175.196)"/>
        <path id="Trazado_816534" data-name="Trazado 816534" d="M405.026,211.263h-1.894a.631.631,0,0,1,0-1.263h1.894a.631.631,0,1,1,0,1.263Z" transform="translate(-356.408 -188.302)"/>
        <path id="Trazado_816535" data-name="Trazado 816535" d="M379.394,250.051h-1.263a.631.631,0,0,1-.631-.631v-3.788a.631.631,0,0,1,.631-.631h1.263a2.524,2.524,0,0,1,1.784,4.312A2.5,2.5,0,0,1,379.394,250.051Zm-.631-1.263h.631a1.266,1.266,0,0,0,1.263-1.263,1.264,1.264,0,0,0-1.263-1.263h-.631Z" transform="translate(-334.565 -218.882)"/>
        <path id="Trazado_816536" data-name="Trazado 816536" d="M405.026,261.263h-1.894a.631.631,0,0,1,0-1.263h1.894a.631.631,0,1,1,0,1.263Z" transform="translate(-356.408 -231.988)"/>
        <path id="Trazado_816537" data-name="Trazado 816537" d="M379.394,300.051h-1.263a.631.631,0,0,1-.631-.631v-3.788a.631.631,0,0,1,.631-.631h1.263a2.524,2.524,0,0,1,1.784,4.312A2.5,2.5,0,0,1,379.394,300.051Zm-.631-1.263h.631a1.266,1.266,0,0,0,1.263-1.263,1.264,1.264,0,0,0-1.263-1.263h-.631Z" transform="translate(-334.565 -262.568)"/>
        <path id="Trazado_816538" data-name="Trazado 816538" d="M405.026,311.263h-1.894a.631.631,0,0,1,0-1.263h1.894a.631.631,0,1,1,0,1.263Z" transform="translate(-356.408 -275.674)"/>
        <path id="Trazado_816539" data-name="Trazado 816539" d="M379.394,350.051h-1.263a.631.631,0,0,1-.631-.631v-3.788a.631.631,0,0,1,.631-.631h1.263a2.524,2.524,0,0,1,1.784,4.312A2.5,2.5,0,0,1,379.394,350.051Zm-.631-1.263h.631a1.266,1.266,0,0,0,1.263-1.263,1.264,1.264,0,0,0-1.263-1.263h-.631Z" transform="translate(-334.565 -306.254)"/>
        <path id="Trazado_816540" data-name="Trazado 816540" d="M405.026,361.263h-1.894a.631.631,0,0,1,0-1.263h1.894a.631.631,0,1,1,0,1.263Z" transform="translate(-356.408 -319.36)"/>
        <path id="Trazado_816541" data-name="Trazado 816541" d="M379.394,400.051h-1.263a.631.631,0,0,1-.631-.631v-3.788a.631.631,0,0,1,.631-.631h1.263a2.524,2.524,0,0,1,1.784,4.312A2.5,2.5,0,0,1,379.394,400.051Zm-.631-1.263h.631a1.266,1.266,0,0,0,1.263-1.263,1.264,1.264,0,0,0-1.263-1.263h-.631Z" transform="translate(-334.565 -349.94)"/>
        <path id="Trazado_816542" data-name="Trazado 816542" d="M405.026,411.263h-1.894a.631.631,0,0,1,0-1.263h1.894a.631.631,0,1,1,0,1.263Z" transform="translate(-356.408 -363.046)"/>
        <path id="Trazado_816543" data-name="Trazado 816543" d="M143.131,378.788a.631.631,0,0,1-.631-.631v-2.526a.631.631,0,0,1,1.263,0v2.526A.631.631,0,0,1,143.131,378.788Z" transform="translate(-129.241 -332.466)"/>
        <path id="Trazado_816544" data-name="Trazado 816544" d="M143.131,328.788a.631.631,0,0,1-.631-.631v-2.526a.631.631,0,0,1,1.263,0v2.526A.631.631,0,0,1,143.131,328.788Z" transform="translate(-129.241 -288.78)"/>
        <path id="Trazado_816545" data-name="Trazado 816545" d="M143.131,278.788a.631.631,0,0,1-.631-.631v-2.526a.631.631,0,0,1,1.263,0v2.526A.631.631,0,0,1,143.131,278.788Z" transform="translate(-129.241 -245.094)"/>
        <path id="Trazado_816546" data-name="Trazado 816546" d="M143.131,228.788a.631.631,0,0,1-.631-.631v-2.526a.631.631,0,0,1,1.263,0v2.526A.631.631,0,0,1,143.131,228.788Z" transform="translate(-129.241 -201.407)"/>
        <path id="Trazado_816547" data-name="Trazado 816547" d="M143.131,178.788a.631.631,0,0,1-.631-.631v-2.526a.631.631,0,0,1,1.263,0v2.526A.631.631,0,0,1,143.131,178.788Z" transform="translate(-129.241 -157.721)"/>
        <path id="Trazado_816548" data-name="Trazado 816548" d="M143.131,128.788a.631.631,0,0,1-.631-.631v-2.526a.631.631,0,0,1,1.263,0v2.526A.631.631,0,0,1,143.131,128.788Z" transform="translate(-129.241 -114.035)"/>
        <path id="Trazado_816549" data-name="Trazado 816549" d="M146.288,126.6h-3.157a.631.631,0,0,1-.631-.631V124.2a.631.631,0,0,1,1.263,0v1.137h1.894V81.263h-1.894v1.263a.631.631,0,1,1-1.263,0V80.631a.631.631,0,0,1,.631-.631h3.157a.631.631,0,0,1,.631.631v45.334A.631.631,0,0,1,146.288,126.6Z" transform="translate(-129.241 -74.718)"/>
        <path id="Trazado_816550" data-name="Trazado 816550" d="M121.288,100.051h-1.263a2.526,2.526,0,1,1,0-5.051h1.263a.631.631,0,0,1,.631.631V99.42A.631.631,0,0,1,121.288,100.051Zm-1.263-3.788a1.264,1.264,0,0,0-1.263,1.263,1.266,1.266,0,0,0,1.263,1.263h.631V96.263Z" transform="translate(-107.398 -87.824)"/>
        <path id="Trazado_816551" data-name="Trazado 816551" d="M105.026,111.263h-1.894a.631.631,0,0,1,0-1.263h1.894a.631.631,0,0,1,0,1.263Z" transform="translate(-94.292 -100.929)"/>
        <path id="Trazado_816552" data-name="Trazado 816552" d="M121.288,150.051h-1.263a2.526,2.526,0,0,1,0-5.051h1.263a.631.631,0,0,1,.631.631v3.788A.631.631,0,0,1,121.288,150.051Zm-1.263-3.788a1.264,1.264,0,0,0-1.263,1.263,1.266,1.266,0,0,0,1.263,1.263h.631v-2.526Z" transform="translate(-107.398 -131.51)"/>
        <path id="Trazado_816553" data-name="Trazado 816553" d="M105.026,161.263h-1.894a.631.631,0,1,1,0-1.263h1.894a.631.631,0,1,1,0,1.263Z" transform="translate(-94.292 -144.616)"/>
        <path id="Trazado_816554" data-name="Trazado 816554" d="M121.288,200.051h-1.263a2.526,2.526,0,0,1,0-5.051h1.263a.631.631,0,0,1,.631.631v3.788A.631.631,0,0,1,121.288,200.051Zm-1.263-3.788a1.264,1.264,0,0,0-1.263,1.263,1.266,1.266,0,0,0,1.263,1.263h.631v-2.526Z" transform="translate(-107.398 -175.196)"/>
        <path id="Trazado_816555" data-name="Trazado 816555" d="M105.026,211.263h-1.894a.631.631,0,0,1,0-1.263h1.894a.631.631,0,0,1,0,1.263Z" transform="translate(-94.292 -188.302)"/>
        <path id="Trazado_816556" data-name="Trazado 816556" d="M121.288,250.051h-1.263a2.526,2.526,0,0,1,0-5.051h1.263a.631.631,0,0,1,.631.631v3.788A.631.631,0,0,1,121.288,250.051Zm-1.263-3.788a1.264,1.264,0,0,0-1.263,1.263,1.266,1.266,0,0,0,1.263,1.263h.631v-2.526Z" transform="translate(-107.398 -218.882)"/>
        <path id="Trazado_816557" data-name="Trazado 816557" d="M105.026,261.263h-1.894a.631.631,0,0,1,0-1.263h1.894a.631.631,0,1,1,0,1.263Z" transform="translate(-94.292 -231.988)"/>
        <path id="Trazado_816558" data-name="Trazado 816558" d="M121.288,300.051h-1.263a2.526,2.526,0,1,1,0-5.051h1.263a.631.631,0,0,1,.631.631v3.788A.631.631,0,0,1,121.288,300.051Zm-1.263-3.788a1.264,1.264,0,0,0-1.263,1.263,1.266,1.266,0,0,0,1.263,1.263h.631v-2.526Z" transform="translate(-107.398 -262.568)"/>
        <path id="Trazado_816559" data-name="Trazado 816559" d="M105.026,311.263h-1.894a.631.631,0,0,1,0-1.263h1.894a.631.631,0,1,1,0,1.263Z" transform="translate(-94.292 -275.674)"/>
        <path id="Trazado_816560" data-name="Trazado 816560" d="M121.288,350.051h-1.263a2.526,2.526,0,0,1,0-5.051h1.263a.631.631,0,0,1,.631.631v3.788A.631.631,0,0,1,121.288,350.051Zm-1.263-3.788a1.264,1.264,0,0,0-1.263,1.263,1.266,1.266,0,0,0,1.263,1.263h.631v-2.526Z" transform="translate(-107.398 -306.254)"/>
        <path id="Trazado_816561" data-name="Trazado 816561" d="M105.026,361.263h-1.894a.631.631,0,0,1,0-1.263h1.894a.631.631,0,1,1,0,1.263Z" transform="translate(-94.292 -319.36)"/>
        <path id="Trazado_816562" data-name="Trazado 816562" d="M121.288,400.051h-1.263a2.526,2.526,0,0,1,0-5.051h1.263a.631.631,0,0,1,.631.631v3.788A.631.631,0,0,1,121.288,400.051Zm-1.263-3.788a1.264,1.264,0,0,0-1.263,1.263,1.266,1.266,0,0,0,1.263,1.263h.631v-2.526Z" transform="translate(-107.398 -349.94)"/>
        <path id="Trazado_816563" data-name="Trazado 816563" d="M105.026,411.263h-1.894a.631.631,0,0,1,0-1.263h1.894a.631.631,0,1,1,0,1.263Z" transform="translate(-94.292 -363.046)"/>
        <path id="Trazado_816564" data-name="Trazado 816564" d="M221.391,179.17H208.131a.631.631,0,0,1-.631-.631V150.631a.631.631,0,0,1,.631-.631h13.259a.631.631,0,0,1,.631.631v27.908A.631.631,0,0,1,221.391,179.17Zm-12.628-1.263h12V151.263h-12Z" transform="translate(-186.033 -135.878)"/>
        <path id="Trazado_816565" data-name="Trazado 816565" d="M214.761,224.522a7.261,7.261,0,1,1,7.261-7.261A7.269,7.269,0,0,1,214.761,224.522Zm0-13.259a6,6,0,1,0,6,6A6.005,6.005,0,0,0,214.761,211.263Z" transform="translate(-186.033 -188.302)"/>
        <path id="Trazado_816566" data-name="Trazado 816566" d="M240.973,246.945a3.473,3.473,0,1,1,3.473-3.473A3.477,3.477,0,0,1,240.973,246.945Zm0-5.683a2.21,2.21,0,1,0,2.21,2.21A2.212,2.212,0,0,0,240.973,241.263Z" transform="translate(-212.244 -214.513)"/>
        <path id="Trazado_816567" data-name="Trazado 816567" d="M41.288,427.577a3.788,3.788,0,1,1,3.788-3.788A3.793,3.793,0,0,1,41.288,427.577Zm0-6.314a2.526,2.526,0,1,0,2.526,2.526A2.528,2.528,0,0,0,41.288,421.263Z" transform="translate(-37.5 -371.783)"/>
        <path id="Trazado_816568" data-name="Trazado 816568" d="M435.657,61.314a3.157,3.157,0,1,1,3.157-3.157A3.161,3.161,0,0,1,435.657,61.314Zm0-5.051a1.894,1.894,0,1,0,1.894,1.894A1.9,1.9,0,0,0,435.657,56.263Z" transform="translate(-382.62 -52.875)"/>
        <path id="Trazado_816569" data-name="Trazado 816569" d="M175.708,106.263h-7.577a.631.631,0,1,1,0-1.263h7.577a.631.631,0,0,1,0,1.263Z" transform="translate(-151.084 -96.561)"/>
        <path id="Trazado_816570" data-name="Trazado 816570" d="M185.81,126.263H168.131a.631.631,0,1,1,0-1.263H185.81a.631.631,0,0,1,0,1.263Z" transform="translate(-151.084 -114.035)"/>
        <path id="Trazado_816571" data-name="Trazado 816571" d="M300.708,416.263h-7.577a.631.631,0,0,1,0-1.263h7.577a.631.631,0,1,1,0,1.263Z" transform="translate(-260.299 -367.415)"/>
        <path id="Trazado_816572" data-name="Trazado 816572" d="M230.81,396.263H213.131a.631.631,0,1,1,0-1.263H230.81a.631.631,0,1,1,0,1.263Z" transform="translate(-190.401 -349.94)"/>
      </g>
    </g>
  </g>
</svg>
