<svg xmlns="http://www.w3.org/2000/svg" xmlns:xlink="http://www.w3.org/1999/xlink" width="224.684" height="204.703" viewBox="0 0 224.684 204.703">
  <defs>
    <clipPath id="clip-path">
      <rect id="Rectángulo_373964" data-name="Rectángulo 373964" width="223.684" height="164.338" fill="none"/>
    </clipPath>
    <clipPath id="clip-path-3">
      <rect id="Rectángulo_373955" data-name="Rectángulo 373955" width="106.275" height="48.739" fill="none"/>
    </clipPath>
    <clipPath id="clip-path-4">
      <rect id="Rectángulo_373956" data-name="Rectángulo 373956" width="121.932" height="49.138" fill="none"/>
    </clipPath>
    <clipPath id="clip-path-5">
      <rect id="Rectángulo_373957" data-name="Rectángulo 373957" width="203.739" height="117.933" fill="none"/>
    </clipPath>
    <clipPath id="clip-path-6">
      <rect id="Rectángulo_373958" data-name="Rectángulo 373958" width="111.611" height="75.067" fill="none"/>
    </clipPath>
    <clipPath id="clip-path-7">
      <rect id="Rectángulo_373959" data-name="Rectángulo 373959" width="5.733" height="11.755" fill="none"/>
    </clipPath>
    <clipPath id="clip-path-8">
      <path id="Trazado_814032" data-name="Trazado 814032" d="M137.587,250.636a3.057,3.057,0,0,0,1.387,2.4,1.266,1.266,0,0,0,.624.191c.456,0,.77-.361.772-.986a3.058,3.058,0,0,0-1.387-2.4,1.269,1.269,0,0,0-.624-.191c-.456,0-.77.361-.772.987" transform="translate(-137.587 -249.649)" fill="none"/>
    </clipPath>
    <clipPath id="clip-path-10">
      <rect id="Rectángulo_373961" data-name="Rectángulo 373961" width="7.75" height="4.482" fill="none"/>
    </clipPath>
    <clipPath id="clip-path-11">
      <rect id="Rectángulo_373962" data-name="Rectángulo 373962" width="7.75" height="4.481" fill="none"/>
    </clipPath>
  </defs>
  <g id="Grupo_1070080" data-name="Grupo 1070080" transform="translate(-2744.658 8786.352)">
    <path id="Trazado_816728" data-name="Trazado 816728" d="M102.587,21.636c62.625-5.579,62.726,29.752,90.943,62.67s34.256,47.837,23.618,85.784-46.479,67.689-90.822,50.836-69.744-.666-97.714-15.636-38.35-43.884-17.878-77.963S25.371,28.513,102.587,21.636Z" transform="translate(2744.655 -8807.402)" fill="#fff"/>
    <g id="Grupo_1067910" data-name="Grupo 1067910" transform="translate(2745.658 -8761.8)">
      <g id="Grupo_1067909" data-name="Grupo 1067909" clip-path="url(#clip-path)">
        <g id="Grupo_1067898" data-name="Grupo 1067898">
          <g id="Enmascarar_grupo_1067897" data-name="Enmascarar grupo 1067897" clip-path="url(#clip-path)">
            <g id="Grupo_1067884" data-name="Grupo 1067884" transform="translate(0 107.851)" opacity="0.21" style="mix-blend-mode: multiply;isolation: isolate">
              <g id="Grupo_1067883" data-name="Grupo 1067883">
                <g id="Enmascarar_grupo_1067882" data-name="Enmascarar grupo 1067882" clip-path="url(#clip-path-3)">
                  <path id="Trazado_813952" data-name="Trazado 813952" d="M0,444.088c4.65.153,8.975.19,11.643.212,23.547.193,39.089-9.841,58.51-23.015,5.06-3.432,10.621-8.613,15.533-11.489.023-.014.042-.031.064-.046l1.265.731.439-.179v-.214l.216.126.439-.179v-.214l.216.126.439-.179v-.214l.216.126.439-.179v-.214l.216.126.439-.179v-.215l.216.127.439-.179v-.21l.22.129,4.994-.778,4.543-2.623v-2.277l5.794-3.526-7.494-4.117-1.551.769c-.018-.011-.036-.024-.055-.035a1.035,1.035,0,0,0-.981-.045l0,0-.028.017-.026.013a2.684,2.684,0,0,0-.63.521l-1.348-.784-4.8,2.771L87.5,402.672v.3l-.22-.128-.439.327v.287l-.216-.126-.438.328v.287l-.216-.126-.439.327v.287l-.216-.126-.438.327v.287l-.216-.126-.439.328v.287l-.216-.126-.438.328,0,1.015h0v.238l0,1.634.555.321c-4.776,2.965-10.067,7.827-14.907,11.11-18.9,12.823-34.349,22.922-57.579,22.733-2.67-.021-7.007-.059-11.656-.212Z" transform="translate(0 -395.563)"/>
                </g>
              </g>
            </g>
            <g id="Grupo_1067887" data-name="Grupo 1067887" transform="translate(0 115.2)" opacity="0.21" style="mix-blend-mode: multiply;isolation: isolate">
              <g id="Grupo_1067886" data-name="Grupo 1067886">
                <g id="Enmascarar_grupo_1067885" data-name="Enmascarar grupo 1067885" clip-path="url(#clip-path-4)">
                  <path id="Trazado_813953" data-name="Trazado 813953" d="M0,470.058c7.8,1.231,21.495,1.547,27.265,1.593,23.554.192,39.134-10.246,58.545-23.414,5.06-3.432,10.621-8.613,15.533-11.489a.777.777,0,0,0,.064-.046l1.265.731.439-.179v-.214l.216.126.439-.179v-.214l.216.126.439-.179v-.214l.216.126.439-.179v-.214l.216.126.439-.179v-.215l.216.126.439-.179v-.21l.22.128,4.994-.778,4.543-2.623v-2.278l5.794-3.526-7.494-4.117-1.551.769c-.018-.012-.036-.024-.055-.035a1.036,1.036,0,0,0-.981-.045l0,0-.028.017-.025.014a2.668,2.668,0,0,0-.63.521l-1.348-.784-4.8,2.771-1.864,3.885v.3l-.22-.129-.439.327v.287l-.215-.126-.438.328v.287l-.216-.126-.439.327v.287l-.216-.126-.438.327v.287l-.215-.126-.439.328v.287l-.216-.126-.439.328,0,1.014h0v.238l0,1.634.555.321c-4.776,2.965-10.067,7.827-14.907,11.11-16.464,11.168-33.536,23.232-56.846,23.034-6.264-.051-20.276-.141-28.046-1.367Z" transform="translate(0 -422.515)"/>
                </g>
              </g>
            </g>
            <g id="Grupo_1067890" data-name="Grupo 1067890" transform="translate(19.946 22.637)" opacity="0.21" style="mix-blend-mode: multiply;isolation: isolate">
              <g id="Grupo_1067889" data-name="Grupo 1067889">
                <g id="Grupo_1067888" data-name="Grupo 1067888" clip-path="url(#clip-path-5)">
                  <path id="Trazado_813954" data-name="Trazado 813954" d="M274.409,150.89c3.3,1.9,3.314,4.988.041,6.891L202.609,199.53a13.106,13.106,0,0,1-11.9,0L75.637,133.091c-3.295-1.9-3.312-4.987-.039-6.889l71.841-41.75a13.109,13.109,0,0,1,11.894,0Z" transform="translate(-73.155 -83.025)"/>
                </g>
              </g>
            </g>
            <path id="Trazado_813955" data-name="Trazado 813955" d="M79.487,239.868c0,1.237.813,2.476,2.446,3.419l113.412,65.479a12.918,12.918,0,0,0,11.724,0l70.8-41.146c1.6-.931,2.4-2.15,2.408-3.371l-.038,3.312c0,1.221-.806,2.44-2.408,3.371l-70.8,41.147a12.92,12.92,0,0,1-11.724,0L81.9,246.6c-1.634-.943-2.45-2.182-2.446-3.418Z" transform="translate(-57.787 -174.467)" fill="#3a4148"/>
            <path id="Trazado_813956" data-name="Trazado 813956" d="M277.933,138.32c3.249,1.876,3.266,4.916.04,6.791l-70.8,41.146a12.918,12.918,0,0,1-11.724,0L82.033,120.778c-3.247-1.875-3.264-4.915-.038-6.79l70.8-41.146a12.917,12.917,0,0,1,11.722,0Z" transform="translate(-57.887 -51.958)" fill="#666e74"/>
            <path id="Trazado_813957" data-name="Trazado 813957" d="M79.487,186.358c0,1.237.813,2.475,2.446,3.419l113.412,65.479a12.918,12.918,0,0,0,11.724,0l70.8-41.146c1.6-.931,2.4-2.15,2.408-3.371l-.038,13.246c0,1.22-.806,2.44-2.408,3.37l-70.8,41.146a12.92,12.92,0,0,1-11.724,0L81.9,203.022c-1.634-.943-2.45-2.182-2.446-3.419Z" transform="translate(-57.787 -135.547)" fill="#3a4148"/>
            <path id="Trazado_813958" data-name="Trazado 813958" d="M277.933,84.81c3.249,1.876,3.266,4.916.04,6.791l-70.8,41.146a12.919,12.919,0,0,1-11.724,0L82.033,67.268c-3.247-1.875-3.264-4.915-.038-6.79l70.8-41.146a12.917,12.917,0,0,1,11.722,0Z" transform="translate(-57.887 -13.038)" fill="#666e74"/>
            <path id="Trazado_813959" data-name="Trazado 813959" d="M79.487,168.245c0,1.236.813,2.475,2.446,3.419l113.412,65.479a12.918,12.918,0,0,0,11.724,0L277.873,196c1.6-.931,2.4-2.15,2.408-3.371l-.038,3.312c0,1.221-.806,2.44-2.408,3.371l-70.8,41.146a12.919,12.919,0,0,1-11.724,0L81.9,174.976c-1.634-.943-2.45-2.181-2.446-3.419Z" transform="translate(-57.787 -122.373)" fill="#3a4148"/>
            <path id="Trazado_813960" data-name="Trazado 813960" d="M277.98,66.885c3.249,1.876,3.266,4.916.04,6.791l-70.8,41.146a12.92,12.92,0,0,1-11.724,0L82.081,49.342c-3.247-1.874-3.264-4.915-.038-6.79l70.8-41.146a12.916,12.916,0,0,1,11.722,0Z" transform="translate(-57.922 0)" fill="#666e74"/>
            <path id="Trazado_813961" data-name="Trazado 813961" d="M534.544,385a.837.837,0,0,1,.009,1.584L525.74,391.7a3.017,3.017,0,0,1-2.735,0,.837.837,0,0,1-.009-1.584L531.809,385a3.015,3.015,0,0,1,2.735,0" transform="translate(-379.991 -279.79)" fill="#585f64"/>
            <path id="Trazado_813962" data-name="Trazado 813962" d="M329.389,270.494a.837.837,0,0,1,.009,1.584l-8.813,5.116a3.015,3.015,0,0,1-2.736,0,.837.837,0,0,1-.009-1.584l8.813-5.115a3.015,3.015,0,0,1,2.735,0" transform="translate(-230.772 -196.505)" fill="#585f64"/>
            <path id="Trazado_813963" data-name="Trazado 813963" d="M124.234,155.99a.837.837,0,0,1,.009,1.584l-8.813,5.115a3.015,3.015,0,0,1-2.735,0,.837.837,0,0,1-.009-1.584l8.813-5.115a3.017,3.017,0,0,1,2.735,0" transform="translate(-81.553 -113.22)" fill="#585f64"/>
            <path id="Trazado_813964" data-name="Trazado 813964" d="M370.42,293.395a.837.837,0,0,1,.009,1.584l-8.813,5.116a3.014,3.014,0,0,1-2.735,0,.837.837,0,0,1-.009-1.584l8.813-5.115a3.014,3.014,0,0,1,2.735,0" transform="translate(-260.616 -213.161)" fill="#585f64"/>
            <path id="Trazado_813965" data-name="Trazado 813965" d="M165.266,178.891a.837.837,0,0,1,.009,1.584l-8.813,5.116a3.017,3.017,0,0,1-2.735,0,.837.837,0,0,1-.009-1.585l8.813-5.115a3.017,3.017,0,0,1,2.736,0" transform="translate(-111.397 -129.877)" fill="#585f64"/>
            <path id="Trazado_813966" data-name="Trazado 813966" d="M411.451,316.3a.837.837,0,0,1,.009,1.584L402.647,323a3.013,3.013,0,0,1-2.735,0,.837.837,0,0,1-.009-1.584l8.813-5.115a3.018,3.018,0,0,1,2.736,0" transform="translate(-290.46 -229.819)" fill="#585f64"/>
            <path id="Trazado_813967" data-name="Trazado 813967" d="M206.3,201.791a.837.837,0,0,1,.009,1.584l-8.813,5.116a3.017,3.017,0,0,1-2.735,0,.837.837,0,0,1-.009-1.585l8.813-5.115a3.016,3.016,0,0,1,2.736,0" transform="translate(-141.241 -146.534)" fill="#585f64"/>
            <path id="Trazado_813968" data-name="Trazado 813968" d="M452.483,339.2a.837.837,0,0,1,.009,1.584l-8.813,5.116a3.018,3.018,0,0,1-2.736,0,.837.837,0,0,1-.009-1.584l8.813-5.116a3.017,3.017,0,0,1,2.735,0" transform="translate(-320.304 -246.475)" fill="#585f64"/>
            <path id="Trazado_813969" data-name="Trazado 813969" d="M247.327,224.692a.837.837,0,0,1,.009,1.584l-8.813,5.116a3.015,3.015,0,0,1-2.735,0,.837.837,0,0,1-.009-1.584l8.813-5.115a3.013,3.013,0,0,1,2.735,0" transform="translate(-171.084 -163.191)" fill="#585f64"/>
            <path id="Trazado_813970" data-name="Trazado 813970" d="M493.513,362.1a.837.837,0,0,1,.009,1.584l-8.813,5.116a3.017,3.017,0,0,1-2.735,0,.837.837,0,0,1-.009-1.584l8.813-5.116a3.017,3.017,0,0,1,2.735,0" transform="translate(-350.148 -263.132)" fill="#585f64"/>
            <path id="Trazado_813971" data-name="Trazado 813971" d="M288.359,247.594a.837.837,0,0,1,.009,1.584l-8.813,5.115a3.015,3.015,0,0,1-2.735,0,.837.837,0,0,1-.009-1.584l8.813-5.115a3.016,3.016,0,0,1,2.736,0" transform="translate(-200.929 -179.848)" fill="#585f64"/>
            <path id="Trazado_813972" data-name="Trazado 813972" d="M547.42,320.293l70.8-41.146c1.6-.931,2.4-2.15,2.408-3.371l-.038,13.245c0,1.22-.805,2.44-2.408,3.371l-70.8,41.146Z" transform="translate(-398.137 -200.585)" fill="#bdbfc4"/>
            <g id="Grupo_1067893" data-name="Grupo 1067893" transform="translate(24.035 55.534)" opacity="0.21" style="mix-blend-mode: multiply;isolation: isolate">
              <g id="Grupo_1067892" data-name="Grupo 1067892">
                <g id="Grupo_1067891" data-name="Grupo 1067891" clip-path="url(#clip-path-6)">
                  <path id="Trazado_813973" data-name="Trazado 813973" d="M88.183,203.681l111.581,64.561-.03,10.507L88.153,214.187Z" transform="translate(-88.153 -203.681)" fill="#3a4148"/>
                </g>
              </g>
            </g>
            <g id="Grupo_1067896" data-name="Grupo 1067896" transform="translate(35.855 63.45)" opacity="0.77" style="mix-blend-mode: multiply;isolation: isolate">
              <g id="Grupo_1067895" data-name="Grupo 1067895">
                <g id="Grupo_1067894" data-name="Grupo 1067894" clip-path="url(#clip-path-7)">
                  <path id="Trazado_813974" data-name="Trazado 813974" d="M133.006,235.349l4.914,2.917-.03,7.415-4.884-2.815Z" transform="translate(-132.597 -234.63)" fill="none" stroke="#3a4148" stroke-miterlimit="10" stroke-width="3"/>
                </g>
              </g>
            </g>
            <path id="Trazado_813975" data-name="Trazado 813975" d="M393.051,167.066c-1.405.812-1.413,2.127-.016,2.939l11.593,6.737a5.591,5.591,0,0,0,5.073,0l11.668-6.737c1.406-.811,1.414-2.127.017-2.939L409.8,160.329a5.592,5.592,0,0,0-5.076,0Z" transform="translate(-285.115 -116.172)" fill="#f0f1f1"/>
            <path id="Trazado_813976" data-name="Trazado 813976" d="M240.049,310.959l5.659-3.421-1.487-.86-5.659,3.422Z" transform="translate(-173.518 -223.061)" fill="#0067aa"/>
            <path id="Trazado_813977" data-name="Trazado 813977" d="M244,314.54l5.659-3.422,0-1.287-5.659,3.421Z" transform="translate(-177.476 -225.355)" fill="#004069"/>
            <path id="Trazado_813978" data-name="Trazado 813978" d="M247.7,320.107l2.958-1.788-.161-3.285-.834-.482L244,317.973Z" transform="translate(-177.476 -228.788)" fill="#0067aa"/>
            <path id="Trazado_813979" data-name="Trazado 813979" d="M238.562,302.815l5.659-3.422,0-.612-3.534-2.119-2.113,1.277Z" transform="translate(-173.518 -215.776)" fill="#004069"/>
            <path id="Trazado_813980" data-name="Trazado 813980" d="M257.559,330.012l.955-.554,0-1.288-.955.555Z" transform="translate(-187.335 -238.693)" fill="#67686a"/>
            <path id="Trazado_813981" data-name="Trazado 813981" d="M259.06,327.295l1.485-.872-.565-1.4-2.408,1.413Z" transform="translate(-187.345 -236.404)" fill="#0067aa"/>
            <path id="Trazado_813982" data-name="Trazado 813982" d="M245.283,303.717l.955-.555-6.671-3.851-.955.555Z" transform="translate(-173.554 -217.703)" fill="#a5a7aa"/>
            <path id="Trazado_813983" data-name="Trazado 813983" d="M263.027,318.865l.955-.556.014-4.876-.955.555Z" transform="translate(-191.312 -227.975)" fill="#67686a"/>
            <path id="Trazado_813984" data-name="Trazado 813984" d="M243.69,308.091l-8.473-4.892.03-10.663,8.473,4.892Zm-7.561-8.277,1.487.859,0,1.288,3.7,2.133,0-1.287,1.487.859.014-4.877-6.671-3.851Z" transform="translate(-171.085 -212.775)" fill="#005d98"/>
            <path id="Trazado_813985" data-name="Trazado 813985" d="M243.8,295.949l.955-.555-8.473-4.892-.955.555Z" transform="translate(-171.166 -211.296)" fill="#0067aa"/>
            <path id="Trazado_813986" data-name="Trazado 813986" d="M266.293,319.662l.955-.555.03-10.663-.955.555Z" transform="translate(-193.688 -224.346)" fill="#004069"/>
            <path id="Trazado_813987" data-name="Trazado 813987" d="M330.125,365.112l5.739-3.221,0-1.288-5.739,3.221Z" transform="translate(-240.116 -262.284)" fill="#004069"/>
            <path id="Trazado_813988" data-name="Trazado 813988" d="M326.171,361.536l5.739-3.221-1.487-.858-5.74,3.221Z" transform="translate(-236.158 -259.995)" fill="#0067aa"/>
            <path id="Trazado_813989" data-name="Trazado 813989" d="M333.821,370.682l5.739-3.221-3.7-2.134-5.739,3.221Z" transform="translate(-240.116 -265.72)" fill="#0067aa"/>
            <path id="Trazado_813990" data-name="Trazado 813990" d="M324.683,353.061l5.74-3.221,0-.921-3.591-1.934-2.137,1.2Z" transform="translate(-236.158 -252.379)" fill="#004069"/>
            <path id="Trazado_813991" data-name="Trazado 813991" d="M343.679,380.051l.956-.556,0-1.288-.956.555Z" transform="translate(-249.974 -275.089)" fill="#67686a"/>
            <path id="Trazado_813992" data-name="Trazado 813992" d="M345.18,375.507l3.516-2.1-1.487-.859-3.516,2.1Z" transform="translate(-249.984 -270.974)" fill="#0084ce"/>
            <path id="Trazado_813993" data-name="Trazado 813993" d="M356.59,380.258l5.577-3.271,0-1.289-5.577,3.271Z" transform="translate(-259.365 -273.264)" fill="#004069"/>
            <path id="Trazado_813994" data-name="Trazado 813994" d="M352.635,376.68l5.577-3.271-1.487-.859-5.577,3.272Z" transform="translate(-255.407 -270.974)" fill="#0067aa"/>
            <path id="Trazado_813995" data-name="Trazado 813995" d="M331.405,353.754l.955-.555-6.671-3.851-.955.555Z" transform="translate(-236.195 -254.097)" fill="#a5a7aa"/>
            <path id="Trazado_813996" data-name="Trazado 813996" d="M349.148,368.9l.956-.555.014-4.877-.955.555Z" transform="translate(-253.952 -264.371)" fill="#67686a"/>
            <path id="Trazado_813997" data-name="Trazado 813997" d="M360.286,385.829l5.577-3.271-3.7-2.133L356.59,383.7Z" transform="translate(-259.365 -276.701)" fill="#0067aa"/>
            <path id="Trazado_813998" data-name="Trazado 813998" d="M351.148,367.969l5.577-3.272,0-1.091-3.284-1.852-2.282,1.338Z" transform="translate(-255.407 -263.121)" fill="#004069"/>
            <path id="Trazado_813999" data-name="Trazado 813999" d="M371.645,392.2l2.653-1.568-1.486-.859-2.653,1.569Z" transform="translate(-269.234 -283.498)" fill="#0084ce"/>
            <path id="Trazado_814000" data-name="Trazado 814000" d="M383.052,395.453l5.6-3.3,0-1.288-5.6,3.3Z" transform="translate(-278.612 -284.292)" fill="#004069"/>
            <path id="Trazado_814001" data-name="Trazado 814001" d="M379.1,391.873l5.6-3.3-1.488-.859-5.595,3.3Z" transform="translate(-274.655 -282.001)" fill="#0067aa"/>
            <path id="Trazado_814002" data-name="Trazado 814002" d="M375.611,384.183l.955-.555.014-4.876-.955.555Z" transform="translate(-273.2 -275.484)" fill="#67686a"/>
            <path id="Trazado_814003" data-name="Trazado 814003" d="M357.869,369.033l.955-.555-6.67-3.851-.955.555Z" transform="translate(-255.444 -265.211)" fill="#a5a7aa"/>
            <path id="Trazado_814004" data-name="Trazado 814004" d="M386.748,401.021l5.6-3.3-3.7-2.133-5.6,3.3Z" transform="translate(-278.612 -287.727)" fill="#0067aa"/>
            <path id="Trazado_814005" data-name="Trazado 814005" d="M377.611,383.323l5.595-3.3,0-1-3.365-1.881-2.219,1.31Z" transform="translate(-274.654 -274.309)" fill="#004069"/>
            <path id="Trazado_814006" data-name="Trazado 814006" d="M398.109,408.928l.955-.555-.688-1.327-1.754,1.024Z" transform="translate(-288.482 -296.064)" fill="#0084ce"/>
            <path id="Trazado_814007" data-name="Trazado 814007" d="M405.562,407.149l5.725-3.3-1.488-.859-5.725,3.3Z" transform="translate(-293.903 -293.111)" fill="#0067aa"/>
            <path id="Trazado_814008" data-name="Trazado 814008" d="M409.517,410.728l5.725-3.3,0-1.288-5.725,3.3Z" transform="translate(-297.861 -295.402)" fill="#004069"/>
            <path id="Trazado_814009" data-name="Trazado 814009" d="M402.076,399.461l.955-.555.014-4.876-.955.556Z" transform="translate(-292.449 -286.596)" fill="#67686a"/>
            <path id="Trazado_814010" data-name="Trazado 814010" d="M384.332,384.312l.955-.556-6.67-3.851-.955.555Z" transform="translate(-274.692 -276.323)" fill="#a5a7aa"/>
            <path id="Trazado_814011" data-name="Trazado 814011" d="M413.212,416.3l2.6-1.5.169-3.515-.736-.425-5.725,3.3Z" transform="translate(-297.861 -298.838)" fill="#0067aa"/>
            <path id="Trazado_814012" data-name="Trazado 814012" d="M404.076,398.968l5.725-3.3-3.678-2.745-2.033,1.173Z" transform="translate(-293.903 -285.789)" fill="#004069"/>
            <path id="Trazado_814013" data-name="Trazado 814013" d="M424.572,423.122l.955-.555.014-1.734-2.456,1.431Z" transform="translate(-307.73 -306.091)" fill="#0084ce"/>
            <path id="Trazado_814014" data-name="Trazado 814014" d="M410.8,399.591l.955-.555-6.67-3.851-.955.555Z" transform="translate(-293.941 -287.437)" fill="#a5a7aa"/>
            <path id="Trazado_814015" data-name="Trazado 814015" d="M428.54,414.741l.955-.555.014-4.876-.955.555Z" transform="translate(-311.698 -297.71)" fill="#67686a"/>
            <path id="Trazado_814016" data-name="Trazado 814016" d="M351.842,370.852l-29.656-17.122.031-10.663,29.656,17.122Zm-28.975-20.641,1.488.859,0,1.287,3.7,2.134,0-1.288,1.488.859.014-4.877-6.671-3.851Zm21.646,12.5,1.487.859,0,1.287,3.7,2.134,0-1.288,1.487.859.014-4.876-6.67-3.851Zm-7.216-4.166,1.487.859,0,1.288,3.7,2.133,0-1.288,1.487.858.013-4.876-6.67-3.852Zm-7.215-4.165,1.487.858,0,1.288,3.7,2.134,0-1.288,1.487.858.014-4.876L330.1,349.5Z" transform="translate(-234.341 -249.53)" fill="#005d98"/>
            <path id="Trazado_814017" data-name="Trazado 814017" d="M351.954,358.708l.955-.556L323.254,341.03l-.955.555Z" transform="translate(-234.423 -248.047)" fill="#0067aa"/>
            <path id="Trazado_814018" data-name="Trazado 814018" d="M430.955,415.045l.955-.555.03-10.663-.955.556Z" transform="translate(-313.454 -293.722)" fill="#004069"/>
            <path id="Trazado_814019" data-name="Trazado 814019" d="M460.98,436.651a1.028,1.028,0,0,1,1.037.1,3.2,3.2,0,0,1,1.451,2.515,1.02,1.02,0,0,1-.425.934l-2.755,1.6a1.02,1.02,0,0,0,.425-.934,3.2,3.2,0,0,0-1.452-2.515,1.029,1.029,0,0,0-1.037-.1l2.755-1.6" transform="translate(-333.289 -317.526)" fill="#dc8818"/>
            <path id="Trazado_814020" data-name="Trazado 814020" d="M458.129,442.622c-.8-.464-1.459-.091-1.461.833a3.2,3.2,0,0,0,1.452,2.514c.8.465,1.458.092,1.461-.832a3.2,3.2,0,0,0-1.452-2.515" transform="translate(-332.156 -321.795)" fill="#dc8818"/>
            <path id="Trazado_814021" data-name="Trazado 814021" d="M448.55,439.1a1.407,1.407,0,0,1,1.419.139,4.38,4.38,0,0,1,1.987,3.442,1.4,1.4,0,0,1-.582,1.278l-3.771,2.191a1.4,1.4,0,0,0,.582-1.278,4.382,4.382,0,0,0-1.987-3.442,1.408,1.408,0,0,0-1.419-.139l3.771-2.192" transform="translate(-323.509 -319.284)" fill="#fdcd5a"/>
            <path id="Trazado_814022" data-name="Trazado 814022" d="M444.646,447.281c-1.1-.636-2-.125-2,1.14a4.381,4.381,0,0,0,1.987,3.442c1.1.635,2,.125,2-1.14a4.382,4.382,0,0,0-1.987-3.442" transform="translate(-321.958 -325.13)" fill="#dc8818"/>
            <path id="Trazado_814023" data-name="Trazado 814023" d="M100,223.319a1.028,1.028,0,0,1,1.037.1,3.2,3.2,0,0,1,1.451,2.515,1.019,1.019,0,0,1-.425.934l-2.755,1.6a1.02,1.02,0,0,0,.425-.934,3.2,3.2,0,0,0-1.452-2.514,1.028,1.028,0,0,0-1.037-.1l2.755-1.6" transform="translate(-70.734 -162.359)" fill="#dc8818"/>
            <path id="Trazado_814024" data-name="Trazado 814024" d="M97.152,229.291c-.8-.464-1.459-.091-1.461.833a3.2,3.2,0,0,0,1.452,2.514c.8.464,1.458.091,1.461-.833a3.2,3.2,0,0,0-1.452-2.514" transform="translate(-69.601 -166.629)" fill="#dc8818"/>
            <path id="Trazado_814025" data-name="Trazado 814025" d="M87.573,225.774a1.407,1.407,0,0,1,1.419.139,4.38,4.38,0,0,1,1.987,3.442,1.394,1.394,0,0,1-.582,1.278l-3.771,2.191a1.4,1.4,0,0,0,.582-1.278,4.38,4.38,0,0,0-1.987-3.443,1.409,1.409,0,0,0-1.419-.139l3.771-2.191" transform="translate(-60.953 -164.119)" fill="#fdcd5a"/>
            <path id="Trazado_814026" data-name="Trazado 814026" d="M83.67,233.95c-1.1-.636-2-.125-2,1.14a4.38,4.38,0,0,0,1.987,3.442c1.1.636,2,.125,2-1.14a4.382,4.382,0,0,0-1.987-3.442" transform="translate(-59.402 -169.964)" fill="#dc8818"/>
            <path id="Trazado_814027" data-name="Trazado 814027" d="M138.359,249.649a1.269,1.269,0,0,1,.624.191,3.057,3.057,0,0,1,1.387,2.4c0,.625-.316.986-.772.986a1.266,1.266,0,0,1-.624-.191,3.057,3.057,0,0,1-1.387-2.4c0-.626.316-.987.772-.987" transform="translate(-100.074 -181.582)" fill="#1f2328"/>
            <path id="Trazado_814028" data-name="Trazado 814028" d="M178.291,270.942a1.817,1.817,0,0,1,.895.274,4.38,4.38,0,0,1,1.987,3.442c0,.9-.452,1.413-1.106,1.413a1.812,1.812,0,0,1-.894-.273,4.379,4.379,0,0,1-1.987-3.442c0-.9.452-1.413,1.106-1.413m0-1.24a2.408,2.408,0,0,0-2.346,2.65,5.59,5.59,0,0,0,2.607,4.519,3.024,3.024,0,0,0,1.514.44,2.407,2.407,0,0,0,2.346-2.65,5.591,5.591,0,0,0-2.607-4.519A3.026,3.026,0,0,0,178.291,269.7Z" transform="translate(-127.973 -196.167)" fill="#d4d7cd"/>
            <path id="Trazado_814029" data-name="Trazado 814029" d="M181.6,274.25a1.817,1.817,0,0,1,.895.274,4.38,4.38,0,0,1,1.987,3.442c0,.9-.453,1.413-1.106,1.413a1.817,1.817,0,0,1-.894-.273,4.38,4.38,0,0,1-1.987-3.442c0-.9.452-1.414,1.106-1.414" transform="translate(-131.28 -199.475)" fill="#1f2328"/>
          </g>
        </g>
        <g id="Grupo_1067900" data-name="Grupo 1067900" transform="translate(37.513 68.067)">
          <g id="Grupo_1067899" data-name="Grupo 1067899" clip-path="url(#clip-path-8)">
            <path id="Trazado_814030" data-name="Trazado 814030" d="M142.292,250.781a.408.408,0,0,1,.412.04,1.272,1.272,0,0,1,.577,1,.406.406,0,0,1-.169.371l-1.094.636a.405.405,0,0,0,.169-.371,1.272,1.272,0,0,0-.577-1,.408.408,0,0,0-.412-.04l1.095-.636" transform="translate(-140.213 -250.444)" fill="#dc8818"/>
            <path id="Trazado_814031" data-name="Trazado 814031" d="M141.159,253.154c-.32-.185-.58-.037-.58.331a1.27,1.27,0,0,0,.577,1c.32.185.579.037.581-.331a1.271,1.271,0,0,0-.577-1" transform="translate(-139.763 -252.14)" fill="#fdcd5a"/>
          </g>
        </g>
        <g id="Grupo_1067908" data-name="Grupo 1067908">
          <g id="Grupo_1067907" data-name="Grupo 1067907" clip-path="url(#clip-path)">
            <path id="Trazado_814033" data-name="Trazado 814033" d="M406.769,407.825l-4.993-3.064.009,3.064,4.993,3.064Z" transform="translate(-292.231 -294.402)" fill="#c5c5c5"/>
            <path id="Trazado_814034" data-name="Trazado 814034" d="M398.576,399.438,391.9,395.56l-4.886,2.821,6.673,3.877Z" transform="translate(-281.496 -287.71)" fill="#1daad9"/>
            <path id="Trazado_814035" data-name="Trazado 814035" d="M383.88,432.47l-3.789-2.087.007,1.591,3.789,2.214Z" transform="translate(-276.459 -313.037)" fill="#1a98c2"/>
            <path id="Trazado_814036" data-name="Trazado 814036" d="M381.423,433.887l-3.788-2.087.006,1.469,3.789,2.215Z" transform="translate(-274.671 -314.069)" fill="#1a98c2"/>
            <path id="Trazado_814037" data-name="Trazado 814037" d="M383.276,429.262l-3.789-2.087-.223.128,3.789,2.088Z" transform="translate(-275.857 -310.705)" fill="#1daad9"/>
            <path id="Trazado_814038" data-name="Trazado 814038" d="M378.983,435.3l-3.789-2.088.006,1.357,3.789,2.214Z" transform="translate(-272.896 -315.094)" fill="#1a98c2"/>
            <path id="Trazado_814039" data-name="Trazado 814039" d="M380.83,430.68l-3.788-2.087-.219.126,3.789,2.087Z" transform="translate(-274.081 -311.736)" fill="#1daad9"/>
            <path id="Trazado_814040" data-name="Trazado 814040" d="M374.1,435.8l-3.789-2.087.005,1.762,3.788,2.214Z" transform="translate(-269.346 -315.46)" fill="#1a98c2"/>
            <path id="Trazado_814041" data-name="Trazado 814041" d="M376.541,434.392l-3.789-2.088.006,1.875,3.789,2.214Z" transform="translate(-271.121 -314.435)" fill="#1a98c2"/>
            <path id="Trazado_814042" data-name="Trazado 814042" d="M378.39,432.089,374.6,430l-.219.126,3.789,2.088Z" transform="translate(-272.306 -312.76)" fill="#1daad9"/>
            <path id="Trazado_814043" data-name="Trazado 814043" d="M383.847,422.626l-3.789-2.214.007,1.844,3.789,2.087Z" transform="translate(-276.434 -305.786)" fill="#1a98c2"/>
            <path id="Trazado_814044" data-name="Trazado 814044" d="M388.628,409.784l-6.673-3.877-1.9,3.955,3.789,2.214Z" transform="translate(-276.435 -295.235)" fill="#1fb4e7"/>
            <path id="Trazado_814045" data-name="Trazado 814045" d="M375.948,433.5l-3.789-2.088-.219.127,3.789,2.087Z" transform="translate(-270.53 -313.785)" fill="#1daad9"/>
            <path id="Trazado_814046" data-name="Trazado 814046" d="M371.659,437.21l-3.789-2.088.005,1.65,3.788,2.214Z" transform="translate(-267.569 -316.485)" fill="#1a98c2"/>
            <path id="Trazado_814047" data-name="Trazado 814047" d="M381.837,423.266l-3.789-2.214-.447.334,3.789,2.214Z" transform="translate(-274.648 -306.251)" fill="#1fb5e7"/>
            <path id="Trazado_814048" data-name="Trazado 814048" d="M381.391,424.489l-3.789-2.214.006,2.227,3.788,1.583Z" transform="translate(-274.648 -307.141)" fill="#1a98c2"/>
            <path id="Trazado_814049" data-name="Trazado 814049" d="M373.508,434.908l-3.789-2.088-.219.126,3.789,2.087Z" transform="translate(-268.755 -314.811)" fill="#1daad9"/>
            <path id="Trazado_814050" data-name="Trazado 814050" d="M378.952,426.312l-3.789-2.214.006,2.114,3.788,1.582Z" transform="translate(-272.874 -308.467)" fill="#1a98c2"/>
            <path id="Trazado_814051" data-name="Trazado 814051" d="M379.4,425.089l-3.789-2.214-.446.334,3.788,2.214Z" transform="translate(-272.874 -307.577)" fill="#1fb5e7"/>
            <path id="Trazado_814052" data-name="Trazado 814052" d="M369.218,438.283l-3.789-2.214,0,1.664,3.789,2.214Z" transform="translate(-265.794 -317.173)" fill="#1a98c2"/>
            <path id="Trazado_814053" data-name="Trazado 814053" d="M371.066,436.317l-3.789-2.087-.219.126,3.789,2.087Z" transform="translate(-266.979 -315.836)" fill="#1daad9"/>
            <path id="Trazado_814054" data-name="Trazado 814054" d="M376.511,428.135l-3.789-2.214.006,2,3.789,1.582Z" transform="translate(-271.099 -309.793)" fill="#1a98c2"/>
            <path id="Trazado_814055" data-name="Trazado 814055" d="M376.958,426.912l-3.789-2.214-.446.333,3.789,2.214Z" transform="translate(-271.099 -308.903)" fill="#1fb5e7"/>
            <path id="Trazado_814056" data-name="Trazado 814056" d="M369.209,435.539l-3.789-2.213,0,.748,3.789,2.214Z" transform="translate(-265.788 -315.178)" fill="#1a98c2"/>
            <path id="Trazado_814057" data-name="Trazado 814057" d="M374.519,428.734l-3.789-2.214-.446.333,3.789,2.214Z" transform="translate(-269.325 -310.229)" fill="#1fb5e7"/>
            <path id="Trazado_814058" data-name="Trazado 814058" d="M374.072,429.956l-3.789-2.214.005,1.889,3.789,1.583Z" transform="translate(-269.325 -311.117)" fill="#1a98c2"/>
            <path id="Trazado_814059" data-name="Trazado 814059" d="M371.632,431.779l-3.789-2.213.005,1.145,3.788,2.214Z" transform="translate(-267.55 -312.444)" fill="#1a98c2"/>
            <path id="Trazado_814060" data-name="Trazado 814060" d="M372.078,430.555l-3.789-2.214-.447.334,3.789,2.213Z" transform="translate(-267.55 -311.553)" fill="#1fb5e7"/>
            <path id="Trazado_814061" data-name="Trazado 814061" d="M369.638,432.378l-3.789-2.214-.447.334,3.788,2.214Z" transform="translate(-265.775 -312.879)" fill="#1fb5e7"/>
            <path id="Trazado_814062" data-name="Trazado 814062" d="M388.076,412.6l-4.781,2.291.007,1.717-.223.129-.006-1.672-.447.333.006,1.6-.219.126-.006-1.559-.446.334.006,1.483-.219.126-.006-1.446-.447.334.005,1.37-.219.126-.005-1.333-.447.333.005,1.259-.219.126-.005-1.221-.447.333,0,1.146-.219.126,0-1.109-.447.334,0,1.033,0,.875,0,1.032.447-.182,0-1.108.219-.126,0,1.145.447-.182-.005-1.22.219-.126.005,1.257.447-.182-.006-1.333.219-.127.006,1.371.447-.183-.006-1.446.219-.126.006,1.483.447-.182L382.414,418l.219-.127.007,1.6.447-.182-.007-1.672.223-.129.007,1.717,4.785-.991,4.886-2.821-.02-5.61Z" transform="translate(-275.882 -298.054)" fill="#126a87"/>
            <path id="Trazado_814063" data-name="Trazado 814063" d="M369.191,433.6l-3.788-2.214,0,1.033,3.789,2.214Z" transform="translate(-265.775 -313.77)" fill="#1a98c2"/>
            <g id="Grupo_1067903" data-name="Grupo 1067903" transform="translate(107.404 108.977)" opacity="0.21" style="mix-blend-mode: multiply;isolation: isolate">
              <g id="Grupo_1067902" data-name="Grupo 1067902">
                <g id="Grupo_1067901" data-name="Grupo 1067901" clip-path="url(#clip-path-10)">
                  <path id="Trazado_814064" data-name="Trazado 814064" d="M401.673,402.306l-3.251,1.867-4.5-2.615,3.251-1.867Z" transform="translate(-393.922 -399.691)" fill="#3a7c8e"/>
                </g>
              </g>
            </g>
            <path id="Trazado_814065" data-name="Trazado 814065" d="M0,479.522c7.275,1.148,20.027,1.28,26.094,1.316l1.749.011c20.782.176,37.762-14.231,52.754-26.943,7.1-6.02,13.806-11.706,20.514-15.634a.818.818,0,1,1,.827,1.412c-6.585,3.856-13.239,9.5-20.283,15.47-15.116,12.816-32.236,27.332-53.431,27.332l-.395,0-1.745-.011c-6.107-.036-18.687-.09-26.084-1.257Z" transform="translate(0 -318.694)" fill="#126a87"/>
            <path id="Trazado_814066" data-name="Trazado 814066" d="M353.411,378.179l-4.993-3.064.009,3.064,4.993,3.064Z" transform="translate(-253.421 -272.839)" fill="#c5c5c5"/>
            <path id="Trazado_814067" data-name="Trazado 814067" d="M345.218,369.792l-6.672-3.878-4.886,2.821,6.673,3.877Z" transform="translate(-242.686 -266.147)" fill="#1daad9"/>
            <path id="Trazado_814068" data-name="Trazado 814068" d="M330.522,402.824l-3.789-2.087.007,1.591,3.789,2.214Z" transform="translate(-237.649 -291.475)" fill="#1a98c2"/>
            <path id="Trazado_814069" data-name="Trazado 814069" d="M328.065,404.242l-3.789-2.087.006,1.469,3.789,2.215Z" transform="translate(-235.862 -292.506)" fill="#1a98c2"/>
            <path id="Trazado_814070" data-name="Trazado 814070" d="M329.918,399.617l-3.789-2.087-.223.128,3.788,2.088Z" transform="translate(-237.047 -289.142)" fill="#1daad9"/>
            <path id="Trazado_814071" data-name="Trazado 814071" d="M325.625,405.651l-3.789-2.088.006,1.357,3.789,2.214Z" transform="translate(-234.087 -293.531)" fill="#1a98c2"/>
            <path id="Trazado_814072" data-name="Trazado 814072" d="M327.472,401.035l-3.789-2.087-.219.127,3.789,2.087Z" transform="translate(-235.271 -290.173)" fill="#1daad9"/>
            <path id="Trazado_814073" data-name="Trazado 814073" d="M320.743,406.155l-3.789-2.087.005,1.762,3.788,2.214Z" transform="translate(-230.536 -293.898)" fill="#1a98c2"/>
            <path id="Trazado_814074" data-name="Trazado 814074" d="M323.183,404.746l-3.789-2.088.006,1.875,3.789,2.214Z" transform="translate(-232.311 -292.873)" fill="#1a98c2"/>
            <path id="Trazado_814075" data-name="Trazado 814075" d="M325.032,402.443l-3.789-2.088-.219.126,3.789,2.088Z" transform="translate(-233.496 -291.198)" fill="#1daad9"/>
            <path id="Trazado_814076" data-name="Trazado 814076" d="M330.489,392.98l-3.789-2.214.007,1.844L330.5,394.7Z" transform="translate(-237.625 -284.223)" fill="#1a98c2"/>
            <path id="Trazado_814077" data-name="Trazado 814077" d="M335.27,380.139l-6.673-3.877-1.9,3.955,3.789,2.214Z" transform="translate(-237.625 -273.673)" fill="#1fb4e7"/>
            <path id="Trazado_814078" data-name="Trazado 814078" d="M322.59,403.853l-3.788-2.088-.219.127,3.789,2.087Z" transform="translate(-231.72 -292.223)" fill="#1daad9"/>
            <path id="Trazado_814079" data-name="Trazado 814079" d="M318.3,407.564l-3.789-2.088.005,1.65,3.788,2.214Z" transform="translate(-228.76 -294.923)" fill="#1a98c2"/>
            <path id="Trazado_814080" data-name="Trazado 814080" d="M328.479,393.62l-3.789-2.214-.447.334,3.789,2.214Z" transform="translate(-235.838 -284.689)" fill="#1fb5e7"/>
            <path id="Trazado_814081" data-name="Trazado 814081" d="M328.033,394.844l-3.789-2.214.006,2.227,3.788,1.583Z" transform="translate(-235.838 -285.578)" fill="#1a98c2"/>
            <path id="Trazado_814082" data-name="Trazado 814082" d="M320.15,405.263l-3.789-2.088-.219.126,3.789,2.087Z" transform="translate(-229.945 -293.248)" fill="#1daad9"/>
            <path id="Trazado_814083" data-name="Trazado 814083" d="M325.594,396.667l-3.789-2.214.006,2.114,3.788,1.582Z" transform="translate(-234.064 -286.905)" fill="#1a98c2"/>
            <path id="Trazado_814084" data-name="Trazado 814084" d="M326.04,395.443l-3.789-2.214-.446.333,3.788,2.214Z" transform="translate(-234.064 -286.015)" fill="#1fb5e7"/>
            <path id="Trazado_814085" data-name="Trazado 814085" d="M315.86,408.637l-3.789-2.214,0,1.664,3.789,2.214Z" transform="translate(-226.984 -295.611)" fill="#1a98c2"/>
            <path id="Trazado_814086" data-name="Trazado 814086" d="M317.708,406.672l-3.788-2.087-.219.127,3.789,2.087Z" transform="translate(-228.17 -294.273)" fill="#1daad9"/>
            <path id="Trazado_814087" data-name="Trazado 814087" d="M323.153,398.489l-3.789-2.214.006,2,3.789,1.582Z" transform="translate(-232.289 -288.23)" fill="#1a98c2"/>
            <path id="Trazado_814088" data-name="Trazado 814088" d="M323.6,397.266l-3.788-2.214-.447.333,3.788,2.214Z" transform="translate(-232.289 -287.341)" fill="#1fb5e7"/>
            <path id="Trazado_814089" data-name="Trazado 814089" d="M315.851,405.893l-3.788-2.213,0,.748,3.788,2.214Z" transform="translate(-226.978 -293.616)" fill="#1a98c2"/>
            <path id="Trazado_814090" data-name="Trazado 814090" d="M321.161,399.089l-3.789-2.214-.446.333,3.788,2.214Z" transform="translate(-230.515 -288.666)" fill="#1fb5e7"/>
            <path id="Trazado_814091" data-name="Trazado 814091" d="M320.714,400.311l-3.789-2.214.005,1.889,3.789,1.583Z" transform="translate(-230.515 -289.555)" fill="#1a98c2"/>
            <path id="Trazado_814092" data-name="Trazado 814092" d="M318.274,402.133l-3.789-2.213.005,1.145,3.788,2.214Z" transform="translate(-228.74 -290.881)" fill="#1a98c2"/>
            <path id="Trazado_814093" data-name="Trazado 814093" d="M318.72,400.909l-3.789-2.214-.447.334,3.789,2.214Z" transform="translate(-228.74 -289.99)" fill="#1fb5e7"/>
            <path id="Trazado_814094" data-name="Trazado 814094" d="M316.28,402.733l-3.788-2.214-.447.334,3.789,2.214Z" transform="translate(-226.965 -291.316)" fill="#1fb5e7"/>
            <path id="Trazado_814095" data-name="Trazado 814095" d="M334.718,382.957l-4.781,2.291.007,1.717-.223.129-.006-1.672-.447.333.006,1.6-.219.127-.006-1.559-.446.334.006,1.483-.219.126-.006-1.446-.447.334.005,1.37-.219.126-.005-1.333-.447.333.005,1.259-.219.126-.005-1.221-.447.333,0,1.146-.219.127,0-1.109-.447.334,0,1.033,0,.875,0,1.032L326.4,391l0-1.108.219-.126,0,1.145.447-.182-.005-1.22.219-.127.005,1.257.447-.182-.006-1.334.219-.126.006,1.371.447-.183-.006-1.446.219-.126.006,1.483.447-.182-.006-1.559.219-.127.007,1.6.447-.182-.007-1.672.223-.129.007,1.717,4.785-.991,4.886-2.821-.02-5.61Z" transform="translate(-237.072 -276.491)" fill="#126a87"/>
            <path id="Trazado_814096" data-name="Trazado 814096" d="M315.833,403.957l-3.789-2.214,0,1.033,3.789,2.214Z" transform="translate(-226.964 -292.207)" fill="#1a98c2"/>
            <g id="Grupo_1067906" data-name="Grupo 1067906" transform="translate(92.856 100.894)" opacity="0.21" style="mix-blend-mode: multiply;isolation: isolate">
              <g id="Grupo_1067905" data-name="Grupo 1067905">
                <g id="Grupo_1067904" data-name="Grupo 1067904" clip-path="url(#clip-path-11)">
                  <path id="Trazado_814097" data-name="Trazado 814097" d="M348.315,372.66l-3.251,1.867-4.5-2.615,3.251-1.867Z" transform="translate(-340.564 -370.046)" fill="#3a7c8e"/>
                </g>
              </g>
            </g>
            <path id="Trazado_814098" data-name="Trazado 814098" d="M0,452.737c4.152.117,8.344.1,10.977.117.66,0,1.249.007,1.752.011l.378,0c20.6,0,37.475-14.31,52.377-26.945,7.1-6.02,13.806-11.706,20.514-15.634a.818.818,0,0,1,.827,1.412c-6.585,3.856-13.239,9.5-20.283,15.47C51.425,439.987,34.3,454.5,13.11,454.5l-.395,0-1.747-.012c-2.64-.016-6.8,0-10.968-.117Z" transform="translate(0 -298.341)" fill="#126a87"/>
          </g>
        </g>
      </g>
    </g>
  </g>
</svg>
