<svg xmlns="http://www.w3.org/2000/svg" width="222.07" height="204.703" viewBox="0 0 222.07 204.703">
  <g id="Grupo_1070084" data-name="Grupo 1070084" transform="translate(-2744.658 7873.352)">
    <path id="Trazado_816732" data-name="Trazado 816732" d="M102.587,21.636c62.625-5.579,62.726,29.752,90.943,62.67s34.256,47.837,23.618,85.784-46.479,67.689-90.822,50.836-69.744-.666-97.714-15.636-38.35-43.884-17.878-77.963S25.371,28.513,102.587,21.636Z" transform="translate(2744.655 -7894.403)" fill="#fff"/>
    <g id="Grupo_1069979" data-name="Grupo 1069979" transform="translate(-0.456 -0.958)">
      <g id="Grupo_1069977" data-name="Grupo 1069977" transform="translate(2551.089 -8080.13)">
        <rect id="Rect치ngulo_374443" data-name="Rect치ngulo 374443" width="7.98" height="7.98" transform="translate(281.237 290.569) rotate(-45.01)" fill="#a49da2"/>
        <path id="Trazado_816590" data-name="Trazado 816590" d="M221.74,258.75a4.678,4.678,0,0,1,0-6.62l26.67-26.67a4.678,4.678,0,0,1,6.62,0l45.18,45.18a4.678,4.678,0,0,1,0,6.62l-26.67,26.67a4.678,4.678,0,0,1-6.62,0l-45.18-45.18Z" fill="#083755"/>
        <path id="Trazado_816592" data-name="Trazado 816592" d="M316.49,266.64a4.678,4.678,0,0,1,6.62,0l24.79,24.79a4.678,4.678,0,0,1,0,6.62l-51.24,51.24a4.678,4.678,0,0,1-6.62,0l-24.8-24.79a4.7,4.7,0,0,1,0-6.62l51.25-51.24Z" fill="#485a6a"/>
        <path id="Trazado_816593" data-name="Trazado 816593" d="M347.9,291.43l-11.46-11.46-57.87,57.86,11.46,11.46a4.741,4.741,0,0,0,1.16.85l57.55-57.55a4.5,4.5,0,0,0-.85-1.16Z" fill="#d8dade" opacity="0.27"/>
        <path id="Trazado_816594" data-name="Trazado 816594" d="M259.6,247.71a2.414,2.414,0,0,1-3.41,0l-11.7-11.7a2.4,2.4,0,0,1,0-3.4l5.54-5.53a2.4,2.4,0,0,1,3.4,0l11.7,11.7a2.4,2.4,0,0,1,0,3.4Z" fill="#149dcc"/>
        <path id="Trazado_816595" data-name="Trazado 816595" d="M249.05,258.25a2.414,2.414,0,0,1-3.41,0l-11.7-11.7a2.414,2.414,0,0,1,0-3.41l5.54-5.53a2.4,2.4,0,0,1,3.4,0l11.71,11.7a2.4,2.4,0,0,1,0,3.4l-5.53,5.53Z" fill="#149dcc"/>
        <path id="Trazado_816596" data-name="Trazado 816596" d="M238.5,268.8a2.414,2.414,0,0,1-3.41,0l-11.7-11.71a2.4,2.4,0,0,1,0-3.4l5.53-5.53a2.414,2.414,0,0,1,3.41,0l11.7,11.7a2.414,2.414,0,0,1,0,3.41l-5.53,5.53Z" fill="#149dcc"/>
        <path id="Trazado_816597" data-name="Trazado 816597" d="M276.31,264.42a2.4,2.4,0,0,1-3.4,0l-11.7-11.71a2.4,2.4,0,0,1,0-3.4l5.53-5.53a2.414,2.414,0,0,1,3.41,0l11.7,11.7a2.414,2.414,0,0,1,0,3.41l-5.53,5.53Z" fill="#149dcc"/>
        <path id="Trazado_816598" data-name="Trazado 816598" d="M265.77,274.97a2.4,2.4,0,0,1-3.4,0l-11.7-11.7a2.414,2.414,0,0,1,0-3.41l5.53-5.53a2.414,2.414,0,0,1,3.41,0l11.7,11.7a2.4,2.4,0,0,1,0,3.4l-5.53,5.53Z" fill="#149dcc"/>
        <path id="Trazado_816599" data-name="Trazado 816599" d="M255.22,285.51a2.4,2.4,0,0,1-3.4,0l-11.7-11.7a2.414,2.414,0,0,1,0-3.41l5.53-5.53a2.414,2.414,0,0,1,3.41,0l11.7,11.7a2.4,2.4,0,0,1,0,3.4l-5.53,5.53Z" fill="#149dcc"/>
        <path id="Trazado_816600" data-name="Trazado 816600" d="M293.03,281.14a2.4,2.4,0,0,1-3.4,0l-11.7-11.7a2.384,2.384,0,0,1,0-3.4l5.53-5.53a2.414,2.414,0,0,1,3.41,0l11.7,11.7a2.4,2.4,0,0,1,0,3.4Z" fill="#149dcc"/>
        <path id="Trazado_816601" data-name="Trazado 816601" d="M282.49,291.68a2.414,2.414,0,0,1-3.41,0l-11.7-11.71a2.4,2.4,0,0,1,0-3.4l5.53-5.53a2.4,2.4,0,0,1,3.4,0l11.7,11.7a2.4,2.4,0,0,1,0,3.4l-5.53,5.53Z" fill="#149dcc"/>
        <path id="Trazado_816602" data-name="Trazado 816602" d="M271.94,302.23a2.4,2.4,0,0,1-3.4,0l-11.7-11.7a2.4,2.4,0,0,1,0-3.4l5.53-5.53a2.4,2.4,0,0,1,3.4,0l11.71,11.7a2.414,2.414,0,0,1,0,3.41l-5.53,5.53Z" fill="#149dcc"/>
        <rect id="Rect치ngulo_374445" data-name="Rect치ngulo 374445" width="7.98" height="7.98" transform="matrix(0.707, -0.707, 0.707, 0.707, 318.298, 327.663)" fill="#a49da2"/>
        <path id="Trazado_816603" data-name="Trazado 816603" d="M355.79,392.8a4.678,4.678,0,0,0,6.62,0l26.67-26.67a4.7,4.7,0,0,0,0-6.62L343.9,314.33a4.678,4.678,0,0,0-6.62,0L310.61,341a4.678,4.678,0,0,0,0,6.62Z" fill="#083755"/>
        <path id="Trazado_816605" data-name="Trazado 816605" d="M366.84,354.95a2.4,2.4,0,0,0,0,3.4l11.7,11.7a2.414,2.414,0,0,0,3.41,0l5.53-5.53a2.4,2.4,0,0,0,0-3.4l-11.7-11.7a2.4,2.4,0,0,0-3.4,0Z" fill="#149dcc"/>
        <path id="Trazado_816606" data-name="Trazado 816606" d="M356.29,365.49a2.4,2.4,0,0,0,0,3.4l11.7,11.71a2.414,2.414,0,0,0,3.41,0l5.53-5.53a2.414,2.414,0,0,0,0-3.41l-11.7-11.7a2.414,2.414,0,0,0-3.41,0l-5.53,5.53Z" fill="#149dcc"/>
        <path id="Trazado_816607" data-name="Trazado 816607" d="M345.74,376.04a2.414,2.414,0,0,0,0,3.41l11.7,11.7a2.4,2.4,0,0,0,3.4,0l5.53-5.53a2.414,2.414,0,0,0,0-3.41l-11.7-11.7a2.4,2.4,0,0,0-3.4,0Z" fill="#149dcc"/>
        <path id="Trazado_816608" data-name="Trazado 816608" d="M350.12,338.23a2.4,2.4,0,0,0,0,3.4l11.71,11.7a2.414,2.414,0,0,0,3.41,0l5.53-5.53a2.414,2.414,0,0,0,0-3.41l-11.71-11.7a2.4,2.4,0,0,0-3.4,0l-5.54,5.53Z" fill="#149dcc"/>
        <path id="Trazado_816609" data-name="Trazado 816609" d="M339.57,348.77a2.414,2.414,0,0,0,0,3.41l11.7,11.7a2.4,2.4,0,0,0,3.4,0l5.53-5.54a2.4,2.4,0,0,0,0-3.4l-11.7-11.7a2.414,2.414,0,0,0-3.41,0l-5.53,5.53Z" fill="#149dcc"/>
        <path id="Trazado_816610" data-name="Trazado 816610" d="M329.02,359.32a2.4,2.4,0,0,0,0,3.4l11.71,11.7a2.414,2.414,0,0,0,3.41,0l5.53-5.54a2.4,2.4,0,0,0,0-3.4l-11.7-11.7a2.414,2.414,0,0,0-3.41,0l-5.54,5.53Z" fill="#149dcc"/>
        <path id="Trazado_816611" data-name="Trazado 816611" d="M333.4,321.51a2.4,2.4,0,0,0,0,3.4l11.7,11.71a2.414,2.414,0,0,0,3.41,0l5.53-5.53a2.414,2.414,0,0,0,0-3.41l-11.71-11.7a2.4,2.4,0,0,0-3.4,0l-5.53,5.53Z" fill="#149dcc"/>
        <path id="Trazado_816612" data-name="Trazado 816612" d="M322.85,332.05a2.414,2.414,0,0,0,0,3.41l11.7,11.71a2.414,2.414,0,0,0,3.41,0l5.53-5.53a2.4,2.4,0,0,0,0-3.4l-11.71-11.7a2.4,2.4,0,0,0-3.4,0l-5.53,5.53Z" fill="#149dcc"/>
        <path id="Trazado_816613" data-name="Trazado 816613" d="M312.31,342.6a2.4,2.4,0,0,0,0,3.4l11.7,11.71a2.414,2.414,0,0,0,3.41,0l5.53-5.53a2.414,2.414,0,0,0,0-3.41l-11.7-11.7a2.4,2.4,0,0,0-3.4,0l-5.54,5.53Z" fill="#149dcc"/>
        <path id="Trazado_816614" data-name="Trazado 816614" d="M222.71,255.65c1.14,1,2.24,2.05,3.31,3.09a49.321,49.321,0,0,0,10.23,8.1c.91.51,1.83.98,2.76,1.44l5.02-5.02a2.414,2.414,0,0,0,0-3.41l-2.63-2.63q-2-1.155-3.89-2.46a33.071,33.071,0,0,1-7.16-6.34c-.19-.24-.4-.51-.6-.81a2.58,2.58,0,0,0-.83.54l-5.53,5.53a2.364,2.364,0,0,0-.69,1.96Z" fill="#1fb4e7"/>
        <path id="Trazado_816615" data-name="Trazado 816615" d="M277.24,260.53a56.909,56.909,0,0,1-6.57,1.66l2.24,2.24a2.4,2.4,0,0,0,3.4,0l5.53-5.53.03-.03c-1.52.62-3.07,1.18-4.63,1.67Z" fill="#1fb4e7"/>
        <path id="Trazado_816616" data-name="Trazado 816616" d="M271.3,266.03l-3.4-3.4a41.509,41.509,0,0,1-12.14-.11,37.434,37.434,0,0,1-5.75-1.42,2.4,2.4,0,0,0,.66,2.17l11.7,11.7a2.4,2.4,0,0,0,3.4,0l5.53-5.53a2.4,2.4,0,0,0,0-3.4Z" fill="#1fb4e7"/>
        <path id="Trazado_816617" data-name="Trazado 816617" d="M259.3,275.12l-10.24-10.24a2.414,2.414,0,0,0-3.41,0l-4.45,4.44A94.5,94.5,0,0,0,259.3,275.12Z" fill="#1fb4e7"/>
        <path id="Trazado_816618" data-name="Trazado 816618" d="M250.5,283.04c1.45.93,2.91,1.86,4.39,2.75a2.2,2.2,0,0,0,.34-.28l5.53-5.53a2.225,2.225,0,0,0,.57-.92c-.85-.17-1.68-.35-2.52-.53a88.7,88.7,0,0,1-19.39-6.33,2.435,2.435,0,0,0,.7,1.6l7,7c1.11.79,2.26,1.52,3.39,2.24Z" fill="#1fb4e7"/>
        <path id="Trazado_816619" data-name="Trazado 816619" d="M277.93,269.44l7.66,7.66a84.584,84.584,0,0,0,13.45-4.22,2.327,2.327,0,0,0-.47-.67l-11.7-11.7a2.414,2.414,0,0,0-3.41,0l-5.53,5.53a2.384,2.384,0,0,0,0,3.4Z" fill="#1fb4e7"/>
        <path id="Trazado_816620" data-name="Trazado 816620" d="M289.84,281.32a2.393,2.393,0,0,0,3.19-.19l.44-.44a36.181,36.181,0,0,1-3.63.62Z" fill="#fff"/>
        <path id="Trazado_816621" data-name="Trazado 816621" d="M273,277.74a43.206,43.206,0,0,0,9.85-.15l-6.54-6.54a2.4,2.4,0,0,0-3.4,0l-5.53,5.53c-.05.05-.09.1-.14.15,1.87.36,3.79.7,5.76,1Z" fill="#1fb4e7"/>
        <path id="Trazado_816622" data-name="Trazado 816622" d="M288.02,282.75l-1.17-1.17a70.36,70.36,0,0,1-12.89-.68c-2.13-.14-4.26-.39-6.37-.7l11.5,11.5a2.414,2.414,0,0,0,3.41,0l5.53-5.53a2.4,2.4,0,0,0,0-3.4Z" fill="#1fb4e7"/>
        <path id="Trazado_816623" data-name="Trazado 816623" d="M263.21,289.93a59.668,59.668,0,0,0,14.04,3.14l-11.48-11.48a2.4,2.4,0,0,0-3.4,0L256.96,287A41.864,41.864,0,0,0,263.21,289.93Z" fill="#1fb4e7"/>
        <path id="Trazado_816624" data-name="Trazado 816624" d="M366.84,358.35l6.74,6.74a60.513,60.513,0,0,0,8.1-2.2c1.83-.67,3.61-1.42,5.37-2.2l-11.28-11.28a2.4,2.4,0,0,0-3.4,0l-5.54,5.53a2.4,2.4,0,0,0,0,3.4Z" fill="#1fb4e7"/>
        <path id="Trazado_816625" data-name="Trazado 816625" d="M378.09,369.6l.45.45a2.414,2.414,0,0,0,3.41,0l1.82-1.82c-1.87.53-3.77.98-5.68,1.37Z" fill="#1fb4e7"/>
        <path id="Trazado_816626" data-name="Trazado 816626" d="M376.93,371.66l-1.56-1.56a71.927,71.927,0,0,1-10.64.96c-2.16.03-4.32-.03-6.48-.21l9.74,9.74a2.414,2.414,0,0,0,3.41,0l5.53-5.53a2.414,2.414,0,0,0,0-3.41Z" fill="#1fb4e7"/>
        <path id="Trazado_816627" data-name="Trazado 816627" d="M370.89,365.62l-5.66-5.66a2.414,2.414,0,0,0-3.41,0l-5.53,5.53a2.307,2.307,0,0,0-.58.95A60.334,60.334,0,0,0,370.89,365.62Z" fill="#1fb4e7"/>
        <path id="Trazado_816628" data-name="Trazado 816628" d="M354.75,380.08a57.872,57.872,0,0,0,11.6,2.09L354.68,370.5l-.04-.04c-.9-.12-1.79-.27-2.69-.44a2.408,2.408,0,0,0-.68.48l-5.53,5.53s-.06.07-.1.11a32.707,32.707,0,0,0,9.11,3.94Z" fill="#1fb4e7"/>
        <path id="Trazado_816629" data-name="Trazado 816629" d="M360.15,351.66l1.67,1.68a2.414,2.414,0,0,0,3.41,0l5.53-5.53a2.248,2.248,0,0,0,.46-.66,54.7,54.7,0,0,1-11.08,4.51Z" fill="#1fb4e7"/>
        <path id="Trazado_816630" data-name="Trazado 816630" d="M360.21,354.95l-2.64-2.64a43.114,43.114,0,0,1-4.52.78c-1.59.19-10.61-.01-13.18-.61l11.4,11.4a2.4,2.4,0,0,0,3.4,0l5.53-5.54a2.4,2.4,0,0,0,0-3.4Z" fill="#1fb4e7"/>
        <path id="Trazado_816631" data-name="Trazado 816631" d="M335.09,361.44a88.42,88.42,0,0,0,14.77,4.27c-.06-.07-.12-.15-.19-.22l-11.7-11.7a2.414,2.414,0,0,0-3.41,0l-5.14,5.14a47.866,47.866,0,0,0,5.67,2.51Z" fill="#1fb4e7"/>
        <path id="Trazado_816632" data-name="Trazado 816632" d="M343.71,374.76a2.655,2.655,0,0,0,.42-.33l4.99-4.99c-1.45-.34-2.89-.74-4.31-1.2-3.62-1.18-7.12-2.68-10.65-4.07-1.97-.78-3.86-1.77-5.78-2.63a2.473,2.473,0,0,0,.64,1.2l8.33,8.33a59.693,59.693,0,0,0,6.36,3.71Z" fill="#1fb4e7"/>
        <path id="Trazado_816633" data-name="Trazado 816633" d="M327.35,357.78s.05-.04.07-.06l5.53-5.53a2.4,2.4,0,0,0,.71-1.8,62.011,62.011,0,0,1-10.33-6.02c-1.52-1.08-3-2.2-4.48-3.34a21.033,21.033,0,0,1-2.58-2.36l-3.95,3.95a2.4,2.4,0,0,0,0,3.4l6.02,6.02c3.56,3.57,8.25,5.3,9.02,5.75Z" fill="#1fb4e7"/>
        <path id="Trazado_816634" data-name="Trazado 816634" d="M242.5,330.33c4.82-4.83,24.95-6.28,36.47,5.24s10.07,31.64,5.24,36.47Z" fill="#1b212b"/>
        <path id="Trazado_816635" data-name="Trazado 816635" d="M281.42,340.48a34.682,34.682,0,0,1,.32,7.27,18.032,18.032,0,0,1-5.1,11.72,13.962,13.962,0,0,1-2.87,2.13l10.43,10.43c4.51-4.51,6.06-22.39-3.17-34.11.18.87.27,1.77.37,2.55Z" fill="#272e39"/>
        <path id="Trazado_816636" data-name="Trazado 816636" d="M271.93,330.83a26.94,26.94,0,0,0-6.97-2.42,31.3,31.3,0,0,0-13.28.27,58.677,58.677,0,0,0-8.13,2.7l4.18,4.18a38.24,38.24,0,0,1,7.39-3.23,31.648,31.648,0,0,1,13.49-1.37,43.533,43.533,0,0,1,5.39.97c-.7-.36-1.37-.76-2.07-1.1Z" fill="#fff" opacity="0.4"/>
        <path id="Trazado_816637" data-name="Trazado 816637" d="M267.9,346.64c11.52,11.52,18.82,22.89,16.31,25.4s-13.88-4.79-25.4-16.31-18.82-22.89-16.31-25.4S256.38,335.13,267.9,346.64Z" fill="#4e5e7b"/>
        <path id="Trazado_816638" data-name="Trazado 816638" d="M267.9,346.64c-.89-.89-1.78-1.75-2.67-2.59-1.91,3.72-5.25,6.62-9.77,6.58a12.175,12.175,0,0,1-1.6-.12c1.54,1.71,3.19,3.46,4.95,5.22,11.52,11.52,22.89,18.82,25.4,16.31s-4.79-13.88-16.31-25.4Z" fill="#364050"/>
        <path id="Trazado_816639" data-name="Trazado 816639" d="M267.9,346.64c.67.67,1.32,1.33,1.96,2l-9.58,8.54-9.74,8.69-1.87-1.86,8.69-9.74,8.54-9.58c.66.64,1.33,1.29,1.99,1.96Z" fill="#a49da2"/>
        <path id="Trazado_816640" data-name="Trazado 816640" d="M251.34,361.52l.61.55s10.65-10.65,15.95-15.42c-.6-.6-1.2-1.18-1.79-1.76l-14.77,16.64Z" fill="#fff" opacity="0.4"/>
        <path id="Trazado_816641" data-name="Trazado 816641" d="M252.87,361.67a4.617,4.617,0,1,0,0,6.53A4.623,4.623,0,0,0,252.87,361.67Z" fill="#a49da2"/>
        <path id="Trazado_816642" data-name="Trazado 816642" d="M251.52,361.64a2.305,2.305,0,1,0,0,3.26A2.306,2.306,0,0,0,251.52,361.64Z" fill="#fff" opacity="0.4"/>
        <path id="Trazado_816643" data-name="Trazado 816643" d="M328.44,271.96l-5.33-5.32a4.728,4.728,0,0,0-1.97-1.18l-57.06,57.06a4.545,4.545,0,0,0,1.17,1.97l5.33,5.32,57.87-57.86Z" fill="#fff" opacity="0.29"/>
        <path id="Trazado_816644" data-name="Trazado 816644" d="M326.12,269.65l-3.01-3.01c-.1-.1-.2-.18-.3-.27L264.98,324.2c.09.1.17.21.26.3l3.01,3.01,57.86-57.86Z" fill="#fff" opacity="0.08"/>
      </g>
      <g id="Grupo_1069978" data-name="Grupo 1069978" transform="translate(2644.879 -7935.293) rotate(45)">
        <path id="Trazado_816692" data-name="Trazado 816692" d="M320.636,67.657l-1.766-1.766a6.419,6.419,0,0,0,0-9.072l1.769-1.769a8.923,8.923,0,0,1,0,12.6Z" transform="translate(-48.99 -15.932)" fill="#a7d8e7"/>
        <path id="Trazado_816693" data-name="Trazado 816693" d="M333.069,63.608,331.3,61.839a12.35,12.35,0,0,0,0-17.45l1.769-1.769a14.854,14.854,0,0,1,0,20.985Z" transform="translate(-57.231 -7.691)" fill="#a7d8e7"/>
        <path id="Trazado_816694" data-name="Trazado 816694" d="M344.49,56.909l-1.59-1.587a16.059,16.059,0,0,0,0-22.712l1.59-1.59a18.3,18.3,0,0,1,0,25.886Z" transform="translate(-64.53 1.457)" fill="#a7d8e7"/>
        <path id="Trazado_816695" data-name="Trazado 816695" d="M281.583,67.664a8.923,8.923,0,0,1,0-12.6l1.769,1.769a6.419,6.419,0,0,0,0,9.069Z" transform="translate(-22.541 -15.939)" fill="#a7d8e7"/>
        <path id="Trazado_816696" data-name="Trazado 816696" d="M265.727,63.608a14.84,14.84,0,0,1,0-20.988l1.769,1.769a12.35,12.35,0,0,0,0,17.45Z" transform="translate(-10.873 -7.691)" fill="#a7d8e7"/>
        <path id="Trazado_816697" data-name="Trazado 816697" d="M250.7,58.662a19.538,19.538,0,0,1,0-27.632l1.7,1.7a17.142,17.142,0,0,0,0,24.244l-1.694,1.694Z" transform="translate(0.157 0.577)" fill="#a7d8e7"/>
      </g>
    </g>
  </g>
</svg>
