<svg xmlns="http://www.w3.org/2000/svg" xmlns:xlink="http://www.w3.org/1999/xlink" width="400" height="299" viewBox="0 0 400 299">
  <defs>
    <clipPath id="clip-path">
      <rect id="Rectángulo_374102" data-name="Rectángulo 374102" width="400" height="299" transform="translate(1020 6262)" fill="#ff6148" stroke="#707070" stroke-width="1" opacity="0.33"/>
    </clipPath>
    <linearGradient id="linear-gradient" x1="0.5" x2="0.5" y2="1" gradientUnits="objectBoundingBox">
      <stop offset="0" stop-color="#fff"/>
      <stop offset="1" stop-color="#d2e6ee"/>
    </linearGradient>
    <filter id="Trazado_124134" x="162.097" y="26.161" width="109.992" height="249.658" filterUnits="userSpaceOnUse">
      <feOffset dy="3" input="SourceAlpha"/>
      <feGaussianBlur stdDeviation="3" result="blur"/>
      <feFlood flood-opacity="0.161"/>
      <feComposite operator="in" in2="blur"/>
      <feComposite in="SourceGraphic"/>
    </filter>
  </defs>
  <g id="Enmascarar_grupo_1067900" data-name="Enmascarar grupo 1067900" transform="translate(-1020 -6262)" clip-path="url(#clip-path)">
    <g id="Grupo_155404" data-name="Grupo 155404" transform="translate(1073 6262.141)">
      <g id="Grupo_155319" data-name="Grupo 155319" transform="translate(0 101.114)" opacity="0.158">
        <path id="Trazado_183874" data-name="Trazado 183874" d="M529.7,148.2l-25.263-14.586L529.7,119.032l25.264,14.587Zm-23.475-14.586L529.7,147.172l23.475-13.553L529.7,120.066Z" transform="translate(-260.738 -119.03)" fill="#173d7a"/>
        <path id="Trazado_183875" data-name="Trazado 183875" d="M469.344,148.2,444.08,133.618l25.263-14.586.223.13,25.041,14.457Zm-23.475-14.587,23.475,13.554,23.475-13.553-23.476-13.553Z" transform="translate(-249.123 -119.03)" fill="#173d7a"/>
        <path id="Trazado_183876" data-name="Trazado 183876" d="M499.521,165.628l-25.264-14.586,25.264-14.587,25.263,14.587Zm-23.475-14.586,23.475,13.553L523,151.042l-23.475-13.553Z" transform="translate(-254.93 -122.383)" fill="#173d7a"/>
        <path id="Trazado_183877" data-name="Trazado 183877" d="M529.7,183.051l-.223-.129-25.041-14.457L529.7,153.878l.224.129,25.041,14.458Zm-23.475-14.586L529.7,182.018l23.476-13.553L529.7,154.911Z" transform="translate(-260.738 -125.737)" fill="#173d7a"/>
        <path id="Trazado_183878" data-name="Trazado 183878" d="M408.989,148.2l-.223-.129-25.041-14.457,25.263-14.587.224.13,25.041,14.457Zm-23.475-14.586,23.475,13.553,23.476-13.553-23.476-13.553Z" transform="translate(-237.508 -119.03)" fill="#173d7a"/>
        <path id="Trazado_183879" data-name="Trazado 183879" d="M439.167,165.627l-.223-.129L413.9,151.041l25.263-14.587,25.264,14.588Zm-23.475-14.586,23.475,13.553,23.475-13.552-23.475-13.554Z" transform="translate(-243.315 -122.383)" fill="#173d7a"/>
        <path id="Trazado_183880" data-name="Trazado 183880" d="M469.345,183.05l-.223-.129-25.041-14.457,25.263-14.586,25.263,14.587ZM445.87,168.464l23.475,13.553,23.474-13.552-23.475-13.554Z" transform="translate(-249.123 -125.737)" fill="#173d7a"/>
        <path id="Trazado_183881" data-name="Trazado 183881" d="M499.522,200.474l-25.264-14.588L499.521,171.3l.223.129,25.041,14.457Zm-23.475-14.588,23.475,13.555L523,185.887l-23.476-13.553Z" transform="translate(-254.931 -129.09)" fill="#173d7a"/>
        <path id="Trazado_183882" data-name="Trazado 183882" d="M529.7,217.9l-.223-.129L504.435,203.31,529.7,188.724l.224.129,25.041,14.457ZM506.224,203.31,529.7,216.863l23.475-13.553L529.7,189.757Z" transform="translate(-260.738 -132.443)" fill="#173d7a"/>
        <path id="Trazado_183883" data-name="Trazado 183883" d="M348.635,148.2l-25.264-14.587,25.263-14.586.223.13L373.9,133.618ZM325.16,133.617l23.475,13.554,23.475-13.553-23.476-13.553Z" transform="translate(-225.893 -119.03)" fill="#173d7a"/>
        <path id="Trazado_183884" data-name="Trazado 183884" d="M378.813,165.627l-.224-.129-25.041-14.457,25.264-14.587.223.129,25.041,14.458Zm-23.476-14.586,23.476,13.553,23.475-13.553-23.475-13.553Z" transform="translate(-231.7 -122.383)" fill="#173d7a"/>
        <path id="Trazado_183885" data-name="Trazado 183885" d="M408.99,183.05l-.223-.129-25.041-14.457,25.263-14.587.224.129,25.041,14.458Zm-23.476-14.586,23.476,13.553,23.475-13.553L408.989,154.91Z" transform="translate(-237.508 -125.736)" fill="#173d7a"/>
        <path id="Trazado_183886" data-name="Trazado 183886" d="M439.168,200.473l-.223-.129L413.9,185.886,439.167,171.3l.224.129,25.04,14.457Zm-23.476-14.587,23.476,13.554,23.475-13.554-23.475-13.553Z" transform="translate(-243.316 -129.089)" fill="#173d7a"/>
        <path id="Trazado_183887" data-name="Trazado 183887" d="M469.345,217.9l-25.263-14.587,25.263-14.586,25.263,14.587Zm-23.475-14.587,23.475,13.553L492.82,203.31l-23.475-13.554Z" transform="translate(-249.124 -132.443)" fill="#173d7a"/>
        <path id="Trazado_183888" data-name="Trazado 183888" d="M499.523,235.32l-25.265-14.588,25.264-14.585.223.129,25.041,14.457Zm-23.476-14.588,23.476,13.554L523,220.733,499.522,207.18Z" transform="translate(-254.931 -135.796)" fill="#173d7a"/>
        <path id="Trazado_183889" data-name="Trazado 183889" d="M529.7,252.742l-.223-.129-25.041-14.457L529.7,223.569l.224.13,25.041,14.457Zm-23.476-14.586L529.7,251.709l23.475-13.553L529.7,224.6Z" transform="translate(-260.739 -139.149)" fill="#173d7a"/>
        <path id="Trazado_183890" data-name="Trazado 183890" d="M288.28,148.2l-.223-.129-25.041-14.457,25.263-14.587.224.13,25.041,14.457ZM264.8,133.617,288.28,147.17l23.475-13.553-23.476-13.553Z" transform="translate(-214.277 -119.03)" fill="#173d7a"/>
        <path id="Trazado_183891" data-name="Trazado 183891" d="M318.458,165.626l-.223-.129L293.194,151.04l25.263-14.587,25.264,14.588ZM294.983,151.04l23.475,13.553,23.475-13.552-23.475-13.554Z" transform="translate(-220.085 -122.383)" fill="#173d7a"/>
        <path id="Trazado_183892" data-name="Trazado 183892" d="M348.636,183.049l-.223-.129-25.041-14.457,25.263-14.586.223.129L373.9,168.464Zm-23.475-14.586,23.475,13.553,23.475-13.552L348.635,154.91Z" transform="translate(-225.893 -125.736)" fill="#173d7a"/>
        <path id="Trazado_183893" data-name="Trazado 183893" d="M378.814,200.473l-25.265-14.588L378.813,171.3l.223.129,25.041,14.457Zm-23.476-14.588,23.476,13.555,23.475-13.554-23.475-13.553Z" transform="translate(-231.7 -129.089)" fill="#173d7a"/>
        <path id="Trazado_183894" data-name="Trazado 183894" d="M408.991,217.9l-.223-.129-25.041-14.458,25.263-14.586.224.129,25.041,14.457Zm-23.475-14.587,23.475,13.553,23.476-13.553L408.99,189.756Z" transform="translate(-237.508 -132.443)" fill="#173d7a"/>
        <path id="Trazado_183895" data-name="Trazado 183895" d="M439.168,235.319,413.9,220.732l25.263-14.586,25.263,14.586Zm-23.475-14.587,23.475,13.553,23.475-13.553-23.475-13.553Z" transform="translate(-243.316 -135.796)" fill="#173d7a"/>
        <path id="Trazado_183896" data-name="Trazado 183896" d="M469.346,252.741l-.224-.129-25.04-14.457,25.263-14.587,25.264,14.588Zm-23.475-14.586,23.475,13.553,23.475-13.552L469.345,224.6Z" transform="translate(-249.124 -139.148)" fill="#173d7a"/>
        <path id="Trazado_183897" data-name="Trazado 183897" d="M499.524,270.164l-.224-.129-25.041-14.457,25.264-14.586.223.129,25.041,14.458Zm-23.476-14.586,23.476,13.553L523,255.579l-23.475-13.553Z" transform="translate(-254.931 -142.502)" fill="#173d7a"/>
        <path id="Trazado_183898" data-name="Trazado 183898" d="M529.7,287.588,504.437,273,529.7,258.415l.224.129L554.964,273ZM506.226,273,529.7,286.555,553.177,273,529.7,259.448Z" transform="translate(-260.739 -145.855)" fill="#173d7a"/>
        <path id="Trazado_183899" data-name="Trazado 183899" d="M227.926,148.2l-.223-.129-25.041-14.457,25.263-14.586.223.13,25.041,14.457Zm-23.475-14.586,23.475,13.553L251.4,133.617l-23.475-13.553Z" transform="translate(-202.662 -119.03)" fill="#173d7a"/>
        <path id="Trazado_183900" data-name="Trazado 183900" d="M258.1,165.626,232.84,151.039,258.1,136.453l.223.129,25.041,14.458Zm-23.476-14.587L258.1,164.593l23.475-13.553L258.1,137.487Z" transform="translate(-208.47 -122.383)" fill="#173d7a"/>
        <path id="Trazado_183901" data-name="Trazado 183901" d="M288.281,183.049l-.223-.129-25.041-14.457,25.263-14.587.224.129,25.041,14.458Zm-23.475-14.586,23.475,13.553,23.475-13.553L288.28,154.909Z" transform="translate(-214.277 -125.736)" fill="#173d7a"/>
        <path id="Trazado_183902" data-name="Trazado 183902" d="M318.459,200.472l-.223-.129-25.041-14.458L318.458,171.3l.224.129,25.041,14.457Zm-23.475-14.587,23.475,13.554,23.475-13.554-23.475-13.553Z" transform="translate(-220.085 -129.089)" fill="#173d7a"/>
        <path id="Trazado_183903" data-name="Trazado 183903" d="M348.637,217.895l-.224-.129-25.04-14.458,25.263-14.586L373.9,203.309Zm-23.475-14.587,23.475,13.554,23.475-13.553-23.475-13.554Z" transform="translate(-225.893 -132.442)" fill="#173d7a"/>
        <path id="Trazado_183904" data-name="Trazado 183904" d="M378.815,235.318l-.224-.129L353.55,220.731l25.264-14.585.223.129,25.041,14.457Zm-23.476-14.587,23.476,13.553,23.475-13.552-23.476-13.553Z" transform="translate(-231.7 -135.796)" fill="#173d7a"/>
        <path id="Trazado_183905" data-name="Trazado 183905" d="M408.992,252.741l-25.264-14.587,25.263-14.586,25.264,14.587Zm-23.475-14.587,23.475,13.554,23.475-13.553L408.991,224.6Z" transform="translate(-237.508 -139.148)" fill="#173d7a"/>
        <path id="Trazado_183906" data-name="Trazado 183906" d="M439.169,270.164l-25.263-14.586,25.263-14.587.223.129,25.041,14.457Zm-23.475-14.586,23.475,13.553,23.475-13.553-23.475-13.553Z" transform="translate(-243.316 -142.502)" fill="#173d7a"/>
        <path id="Trazado_183907" data-name="Trazado 183907" d="M469.347,287.587l-.224-.129L444.083,273l25.263-14.587.223.129L494.611,273ZM445.872,273l23.475,13.553L492.822,273l-23.475-13.554Z" transform="translate(-249.124 -145.855)" fill="#173d7a"/>
        <path id="Trazado_183908" data-name="Trazado 183908" d="M499.525,305.01l-.224-.129L474.26,290.423l25.264-14.586,25.264,14.587Zm-23.476-14.587,23.476,13.554L523,290.424,499.524,276.87Z" transform="translate(-254.931 -149.208)" fill="#173d7a"/>
        <path id="Trazado_183909" data-name="Trazado 183909" d="M529.7,322.434l-25.264-14.588L529.7,293.261l.224.129,25.041,14.457Zm-23.475-14.588L529.7,321.4l23.475-13.553L529.7,294.294Z" transform="translate(-260.739 -152.561)" fill="#173d7a"/>
        <path id="Trazado_183910" data-name="Trazado 183910" d="M227.927,183.048l-.223-.129-25.041-14.457,25.263-14.587,25.264,14.588Zm-23.475-14.586,23.475,13.553L251.4,168.463l-23.476-13.555Z" transform="translate(-202.662 -125.736)" fill="#173d7a"/>
        <path id="Trazado_183911" data-name="Trazado 183911" d="M258.1,200.472,232.84,185.884,258.1,171.3l.223.129,25.041,14.457Zm-23.476-14.588L258.1,199.439l23.475-13.554L258.1,172.332Z" transform="translate(-208.47 -129.089)" fill="#173d7a"/>
        <path id="Trazado_183912" data-name="Trazado 183912" d="M288.282,217.895l-.223-.129-25.041-14.458,25.263-14.586.224.129,25.041,14.457Zm-23.475-14.587,23.475,13.554,23.475-13.554-23.476-13.553Z" transform="translate(-214.278 -132.442)" fill="#173d7a"/>
        <path id="Trazado_183913" data-name="Trazado 183913" d="M318.46,235.318l-.223-.129L293.2,220.731l25.263-14.586.223.129,25.041,14.457Zm-23.475-14.587,23.475,13.553,23.475-13.553-23.475-13.553Z" transform="translate(-220.085 -135.795)" fill="#173d7a"/>
        <path id="Trazado_183914" data-name="Trazado 183914" d="M348.638,252.741l-.224-.13-25.04-14.457,25.263-14.586.223.129L373.9,238.154Zm-23.475-14.587,23.475,13.553,23.475-13.553L348.637,224.6Z" transform="translate(-225.893 -139.148)" fill="#173d7a"/>
        <path id="Trazado_183915" data-name="Trazado 183915" d="M378.816,270.163l-.224-.129-25.041-14.457,25.264-14.587,25.264,14.588ZM355.34,255.577l23.476,13.553,23.475-13.552-23.475-13.554Z" transform="translate(-231.701 -142.501)" fill="#173d7a"/>
        <path id="Trazado_183916" data-name="Trazado 183916" d="M408.992,287.587,383.729,273l25.263-14.586L434.257,273ZM385.518,273l23.475,13.554L432.468,273l-23.476-13.554Z" transform="translate(-237.508 -145.855)" fill="#173d7a"/>
        <path id="Trazado_183917" data-name="Trazado 183917" d="M439.17,305.01l-.223-.129-25.041-14.458,25.263-14.586.223.129,25.041,14.457Zm-23.475-14.587,23.475,13.554,23.475-13.554L439.169,276.87Z" transform="translate(-243.316 -149.208)" fill="#173d7a"/>
        <path id="Trazado_183918" data-name="Trazado 183918" d="M469.348,322.433l-.224-.129-25.04-14.458,25.263-14.586.223.129,25.041,14.457Zm-23.476-14.587L469.348,321.4l23.475-13.554-23.475-13.553Z" transform="translate(-249.124 -152.561)" fill="#173d7a"/>
        <path id="Trazado_183919" data-name="Trazado 183919" d="M499.526,339.856l-.224-.129-25.041-14.457,25.264-14.586,25.264,14.587ZM476.05,325.269l23.476,13.553L523,325.27l-23.476-13.554Z" transform="translate(-254.931 -155.914)" fill="#173d7a"/>
        <path id="Trazado_183920" data-name="Trazado 183920" d="M529.7,357.279l-.223-.13-25.041-14.457L529.7,328.106l.224.13,25.04,14.457Zm-23.475-14.587L529.7,356.245l23.476-13.552L529.7,329.14Z" transform="translate(-260.739 -159.267)" fill="#173d7a"/>
        <path id="Trazado_183921" data-name="Trazado 183921" d="M227.928,217.894l-.223-.129-25.041-14.458,25.263-14.586,25.264,14.587Zm-23.475-14.587,23.475,13.554L251.4,203.308l-23.475-13.554Z" transform="translate(-202.662 -132.442)" fill="#173d7a"/>
        <path id="Trazado_183922" data-name="Trazado 183922" d="M258.106,235.317l-.224-.129L232.841,220.73l25.264-14.585.223.129,25.041,14.457ZM234.63,220.73l23.476,13.553,23.475-13.552-23.475-13.553Z" transform="translate(-208.47 -135.795)" fill="#173d7a"/>
        <path id="Trazado_183923" data-name="Trazado 183923" d="M288.283,252.741l-25.264-14.588,25.263-14.585.224.129,25.041,14.457Zm-23.475-14.588,23.475,13.554,23.476-13.553L288.282,224.6Z" transform="translate(-214.278 -139.148)" fill="#173d7a"/>
        <path id="Trazado_183924" data-name="Trazado 183924" d="M318.461,270.163l-.223-.129L293.2,255.577,318.46,240.99l.223.129,25.041,14.458Zm-23.476-14.586,23.476,13.553,23.475-13.553L318.46,242.024Z" transform="translate(-220.085 -142.501)" fill="#173d7a"/>
        <path id="Trazado_183925" data-name="Trazado 183925" d="M348.639,287.586l-.224-.129L323.375,273l25.263-14.587.223.129L373.9,273ZM325.164,273l23.475,13.553L372.114,273l-23.475-13.553Z" transform="translate(-225.893 -145.855)" fill="#173d7a"/>
        <path id="Trazado_183926" data-name="Trazado 183926" d="M378.816,305.009l-25.264-14.586,25.264-14.587,25.263,14.587Zm-23.475-14.586,23.475,13.553,23.475-13.553-23.475-13.554Z" transform="translate(-231.701 -149.208)" fill="#173d7a"/>
        <path id="Trazado_183927" data-name="Trazado 183927" d="M408.993,322.432l-.223-.129-25.041-14.458,25.263-14.585.224.129,25.04,14.457Zm-23.475-14.587L408.993,321.4l23.476-13.553-23.476-13.553Z" transform="translate(-237.508 -152.561)" fill="#173d7a"/>
        <path id="Trazado_183928" data-name="Trazado 183928" d="M439.171,339.856l-25.264-14.588,25.263-14.585.223.129,25.041,14.457ZM415.7,325.268l23.475,13.554,23.475-13.553L439.17,311.716Z" transform="translate(-243.316 -155.914)" fill="#173d7a"/>
        <path id="Trazado_183929" data-name="Trazado 183929" d="M469.349,357.279l-.224-.13-25.04-14.457,25.263-14.586.223.129,25.041,14.457Zm-23.476-14.587,23.476,13.553,23.475-13.553-23.475-13.553Z" transform="translate(-249.124 -159.267)" fill="#173d7a"/>
        <path id="Trazado_183930" data-name="Trazado 183930" d="M227.929,252.74l-.224-.13-25.041-14.457,25.263-14.586.223.129,25.041,14.457Zm-23.475-14.587,23.475,13.553L251.4,238.153,227.928,224.6Z" transform="translate(-202.663 -139.148)" fill="#173d7a"/>
        <path id="Trazado_183931" data-name="Trazado 183931" d="M258.107,270.162l-.224-.129-25.041-14.457,25.264-14.587,25.264,14.588Zm-23.476-14.586,23.476,13.553,23.475-13.552-23.475-13.554Z" transform="translate(-208.47 -142.501)" fill="#173d7a"/>
        <path id="Trazado_183932" data-name="Trazado 183932" d="M288.284,287.586,263.02,273l25.263-14.586.224.129L313.548,273ZM264.809,273l23.476,13.554L311.76,273l-23.476-13.553Z" transform="translate(-214.278 -145.855)" fill="#173d7a"/>
        <path id="Trazado_183933" data-name="Trazado 183933" d="M318.462,305.009l-.223-.129L293.2,290.423l25.263-14.587.223.129,25.041,14.457Zm-23.476-14.586,23.476,13.553,23.475-13.553-23.476-13.554Z" transform="translate(-220.086 -149.208)" fill="#173d7a"/>
        <path id="Trazado_183934" data-name="Trazado 183934" d="M348.64,322.432l-.224-.129-25.04-14.458,25.263-14.586L373.9,307.845Zm-23.476-14.587L348.64,321.4l23.474-13.554-23.475-13.553Z" transform="translate(-225.894 -152.561)" fill="#173d7a"/>
        <path id="Trazado_183935" data-name="Trazado 183935" d="M378.817,339.855l-25.264-14.587,25.263-14.586.223.129,25.041,14.457Zm-23.476-14.587,23.476,13.553,23.475-13.553-23.475-13.553Z" transform="translate(-231.701 -155.914)" fill="#173d7a"/>
        <path id="Trazado_183936" data-name="Trazado 183936" d="M408.994,357.278l-.223-.13L383.73,342.691l25.263-14.586,25.264,14.587Zm-23.476-14.587,23.476,13.553,23.475-13.552-23.476-13.554Z" transform="translate(-237.509 -159.267)" fill="#173d7a"/>
        <path id="Trazado_183937" data-name="Trazado 183937" d="M227.93,287.585l-.224-.129L202.666,273l25.263-14.587.223.129L253.194,273ZM204.455,273l23.475,13.553L251.4,273l-23.475-13.553Z" transform="translate(-202.663 -145.854)" fill="#173d7a"/>
        <path id="Trazado_183938" data-name="Trazado 183938" d="M258.108,305.008l-.224-.129-25.041-14.457,25.264-14.587,25.264,14.587Zm-23.476-14.586,23.476,13.553,23.475-13.552-23.475-13.555Z" transform="translate(-208.47 -149.207)" fill="#173d7a"/>
        <path id="Trazado_183939" data-name="Trazado 183939" d="M288.285,322.431l-.223-.129-25.041-14.458,25.263-14.585.224.129,25.04,14.457ZM264.81,307.844,288.285,321.4l23.475-13.553-23.476-13.553Z" transform="translate(-214.278 -152.561)" fill="#173d7a"/>
        <path id="Trazado_183940" data-name="Trazado 183940" d="M318.463,339.855,293.2,325.267l25.263-14.585.223.129,25.041,14.457Zm-23.475-14.588,23.475,13.554,23.475-13.553-23.476-13.553Z" transform="translate(-220.086 -155.914)" fill="#173d7a"/>
        <path id="Trazado_183941" data-name="Trazado 183941" d="M348.64,357.278l-25.263-14.587,25.263-14.586L373.9,342.691Zm-23.475-14.587,23.475,13.553,23.475-13.553L348.64,329.138Z" transform="translate(-225.894 -159.267)" fill="#173d7a"/>
        <path id="Trazado_183942" data-name="Trazado 183942" d="M227.931,322.431l-.224-.129-25.04-14.458,25.263-14.586.223.129,25.041,14.457Zm-23.476-14.587L227.931,321.4l23.475-13.554L227.93,294.291Z" transform="translate(-202.663 -152.56)" fill="#173d7a"/>
        <path id="Trazado_183943" data-name="Trazado 183943" d="M258.109,339.854l-.224-.129-25.041-14.457,25.264-14.586.223.129,25.041,14.457Zm-23.476-14.587,23.476,13.553,23.475-13.553-23.475-13.553Z" transform="translate(-208.471 -155.913)" fill="#173d7a"/>
        <path id="Trazado_183944" data-name="Trazado 183944" d="M288.286,357.277l-.223-.13L263.022,342.69,288.285,328.1l25.264,14.587ZM264.811,342.69l23.476,13.553,23.475-13.552-23.476-13.554Z" transform="translate(-214.278 -159.267)" fill="#173d7a"/>
        <path id="Trazado_183945" data-name="Trazado 183945" d="M227.932,357.277l-.224-.13-25.04-14.457L227.931,328.1l.223.129L253.2,342.69ZM204.456,342.69l23.476,13.553,23.475-13.553-23.475-13.553Z" transform="translate(-202.663 -159.267)" fill="#173d7a"/>
      </g>
      <g id="Grupo_155324" data-name="Grupo 155324" transform="translate(30.569)">
        <g id="Grupo_155318" data-name="Grupo 155318" transform="translate(0 0)">
          <g id="Grupo_57205" data-name="Grupo 57205">
            <g id="Grupo_57154" data-name="Grupo 57154" transform="translate(0 18.746)">
              <g id="Grupo_57153" data-name="Grupo 57153">
                <g id="Grupo_57145" data-name="Grupo 57145" transform="translate(45.874 163.715)">
                  <path id="Trazado_124086" data-name="Trazado 124086" d="M1764.155,1064.547l-4.446,2.567v-9.44l4.446-2.567Z" transform="translate(-1755.263 -1052.54)" fill="#00223d"/>
                  <path id="Trazado_124087" data-name="Trazado 124087" d="M1741.35,1067.114l-4.446-2.567v-9.44l4.446,2.567Z" transform="translate(-1736.905 -1052.54)" fill="url(#linear-gradient)"/>
                  <path id="Trazado_124088" data-name="Trazado 124088" d="M1745.8,1044.508l-4.446,2.567-4.446-2.567,4.446-2.567Z" transform="translate(-1736.905 -1041.941)" fill="#b8d4f5"/>
                </g>
                <g id="Grupo_57146" data-name="Grupo 57146" transform="translate(96.931 137.501)">
                  <path id="Trazado_124089" data-name="Trazado 124089" d="M2026.048,930.083l-4.446,2.567v-9.44l4.446-2.567Z" transform="translate(-2017.157 -918.076)" fill="#679ae2"/>
                  <path id="Trazado_124090" data-name="Trazado 124090" d="M2003.243,932.65l-4.446-2.567v-9.44l4.446,2.567Z" transform="translate(-1998.797 -918.076)" fill="#b8d4f5"/>
                  <path id="Trazado_124091" data-name="Trazado 124091" d="M2007.689,910.043l-4.446,2.567-4.446-2.567,4.446-2.567Z" transform="translate(-1998.797 -907.476)" fill="#b8d4f5"/>
                </g>
                <g id="Grupo_57147" data-name="Grupo 57147" transform="translate(2.708 138.784)">
                  <path id="Trazado_124092" data-name="Trazado 124092" d="M1542.738,936.663l-4.446,2.567v-9.44l4.446-2.567Z" transform="translate(-1533.846 -924.656)" fill="#00223d"/>
                  <path id="Trazado_124093" data-name="Trazado 124093" d="M1519.933,939.23l-4.446-2.567v-9.44l4.446,2.567Z" transform="translate(-1515.487 -924.656)" fill="url(#linear-gradient)"/>
                  <path id="Trazado_124094" data-name="Trazado 124094" d="M1524.379,916.623l-4.446,2.567-4.446-2.567,4.446-2.567Z" transform="translate(-1515.487 -914.057)" fill="#b8d4f5"/>
                </g>
                <path id="Trazado_124095" data-name="Trazado 124095" d="M1829.3,474.031,1775.84,504.9V391.373l53.464-30.868Z" transform="translate(-1722.375 -329.638)" fill="url(#linear-gradient)"/>
                <path id="Trazado_124096" data-name="Trazado 124096" d="M1555.06,504.9l-53.465-30.868V360.505l53.465,30.868Z" transform="translate(-1501.595 -329.637)" fill="url(#linear-gradient)"/>
                <path id="Trazado_124097" data-name="Trazado 124097" d="M1608.524,233.038l-53.465,30.868-53.464-30.868,53.465-30.868Z" transform="translate(-1501.595 -202.17)" fill="url(#linear-gradient)"/>
                <path id="Trazado_124098" data-name="Trazado 124098" d="M1640.7,257.553l-43.182,24.931-43.182-24.931,43.182-24.931Z" transform="translate(-1544.056 -226.685)" fill="#00223d"/>
                <g id="Grupo_57148" data-name="Grupo 57148" transform="translate(3.145 38.22)">
                  <path id="Trazado_124099" data-name="Trazado 124099" d="M1564.9,435.34,1517.726,408.1v-9.887l47.175,27.237Z" transform="translate(-1517.726 -398.216)" fill="#00223d"/>
                  <path id="Trazado_124100" data-name="Trazado 124100" d="M1564.9,485.341,1517.726,458.1v-2.051L1564.9,483.29Z" transform="translate(-1517.726 -444.778)" fill="#00223d"/>
                  <path id="Trazado_124101" data-name="Trazado 124101" d="M1564.9,502.985l-47.175-27.237V473.7l47.175,27.236Z" transform="translate(-1517.726 -458.982)" fill="#00223d"/>
                  <path id="Trazado_124102" data-name="Trazado 124102" d="M1744.621,567.972c0,.637-.447.9-1,.577a2.208,2.208,0,0,1-1-1.73c0-.637.447-.9,1-.576A2.207,2.207,0,0,1,1744.621,567.972Z" transform="translate(-1698.78 -533.375)" fill="url(#linear-gradient)"/>
                  <path id="Trazado_124103" data-name="Trazado 124103" d="M1744.621,552.762c0,.637-.447.9-1,.577a2.208,2.208,0,0,1-1-1.73c0-.637.447-.9,1-.577A2.208,2.208,0,0,1,1744.621,552.762Z" transform="translate(-1698.78 -521.13)" fill="url(#linear-gradient)"/>
                  <path id="Trazado_124104" data-name="Trazado 124104" d="M1744.621,537.552c0,.637-.447.9-1,.576a2.208,2.208,0,0,1-1-1.73c0-.637.447-.895,1-.577A2.207,2.207,0,0,1,1744.621,537.552Z" transform="translate(-1698.78 -508.886)" fill="url(#linear-gradient)"/>
                </g>
                <g id="Grupo_57149" data-name="Grupo 57149" transform="translate(3.145 60.221)">
                  <path id="Trazado_124105" data-name="Trazado 124105" d="M1564.9,548.2l-47.175-27.237v-9.887l47.175,27.237Z" transform="translate(-1517.726 -511.073)" fill="#00223d"/>
                  <path id="Trazado_124106" data-name="Trazado 124106" d="M1564.9,598.2l-47.175-27.236v-2.051l47.175,27.237Z" transform="translate(-1517.726 -557.634)" fill="#00223d"/>
                  <path id="Trazado_124107" data-name="Trazado 124107" d="M1564.9,615.842l-47.175-27.237v-2.051L1564.9,613.79Z" transform="translate(-1517.726 -571.839)" fill="#00223d"/>
                  <path id="Trazado_124108" data-name="Trazado 124108" d="M1744.621,680.829c0,.637-.447.9-1,.576a2.208,2.208,0,0,1-1-1.73c0-.637.447-.895,1-.576A2.208,2.208,0,0,1,1744.621,680.829Z" transform="translate(-1698.78 -646.232)" fill="url(#linear-gradient)"/>
                  <path id="Trazado_124109" data-name="Trazado 124109" d="M1744.621,665.618c0,.637-.447.895-1,.577a2.208,2.208,0,0,1-1-1.73c0-.637.447-.895,1-.576A2.207,2.207,0,0,1,1744.621,665.618Z" transform="translate(-1698.78 -633.987)" fill="url(#linear-gradient)"/>
                  <path id="Trazado_124110" data-name="Trazado 124110" d="M1744.621,650.408c0,.637-.447.9-1,.577a2.208,2.208,0,0,1-1-1.73c0-.637.447-.9,1-.577A2.207,2.207,0,0,1,1744.621,650.408Z" transform="translate(-1698.78 -621.742)" fill="url(#linear-gradient)"/>
                </g>
                <g id="Grupo_57150" data-name="Grupo 57150" transform="translate(3.145 82.223)">
                  <path id="Trazado_124111" data-name="Trazado 124111" d="M1564.9,661.053l-47.175-27.237v-9.887l47.175,27.236Z" transform="translate(-1517.726 -623.929)" fill="#00223d"/>
                  <path id="Trazado_124112" data-name="Trazado 124112" d="M1564.9,711.054l-47.175-27.237v-2.051L1564.9,709Z" transform="translate(-1517.726 -670.49)" fill="#00223d"/>
                  <path id="Trazado_124113" data-name="Trazado 124113" d="M1564.9,728.7l-47.175-27.237V699.41l47.175,27.236Z" transform="translate(-1517.726 -684.695)" fill="#00223d"/>
                  <path id="Trazado_124114" data-name="Trazado 124114" d="M1744.621,793.685c0,.637-.447.9-1,.577a2.208,2.208,0,0,1-1-1.73c0-.637.447-.9,1-.577A2.207,2.207,0,0,1,1744.621,793.685Z" transform="translate(-1698.78 -759.088)" fill="url(#linear-gradient)"/>
                  <path id="Trazado_124115" data-name="Trazado 124115" d="M1744.621,778.475c0,.637-.447.9-1,.576a2.207,2.207,0,0,1-1-1.729c0-.637.447-.9,1-.577A2.208,2.208,0,0,1,1744.621,778.475Z" transform="translate(-1698.78 -746.844)" fill="url(#linear-gradient)"/>
                  <path id="Trazado_124116" data-name="Trazado 124116" d="M1744.621,763.264c0,.637-.447.895-1,.577a2.208,2.208,0,0,1-1-1.73c0-.637.447-.9,1-.576A2.207,2.207,0,0,1,1744.621,763.264Z" transform="translate(-1698.78 -734.598)" fill="url(#linear-gradient)"/>
                </g>
                <g id="Grupo_57151" data-name="Grupo 57151" transform="translate(3.145 104.224)">
                  <path id="Trazado_124117" data-name="Trazado 124117" d="M1564.9,773.909l-47.175-27.237v-9.887l47.175,27.237Z" transform="translate(-1517.726 -736.786)" fill="#00223d"/>
                  <path id="Trazado_124118" data-name="Trazado 124118" d="M1564.9,823.91l-47.175-27.237v-2.051l47.175,27.236Z" transform="translate(-1517.726 -783.347)" fill="#00223d"/>
                  <path id="Trazado_124119" data-name="Trazado 124119" d="M1564.9,841.554l-47.175-27.237v-2.051L1564.9,839.5Z" transform="translate(-1517.726 -797.551)" fill="#00223d"/>
                  <path id="Trazado_124120" data-name="Trazado 124120" d="M1744.621,906.541c0,.637-.447.9-1,.577a2.208,2.208,0,0,1-1-1.73c0-.637.447-.895,1-.576A2.207,2.207,0,0,1,1744.621,906.541Z" transform="translate(-1698.78 -871.945)" fill="url(#linear-gradient)"/>
                  <path id="Trazado_124121" data-name="Trazado 124121" d="M1744.621,891.331c0,.637-.447.9-1,.577a2.208,2.208,0,0,1-1-1.73c0-.637.447-.9,1-.576A2.207,2.207,0,0,1,1744.621,891.331Z" transform="translate(-1698.78 -859.7)" fill="url(#linear-gradient)"/>
                  <path id="Trazado_124122" data-name="Trazado 124122" d="M1744.621,876.121c0,.637-.447.9-1,.576a2.207,2.207,0,0,1-1-1.729c0-.637.447-.9,1-.577A2.207,2.207,0,0,1,1744.621,876.121Z" transform="translate(-1698.78 -847.455)" fill="url(#linear-gradient)"/>
                </g>
                <g id="Grupo_57152" data-name="Grupo 57152" transform="translate(3.145 126.226)">
                  <path id="Trazado_124123" data-name="Trazado 124123" d="M1564.9,886.766l-47.175-27.237v-9.887l47.175,27.237Z" transform="translate(-1517.726 -849.642)" fill="#00223d"/>
                  <path id="Trazado_124124" data-name="Trazado 124124" d="M1564.9,936.767l-47.175-27.237v-2.051l47.175,27.237Z" transform="translate(-1517.726 -896.203)" fill="#00223d"/>
                  <path id="Trazado_124125" data-name="Trazado 124125" d="M1564.9,954.411l-47.175-27.237v-2.052l47.175,27.237Z" transform="translate(-1517.726 -910.408)" fill="#00223d"/>
                  <path id="Trazado_124126" data-name="Trazado 124126" d="M1744.621,1019.4c0,.637-.447.895-1,.576a2.208,2.208,0,0,1-1-1.73c0-.637.447-.9,1-.577A2.208,2.208,0,0,1,1744.621,1019.4Z" transform="translate(-1698.78 -984.801)" fill="url(#linear-gradient)"/>
                  <path id="Trazado_124127" data-name="Trazado 124127" d="M1744.621,1004.188c0,.637-.447.895-1,.576a2.207,2.207,0,0,1-1-1.73c0-.637.447-.895,1-.577A2.207,2.207,0,0,1,1744.621,1004.188Z" transform="translate(-1698.78 -972.556)" fill="url(#linear-gradient)"/>
                  <path id="Trazado_124128" data-name="Trazado 124128" d="M1744.621,988.977c0,.637-.447.9-1,.577a2.208,2.208,0,0,1-1-1.73c0-.637.447-.895,1-.576A2.207,2.207,0,0,1,1744.621,988.977Z" transform="translate(-1698.78 -960.311)" fill="url(#linear-gradient)"/>
                </g>
              </g>
            </g>
            <g id="Grupo_57160" data-name="Grupo 57160" transform="translate(87.528 21.077)">
              <path id="Trazado_124130" data-name="Trazado 124130" d="M2050.321,263.425l-84.839-48.982a1.735,1.735,0,0,0-1.626-.19h0a1.285,1.285,0,0,0-.177.1l-7.962,4.509,6.768,8.78.36-.095v168.1h0v4.845c0,3.326,2.022,7.189,4.516,8.629L2045,453.94l-4.99,3.57,5.53,5.45,8.331-4.689a2.283,2.283,0,0,0,.972-2.164V449.9h0V276.941h0v-4.886C2054.838,268.728,2052.816,264.865,2050.321,263.425Z" transform="translate(-1954.714 -214.127)" fill="#00223d"/>
              <g id="Grupo_57156" data-name="Grupo 57156" transform="translate(0 4.606)">
                <path id="Trazado_124131" data-name="Trazado 124131" d="M2039.922,481.727l-84.839-48.982c-2.494-1.44-4.516-5.3-4.516-8.629V240.063c0-1.942,1.18-2.834,2.637-1.993l84.839,48.982c2.494,1.44,4.516,5.3,4.516,8.629V479.734C2042.559,481.676,2041.378,482.568,2039.922,481.727Z" transform="translate(-1950.567 -237.754)" fill="#d7e4ff"/>
                <path id="Trazado_124132" data-name="Trazado 124132" d="M2039.922,1246.372l-84.839-48.982c-2.494-1.44-4.516-5.3-4.516-8.629v.962c0,3.326,2.022,7.189,4.516,8.629l84.839,48.982c1.456.841,2.636-.052,2.636-1.993v-.962C2042.559,1246.32,2041.378,1247.213,2039.922,1246.372Z" transform="translate(-1950.567 -1003.36)" fill="#a9c2ff"/>
                <g id="Grupo_57155" data-name="Grupo 57155" transform="translate(36.88 22.85)">
                  <path id="Trazado_124133" data-name="Trazado 124133" d="M2158.145,366.933l-17.682-10.208a1.592,1.592,0,0,1-.719-1.247h0c0-.459.322-.645.719-.415l17.682,10.209a1.591,1.591,0,0,1,.72,1.246h0C2158.865,366.976,2158.543,367.162,2158.145,366.933Z" transform="translate(-2139.744 -354.964)" fill="#00223d"/>
                </g>
                <g transform="matrix(1, 0, 0, 1, -171.1, -25.82)" filter="url(#Trazado_124134)">
                  <path id="Trazado_124134-2" data-name="Trazado 124134" d="M2040.017,501.612l-86.054-49.683a8.134,8.134,0,0,1-3.4-6.489V272.485c0-1.872,1.138-2.732,2.542-1.922l86.054,49.683a8.134,8.134,0,0,1,3.4,6.489V499.69C2042.559,501.562,2041.421,502.422,2040.017,501.612Z" transform="translate(-1779.47 -238.1)" fill="url(#linear-gradient)"/>
                </g>
              </g>
              <path id="Trazado_124135" data-name="Trazado 124135" d="M2038.042,287.052,1953.2,238.07c-1.456-.841-2.636.052-2.636,1.993v3.056c0-1.942,1.18-2.834,2.636-1.993l84.839,48.982c2.494,1.44,4.516,5.3,4.516,8.629v-3.055C2042.559,292.355,2040.536,288.492,2038.042,287.052Z" transform="translate(-1950.567 -233.148)" fill="#fff" opacity="0.53" style="mix-blend-mode: screen;isolation: isolate"/>
              <g id="Grupo_57159" data-name="Grupo 57159" transform="translate(94.193 84.559)">
                <g id="Grupo_57157" data-name="Grupo 57157">
                  <path id="Trazado_124136" data-name="Trazado 124136" d="M2435.558,675.247l-.238.137c-.879.508-1.591-.031-1.591-1.2V651.24a3.811,3.811,0,0,1,1.591-3.041l.238-.137c.879-.507,1.591.031,1.591,1.2v22.941A3.811,3.811,0,0,1,2435.558,675.247Z" transform="translate(-2433.729 -647.871)" fill="#21587b"/>
                  <path id="Trazado_124137" data-name="Trazado 124137" d="M2435.558,824.7l-.238.137c-.879.507-1.591-.031-1.591-1.2V812.816a3.811,3.811,0,0,1,1.591-3.041l.238-.137c.879-.508,1.591.031,1.591,1.2v10.822A3.812,3.812,0,0,1,2435.558,824.7Z" transform="translate(-2433.729 -777.948)" fill="#21587b"/>
                </g>
                <g id="Grupo_57158" data-name="Grupo 57158" transform="translate(0.773)">
                  <path id="Trazado_124138" data-name="Trazado 124138" d="M2439.52,675.247l-.237.137c-.879.508-1.592-.031-1.592-1.2V651.24a3.811,3.811,0,0,1,1.592-3.041l.237-.137c.879-.507,1.592.031,1.592,1.2v22.941A3.81,3.81,0,0,1,2439.52,675.247Z" transform="translate(-2437.692 -647.871)" fill="url(#linear-gradient)"/>
                  <path id="Trazado_124139" data-name="Trazado 124139" d="M2439.52,824.7l-.237.137c-.879.507-1.592-.031-1.592-1.2V812.816a3.81,3.81,0,0,1,1.592-3.041l.237-.137c.879-.508,1.592.031,1.592,1.2v10.822A3.811,3.811,0,0,1,2439.52,824.7Z" transform="translate(-2437.692 -777.948)" fill="url(#linear-gradient)"/>
                </g>
              </g>
              <path id="Trazado_124140" data-name="Trazado 124140" d="M2346.445,431.732a1.383,1.383,0,0,1,0,2.62,5.013,5.013,0,0,1-4.537,0,1.383,1.383,0,0,1,0-2.62A5.014,5.014,0,0,1,2346.445,431.732Z" transform="translate(-2264.859 -388.873)" fill="url(#linear-gradient)"/>
              <path id="Trazado_124258" data-name="Trazado 124258" d="M2.179,0c1.2,0,2.179.563,2.179,1.258S3.383,2.516,2.179,2.516,0,1.953,0,1.258.976,0,2.179,0Z" transform="translate(77.138 43.01)" fill="#00223d"/>
              <path id="Trazado_124141" data-name="Trazado 124141" d="M2341.915,432.383a5.015,5.015,0,0,1,4.537,0,1.815,1.815,0,0,1,.888.985c.177-.576-.118-1.19-.888-1.635a5.014,5.014,0,0,0-4.537,0c-.77.445-1.065,1.06-.888,1.635A1.817,1.817,0,0,1,2341.915,432.383Z" transform="translate(-2264.866 -388.873)" fill="#21587b"/>
            </g>
            <g id="Grupo_57163" data-name="Grupo 57163" transform="translate(107.725 125.798)">
              <g id="Grupo_57161" data-name="Grupo 57161">
                <path id="Trazado_124142" data-name="Trazado 124142" d="M2081.863,773.842l1.8-1.036c.9-.457.678-.608-.214-4.292a2.048,2.048,0,0,0-1.286-1.5c-1.376-.278-1.6-.156-2.334-1.7a1.312,1.312,0,0,1-.008-1.4l.62-.627c.331-.335.23-1.131-.226-1.777-3.182-4.507-2.423-3.743-4.647-2.614a2.486,2.486,0,0,1-.792-.61c-.863-.8-.725-1.652-.725-2.757a2.256,2.256,0,0,0-1.021-1.768c-2.905-1.678-2.736-1.747-3.416-1.3-.016.008-.4.227-.415.238,0,0-1.683.969-1.776,1.018l-.612-1.327c-.332-.718-.97-1.2-1.426-1.084-1.81.473-2.019.477-2.377.741-.014.008-4.861,2.792-4.874,2.8-.467.263-.4.894-.211,1.371-.02.015-2.56,1.474-2.56,1.474-.438.261-.26-.014-1.146,2.624a2.048,2.048,0,0,0,.655,1.864c.931.887,1.538,1.32,1.678,2.24-.015.008-1.58.907-1.594.917-1.146.583-.935.523.006,4.412a2.048,2.048,0,0,0,1.287,1.5c1.378.278,1.6.156,2.334,1.7a1.312,1.312,0,0,1,.008,1.4l-.619.627c-.332.335-.23,1.131.226,1.777,3.187,4.515,2.416,3.737,4.647,2.613a2.49,2.49,0,0,1,.792.61c.863.8.725,1.654.725,2.757a2.257,2.257,0,0,0,1.021,1.768l2.412,1.392c.656.378.646.014,3.2-1.353l.613,1.327c.331.718.969,1.2,1.426,1.084,1.607-.42,2.042-.452,2.636-.89l4.666-2.682c.331-.186.4-.737.159-1.342.021-.015,2.56-1.473,2.56-1.473.437-.26.257.023,1.146-2.624a2.048,2.048,0,0,0-.656-1.864C2082.618,775.2,2082,774.765,2081.863,773.842Zm-15.912-10.36c3.768,1.708,6.927,7.2,6.514,11.3C2068.707,773.079,2065.537,767.6,2065.951,763.482Z" transform="translate(-2054.168 -751.288)" fill="#00223d"/>
                <path id="Trazado_124143" data-name="Trazado 124143" d="M2078.3,791.523l-.993-.946a2.271,2.271,0,0,1-.705-1.551c0-.058,0-.116,0-.174s0-.117,0-.176c-.009-.525.278-.823.705-.737l.993.2c.536.108.83-.387.655-1.107l-.745-3.079a2.047,2.047,0,0,0-1.286-1.5l-1-.2a1.891,1.891,0,0,1-1.151-1.107q-.089-.2-.18-.391a1.313,1.313,0,0,1-.009-1.4l.62-.627c.332-.335.23-1.131-.226-1.777l-1.951-2.763c-.456-.646-1.094-.9-1.426-.562l-.615.622c-.262.265-.729.168-1.152-.24q-.147-.142-.3-.28a2.284,2.284,0,0,1-.725-1.547v-1.21a2.257,2.257,0,0,0-1.021-1.768l-2.412-1.392c-.563-.326-1.021-.062-1.021.589v1.21c0,.519-.294.808-.725.71-.1-.023-.2-.043-.3-.062a1.869,1.869,0,0,1-1.152-1.089l-.615-1.332c-.331-.718-.97-1.2-1.426-1.084l-1.951.51c-.457.119-.558.8-.226,1.516l.619,1.343a1.288,1.288,0,0,1-.009,1.394q-.092.089-.18.183c-.258.275-.724.185-1.151-.221l-1-.955c-.536-.51-1.112-.5-1.287.014l-.745,2.218a2.048,2.048,0,0,0,.655,1.864l.994.946a2.271,2.271,0,0,1,.705,1.551c0,.058,0,.116,0,.174s0,.117,0,.176c.01.525-.277.823-.705.737l-.994-.2c-.536-.108-.83.387-.655,1.107l.745,3.079a2.048,2.048,0,0,0,1.287,1.5l1,.2a1.89,1.89,0,0,1,1.15,1.107q.089.2.18.391a1.311,1.311,0,0,1,.009,1.4l-.619.627c-.332.335-.231,1.131.226,1.777l1.951,2.763c.456.646,1.094.9,1.426.563l.615-.622c.262-.265.729-.168,1.152.24.1.095.2.188.3.28a2.284,2.284,0,0,1,.725,1.547v1.21a2.257,2.257,0,0,0,1.021,1.768l2.412,1.392c.564.325,1.021.062,1.021-.589v-1.21c0-.519.294-.808.725-.71q.149.034.3.062a1.869,1.869,0,0,1,1.152,1.089l.615,1.332c.331.718.969,1.2,1.426,1.084l1.951-.51c.456-.12.557-.8.226-1.516l-.62-1.343a1.289,1.289,0,0,1,.009-1.394q.092-.089.18-.183c.258-.275.724-.185,1.151.221l1,.955c.536.511,1.112.5,1.286-.014l.745-2.218A2.046,2.046,0,0,0,2078.3,791.523Zm-11.715-1.629a13.067,13.067,0,0,1-5.912-10.24c0-3.77,2.647-5.3,5.912-3.413a13.068,13.068,0,0,1,5.912,10.24C2072.5,790.25,2069.854,791.779,2066.589,789.894Z" transform="translate(-2054.168 -763.718)" fill="#deebff"/>
              </g>
              <g id="Grupo_57162" data-name="Grupo 57162" transform="translate(26.737 23.842)">
                <path id="Trazado_124144" data-name="Trazado 124144" d="M2211.875,890.328l1.338-.77c.665-.339.5-.451-.159-3.187a1.521,1.521,0,0,0-.955-1.113c-1.022-.206-1.191-.116-1.733-1.263a.974.974,0,0,1-.006-1.042l.46-.466c.246-.249.171-.839-.168-1.319-2.362-3.346-1.8-2.778-3.45-1.94a1.852,1.852,0,0,1-.588-.453c-.641-.593-.538-1.227-.538-2.047a1.675,1.675,0,0,0-.757-1.313c-2.157-1.245-2.031-1.3-2.536-.962-.012.006-.3.168-.308.177s-1.25.719-1.319.756l-.455-.986c-.246-.533-.72-.893-1.058-.8-1.344.352-1.5.354-1.764.55-.01.006-3.609,2.073-3.618,2.08-.347.2-.3.664-.156,1.018-.015.011-1.9,1.094-1.9,1.094-.325.193-.193-.01-.851,1.948a1.521,1.521,0,0,0,.487,1.384c.691.658,1.142.98,1.246,1.663-.011.006-1.173.673-1.184.681-.851.433-.694.388,0,3.275a1.519,1.519,0,0,0,.955,1.113c1.023.207,1.191.116,1.733,1.263a.974.974,0,0,1,.006,1.042l-.46.466c-.246.249-.171.84.167,1.319,2.366,3.352,1.794,2.774,3.45,1.94a1.844,1.844,0,0,1,.588.453c.641.594.538,1.228.538,2.047a1.675,1.675,0,0,0,.758,1.313l1.791,1.034c.486.281.479.01,2.372-1l.455.986c.246.533.72.893,1.058.8a5.314,5.314,0,0,0,1.957-.661l3.464-1.991c.246-.138.3-.547.118-1,.016-.011,1.9-1.094,1.9-1.094.325-.193.191.017.852-1.948a1.521,1.521,0,0,0-.487-1.384C2212.436,891.339,2211.979,891.013,2211.875,890.328Zm-11.813-7.691a9.41,9.41,0,0,1,4.836,8.389A9.41,9.41,0,0,1,2200.062,882.637Z" transform="translate(-2191.315 -873.584)" fill="#00223d"/>
                <path id="Trazado_124145" data-name="Trazado 124145" d="M2209.233,903.454l-.737-.7a1.685,1.685,0,0,1-.524-1.152c0-.043,0-.086,0-.129s0-.087,0-.131c-.007-.389.206-.611.524-.547l.737.149c.4.08.616-.288.486-.822l-.553-2.286a1.52,1.52,0,0,0-.955-1.113l-.745-.151a1.4,1.4,0,0,1-.854-.822q-.066-.145-.134-.29a.973.973,0,0,1-.006-1.043l.46-.466c.246-.249.171-.839-.168-1.319l-1.448-2.051c-.339-.48-.812-.667-1.058-.418l-.457.462c-.195.2-.541.125-.855-.178q-.109-.106-.219-.208a1.7,1.7,0,0,1-.538-1.148v-.9a1.675,1.675,0,0,0-.758-1.312l-1.791-1.034c-.418-.242-.758-.046-.758.438v.9c0,.386-.218.6-.538.527-.074-.017-.147-.032-.22-.046a1.387,1.387,0,0,1-.855-.809l-.456-.989c-.246-.533-.72-.893-1.059-.8l-1.448.379c-.339.089-.413.593-.167,1.126l.46,1a.958.958,0,0,1-.006,1.035c-.046.044-.09.089-.134.135-.191.2-.537.137-.854-.164l-.745-.709c-.4-.379-.825-.375-.955.01l-.553,1.647a1.521,1.521,0,0,0,.487,1.384l.737.7a1.687,1.687,0,0,1,.524,1.152c0,.043,0,.086,0,.129s0,.087,0,.131c.006.39-.206.611-.524.547l-.737-.149c-.4-.081-.616.287-.487.822l.553,2.285a1.519,1.519,0,0,0,.955,1.113l.745.151a1.4,1.4,0,0,1,.854.822q.065.145.134.29a.973.973,0,0,1,.006,1.043l-.46.466c-.246.249-.171.84.167,1.319l1.448,2.052c.339.479.813.667,1.058.418l.457-.462c.195-.2.541-.125.855.178.073.07.146.14.22.208a1.7,1.7,0,0,1,.538,1.149v.9a1.675,1.675,0,0,0,.758,1.313l1.791,1.034c.418.242.758.046.758-.437v-.9c0-.385.218-.6.538-.527q.111.025.219.046a1.386,1.386,0,0,1,.855.809l.457.989c.246.533.72.893,1.058.8l1.448-.379c.339-.089.414-.592.168-1.125l-.46-1a.956.956,0,0,1,.006-1.036q.068-.066.134-.136c.191-.2.537-.137.854.165l.745.709c.4.379.826.375.955-.011l.553-1.646A1.518,1.518,0,0,0,2209.233,903.454Zm-8.7-1.209a9.7,9.7,0,0,1-4.389-7.6c0-2.8,1.965-3.933,4.389-2.534a9.7,9.7,0,0,1,4.389,7.6C2204.925,902.509,2202.96,903.643,2200.536,902.244Z" transform="translate(-2191.315 -882.812)" fill="#deebff"/>
              </g>
            </g>
            <g id="Grupo_57168" data-name="Grupo 57168" transform="translate(47.344 220.463)">
              <g id="Grupo_57167" data-name="Grupo 57167">
                <path id="Trazado_124147" data-name="Trazado 124147" d="M1744.446,1283.767v5.108l2.414,3.244,1.619-3.374Z" transform="translate(-1744.446 -1274.624)" fill="#b8d4f5"/>
                <path id="Trazado_124148" data-name="Trazado 124148" d="M1821.16,1239.527v5.057l3.313,2.1,7.739-.94-5.272-4.151Z" transform="translate(-1806.205 -1239.009)" fill="#b8d4f5"/>
                <path id="Trazado_124149" data-name="Trazado 124149" d="M2316.342,1523.39v5.055l-1.57-.259-2.868-5.264,1.046-1.248Z" transform="translate(-2201.278 -1466.15)" fill="#b8d4f5"/>
                <path id="Trazado_124150" data-name="Trazado 124150" d="M2214.939,1564.12v5.054l-5.661-1.037-4.656-5.669.472-1.282Z" transform="translate(-2114.91 -1497.96)" fill="#b8d4f5"/>
                <path id="Trazado_124151" data-name="Trazado 124151" d="M1744.924,1271.48a1.361,1.361,0,0,1,.991.094l6.653,3.841a10.278,10.278,0,0,0,9.289.185l2.384-1.376,2.384-1.376c2.477-1.43,2.333-3.831-.321-5.363l-6.652-3.841c-.261-.151-.326-.381-.162-.572a1.1,1.1,0,0,1,.886-.272,91.63,91.63,0,0,1,9.328,1.268,13.893,13.893,0,0,1,6.556,2.894c1.832,1.612,3.747,3.992,3.343,6.685l.015,2.772,56.3,32.507,4.854.008c.881-.042,1.745-.039,2.582,0h0a29.942,29.942,0,0,1,8.942,1.925,9.424,9.424,0,0,1,5.012,3.785,21.764,21.764,0,0,1,2.2,5.385c.049.211-.14.418-.471.512a1.362,1.362,0,0,1-.991-.094l-6.652-3.841a10.279,10.279,0,0,0-9.289-.185l-2.384,1.376-2.384,1.376c-2.476,1.43-2.333,3.831.321,5.363l6.652,3.841c.261.151.327.381.162.572a1.1,1.1,0,0,1-.886.272,91.575,91.575,0,0,1-9.328-1.268,13.887,13.887,0,0,1-6.555-2.894c-1.833-1.612-3.747-3.992-3.343-6.685l-.015-2.772-56.3-32.507-4.854-.009c-.882.042-1.744.039-2.582,0h0a29.951,29.951,0,0,1-8.943-1.925,9.422,9.422,0,0,1-5.012-3.785,21.756,21.756,0,0,1-2.2-5.385C1744.4,1271.781,1744.593,1271.575,1744.924,1271.48Z" transform="translate(-1744.446 -1257.741)" fill="#00223d"/>
                <g id="Grupo_57166" data-name="Grupo 57166">
                  <path id="Trazado_124152" data-name="Trazado 124152" d="M1920.931,1345.444l11.573-6.682-60.466-34.91-11.573,6.682Z" transform="translate(-1837.846 -1290.794)" fill="url(#linear-gradient)"/>
                  <g id="Grupo_57164" data-name="Grupo 57164">
                    <path id="Trazado_124153" data-name="Trazado 124153" d="M1837.181,1323.3l-9.848-.018,7.416-4.281Z" transform="translate(-1811.173 -1302.986)" fill="#cce3f5"/>
                    <path id="Trazado_124154" data-name="Trazado 124154" d="M1894.142,1290.409l-.03-5.686L1886.7,1289Z" transform="translate(-1858.964 -1275.394)" fill="#cce3f5"/>
                    <path id="Trazado_124155" data-name="Trazado 124155" d="M1746.65,1251.451a21.759,21.759,0,0,1-2.2-5.385c-.05-.211.14-.418.471-.512a1.36,1.36,0,0,1,.991.094l6.653,3.841a10.279,10.279,0,0,0,9.288.185l2.384-1.376,2.384-1.376c2.477-1.43,2.333-3.831-.321-5.363l-6.652-3.841c-.261-.151-.326-.381-.162-.572a1.1,1.1,0,0,1,.886-.272,91.534,91.534,0,0,1,9.328,1.268,13.89,13.89,0,0,1,6.556,2.894c3.162,2.782,6.571,7.853-2.121,12.871-.03.018-.062.034-.093.051s-.058.036-.088.054c-8.692,5.018-17.475,3.05-22.294,1.225A9.424,9.424,0,0,1,1746.65,1251.451Z" transform="translate(-1744.446 -1236.869)" fill="url(#linear-gradient)"/>
                  </g>
                  <g id="Grupo_57165" data-name="Grupo 57165" transform="translate(79.862 46.108)">
                    <path id="Trazado_124156" data-name="Trazado 124156" d="M2201.3,1473.476l9.848.018-7.416,4.281Z" transform="translate(-2192.098 -1473.457)" fill="#cce3f5"/>
                    <path id="Trazado_124157" data-name="Trazado 124157" d="M2154.261,1500.635l.031,5.686,7.415-4.281Z" transform="translate(-2154.228 -1495.321)" fill="#cce3f5"/>
                    <path id="Trazado_124158" data-name="Trazado 124158" d="M2187.1,1479.126a21.756,21.756,0,0,1,2.2,5.386c.05.211-.14.417-.47.512a1.362,1.362,0,0,1-.991-.094l-6.652-3.841a10.279,10.279,0,0,0-9.289-.185l-2.384,1.376-2.384,1.377c-2.476,1.43-2.333,3.831.321,5.363l6.652,3.841c.261.151.327.381.163.572a1.1,1.1,0,0,1-.886.272,91.629,91.629,0,0,1-9.328-1.268,13.892,13.892,0,0,1-6.555-2.894c-3.163-2.782-6.571-7.853,2.121-12.871.031-.018.062-.034.093-.051l.088-.054c8.692-5.018,17.475-3.051,22.294-1.225A9.426,9.426,0,0,1,2187.1,1479.126Z" transform="translate(-2154.094 -1473.379)" fill="url(#linear-gradient)"/>
                  </g>
                </g>
              </g>
            </g>
            <g id="Grupo_57179" data-name="Grupo 57179" transform="translate(32.768)">
              <g id="Grupo_57178" data-name="Grupo 57178">
                <path id="Trazado_124160" data-name="Trazado 124160" d="M1730.921,201.36l-18.279-10.553c-3.945-2.278-7.143-.551-7.143,3.858v15.181c0,4.408,3.2,9.828,7.144,12.106l17.465,10.084-.99,4.973,6.584-3.794h0c1.451-.623,2.364-2.212,2.364-4.566V213.466C1738.065,209.058,1734.866,203.638,1730.921,201.36Z" transform="translate(-1698.515 -173.467)" fill="#c49222"/>
                <path id="Trazado_124161" data-name="Trazado 124161" d="M1820.827,274.252l1.1,22.348,1.026.592-.8,4.012.041.828,6.352-3.66h0c1.452-.623,2.364-2.212,2.364-4.566V278.623a14.6,14.6,0,0,0-2.755-7.886Z" transform="translate(-1791.36 -238.624)" fill="#da6d12"/>
                <path id="Trazado_124162" data-name="Trazado 124162" d="M1730.921,201.36l-18.279-10.553c-3.945-2.278-7.143-.551-7.143,3.858v2.04l20.24,16.751,10.625-6.139A15.08,15.08,0,0,0,1730.921,201.36Z" transform="translate(-1698.515 -173.467)" fill="#da6d12"/>
                <path id="Trazado_124163" data-name="Trazado 124163" d="M1687.012,193.007l-6.675,3.807.839,2.993,3.7,1.072.366-.088v-3.546Z" transform="translate(-1678.259 -176.047)" fill="#da6d12"/>
                <g id="Grupo_57173" data-name="Grupo 57173" transform="translate(0 20.333)">
                  <path id="Trazado_124164" data-name="Trazado 124164" d="M1702.243,249.154c0,4.409-3.2,6.136-7.144,3.858l-18.279-10.554c-3.946-2.278-7.144-7.7-7.144-12.106V215.17c0-4.408,3.2-6.135,7.143-3.857l18.279,10.554c3.946,2.278,7.144,7.7,7.144,12.106Z" transform="translate(-1669.677 -210.309)" fill="#ec842c"/>
                  <path id="Trazado_124165" data-name="Trazado 124165" d="M1683.328,249.05a12.074,12.074,0,0,1-5.568-9.377V224.492c0-3.4,2.5-4.72,5.568-2.947l18.279,10.554a12.074,12.074,0,0,1,5.568,9.377v15.181c0,3.4-2.5,4.72-5.568,2.948Z" transform="translate(-1676.184 -218.72)" fill="#fa923b"/>
                  <g id="Grupo_57169" data-name="Grupo 57169" transform="translate(2.314 3.745)">
                    <path id="Trazado_124166" data-name="Trazado 124166" d="M1682.6,240.091a2.321,2.321,0,0,1-1.051-1.82v-3.836c0-4.39,3.093-6.175,6.894-3.98a2.322,2.322,0,0,1,1.05,1.819c0,.67-.47.942-1.05.607-2.643-1.526-4.793-.285-4.793,2.767v3.836C1683.649,240.154,1683.179,240.426,1682.6,240.091Z" transform="translate(-1681.548 -229.516)" fill="#fff"/>
                  </g>
                  <g id="Grupo_57170" data-name="Grupo 57170" transform="translate(2.314 17.653)">
                    <path id="Trazado_124167" data-name="Trazado 124167" d="M1682.6,306.585a2.322,2.322,0,0,1-1.051-1.82v-3.154c0-.67.47-.941,1.051-.607a2.323,2.323,0,0,1,1.05,1.82v3.154C1683.649,306.648,1683.179,306.92,1682.6,306.585Z" transform="translate(-1681.548 -300.861)" fill="#fff"/>
                  </g>
                  <g id="Grupo_57171" data-name="Grupo 57171" transform="translate(23.65 34.128)">
                    <path id="Trazado_124168" data-name="Trazado 124168" d="M1793.43,391.558l-1.391-.8a2.324,2.324,0,0,1-1.051-1.819c0-.67.471-.941,1.051-.607l1.391.8c1.145.661,2.076.123,2.076-1.2V386.12c0-.67.471-.942,1.051-.607a2.323,2.323,0,0,1,1.051,1.82v1.814C1797.608,391.806,1795.734,392.888,1793.43,391.558Z" transform="translate(-1790.989 -385.37)" fill="#fff"/>
                  </g>
                  <path id="Trazado_124169" data-name="Trazado 124169" d="M1743.945,308.563l-2.018-6.046c.628-.025,1.056-.543,1.057-1.423a4.413,4.413,0,0,0-2-3.457c-1.1-.637-2-.121-2,1.152a4.391,4.391,0,0,0,1.057,2.644l-2.019,3.715Z" transform="translate(-1724.703 -280.392)" fill="#fff"/>
                  <g id="Grupo_57172" data-name="Grupo 57172" transform="translate(14.287 16.972)">
                    <path id="Trazado_124170" data-name="Trazado 124170" d="M1744.959,298.182a4.463,4.463,0,0,1,1.981,3.177,2.425,2.425,0,0,0,.015-.266,4.413,4.413,0,0,0-2-3.457c-1.1-.637-2-.121-2,1.152,0,.093.006.188.015.283C1743.094,297.994,1743.937,297.591,1744.959,298.182Z" transform="translate(-1742.963 -297.363)" fill="#fff"/>
                  </g>
                  <path id="Trazado_124171" data-name="Trazado 124171" d="M1738.139,336.251l5.673,3.276.132.343-5.916-3.416Z" transform="translate(-1724.703 -311.698)" fill="#c49222"/>
                </g>
                <g id="Grupo_57177" data-name="Grupo 57177" transform="translate(5.416)">
                  <g id="Grupo_57174" data-name="Grupo 57174" transform="translate(2.76 0.027)">
                    <path id="Trazado_124172" data-name="Trazado 124172" d="M1714.763,125.769l-3.152-1.82V112.708c0-5.853,4.124-8.233,9.192-5.307l7.459,4.306c5.068,2.926,9.193,10.069,9.193,15.921v10.826l-3.152-1.819V125.809a13.37,13.37,0,0,0-6.041-10.462l-7.459-4.306c-3.331-1.923-6.04-.359-6.041,3.488Z" transform="translate(-1711.612 -106.15)" fill="#00223d"/>
                  </g>
                  <path id="Trazado_124173" data-name="Trazado 124173" d="M1719.133,107.291l7.459,4.306c5.068,2.926,9.192,10.069,9.192,15.921v10.826l-2.76,1.587,0-3.179-.394-.227-.8-10.6c0-3.846-2.426-6.9-5.242-10.691l-7.459-4.306c-2.077-1.2-3.913-1.042-5,.179l-2.723-3.413-1.874.761C1712.425,106.371,1715.27,104.795,1719.133,107.291Z" transform="translate(-1707.181 -106.012)" fill="url(#linear-gradient)"/>
                  <g id="Grupo_57175" data-name="Grupo 57175" transform="translate(0 1.614)">
                    <path id="Trazado_124174" data-name="Trazado 124174" d="M1700.608,133.909l-3.152-1.819V120.849c0-5.853,4.124-8.233,9.192-5.307l7.459,4.307c5.069,2.926,9.192,10.069,9.192,15.921V146.6l-3.152-1.82V133.95a13.37,13.37,0,0,0-6.041-10.462l-7.459-4.306c-3.331-1.923-6.041-.358-6.041,3.487Z" transform="translate(-1697.456 -114.29)" fill="url(#linear-gradient)"/>
                  </g>
                  <g id="Grupo_57176" data-name="Grupo 57176" transform="translate(1.051 2.97)">
                    <path id="Trazado_124175" data-name="Trazado 124175" d="M1703.9,138.9l-1.05-.606V127.055c0-5.184,3.652-7.292,8.142-4.7l7.459,4.306c4.489,2.592,8.141,8.918,8.141,14.1v10.827l-1.05-.606V140.156a15.7,15.7,0,0,0-7.091-12.282l-7.459-4.307c-3.91-2.258-7.091-.421-7.091,4.094Z" transform="translate(-1702.845 -121.246)" fill="#00223d"/>
                  </g>
                  <path id="Trazado_124176" data-name="Trazado 124176" d="M1713.622,194.455l2.76-1.587V190l-2.76-.505Z" transform="translate(-1710.47 -173.222)" fill="#00223d"/>
                </g>
              </g>
            </g>
            <g id="Grupo_57202" data-name="Grupo 57202" transform="translate(92.88 51.114)">
              <path id="Trazado_124194" data-name="Trazado 124194" d="M2059.185,412.415c-.009-.109-.025-.22-.044-.331a4.305,4.305,0,0,0-.124-.528,5.24,5.24,0,0,0-.344-.853c-.075-.149-.16-.295-.248-.437-.076-.122-.155-.242-.24-.357a5.2,5.2,0,0,0-.39-.47,3.962,3.962,0,0,0-.894-.724l-23.212-13.4-46.424-26.8a1.632,1.632,0,0,0-1.59-.177l0,0-.025.014-.013.008-3.649,1.91,2.982,1.288v6.309h0v38.052a5.076,5.076,0,0,0,2.3,3.977l67.643,39.054.017,3.389,3.6-2.078h0l.01-.005h0a1.619,1.619,0,0,0,.663-1.48V412.693C2059.2,412.6,2059.193,412.508,2059.185,412.415Z" transform="translate(-1981.213 -368.199)" fill="#00223d"/>
              <g id="Grupo_57201" data-name="Grupo 57201" transform="translate(0 1.964)">
                <path id="Trazado_124195" data-name="Trazado 124195" d="M1978.019,426.06a5.084,5.084,0,0,0,2.3,3.983l69.741,40.265c1.27.733,2.3.139,2.3-1.328V422.834a5.082,5.082,0,0,0-2.3-3.983l-69.741-40.265c-1.27-.733-2.3-.139-2.3,1.328Z" transform="translate(-1978.019 -378.272)" fill="#deebff"/>
                <path id="Trazado_124196" data-name="Trazado 124196" d="M2182.725,603.855l-39.88-23.025V547.217l39.88,23.025Z" transform="translate(-2110.712 -514.281)" fill="#00223d"/>
                <path id="Trazado_124197" data-name="Trazado 124197" d="M2050.059,418.851l-69.741-40.265c-1.27-.733-2.3-.139-2.3,1.328v8.036l74.34,42.92v-8.036A5.082,5.082,0,0,0,2050.059,418.851Z" transform="translate(-1978.019 -378.272)" fill="#fa923b"/>
                <path id="Trazado_124198" data-name="Trazado 124198" d="M2016.7,508l-27.654-15.966V458.422l27.654,15.966Z" transform="translate(-1986.898 -442.797)" fill="#00223d"/>
                <ellipse id="Elipse_4088" data-name="Elipse 4088" cx="1.426" cy="2.47" rx="1.426" ry="2.47" transform="matrix(0.866, -0.5, 0.5, 0.866, 57.026, 37.224)" fill="url(#linear-gradient)"/>
                <ellipse id="Elipse_4089" data-name="Elipse 4089" cx="1.426" cy="2.47" rx="1.426" ry="2.47" transform="translate(62.266 40.249) rotate(-30)" fill="url(#linear-gradient)"/>
                <ellipse id="Elipse_4090" data-name="Elipse 4090" cx="1.426" cy="2.47" rx="1.426" ry="2.47" transform="translate(67.506 43.275) rotate(-30)" fill="url(#linear-gradient)"/>
                <path id="Trazado_124199" data-name="Trazado 124199" d="M2192.746,605.631,2159.27,586.3v-2.017l33.476,19.328Z" transform="translate(-2123.935 -544.123)" fill="url(#linear-gradient)"/>
                <path id="Trazado_124200" data-name="Trazado 124200" d="M2192.746,628.045l-33.476-19.328V606.7l33.476,19.328Z" transform="translate(-2123.935 -562.168)" fill="url(#linear-gradient)"/>
                <path id="Trazado_124201" data-name="Trazado 124201" d="M2192.746,650.459l-33.476-19.328v-2.017l33.476,19.327Z" transform="translate(-2123.935 -580.212)" fill="url(#linear-gradient)"/>
                <path id="Trazado_124202" data-name="Trazado 124202" d="M2242.031,699.6l-21.542-12.437V685.15l21.542,12.437Z" transform="translate(-2173.22 -625.324)" fill="url(#linear-gradient)"/>
                <path id="Trazado_124203" data-name="Trazado 124203" d="M2242.031,722.018l-21.542-12.437v-2.017L2242.031,720Z" transform="translate(-2173.22 -643.368)" fill="url(#linear-gradient)"/>
                <path id="Trazado_124204" data-name="Trazado 124204" d="M2242.031,744.432,2220.49,732v-2.017l21.542,12.437Z" transform="translate(-2173.22 -661.413)" fill="url(#linear-gradient)"/>
                <path id="Trazado_124205" data-name="Trazado 124205" d="M2025.521,579.774l-21.541-12.437V565.32l21.541,12.437Z" transform="translate(-1998.919 -528.855)" fill="url(#linear-gradient)"/>
                <path id="Trazado_124206" data-name="Trazado 124206" d="M2025.521,602.188l-21.541-12.437v-2.017l21.541,12.437Z" transform="translate(-1998.919 -546.899)" fill="url(#linear-gradient)"/>
                <path id="Trazado_124207" data-name="Trazado 124207" d="M2025.521,624.6l-21.541-12.437v-2.017l21.541,12.437Z" transform="translate(-1998.919 -564.944)" fill="url(#linear-gradient)"/>
                <path id="Trazado_124208" data-name="Trazado 124208" d="M2171.242,664.7l-10.479-6.05V647.218l10.479,6.05Z" transform="translate(-2125.136 -594.787)" fill="url(#linear-gradient)"/>
                <path id="Trazado_124209" data-name="Trazado 124209" d="M2025.521,509.874l-21.541-12.437V486.009l21.541,12.437Z" transform="translate(-1998.919 -465.005)" fill="url(#linear-gradient)"/>
              </g>
            </g>
            <g id="Grupo_57221" data-name="Grupo 57221" transform="translate(92.88 153.37)">
              <path id="Trazado_124194-2" data-name="Trazado 124194" d="M2059.185,412.415c-.009-.109-.025-.22-.044-.331a4.305,4.305,0,0,0-.124-.528,5.24,5.24,0,0,0-.344-.853c-.075-.149-.16-.295-.248-.437-.076-.122-.155-.242-.24-.357a5.2,5.2,0,0,0-.39-.47,3.962,3.962,0,0,0-.894-.724l-23.212-13.4-46.424-26.8a1.632,1.632,0,0,0-1.59-.177l0,0-.025.014-.013.008-3.649,1.91,2.982,1.288v6.309h0v38.052a5.076,5.076,0,0,0,2.3,3.977l67.643,39.054.017,3.389,3.6-2.078h0l.01-.005h0a1.619,1.619,0,0,0,.663-1.48V412.693C2059.2,412.6,2059.193,412.508,2059.185,412.415Z" transform="translate(-1981.213 -368.199)" fill="#00223d"/>
              <g id="Grupo_57201-2" data-name="Grupo 57201" transform="translate(0 1.964)">
                <path id="Trazado_124195-2" data-name="Trazado 124195" d="M1978.019,426.06a5.084,5.084,0,0,0,2.3,3.983l69.741,40.265c1.27.733,2.3.139,2.3-1.328V422.834a5.082,5.082,0,0,0-2.3-3.983l-69.741-40.265c-1.27-.733-2.3-.139-2.3,1.328Z" transform="translate(-1978.019 -378.272)" fill="#deebff"/>
                <path id="Trazado_124196-2" data-name="Trazado 124196" d="M2182.725,603.855l-39.88-23.025V547.217l39.88,23.025Z" transform="translate(-2110.712 -514.281)" fill="#00223d"/>
                <path id="Trazado_124197-2" data-name="Trazado 124197" d="M2050.059,418.851l-69.741-40.265c-1.27-.733-2.3-.139-2.3,1.328v8.036l74.34,42.92v-8.036A5.082,5.082,0,0,0,2050.059,418.851Z" transform="translate(-1978.019 -378.272)" fill="#fa923b"/>
                <path id="Trazado_124198-2" data-name="Trazado 124198" d="M2016.7,508l-27.654-15.966V458.422l27.654,15.966Z" transform="translate(-1986.898 -442.797)" fill="#00223d"/>
                <ellipse id="Elipse_4088-2" data-name="Elipse 4088" cx="1.426" cy="2.47" rx="1.426" ry="2.47" transform="matrix(0.866, -0.5, 0.5, 0.866, 57.026, 37.224)" fill="url(#linear-gradient)"/>
                <ellipse id="Elipse_4089-2" data-name="Elipse 4089" cx="1.426" cy="2.47" rx="1.426" ry="2.47" transform="translate(62.266 40.249) rotate(-30)" fill="url(#linear-gradient)"/>
                <ellipse id="Elipse_4090-2" data-name="Elipse 4090" cx="1.426" cy="2.47" rx="1.426" ry="2.47" transform="translate(67.506 43.275) rotate(-30)" fill="url(#linear-gradient)"/>
                <path id="Trazado_124199-2" data-name="Trazado 124199" d="M2192.746,605.631,2159.27,586.3v-2.017l33.476,19.328Z" transform="translate(-2123.935 -544.123)" fill="url(#linear-gradient)"/>
                <path id="Trazado_124200-2" data-name="Trazado 124200" d="M2192.746,628.045l-33.476-19.328V606.7l33.476,19.328Z" transform="translate(-2123.935 -562.168)" fill="url(#linear-gradient)"/>
                <path id="Trazado_124201-2" data-name="Trazado 124201" d="M2192.746,650.459l-33.476-19.328v-2.017l33.476,19.327Z" transform="translate(-2123.935 -580.212)" fill="url(#linear-gradient)"/>
                <path id="Trazado_124202-2" data-name="Trazado 124202" d="M2242.031,699.6l-21.542-12.437V685.15l21.542,12.437Z" transform="translate(-2173.22 -625.324)" fill="url(#linear-gradient)"/>
                <path id="Trazado_124203-2" data-name="Trazado 124203" d="M2242.031,722.018l-21.542-12.437v-2.017L2242.031,720Z" transform="translate(-2173.22 -643.368)" fill="url(#linear-gradient)"/>
                <path id="Trazado_124204-2" data-name="Trazado 124204" d="M2242.031,744.432,2220.49,732v-2.017l21.542,12.437Z" transform="translate(-2173.22 -661.413)" fill="url(#linear-gradient)"/>
                <path id="Trazado_124205-2" data-name="Trazado 124205" d="M2025.521,579.774l-21.541-12.437V565.32l21.541,12.437Z" transform="translate(-1998.919 -528.855)" fill="url(#linear-gradient)"/>
                <path id="Trazado_124206-2" data-name="Trazado 124206" d="M2025.521,602.188l-21.541-12.437v-2.017l21.541,12.437Z" transform="translate(-1998.919 -546.899)" fill="url(#linear-gradient)"/>
                <path id="Trazado_124207-2" data-name="Trazado 124207" d="M2025.521,624.6l-21.541-12.437v-2.017l21.541,12.437Z" transform="translate(-1998.919 -564.944)" fill="url(#linear-gradient)"/>
                <path id="Trazado_124208-2" data-name="Trazado 124208" d="M2171.242,664.7l-10.479-6.05V647.218l10.479,6.05Z" transform="translate(-2125.136 -594.787)" fill="url(#linear-gradient)"/>
                <path id="Trazado_124209-2" data-name="Trazado 124209" d="M2025.521,509.874l-21.541-12.437V486.009l21.541,12.437Z" transform="translate(-1998.919 -465.005)" fill="url(#linear-gradient)"/>
              </g>
            </g>
          </g>
          <g id="Grupo_57219" data-name="Grupo 57219" transform="translate(65.294 191.943)">
            <path id="Trazado_124226" data-name="Trazado 124226" d="M1887.483,1566.832a12.068,12.068,0,0,1-2.849,4.59l-1.948-.446v-1.6Z" transform="translate(-1873.684 -1473.985)" fill="#00223d"/>
            <path id="Trazado_124227" data-name="Trazado 124227" d="M1887.483,1562.547a.771.771,0,0,0-.066-.766.584.584,0,0,0-.593-.265,29.718,29.718,0,0,0-3.787,1.714s-.921,2.586.216,2.926C1884.366,1566.488,1885.625,1566.521,1887.483,1562.547Z" transform="translate(-1873.684 -1469.7)" fill="#9bacb2"/>
            <path id="Trazado_124228" data-name="Trazado 124228" d="M1920.653,1583.053a.746.746,0,0,1-.182,1.193c-.786.6-5.591,1.5-5.591,1.5l-1.315-.876.068-3.617Z" transform="translate(-1898.544 -1485.592)" fill="#00223d"/>
            <path id="Trazado_124229" data-name="Trazado 124229" d="M1913.914,1579.268c.809-.741,2.365-1.366,3.256-.59,1.562,1.36,3.652,1.035,3.853,2.3.124.782-3.472,1.451-5.509,1.451h-.078a1.477,1.477,0,0,1-1.458-1.424Z" transform="translate(-1898.825 -1483.234)" fill="#9bacb2"/>
            <g id="Grupo_57212" data-name="Grupo 57212" transform="translate(2.449 14.67)">
              <path id="Trazado_124230" data-name="Trazado 124230" d="M1858.923,1193.074l.264,31a1.258,1.258,0,0,1-2.509.139l-3.165-30.838a2.713,2.713,0,0,1,5.4-.554C1858.917,1192.9,1858.922,1192.991,1858.923,1193.074Z" transform="translate(-1852.636 -1185.596)" fill="#f89ab5"/>
              <path id="Trazado_124231" data-name="Trazado 124231" d="M1855.8,1223.727l.061.646s1.417,1.379,4.959-.315l-.014-1.2Z" transform="translate(-1854.492 -1211.735)" fill="#e6e6e6" style="mix-blend-mode: multiply;isolation: isolate"/>
              <path id="Trazado_124232" data-name="Trazado 124232" d="M1856.051,1176.989c-1.554,1.675-5.5,1.833-6.636.339l-.336-8.55a3.138,3.138,0,0,1,3.289-2.954,3.406,3.406,0,0,1,3.62,3.15Z" transform="translate(-1849.078 -1165.824)" fill="#a5c4e5"/>
              <g id="Grupo_57211" data-name="Grupo 57211" transform="translate(3.071 37.081)">
                <path id="Trazado_124233" data-name="Trazado 124233" d="M1869.69,1356.486l.118,3.326-1.308.814-.979.433-.953.36.521-4.952,1.183-.438Z" transform="translate(-1866.229 -1356.03)" fill="#f89ab5"/>
                <g id="Grupo_57206" data-name="Grupo 57206" transform="translate(2.526 2.66)">
                  <path id="Trazado_124234" data-name="Trazado 124234" d="M1878.251,1373.621a.467.467,0,0,1-.411-.689,4.946,4.946,0,0,0-.012-2.676.467.467,0,0,1,.906-.229c.057.224.535,2.221-.071,3.348A.467.467,0,0,1,1878.251,1373.621Z" transform="translate(-1877.784 -1369.673)" fill="#f89ab5"/>
                </g>
                <g id="Grupo_57207" data-name="Grupo 57207" transform="translate(2.584 1.406)">
                  <path id="Trazado_124235" data-name="Trazado 124235" d="M1879.549,1366.411a.466.466,0,0,1-.41-.244,15.969,15.969,0,0,1-1.028-2.308.467.467,0,1,1,.885-.3,15.441,15.441,0,0,0,.963,2.159.468.468,0,0,1-.41.691Z" transform="translate(-1878.086 -1363.242)" fill="#f89ab5"/>
                </g>
                <g id="Grupo_57208" data-name="Grupo 57208" transform="translate(1.523 3.03)">
                  <path id="Trazado_124236" data-name="Trazado 124236" d="M1873.106,1375.486a.467.467,0,0,1-.379-.739,4.847,4.847,0,0,0,.321-2.649.467.467,0,1,1,.927-.114c.028.229.254,2.271-.489,3.307A.466.466,0,0,1,1873.106,1375.486Z" transform="translate(-1872.639 -1371.573)" fill="#f89ab5"/>
                </g>
                <g id="Grupo_57209" data-name="Grupo 57209" transform="translate(0.759 2.555)">
                  <path id="Trazado_124237" data-name="Trazado 124237" d="M1869.191,1373.046a.467.467,0,0,1-.379-.739,4.921,4.921,0,0,0,.321-2.649.467.467,0,0,1,.927-.114c.028.229.254,2.272-.489,3.307A.466.466,0,0,1,1869.191,1373.046Z" transform="translate(-1868.724 -1369.134)" fill="#f89ab5"/>
                </g>
                <g id="Grupo_57210" data-name="Grupo 57210" transform="translate(0 2.343)">
                  <path id="Trazado_124238" data-name="Trazado 124238" d="M1865.3,1371.553a.467.467,0,0,1-.325-.8,3.539,3.539,0,0,0,.584-2.216.467.467,0,0,1,.446-.487.462.462,0,0,1,.487.447,4.35,4.35,0,0,1-.867,2.926A.464.464,0,0,1,1865.3,1371.553Z" transform="translate(-1864.829 -1368.047)" fill="#f89ab5"/>
                </g>
              </g>
            </g>
            <path id="Trazado_124239" data-name="Trazado 124239" d="M1867.918,1303.231c-.078,2.036-.182,4.073-.281,6.109s-.191,4.073-.342,6.11l-.95,12.224-1.935,24.449a1.481,1.481,0,0,1-2.948.043l-2.655-24.381-1.31-12.191c-.211-2.032-.361-4.065-.521-6.1s-.324-4.065-.462-6.1a5.711,5.711,0,0,1,11.4-.772A5.878,5.878,0,0,1,1867.918,1303.231Z" transform="translate(-1852.605 -1257.001)" fill="#00223d"/>
            <path id="Trazado_124240" data-name="Trazado 124240" d="M1901.432,1315.275c.306,2.03.467,4.063.588,6.1.065,1.017.1,2.034.13,3.051a22.792,22.792,0,0,1-.187,3.056c-.353,4.075-.648,8.15-.975,12.224l-1.935,24.449a1.481,1.481,0,0,1-2.948.043l-2.654-24.382c-.447-4.063-.862-8.127-1.334-12.19a22.9,22.9,0,0,1-.277-3.049c0-1.018.005-2.035.04-3.053.06-2.036.161-4.072.408-6.111a4.615,4.615,0,0,1,9.144-.135Z" transform="translate(-1881.055 -1268.308)" fill="#00223d"/>
            <path id="Trazado_124241" data-name="Trazado 124241" d="M1863.191,1326.611l-6.41-2.751s-1.186-6.979.038-8.717l7.6,4.479Z" transform="translate(-1852.415 -1271.363)" fill="#00223d"/>
            <path id="Trazado_124242" data-name="Trazado 124242" d="M1871.966,1171.105l-11.434-4.8a1.056,1.056,0,0,0-1.445.777c-.638,3.382-1.97,12.792,1.374,19.443,0,0-1.031,6.427-2.292,8.544,0,0,7.013,7.543,16.811,5.855l-2.87-16.082s4.527-5.319.625-9.075Z" transform="translate(-1853.948 -1151.478)" fill="#6a838d"/>
            <path id="Trazado_124243" data-name="Trazado 124243" d="M1937.183,1210.355a1.258,1.258,0,0,0-1.779.007l-8.621,8.687-5.047-7.084a3.174,3.174,0,0,0-.4-.452,3,3,0,1,0-4.1,4.391l7.87,7.351.212.2c.025.023.051.046.077.068a1.822,1.822,0,0,0,2.564-.241l9.3-11.23A1.263,1.263,0,0,0,1937.183,1210.355Z" transform="translate(-1900.735 -1186.71)" fill="#f89ab5"/>
            <path id="Trazado_124244" data-name="Trazado 124244" d="M1937.381,1240.346l.392.516s1.932.424,4.047-2.884l-.647-1.016Z" transform="translate(-1917.717 -1208.425)" fill="#e6e6e6" style="mix-blend-mode: multiply;isolation: isolate"/>
            <path id="Trazado_124245" data-name="Trazado 124245" d="M1915.781,1201.709c-.436,2.243-3.709,4.462-5.458,3.789l-4.8-7.086a3.137,3.137,0,0,1,1.236-4.244,3.406,3.406,0,0,1,4.737.765Z" transform="translate(-1891.744 -1173.476)" fill="#6a838d"/>
            <g id="Grupo_57218" data-name="Grupo 57218" transform="translate(34.629 19.42)">
              <path id="Trazado_124246" data-name="Trazado 124246" d="M2015.919,1197.791l2.511-2.275-.353-1.5-.388-1-.422-.928-3.123,3.879.529,1.145Z" transform="translate(-2014.143 -1191.721)" fill="#f89ab5"/>
              <g id="Grupo_57213" data-name="Grupo 57213" transform="translate(2.962 1.243)">
                <path id="Trazado_124247" data-name="Trazado 124247" d="M2029.806,1199.661a.467.467,0,0,1-.242-.868c.452-.272,1.674-1.142,1.9-1.889a.467.467,0,1,1,.9.266c-.365,1.227-2.113,2.3-2.311,2.424A.463.463,0,0,1,2029.806,1199.661Z" transform="translate(-2029.338 -1196.57)" fill="#f89ab5"/>
              </g>
              <g id="Grupo_57214" data-name="Grupo 57214" transform="translate(2.098 3.428)">
                <path id="Trazado_124248" data-name="Trazado 124248" d="M2025.375,1209.591a.467.467,0,0,1-.209-.885,16.017,16.017,0,0,1,2.357-.911.467.467,0,1,1,.266.9,15.275,15.275,0,0,0-2.2.851A.47.47,0,0,1,2025.375,1209.591Z" transform="translate(-2024.907 -1207.775)" fill="#f89ab5"/>
              </g>
              <g id="Grupo_57215" data-name="Grupo 57215" transform="translate(2.778 0.298)">
                <path id="Trazado_124249" data-name="Trazado 124249" d="M2028.862,1195.052a.467.467,0,0,1-.289-.835,4.849,4.849,0,0,0,1.641-2.1.467.467,0,0,1,.922.149c-.2,1.258-1.8,2.547-1.986,2.69A.467.467,0,0,1,2028.862,1195.052Z" transform="translate(-2028.394 -1191.721)" fill="#f89ab5"/>
              </g>
              <g id="Grupo_57216" data-name="Grupo 57216" transform="translate(1.902 0.097)">
                <path id="Trazado_124250" data-name="Trazado 124250" d="M2024.365,1194.022a.467.467,0,0,1-.289-.834,4.847,4.847,0,0,0,1.641-2.1.467.467,0,1,1,.923.149c-.2,1.259-1.8,2.547-1.986,2.69A.465.465,0,0,1,2024.365,1194.022Z" transform="translate(-2023.897 -1190.691)" fill="#f89ab5"/>
              </g>
              <g id="Grupo_57217" data-name="Grupo 57217" transform="translate(1.442)">
                <path id="Trazado_124251" data-name="Trazado 124251" d="M2022.007,1193.461a.467.467,0,0,1-.318-.811,3.492,3.492,0,0,0,1.148-1.983.468.468,0,0,1,.46-.475h.008a.467.467,0,0,1,.467.459,4.353,4.353,0,0,1-1.449,2.686A.466.466,0,0,1,2022.007,1193.461Z" transform="translate(-2021.54 -1190.192)" fill="#f89ab5"/>
              </g>
            </g>
            <path id="Trazado_124252" data-name="Trazado 124252" d="M1889.271,1155.276l.742,5.279a2.171,2.171,0,0,1-3.048.98c-2.268-.915-1.773-2.307-1.773-2.307l.229-3.161Z" transform="translate(-1875.666 -1142.663)" fill="#f89ab5"/>
            <path id="Trazado_124253" data-name="Trazado 124253" d="M1890.092,1159.781s-.6,1.22-4.258.765l.155-2.043Z" transform="translate(-1876.22 -1145.26)" fill="#db8faa"/>
            <path id="Trazado_124254" data-name="Trazado 124254" d="M1881.533,1104.595c.859,4.339,1.112,7.432,0,7.651-1.725.342-7.679.78-8.629-4.014-.672-3.39.157-7.73,2.551-8.2C1879.528,1099.222,1880.862,1101.2,1881.533,1104.595Z" transform="translate(-1865.631 -1098.041)" fill="#f89ab5"/>
            <path id="Trazado_124255" data-name="Trazado 124255" d="M1852.135,1096.455a1.956,1.956,0,0,0-1.466,2.257c.155,2.205.477,4.209,1.835,5.055a4.617,4.617,0,0,1,2.229,4.033c-.068,2.216-1.491,4.86-1.014,5.9s2.43,3.727,1.986,6.243c-.416,2.36-1.412,3.965-4.476,4.507a2.728,2.728,0,0,1-1.191-.054c-1.734-.471-7.026-2-8.59-3.505-1.293-1.245-3.247-2.131-2.8-5.491,0,0-2.119-3.312-2.129-5.083s.063-4.648,2.749-5.8a6.228,6.228,0,0,1-.17-5.619,9.748,9.748,0,0,1,3.069-4.255c.347-.441.538-3.432,5.361-4.068a4.507,4.507,0,0,1,2.7.783.748.748,0,0,0,.983-.131s.317.76.064,1.13a5.547,5.547,0,0,0,.713-.349,1.024,1.024,0,0,1,.03.585S1854.06,1095.261,1852.135,1096.455Z" transform="translate(-1836.516 -1090.576)" fill="#12263f"/>
          </g>
        </g>
        <g id="Grupo_155320" data-name="Grupo 155320" transform="translate(192.299 81.214)">
          <g id="Grupo_34836" data-name="Grupo 34836">
            <g id="Grupo_34835" data-name="Grupo 34835">
              <g id="Grupo_34834" data-name="Grupo 34834" style="isolation: isolate">
                <g id="Grupo_34831" data-name="Grupo 34831" transform="translate(29.526 17.047)">
                  <path id="Trazado_85790" data-name="Trazado 85790" d="M208.046,321.51l2.513-1.46-.1,33.927-2.513,1.461Z" transform="translate(-207.949 -320.05)" fill="#264d65"/>
                </g>
                <g id="Grupo_34832" data-name="Grupo 34832" transform="translate(0.096)">
                  <path id="Trazado_85791" data-name="Trazado 85791" d="M194.272,313.588l2.513-1.46,29.526,17.047-2.513,1.46Z" transform="translate(-194.272 -312.128)" fill="#264d65"/>
                </g>
                <g id="Grupo_34833" data-name="Grupo 34833" transform="translate(0 1.46)">
                  <path id="Trazado_85792" data-name="Trazado 85792" d="M223.849,329.853l-.1,33.928-29.526-17.048.1-33.927Z" transform="translate(-194.227 -312.806)" fill="#21587b"/>
                </g>
              </g>
            </g>
          </g>
          <g id="Grupo_34838" data-name="Grupo 34838" transform="translate(3.616 12.053)">
            <g id="Grupo_34837" data-name="Grupo 34837">
              <path id="Trazado_85793" data-name="Trazado 85793" d="M202.244,327.77c1.016.585,1.842.11,1.842-1.063v-4.318l7.617,4.4a4,4,0,0,1,1.8,3.116v7.688c0,1.145-.809,1.612-1.8,1.041l-2.145-1.239.962,3.864c.093.379-.039.426-.293.1l-5.056-6.384a1.4,1.4,0,0,1-.125-.187l-3.964-2.289a4,4,0,0,1-1.8-3.118V326.06Z" transform="translate(-192.023 -312.363)" fill="#f5f5fd"/>
              <path id="Trazado_85794" data-name="Trazado 85794" d="M195.908,318.785v6.326a3.289,3.289,0,0,0,1.48,2.565l1.767,1.02-.792,2.266c-.077.224.03.385.241.364l4.159-.452a.183.183,0,0,0,.1-.037l3.262,1.885c.813.469,1.48.086,1.48-.854v-6.326a3.283,3.283,0,0,0-1.48-2.565l-8.74-5.046C196.575,317.46,195.908,317.845,195.908,318.785Zm7.8,7.938c0-.6.422-.846.942-.544a2.083,2.083,0,0,1,.945,1.633c0,.6-.422.846-.945.547A2.09,2.09,0,0,1,203.712,326.723Zm-2.9-1.672c0-.6.422-.845.942-.547a2.089,2.089,0,0,1,.945,1.635c0,.6-.424.846-.945.544A2.083,2.083,0,0,1,200.816,325.051Zm-2.9-1.674c0-.6.424-.846.945-.544a2.089,2.089,0,0,1,.945,1.635c0,.6-.424.846-.945.544A2.089,2.089,0,0,1,197.918,323.377Z" transform="translate(-195.908 -317.729)" fill="#f5f5fd"/>
            </g>
          </g>
        </g>
        <g id="Grupo_155321" data-name="Grupo 155321" transform="translate(216.537 8.677)">
          <g id="Grupo_34845" data-name="Grupo 34845">
            <g id="Grupo_34844" data-name="Grupo 34844">
              <g id="Grupo_34843" data-name="Grupo 34843" style="isolation: isolate">
                <g id="Grupo_34840" data-name="Grupo 34840" transform="translate(27.862 16.086)">
                  <path id="Trazado_85795" data-name="Trazado 85795" d="M218.531,287.27l2.371-1.377-.091,32.015-2.371,1.378Z" transform="translate(-218.44 -285.893)" fill="#e37b23"/>
                </g>
                <g id="Grupo_34841" data-name="Grupo 34841" transform="translate(0.091)">
                  <path id="Trazado_85796" data-name="Trazado 85796" d="M205.534,279.794l2.371-1.378L235.767,294.5,233.4,295.88Z" transform="translate(-205.534 -278.417)" fill="#e37b23"/>
                </g>
                <g id="Grupo_34842" data-name="Grupo 34842" transform="translate(0 1.378)">
                  <path id="Trazado_85797" data-name="Trazado 85797" d="M233.445,295.142l-.091,32.015-27.862-16.086.091-32.014Z" transform="translate(-205.492 -279.057)" fill="#fa923b"/>
                </g>
              </g>
            </g>
          </g>
          <g id="Grupo_34848" data-name="Grupo 34848" transform="translate(3.779 11.646)">
            <g id="Grupo_34847" data-name="Grupo 34847">
              <path id="Trazado_85798" data-name="Trazado 85798" d="M212.973,286.478c0,1.511-1.072,2.132-2.382,1.375l-2.294-1.323,4.676-2.7Z" transform="translate(-206.04 -283.829)" fill="#f5f5fd"/>
              <g id="Grupo_34846" data-name="Grupo 34846" transform="translate(0 0.342)">
                <path id="Trazado_85799" data-name="Trazado 85799" d="M213.059,306.966l9.19,5.306c1.31.757,2.382.138,2.382-1.375V293.126A5.288,5.288,0,0,0,222.249,289l-8.682-5.011v2.649c0,1.9-1.334,2.664-2.976,1.717L208.3,287.03v11.318a4.1,4.1,0,0,1,1.072.443,8.677,8.677,0,0,1,3.92,6.793A3.915,3.915,0,0,1,213.059,306.966Zm9.657-9.442c0,.484-.4.648-.893.364L211.107,291.7a1.849,1.849,0,0,1-.9-1.4c0-.482.4-.648.9-.364l10.716,6.188A1.843,1.843,0,0,1,222.716,297.524Zm0,3.357c0,.484-.4.648-.893.364l-10.716-6.186a1.849,1.849,0,0,1-.9-1.4c0-.484.4-.648.9-.364l10.716,6.186A1.847,1.847,0,0,1,222.716,300.881Zm0,3.277c0,.482-.4.648-.893.364l-10.716-6.188a1.849,1.849,0,0,1-.9-1.394c0-.484.4-.648.9-.364l10.716,6.188A1.843,1.843,0,0,1,222.716,304.158Zm-8.813-1.444c0-.482.4-.646.893-.364l7.027,4.058a1.846,1.846,0,0,1,.893,1.394c0,.484-.4.648-.893.364l-7.027-4.058A1.845,1.845,0,0,1,213.9,302.714Z" transform="translate(-206.04 -283.988)" fill="#f5f5fd"/>
                <path id="Trazado_85800" data-name="Trazado 85800" d="M207.248,293.351a7.357,7.357,0,0,0,3.329,5.767c1.838,1.061,3.329.2,3.329-1.924a7.359,7.359,0,0,0-3.329-5.764C208.737,290.368,207.248,291.229,207.248,293.351Zm1.64.428,1.278.738v-1.431l.82.473v1.431l1.278.736v1.041l-1.278-.738v1.429l-.82-.476v-1.427l-1.278-.738Z" transform="translate(-207.248 -275.941)" fill="#f5f5fd"/>
              </g>
            </g>
          </g>
        </g>
        <g id="Grupo_155322" data-name="Grupo 155322" transform="translate(164.319 19.738)">
          <g id="Grupo_34855" data-name="Grupo 34855">
            <g id="Grupo_34854" data-name="Grupo 34854">
              <g id="Grupo_34853" data-name="Grupo 34853" style="isolation: isolate">
                <g id="Grupo_34850" data-name="Grupo 34850" transform="translate(29.314 16.925)">
                  <path id="Trazado_85801" data-name="Trazado 85801" d="M194.943,292.873l2.494-1.449-.1,33.683-2.495,1.45Z" transform="translate(-194.847 -291.423)" fill="#32505d"/>
                </g>
                <g id="Grupo_34851" data-name="Grupo 34851" transform="translate(0.095)">
                  <path id="Trazado_85802" data-name="Trazado 85802" d="M181.268,285.008l2.494-1.45,29.314,16.925-2.494,1.449Z" transform="translate(-181.268 -283.558)" fill="#32505d"/>
                </g>
                <g id="Grupo_34852" data-name="Grupo 34852" transform="translate(0 1.45)">
                  <path id="Trazado_85803" data-name="Trazado 85803" d="M210.633,301.156l-.1,33.683-29.314-16.924.1-33.683Z" transform="translate(-181.224 -284.232)" fill="#4a6c7a"/>
                </g>
              </g>
            </g>
          </g>
          <g id="Grupo_34858" data-name="Grupo 34858" transform="translate(4.73 14.257)">
            <g id="Grupo_34857" data-name="Grupo 34857">
              <g id="Grupo_34856" data-name="Grupo 34856" transform="translate(5.05 4.046)">
                <path id="Trazado_85804" data-name="Trazado 85804" d="M194.9,302.739l-3.309,1.909a.98.98,0,0,1-1.011-.138,2.633,2.633,0,0,1-1.013-1.031l-3.307-5.73c-.521-.9-.521-1.878,0-2.177s1.364.187,1.887,1.089l.843,1.461V293.2c0-1.013.712-1.427,1.59-.919a3.514,3.514,0,0,1,1.59,2.754v4.923l.843-.488c.521-.3,1.366.187,1.887,1.089S195.421,302.437,194.9,302.739Z" transform="translate(-185.654 -292.064)" fill="#f5f5fd"/>
                <path id="Trazado_85805" data-name="Trazado 85805" d="M185.769,298.209c0-.979.691-1.379,1.538-.889l6.771,3.91a3.407,3.407,0,0,1,1.541,2.666c0,.981-.691,1.379-1.541.889l-6.771-3.91A3.408,3.408,0,0,1,185.769,298.209Zm1.538-.693c-.753-.435-1.368-.08-1.368.792a3.033,3.033,0,0,0,1.368,2.371l6.771,3.91c.755.435,1.371.08,1.371-.79a3.034,3.034,0,0,0-1.371-2.373Z" transform="translate(-185.769 -286.252)" fill="#f5f5fd"/>
                <path id="Trazado_85806" data-name="Trazado 85806" d="M187.2,297.667l5.229,3.019a3.214,3.214,0,0,1,1.455,2.52c0,.927-.65,1.3-1.455.839l-5.229-3.019Z" transform="translate(-184.12 -285.611)" fill="#f5f5fd"/>
              </g>
              <path id="Trazado_85807" data-name="Trazado 85807" d="M183.422,297.3c0-6.352,4.473-8.936,9.975-5.76s9.975,10.929,9.975,17.278-4.476,8.936-9.975,5.76S183.42,303.654,183.422,297.3Zm1.119.646c0,5.64,3.972,12.521,8.856,15.342s8.856.525,8.856-5.115-3.972-12.521-8.856-15.34S184.541,292.31,184.541,297.948Z" transform="translate(-183.422 -290.184)" fill="#f5f5fd"/>
            </g>
          </g>
        </g>
        <g id="Grupo_155330" data-name="Grupo 155330" transform="translate(203.182 183.004)">
          <g id="Grupo_55103" data-name="Grupo 55103" transform="translate(8.282)">
            <path id="Trazado_118823" data-name="Trazado 118823" d="M48.481,315.781,28.249,304.1l-1.669.945,1.669,1.464v39.048l25,14.434.211,2.031,1.669-.946V327.247Z" transform="translate(-26.58 -304.1)" fill="#21587b"/>
            <path id="Trazado_118824" data-name="Trazado 118824" d="M46.812,316.308,26.58,304.627v41.458L53.46,361.6V327.775Z" transform="translate(-26.58 -303.682)" fill="#bdc3c7"/>
            <path id="Trazado_118825" data-name="Trazado 118825" d="M46.812,316.308,26.58,304.627v41.458L53.46,361.6V327.775Z" transform="translate(-26.58 -303.682)" fill="#00223d"/>
            <path id="Trazado_118826" data-name="Trazado 118826" d="M37.861,318.769l6.648,3.838-6.648-11.466Z" transform="translate(-17.629 -298.514)" fill="#ecf0f1"/>
            <path id="Trazado_118827" data-name="Trazado 118827" d="M37.861,311.559l1.669-.945,6.648,11.466-1.669.945Z" transform="translate(-17.629 -298.932)" fill="#bdc3c7"/>
            <g id="Grupo_55102" data-name="Grupo 55102" transform="translate(2.674 12.48)">
              <g id="Grupo_55093" data-name="Grupo 55093">
                <path id="Trazado_118828" data-name="Trazado 118828" d="M49.6,323.823,28.071,311.391v-.332L49.6,323.491Z" transform="translate(-28.071 -311.059)" fill="#ecf0f1"/>
              </g>
              <g id="Grupo_55094" data-name="Grupo 55094" transform="translate(0 3.317)">
                <path id="Trazado_118829" data-name="Trazado 118829" d="M49.6,325.672,28.071,313.24v-.332L49.6,325.34Z" transform="translate(-28.071 -312.908)" fill="#ecf0f1"/>
              </g>
              <g id="Grupo_55095" data-name="Grupo 55095" transform="translate(0 6.633)">
                <path id="Trazado_118830" data-name="Trazado 118830" d="M49.6,327.521,28.071,315.089v-.332L49.6,327.19Z" transform="translate(-28.071 -314.758)" fill="#ecf0f1"/>
              </g>
              <g id="Grupo_55096" data-name="Grupo 55096" transform="translate(0 9.95)">
                <path id="Trazado_118831" data-name="Trazado 118831" d="M49.6,329.37,28.071,316.939v-.332L49.6,329.039Z" transform="translate(-28.071 -316.607)" fill="#ecf0f1"/>
              </g>
              <g id="Grupo_55097" data-name="Grupo 55097" transform="translate(0 13.267)">
                <path id="Trazado_118832" data-name="Trazado 118832" d="M49.6,331.22,28.071,318.788v-.332L49.6,330.888Z" transform="translate(-28.071 -318.456)" fill="#ecf0f1"/>
              </g>
              <g id="Grupo_55098" data-name="Grupo 55098" transform="translate(0 16.583)">
                <path id="Trazado_118833" data-name="Trazado 118833" d="M49.6,333.069,28.071,320.637v-.332L49.6,332.738Z" transform="translate(-28.071 -320.306)" fill="#ecf0f1"/>
              </g>
              <g id="Grupo_55099" data-name="Grupo 55099" transform="translate(0 19.9)">
                <path id="Trazado_118834" data-name="Trazado 118834" d="M49.6,334.919,28.071,322.487v-.332L49.6,334.587Z" transform="translate(-28.071 -322.155)" fill="#ecf0f1"/>
              </g>
              <g id="Grupo_55100" data-name="Grupo 55100" transform="translate(0 23.216)">
                <path id="Trazado_118835" data-name="Trazado 118835" d="M49.6,336.768,28.071,324.336V324L49.6,336.436Z" transform="translate(-28.071 -324.004)" fill="#ecf0f1"/>
              </g>
              <g id="Grupo_55101" data-name="Grupo 55101" transform="translate(0 26.533)">
                <path id="Trazado_118836" data-name="Trazado 118836" d="M49.6,338.617,28.071,326.185v-.332L49.6,338.286Z" transform="translate(-28.071 -325.854)" fill="#ecf0f1"/>
              </g>
            </g>
          </g>
          <g id="Grupo_55105" data-name="Grupo 55105" transform="translate(0 19.23)">
            <g id="Grupo_55104" data-name="Grupo 55104">
              <path id="Trazado_118837" data-name="Trazado 118837" d="M48.78,328.244,24.6,315a1.03,1.03,0,0,0-.834-.145h0l0,0c-.074.025-1.67.952-1.67.952l26.354,15.2c0,.848,1.677-.454,1.677-.454A2.971,2.971,0,0,0,48.78,328.244Z" transform="translate(-21.857 -314.822)" fill="#ecf0f1"/>
              <path id="Trazado_118838" data-name="Trazado 118838" d="M36.72,346.486V325.24a2.576,2.576,0,0,0-.267-1.071l2-1.216a2.02,2.02,0,0,1,.308,1.081v21.057a1.954,1.954,0,0,1-1.013,1.463l.249-.183-.253.185c-.016.013-.547.3-.565.31l-.759.416A1,1,0,0,0,36.72,346.486Z" transform="translate(-10.491 -308.371)" fill="#3a6f81"/>
              <path id="Trazado_118839" data-name="Trazado 118839" d="M47.924,330.182,35.077,334.3,22.2,315.375a1.067,1.067,0,0,0-.237.734v21.247a2.976,2.976,0,0,0,1.345,2.319l23.539,13.591c.741.427,1.345.083,1.345-.766V331.252A2.576,2.576,0,0,0,47.924,330.182Z" transform="translate(-21.962 -314.384)" fill="#bdc3c7"/>
              <path id="Trazado_118840" data-name="Trazado 118840" d="M47.8,330.173l-25.711-14.8L33.62,336.728a2.492,2.492,0,0,0,3.621.859l10.578-7.405Z" transform="translate(-21.857 -314.384)" fill="#ecf0f1"/>
            </g>
          </g>
        </g>
      </g>
    </g>
  </g>
</svg>
