<svg xmlns="http://www.w3.org/2000/svg" width="92" height="92" viewBox="0 0 92 92">
  <g id="Grupo_1070002" data-name="Grupo 1070002" transform="translate(-796 -3123)">
    <circle id="Elipse_9117" data-name="Elipse 9117" cx="46" cy="46" r="46" transform="translate(796 3123)" fill="#9f0925" opacity="0.4"/>
    <g id="alcance-social_1_" data-name="alcance-social (1)" transform="translate(806.73 3135.451)">
      <path id="Trazado_815002" data-name="Trazado 815002" d="M75.241,70.829A3.031,3.031,0,0,1,73.7,73.453S55.87,86.282,47.959,86.732C42.816,87.044,29,78.7,29,78.7V63.855s4.455-.131,9.692,0A18.013,18.013,0,0,1,49.715,68.7h7.024a3.081,3.081,0,0,1,2.587,4.755L70.9,68.1a3.031,3.031,0,0,1,4.343,2.724Z" transform="translate(-8.628 -20.751)" fill="#ffe3cc"/>
      <g id="Grupo_1068746" data-name="Grupo 1068746" transform="translate(20.372 48.316)" opacity="0.1">
        <path id="Trazado_815003" data-name="Trazado 815003" d="M75.241,73.992A3.043,3.043,0,0,1,73.7,76.617S55.87,89.445,47.959,89.9C42.81,90.208,29,81.859,29,81.859V78.366S42.81,86.7,47.959,86.4C55.895,85.959,73.7,73.124,73.7,73.124a2.993,2.993,0,0,0,.981-.894,3.037,3.037,0,0,1,.562,1.762Z" transform="translate(-29 -72.23)" fill="#965e32"/>
      </g>
      <rect id="Rectángulo_374183" data-name="Rectángulo 374183" width="13.716" height="20.808" rx="3.84" transform="translate(6.625 40.118)" fill="#656d78"/>
      <g id="Grupo_1068747" data-name="Grupo 1068747" transform="translate(14.998 40.149)" opacity="0.1">
        <path id="Trazado_815004" data-name="Trazado 815004" d="M25.774,61.559V77.538a2.406,2.406,0,0,1-2.406,2.4H20.4a2.406,2.406,0,0,0,2.406-2.4V61.559a2.406,2.406,0,0,0-2.406-2.4h2.943a2.406,2.406,0,0,1,2.431,2.4Z" transform="translate(-20.4 -59.16)"/>
      </g>
      <path id="Trazado_815005" data-name="Trazado 815005" d="M47.309,86.994c-5.468,0-18.5-7.8-19.053-8.123a.625.625,0,0,1-.306-.537V63.473a.625.625,0,0,1,.625-.625c.044,0,4.53-.119,9.723,0A18.413,18.413,0,0,1,49.546,67.7h6.8a3.749,3.749,0,0,1,3.706,3.712,3.954,3.954,0,0,1,0,.475L70.279,67.16A3.643,3.643,0,0,1,73.672,73.6c-1.056.756-18.121,12.929-26.039,13.379ZM29.231,77.964c1.975,1.206,13.391,7.78,18.046,7.78h.256c7.655-.437,25.233-13.041,25.408-13.172L73,72.534A2.393,2.393,0,0,0,70.785,68.3L59.225,73.64a.625.625,0,0,1-.794-.912,2.381,2.381,0,0,0,.394-1.318,2.462,2.462,0,0,0-2.456-2.462H49.29a.625.625,0,0,1-.419-.156A17.278,17.278,0,0,0,38.248,64.1c-4.043-.094-7.655-.037-9.048,0Z" transform="translate(-8.234 -20.375)"/>
      <path id="Trazado_815006" data-name="Trazado 815006" d="M64.833,79.9H51.2a.625.625,0,0,1,0-1.25H64.833a2.456,2.456,0,0,0,2.456-2.456.625.625,0,0,1,1.25,0A3.712,3.712,0,0,1,64.833,79.9Z" transform="translate(-16.723 -25.167)"/>
      <path id="Trazado_815007" data-name="Trazado 815007" d="M17.941,80.187H9.024A3.024,3.024,0,0,1,6,77.162V61.184A3.024,3.024,0,0,1,9.024,58.16h8.917A3.024,3.024,0,0,1,21,61.184V77.162a3.024,3.024,0,0,1-3.056,3.024ZM9.024,59.378A1.775,1.775,0,0,0,7.25,61.184V77.162a1.775,1.775,0,0,0,1.775,1.775h8.917a1.775,1.775,0,0,0,1.806-1.775V61.184a1.775,1.775,0,0,0-1.775-1.775Z" transform="translate(0 -18.636)"/>
      <path id="Trazado_815008" data-name="Trazado 815008" d="M76.35,9.48H93V25.5H76.35Z" transform="translate(-26.39 -0.375)" fill="#f76c82"/>
      <path id="Trazado_815009" data-name="Trazado 815009" d="M96.98,9.48h3.762V25.5H96.98Z" transform="translate(-34.129 -0.375)" fill="#eb5463"/>
      <path id="Trazado_815010" data-name="Trazado 815010" d="M63.284,43.106H19.955a.625.625,0,0,1-.625-.625V34.745a.625.625,0,0,1,1.25,0v7.111H62.659V34.745a.625.625,0,0,1,1.25,0v7.736A.625.625,0,0,1,63.284,43.106Z" transform="translate(-5 -9.618)"/>
      <path id="Trazado_815011" data-name="Trazado 815011" d="M54.715,49.323a.625.625,0,0,1-.625-.625V34.745a.625.625,0,0,1,1.25,0V48.7A.625.625,0,0,1,54.715,49.323Z" transform="translate(-18.04 -9.618)"/>
      <path id="Trazado_815012" data-name="Trazado 815012" d="M92.628,25.752H75.975a.625.625,0,0,1-.625-.625V9.1a.629.629,0,0,1,.625-.625H92.628a.619.619,0,0,1,.625.625V25.127A.625.625,0,0,1,92.628,25.752ZM76.6,24.5H92V9.736H76.6Z" transform="translate(-26.015 0)"/>
      <path id="Trazado_815013" data-name="Trazado 815013" d="M92.035,29.3v2.781H80.2V29.3a2.162,2.162,0,0,1,2.162-2.162h7.5A2.162,2.162,0,0,1,92.035,29.3Z" transform="translate(-27.834 -7)" fill="#b3a4ee"/>
      <path id="Trazado_815014" data-name="Trazado 815014" d="M96.139,29.3v2.781H93.3V29.3A2.156,2.156,0,0,0,91.14,27.14h2.837A2.156,2.156,0,0,1,96.139,29.3Z" transform="translate(-31.938 -7)" fill="#ac92ea"/>
      <path id="Trazado_815015" data-name="Trazado 815015" d="M91.66,32.333H79.825a.625.625,0,0,1-.625-.625V28.927a2.787,2.787,0,0,1,2.787-2.787h7.5a2.787,2.787,0,0,1,2.787,2.787v2.781a.625.625,0,0,1-.613.625Zm-11.21-1.25H91.035V28.927A1.537,1.537,0,0,0,89.5,27.39H82a1.537,1.537,0,0,0-1.55,1.537Z" transform="translate(-27.459 -6.625)"/>
      <path id="Trazado_815016" data-name="Trazado 815016" d="M94.155,34.129a.625.625,0,0,1-.625-.625v-1.95a.625.625,0,0,1,1.25,0V33.5A.625.625,0,0,1,94.155,34.129Z" transform="translate(-32.834 -8.421)"/>
      <path id="Trazado_815017" data-name="Trazado 815017" d="M84.435,34.129a.625.625,0,0,1-.625-.625v-1.95a.625.625,0,0,1,1.25,0V33.5A.625.625,0,0,1,84.435,34.129Z" transform="translate(-29.188 -8.421)"/>
      <path id="Trazado_815018" data-name="Trazado 815018" d="M90.9,16.251C90.9,17.957,89.527,20,87.821,20s-3.081-2.037-3.081-3.749a3.081,3.081,0,1,1,6.161,0Z" transform="translate(-29.537 -1.759)" fill="#fff"/>
      <path id="Trazado_815019" data-name="Trazado 815019" d="M87.446,20.23c-2.087,0-3.706-2.343-3.706-4.374a3.706,3.706,0,1,1,7.411,0C91.151,17.886,89.526,20.23,87.446,20.23Zm0-6.817a2.462,2.462,0,0,0-2.456,2.456c0,1.406,1.131,3.124,2.456,3.124S89.9,17.286,89.9,15.868A2.462,2.462,0,0,0,87.446,13.412Z" transform="translate(-29.162 -1.377)"/>
      <path id="Trazado_815020" data-name="Trazado 815020" d="M41.67,9.48H58.323V25.5H41.67Z" transform="translate(-13.381 -0.375)" fill="#b4df80"/>
      <path id="Trazado_815021" data-name="Trazado 815021" d="M62.3,9.48h3.762V25.5H62.3Z" transform="translate(-21.119 -0.375)" fill="#9ed26a"/>
      <path id="Trazado_815022" data-name="Trazado 815022" d="M57.948,25.752H41.295a.625.625,0,0,1-.625-.625V9.1a.625.625,0,0,1,.625-.625H57.948a.625.625,0,0,1,.625.625V25.127A.625.625,0,0,1,57.948,25.752ZM41.92,24.5h15.4V9.736H41.92Z" transform="translate(-13.005 0)"/>
      <path id="Trazado_815023" data-name="Trazado 815023" d="M57.365,29.3v2.781H45.53V29.3A2.162,2.162,0,0,1,47.7,27.14h7.5A2.162,2.162,0,0,1,57.365,29.3Z" transform="translate(-14.829 -7)" fill="#66d4f1"/>
      <path id="Trazado_815024" data-name="Trazado 815024" d="M61.469,29.3v2.781H58.632V29.3A2.162,2.162,0,0,0,56.47,27.14H59.3A2.162,2.162,0,0,1,61.469,29.3Z" transform="translate(-18.932 -7)" fill="#4fc0e8"/>
      <path id="Trazado_815025" data-name="Trazado 815025" d="M56.99,32.333H45.155a.625.625,0,0,1-.625-.625V28.927a2.787,2.787,0,0,1,2.793-2.787h7.5a2.787,2.787,0,0,1,2.787,2.787v2.781a.625.625,0,0,1-.619.625Zm-11.21-1.25H56.365V28.927a1.537,1.537,0,0,0-1.543-1.537h-7.5a1.537,1.537,0,0,0-1.537,1.537Z" transform="translate(-14.453 -6.625)"/>
      <path id="Trazado_815026" data-name="Trazado 815026" d="M59.485,34.129a.625.625,0,0,1-.625-.625v-1.95a.625.625,0,0,1,1.25,0V33.5A.625.625,0,0,1,59.485,34.129Z" transform="translate(-19.829 -8.421)"/>
      <path id="Trazado_815027" data-name="Trazado 815027" d="M49.765,34.129a.625.625,0,0,1-.625-.625v-1.95a.625.625,0,0,1,1.25,0V33.5A.625.625,0,0,1,49.765,34.129Z" transform="translate(-16.183 -8.421)"/>
      <path id="Trazado_815028" data-name="Trazado 815028" d="M56.231,16.251c0,1.706-1.381,3.749-3.081,3.749s-3.081-2.037-3.081-3.749a3.081,3.081,0,1,1,6.161,0Z" transform="translate(-16.532 -1.759)" fill="#fff"/>
      <path id="Trazado_815029" data-name="Trazado 815029" d="M52.776,20.23c-2.087,0-3.706-2.343-3.706-4.374a3.706,3.706,0,1,1,7.411,0C56.481,17.886,54.863,20.23,52.776,20.23Zm0-6.817a2.462,2.462,0,0,0-2.456,2.456c0,1.406,1.131,3.124,2.456,3.124s2.456-1.706,2.456-3.124A2.462,2.462,0,0,0,52.776,13.412Z" transform="translate(-16.157 -1.377)"/>
      <path id="Trazado_815030" data-name="Trazado 815030" d="M7,9.48H23.653V25.5H7Z" transform="translate(-0.375 -0.375)" fill="#fbd277"/>
      <path id="Trazado_815031" data-name="Trazado 815031" d="M27.63,9.48h3.762V25.5H27.63Z" transform="translate(-8.114 -0.375)" fill="#fdcd56"/>
      <path id="Trazado_815032" data-name="Trazado 815032" d="M23.278,25.752H6.625A.625.625,0,0,1,6,25.127V9.1a.625.625,0,0,1,.625-.625H23.278A.625.625,0,0,1,23.9,9.1V25.127A.625.625,0,0,1,23.278,25.752ZM7.25,24.5h15.4V9.736H7.25Z" transform="translate(0 0)"/>
      <path id="Trazado_815033" data-name="Trazado 815033" d="M22.685,29.3v2.781H10.85V29.3a2.162,2.162,0,0,1,2.162-2.162h7.5A2.156,2.156,0,0,1,22.685,29.3Z" transform="translate(-1.819 -7)" fill="#f76c82"/>
      <path id="Trazado_815034" data-name="Trazado 815034" d="M26.793,29.3v2.781H23.962V29.3A2.162,2.162,0,0,0,21.8,27.14h2.831A2.156,2.156,0,0,1,26.793,29.3Z" transform="translate(-5.927 -7)" fill="#eb5463"/>
      <path id="Trazado_815035" data-name="Trazado 815035" d="M22.31,32.333H10.475a.625.625,0,0,1-.625-.625V28.927a2.787,2.787,0,0,1,2.787-2.787h7.5a2.787,2.787,0,0,1,2.787,2.787v2.781a.625.625,0,0,1-.613.625ZM11.1,31.083H21.685V28.927a1.537,1.537,0,0,0-1.537-1.537h-7.5a1.537,1.537,0,0,0-1.537,1.537Z" transform="translate(-1.444 -6.625)"/>
      <path id="Trazado_815036" data-name="Trazado 815036" d="M24.8,34.129a.625.625,0,0,1-.625-.625v-1.95a.625.625,0,0,1,1.25,0V33.5A.625.625,0,0,1,24.8,34.129Z" transform="translate(-6.82 -8.421)"/>
      <path id="Trazado_815037" data-name="Trazado 815037" d="M15.085,34.129a.625.625,0,0,1-.625-.625v-1.95a.625.625,0,1,1,1.25,0V33.5a.625.625,0,0,1-.625.625Z" transform="translate(-3.174 -8.421)"/>
      <path id="Trazado_815038" data-name="Trazado 815038" d="M21.558,16.33c0,1.706-1.381,3.749-3.087,3.749S15.39,18.042,15.39,16.33a3.087,3.087,0,0,1,6.168,0Z" transform="translate(-3.522 -1.839)" fill="#fff"/>
      <path id="Trazado_815039" data-name="Trazado 815039" d="M18.1,20.317c-2.087,0-3.706-2.343-3.706-4.374a3.712,3.712,0,0,1,7.417,0c0,2.031-1.625,4.374-3.712,4.374Zm0-6.817a2.462,2.462,0,0,0-2.456,2.456c0,1.406,1.137,3.124,2.456,3.124s2.462-1.706,2.462-3.124A2.5,2.5,0,0,0,18.1,13.5Z" transform="translate(-3.147 -1.464)"/>
    </g>
  </g>
</svg>
