<svg xmlns="http://www.w3.org/2000/svg" width="92" height="92" viewBox="0 0 92 92">
  <g id="Grupo_1070000" data-name="Grupo 1070000" transform="translate(-5750 8619)">
    <circle id="Elipse_9124" data-name="Elipse 9124" cx="46" cy="46" r="46" transform="translate(5750 -8619)" fill="#d89ca7"/>
    <g id="Grupo_1068768" data-name="Grupo 1068768" transform="translate(4954 -12653)">
      <g id="actuacion" transform="translate(796.596 4043.006)">
        <g id="Grupo_1068751" data-name="Grupo 1068751" transform="translate(17.813 8.968)">
          <g id="Grupo_1068748" data-name="Grupo 1068748" transform="translate(5.555 0)">
            <path id="Trazado_815040" data-name="Trazado 815040" d="M71.95,16h35.879a1.13,1.13,0,0,1,.828.343l6.571,6.571a1.131,1.131,0,0,1,.343.828V72.883a1.173,1.173,0,0,1-1.17,1.17H71.95a1.173,1.173,0,0,1-1.17-1.17V17.17A1.173,1.173,0,0,1,71.95,16Z" transform="translate(-70.78 -16)" fill="#eceff1" fill-rule="evenodd"/>
            <path id="Trazado_815041" data-name="Trazado 815041" d="M71.95,16h2.141V74.053H71.95a1.173,1.173,0,0,1-1.17-1.17V17.17A1.173,1.173,0,0,1,71.95,16Z" transform="translate(-70.78 -16)" fill="#d1d1d6" fill-rule="evenodd"/>
            <path id="Trazado_815042" data-name="Trazado 815042" d="M381.122,16.839a1.174,1.174,0,0,1,.343.241l6.571,6.571a1.173,1.173,0,0,1,.241.343h-6.57a.586.586,0,0,1-.585-.585Z" transform="translate(-343.588 -16.738)" fill="#a79ba7" fill-rule="evenodd"/>
          </g>
          <g id="Grupo_1068749" data-name="Grupo 1068749" transform="translate(0 20.337)">
            <path id="Trazado_815043" data-name="Trazado 815043" d="M191.367,331.1l3.693,2.235,3.207,7.144-2.227,1.286-4.583-6.349Z" transform="translate(-171.228 -313.332)" fill="#9facba" fill-rule="evenodd"/>
            <path id="Trazado_815044" data-name="Trazado 815044" d="M191.367,331.1l1,.606.071,3.425,4.439,6.15-.839.484-4.583-6.349Z" transform="translate(-171.228 -313.332)" fill="#8d9ca8" fill-rule="evenodd"/>
            <path id="Trazado_815045" data-name="Trazado 815045" d="M52.806,184.149a27.956,27.956,0,0,1,27.956,27.956h-11.7a17.617,17.617,0,0,0-35.136,0H24.85A27.956,27.956,0,0,1,52.806,184.149Z" transform="translate(-24.85 -184.149)" fill="#00e499" fill-rule="evenodd"/>
            <path id="Trazado_815046" data-name="Trazado 815046" d="M96.09,229.877H86.838a17.617,17.617,0,0,0-35.136,0H45.068a25.511,25.511,0,1,1,51.022,0Z" transform="translate(-42.623 -201.921)" fill="#6cf5c2" fill-rule="evenodd"/>
            <path id="Trazado_815047" data-name="Trazado 815047" d="M153.078,195.8a17.54,17.54,0,0,1,9.221,2.6l6.068-10.51a27.991,27.991,0,0,0-27.961,0l5.455,9.448a17.506,17.506,0,0,1,5.662-1.474Q152.291,195.8,153.078,195.8Z" transform="translate(-126.43 -184.149)" fill="#60b7ff" fill-rule="evenodd"/>
            <path id="Trazado_815048" data-name="Trazado 815048" d="M161.969,213.571a17.54,17.54,0,0,1,9.221,2.6l4.845-8.392a25.538,25.538,0,0,0-25.514,0l4.232,7.33a17.505,17.505,0,0,1,5.662-1.474Q161.182,213.571,161.969,213.571Z" transform="translate(-135.321 -201.923)" fill="#8ac9fe" fill-rule="evenodd"/>
            <path id="Trazado_815049" data-name="Trazado 815049" d="M327.49,215.084l-6.068,10.51a17.683,17.683,0,0,1,7.053,8.258,17.522,17.522,0,0,1,1.294,5.447h11.7A27.945,27.945,0,0,0,327.49,215.084Z" transform="translate(-285.553 -211.343)" fill="#fd4755" fill-rule="evenodd"/>
            <path id="Trazado_815050" data-name="Trazado 815050" d="M326.267,232.6l-4.845,8.392a17.683,17.683,0,0,1,7.053,8.258,17.522,17.522,0,0,1,1.294,5.447h9.251A25.5,25.5,0,0,0,326.267,232.6Z" transform="translate(-285.553 -226.741)" fill="#fe646f" fill-rule="evenodd"/>
          </g>
          <g id="Grupo_1068750" data-name="Grupo 1068750" transform="translate(21.707 45.567)">
            <circle id="Elipse_9125" data-name="Elipse 9125" cx="6.243" cy="6.243" r="6.243" fill="#ffc338"/>
            <path id="Trazado_815051" data-name="Trazado 815051" d="M252.068,392.759a6.243,6.243,0,0,1,0,12.486c-.18,0-.358-.008-.534-.023a6.243,6.243,0,0,0,0-12.44C251.71,392.767,251.888,392.759,252.068,392.759Z" transform="translate(-245.825 -392.759)" fill="#f5b829" fill-rule="evenodd"/>
          </g>
        </g>
        <path id="Trazado_815052" data-name="Trazado 815052" d="M72.74,56.293a27,27,0,0,0-12.652-21.9l-5.111,8.852a18.752,18.752,0,0,1,2.161,1.734q.417.39.807.8l2.509-2.106A.968.968,0,0,1,61.7,45.159L59.2,47.251a18.52,18.52,0,0,1,2.05,3.344l3.11-1.132a.968.968,0,0,1,.662,1.819l-3.033,1.1a18.556,18.556,0,0,1,.915,3.906H72.74Zm-5.549,1.935V65.85a.206.206,0,0,1-.2.2H50.672a7.208,7.208,0,0,0-6.019-12.4l-2.126-4.736a.957.957,0,0,0-.38-.432l-3.694-2.235a.968.968,0,0,0-1.468.848l.089,4.315a.964.964,0,0,0,.183.547l3.005,4.164a7.195,7.195,0,0,0,.593,9.93H24.538a.205.205,0,0,1-.2-.2V58.228h2.557a.967.967,0,0,0,.965-.9,16.649,16.649,0,0,1,33.205,0,.968.968,0,0,0,.965.9ZM42.785,54.214l-1.9-4.229-1.93-1.168L39,51.072l2.706,3.747A7.3,7.3,0,0,1,42.785,54.214Zm2.978,11.839a5.276,5.276,0,1,0-5.276-5.276A5.282,5.282,0,0,0,45.764,66.053ZM18.8,56.293h7.216a18.47,18.47,0,0,1,1.234-4.743l-3-1.092a.967.967,0,1,1,.663-1.818l3.163,1.152A18.546,18.546,0,0,1,30.8,45.967L28.366,43.92a.968.968,0,0,1,1.245-1.482l2.586,2.17a18.569,18.569,0,0,1,3.69-2.53L31.45,34.394A27,27,0,0,0,18.8,56.293Zm34.529-14.06a18.476,18.476,0,0,0-3.66-1.508l.577-3.273a.968.968,0,1,0-1.906-.336l-.559,3.166a18.69,18.69,0,0,0-3.319-.3c-.251,0-.5.006-.752.016l-.583-3.3a.968.968,0,0,0-1.906.336l.555,3.146a18.565,18.565,0,0,0-4.121,1.092l-4.53-7.848a26.953,26.953,0,0,1,25.291,0Zm-28.991-4.4v-27.7a.205.205,0,0,1,.2-.2h35.4v5.7a1.555,1.555,0,0,0,1.553,1.553h5.7V37.826q-.472-.519-.97-1.018a28.925,28.925,0,0,0-40.9,0q-.5.506-.981,1.03ZM61.87,11.3v3.954h3.954ZM74.694,57.261a.968.968,0,0,1-.968.968h-4.6V65.85a2.14,2.14,0,0,1-2.138,2.138H24.538A2.14,2.14,0,0,1,22.4,65.85V58.228H17.813a.968.968,0,0,1-.968-.968A28.713,28.713,0,0,1,22.4,40.209V10.138A2.139,2.139,0,0,1,24.538,8h35.88a2.1,2.1,0,0,1,1.511.626L68.5,15.2a2.1,2.1,0,0,1,.626,1.512V40.193a28.706,28.706,0,0,1,5.567,17.068ZM33.706,15.242H48.529a.968.968,0,1,0,0-1.935H33.706a.968.968,0,0,0,0,1.935Zm-5.866,0h1.585a.968.968,0,0,0,0-1.935H27.84a.968.968,0,0,0,0,1.935Zm5.866,5.287H48.529a.968.968,0,0,0,0-1.935H33.706a.968.968,0,0,0,0,1.935Zm-5.866,0h1.585a.968.968,0,0,0,0-1.935H27.84a.968.968,0,0,0,0,1.935Zm5.866,5.288H48.529a.968.968,0,0,0,0-1.935H33.706a.968.968,0,0,0,0,1.935Zm-5.866,0h1.585a.968.968,0,0,0,0-1.935H27.84a.968.968,0,0,0,0,1.935ZM48.716,62.122c-.154-1.263-1.092-2.044-2.79-2.322-.645-.106-.978-.287-.99-.538-.019-.391.43-.524.568-.555a1.024,1.024,0,0,1,1.205.548.967.967,0,1,0,1.784-.749,2.851,2.851,0,0,0-1.762-1.622v-.058a.968.968,0,1,0-1.935,0V56.9A2.447,2.447,0,0,0,43,59.356c.035.724.421,1.994,2.61,2.354,1.126.185,1.166.508,1.183.646a.235.235,0,0,1-.049.209,1.383,1.383,0,0,1-.924.313,1.049,1.049,0,0,1-1.122-.656.967.967,0,1,0-1.877.468A2.775,2.775,0,0,0,44.8,64.677v.051a.968.968,0,0,0,1.935,0v-.034a2.9,2.9,0,0,0,1.478-.862,2.145,2.145,0,0,0,.507-1.709Z" fill-rule="evenodd"/>
      </g>
      <g id="Grupo_1068767" data-name="Grupo 1068767" transform="translate(-60.013 -35.764)">
        <path id="Trazado_815084" data-name="Trazado 815084" d="M27,17.3A10.3,10.3,0,1,1,37.3,27.6,10.3,10.3,0,0,1,27,17.3Z" transform="translate(885.736 4082.736)" fill="#fcd770"/>
        <g id="Grupo_1068766" data-name="Grupo 1068766" transform="translate(912 4089)">
          <path id="Trazado_815080" data-name="Trazado 815080" d="M40.207,16H38v7.357h1.471V20.414h.736a2.207,2.207,0,0,0,0-4.414Zm0,2.943h-.736V17.471h.736a.736.736,0,0,1,0,1.471Z" transform="translate(-29.171 -8.643)"/>
          <path id="Trazado_815081" data-name="Trazado 815081" d="M32.943,16.736a2.2,2.2,0,0,1-1.471,2.072V16H30v7.357h1.471V20.55a2.2,2.2,0,0,1,1.471,2.072v.736h1.471v-.736a3.666,3.666,0,0,0-1.494-2.943,3.666,3.666,0,0,0,1.494-2.943V16H32.943Z" transform="translate(-27.057 -8.643)"/>
          <path id="Trazado_815082" data-name="Trazado 815082" d="M46,17.471h1.471v4.414H46v1.471h4.414V21.886H48.943V17.471h1.471V16H46Z" transform="translate(-31.285 -8.643)"/>
          <path id="Trazado_815083" data-name="Trazado 815083" d="M37.036,6A11.036,11.036,0,1,0,48.072,17.036,11.049,11.049,0,0,0,37.036,6Zm0,20.6A9.565,9.565,0,1,1,46.6,17.036,9.576,9.576,0,0,1,37.036,26.6Z" transform="translate(-26 -6)"/>
        </g>
      </g>
    </g>
  </g>
</svg>
