<svg xmlns="http://www.w3.org/2000/svg" width="92" height="92" viewBox="0 0 92 92">
  <g id="Grupo_1069998" data-name="Grupo 1069998" transform="translate(-5750 8203)">
    <circle id="Elipse_9126" data-name="Elipse 9126" cx="46" cy="46" r="46" transform="translate(5750 -8203)" fill="#f77e6b"/>
    <g id="Fill_Outline" data-name="Fill Outline" transform="translate(5765.8 -8186.2)">
      <g id="Color" transform="translate(2.907 2.907)">
        <path id="Trazado_815109" data-name="Trazado 815109" d="M22,7H57.36V21.507H22Z" transform="translate(-4.773 -3.373)" fill="#48cae4"/>
        <path id="Trazado_815110" data-name="Trazado 815110" d="M57.36,14.253v7.253H22V7h6.4a8.154,8.154,0,0,0,8.106,7.253Z" transform="translate(-4.773 -3.373)" fill="#00b4d8"/>
        <path id="Trazado_815111" data-name="Trazado 815111" d="M11,31H43.64V45.507H11Z" transform="translate(-3.747 -5.613)" fill="#49e387"/>
        <path id="Trazado_815112" data-name="Trazado 815112" d="M24.76,16.6V11.16H22.53a9.491,9.491,0,0,0-.617-1.469L23.5,8.114,19.647,4.26,18.069,5.847A9.491,9.491,0,0,0,16.6,5.23V3H11.16V5.23a9.491,9.491,0,0,0-1.469.617L8.114,4.26,4.26,8.114,5.847,9.691A9.491,9.491,0,0,0,5.23,11.16H3V16.6H5.23a9.491,9.491,0,0,0,.617,1.469L4.26,19.647,8.114,23.5l1.578-1.587a9.491,9.491,0,0,0,1.469.617v2.23H16.6V22.53a9.491,9.491,0,0,0,1.469-.617L19.647,23.5,23.5,19.647l-1.587-1.578A9.491,9.491,0,0,0,22.53,16.6ZM13.88,18.413a4.533,4.533,0,1,1,4.533-4.533A4.533,4.533,0,0,1,13.88,18.413Z" transform="translate(-3 -3)" fill="#e9f1f2"/>
        <path id="Trazado_815113" data-name="Trazado 815113" d="M18.413,21.325A11.787,11.787,0,0,1,7.515,5.05L4.26,8.3,5.847,9.883a9.491,9.491,0,0,0-.617,1.469H3v5.44H5.23a9.491,9.491,0,0,0,.617,1.469L4.26,19.838l3.853,3.853L9.691,22.1a9.491,9.491,0,0,0,1.469.617v2.23H16.6v-2.23a9.491,9.491,0,0,0,1.469-.617l1.578,1.587L22.9,20.436a11.722,11.722,0,0,1-4.488.889Z" transform="translate(-3 -3.191)" fill="#d0d8da"/>
        <path id="Trazado_815114" data-name="Trazado 815114" d="M14.347,8a6.342,6.342,0,1,0,4.489,1.858A6.347,6.347,0,0,0,14.347,8Zm0,10.88a4.533,4.533,0,1,1,4.533-4.533A4.533,4.533,0,0,1,14.347,18.88Z" transform="translate(-3.467 -3.467)" fill="#d0d8da"/>
        <path id="Trazado_815115" data-name="Trazado 815115" d="M8,15.01a6.347,6.347,0,0,0,6.338,6.338A11.852,11.852,0,0,1,8,15.01Z" transform="translate(-3.467 -4.121)" fill="#93999a"/>
        <path id="Trazado_815116" data-name="Trazado 815116" d="M43.64,38.253v7.253H11V31h6.4a8.154,8.154,0,0,0,8.106,7.253Z" transform="translate(-3.747 -5.613)" fill="#37cf74"/>
        <path id="Trazado_815117" data-name="Trazado 815117" d="M24,45H56.64V59.507H24Z" transform="translate(-4.96 -6.92)" fill="#ffea00"/>
        <path id="Trazado_815118" data-name="Trazado 815118" d="M56.64,52.253v7.253H24V45h6.4a8.154,8.154,0,0,0,8.106,7.253Z" transform="translate(-4.96 -6.92)" fill="#ffd000"/>
      </g>
      <g id="Outline_copy" data-name="Outline copy" transform="translate(2 2)">
        <path id="Trazado_815119" data-name="Trazado 815119" d="M59.32,6H51.16a.907.907,0,1,0,0,1.813h7.253V20.507H43.907a.907.907,0,1,0,0,1.813H59.32a.907.907,0,0,0,.907-.907V6.907A.907.907,0,0,0,59.32,6Z" transform="translate(-5.826 -2.373)" fill="#12263f"/>
        <path id="Trazado_815120" data-name="Trazado 815120" d="M19.067,44.507H11.813V31.813H42.64v8.16a.907.907,0,1,0,1.813,0V30.907A.907.907,0,0,0,43.547,30H10.907a.907.907,0,0,0-.907.907V45.413a.907.907,0,0,0,.907.907h8.16a.907.907,0,0,0,0-1.813Z" transform="translate(-2.747 -4.613)" fill="#12263f"/>
        <path id="Trazado_815121" data-name="Trazado 815121" d="M56.547,44H23.907a.907.907,0,0,0-.907.907V59.413a.907.907,0,0,0,.907.907h9.067a.907.907,0,0,0,0-1.813h-8.16V45.813H55.64V58.507H36.6a.907.907,0,0,0,0,1.813H56.547a.907.907,0,0,0,.907-.907V44.907A.907.907,0,0,0,56.547,44Z" transform="translate(-3.96 -5.92)" fill="#12263f"/>
        <path id="Trazado_815122" data-name="Trazado 815122" d="M6.554,17.556A8.1,8.1,0,0,1,6,16.235a.907.907,0,0,0-.865-.635H2.907a.907.907,0,0,0,0,1.813H4.5c.051.126.1.251.159.377L3.53,18.916a.907.907,0,0,0,0,1.282l3.846,3.846a.907.907,0,0,0,1.282,0l1.125-1.125c.126.055.251.108.377.159v1.589a.907.907,0,0,0,.907.907h5.44a.907.907,0,0,0,.907-.907V23.077c.126-.051.251-.1.377-.159l1.125,1.125a.907.907,0,0,0,1.282,0l2.1-2.1H36.454a.907.907,0,1,0,0-1.813H24.087a.9.9,0,0,0-.043-1.218l-1.125-1.125c.055-.126.108-.251.159-.377h1.589a.907.907,0,0,0,.907-.907v-5.44a.907.907,0,0,0-.907-.907H23.077c-.051-.126-.1-.251-.159-.377l1.125-1.125a.9.9,0,0,0,.043-1.218h19.62a.907.907,0,0,0,0-1.813H22.295l-2.1-2.1a.907.907,0,0,0-1.282,0L17.791,4.655c-.126-.055-.251-.108-.377-.159V2.907A.907.907,0,0,0,16.507,2h-5.44a.907.907,0,0,0-.907.907V4.5c-.126.051-.251.1-.377.159L8.658,3.53a.907.907,0,0,0-1.282,0L3.53,7.376a.907.907,0,0,0,0,1.282L4.655,9.783c-.055.126-.108.251-.159.377H2.907A.907.907,0,0,0,2,11.067V12.88a.907.907,0,1,0,1.813,0v-.907H5.136A.907.907,0,0,0,6,11.339a8.1,8.1,0,0,1,.553-1.321.907.907,0,0,0-.162-1.062l-.939-.939L8.017,5.453l.939.939a.907.907,0,0,0,1.062.162A8.1,8.1,0,0,1,11.339,6a.907.907,0,0,0,.635-.865V3.813H15.6V5.136A.907.907,0,0,0,16.235,6a8.1,8.1,0,0,1,1.321.553.907.907,0,0,0,1.062-.162l.939-.939,2.564,2.564-.939.939a.907.907,0,0,0-.162,1.062,8.1,8.1,0,0,1,.553,1.321.907.907,0,0,0,.865.635H23.76V15.6H22.437a.907.907,0,0,0-.865.635,8.1,8.1,0,0,1-.553,1.321.907.907,0,0,0,.162,1.062l.939.939-2.564,2.564-.939-.939a.907.907,0,0,0-1.062-.162,8.1,8.1,0,0,1-1.321.553.907.907,0,0,0-.635.865V23.76H11.973V22.437a.907.907,0,0,0-.635-.865,8.1,8.1,0,0,1-1.321-.553.907.907,0,0,0-1.062.162l-.939.939L5.453,19.557l.939-.939a.907.907,0,0,0,.162-1.062Z" transform="translate(-2 -2)" fill="#12263f"/>
        <path id="Trazado_815123" data-name="Trazado 815123" d="M18.316,16.927a.907.907,0,0,0,1.179-.514,5.471,5.471,0,1,0-3.078,3.078.907.907,0,1,0-.661-1.688,3.657,3.657,0,1,1,2.051-2.051.907.907,0,0,0,.51,1.175Z" transform="translate(-2.647 -2.647)" fill="#12263f"/>
        <path id="Trazado_815124" data-name="Trazado 815124" d="M31.907,17.253a.907.907,0,1,0,0,1.813h3.627a.907.907,0,1,0,0-1.813h-.907V10.907a.907.907,0,0,0-1.548-.641l-1.813,1.813a.907.907,0,1,0,1.282,1.282l.266-.266v4.158Z" transform="translate(-4.706 -2.747)" fill="#12263f"/>
        <path id="Trazado_815125" data-name="Trazado 815125" d="M54.787,10H43.907a.907.907,0,0,0,0,1.813h10.88a.907.907,0,0,0,0-1.813Z" transform="translate(-5.826 -2.747)" fill="#12263f"/>
        <path id="Trazado_815126" data-name="Trazado 815126" d="M54.32,14H38.907a.907.907,0,1,0,0,1.813H54.32a.907.907,0,1,0,0-1.813Z" transform="translate(-5.36 -3.12)" fill="#12263f"/>
        <path id="Trazado_815127" data-name="Trazado 815127" d="M54.507,18h-13.6a.907.907,0,0,0,0,1.813h13.6a.907.907,0,1,0,0-1.813Z" transform="translate(-5.546 -3.493)" fill="#12263f"/>
        <path id="Trazado_815128" data-name="Trazado 815128" d="M53.361,32.612a.907.907,0,0,0-1.282,0l-1.813,1.813a.907.907,0,0,0,0,1.282l1.813,1.813a.907.907,0,1,0,1.282-1.282l-.266-.266h3.251a.907.907,0,0,0,.907-.907v-8.16a.907.907,0,0,0-1.813,0V34.16H53.1l.266-.266A.907.907,0,0,0,53.361,32.612Z" transform="translate(-6.48 -4.24)" fill="#12263f"/>
        <path id="Trazado_815129" data-name="Trazado 815129" d="M12.614,49.959a.907.907,0,1,0-1.282,1.282l.266.266H3.813V38.813h2.72a.907.907,0,1,0,0-1.813H2.907A.907.907,0,0,0,2,37.907V52.413a.907.907,0,0,0,.907.907H11.6l-.266.266a.907.907,0,1,0,1.282,1.282l1.813-1.813a.907.907,0,0,0,0-1.282Z" transform="translate(-2 -5.266)" fill="#12263f"/>
        <path id="Trazado_815130" data-name="Trazado 815130" d="M20.44,36.72a2.72,2.72,0,1,0-5.44,0,.907.907,0,0,0,1.813,0,.907.907,0,0,1,1.783-.23l-3.445,5.168a.907.907,0,0,0,.755,1.409h3.627a.907.907,0,0,0,0-1.813H17.6l2.686-4.03a.912.912,0,0,0,.152-.5Z" transform="translate(-3.213 -4.986)" fill="#12263f"/>
        <path id="Trazado_815131" data-name="Trazado 815131" d="M40.787,35H29.907a.907.907,0,0,0,0,1.813h10.88a.907.907,0,1,0,0-1.813Z" transform="translate(-4.52 -5.08)" fill="#12263f"/>
        <path id="Trazado_815132" data-name="Trazado 815132" d="M40.32,39H24.907a.907.907,0,0,0,0,1.813H40.32a.907.907,0,1,0,0-1.813Z" transform="translate(-4.053 -5.453)" fill="#12263f"/>
        <path id="Trazado_815133" data-name="Trazado 815133" d="M31.72,48A2.72,2.72,0,0,0,29,50.72a.907.907,0,1,0,1.813,0,.907.907,0,1,1,.907.907.907.907,0,0,0,0,1.813.907.907,0,1,1-.907.907.907.907,0,1,0-1.813,0,2.72,2.72,0,1,0,4.746-1.813A2.72,2.72,0,0,0,31.72,48Z" transform="translate(-4.52 -6.293)" fill="#12263f"/>
        <path id="Trazado_815134" data-name="Trazado 815134" d="M53.787,49.813a.907.907,0,1,0,0-1.813H42.907a.907.907,0,1,0,0,1.813Z" transform="translate(-5.733 -6.293)" fill="#12263f"/>
        <path id="Trazado_815135" data-name="Trazado 815135" d="M38,52.907a.907.907,0,0,0,.907.907H53.413a.907.907,0,0,0,0-1.813H38.907A.907.907,0,0,0,38,52.907Z" transform="translate(-5.36 -6.666)" fill="#12263f"/>
        <path id="Trazado_815136" data-name="Trazado 815136" d="M38.907,57.813H53.413a.907.907,0,0,0,0-1.813H38.907a.907.907,0,0,0,0,1.813Z" transform="translate(-5.36 -7.04)" fill="#12263f"/>
      </g>
    </g>
  </g>
</svg>
