<svg xmlns="http://www.w3.org/2000/svg" width="92" height="92" viewBox="0 0 92 92">
  <g id="Grupo_1069997" data-name="Grupo 1069997" transform="translate(-6086 8203)">
    <circle id="Elipse_9174" data-name="Elipse 9174" cx="46" cy="46" r="46" transform="translate(6086 -8203)" fill="#f77e6b"/>
    <g id="_6._Signature" data-name="6. Signature" transform="translate(6108.252 -8184.874)">
      <rect id="Rectángulo_374450" data-name="Rectángulo 374450" width="38" height="55" transform="translate(0.748 0.748)" fill="#f6f6f6"/>
      <path id="Trazado_816698" data-name="Trazado 816698" d="M44.419,465.734H9.734A1.734,1.734,0,0,1,8,464v2.6a1.734,1.734,0,0,0,1.734,1.734H44.419a1.734,1.734,0,0,0,1.734-1.734V464A1.734,1.734,0,0,1,44.419,465.734Z" transform="translate(-7.133 -413.707)" fill="#dcdcdc"/>
      <path id="Trazado_816699" data-name="Trazado 816699" d="M37.286,55.5H2.6a2.6,2.6,0,0,1-2.6-2.6V2.6A2.6,2.6,0,0,1,2.6,0H37.286a2.6,2.6,0,0,1,2.6,2.6V13.874a.867.867,0,0,1-1.734,0V2.6a.867.867,0,0,0-.867-.867H2.6a.867.867,0,0,0-.867.867V52.895a.867.867,0,0,0,.867.867H37.286a.867.867,0,0,0,.867-.867V45.958a.867.867,0,0,1,1.734,0v6.937A2.6,2.6,0,0,1,37.286,55.5Z" transform="translate(0 0)"/>
      <path id="Trazado_816700" data-name="Trazado 816700" d="M352.867,192.28a.867.867,0,0,1-.867-.867V168.867a.867.867,0,0,1,1.734,0v22.545A.867.867,0,0,1,352.867,192.28Z" transform="translate(-313.846 -149.79)"/>
      <path id="Trazado_816701" data-name="Trazado 816701" d="M76.615,193.734H48.867a.867.867,0,0,1,0-1.734H76.615a.867.867,0,0,1,0,1.734Z" transform="translate(-42.797 -171.189)"/>
      <path id="Trazado_816702" data-name="Trazado 816702" d="M76.615,233.734H48.867a.867.867,0,1,1,0-1.734H76.615a.867.867,0,0,1,0,1.734Z" transform="translate(-42.797 -206.853)"/>
      <path id="Trazado_816703" data-name="Trazado 816703" d="M76.615,273.734H48.867a.867.867,0,1,1,0-1.734H76.615a.867.867,0,0,1,0,1.734Z" transform="translate(-42.797 -242.518)"/>
      <path id="Trazado_816704" data-name="Trazado 816704" d="M76.615,313.734H48.867a.867.867,0,1,1,0-1.734H76.615a.867.867,0,0,1,0,1.734Z" transform="translate(-42.797 -278.182)"/>
      <path id="Trazado_816705" data-name="Trazado 816705" d="M76.615,353.734H48.867a.867.867,0,1,1,0-1.734H76.615a.867.867,0,0,1,0,1.734Z" transform="translate(-42.797 -313.846)"/>
      <path id="Trazado_816706" data-name="Trazado 816706" d="M464,256h4.336v14.741H464Z" transform="translate(-413.707 -228.252)" fill="#a8edfd"/>
      <path id="Trazado_816707" data-name="Trazado 816707" d="M464,368h4.336v2.6H464Z" transform="translate(-413.707 -328.112)" fill="#8bd4de"/>
      <path id="Trazado_816708" data-name="Trazado 816708" d="M461.2,264.475h-4.336a.867.867,0,0,1-.867-.867V248.867a.867.867,0,0,1,.867-.867H461.2a.867.867,0,0,1,.867.867v14.741A.867.867,0,0,1,461.2,264.475Zm-3.469-1.734h2.6V249.734h-2.6Z" transform="translate(-406.574 -221.119)"/>
      <path id="Trazado_816709" data-name="Trazado 816709" d="M212.668,243c-4.789,10.261-4.658,10-4.668,10a3.676,3.676,0,0,0,4.174-1.38l2.011-2.872a8.367,8.367,0,0,1,6.822-3.552,2.6,2.6,0,0,1,0,5.2h-3.469a4.336,4.336,0,0,0-4.336,4.336h8.313a2.961,2.961,0,0,1,2.093.867,2.961,2.961,0,0,0,2.094.868h5.879a2.974,2.974,0,0,0,1.325-.312l2.843-1.422V243.468h-1.016a5.922,5.922,0,0,1-4.187-1.734A5.921,5.921,0,0,0,226.358,240h-8.975a5.2,5.2,0,0,0-4.715,3Z" transform="translate(-185.455 -213.986)" fill="#e0c3aa"/>
      <path id="Trazado_816710" data-name="Trazado 816710" d="M200.583,246.7a.867.867,0,0,1-.512-1.192l4.668-10a6.093,6.093,0,0,1,5.5-3.5h8.975a6.744,6.744,0,0,1,4.8,1.988,5.017,5.017,0,0,0,3.577,1.481H228.6a.867.867,0,0,1,.867.867v5.2a.867.867,0,1,1-1.734,0V237.2h-.148a6.744,6.744,0,0,1-4.8-1.988,5.018,5.018,0,0,0-3.577-1.481h-8.975a4.352,4.352,0,0,0-3.929,2.5l-4.175,8.955A2.825,2.825,0,0,0,204.32,244l2.012-2.873a9.2,9.2,0,0,1,7.532-3.923,3.469,3.469,0,0,1,3.469,3.469.867.867,0,0,1-1.734,0,1.734,1.734,0,0,0-1.734-1.734,7.461,7.461,0,0,0-6.11,3.181l-2.013,2.874a4.571,4.571,0,0,1-5.158,1.7Z" transform="translate(-178.311 -206.853)"/>
      <path id="Trazado_816711" data-name="Trazado 816711" d="M0,0H5.2V26.014H0Z" transform="matrix(0.857, 0.516, -0.516, 0.857, 36.458, 20.432)" fill="#6fc3e2"/>
      <path id="Trazado_816712" data-name="Trazado 816712" d="M209.495,206.958l-4.458-2.683a.867.867,0,0,1-.3-1.192L218.154,180.8a.867.867,0,0,1,1.192-.3l4.458,2.683a.867.867,0,0,1,.3,1.192l-13.417,22.286A.867.867,0,0,1,209.495,206.958Zm-2.818-3.721,2.967,1.788,12.519-20.8-2.972-1.788Z" transform="translate(-182.437 -160.824)"/>
      <path id="Trazado_816713" data-name="Trazado 816713" d="M208.893,394.01l-.453,5.8,4.911-3.117Z" transform="translate(-185.847 -351.303)" fill="#a6806f"/>
      <path id="Trazado_816714" data-name="Trazado 816714" d="M200.438,392.613l.454-5.8a.867.867,0,0,1,1.312-.675l4.458,2.683a.867.867,0,0,1,.017,1.475l-4.912,3.116a.867.867,0,0,1-1.329-.8Zm2.074-4.265-.209,2.672,2.262-1.43Z" transform="translate(-178.71 -344.174)"/>
      <path id="Trazado_816715" data-name="Trazado 816715" d="M266.406,312a2.6,2.6,0,0,1-2.6,2.6h-3.469A4.336,4.336,0,0,0,256,318.937h8.312a2.961,2.961,0,0,1,2.093.867,2.961,2.961,0,0,0,2.093.868h5.879a2.974,2.974,0,0,0,1.325-.312l2.843-1.422v-6.07" transform="translate(-228.252 -278.182)" fill="#e0c3aa"/>
      <path id="Trazado_816716" data-name="Trazado 816716" d="M274.378,353.734H268.5a2.961,2.961,0,0,1-2.092-.867,2.961,2.961,0,0,0-2.094-.868h-7.445a4.32,4.32,0,0,0-.867,2.6h8.312a2.961,2.961,0,0,1,2.093.867,2.961,2.961,0,0,0,2.093.868h5.879a2.975,2.975,0,0,0,1.325-.312l2.843-1.422V352l-2.843,1.422A2.975,2.975,0,0,1,274.378,353.734Z" transform="translate(-228.252 -313.846)" fill="#d0a37f"/>
      <path id="Trazado_816717" data-name="Trazado 816717" d="M267.245,314.406h-5.879a3.8,3.8,0,0,1-2.71-1.121,2.076,2.076,0,0,0-1.476-.613h-8.312A.867.867,0,0,1,248,311.8a5.208,5.208,0,0,1,5.2-5.2h3.469a1.734,1.734,0,0,0,1.734-1.734.867.867,0,1,1,1.734,0,3.469,3.469,0,0,1-3.469,3.469H253.2a3.475,3.475,0,0,0-3.36,2.6h7.336a3.8,3.8,0,0,1,2.71,1.121,2.076,2.076,0,0,0,1.477.613h5.879a2.114,2.114,0,0,0,.937-.217l2.364-1.186v-5.534a.867.867,0,0,1,1.734,0v6.07a.867.867,0,0,1-.479.776L268.956,314A3.841,3.841,0,0,1,267.245,314.406Z" transform="translate(-221.119 -271.049)"/>
      <path id="Trazado_816718" data-name="Trazado 816718" d="M340.835,163.413a2.6,2.6,0,0,0-3.57.888l-.894,1.486,4.458,2.683.894-1.486A2.6,2.6,0,0,0,340.835,163.413Z" transform="translate(-299.911 -145.368)" fill="#5f79a5"/>
      <path id="Trazado_816719" data-name="Trazado 816719" d="M333.245,162.075l-4.458-2.683a.867.867,0,0,1-.3-1.192l.894-1.486a3.469,3.469,0,0,1,5.944,3.577l-.894,1.486A.867.867,0,0,1,333.245,162.075Zm-2.818-3.721,2.972,1.788.448-.742a1.737,1.737,0,1,0-2.976-1.793Z" transform="translate(-292.774 -138.229)"/>
      <path id="Trazado_816720" data-name="Trazado 816720" d="M112.876,443.457a.867.867,0,0,1-.693-1.387l.719-.958a2.807,2.807,0,0,1,4.494,0,2.818,2.818,0,0,1,3.757.611H132.82a.867.867,0,0,1,0,1.734H120.68a.867.867,0,0,1-.776-.479,1.07,1.07,0,0,0-1.916,0,.867.867,0,0,1-1.552,0l-.331-.662a1.071,1.071,0,0,0-1.82-.159l-.719.958a.867.867,0,0,1-.69.343Z" transform="translate(-99.869 -392.296)"/>
      <path id="Trazado_816721" data-name="Trazado 816721" d="M56,56H83.748v6.937H56Z" transform="translate(-49.93 -49.93)" fill="#ead590"/>
      <path id="Trazado_816722" data-name="Trazado 816722" d="M56,96H83.748v2.6H56Z" transform="translate(-49.93 -85.594)" fill="#f1cb66"/>
      <path id="Trazado_816723" data-name="Trazado 816723" d="M76.615,56.671H48.867A.867.867,0,0,1,48,55.8V48.867A.867.867,0,0,1,48.867,48H76.615a.867.867,0,0,1,.867.867V55.8A.867.867,0,0,1,76.615,56.671ZM49.734,54.937H75.748v-5.2H49.734Z" transform="translate(-42.797 -42.797)"/>
      <path id="Trazado_816724" data-name="Trazado 816724" d="M61.007,153.734H48.867a.867.867,0,1,1,0-1.734h12.14a.867.867,0,0,1,0,1.734Z" transform="translate(-42.797 -135.525)"/>
    </g>
  </g>
</svg>
