<svg xmlns="http://www.w3.org/2000/svg" width="202.948" height="192.309" viewBox="0 0 202.948 192.309">
  <g id="_5990697" data-name="5990697" transform="translate(0.002)">
    <g id="Background_Simple" data-name="Background Simple" transform="translate(-0.002 0)">
      <g id="Grupo_1068935" data-name="Grupo 1068935" transform="translate(0 0)">
        <path id="Trazado_815430" data-name="Trazado 815430" d="M191.383,129.324c-8.683,17.508-24.08,35.66-42.816,39.15-28.31,5.273-34.739,28.819-83.034,20.136a90.823,90.823,0,0,1-20.561-6.172,77.784,77.784,0,0,1-9.4-4.915c-26.708-16.386-37.825-46.1-35.2-75.3C3.829,63.827,30.546,48.859,47.755,40.3S89.487-7.017,137.038,1.114a88.043,88.043,0,0,1,21.137,6.332c15.444,6.908,30.383,19.636,37.83,36.328q.839,1.879,1.573,3.826c9.566,25.333,5.647,57.856-6.189,81.726Z" transform="translate(0.002 0)" fill="#ffc8bf"/>
      </g>
    </g>
    <g id="Floor" transform="translate(0.562 183.059)">
      <g id="Grupo_1068936" data-name="Grupo 1068936">
        <line id="Línea_3688" data-name="Línea 3688" x2="5.634" transform="translate(192.68)" fill="none" stroke="#263238" stroke-linecap="round" stroke-linejoin="round" stroke-width="1"/>
        <line id="Línea_3689" data-name="Línea 3689" x2="188.551" fill="none" stroke="#263238" stroke-linecap="round" stroke-linejoin="round" stroke-width="1"/>
      </g>
    </g>
    <g id="Plants" transform="translate(10.716 0.426)">
      <g id="Grupo_1068937" data-name="Grupo 1068937" transform="translate(116.668)" opacity="0.2">
        <path id="Trazado_815432" data-name="Trazado 815432" d="M315.827,24.633c1.249,1.324,5.046,2.842,5.046,2.842.038.017.24-2.8.231-2.985-.088-2.077-1.484-6.034-3.73-6.652a2.752,2.752,0,0,0-3.385,2.308c-.273,1.619.769,3.355,1.833,4.482Z" transform="translate(-309.326 -10.708)" fill="none"/>
        <path id="Trazado_815433" data-name="Trazado 815433" d="M404.175,59.653c.025.034,1.749-2.207,1.842-2.359,1.072-1.783,2.09-5.853.559-7.606a2.755,2.755,0,0,0-4.1.059c-1.123,1.2-1.211,3.221-.942,4.751C401.845,56.293,404.175,59.653,404.175,59.653Z" transform="translate(-360.013 -28.707)" fill="none"/>
        <path id="Trazado_815434" data-name="Trazado 815434" d="M364.138,23.119c-2.031-1.135-5.8.7-7.325,2.119-.13.122-1.968,2.271-1.93,2.287a.278.278,0,0,0,.046.017c-.6.286-1.236.6-1.926.954-1.27.669-2.7,1.434-4.192,2.376a49.381,49.381,0,0,0-4.688,3.259,35.955,35.955,0,0,0-4.671,4.352c-.017.017-.029.042-.046.059.278-.622,1-2.388,1.039-2.531.563-2,.471-6.2-1.467-7.484a2.752,2.752,0,0,0-3.936,1.139c-.765,1.455-.315,3.427.345,4.831.744,1.585,3.637,4.045,3.864,4.238a48.171,48.171,0,0,0-3.885,5.218c-.694,1.06-1.358,2.144-2.01,3.246.223-.547.42-1.034.437-1.106.563-2,.471-6.2-1.467-7.484a2.752,2.752,0,0,0-3.936,1.139c-.765,1.455-.315,3.427.345,4.831.669,1.425,3.09,3.57,3.742,4.129-.244.425-.5.845-.74,1.27-1.173,2.039-2.334,4.079-3.532,6.046-.42.694-.866,1.358-1.3,2.031.2-.484.362-.9.378-.959.563-2,.471-6.2-1.467-7.484a2.752,2.752,0,0,0-3.936,1.139c-.765,1.455-.315,3.427.345,4.831.639,1.362,2.859,3.36,3.624,4.028-.471.673-.942,1.345-1.425,1.976-.341.42-.643.854-1.009,1.257s-.706.812-1.055,1.215c-.7.748-1.413,1.522-2.115,2.233-.484.5-.95.963-1.421,1.434.429-.685,1.24-2.043,1.3-2.165a10.653,10.653,0,0,0,.719-5.348,3.123,3.123,0,0,0,.2-.576,2.755,2.755,0,0,0-2.182-3.469c-2.3-.332-5.163,2.741-6.076,4.608-.055.109-.5,1.371-.774,2.17.088-.5.177-.971.261-1.484.172-1.009.315-2.018.475-3.1.059-.526.118-1.06.177-1.6s.076-1.1.118-1.661c.067-1.3.072-2.607.05-3.931.883.147,4.024.635,5.533.244s3.309-1.3,3.944-2.813a2.754,2.754,0,0,0-1.631-3.759c-2.228-.677-5.521,1.93-6.7,3.637-.076.105-.786,1.425-1.165,2.161-.021-.795-.038-1.589-.084-2.392-.135-2.321-.345-4.667-.542-7.009-.063-.719-.114-1.434-.168-2.149.315.055,4.036.715,5.727.278,1.505-.387,3.309-1.3,3.944-2.813a2.754,2.754,0,0,0-1.631-3.759c-2.228-.677-5.521,1.93-6.7,3.637-.088.13-1.11,2.031-1.346,2.527-.122-1.577-.227-3.149-.269-4.7a48.414,48.414,0,0,1,.21-6.286c.147.025,4.028.732,5.76.286,1.5-.387,3.309-1.3,3.944-2.813a2.754,2.754,0,0,0-1.631-3.759c-2.228-.677-5.521,1.93-6.7,3.637-.08.114-.858,1.56-1.211,2.258l-.126-.038a35.62,35.62,0,0,1,1.346-6.181c.332-1.114.715-2.161,1.11-3.17.711.206,3.961,1.106,5.567.879,1.535-.219,3.431-.925,4.23-2.363a2.754,2.754,0,0,0-1.207-3.915c-2.14-.917-5.7,1.312-7.06,2.876-.076.084-.732,1.034-1.2,1.732.185-.454.366-.925.551-1.354.694-1.619,1.425-3.057,2.086-4.327.383-.719.74-1.362,1.081-1.959.8-.164,4.024-.854,5.315-1.779,1.261-.9,2.62-2.405,2.666-4.045a2.755,2.755,0,0,0-2.876-2.918c-2.321.172-4.453,3.788-4.94,5.807-.042.177-.387,2.981-.345,2.973,0,0,.038-.008.046-.008-.341.568-.7,1.182-1.076,1.858-.69,1.257-1.455,2.683-2.186,4.293a48.187,48.187,0,0,0-2.111,5.3,36.013,36.013,0,0,0-1.5,6.206.233.233,0,0,1-.008.076c-.109-.673-.484-2.544-.53-2.683-.635-1.98-3.023-5.428-5.353-5.432a2.756,2.756,0,0,0-2.657,3.12c.164,1.636,1.627,3.032,2.952,3.839,1.493.912,5.264,1.367,5.563,1.4a48.447,48.447,0,0,0-.362,6.5c0,1.266.05,2.54.114,3.814-.114-.58-.223-1.093-.244-1.165-.635-1.98-3.027-5.428-5.353-5.432a2.756,2.756,0,0,0-2.657,3.12c.164,1.636,1.627,3.032,2.952,3.839,1.346.82,4.549,1.274,5.4,1.383.029.488.05.98.084,1.467.147,2.346.3,4.688.387,6.992.029.812.029,1.61.034,2.413-.1-.513-.193-.946-.214-1.009-.635-1.98-3.023-5.428-5.353-5.432a2.756,2.756,0,0,0-2.657,3.12c.164,1.636,1.627,3.032,2.952,3.839,1.282.782,4.238,1.228,5.247,1.362-.021.82-.042,1.64-.1,2.435-.05.542-.063,1.064-.147,1.606s-.139,1.068-.21,1.594c-.172,1.009-.341,2.048-.53,3.027-.126.681-.261,1.329-.4,1.985-.021-.807-.092-2.388-.114-2.519-.328-2.052-2.165-5.823-4.465-6.181a2.754,2.754,0,0,0-3.1,2.683c-.084,1.64,1.148,3.242,2.338,4.243,1.308,1.1,4.814,2.1,5.256,2.22-.223,1.081-.454,2.128-.685,3.111-.786,3.385-1.568,6.177-2.149,8.136l1.451.618c.013-.046.025-.084.038-.13.542-2,1.282-4.856,2.006-8.325.231-1.093.458-2.271.681-3.477a29.517,29.517,0,0,0,3.515-.13,20.092,20.092,0,0,0,3.095,4.57c-.782.778-1.552,1.526-2.287,2.22-2.523,2.388-4.718,4.289-6.282,5.6l1.594.677c1.493-1.329,3.444-3.111,5.647-5.289.8-.786,1.636-1.64,2.485-2.527.366.256,3.376,2.329,5.062,2.636,1.526.278,3.549.21,4.76-.9a2.751,2.751,0,0,0,.092-4.1c-1.741-1.547-5.819-.559-7.611.492-.105.063-1.177.866-1.842,1.383.345-.366.685-.715,1.039-1.093.7-.744,1.375-1.509,2.107-2.329.341-.408.681-.82,1.026-1.236s.673-.879,1.013-1.32c.769-1.043,1.5-2.136,2.207-3.25.652.61,3.006,2.75,4.482,3.259s3.477.744,4.84-.172a2.755,2.755,0,0,0,.715-4.036c-1.484-1.791-5.668-1.438-7.6-.664-.122.046-1.442.757-2.161,1.16.42-.673.845-1.345,1.249-2.043,1.169-2.01,2.287-4.083,3.414-6.143q.517-.946,1.043-1.884c.231.219,2.973,2.821,4.621,3.393,1.467.509,3.477.744,4.84-.172a2.755,2.755,0,0,0,.715-4.036c-1.484-1.791-5.668-1.438-7.6-.664-.147.059-2.048,1.081-2.519,1.367.769-1.379,1.547-2.75,2.371-4.07a48.9,48.9,0,0,1,3.641-5.13c.105.1,2.956,2.83,4.646,3.414,1.467.509,3.477.744,4.84-.172a2.755,2.755,0,0,0,.715-4.036c-1.484-1.791-5.668-1.438-7.6-.664-.126.05-1.577.828-2.258,1.215l-.084-.1a35.411,35.411,0,0,1,4.533-4.411c.891-.744,1.787-1.409,2.674-2.031.479.563,2.7,3.107,4.158,3.8,1.4.664,3.372,1.123,4.831.362a2.753,2.753,0,0,0,1.152-3.931c-1.278-1.943-5.474-2.048-7.476-1.5-.109.029-1.182.458-1.959.782.4-.278.816-.568,1.207-.824,1.472-.967,2.876-1.762,4.125-2.456.715-.387,1.367-.727,1.985-1.034.757.307,3.826,1.505,5.416,1.446,1.552-.055,3.511-.559,4.453-1.9a2.755,2.755,0,0,0-.79-4.024Z" transform="translate(-302.96 -1.012)" fill="none"/>
      </g>
      <g id="Grupo_1068938" data-name="Grupo 1068938" transform="translate(0 0.812)" opacity="0.2">
        <path id="Trazado_815435" data-name="Trazado 815435" d="M151.447,26.573C150.2,27.9,146.4,29.415,146.4,29.415c-.038.017-.24-2.8-.231-2.985.088-2.077,1.484-6.034,3.73-6.652a2.752,2.752,0,0,1,3.385,2.308c.273,1.619-.769,3.355-1.833,4.482Z" transform="translate(-95.427 -12.643)" fill="none"/>
        <path id="Trazado_815436" data-name="Trazado 815436" d="M64.768,61.593c-.025.034-1.749-2.207-1.842-2.359-1.072-1.783-2.09-5.853-.559-7.606a2.755,2.755,0,0,1,4.1.059c1.123,1.2,1.211,3.221.942,4.751C67.1,58.233,64.768,61.593,64.768,61.593Z" transform="translate(-46.409 -30.643)" fill="none"/>
        <path id="Trazado_815437" data-name="Trazado 815437" d="M26.83,25.049c2.031-1.135,5.8.7,7.325,2.119.13.122,1.968,2.271,1.93,2.287a.277.277,0,0,1-.046.017c.6.286,1.236.6,1.926.954,1.27.669,2.7,1.434,4.192,2.376a49.382,49.382,0,0,1,4.688,3.259,35.954,35.954,0,0,1,4.671,4.352c.017.017.029.042.046.059-.278-.622-1-2.388-1.039-2.531-.563-2-.471-6.2,1.467-7.484A2.752,2.752,0,0,1,55.927,31.6c.765,1.455.315,3.427-.345,4.831-.744,1.585-3.637,4.045-3.864,4.238A48.169,48.169,0,0,1,55.6,45.883c.694,1.06,1.358,2.144,2.01,3.246-.223-.547-.42-1.034-.437-1.106-.563-2-.471-6.2,1.467-7.484a2.752,2.752,0,0,1,3.936,1.139c.765,1.455.315,3.427-.345,4.831-.669,1.425-3.09,3.57-3.742,4.129.244.425.5.845.74,1.27,1.173,2.039,2.334,4.079,3.532,6.046.42.694.866,1.358,1.3,2.031-.2-.484-.362-.9-.378-.959-.563-2-.471-6.2,1.467-7.484a2.752,2.752,0,0,1,3.936,1.139c.765,1.455.315,3.427-.345,4.831-.639,1.362-2.859,3.36-3.624,4.028.471.673.942,1.346,1.425,1.976.341.42.643.854,1.009,1.257s.706.812,1.055,1.215c.7.748,1.413,1.522,2.115,2.233.484.5.95.963,1.421,1.434-.429-.685-1.24-2.043-1.3-2.165a10.653,10.653,0,0,1-.719-5.348,3.122,3.122,0,0,1-.2-.576A2.755,2.755,0,0,1,72.115,58.1c2.3-.332,5.163,2.741,6.076,4.608.055.109.5,1.371.774,2.17-.088-.5-.177-.971-.261-1.484-.172-1.009-.315-2.018-.475-3.1-.059-.526-.118-1.06-.177-1.6s-.076-1.1-.118-1.661c-.067-1.3-.071-2.607-.05-3.931-.883.147-4.024.635-5.533.244s-3.309-1.3-3.944-2.813a2.754,2.754,0,0,1,1.631-3.759c2.228-.677,5.521,1.93,6.7,3.637.076.105.786,1.425,1.165,2.161.021-.795.038-1.589.084-2.392.135-2.321.345-4.667.542-7.009.063-.719.114-1.434.168-2.149-.315.055-4.036.715-5.727.278-1.505-.387-3.309-1.3-3.944-2.813a2.754,2.754,0,0,1,1.631-3.759c2.228-.677,5.521,1.93,6.7,3.637.088.13,1.11,2.031,1.345,2.527.122-1.577.227-3.149.269-4.7a48.415,48.415,0,0,0-.21-6.286c-.147.025-4.028.732-5.76.286-1.5-.387-3.309-1.3-3.944-2.813a2.754,2.754,0,0,1,1.631-3.759c2.228-.677,5.521,1.93,6.7,3.637.08.114.858,1.56,1.211,2.258l.126-.038a35.621,35.621,0,0,0-1.345-6.181c-.332-1.114-.715-2.161-1.11-3.17-.711.206-3.961,1.106-5.567.879-1.535-.219-3.431-.925-4.23-2.363a2.754,2.754,0,0,1,1.207-3.915c2.14-.917,5.7,1.312,7.06,2.876.076.084.732,1.034,1.2,1.732-.185-.454-.366-.925-.551-1.354-.694-1.619-1.425-3.057-2.086-4.327-.383-.719-.74-1.362-1.081-1.959-.8-.164-4.024-.854-5.315-1.779-1.261-.9-2.62-2.405-2.666-4.045a2.755,2.755,0,0,1,2.876-2.918c2.321.172,4.453,3.788,4.941,5.807.042.177.387,2.981.345,2.973,0,0-.038-.008-.046-.008.341.568.7,1.182,1.076,1.858.69,1.257,1.455,2.683,2.186,4.293a48.186,48.186,0,0,1,2.111,5.3,36.01,36.01,0,0,1,1.5,6.206.233.233,0,0,0,.008.076c.109-.673.484-2.544.53-2.683.635-1.98,3.023-5.428,5.353-5.432a2.756,2.756,0,0,1,2.657,3.12c-.164,1.636-1.627,3.032-2.952,3.839-1.493.912-5.264,1.367-5.563,1.4a48.447,48.447,0,0,1,.362,6.5c0,1.266-.05,2.54-.114,3.814.114-.58.223-1.093.244-1.165.635-1.98,3.027-5.428,5.353-5.432a2.756,2.756,0,0,1,2.657,3.12c-.164,1.636-1.627,3.032-2.952,3.839-1.345.82-4.549,1.274-5.4,1.383-.029.488-.05.98-.084,1.467-.147,2.346-.3,4.688-.387,6.992-.029.812-.029,1.61-.034,2.413.1-.513.193-.946.214-1.009.635-1.98,3.023-5.428,5.353-5.432a2.756,2.756,0,0,1,2.657,3.12c-.164,1.636-1.627,3.032-2.952,3.839-1.282.782-4.238,1.228-5.247,1.362.021.82.042,1.64.1,2.435.05.542.063,1.064.147,1.606s.139,1.068.21,1.594c.172,1.009.341,2.048.53,3.027.126.681.261,1.329.4,1.985.021-.807.093-2.388.114-2.519.328-2.052,2.165-5.823,4.465-6.181A2.754,2.754,0,0,1,88,59.141c.084,1.64-1.148,3.242-2.338,4.243-1.308,1.1-4.814,2.1-5.256,2.22.223,1.081.454,2.128.685,3.111.786,3.385,1.568,6.177,2.149,8.136l-1.451.618c-.013-.046-.025-.084-.038-.13-.542-2-1.282-4.856-2.006-8.325-.231-1.093-.458-2.271-.681-3.477a29.519,29.519,0,0,1-3.515-.13,20.091,20.091,0,0,1-3.095,4.57c.782.778,1.552,1.526,2.287,2.22,2.523,2.388,4.718,4.289,6.282,5.6l-1.594.677c-1.493-1.329-3.444-3.111-5.647-5.289-.8-.786-1.636-1.64-2.485-2.527-.366.256-3.376,2.329-5.062,2.636-1.526.278-3.549.21-4.76-.9a2.751,2.751,0,0,1-.093-4.1c1.741-1.547,5.819-.559,7.61.492.105.063,1.177.866,1.842,1.383-.345-.366-.685-.715-1.039-1.093-.7-.744-1.375-1.509-2.107-2.329-.341-.408-.681-.82-1.026-1.236s-.673-.879-1.013-1.32c-.769-1.043-1.5-2.136-2.207-3.25-.652.61-3.006,2.75-4.482,3.259s-3.477.744-4.84-.172a2.755,2.755,0,0,1-.715-4.036c1.484-1.791,5.668-1.438,7.6-.664.122.046,1.442.757,2.161,1.16-.42-.677-.845-1.346-1.249-2.043-1.169-2.01-2.287-4.083-3.414-6.143q-.517-.946-1.043-1.884c-.231.219-2.973,2.821-4.621,3.393-1.467.509-3.477.744-4.84-.172A2.755,2.755,0,0,1,47.29,49.6c1.484-1.791,5.668-1.438,7.6-.664.147.059,2.048,1.081,2.519,1.367-.769-1.379-1.547-2.75-2.371-4.07a48.9,48.9,0,0,0-3.641-5.13c-.105.1-2.956,2.83-4.646,3.414-1.467.509-3.477.744-4.84-.172a2.755,2.755,0,0,1-.715-4.036c1.484-1.791,5.668-1.438,7.6-.664.126.05,1.577.828,2.258,1.215l.084-.1A35.412,35.412,0,0,0,46.6,36.347c-.891-.744-1.787-1.409-2.674-2.031-.479.563-2.7,3.107-4.158,3.8-1.4.664-3.372,1.123-4.831.362a2.753,2.753,0,0,1-1.152-3.931c1.278-1.943,5.474-2.048,7.476-1.5.109.029,1.182.458,1.959.782-.4-.278-.816-.568-1.207-.824-1.472-.967-2.876-1.762-4.129-2.456-.715-.387-1.367-.727-1.985-1.034-.757.307-3.826,1.505-5.416,1.446-1.552-.055-3.511-.559-4.453-1.9a2.755,2.755,0,0,1,.79-4.024Z" transform="translate(-25.488 -2.942)" fill="none"/>
      </g>
    </g>
    <g id="Calendar" transform="translate(162.594 59.963)">
      <g id="Grupo_1068939" data-name="Grupo 1068939">
        <path id="Trazado_815438" data-name="Trazado 815438" d="M418.95,149.53v1.913a.9.9,0,0,1-1.791,0V149.53h-5.226v1.913a.893.893,0,1,1-1.787,0V149.53h-5.226v1.913a.9.9,0,0,1-1.791,0V149.53h-5.222v1.913a.9.9,0,0,1-1.791,0V149.53h-5.226v1.913a.915.915,0,0,1-.261.635.895.895,0,0,1-1.526-.635V149.53h-2.4v24.808h34.634V149.53h-2.4Zm-26.515,21.229h-2.7v-2.7h2.7Zm0-3.91h-2.7v-2.7h2.7Zm0-3.915h-2.7v-2.7h2.7Zm0-3.91h-2.7v-2.7h2.7Zm4.314,11.731h-2.7v-2.7h2.7Zm0-3.91h-2.7v-2.7h2.7Zm0-3.915h-2.7v-2.7h2.7Zm0-3.91h-2.7v-2.7h2.7Zm4.314,11.731h-2.7v-2.7h2.7Zm0-3.91h-2.7v-2.7h2.7Zm0-3.915h-2.7v-2.7h2.7Zm0-3.91h-2.7v-2.7h2.7Zm4.314,11.731h-2.7v-2.7h2.7Zm0-3.91h-2.7v-2.7h2.7Zm0-3.915h-2.7v-2.7h2.7Zm0-3.91h-2.7v-2.7h2.7Zm4.314,11.731h-2.7v-2.7h2.7Zm0-3.91h-2.7v-2.7h2.7Zm0-3.915h-2.7v-2.7h2.7Zm0-3.91h-2.7v-2.7h2.7Zm4.314,11.731h-2.7v-2.7h2.7Zm0-3.91h-2.7v-2.7h2.7Zm0-3.915h-2.7v-2.7h2.7Zm0-3.91h-2.7v-2.7h2.7Zm4.314,11.731h-2.7v-2.7h2.7Zm0-3.91h-2.7v-2.7h2.7Zm0-3.915h-2.7v-2.7h2.7Zm0-3.91h-2.7v-2.7h2.7Z" transform="translate(-386.7 -146.62)" fill="none" stroke="#263238" stroke-linecap="round" stroke-linejoin="round" stroke-width="1"/>
        <path id="Trazado_815439" data-name="Trazado 815439" d="M460.931,143.506v3.927a.9.9,0,0,1-1.791,0v-3.927a.894.894,0,0,1,.9-.9.915.915,0,0,1,.635.261.882.882,0,0,1,.261.635Z" transform="translate(-428.681 -142.61)" fill="none" stroke="#263238" stroke-linecap="round" stroke-linejoin="round" stroke-width="1"/>
        <path id="Trazado_815440" data-name="Trazado 815440" d="M444.257,143.506v3.927a.893.893,0,1,1-1.787,0v-3.927a.894.894,0,0,1,.9-.9.9.9,0,0,1,.631.261.882.882,0,0,1,.261.635Z" transform="translate(-419.021 -142.61)" fill="none" stroke="#263238" stroke-linecap="round" stroke-linejoin="round" stroke-width="1"/>
        <path id="Trazado_815441" data-name="Trazado 815441" d="M427.571,143.506v3.927a.9.9,0,1,1-1.791,0v-3.927a.894.894,0,0,1,.9-.9.907.907,0,0,1,.635.261.882.882,0,0,1,.261.635Z" transform="translate(-409.348 -142.61)" fill="none" stroke="#263238" stroke-linecap="round" stroke-linejoin="round" stroke-width="1"/>
        <path id="Trazado_815442" data-name="Trazado 815442" d="M410.9,143.506v3.927a.9.9,0,1,1-1.791,0v-3.927a.894.894,0,0,1,.9-.9.907.907,0,0,1,.635.261.882.882,0,0,1,.261.635Z" transform="translate(-399.687 -142.61)" fill="none" stroke="#263238" stroke-linecap="round" stroke-linejoin="round" stroke-width="1"/>
        <path id="Trazado_815443" data-name="Trazado 815443" d="M394.227,143.506v3.927a.915.915,0,0,1-.261.635.895.895,0,0,1-1.526-.635v-3.927a.907.907,0,0,1,.261-.635.872.872,0,0,1,.631-.261A.894.894,0,0,1,394.227,143.506Z" transform="translate(-390.027 -142.61)" fill="none" stroke="#263238" stroke-linecap="round" stroke-linejoin="round" stroke-width="1"/>
      </g>
    </g>
    <g id="Clock" transform="translate(10.155 60.343)">
      <g id="Grupo_1068940" data-name="Grupo 1068940" transform="translate(0 0)">
        <circle id="Elipse_9142" data-name="Elipse 9142" cx="14.233" cy="14.233" r="14.233" transform="translate(0.885 0.89)" fill="none" stroke="#263238" stroke-linecap="round" stroke-linejoin="round" stroke-width="1"/>
        <circle id="Elipse_9143" data-name="Elipse 9143" cx="12.589" cy="12.589" r="12.589" transform="translate(0 5.724) rotate(-13.14)" fill="none" stroke="#263238" stroke-linecap="round" stroke-linejoin="round" stroke-width="1"/>
        <circle id="Elipse_9144" data-name="Elipse 9144" cx="1.203" cy="1.203" r="1.203" transform="translate(13.915 13.92)" fill="#263238" stroke="#263238" stroke-linecap="round" stroke-linejoin="round" stroke-width="1"/>
        <path id="Trazado_815444" data-name="Trazado 815444" d="M54.425,181.624l-4.381-2.144-7.3,7.989" transform="translate(-34.926 -164.357)" fill="none" stroke="#263238" stroke-linecap="round" stroke-linejoin="round" stroke-width="1"/>
      </g>
    </g>
    <g id="Form" transform="translate(49.252 2.191)">
      <g id="Grupo_1068950" data-name="Grupo 1068950">
        <rect id="Rectángulo_374281" data-name="Rectángulo 374281" width="106.627" height="157.882" rx="6.08" transform="translate(0 19.564)" fill="#263238" stroke="#263238" stroke-linecap="round" stroke-linejoin="round" stroke-width="1"/>
        <rect id="Rectángulo_374282" data-name="Rectángulo 374282" width="95.791" height="148.236" transform="translate(5.416 23.13)" fill="#fff" stroke="#263238" stroke-linecap="round" stroke-linejoin="round" stroke-width="1"/>
        <g id="Grupo_1068942" data-name="Grupo 1068942" transform="translate(15.103 59.346)">
          <g id="Grupo_1068941" data-name="Grupo 1068941" transform="translate(0 2.235)">
            <line id="Línea_3690" data-name="Línea 3690" x2="7.438" transform="translate(51.587)" fill="none" stroke="#263238" stroke-miterlimit="10" stroke-width="1"/>
            <line id="Línea_3691" data-name="Línea 3691" x2="45.827" fill="none" stroke="#263238" stroke-miterlimit="10" stroke-width="1"/>
            <line id="Línea_3692" data-name="Línea 3692" x2="18.475" transform="translate(40.55 5.76)" fill="none" stroke="#263238" stroke-miterlimit="10" stroke-width="1"/>
            <line id="Línea_3693" data-name="Línea 3693" x2="23.273" transform="translate(12.236 5.76)" fill="none" stroke="#263238" stroke-miterlimit="10" stroke-width="1"/>
            <line id="Línea_3694" data-name="Línea 3694" x2="7.917" transform="translate(0 5.76)" fill="none" stroke="#263238" stroke-miterlimit="10" stroke-width="1"/>
            <line id="Línea_3695" data-name="Línea 3695" x2="35.992" transform="translate(23.033 11.517)" fill="none" stroke="#263238" stroke-miterlimit="10" stroke-width="1"/>
            <line id="Línea_3696" data-name="Línea 3696" x2="15.116" transform="translate(0 11.517)" fill="none" stroke="#263238" stroke-miterlimit="10" stroke-width="1"/>
          </g>
          <circle id="Elipse_9145" data-name="Elipse 9145" cx="6.24" cy="6.24" r="6.24" transform="translate(66.443 2.886) rotate(-13.37)" fill="none" stroke="#263238" stroke-miterlimit="10" stroke-width="1"/>
        </g>
        <g id="Grupo_1068944" data-name="Grupo 1068944" transform="translate(15.103 85.022)">
          <g id="Grupo_1068943" data-name="Grupo 1068943" transform="translate(0 2.233)">
            <line id="Línea_3697" data-name="Línea 3697" x1="7.438" fill="none" stroke="#263238" stroke-miterlimit="10" stroke-width="1"/>
            <line id="Línea_3698" data-name="Línea 3698" x1="45.831" transform="translate(13.194)" fill="none" stroke="#263238" stroke-miterlimit="10" stroke-width="1"/>
            <line id="Línea_3699" data-name="Línea 3699" x1="18.475" transform="translate(0 5.76)" fill="none" stroke="#263238" stroke-miterlimit="10" stroke-width="1"/>
            <line id="Línea_3700" data-name="Línea 3700" x1="23.273" transform="translate(23.513 5.76)" fill="none" stroke="#263238" stroke-miterlimit="10" stroke-width="1"/>
            <line id="Línea_3701" data-name="Línea 3701" x1="7.917" transform="translate(51.108 5.76)" fill="none" stroke="#263238" stroke-miterlimit="10" stroke-width="1"/>
            <line id="Línea_3702" data-name="Línea 3702" x1="35.988" transform="translate(0 11.517)" fill="none" stroke="#263238" stroke-miterlimit="10" stroke-width="1"/>
            <line id="Línea_3703" data-name="Línea 3703" x1="15.116" transform="translate(43.91 11.517)" fill="none" stroke="#263238" stroke-miterlimit="10" stroke-width="1"/>
          </g>
          <circle id="Elipse_9146" data-name="Elipse 9146" cx="6.24" cy="6.24" r="6.24" transform="translate(66.443 2.886) rotate(-13.37)" fill="none" stroke="#263238" stroke-miterlimit="10" stroke-width="1"/>
        </g>
        <g id="Grupo_1068946" data-name="Grupo 1068946" transform="translate(15.103 109.385)">
          <g id="Grupo_1068945" data-name="Grupo 1068945" transform="translate(0 3.545)">
            <line id="Línea_3704" data-name="Línea 3704" x2="7.438" transform="translate(51.587)" fill="none" stroke="#263238" stroke-miterlimit="10" stroke-width="1"/>
            <line id="Línea_3705" data-name="Línea 3705" x2="45.827" fill="none" stroke="#263238" stroke-miterlimit="10" stroke-width="1"/>
            <line id="Línea_3706" data-name="Línea 3706" x2="18.475" transform="translate(40.55 5.76)" fill="none" stroke="#263238" stroke-miterlimit="10" stroke-width="1"/>
            <line id="Línea_3707" data-name="Línea 3707" x2="23.273" transform="translate(12.236 5.76)" fill="none" stroke="#263238" stroke-miterlimit="10" stroke-width="1"/>
            <line id="Línea_3708" data-name="Línea 3708" x2="7.917" transform="translate(0 5.76)" fill="none" stroke="#263238" stroke-miterlimit="10" stroke-width="1"/>
            <line id="Línea_3709" data-name="Línea 3709" x2="35.992" transform="translate(23.033 11.517)" fill="none" stroke="#263238" stroke-miterlimit="10" stroke-width="1"/>
            <line id="Línea_3710" data-name="Línea 3710" x2="15.116" transform="translate(0 11.517)" fill="none" stroke="#263238" stroke-miterlimit="10" stroke-width="1"/>
          </g>
          <circle id="Elipse_9147" data-name="Elipse 9147" cx="6.24" cy="6.24" r="6.24" transform="translate(65.134 8.824) rotate(-45)" fill="none" stroke="#263238" stroke-miterlimit="10" stroke-width="1"/>
        </g>
        <g id="Grupo_1068947" data-name="Grupo 1068947" transform="translate(33.103)">
          <path id="Trazado_815445" data-name="Trazado 815445" d="M244.779,12.341a.816.816,0,0,1-.816-.816V6.942a1.733,1.733,0,0,0-1.732-1.732h-7.388a1.733,1.733,0,0,0-1.732,1.732v4.583a.816.816,0,0,1-.816.816h0a.816.816,0,0,0-.816.816V25.569h14.111V13.157a.817.817,0,0,0-.816-.816Zm-6.24-.429a2.275,2.275,0,1,1,2.275-2.275A2.274,2.274,0,0,1,238.54,11.912Z" transform="translate(-216.507 -5.21)" fill="#263238" stroke="#263238" stroke-linecap="round" stroke-linejoin="round" stroke-width="1"/>
          <path id="Trazado_815446" data-name="Trazado 815446" d="M199.513,44.25h36.8a3.638,3.638,0,0,1,3.637,3.637v4.184H195.88V47.887a3.638,3.638,0,0,1,3.637-3.637Z" transform="translate(-195.876 -27.835)" fill="#fff" stroke="#263238" stroke-linecap="round" stroke-linejoin="round" stroke-width="1"/>
          <path id="Trazado_815447" data-name="Trazado 815447" d="M198.47,45.6h41.883a4.13,4.13,0,0,0-3.057-1.35H201.531a4.13,4.13,0,0,0-3.057,1.35Z" transform="translate(-197.377 -27.835)" fill="#263238" stroke="#263238" stroke-linecap="round" stroke-linejoin="round" stroke-width="1"/>
          <rect id="Rectángulo_374283" data-name="Rectángulo 374283" width="44.065" height="2.569" transform="translate(0 24.194)" fill="#fff" stroke="#263238" stroke-linecap="round" stroke-linejoin="round" stroke-width="1"/>
        </g>
        <path id="Trazado_815448" data-name="Trazado 815448" d="M323.3,218.414l1.694,3.015,6.408-6.219" transform="translate(-236.616 -126.912)" fill="none" stroke="#ff6148" stroke-linecap="round" stroke-linejoin="round" stroke-miterlimit="10" stroke-width="4"/>
        <path id="Trazado_815449" data-name="Trazado 815449" d="M323.3,156.7l1.694,3.015L331.4,153.5" transform="translate(-236.616 -91.149)" fill="none" stroke="#ff6148" stroke-linecap="round" stroke-linejoin="round" stroke-miterlimit="10" stroke-width="4"/>
        <g id="Grupo_1068949" data-name="Grupo 1068949" transform="translate(15.103 32.658)">
          <g id="Grupo_1068948" data-name="Grupo 1068948" transform="translate(0 3.545)">
            <line id="Línea_3711" data-name="Línea 3711" x2="7.438" transform="translate(51.587)" fill="none" stroke="#263238" stroke-miterlimit="10" stroke-width="1"/>
            <line id="Línea_3712" data-name="Línea 3712" x2="45.827" fill="none" stroke="#263238" stroke-miterlimit="10" stroke-width="1"/>
            <line id="Línea_3713" data-name="Línea 3713" x2="18.475" transform="translate(40.55 5.76)" fill="none" stroke="#263238" stroke-miterlimit="10" stroke-width="1"/>
            <line id="Línea_3714" data-name="Línea 3714" x2="23.273" transform="translate(12.236 5.76)" fill="none" stroke="#263238" stroke-miterlimit="10" stroke-width="1"/>
            <line id="Línea_3715" data-name="Línea 3715" x2="7.917" transform="translate(0 5.76)" fill="none" stroke="#263238" stroke-miterlimit="10" stroke-width="1"/>
            <line id="Línea_3716" data-name="Línea 3716" x2="35.992" transform="translate(23.033 11.517)" fill="none" stroke="#263238" stroke-miterlimit="10" stroke-width="1"/>
            <line id="Línea_3717" data-name="Línea 3717" x2="15.116" transform="translate(0 11.517)" fill="none" stroke="#263238" stroke-miterlimit="10" stroke-width="1"/>
          </g>
          <circle id="Elipse_9148" data-name="Elipse 9148" cx="6.24" cy="6.24" r="6.24" transform="translate(65.129 8.824) rotate(-45)" fill="none" stroke="#263238" stroke-miterlimit="10" stroke-width="1"/>
        </g>
        <path id="Trazado_815450" data-name="Trazado 815450" d="M323.3,96.344l1.694,3.015L331.4,93.14" transform="translate(-236.616 -56.168)" fill="none" stroke="#ff6148" stroke-linecap="round" stroke-linejoin="round" stroke-miterlimit="10" stroke-width="4"/>
        <path id="Trazado_815451" data-name="Trazado 815451" d="M321.16,276.634l1.7,3.015,6.4-6.219" transform="translate(-235.376 -160.652)" fill="none" stroke="#ff6148" stroke-linecap="round" stroke-linejoin="round" stroke-miterlimit="10" stroke-width="4"/>
      </g>
    </g>
    <g id="Character_3" data-name="Character 3" transform="translate(136.823 76.064)">
      <g id="Grupo_1068959" data-name="Grupo 1068959">
        <g id="Grupo_1068952" data-name="Grupo 1068952" transform="translate(19.499)">
          <g id="Grupo_1068951" data-name="Grupo 1068951">
            <path id="Trazado_815452" data-name="Trazado 815452" d="M384.784,183.285s2.275,1.922,2.1,3.612-2.447,5.828-2.973,7.051.7,4.137.7,4.137l-7.577,2.565a3.256,3.256,0,0,0,0-1.341c-.177-.408-.467-1.514-.467-1.514s-1.165.408-1.514.526-1.573-.467-1.631-.992-.059-.875-.118-1.631a15.016,15.016,0,0,0-.29-2.329c-.118-.231-1.282-.992-1.224-1.4s1.4-1.98,1.514-2.506-.177-1.69-.059-2.329a21.908,21.908,0,0,1,1.224-2.855s-.7-.584,1.224-2.157,6.761-2.039,9.091,1.165Z" transform="translate(-371.785 -180.902)" fill="#fff" stroke="#263238" stroke-linecap="round" stroke-linejoin="round" stroke-width="1"/>
            <path id="Trazado_815453" data-name="Trazado 815453" d="M386.2,183.285c-2.329-3.2-7.169-2.737-9.091-1.165s-1.224,2.157-1.224,2.157l1.749,1.341s-1.631,1.867-1.4,2.1,1.514,1.863,1.514,1.863l-.114.542-.231-.883s-.723,2.9-.862,3.624-.135,1-.454,1.085-1.665-.584-1.665-.584-.008,1.716-.055,2.439-.092,1.312-.135,1.947a1.747,1.747,0,0,0,2.039,1.451c1.135-.227,1.741-.824,1.707-1.409a22.654,22.654,0,0,0,.193-3.032,6.916,6.916,0,0,1-.193-3.322s.757-1.631,1.573-1.631.933,2.216.7,2.737-.349.816-.349.816,0,.349,2.275,1.106a3.85,3.85,0,0,0,3.023.059,1.71,1.71,0,0,1,.122-.58c.526-1.224,2.8-5.361,2.973-7.051s-2.1-3.612-2.1-3.612Z" transform="translate(-373.206 -180.902)" fill="#263238" stroke="#263238" stroke-linecap="round" stroke-linejoin="round" stroke-width="1"/>
            <path id="Trazado_815454" data-name="Trazado 815454" d="M385.319,210.54s-.526.816-.992.992-.757-.467-.757-.467" transform="translate(-378.615 -198.078)" fill="none" stroke="#263238" stroke-linecap="round" stroke-linejoin="round" stroke-width="1"/>
          </g>
          <path id="Trazado_815455" data-name="Trazado 815455" d="M375.82,200.627c0,.416.105.757.231.757s.231-.341.231-.757-.105-.757-.231-.757S375.82,200.211,375.82,200.627Z" transform="translate(-374.123 -191.895)" fill="#263238"/>
          <path id="Trazado_815456" data-name="Trazado 815456" d="M376.356,198.771s.118-.757-.816-.408" transform="translate(-373.961 -190.968)" fill="none" stroke="#263238" stroke-linecap="round" stroke-linejoin="round" stroke-width="1"/>
          <path id="Trazado_815457" data-name="Trazado 815457" d="M376.16,213.907a2.135,2.135,0,0,0,.875-.467" transform="translate(-374.32 -199.759)" fill="none" stroke="#fff" stroke-linecap="round" stroke-linejoin="round" stroke-width="1"/>
        </g>
        <g id="Grupo_1068953" data-name="Grupo 1068953" transform="translate(0 29.054)">
          <path id="Trazado_815458" data-name="Trazado 815458" d="M325.41,250H338.6l3.057,10.335H328.471Z" transform="translate(-325.41 -250)" fill="#fff" stroke="#263238" stroke-linecap="round" stroke-linejoin="round" stroke-width="1"/>
          <path id="Trazado_815459" data-name="Trazado 815459" d="M327.64,251.41h11.668l2.708,9.145H330.344Z" transform="translate(-326.702 -250.817)" fill="#fff" stroke="#263238" stroke-linecap="round" stroke-linejoin="round" stroke-width="1"/>
          <rect id="Rectángulo_374284" data-name="Rectángulo 374284" width="16.096" height="0.698" transform="translate(19.253 11.142) rotate(180)" fill="#fff" stroke="#263238" stroke-linecap="round" stroke-linejoin="round" stroke-width="1"/>
        </g>
        <g id="Grupo_1068954" data-name="Grupo 1068954" transform="translate(18.652 56.952)">
          <path id="Trazado_815460" data-name="Trazado 815460" d="M375.463,433.8a11.305,11.305,0,0,1-2.38,2.51c-.959.521-3.313,1.131-3.313,1.745s.172.7,1.219,1.047a15.593,15.593,0,0,0,4.007.349,18.174,18.174,0,0,1,2.527.088,24.826,24.826,0,0,0,3.137.261c.87,0,.828-2.317.828-2.317l-6.029-3.679Z" transform="translate(-369.77 -384.416)" fill="#fff" stroke="#263238" stroke-linecap="round" stroke-linejoin="round" stroke-width="1"/>
          <path id="Trazado_815461" data-name="Trazado 815461" d="M397.338,316.35s-2.06,16.264-4,21.679-1.123,7.055-2.451,12.572-1.535,18.5-1.535,18.808-.614,0-2.758-1.123a10.792,10.792,0,0,1-3.271-2.556,15.326,15.326,0,0,1,.307-1.943c.206-.82.614-2.964.614-2.964a100.681,100.681,0,0,1,.1-18.093c.921-11.142,1.329-24.354,1.329-24.354s7.48-1,11.672-2.027Z" transform="translate(-377.623 -316.35)" fill="#263238" stroke="#263238" stroke-linecap="round" stroke-linejoin="round" stroke-width="1"/>
        </g>
        <path id="Trazado_815462" data-name="Trazado 815462" d="M383.547,442.1a14.2,14.2,0,0,1-2.388,2.022c-.917.492-3.8,1.53-3.86,1.959a1.933,1.933,0,0,0,.429,1.346,31.021,31.021,0,0,0,4.962.551c2.325.063,5.02-.244,5.7-.244s2.266.614,2.325-1.224a14.809,14.809,0,0,0-.917-4.47,12.2,12.2,0,0,1-6.248.063Z" transform="translate(-355.476 -332.24)" fill="#fff" stroke="#263238" stroke-linecap="round" stroke-linejoin="round" stroke-width="1"/>
        <path id="Trazado_815463" data-name="Trazado 815463" d="M386.345,321.347s-.744,10.516-1.118,13.682.374,9.864,1.211,14.519a136.071,136.071,0,0,1,1.118,14.241.742.742,0,0,1,.277.929,13.732,13.732,0,0,0-.559,1.4s1.022.374.929,1.022S387.83,369,387.83,369a19.428,19.428,0,0,1-2.514.092,17.092,17.092,0,0,1-3.536-.374l-.744-.374s-.185-1.488-.185-2.325.929-1.673.837-2.14-.559-3.069-.929-5.214-.093-3.444-.744-5.676-4.28-15.541-4.28-15.541-1.673-15.448-1.77-17.592-.092-3.069-.092-3.069,2.884-2.325,3.536-2.325,8.935,6.887,8.935,6.887Z" transform="translate(-353.494 -258.303)" fill="#263238" stroke="#263238" stroke-linecap="round" stroke-linejoin="round" stroke-width="1"/>
        <g id="Grupo_1068956" data-name="Grupo 1068956" transform="translate(19.243 18.542)">
          <path id="Trazado_815464" data-name="Trazado 815464" d="M373.024,316.21s-.32,2.342,0,2.821,3.086,1.224,6.542,1.6a28.308,28.308,0,0,0,9.364-.534,6.218,6.218,0,0,0,2.662-1.383,8.805,8.805,0,0,0,.055-2.342s-13.779.8-18.623-.16Z" transform="translate(-372.165 -277.859)" fill="#ff8e7c" stroke="#263238" stroke-linecap="round" stroke-linejoin="round" stroke-width="1"/>
          <path id="Trazado_815465" data-name="Trazado 815465" d="M385.482,225.043s4.894,3.271,5.807,8.468c.812,4.634-.5,20.96-.5,21.835s.673,7.955.673,7.955c.69,1.488-4.978,2.851-8.086,3.141-2.75.256-8.817-.353-10.562-1.219-.555-.273-1.085-.568-1.1-1.186-.063-2.851-.206-10.47-.017-11.6.231-1.4-.021-9.557-.021-12.353s-1.047-7.051-.118-8.859a8.741,8.741,0,0,1,3.322-3.032,16.047,16.047,0,0,1,10.6-3.145Z" transform="translate(-371.176 -225.001)" fill="#ff8e7c" stroke="#263238" stroke-linecap="round" stroke-linejoin="round" stroke-width="1"/>
          <g id="Grupo_1068955" data-name="Grupo 1068955" transform="translate(12.906 9.599)">
            <path id="Trazado_815466" data-name="Trazado 815466" d="M403.567,264.41a13.221,13.221,0,0,1-1.257,2.027" transform="translate(-402.125 -257.439)" fill="none" stroke="#263238" stroke-linecap="round" stroke-linejoin="round" stroke-width="1"/>
            <path id="Trazado_815467" data-name="Trazado 815467" d="M410.033,247.83s-1.123,2.556-2.313,4.978" transform="translate(-405.26 -247.83)" fill="none" stroke="#263238" stroke-linecap="round" stroke-linejoin="round" stroke-width="1"/>
            <line id="Línea_3718" data-name="Línea 3718" x1="2.481" y2="3.305" transform="translate(0 8.077)" fill="none" stroke="#263238" stroke-linecap="round" stroke-linejoin="round" stroke-width="1"/>
          </g>
        </g>
        <path id="Trazado_815468" data-name="Trazado 815468" d="M390.643,219.374l1.106,2.8s-2.329.118-4.486.408a48.99,48.99,0,0,0-7.283,2.329,9.771,9.771,0,0,1,.933-2.506,9.508,9.508,0,0,1,4.835-2.565,17.73,17.73,0,0,1,4.894-.467Z" transform="translate(-357.035 -203.182)" fill="#ff8e7c" stroke="#263238" stroke-linecap="round" stroke-linejoin="round" stroke-width="1"/>
        <g id="Grupo_1068957" data-name="Grupo 1068957" transform="translate(3.594 37.524)">
          <path id="Trazado_815469" data-name="Trazado 815469" d="M355.537,275.349s-.374,4.4-.858,4.617-12.492-3.973-13.354-4.4a4.14,4.14,0,0,0-1.505-.429,9.973,9.973,0,0,1-2.153-.324,6.8,6.8,0,0,1-1.236-1.076c-.16-.109-1.455-.16-1.829-.429s-.862-.484-.538-.648a16.2,16.2,0,0,1,1.938-.484s.055-.753.7-.862.429.16,1.993-.753,1.4-.16,2.746.807a15.217,15.217,0,0,1,2.153,2.1c.16.055,5.062,1.884,5.062,1.884h6.891Z" transform="translate(-333.957 -270.146)" fill="#fff" stroke="#263238" stroke-linecap="round" stroke-linejoin="round" stroke-width="1"/>
          <line id="Línea_3719" data-name="Línea 3719" y1="0.32" x2="2.641" transform="translate(2.036 1.705)" fill="#fff" stroke="#263238" stroke-linecap="round" stroke-linejoin="round" stroke-width="1"/>
        </g>
        <path id="Trazado_815470" data-name="Trazado 815470" d="M356.307,278.41s-.744-.639-1.24-.429a2.884,2.884,0,0,0-1.3,2.317c-.071,1.16,1.816,1.308,1.816,1.308l.727-3.2Z" transform="translate(-341.843 -237.138)" fill="#ff8e7c" stroke="#263238" stroke-linecap="round" stroke-linejoin="round" stroke-width="1"/>
        <path id="Trazado_815471" data-name="Trazado 815471" d="M367.705,233.83c-.971,0-3.528.706-4.322,1.589s-.883,3.439-.618,6.883,1.61,9.881,1.619,9.91c-.017-.071-.168.341-.21.416-.177.315.273.37-.147.437a8.157,8.157,0,0,1-1.106.084c-.618-.105-1.232-.21-1.85-.311a27.823,27.823,0,0,0-3.738-.4c-.391,0-1.425,3.162-.837,3.851s12.278,5.226,13.064,5.033,2.287-10.529,2.266-10.575c.231-2.83.5-6.156.555-6.5" transform="translate(-343.323 -211.575)" fill="#ff8e7c" stroke="#263238" stroke-linecap="round" stroke-linejoin="round" stroke-width="1"/>
        <g id="Grupo_1068958" data-name="Grupo 1068958" transform="translate(20.708 41.487)">
          <path id="Trazado_815472" data-name="Trazado 815472" d="M374.66,279.57a24.058,24.058,0,0,0,2.468,2.249" transform="translate(-374.66 -279.57)" fill="none" stroke="#263238" stroke-linecap="round" stroke-linejoin="round" stroke-width="1"/>
          <path id="Trazado_815473" data-name="Trazado 815473" d="M377.25,284.41a7.933,7.933,0,0,0,1.741,1.236" transform="translate(-376.161 -282.375)" fill="none" stroke="#263238" stroke-linecap="round" stroke-linejoin="round" stroke-width="1"/>
        </g>
      </g>
    </g>
    <g id="Character_2" data-name="Character 2" transform="translate(77.61 80.498)">
      <g id="Grupo_1068966" data-name="Grupo 1068966">
        <g id="Grupo_1068960" data-name="Grupo 1068960" transform="translate(28.847 5.311)">
          <path id="Trazado_815474" data-name="Trazado 815474" d="M261.751,209.294c-.24-1.446-1.2-2.409-1.446-3.288a10.957,10.957,0,0,0-.8-1.926,25.586,25.586,0,0,0-1.879,5.256l-.21-.5-3.986,3.128-.235,6.959,6.467.307s-.265-1.152-.353-2.006a8.985,8.985,0,0,1,.147-2.527s1.825.042,1.989-.6a16.912,16.912,0,0,0,.315-4.8Z" transform="translate(-253.19 -204.08)" fill="#fff" stroke="#263238" stroke-linecap="round" stroke-linejoin="round" stroke-width="1"/>
          <path id="Trazado_815475" data-name="Trazado 815475" d="M271.07,210.4a3.339,3.339,0,0,0,.753.189c.235,0,.66.046.517.614a1.207,1.207,0,0,1-.471.753Z" transform="translate(-263.552 -207.743)" fill="#fff" stroke="#263238" stroke-linecap="round" stroke-linejoin="round" stroke-width="1"/>
        </g>
        <path id="Trazado_815476" data-name="Trazado 815476" d="M263.957,401.62s-.883,15.028-.883,15.263-1.11,3.969-.954,4.524,1.43.715,2.3.795,2.7.32,3.414.32a25.977,25.977,0,0,0,3.73-.32c.475-.16,1.11-.635.555-1.03a9.213,9.213,0,0,1-3.494-2.38,15.266,15.266,0,0,1-1.985-2.62l3.343-14.393-6.034-.16Z" transform="translate(-229.51 -313.25)" fill="#fff" stroke="#263238" stroke-linecap="round" stroke-linejoin="round" stroke-width="1"/>
        <path id="Trazado_815477" data-name="Trazado 815477" d="M199.082,395.01s-6.185,15.385-6.66,16.02-3.683,4.692-3.763,5.487,4.028.87,4.743.391,1.564-4.608,2.039-5.483,11.025-15.305,11.025-15.305l-7.383-1.11Z" transform="translate(-186.945 -309.419)" fill="#fff" stroke="#263238" stroke-linecap="round" stroke-linejoin="round" stroke-width="1"/>
        <g id="Grupo_1068962" data-name="Grupo 1068962" transform="translate(8.231 37.981)">
          <path id="Trazado_815478" data-name="Trazado 815478" d="M218.481,284.652l-.118,2.582s-3.217,6.946-6.353,15.574c-3.414,9.393-7.85,25.632-7.85,25.632s2.935,2.7,10.92,3.99,12.95,1.837,17.29,1.707a81.142,81.142,0,0,0,11.941-1.589s-3.755-23.008-6.807-33.457-3.78-11.487-3.78-11.487l-1.039-5.824-14.2,2.872Z" transform="translate(-204.16 -281.78)" fill="#8f8f8f" stroke="#263238" stroke-linecap="round" stroke-linejoin="round" stroke-width="1"/>
          <g id="Grupo_1068961" data-name="Grupo 1068961" transform="translate(15.612 5.689)">
            <line id="Línea_3720" data-name="Línea 3720" x1="0.87" y2="30.825" transform="translate(2.821 14.96)" fill="none" stroke="#263238" stroke-linecap="round" stroke-linejoin="round" stroke-width="1"/>
            <line id="Línea_3721" data-name="Línea 3721" x1="0.034" y2="1.211" transform="translate(3.725 12.677)" fill="none" stroke="#263238" stroke-linecap="round" stroke-linejoin="round" stroke-width="1"/>
            <path id="Trazado_815479" data-name="Trazado 815479" d="M266.08,295.676c.492-.1.971-.223,1.434-.366" transform="translate(-255.657 -295.31)" fill="none" stroke="#263238" stroke-linecap="round" stroke-linejoin="round" stroke-width="1"/>
            <path id="Trazado_815480" data-name="Trazado 815480" d="M241.29,296.71a38.561,38.561,0,0,0,8.624.071" transform="translate(-241.29 -296.121)" fill="none" stroke="#263238" stroke-linecap="round" stroke-linejoin="round" stroke-width="1"/>
          </g>
        </g>
        <g id="Grupo_1068963" data-name="Grupo 1068963" transform="translate(50.471 0.948)">
          <path id="Trazado_815481" data-name="Trazado 815481" d="M305.952,203.247a20.577,20.577,0,0,1-.4-2.586c-.059-1.034-1.034-2.413-.921-2.99a.61.61,0,0,1,.975-.345,2.818,2.818,0,0,1,.631.748,17.7,17.7,0,0,0,.8-3.566c0-1.093.69-.975.975-.231a13.872,13.872,0,0,1-.114,3.62,14.428,14.428,0,0,1,1.61.517,1.885,1.885,0,0,1,1.32,2.128c-.172,1.438-.345,2.241-.69,2.241s-.631-.458-.631-.458,0,1.552-.517,2.014a3.068,3.068,0,0,1-1.552.517s.114-1.148-1.493-1.61Z" transform="translate(-304.618 -193.705)" fill="#fff" stroke="#263238" stroke-linecap="round" stroke-linejoin="round" stroke-width="1"/>
          <path id="Trazado_815482" data-name="Trazado 815482" d="M316.27,212.147s.345-1.32.345-1.5" transform="translate(-311.371 -203.525)" fill="none" stroke="#263238" stroke-linecap="round" stroke-linejoin="round" stroke-width="1"/>
          <line id="Línea_3722" data-name="Línea 3722" x1="0.345" y2="1.61" transform="translate(1.279 4.367)" fill="none" stroke="#263238" stroke-linecap="round" stroke-linejoin="round" stroke-width="1"/>
        </g>
        <path id="Trazado_815483" data-name="Trazado 815483" d="M304.4,217.207l1.085-1.833a1.2,1.2,0,0,1,1.417-.248c.008,0,.021.008.029.008a1.829,1.829,0,0,1,1.165,2.2l-.278,1.034a8.569,8.569,0,0,0-3.414-1.165Z" transform="translate(-254.021 -205.11)" fill="#ff8e7c" stroke="#263238" stroke-linecap="round" stroke-linejoin="round" stroke-width="1"/>
        <g id="Grupo_1068964" data-name="Grupo 1068964" transform="translate(0 48.342)">
          <path id="Trazado_815484" data-name="Trazado 815484" d="M189.758,306.925s.261,1.375.391,2.355.786,2.943,1.245,3.2,1.047.589.391.786a1.5,1.5,0,0,1-1.636-.2,5.852,5.852,0,0,1-.98-.98s-.458,2.027-.786,3.006a16.474,16.474,0,0,1-1.308,2.552.925.925,0,0,1-.425.719c-.391.193-.673-.584-.673-.584s-.526,1.228-.866-.072a32.621,32.621,0,0,1-.521-4.579c.067-.656,2.712-6.715,2.712-6.715Z" transform="translate(-184.584 -306.42)" fill="#fff" stroke="#263238" stroke-linecap="round" stroke-linejoin="round" stroke-width="1"/>
          <path id="Trazado_815485" data-name="Trazado 815485" d="M187.494,324.73a3.385,3.385,0,0,0-.4,1.047c0,.261.341,2.62.341,2.62" transform="translate(-186.036 -317.031)" fill="none" stroke="#263238" stroke-linecap="round" stroke-linejoin="round" stroke-width="1"/>
          <path id="Trazado_815486" data-name="Trazado 815486" d="M190.051,327.893l-.341-2.287.6-1.505" transform="translate(-187.555 -316.666)" fill="none" stroke="#263238" stroke-linecap="round" stroke-linejoin="round" stroke-width="1"/>
          <path id="Trazado_815487" data-name="Trazado 815487" d="M191.6,327.209s.025-1.232.109-1.8.227-.463.412-1.144" transform="translate(-188.65 -316.765)" fill="none" stroke="#263238" stroke-linecap="round" stroke-linejoin="round" stroke-width="1"/>
          <path id="Trazado_815488" data-name="Trazado 815488" d="M190.546,316.95a1.959,1.959,0,0,1-.521,1.047,14.032,14.032,0,0,1-1.375,1.11" transform="translate(-186.94 -312.522)" fill="none" stroke="#263238" stroke-linecap="round" stroke-linejoin="round" stroke-width="1"/>
        </g>
        <path id="Trazado_815489" data-name="Trazado 815489" d="M209.462,228.814s-5.332,2.582-5.664,3.25-7,12.58-7.913,13.749-3.751,2.666-4.083,3.835a19.441,19.441,0,0,0-.084,4.331l-.669,2.165s.084.748,1.249,1l1.165.248,2-1.917s4.331-1.085,6.084-3.166,6-11.832,6-11.832l-.669,6.58a45.37,45.37,0,0,0,9.5.248c5.168-.416,10.831-1.249,10.831-1.249l-.748-7.665s12.332-2,13-2.582a6,6,0,0,0,1.333-2.75c.084-.584,2.165-11.748,2.165-11.748a3.836,3.836,0,0,0-2.5-1.581c-1.749-.332-3.5.584-3.582,1.085s-3.666,7.749-3.666,7.749-.248-.168-1.165.248a4.133,4.133,0,0,1-2.531-.235,18.628,18.628,0,0,0-5.05-.765c-1.833.164-3.582.416-3.582.416s-3.25-1.5-5.664-.833-5.748,1.417-5.748,1.417Z" transform="translate(-188.331 -207.799)" fill="#ff8e7c" stroke="#263238" stroke-linecap="round" stroke-linejoin="round" stroke-width="1"/>
        <path id="Trazado_815490" data-name="Trazado 815490" d="M262.19,264.963l5.5-.753-3.667,1.917" transform="translate(-229.559 -233.616)" fill="none" stroke="#263238" stroke-linecap="round" stroke-linejoin="round" stroke-width="1"/>
        <path id="Trazado_815491" data-name="Trazado 815491" d="M228.643,260.25l-.08,3.751-1.253-1.585" transform="translate(-209.345 -231.321)" fill="none" stroke="#263238" stroke-linecap="round" stroke-linejoin="round" stroke-width="1"/>
        <path id="Trazado_815492" data-name="Trazado 815492" d="M194.42,302.06s.248.833,2.25.833" transform="translate(-190.284 -255.552)" fill="none" stroke="#263238" stroke-linecap="round" stroke-linejoin="round" stroke-width="1"/>
        <g id="Grupo_1068965" data-name="Grupo 1068965" transform="translate(16.846)">
          <path id="Trazado_815493" data-name="Trazado 815493" d="M240.131,205.771a4.322,4.322,0,0,0,6.025-.151c1.2-1.2,1.19-2.775,1.972-4.272.105-.551,1.913-2.464,2.056-2.918a6.175,6.175,0,0,0-.3-2.872s1.766.24.963-1.526-1.526-2.409-3.208-2.569a3.076,3.076,0,0,0-2.649,1.2s-2.006-.963-3.372-.24-3.343.013-4.953,4.894a7.724,7.724,0,0,0-.492,1.728c-.067,1.417.74,2.426,1.547,3.6,1.24,1.8.7,1.8,2.418,3.133Z" transform="translate(-231.326 -191.449)" fill="#263238" stroke="#263238" stroke-linecap="round" stroke-linejoin="round" stroke-width="1"/>
          <path id="Trazado_815494" data-name="Trazado 815494" d="M247.772,217.241a2.031,2.031,0,1,1-2.031-2.031A2.03,2.03,0,0,1,247.772,217.241Z" transform="translate(-235.696 -205.219)" fill="#fff" stroke="#263238" stroke-linecap="round" stroke-linejoin="round" stroke-width="1"/>
          <path id="Trazado_815495" data-name="Trazado 815495" d="M230.986,222.988c.013,1.261.013,2.5-1.127,3.355-1.249.938-6.1,4.541-3.439,8.216s3.036,2.657,2.8,3.91-5.395,4.692-4.457,7.741,4.768,4.768,4.221,5.941,1.173,6.959,7.817,3.91,6.185-8.3,3.519-14.229c-.614-1.371-.328-3.12,2.174-5.937s.618-8.22-2.018-10.949c-1.556-1.61-2.191-2.893-2.111-3.2s-2.422-3.986-4.533-2.893a5.247,5.247,0,0,0-2.8,3.507,3.477,3.477,0,0,0-.042.635Z" transform="translate(-224.649 -207.212)" fill="#263238" stroke="#263238" stroke-linecap="round" stroke-linejoin="round" stroke-width="1"/>
          <path id="Trazado_815496" data-name="Trazado 815496" d="M262.379,214.317s-.82-1.152-1.4.084a2.522,2.522,0,0,0,.7,2.918c.576.454.988-1.19.988-1.19" transform="translate(-245.581 -204.419)" fill="#fff" stroke="#263238" stroke-linecap="round" stroke-linejoin="round" stroke-width="1"/>
        </g>
        <path id="Trazado_815497" data-name="Trazado 815497" d="M271.557,445.87c.475-.16,1.11-.635.555-1.03a9.213,9.213,0,0,1-3.494-2.38l-.084,1.421a40.426,40.426,0,0,1-6.118-.74,6.92,6.92,0,0,0-.307,1.938c.16.555,1.43.715,2.3.795s2.7.32,3.414.32a25.977,25.977,0,0,0,3.73-.32Z" transform="translate(-229.503 -336.918)" fill="#ff8e7c" stroke="#263238" stroke-linecap="round" stroke-linejoin="round" stroke-width="1"/>
        <path id="Trazado_815498" data-name="Trazado 815498" d="M193.4,443.619a4.867,4.867,0,0,0,.917-1.976,13.616,13.616,0,0,1-4.411-.542,8.12,8.12,0,0,0-1.249,2.128C188.579,444.022,192.686,444.1,193.4,443.619Z" transform="translate(-186.945 -336.13)" fill="#ff8e7c" stroke="#263238" stroke-linecap="round" stroke-linejoin="round" stroke-width="1"/>
      </g>
    </g>
    <g id="Character_1" data-name="Character 1" transform="translate(18.087 96.793)">
      <g id="Grupo_1068978" data-name="Grupo 1068978">
        <g id="Grupo_1068968" data-name="Grupo 1068968" transform="translate(0 27.363)">
          <rect id="Rectángulo_374285" data-name="Rectángulo 374285" width="3.528" height="6.261" transform="translate(7.295 24.976)" fill="#263238" stroke="#263238" stroke-linecap="round" stroke-linejoin="round" stroke-width="1"/>
          <rect id="Rectángulo_374286" data-name="Rectángulo 374286" width="17.571" height="26.881" rx="8.786" fill="#949494" stroke="#263238" stroke-linecap="round" stroke-linejoin="round" stroke-width="1"/>
          <g id="Grupo_1068967" data-name="Grupo 1068967" transform="translate(0.534 34.563)">
            <path id="Trazado_815499" data-name="Trazado 815499" d="M47.275,445.563a1.493,1.493,0,1,0-1.493,1.493A1.493,1.493,0,0,0,47.275,445.563Z" transform="translate(-44.29 -416.071)" fill="#263238" stroke="#263238" stroke-linecap="round" stroke-linejoin="round" stroke-width="1"/>
            <path id="Trazado_815500" data-name="Trazado 815500" d="M116.615,445.563a1.493,1.493,0,1,0-1.493,1.493A1.493,1.493,0,0,0,116.615,445.563Z" transform="translate(-84.475 -416.071)" fill="#263238" stroke="#263238" stroke-linecap="round" stroke-linejoin="round" stroke-width="1"/>
            <path id="Trazado_815501" data-name="Trazado 815501" d="M82.328,445.563c0-.824-.311-1.493-.694-1.493s-.694.669-.694,1.493.311,1.493.694,1.493S82.328,446.387,82.328,445.563Z" transform="translate(-65.53 -416.071)" fill="#263238" stroke="#263238" stroke-linecap="round" stroke-linejoin="round" stroke-width="1"/>
            <path id="Trazado_815502" data-name="Trazado 815502" d="M61.856,398.873V377.48H58.926v21.477L44.47,404.676v1.438h2.1V404.9l13.93-2.876,13.93,2.876v1.215h2.1v-1.438Z" transform="translate(-44.394 -377.48)" fill="#263238" stroke="#263238" stroke-linecap="round" stroke-linejoin="round" stroke-width="1"/>
            <path id="Trazado_815503" data-name="Trazado 815503" d="M80.415,436h1.463l.315-6.946H80.1Z" transform="translate(-65.043 -407.366)" fill="#263238" stroke="#263238" stroke-linecap="round" stroke-linejoin="round" stroke-width="1"/>
          </g>
          <rect id="Rectángulo_374287" data-name="Rectángulo 374287" width="7.446" height="4.423" transform="translate(12.803 33.747)" fill="#263238" stroke="#263238" stroke-linecap="round" stroke-linejoin="round" stroke-width="1"/>
          <rect id="Rectángulo_374288" data-name="Rectángulo 374288" width="26.767" height="5.702" rx="2.851" transform="translate(2.796 29.672)" fill="#949494" stroke="#263238" stroke-linecap="round" stroke-linejoin="round" stroke-width="1"/>
        </g>
        <g id="Grupo_1068977" data-name="Grupo 1068977" transform="translate(1.865)">
          <g id="Grupo_1068975" data-name="Grupo 1068975">
            <g id="Grupo_1068969" data-name="Grupo 1068969" transform="translate(42.137 70.26)">
              <path id="Trazado_815504" data-name="Trazado 815504" d="M151.866,397.3l2.224,3.292,2.636-.164a44.631,44.631,0,0,0,4.52-.118c.66-.164.9.412.576,1.072s-3.2,2.712-4.68,3.62a36.029,36.029,0,0,1-5.109,2.422c-.412.084-.9-.74-1.812-3.292a28.631,28.631,0,0,0-2.552-5.1l4.2-1.728Z" transform="translate(-147.67 -397.3)" fill="#fff" stroke="#263238" stroke-linecap="round" stroke-linejoin="round" stroke-width="1"/>
              <path id="Trazado_815505" data-name="Trazado 815505" d="M165.341,405.493c.328-.66.084-1.236-.576-1.072s-4.52.118-4.52.118l-2.636.164a7.013,7.013,0,0,0,.412,2.224,29.43,29.43,0,0,0-4.28,1.316c.9,2.552,1.4,3.376,1.812,3.292a36.512,36.512,0,0,0,5.109-2.422C162.141,408.21,165.009,406.153,165.341,405.493Z" transform="translate(-151.188 -401.411)" fill="#fff" stroke="#263238" stroke-linecap="round" stroke-linejoin="round" stroke-width="1"/>
              <path id="Trazado_815506" data-name="Trazado 815506" d="M166.56,404.55a16.994,16.994,0,0,1-2.994,2.388,49.176,49.176,0,0,1-7.526,3.793c.349.694.61.946.845.9a36.512,36.512,0,0,0,5.109-2.422c1.48-.9,4.352-2.96,4.68-3.62C166.9,405.118,166.846,404.7,166.56,404.55Z" transform="translate(-152.521 -401.502)" fill="#92e3a9" stroke="#263238" stroke-linecap="round" stroke-linejoin="round" stroke-width="1"/>
            </g>
            <path id="Trazado_815507" data-name="Trazado 815507" d="M131.959,334.261c.311-.69,2.771,8.308,4.743,16.894,1.329,5.79,2.5,9.263,2.5,9.263a21.148,21.148,0,0,1-3.036,2.191c-1.152.576-3.128,1.316-3.128,1.316s-2.943-6.4-4.592-9.612-2.107-5.357-3.427-7.745-1.652-6.685-1.652-6.685-.824-4.116,2.3-5.184S131.051,333.108,131.959,334.261Z" transform="translate(-91.39 -290.129)" fill="#ff8e7c" stroke="#263238" stroke-linecap="round" stroke-linejoin="round" stroke-width="1"/>
            <g id="Grupo_1068971" data-name="Grupo 1068971" transform="translate(29.736 78.665)">
              <path id="Trazado_815508" data-name="Trazado 815508" d="M120.305,417.391s-.568,3.528-.954,4.814-1.446,3.629-1.11,4.213,2.09,1.177,2.985,1.253,2.043,1.539,3.713,2.144,3.868.441,3.818,0-4.936-5.824-5.176-7.127.618-5.4.618-5.4l-3.9.1Z" transform="translate(-118.176 -417.29)" fill="#fff" stroke="#263238" stroke-linecap="round" stroke-linejoin="round" stroke-width="1"/>
              <g id="Grupo_1068970" data-name="Grupo 1068970" transform="translate(0.001 5.399)">
                <path id="Trazado_815509" data-name="Trazado 815509" d="M122.982,431l-.135.37a22.569,22.569,0,0,1-3.809-.765c-.454,1.261-1.047,2.8-.786,3.25.332.584,2.09,1.177,2.985,1.253s2.043,1.539,3.713,2.144,3.868.441,3.818,0-4.936-5.824-5.176-7.127a3.444,3.444,0,0,0-.61.87Z" transform="translate(-118.184 -430.13)" fill="#fff" stroke="#263238" stroke-linecap="round" stroke-linejoin="round" stroke-width="1"/>
                <path id="Trazado_815510" data-name="Trazado 815510" d="M124.84,440.561c-1.316-.648-2.51-1.753-4.268-2.346-1.144-.387-1.938-.7-2.355-.875a1.164,1.164,0,0,0,.025.7c.332.584,2.09,1.177,2.985,1.253s2.043,1.539,3.713,2.144c1.589.576,3.662.454,3.805.063a16.913,16.913,0,0,1-3.906-.938Z" transform="translate(-118.179 -434.308)" fill="#92e3a9" stroke="#263238" stroke-linecap="round" stroke-linejoin="round" stroke-width="1"/>
              </g>
            </g>
            <path id="Trazado_815511" data-name="Trazado 815511" d="M102.61,354.46s6.5.74,7,4.032-.66,23.79-.66,23.79a14.174,14.174,0,0,1-2.88-.164c-1.316-.248-3.54-.74-3.54-.74s-.328-7-.74-9.8-.74-10.949-.74-10.949-10.865-.9-11.853-1.564,13.417-4.608,13.417-4.608Z" transform="translate(-71.615 -302.213)" fill="#ff8e7c" stroke="#263238" stroke-linecap="round" stroke-linejoin="round" stroke-width="1"/>
            <g id="Grupo_1068972" data-name="Grupo 1068972" transform="translate(5.297 41.929)">
              <path id="Trazado_815512" data-name="Trazado 815512" d="M94.308,337.914s-16.049,6.357-19.754,7.594a17.507,17.507,0,0,1-10.289.084c-2.552-.824-3.805-4.1-3.805-4.1a1.576,1.576,0,0,1-.311-1.5c.332-.74,5.6-5.432,8.809-6.257s9.019-.463,9.019-.463S92,329.685,93.732,329.933s3.1,6.4,3.351,7.224" transform="translate(-60.053 -329.921)" fill="#ff8e7c" stroke="#263238" stroke-linecap="round" stroke-linejoin="round" stroke-width="1"/>
              <path id="Trazado_815513" data-name="Trazado 815513" d="M69.87,350.111s1.152-4.528,4.2-6.421" transform="translate(-65.742 -337.9)" fill="none" stroke="#263238" stroke-linecap="round" stroke-linejoin="round" stroke-width="1"/>
              <path id="Trazado_815514" data-name="Trazado 815514" d="M68.31,348.544a5.959,5.959,0,0,1,2.88-2.3" transform="translate(-64.838 -339.378)" fill="none" stroke="#263238" stroke-linecap="round" stroke-linejoin="round" stroke-width="1"/>
            </g>
            <g id="Grupo_1068974" data-name="Grupo 1068974" transform="translate(4.207 17.001)">
              <path id="Trazado_815515" data-name="Trazado 815515" d="M96.535,279.033A16.072,16.072,0,0,1,99,283.49c1.329,3.225,3.481,12.984,3.481,12.984a6.206,6.206,0,0,1-1.943.454c-.854,0-1.989.114-2.464-.454a37.34,37.34,0,0,1-1.825-5.02s-.664-5.4-.854-8.153-1.043-3.318-.189-4.171S96.535,279.033,96.535,279.033Z" transform="translate(-79.12 -275.323)" fill="#fff" stroke="#263238" stroke-linecap="round" stroke-linejoin="round" stroke-width="1"/>
              <path id="Trazado_815516" data-name="Trazado 815516" d="M71.626,272.4s2.447.593,3.254,1.943.45,4.427.45,4.427,2.157,6.265,1.753,7.745a14.7,14.7,0,0,1-2.022,3.637s.135,4.848.538,5.794a24.813,24.813,0,0,1,.875,2.964s-1.144.807-4.919,1.345-6.87.807-8.149,1.821-4.108,4.848-4.444,5.054-.61-.551-.879-1.093-.206-2.161.4-4.587a43.915,43.915,0,0,0,.08-13.917c-.917-4.827-1.425-5.525-.883-8.691s8.018-7.993,9.1-8.195S71.63,272.4,71.63,272.4Z" transform="translate(-57.461 -270.635)" fill="#fff" stroke="#263238" stroke-linecap="round" stroke-linejoin="round" stroke-width="1"/>
              <g id="Grupo_1068973" data-name="Grupo 1068973" transform="translate(2.253 17.3)">
                <path id="Trazado_815517" data-name="Trazado 815517" d="M62.82,343.372s2.056-2.388,3.044-2.8,7.9-.412,7.9-.412" transform="translate(-62.82 -328.227)" fill="none" stroke="#fff" stroke-linecap="round" stroke-linejoin="round" stroke-width="1"/>
                <path id="Trazado_815518" data-name="Trazado 815518" d="M66.35,339.324a8.1,8.1,0,0,1,2.056-.824,21.134,21.134,0,0,1,3.292,0" transform="translate(-64.866 -327.223)" fill="none" stroke="#fff" stroke-linecap="round" stroke-linejoin="round" stroke-width="1"/>
                <path id="Trazado_815519" data-name="Trazado 815519" d="M74.96,315.648a18.037,18.037,0,0,0,6.008-3.868" transform="translate(-69.856 -311.78)" fill="none" stroke="#263238" stroke-linecap="round" stroke-linejoin="round" stroke-width="1"/>
              </g>
            </g>
            <path id="Trazado_815520" data-name="Trazado 815520" d="M80.368,234.6s.908,1.938,1.211,2.548A21.293,21.293,0,0,1,82,239.629c.244.849,1.636,1.4,1.636,1.879a4.543,4.543,0,0,1-.547,1.455s-.3,3.759-.786,4.184a6.811,6.811,0,0,1-2.485.547l-.168,3.6,1.144.673a46.166,46.166,0,0,1,0,5.39c-.2,1.413-.833,1.711-2.628.643a17.964,17.964,0,0,1-4.848-5.02c-.269-.673.559-3.04-.652-6.921s1.455-7.4,3.212-9.032,2.607-2.729,4.486-2.426Z" transform="translate(-61.891 -232.722)" fill="#fff" stroke="#263238" stroke-linecap="round" stroke-linejoin="round" stroke-width="1"/>
            <path id="Trazado_815521" data-name="Trazado 815521" d="M65.932,232.076c-.059-1.093-.181-1.514-2.426-1.758s-7.034-.425-8.914,2.91-1.879,10.608-1.879,10.608-4.877,3.044-5.214,5.47a5.186,5.186,0,0,0,3.839,5.525c.05.017.1.025.151.042a7.631,7.631,0,0,1,1.4-3.107c1.455-1.749,2.72-1.552,4.562-2.039,1.875-.492,3.019-.61,3.292-2.716a22.212,22.212,0,0,0,.034-5.357,3.77,3.77,0,0,1,.727-1.821s1.88.484,3.09-2.788,1.4-3.881,1.333-4.97Z" transform="translate(-47.455 -230.201)" fill="#263238" stroke="#263238" stroke-linecap="round" stroke-linejoin="round" stroke-width="1"/>
            <path id="Trazado_815522" data-name="Trazado 815522" d="M79,252.591s-.605-2.788-2.182-1.7.786,4.184,1.152,4.243a2,2,0,0,0,.971-.3" transform="translate(-64.162 -242.046)" fill="#fff" stroke="#263238" stroke-linecap="round" stroke-linejoin="round" stroke-width="1"/>
            <path id="Trazado_815523" data-name="Trazado 815523" d="M87.519,265.464l-1.879-.244,1.77.311Z" transform="translate(-69.584 -250.496)" fill="#263238" stroke="#263238" stroke-linecap="round" stroke-linejoin="round" stroke-width="1"/>
            <path id="Trazado_815524" data-name="Trazado 815524" d="M93.9,247.338c.08.412,0,.774-.185.807s-.391-.269-.471-.681,0-.774.185-.807S93.823,246.926,93.9,247.338Z" transform="translate(-73.975 -239.736)" fill="#263238"/>
          </g>
          <line id="Línea_3723" data-name="Línea 3723" x1="0.631" y1="0.786" transform="translate(9.643 26.115)" fill="#fff" stroke="#263238" stroke-linecap="round" stroke-linejoin="round" stroke-width="1"/>
          <path id="Trazado_815525" data-name="Trazado 815525" d="M59.213,276.42a5.25,5.25,0,0,0-4.133,2.43c-1.783,2.51-1.135,5.672-.648,6.971s4.377,8.914,4.945,9.885a9.135,9.135,0,0,0,3.078,2.51c.488.164,2.107-8.754,1.947-9.561s-3.889-6.484-3.889-6.484" transform="translate(-51.193 -256.986)" fill="#fff" stroke="#263238" stroke-linecap="round" stroke-linejoin="round" stroke-width="1"/>
          <g id="Grupo_1068976" data-name="Grupo 1068976" transform="translate(7.055 35.785)">
            <path id="Trazado_815526" data-name="Trazado 815526" d="M66.892,327.111a13.111,13.111,0,0,0-2.123-.092c-.6.084-.463.185-.139.509s1.018.185,1.018.185l1.245-.6Z" transform="translate(-64.303 -322.082)" fill="none" stroke="#263238" stroke-linecap="round" stroke-linejoin="round" stroke-width="1"/>
            <path id="Trazado_815527" data-name="Trazado 815527" d="M83.893,315.583c.639.593,2.056,4.478-.685,5.029s-9.961-.181-10.238.093-2.561,2.056-3.061,2.422a9.012,9.012,0,0,1-1.644.778s-1.051.824-1.324.639.273-.639.273-.639a7.5,7.5,0,0,1-1.463.685c-.366.046-.32-.5-.32-.5a.912.912,0,0,1-.547.093.838.838,0,0,1,.181-.778c.32-.366,1.875-1.875,1.875-1.875a4.836,4.836,0,0,0-1.051.458c-.092.139-.639.5-.959.778s-.593.227-.685,0,.4-1,.933-1.526a11.616,11.616,0,0,1,3.78-1.581c.526,0,5.012-1.409,5.012-1.409s8.237-2.842,8.464-2.935" transform="translate(-64.233 -315.31)" fill="#fff" stroke="#263238" stroke-linecap="round" stroke-linejoin="round" stroke-width="1"/>
            <path id="Trazado_815528" data-name="Trazado 815528" d="M93.711,320.01a3.012,3.012,0,0,1-.261,3.3" transform="translate(-81.165 -318.034)" fill="none" stroke="#263238" stroke-linecap="round" stroke-linejoin="round" stroke-width="1"/>
            <path id="Trazado_815529" data-name="Trazado 815529" d="M67.08,333.174,68.8,331.74l.925-.74" transform="translate(-65.883 -324.403)" fill="none" stroke="#263238" stroke-linecap="round" stroke-linejoin="round" stroke-width="1"/>
            <path id="Trazado_815530" data-name="Trazado 815530" d="M71.32,334.14s1.367-1.114,1.505-1.16" transform="translate(-68.34 -325.55)" fill="none" stroke="#263238" stroke-linecap="round" stroke-linejoin="round" stroke-width="1"/>
          </g>
          <path id="Trazado_815531" data-name="Trazado 815531" d="M66.91,284.651c.076,1.665-.42,4.066,2.014,5.6,1.169.736,2.905,1.434,3.8-.492s1.509-19.182,1.509-19.182l1.022-.277c1.022-.277,1.589-1.968,1.589-1.968a.783.783,0,0,0,0,1.034c.467.463,2.325-1.488,2.418-2.048s-1.211-2.325-1.211-2.325a.978.978,0,0,0,.467-1.022c-.093-.744-2.67-.017-2.67-.017l-1.518,1.972a24.169,24.169,0,0,0-2.418,3.629c-.156.618-2.283,7.325-3.507,10.306" transform="translate(-58.73 -249.576)" fill="#fff" stroke="#263238" stroke-linecap="round" stroke-linejoin="round" stroke-width="1"/>
          <line id="Línea_3724" data-name="Línea 3724" x2="3.372" y2="1.295" transform="translate(11.628 24.996)" fill="none" stroke="#263238" stroke-linecap="round" stroke-linejoin="round" stroke-width="1"/>
        </g>
      </g>
    </g>
  </g>
</svg>
