<svg xmlns="http://www.w3.org/2000/svg" xmlns:xlink="http://www.w3.org/1999/xlink" width="201.472" height="185.023" viewBox="0 0 201.472 185.023">
  <defs>
    <clipPath id="clip-path">
      <path id="Trazado_815319" data-name="Trazado 815319" d="M214.1,355.726a8.251,8.251,0,1,1-2.092-11.482,8.255,8.255,0,0,1,2.092,11.482Z" transform="translate(-199.061 -342.777)" fill="#92e3a9" stroke="#263238" stroke-linecap="round" stroke-linejoin="round" stroke-width="1"/>
    </clipPath>
    <clipPath id="clip-path-2">
      <path id="Trazado_815351" data-name="Trazado 815351" d="M311.5,56.642l-6.33,61.771-3.893,38-54.406-5.573-10.586-1.084-6.778-.694,6.008-58.644,4.216-41.127Z" transform="translate(-229.51 -49.29)" fill="#fff" stroke="#263238" stroke-linecap="round" stroke-linejoin="round" stroke-width="1"/>
    </clipPath>
    <clipPath id="clip-path-3">
      <circle id="Elipse_9140" data-name="Elipse 9140" cx="13.122" cy="13.122" r="13.122" transform="matrix(0.768, -0.64, 0.64, 0.768, 0, 16.799)" fill="#92e3a9" stroke="#263238" stroke-miterlimit="10" stroke-width="1"/>
    </clipPath>
    <clipPath id="clip-path-4">
      <path id="Trazado_815376" data-name="Trazado 815376" d="M320.378,171.247l-1.483,3.373L278.933,227.9l-4.453-2.836,6.044-7.58,35.894-45.025,3.167-2.012a1.133,1.133,0,0,1,.8.8Z" transform="translate(-274.48 -170.45)" fill="#92e3a9" stroke="#263238" stroke-linecap="round" stroke-linejoin="round" stroke-width="1"/>
    </clipPath>
    <clipPath id="clip-path-5">
      <path id="Trazado_815380" data-name="Trazado 815380" d="M282.416,262.807a157.767,157.767,0,0,1-8.75,15.116l-3.064.793s-7.034,6.989-11.326,10.479a9.624,9.624,0,0,1-2.1-1.761s6.093-11.7,12.835-19.107a8.648,8.648,0,0,1,2.213,1.174,10.835,10.835,0,0,1,2.307,2.213l7.513-9.453.372.547Z" transform="translate(-257.18 -262.26)" fill="#ff8e7c" stroke="#263238" stroke-linecap="round" stroke-linejoin="round" stroke-width="1"/>
    </clipPath>
    <clipPath id="clip-path-6">
      <path id="Trazado_815414" data-name="Trazado 815414" d="M143.442,130.631,83.159,156l-6.214,2.616L65.234,130.793,38.04,66.177l66.5-27.987Z" transform="translate(-38.04 -38.19)" fill="#fff" stroke="#263238" stroke-linecap="round" stroke-linejoin="round" stroke-width="1"/>
    </clipPath>
  </defs>
  <g id="_5990697" data-name="5990697" transform="translate(-0.002 -9.432)">
    <g id="Background_Simple" data-name="Background Simple" transform="translate(0.002 0.002)">
      <g id="Grupo_1068848" data-name="Grupo 1068848" transform="translate(0 9.43)">
        <path id="Trazado_815310" data-name="Trazado 815310" d="M91.032,21.57c55.571-4.95,55.66,26.4,80.7,55.611s30.4,42.448,20.958,76.121-41.243,60.064-80.592,45.11-61.887-.591-86.707-13.875S-8.641,145.6,9.526,115.356,22.514,27.672,91.032,21.57Z" transform="translate(-0.002 -21.051)" fill="#ffc7bf"/>
        <path id="Trazado_815311" data-name="Trazado 815311" d="M91.032,21.57c55.571-4.95,55.66,26.4,80.7,55.611s30.4,42.448,20.958,76.121-41.243,60.064-80.592,45.11-61.887-.591-86.707-13.875S-8.641,145.6,9.526,115.356,22.514,27.672,91.032,21.57Z" transform="translate(-0.002 -21.051)" fill="#ffc7bf" opacity="0.7"/>
      </g>
    </g>
    <g id="Doodles" transform="translate(1.239 11.541)">
      <g id="Grupo_1068854" data-name="Grupo 1068854" transform="translate(0 0)">
        <g id="Grupo_1068849" data-name="Grupo 1068849" transform="translate(91.034)">
          <rect id="Rectángulo_374220" data-name="Rectángulo 374220" width="13.902" height="13.902" rx="5.09" transform="matrix(0.979, -0.206, 0.206, 0.979, 0, 2.864)" fill="none" stroke="#263238" stroke-linecap="round" stroke-linejoin="round" stroke-width="1"/>
          <line id="Línea_3682" data-name="Línea 3682" x2="1.165" y2="5.546" transform="translate(7.655 5.453)" fill="none" stroke="#263238" stroke-linecap="round" stroke-linejoin="round" stroke-width="1"/>
          <line id="Línea_3683" data-name="Línea 3683" x1="5.546" y2="1.169" transform="translate(5.464 7.644)" fill="none" stroke="#263238" stroke-linecap="round" stroke-linejoin="round" stroke-width="1"/>
        </g>
        <g id="Grupo_1068850" data-name="Grupo 1068850" transform="translate(183.175 97.729)">
          <rect id="Rectángulo_374221" data-name="Rectángulo 374221" width="13.902" height="13.902" rx="5.09" transform="matrix(0.979, -0.206, 0.206, 0.979, 0, 2.864)" fill="none" stroke="#263238" stroke-linecap="round" stroke-linejoin="round" stroke-width="1"/>
          <line id="Línea_3684" data-name="Línea 3684" x1="3.096" y2="4.749" transform="translate(6.693 5.851)" fill="none" stroke="#263238" stroke-linecap="round" stroke-linejoin="round" stroke-width="1"/>
          <line id="Línea_3685" data-name="Línea 3685" x1="4.749" y1="3.096" transform="translate(5.864 6.675)" fill="none" stroke="#263238" stroke-linecap="round" stroke-linejoin="round" stroke-width="1"/>
        </g>
        <g id="Grupo_1068851" data-name="Grupo 1068851" transform="translate(59.039 156.52)">
          <rect id="Rectángulo_374222" data-name="Rectángulo 374222" width="13.902" height="13.902" rx="5.09" transform="matrix(0.998, 0.058, -0.058, 0.998, 0.8, 0)" fill="none" stroke="#263238" stroke-linecap="round" stroke-linejoin="round" stroke-width="1"/>
          <line id="Línea_3686" data-name="Línea 3686" x1="5.663" y1="0.327" transform="translate(4.495 7.182)" fill="none" stroke="#263238" stroke-linecap="round" stroke-linejoin="round" stroke-width="1"/>
        </g>
        <g id="Grupo_1068853" data-name="Grupo 1068853" transform="translate(0 89.024)">
          <rect id="Rectángulo_374223" data-name="Rectángulo 374223" width="13.902" height="13.902" rx="5.09" transform="translate(4.372 0) rotate(18.33)" fill="none" stroke="#263238" stroke-linecap="round" stroke-linejoin="round" stroke-width="1"/>
          <line id="Línea_3687" data-name="Línea 3687" x1="7.092" y2="3.566" transform="translate(5.24 7.002)" fill="none" stroke="#263238" stroke-linecap="round" stroke-linejoin="round" stroke-width="1"/>
          <g id="Grupo_1068852" data-name="Grupo 1068852" transform="translate(6.388 4.992)">
            <path id="Trazado_815312" data-name="Trazado 815312" d="M18.9,236.158a.991.991,0,1,1-1.331-.439A.991.991,0,0,1,18.9,236.158Z" transform="translate(-17.023 -235.613)" fill="none" stroke="#263238" stroke-linecap="round" stroke-linejoin="round" stroke-width="1"/>
            <path id="Trazado_815313" data-name="Trazado 815313" d="M25.179,248.668a.991.991,0,1,1-1.331-.439A.991.991,0,0,1,25.179,248.668Z" transform="translate(-20.489 -242.518)" fill="none" stroke="#263238" stroke-linecap="round" stroke-linejoin="round" stroke-width="1"/>
          </g>
        </g>
      </g>
    </g>
    <g id="Coins" transform="translate(77.394 145.943)">
      <g id="Grupo_1068856" data-name="Grupo 1068856" transform="translate(11.788 7.624)">
        <path id="Trazado_815314" data-name="Trazado 815314" d="M214.1,355.726a8.251,8.251,0,1,1-2.092-11.482,8.255,8.255,0,0,1,2.092,11.482Z" transform="translate(-199.061 -342.777)" fill="#ff8e7c"/>
        <g id="Grupo_1068855" data-name="Grupo 1068855" clip-path="url(#clip-path)">
          <path id="Trazado_815315" data-name="Trazado 815315" d="M214.643,356.583a6.946,6.946,0,1,1-1.761-9.663A6.946,6.946,0,0,1,214.643,356.583Z" transform="translate(-200.674 -344.383)" fill="none" opacity="0.3"/>
          <path id="Trazado_815316" data-name="Trazado 815316" d="M214.643,356.583a6.946,6.946,0,1,1-1.761-9.663A6.946,6.946,0,0,1,214.643,356.583Z" transform="translate(-200.674 -344.383)" fill="none" stroke="#263238" stroke-linecap="round" stroke-linejoin="round" stroke-width="1"/>
          <path id="Trazado_815317" data-name="Trazado 815317" d="M215.472,352.864l.332-.484.833.578-.332.484a1.709,1.709,0,0,1,0,2.339l-.139.206-.963-.668.184-.269c.323-.461.255-.766-.067-.99s-.632-.175-.95.287-.358.914-.049,1.935a2.772,2.772,0,0,1-.206,2.693,1.729,1.729,0,0,1-2.2.829l-.327.475-.833-.578.327-.475a1.719,1.719,0,0,1,0-2.357l.309-.444.963.668L212,357.6c-.323.461-.233.771.094.995s.645.2.963-.264.367-.923.049-1.935a2.752,2.752,0,0,1,.206-2.693,1.719,1.719,0,0,1,2.168-.842Z" transform="translate(-205.437 -348.078)" fill="#ff6148" stroke="#263238" stroke-linecap="round" stroke-linejoin="round" stroke-width="1"/>
          <path id="Trazado_815318" data-name="Trazado 815318" d="M205.015,344.774a11.118,11.118,0,0,1-5.439,9.565,8.248,8.248,0,0,1,5.372-10.779,10.846,10.846,0,0,1,.067,1.214Z" transform="translate(-199.061 -343.209)" fill="none" opacity="0.2"/>
        </g>
        <path id="Trazado_815320" data-name="Trazado 815320" d="M214.1,355.726a8.251,8.251,0,1,1-2.092-11.482,8.255,8.255,0,0,1,2.092,11.482Z" transform="translate(-199.061 -342.777)" fill="none" stroke="#263238" stroke-linecap="round" stroke-linejoin="round" stroke-width="1"/>
      </g>
      <g id="Grupo_1068857" data-name="Grupo 1068857" transform="translate(0 0.672)">
        <path id="Trazado_815429" data-name="Trazado 815429" d="M8.257,0A8.257,8.257,0,1,1,0,8.257,8.257,8.257,0,0,1,8.257,0Z" fill="#e06956" stroke="#263238" stroke-linecap="round" stroke-width="1"/>
        <circle id="Elipse_9136" data-name="Elipse 9136" cx="6.944" cy="6.944" r="6.944" transform="translate(1.313 1.313)" fill="none" stroke="#263238" stroke-linecap="round" stroke-linejoin="round" stroke-width="1"/>
        <path id="Trazado_815321" data-name="Trazado 815321" d="M188.4,336.347v-.587h1.012v.587a1.711,1.711,0,0,1,1.331,1.926v.246h-1.174v-.327c0-.564-.224-.78-.618-.78s-.618.215-.618.78.224.959,1.057,1.622a2.779,2.779,0,0,1,1.362,2.33,1.727,1.727,0,0,1-1.34,1.935v.573H188.4v-.573a1.718,1.718,0,0,1-1.34-1.935V341.6h1.174v.618c0,.564.246.766.641.766s.641-.2.641-.766-.224-.968-1.057-1.622a2.77,2.77,0,0,1-1.362-2.334,1.72,1.72,0,0,1,1.308-1.926Z" transform="translate(-180.649 -331.952)" fill="#ff6148" stroke="#263238" stroke-linecap="round" stroke-linejoin="round" stroke-width="1"/>
      </g>
      <g id="Grupo_1068858" data-name="Grupo 1068858" transform="translate(36.236 0)">
        <circle id="Elipse_9137" data-name="Elipse 9137" cx="8.257" cy="8.257" r="8.257" transform="translate(0 13.904) rotate(-57.35)" fill="#ff8e7c" stroke="#263238" stroke-linecap="round" stroke-linejoin="round" stroke-width="1"/>
        <path id="Trazado_815323" data-name="Trazado 815323" d="M275.622,337.956a6.946,6.946,0,1,1-9.816-.363A6.946,6.946,0,0,1,275.622,337.956Z" transform="translate(-259.128 -331.267)" fill="none" stroke="#263238" stroke-linecap="round" stroke-linejoin="round" stroke-width="1"/>
        <path id="Trazado_815324" data-name="Trazado 815324" d="M271.909,344.31l-.4-.43.744-.69.4.43a1.711,1.711,0,0,1,2.285.506l.17.184-.86.8-.224-.237c-.385-.412-.694-.417-.981-.148s-.309.578.076.99.815.547,1.882.466a2.787,2.787,0,0,1,2.585.78,1.727,1.727,0,0,1,.336,2.33l.39.421-.744.69-.39-.421a1.716,1.716,0,0,1-2.3-.506l-.367-.394.86-.8.421.453c.385.412.7.394.99.125s.332-.587-.049-1-.824-.556-1.882-.466a2.773,2.773,0,0,1-2.585-.78,1.714,1.714,0,0,1-.354-2.3Z" transform="translate(-263.501 -335.381)" fill="#ff6148" stroke="#263238" stroke-linecap="round" stroke-linejoin="round" stroke-width="1"/>
      </g>
    </g>
    <g id="Right_hand" data-name="Right hand" transform="translate(102.823 22.083)">
      <g id="Grupo_1068913" data-name="Grupo 1068913">
        <path id="Trazado_815325" data-name="Trazado 815325" d="M268.027,271.129s-.036,17.132,0,18.131,1.331,7.016,1.331,7.016l-4.158,7.665,3.58,2.885,6.966-6.85s5.932,3.665,7.016,8.906,7.54,9.059,14.238,23.574,14.336-32.48,14.336-32.48l-20.667-26.02-22.647-2.836Z" transform="translate(-249.211 -171.739)" opacity="0.2"/>
        <g id="Grupo_1068902" data-name="Grupo 1068902">
          <path id="Trazado_815326" data-name="Trazado 815326" d="M311.5,56.642l-6.33,61.771-3.893,38-54.406-5.573-10.586-1.084-6.778-.694,6.008-58.644,4.216-41.127Z" transform="translate(-229.51 -49.29)" fill="#fff"/>
          <g id="Grupo_1068901" data-name="Grupo 1068901" clip-path="url(#clip-path-2)">
            <path id="Trazado_815327" data-name="Trazado 815327" d="M326.393,66.92l-30.98-3.176a1.058,1.058,0,1,0-.215,2.106l30.98,3.176a1.058,1.058,0,0,0,.215-2.106Z" transform="translate(-265.245 -57.265)" fill="#263238"/>
            <path id="Trazado_815328" data-name="Trazado 815328" d="M327.921,76.772l-15.492-1.586a.529.529,0,0,0-.112,1.053l15.492,1.586a.529.529,0,0,0,.112-1.053Z" transform="translate(-274.958 -63.583)" fill="#263238"/>
            <g id="Grupo_1068859" data-name="Grupo 1068859" transform="translate(10.176 53.623)">
              <path id="Trazado_815329" data-name="Trazado 815329" d="M323.093,174.138l-50.284-5.152a.529.529,0,1,0-.112,1.053l50.284,5.152a.529.529,0,0,0,.112-1.053Z" transform="translate(-263.263 -168.983)" fill="#263238"/>
              <path id="Trazado_815330" data-name="Trazado 815330" d="M312.138,181.556l-58.469-5.99a.529.529,0,1,0-.112,1.053l58.469,5.99a.529.529,0,1,0,.112-1.053Z" transform="translate(-252.698 -172.615)" fill="#263238"/>
              <path id="Trazado_815331" data-name="Trazado 815331" d="M294.9,188.331l-42.095-4.314a.529.529,0,1,0-.112,1.053l42.095,4.314a.529.529,0,0,0,.112-1.053Z" transform="translate(-252.223 -177.28)" fill="#263238"/>
            </g>
            <rect id="Rectángulo_374224" data-name="Rectángulo 374224" width="16.782" height="59.253" transform="translate(8.39 81.143) rotate(-84.15)" fill="#bfbfbf" stroke="#263238" stroke-miterlimit="10" stroke-width="1"/>
            <g id="Grupo_1068875" data-name="Grupo 1068875" transform="translate(10.248 16.568)">
              <g id="Grupo_1068863" data-name="Grupo 1068863" transform="translate(0 0)">
                <g id="Grupo_1068861" data-name="Grupo 1068861">
                  <circle id="Elipse_9138" data-name="Elipse 9138" cx="13.122" cy="13.122" r="13.122" transform="matrix(0.768, -0.64, 0.64, 0.768, 0, 16.799)" fill="#92e3a9"/>
                  <g id="Grupo_1068860" data-name="Grupo 1068860" clip-path="url(#clip-path-3)">
                    <path id="Trazado_815428" data-name="Trazado 815428" d="M13.122,0A13.122,13.122,0,1,1,0,13.122,13.122,13.122,0,0,1,13.122,0Z" transform="matrix(0.768, -0.64, 0.64, 0.768, 0, 16.799)" fill="#ffbeb4"/>
                  </g>
                  <circle id="Elipse_9141" data-name="Elipse 9141" cx="13.122" cy="13.122" r="13.122" transform="matrix(0.768, -0.64, 0.64, 0.768, 0, 16.799)" fill="none" stroke="#263238" stroke-miterlimit="10" stroke-width="1"/>
                </g>
                <g id="Grupo_1068862" data-name="Grupo 1068862" transform="translate(5.943 5.951)">
                  <path id="Trazado_815332" data-name="Trazado 815332" d="M294.48,117.946l10.913,5.493a12.54,12.54,0,0,0-1.443-13.2l-9.471,7.71Z" transform="translate(-281.565 -105.453)" fill="#fff"/>
                  <path id="Trazado_815333" data-name="Trazado 815333" d="M294.65,112.485l9.139-7.437a12.551,12.551,0,0,0-5.1-3.638l-1.649,4.525-2.383,6.55Z" transform="translate(-281.659 -100.579)" fill="#ff8e7c"/>
                  <path id="Trazado_815334" data-name="Trazado 815334" d="M295.587,99.76l-1.107,10.815,3.723-10.219a12.582,12.582,0,0,0-2.612-.6Z" transform="translate(-281.565 -99.668)" fill="#757575"/>
                  <path id="Trazado_815335" data-name="Trazado 815335" d="M278,111.949,279.262,99.6a12.53,12.53,0,0,0-12.571,17.477l11.3-5.134Z" transform="translate(-265.652 -99.555)" fill="#999"/>
                  <path id="Trazado_815336" data-name="Trazado 815336" d="M278.409,140.279a12.532,12.532,0,0,0,12.378-6.653l-11.106-5.587-11.321,5.143A12.518,12.518,0,0,0,278.409,140.279Z" transform="translate(-267.147 -115.279)" fill="#bfbfbf"/>
                </g>
              </g>
              <g id="Grupo_1068874" data-name="Grupo 1068874" transform="translate(35.667 9.781)">
                <g id="Grupo_1068865" data-name="Grupo 1068865" transform="translate(1.885)">
                  <rect id="Rectángulo_374225" data-name="Rectángulo 374225" width="2.065" height="2.065" rx="0.63" transform="translate(0.21 0) rotate(5.85)" fill="#92e3a9" stroke="#263238" stroke-miterlimit="10" stroke-width="1"/>
                  <g id="Grupo_1068864" data-name="Grupo 1068864" transform="translate(3.181 0.628)">
                    <path id="Trazado_815337" data-name="Trazado 815337" d="M363.046,111.955l-19.287-1.976a.236.236,0,0,1,.049-.47l19.287,1.976a.236.236,0,0,1-.049.47Z" transform="translate(-343.44 -109.507)" fill="#263238"/>
                    <path id="Trazado_815338" data-name="Trazado 815338" d="M360.92,114.052l-17.4-1.783a.236.236,0,1,1,.049-.47l17.4,1.783a.236.236,0,1,1-.049.47Z" transform="translate(-343.307 -110.771)" fill="#263238"/>
                  </g>
                </g>
                <g id="Grupo_1068867" data-name="Grupo 1068867" transform="translate(1.413 4.605)">
                  <rect id="Rectángulo_374226" data-name="Rectángulo 374226" width="2.065" height="2.065" rx="0.63" transform="translate(0.21 0) rotate(5.85)" fill="#757575" stroke="#263238" stroke-linecap="round" stroke-linejoin="round" stroke-width="1"/>
                  <g id="Grupo_1068866" data-name="Grupo 1068866" transform="translate(3.182 0.624)">
                    <path id="Trazado_815339" data-name="Trazado 815339" d="M362,122.225l-19.287-1.976a.236.236,0,1,1,.049-.47l19.287,1.976a.236.236,0,0,1-.049.47Z" transform="translate(-342.39 -119.777)" fill="#263238"/>
                    <path id="Trazado_815340" data-name="Trazado 815340" d="M359.87,124.322l-17.4-1.783a.236.236,0,1,1,.049-.47l17.4,1.783a.236.236,0,0,1-.049.47Z" transform="translate(-342.257 -121.041)" fill="#263238"/>
                  </g>
                </g>
                <g id="Grupo_1068869" data-name="Grupo 1068869" transform="translate(0.947 9.206)">
                  <rect id="Rectángulo_374227" data-name="Rectángulo 374227" width="2.065" height="2.065" rx="0.63" transform="translate(0.21 0) rotate(5.85)" fill="#999" stroke="#263238" stroke-linecap="round" stroke-linejoin="round" stroke-width="1"/>
                  <g id="Grupo_1068868" data-name="Grupo 1068868" transform="translate(3.174 0.624)">
                    <path id="Trazado_815341" data-name="Trazado 815341" d="M360.936,132.495l-19.287-1.976a.236.236,0,1,1,.049-.47l19.287,1.976a.237.237,0,0,1-.049.47Z" transform="translate(-341.33 -130.047)" fill="#263238"/>
                    <path id="Trazado_815342" data-name="Trazado 815342" d="M358.81,134.592l-17.4-1.783a.236.236,0,1,1,.049-.47l17.4,1.783a.236.236,0,0,1-.049.47Z" transform="translate(-341.197 -131.311)" fill="#263238"/>
                  </g>
                </g>
                <g id="Grupo_1068871" data-name="Grupo 1068871" transform="translate(0.476 13.807)">
                  <rect id="Rectángulo_374228" data-name="Rectángulo 374228" width="2.065" height="2.065" rx="0.63" transform="translate(0.21 0) rotate(5.85)" fill="#bfbfbf" stroke="#263238" stroke-miterlimit="10" stroke-width="1"/>
                  <g id="Grupo_1068870" data-name="Grupo 1068870" transform="translate(3.174 0.625)">
                    <path id="Trazado_815343" data-name="Trazado 815343" d="M359.886,142.765,340.6,140.789a.236.236,0,1,1,.049-.47l19.287,1.976a.236.236,0,0,1-.049.47Z" transform="translate(-340.28 -140.317)" fill="#263238"/>
                    <path id="Trazado_815344" data-name="Trazado 815344" d="M357.76,144.872l-17.4-1.783a.236.236,0,1,1,.049-.47l17.4,1.783a.237.237,0,0,1-.049.47Z" transform="translate(-340.147 -141.587)" fill="#263238"/>
                  </g>
                </g>
                <g id="Grupo_1068873" data-name="Grupo 1068873" transform="translate(0 18.412)">
                  <rect id="Rectángulo_374229" data-name="Rectángulo 374229" width="2.065" height="2.065" rx="0.63" transform="translate(0.21 0) rotate(5.85)" fill="#fff" stroke="#263238" stroke-linecap="round" stroke-linejoin="round" stroke-width="1"/>
                  <g id="Grupo_1068872" data-name="Grupo 1068872" transform="translate(3.18 0.625)">
                    <path id="Trazado_815345" data-name="Trazado 815345" d="M358.836,153.045l-19.287-1.976a.236.236,0,0,1,.049-.47l19.287,1.976a.236.236,0,0,1-.049.47Z" transform="translate(-339.23 -150.597)" fill="#263238"/>
                    <path id="Trazado_815346" data-name="Trazado 815346" d="M356.71,155.142l-17.4-1.783a.236.236,0,0,1,.049-.47l17.4,1.783a.237.237,0,0,1-.049.47Z" transform="translate(-339.097 -151.861)" fill="#263238"/>
                  </g>
                </g>
              </g>
            </g>
            <g id="Grupo_1068899" data-name="Grupo 1068899" transform="translate(10.619 69.054)">
              <g id="Grupo_1068876" data-name="Grupo 1068876" transform="translate(49.5 6.199)">
                <rect id="Rectángulo_374230" data-name="Rectángulo 374230" width="1.107" height="6.33" transform="translate(1.101 6.41) rotate(-174.15)" fill="#757575" stroke="#263238" stroke-linecap="round" stroke-linejoin="round" stroke-width="1"/>
                <rect id="Rectángulo_374231" data-name="Rectángulo 374231" width="1.107" height="2.979" transform="translate(1.201 5.458) rotate(-174.15)" fill="#92e3a9" stroke="#263238" stroke-miterlimit="10" stroke-width="1"/>
              </g>
              <g id="Grupo_1068877" data-name="Grupo 1068877" transform="translate(52.146 4.856)">
                <rect id="Rectángulo_374232" data-name="Rectángulo 374232" width="1.107" height="6.33" transform="translate(1.101 6.41) rotate(-174.15)" fill="#757575" stroke="#263238" stroke-linecap="round" stroke-linejoin="round" stroke-width="1"/>
                <rect id="Rectángulo_374233" data-name="Rectángulo 374233" width="2.979" height="1.107" transform="translate(0.163 4.635) rotate(-84.15)" fill="#92e3a9" stroke="#263238" stroke-miterlimit="10" stroke-width="1"/>
              </g>
              <g id="Grupo_1068878" data-name="Grupo 1068878" transform="translate(54.498 6.322)">
                <rect id="Rectángulo_374234" data-name="Rectángulo 374234" width="1.107" height="6.33" transform="translate(1.101 6.41) rotate(-174.15)" fill="#757575" stroke="#263238" stroke-linecap="round" stroke-linejoin="round" stroke-width="1"/>
                <rect id="Rectángulo_374235" data-name="Rectángulo 374235" width="1.107" height="2.979" transform="translate(1.344 4.042) rotate(-174.15)" fill="#92e3a9" stroke="#263238" stroke-miterlimit="10" stroke-width="1"/>
              </g>
              <g id="Grupo_1068879" data-name="Grupo 1068879" transform="translate(47.148 4.706)">
                <rect id="Rectángulo_374236" data-name="Rectángulo 374236" width="1.107" height="6.33" transform="translate(1.101 6.41) rotate(-174.15)" fill="#757575" stroke="#263238" stroke-linecap="round" stroke-linejoin="round" stroke-width="1"/>
                <rect id="Rectángulo_374237" data-name="Rectángulo 374237" width="1.107" height="2.979" transform="translate(1.201 5.449) rotate(-174.15)" fill="#92e3a9" stroke="#263238" stroke-miterlimit="10" stroke-width="1"/>
              </g>
              <g id="Grupo_1068880" data-name="Grupo 1068880" transform="translate(44.481 6.304)">
                <rect id="Rectángulo_374238" data-name="Rectángulo 374238" width="1.107" height="6.33" transform="translate(1.101 6.41) rotate(-174.15)" fill="#757575" stroke="#263238" stroke-linecap="round" stroke-linejoin="round" stroke-width="1"/>
                <rect id="Rectángulo_374239" data-name="Rectángulo 374239" width="1.107" height="2.979" transform="translate(1.171 5.704) rotate(-174.15)" fill="#92e3a9" stroke="#263238" stroke-miterlimit="10" stroke-width="1"/>
              </g>
              <g id="Grupo_1068881" data-name="Grupo 1068881" transform="translate(42.171 4.424)">
                <rect id="Rectángulo_374240" data-name="Rectángulo 374240" width="1.107" height="6.33" transform="translate(1.101 6.41) rotate(-174.15)" fill="#757575" stroke="#263238" stroke-linecap="round" stroke-linejoin="round" stroke-width="1"/>
                <rect id="Rectángulo_374241" data-name="Rectángulo 374241" width="1.107" height="2.979" transform="translate(1.121 6.177) rotate(-174.15)" fill="#92e3a9" stroke="#263238" stroke-miterlimit="10" stroke-width="1"/>
              </g>
              <g id="Grupo_1068882" data-name="Grupo 1068882" transform="translate(39.348 7.469)">
                <rect id="Rectángulo_374242" data-name="Rectángulo 374242" width="1.107" height="6.33" transform="translate(1.101 6.41) rotate(-174.15)" fill="#757575" stroke="#263238" stroke-linecap="round" stroke-linejoin="round" stroke-width="1"/>
                <rect id="Rectángulo_374243" data-name="Rectángulo 374243" width="1.107" height="2.979" transform="translate(1.121 6.172) rotate(-174.15)" fill="#92e3a9" stroke="#263238" stroke-miterlimit="10" stroke-width="1"/>
              </g>
              <g id="Grupo_1068883" data-name="Grupo 1068883" transform="translate(37.276 3.245)">
                <rect id="Rectángulo_374244" data-name="Rectángulo 374244" width="1.107" height="6.33" transform="translate(1.101 6.41) rotate(-174.15)" fill="#757575" stroke="#263238" stroke-linecap="round" stroke-linejoin="round" stroke-width="1"/>
                <rect id="Rectángulo_374245" data-name="Rectángulo 374245" width="1.107" height="2.979" transform="translate(1.201 5.463) rotate(-174.15)" fill="#92e3a9" stroke="#263238" stroke-miterlimit="10" stroke-width="1"/>
              </g>
              <g id="Grupo_1068884" data-name="Grupo 1068884" transform="translate(34.831 2.626)">
                <rect id="Rectángulo_374246" data-name="Rectángulo 374246" width="1.107" height="6.33" transform="translate(1.101 6.41) rotate(-174.15)" fill="#757575" stroke="#263238" stroke-linecap="round" stroke-linejoin="round" stroke-width="1"/>
                <rect id="Rectángulo_374247" data-name="Rectángulo 374247" width="1.107" height="2.979" transform="translate(1.348 4.033) rotate(-174.15)" fill="#92e3a9" stroke="#263238" stroke-miterlimit="10" stroke-width="1"/>
              </g>
              <g id="Grupo_1068885" data-name="Grupo 1068885" transform="translate(31.953 6.317)">
                <rect id="Rectángulo_374248" data-name="Rectángulo 374248" width="1.107" height="6.33" transform="translate(1.101 6.41) rotate(-174.15)" fill="#757575" stroke="#263238" stroke-linecap="round" stroke-linejoin="round" stroke-width="1"/>
                <rect id="Rectángulo_374249" data-name="Rectángulo 374249" width="1.107" height="2.979" transform="translate(1.369 3.801) rotate(-174.15)" fill="#92e3a9" stroke="#263238" stroke-miterlimit="10" stroke-width="1"/>
              </g>
              <g id="Grupo_1068886" data-name="Grupo 1068886" transform="translate(29.757 3.295)">
                <rect id="Rectángulo_374250" data-name="Rectángulo 374250" width="1.107" height="6.33" transform="translate(1.101 6.41) rotate(-174.15)" fill="#757575" stroke="#263238" stroke-linecap="round" stroke-linejoin="round" stroke-width="1"/>
                <rect id="Rectángulo_374251" data-name="Rectángulo 374251" width="1.107" height="2.979" transform="translate(1.222 5.226) rotate(-174.15)" fill="#92e3a9" stroke="#263238" stroke-miterlimit="10" stroke-width="1"/>
              </g>
              <g id="Grupo_1068887" data-name="Grupo 1068887" transform="translate(27.103 4.688)">
                <rect id="Rectángulo_374252" data-name="Rectángulo 374252" width="1.107" height="6.33" transform="translate(1.101 6.41) rotate(-174.15)" fill="#757575" stroke="#263238" stroke-linecap="round" stroke-linejoin="round" stroke-width="1"/>
                <rect id="Rectángulo_374253" data-name="Rectángulo 374253" width="1.107" height="2.979" transform="translate(1.205 5.458) rotate(-174.15)" fill="#92e3a9" stroke="#263238" stroke-miterlimit="10" stroke-width="1"/>
              </g>
              <g id="Grupo_1068888" data-name="Grupo 1068888" transform="translate(24.335 7.264)">
                <rect id="Rectángulo_374254" data-name="Rectángulo 374254" width="1.107" height="6.33" transform="translate(1.101 6.41) rotate(-174.15)" fill="#757575" stroke="#263238" stroke-linecap="round" stroke-linejoin="round" stroke-width="1"/>
                <rect id="Rectángulo_374255" data-name="Rectángulo 374255" width="1.107" height="2.979" transform="translate(1.105 6.405) rotate(-174.15)" fill="#92e3a9" stroke="#263238" stroke-miterlimit="10" stroke-width="1"/>
              </g>
              <g id="Grupo_1068889" data-name="Grupo 1068889" transform="translate(22.27 3.017)">
                <rect id="Rectángulo_374256" data-name="Rectángulo 374256" width="1.107" height="6.33" transform="translate(1.101 6.41) rotate(-174.15)" fill="#757575" stroke="#263238" stroke-linecap="round" stroke-linejoin="round" stroke-width="1"/>
                <rect id="Rectángulo_374257" data-name="Rectángulo 374257" width="1.107" height="2.979" transform="translate(1.171 5.699) rotate(-174.15)" fill="#92e3a9" stroke="#263238" stroke-miterlimit="10" stroke-width="1"/>
              </g>
              <g id="Grupo_1068890" data-name="Grupo 1068890" transform="translate(20.074 0)">
                <rect id="Rectángulo_374258" data-name="Rectángulo 374258" width="1.107" height="6.33" transform="translate(1.101 6.41) rotate(-174.15)" fill="#757575" stroke="#263238" stroke-linecap="round" stroke-linejoin="round" stroke-width="1"/>
                <rect id="Rectángulo_374259" data-name="Rectángulo 374259" width="1.107" height="2.979" transform="translate(1.171 5.694) rotate(-174.15)" fill="#92e3a9" stroke="#263238" stroke-miterlimit="10" stroke-width="1"/>
              </g>
              <g id="Grupo_1068891" data-name="Grupo 1068891" transform="translate(17.25 3.076)">
                <rect id="Rectángulo_374260" data-name="Rectángulo 374260" width="1.107" height="6.33" transform="translate(1.101 6.41) rotate(-174.15)" fill="#757575" stroke="#263238" stroke-linecap="round" stroke-linejoin="round" stroke-width="1"/>
                <rect id="Rectángulo_374261" data-name="Rectángulo 374261" width="1.107" height="2.979" transform="translate(1.343 4.042) rotate(-174.15)" fill="#92e3a9" stroke="#263238" stroke-miterlimit="10" stroke-width="1"/>
              </g>
              <g id="Grupo_1068892" data-name="Grupo 1068892" transform="translate(14.409 6.376)">
                <rect id="Rectángulo_374262" data-name="Rectángulo 374262" width="1.107" height="6.33" transform="translate(1.101 6.41) rotate(-174.15)" fill="#757575" stroke="#263238" stroke-linecap="round" stroke-linejoin="round" stroke-width="1"/>
                <rect id="Rectángulo_374263" data-name="Rectángulo 374263" width="1.107" height="2.979" transform="translate(1.394 3.569) rotate(-174.15)" fill="#92e3a9" stroke="#263238" stroke-miterlimit="10" stroke-width="1"/>
              </g>
              <g id="Grupo_1068893" data-name="Grupo 1068893" transform="translate(12.294 2.567)">
                <rect id="Rectángulo_374264" data-name="Rectángulo 374264" width="1.107" height="6.33" transform="translate(1.101 6.41) rotate(-174.15)" fill="#757575" stroke="#263238" stroke-linecap="round" stroke-linejoin="round" stroke-width="1"/>
                <rect id="Rectángulo_374265" data-name="Rectángulo 374265" width="1.107" height="2.979" transform="translate(1.192 5.467) rotate(-174.15)" fill="#92e3a9" stroke="#263238" stroke-miterlimit="10" stroke-width="1"/>
              </g>
              <g id="Grupo_1068894" data-name="Grupo 1068894" transform="translate(9.918 1.269)">
                <rect id="Rectángulo_374266" data-name="Rectángulo 374266" width="1.107" height="6.33" transform="translate(1.101 6.41) rotate(-174.15)" fill="#757575" stroke="#263238" stroke-linecap="round" stroke-linejoin="round" stroke-width="1"/>
                <rect id="Rectángulo_374267" data-name="Rectángulo 374267" width="1.107" height="2.979" transform="translate(1.373 3.801) rotate(-174.15)" fill="#92e3a9" stroke="#263238" stroke-miterlimit="10" stroke-width="1"/>
              </g>
              <g id="Grupo_1068895" data-name="Grupo 1068895" transform="translate(7.238 2.976)">
                <rect id="Rectángulo_374268" data-name="Rectángulo 374268" width="1.107" height="6.33" transform="translate(1.101 6.41) rotate(-174.15)" fill="#757575" stroke="#263238" stroke-linecap="round" stroke-linejoin="round" stroke-width="1"/>
                <rect id="Rectángulo_374269" data-name="Rectángulo 374269" width="1.107" height="2.979" transform="translate(1.104 6.409) rotate(-174.15)" fill="#92e3a9" stroke="#263238" stroke-miterlimit="10" stroke-width="1"/>
              </g>
              <g id="Grupo_1068896" data-name="Grupo 1068896" transform="translate(4.961 0.76)">
                <rect id="Rectángulo_374270" data-name="Rectángulo 374270" width="1.107" height="6.33" transform="translate(1.101 6.41) rotate(-174.15)" fill="#757575" stroke="#263238" stroke-linecap="round" stroke-linejoin="round" stroke-width="1"/>
                <rect id="Rectángulo_374271" data-name="Rectángulo 374271" width="1.107" height="2.979" transform="translate(1.15 5.941) rotate(-174.15)" fill="#92e3a9" stroke="#263238" stroke-miterlimit="10" stroke-width="1"/>
              </g>
              <g id="Grupo_1068897" data-name="Grupo 1068897" transform="translate(2.397 1.356)">
                <rect id="Rectángulo_374272" data-name="Rectángulo 374272" width="1.107" height="6.33" transform="translate(1.101 6.41) rotate(-174.15)" fill="#757575" stroke="#263238" stroke-linecap="round" stroke-linejoin="round" stroke-width="1"/>
                <rect id="Rectángulo_374273" data-name="Rectángulo 374273" width="1.107" height="2.979" transform="translate(1.125 6.168) rotate(-174.15)" fill="#92e3a9" stroke="#263238" stroke-miterlimit="10" stroke-width="1"/>
              </g>
              <g id="Grupo_1068898" data-name="Grupo 1068898" transform="translate(0 0.291)">
                <rect id="Rectángulo_374274" data-name="Rectángulo 374274" width="1.107" height="6.33" transform="translate(1.101 6.41) rotate(-174.15)" fill="#757575" stroke="#263238" stroke-linecap="round" stroke-linejoin="round" stroke-width="1"/>
                <rect id="Rectángulo_374275" data-name="Rectángulo 374275" width="1.107" height="2.979" transform="translate(1.419 3.324) rotate(-174.15)" fill="#92e3a9" stroke="#263238" stroke-miterlimit="10" stroke-width="1"/>
              </g>
            </g>
            <g id="Grupo_1068900" data-name="Grupo 1068900" transform="translate(7.049 84.119)">
              <path id="Trazado_815347" data-name="Trazado 815347" d="M316.113,242.208l-50.284-5.152a.529.529,0,1,0-.112,1.053L316,243.261a.529.529,0,1,0,.112-1.053Z" transform="translate(-256.283 -237.053)" fill="#263238"/>
              <path id="Trazado_815348" data-name="Trazado 815348" d="M305.168,249.626l-58.469-5.99a.529.529,0,0,0-.112,1.053l58.469,5.99a.529.529,0,0,0,.112-1.053Z" transform="translate(-245.723 -240.685)" fill="#263238"/>
              <path id="Trazado_815349" data-name="Trazado 815349" d="M279.738,255.563l-33.91-3.477a.529.529,0,0,0-.112,1.053l33.91,3.477a.529.529,0,1,0,.112-1.053Z" transform="translate(-245.243 -245.35)" fill="#263238"/>
            </g>
            <path id="Trazado_815350" data-name="Trazado 815350" d="M301.935,160.484c-1.734-.139-2.334,2.625-2.334,2.625s-2.742-3.593-2.307-12.042a3.086,3.086,0,0,0-4.928-1.483c-3.584,2.262-7.307,10.237-6.42,18.924l-6.975-23.157c-2.41.511-7.307,3.75-6.017,19.39l-7.612-8.046a2.868,2.868,0,0,0-3.226,1.16c-1.165,1.828-.609,14.883.354,19.766s-1.492,14.695-1.492,14.695-2.625-11.111-7.374-13.924l-18.086-37.3-6.008,58.644,6.778.694,10.887-5.3c-.063,2.451-.121,4.7-.3,6.384l54.406,5.573,3.893-38C303.852,164.35,302.589,160.533,301.935,160.484Z" transform="translate(-229.51 -99.963)" fill="none" opacity="0.2"/>
          </g>
          <path id="Trazado_815352" data-name="Trazado 815352" d="M311.5,56.642l-6.33,61.771-3.893,38-54.406-5.573-10.586-1.084-6.778-.694,6.008-58.644,4.216-41.127Z" transform="translate(-229.51 -49.29)" fill="none" stroke="#263238" stroke-linecap="round" stroke-linejoin="round" stroke-width="1"/>
        </g>
        <g id="Grupo_1068912" data-name="Grupo 1068912" transform="translate(12.396 45.379)">
          <g id="Grupo_1068905" data-name="Grupo 1068905" transform="translate(4.785)">
            <path id="Trazado_815353" data-name="Trazado 815353" d="M331.782,271.577l-31.808,5.412s-5.537-29.412-8.839-34.044-2.7-6.541-4.3-9.663c-.968-1.886-5.82-5.4-9.628-8.875h0c-.332-.3-.654-.6-.963-.9-.134-.121-.26-.251-.385-.372-.506-.5-.977-.99-1.393-1.469q-.228-.255-.43-.511a7.256,7.256,0,0,1-1.541-2.728.7.7,0,0,1-.027-.139,1.156,1.156,0,0,1-.027-.166c-.085-.694-.175-1.487-.264-2.348-.018-.17-.036-.349-.058-.529-.009-.072-.018-.139-.027-.215-.076-.717-.161-1.478-.26-2.262-.1-.82-.206-1.671-.332-2.527-.04-.3-.081-.591-.13-.892,0,0,0-.009,0-.009-.049-.332-.1-.663-.157-1l-.148-.86c-.009-.049-.022-.094-.027-.134-.063-.336-.125-.663-.188-.995a.451.451,0,0,1-.022-.112c-.063-.291-.121-.578-.188-.869-.139-.65-.3-1.286-.466-1.9a23.622,23.622,0,0,0-1.187-3.4c-2.294-5.121.69-3.27-1.107-16.446,0,0,1.322-3.055,5.089-.614a10.1,10.1,0,0,1,.842.614h0a10.59,10.59,0,0,1,2,2.141,12.372,12.372,0,0,1,1.729,3.566,15.507,15.507,0,0,1,.511,6.406s2.831,9.7,4.323,11.912,7.661-10.479,7.262-11.957a19.985,19.985,0,0,1-.318-2.007c-.027-.22-.054-.452-.085-.7s-.058-.5-.085-.766c-.018-.125-.031-.26-.049-.39,0-.054-.009-.108-.018-.157-.054-.506-.116-1.044-.175-1.6-.013-.157-.031-.3-.049-.457-.027-.264-.054-.538-.081-.806a1.141,1.141,0,0,1-.013-.134c-.018-.152-.036-.309-.049-.47-.036-.314-.067-.632-.1-.95-.031-.273-.054-.547-.081-.82-.054-.515-.1-1.03-.152-1.528-.036-.372-.072-.739-.1-1.1-.009-.081-.018-.161-.022-.237-.188-1.971-.336-3.593-.39-4.283,0,0-4.485-6.639-4.946-9.767s-.421-6.42,1.456-7.759c4.444-3.163,3.145,1.935,5.134,4.045s5.04,5.569,6.769,6.648c1.595,1.012,3.02,4.946,3.221,5.519-.228-.86-2.509-9.318-2.558-11.021-.058-1.8-1.429-11.272.9-14.672s5.425-.762,5.712-.09.372,9.852,1.192,12.41S309,177.8,309,177.8s.143-10.358.918-14.995,2.787-8.261,4.758-8.467,3.795,1.967,3.795,1.967-.78,7.392-.556,9.1-.323,7.871.614,11.187c0,0-.108-8.83,1.263-9.959s2.549-1.671,3.32-.909.936,5.99,1.72,9.135.685,7.419,1.2,12.325,2.545,11.715,2.141,15.608-1.644,13.548-2.643,19.215a120.578,120.578,0,0,1-3.548,13.431,27.843,27.843,0,0,1,.936,7.84c-.228,3.7,8.866,28.3,8.866,28.3Z" transform="translate(-267.866 -150.58)" fill="#fff"/>
            <g id="Grupo_1068903" data-name="Grupo 1068903" transform="translate(2.307 9.861)">
              <path id="Trazado_815354" data-name="Trazado 815354" d="M340.342,178.872c.609,1.891,2.643,8.216,3.66,11.375,0,0-4.449,3.27-4.337,6.3s-.815,9.166-2.809,8.991-1.814-12.929-2.469-15.071c.4.918.668,1.671.721,1.819-.148-.551-2.522-9.327-2.572-11.066-.013-.408-.094-1.223-.188-2.276v-.022s4.422-4.229,7.665-1.64h0a10.882,10.882,0,0,0,.327,1.581Z" transform="translate(-305.765 -174.719)" fill="#ffc8bf" opacity="0.4"/>
              <path id="Trazado_815355" data-name="Trazado 815355" d="M368.63,180.39c-2.07,1.962-5.192,5.434-5.587,8.781,0,0,1.156,9.341.663,13.418L359.67,189.95s.143-10.358.918-14.995c.018-.125.045-.255.067-.385a18.427,18.427,0,0,1,8.1-1.98,35.726,35.726,0,0,0-.175,4.959,28.032,28.032,0,0,1,.049,2.84Z" transform="translate(-320.846 -172.59)" fill="#ffc8bf" opacity="0.4"/>
              <path id="Trazado_815356" data-name="Trazado 815356" d="M383.318,186.051h0s-.009.013-.013.013c-.049.036-.17.13-.345.278a6.089,6.089,0,0,1,.354-.582l.009.291Z" transform="translate(-333.702 -179.86)" fill="#92e3a9" opacity="0.4"/>
              <path id="Trazado_815357" data-name="Trazado 815357" d="M382.775,210.96s-2.661-9.982-2.706-18.019c-.018-2.975.323-5.685,1.286-7.517h0a5.652,5.652,0,0,1,.354-.587l.009.291a7.292,7.292,0,0,1,1.586-1.048c-.748,1.165-1.608,3.445-.614,7.15,1.559,5.806.2,12.894.081,19.735Z" transform="translate(-332.106 -178.932)" fill="#ffc8bf" opacity="0.4"/>
              <path id="Trazado_815358" data-name="Trazado 815358" d="M286.974,252.119s.717,9.511-6.931,12.92h0c-.332-.3-.65-.6-.963-.9-.134-.125-.26-.251-.385-.372-.506-.5-.977-.99-1.393-1.469q-.228-.262-.43-.511a7.257,7.257,0,0,1-1.541-2.728.759.759,0,0,1-.027-.139,1.155,1.155,0,0,1-.027-.166c-.085-.694-.175-1.487-.264-2.348-.018-.17-.036-.349-.058-.529-.009-.072-.018-.139-.022-.215-.081-.717-.166-1.478-.26-2.262-.1-.82-.206-1.671-.332-2.527-.045-.3-.085-.6-.13-.892v-.009c-.049-.332-.1-.668-.157-1-.049-.287-.1-.573-.148-.865l-.027-.134c-.063-.332-.125-.663-.193-.995a1,1,0,0,1-.022-.112c-.058-.291-.121-.582-.184-.869-.148-.65-.3-1.286-.47-1.9,3.024-2.912,10-1.084,6.626-7.827,0,0,1.7-5.77-2.988-12.029h0c3.208,2.589,4.852,7.132,4.243,12.119,0,0,2.831,9.7,4.323,11.912s7.661-10.479,7.258-11.957c-.076-.291-.188-1.017-.314-2.007-.027-.22-.054-.452-.085-.7s-.058-.5-.09-.766c-.018-.125-.031-.255-.045-.385,0-.054-.009-.108-.018-.157-.054-.511-.112-1.044-.175-1.6-.013-.152-.031-.3-.049-.457q-.04-.4-.081-.806-.007-.06-.013-.134c-.013-.152-.036-.309-.049-.475-.036-.314-.063-.632-.1-.95l-.081-.82c-.049-.515-.1-1.03-.148-1.528-.036-.372-.072-.744-.108-1.093-.009-.081-.013-.161-.022-.242.125.587,2.4,11.4,3.692,13.92,1.331,2.594-4.319,16.245-7.809,14Z" transform="translate(-273.01 -201.073)" fill="#ffc8bf" opacity="0.4"/>
              <path id="Trazado_815359" data-name="Trazado 815359" d="M378.5,277.382a121.006,121.006,0,0,1-3.544,13.431,27.739,27.739,0,0,1,.932,7.84,29.154,29.154,0,0,0,1.478,6.639c-.269-.69-3.123-8.091-3.078-10.672.054-2.71-.717-3.459-2.227-6.787s-3.812-2.961-3.812-2.961-.887,8.306-2.975,2.849-2.486-11.8,2.769-33.847c0,0,.793,2.764.13,10.976s1.3,10.7,1.3,10.7a76.418,76.418,0,0,0,6.984-16.289s-.676,9.583-1.286,13.951,2.155-5.058,4.081-10.882c1.81-5.461,1.877-7.54,1.187-11.429a28.276,28.276,0,0,1,.7,7.262c-.4,3.889-1.649,13.548-2.648,19.215Z" transform="translate(-323.144 -215.817)" fill="#ffc8bf" opacity="0.4"/>
              <path id="Trazado_815360" data-name="Trazado 815360" d="M316.34,351.234c1.55,2.464,5.345,5.721,7.607,14.73s.838,18.87.838,18.87l-8.445-33.6Z" transform="translate(-296.928 -271.198)" fill="#ffe9e5" opacity="0.69"/>
            </g>
            <path id="Trazado_815361" data-name="Trazado 815361" d="M277.538,228.106s-7.934,4.019-8.561,10.739c-2.294-5.121.69-3.27-1.107-16.446,0,0,1.322-3.055,5.089-.614a10.1,10.1,0,0,1,.842.614h0a10.591,10.591,0,0,1,2,2.141l1.729,3.566Z" transform="translate(-267.866 -189.362)" fill="#ff6148" opacity="0.2"/>
            <g id="Grupo_1068904" data-name="Grupo 1068904" transform="translate(0 0.013)">
              <path id="Trazado_815362" data-name="Trazado 815362" d="M299.969,277.006s-5.533-29.412-8.839-34.044-2.7-6.541-4.3-9.663-13.857-10.721-14.4-15.16-1.165-12.938-3.459-18.059.69-3.27-1.111-16.446c0,0,1.331-3.051,5.094-.614s5.748,7.325,5.089,12.732c0,0,2.831,9.7,4.323,11.908s7.656-10.479,7.258-11.962-1.581-14.1-1.765-16.4c0,0-4.485-6.644-4.946-9.767s-.421-6.42,1.456-7.755c4.444-3.163,3.145,1.935,5.134,4.05s5.04,5.564,6.769,6.648,3.244,5.587,3.244,5.587-2.527-9.292-2.581-11.088-1.429-11.272.9-14.668,5.43-.762,5.712-.094.376,9.852,1.2,12.405,4.247,13.207,4.247,13.207.148-10.358.918-14.995,2.791-8.266,4.758-8.467,3.795,1.967,3.795,1.967-.78,7.392-.56,9.1-.318,7.871.618,11.187c0,0-.112-8.83,1.263-9.959s2.549-1.671,3.315-.909.936,5.99,1.725,9.135.685,7.419,1.2,12.325,2.545,11.715,2.141,15.6-1.649,13.548-2.648,19.219a121.012,121.012,0,0,1-3.544,13.431,27.738,27.738,0,0,1,.932,7.84c-.228,3.7,8.866,28.3,8.866,28.3" transform="translate(-267.86 -150.61)" fill="none" stroke="#263238" stroke-linecap="round" stroke-linejoin="round" stroke-width="1"/>
              <path id="Trazado_815363" data-name="Trazado 815363" d="M359.66,211.34c.927,2.177,3.217,11.37,4.036,12.643a4.362,4.362,0,0,0,1.747,1.658" transform="translate(-318.533 -184.132)" fill="none" stroke="#263238" stroke-linecap="round" stroke-linejoin="round" stroke-width="1"/>
              <path id="Trazado_815364" data-name="Trazado 815364" d="M380.921,208.64s-.2,1.882.82,7.889,1.514,8.561,2.083,9.9" transform="translate(-330.261 -182.642)" fill="none" stroke="#263238" stroke-linecap="round" stroke-linejoin="round" stroke-width="1"/>
              <path id="Trazado_815365" data-name="Trazado 815365" d="M338.52,211.87c1.245,3.66,1.944,9.493,2.652,11.249s1.34,2.119,1.34,2.119" transform="translate(-306.864 -184.425)" fill="none" stroke="#263238" stroke-linecap="round" stroke-linejoin="round" stroke-width="1"/>
              <path id="Trazado_815366" data-name="Trazado 815366" d="M343.01,231.47a5.528,5.528,0,0,1,1.72,2.173" transform="translate(-309.342 -195.244)" fill="none" stroke="#263238" stroke-linecap="round" stroke-linejoin="round" stroke-width="1"/>
              <path id="Trazado_815367" data-name="Trazado 815367" d="M300.25,277.95s.681,4.852,3.723,4.467" transform="translate(-285.739 -220.901)" fill="none" stroke="#263238" stroke-linecap="round" stroke-linejoin="round" stroke-width="1"/>
              <path id="Trazado_815368" data-name="Trazado 815368" d="M315.826,251.25s.788,5.766-.506,8.216" transform="translate(-294.058 -206.163)" fill="none" stroke="#263238" stroke-linecap="round" stroke-linejoin="round" stroke-width="1"/>
              <path id="Trazado_815369" data-name="Trazado 815369" d="M366.9,251.36s2.043,1.25.677,4.919-3.741,18.471-3.741,18.471" transform="translate(-320.84 -206.223)" fill="none" stroke="#263238" stroke-linecap="round" stroke-linejoin="round" stroke-width="1"/>
              <path id="Trazado_815370" data-name="Trazado 815370" d="M385.49,260.01c.856,3.315.932,3.4-.457,7.473s-3.633,14.045-3.633,14.045" transform="translate(-330.533 -210.998)" fill="none" stroke="#263238" stroke-linecap="round" stroke-linejoin="round" stroke-width="1"/>
              <path id="Trazado_815371" data-name="Trazado 815371" d="M387.836,333.935s-1.335-2.7-.233-4.915" transform="translate(-333.717 -249.091)" fill="none" stroke="#263238" stroke-linecap="round" stroke-linejoin="round" stroke-width="1"/>
              <path id="Trazado_815372" data-name="Trazado 815372" d="M319.8,356.74a36.908,36.908,0,0,1,4.847,10.053" transform="translate(-296.531 -264.393)" fill="none" stroke="#263238" stroke-linecap="round" stroke-linejoin="round" stroke-width="1"/>
            </g>
          </g>
          <g id="Grupo_1068910" data-name="Grupo 1068910" transform="translate(0 8.181)">
            <path id="Trazado_815373" data-name="Trazado 815373" d="M375.28,169.857l.914-.9.412-.116-.027.448-.838,1.066Z" transform="translate(-322.371 -168.84)" fill="#757575" stroke="#263238" stroke-linecap="round" stroke-linejoin="round" stroke-width="1"/>
            <g id="Grupo_1068907" data-name="Grupo 1068907" transform="translate(7.75 0.721)">
              <path id="Trazado_815374" data-name="Trazado 815374" d="M320.378,171.247l-1.483,3.373L278.933,227.9l-4.453-2.836,6.044-7.58,35.894-45.025,3.167-2.012a1.133,1.133,0,0,1,.8.8Z" transform="translate(-274.48 -170.45)" fill="#ff8e7c"/>
              <g id="Grupo_1068906" data-name="Grupo 1068906" clip-path="url(#clip-path-4)">
                <path id="Trazado_815375" data-name="Trazado 815375" d="M320.378,171.247l-1.483,3.373L278.933,227.9l-4.453-2.836,6.044-7.58c2.778-.287,3.239,1.353,3.239,1.353L318.192,173.9a2.3,2.3,0,0,0-1.774-1.443l3.167-2.012a1.133,1.133,0,0,1,.8.8Z" transform="translate(-274.48 -170.45)" fill="none" opacity="0.3"/>
              </g>
              <path id="Trazado_815377" data-name="Trazado 815377" d="M320.378,171.247l-1.483,3.373L278.933,227.9l-4.453-2.836,6.044-7.58,35.894-45.025,3.167-2.012a1.133,1.133,0,0,1,.8.8Z" transform="translate(-274.48 -170.45)" fill="none" stroke="#263238" stroke-linecap="round" stroke-linejoin="round" stroke-width="1"/>
            </g>
            <g id="Grupo_1068909" data-name="Grupo 1068909" transform="translate(0 41.853)">
              <path id="Trazado_815378" data-name="Trazado 815378" d="M282.416,262.807a157.767,157.767,0,0,1-8.75,15.116l-3.064.793s-7.034,6.989-11.326,10.479a9.624,9.624,0,0,1-2.1-1.761s6.093-11.7,12.835-19.107a8.648,8.648,0,0,1,2.213,1.174,10.835,10.835,0,0,1,2.307,2.213l7.513-9.453.372.547Z" transform="translate(-257.18 -262.26)" fill="#ff8e7c"/>
              <g id="Grupo_1068908" data-name="Grupo 1068908" clip-path="url(#clip-path-5)">
                <path id="Trazado_815379" data-name="Trazado 815379" d="M285,262.807a157.771,157.771,0,0,1-8.75,15.116l-3.064.793s-7.034,6.989-11.326,10.479l.116-1.9c4.655-7.11,10.568-14.865,12.831-17.795a10.834,10.834,0,0,1,2.307,2.213l-4.175,5.573,2.392-.43,9.3-14.6.372.547Z" transform="translate(-259.763 -262.26)" fill="none" opacity="0.3"/>
              </g>
              <path id="Trazado_815381" data-name="Trazado 815381" d="M282.416,262.807a157.767,157.767,0,0,1-8.75,15.116l-3.064.793s-7.034,6.989-11.326,10.479a9.624,9.624,0,0,1-2.1-1.761s6.093-11.7,12.835-19.107a8.648,8.648,0,0,1,2.213,1.174,10.835,10.835,0,0,1,2.307,2.213l7.513-9.453.372.547Z" transform="translate(-257.18 -262.26)" fill="none" stroke="#263238" stroke-linecap="round" stroke-linejoin="round" stroke-width="1"/>
            </g>
          </g>
          <g id="Grupo_1068911" data-name="Grupo 1068911" transform="translate(19.593 10.165)">
            <path id="Trazado_815382" data-name="Trazado 815382" d="M321.764,203.934l-12.481,12.105-1.994,1.935c1.366-3.512.7-8.938.618-9.6v-.009c0-.036-.009-.058-.009-.058a.307.307,0,0,0-.009-.094c-.076-.291-.188-1.017-.314-2.007-.027-.22-.054-.452-.085-.7s-.058-.5-.09-.766c-.018-.125-.031-.255-.045-.385,0-.054-.009-.108-.018-.157-.054-.506-.116-1.044-.175-1.6-.013-.152-.031-.3-.049-.457q-.04-.4-.081-.806-.007-.06-.013-.134c-.013-.152-.036-.309-.049-.475-.036-.314-.063-.632-.1-.95l-.081-.82c-.049-.515-.1-1.03-.148-1.528-.04-.372-.076-.739-.108-1.093-.009-.081-.013-.161-.022-.242-.188-1.971-.336-3.589-.39-4.283,0,0-4.48-6.639-4.946-9.767s-.421-6.42,1.456-7.755c4.444-3.167,3.141,1.931,5.13,4.046s5.045,5.564,6.769,6.648,3.244,5.587,3.244,5.587c1.241,3.66,1.944,9.489,2.652,11.249s1.34,2.119,1.34,2.119Z" transform="translate(-300.924 -173.272)" fill="#ffeeeb"/>
            <path id="Trazado_815383" data-name="Trazado 815383" d="M343.01,231.47a5.528,5.528,0,0,1,1.72,2.173" transform="translate(-324.15 -205.396)" fill="none" stroke="#263238" stroke-linecap="round" stroke-linejoin="round" stroke-width="1"/>
            <path id="Trazado_815384" data-name="Trazado 815384" d="M307.748,178.336c1.98,2.115,5.022,5.542,6.751,6.639-.242-.121-3.427-1.676-5.206.054-1.85,1.8-3.19,6.787-3.19,6.787s-4.48-6.639-4.946-9.767-.421-6.42,1.456-7.755c4.444-3.167,3.141,1.931,5.13,4.045Z" transform="translate(-300.913 -173.277)" fill="#ffc8bf" opacity="0.4"/>
            <path id="Trazado_815385" data-name="Trazado 815385" d="M316.149,244.14l-1.994,1.935c1.366-3.512.7-8.938.618-9.6v-.009a.677.677,0,0,0-.018-.152c-.076-.291-.188-1.017-.314-2.007-.027-.22-.054-.452-.085-.7s-.058-.5-.09-.766c-.018-.125-.031-.255-.045-.385,0-.054-.009-.108-.018-.157-.054-.511-.112-1.044-.175-1.6-.013-.152-.031-.3-.049-.457q-.04-.4-.081-.806-.007-.06-.013-.134c-.013-.152-.036-.309-.049-.475-.036-.314-.063-.632-.1-.95l-.081-.82c-.049-.515-.1-1.03-.148-1.528-.036-.372-.072-.744-.108-1.093-.009-.081-.013-.161-.022-.242.125.587,2.4,11.4,3.692,13.92.488.954.036,3.409-.918,6.026Z" transform="translate(-307.795 -201.377)" fill="#ffc8bf" opacity="0.4"/>
            <path id="Trazado_815386" data-name="Trazado 815386" d="M321.755,203.931s-.632-.363-1.34-2.119-1.411-7.589-2.652-11.249c0,0-1.519-4.5-3.244-5.587s-4.776-4.534-6.769-6.648-.69-7.213-5.134-4.05c-1.877,1.335-1.913,4.628-1.456,7.755s4.946,9.767,4.946,9.767c.184,2.3,1.366,14.919,1.765,16.4" transform="translate(-300.915 -173.269)" fill="none" stroke="#263238" stroke-linecap="round" stroke-linejoin="round" stroke-width="1"/>
            <path id="Trazado_815387" data-name="Trazado 815387" d="M315.826,251.25s.788,5.766-.506,8.216" transform="translate(-308.866 -216.314)" fill="none" stroke="#263238" stroke-linecap="round" stroke-linejoin="round" stroke-width="1"/>
          </g>
        </g>
      </g>
    </g>
    <g id="Left_hand" data-name="Left hand" transform="translate(4.822 17.11)">
      <g id="Grupo_1068934" data-name="Grupo 1068934">
        <path id="Trazado_815388" data-name="Trazado 815388" d="M100.472,257.351s2.836,13.167-3.306,22.75-10.869,12.136-13,14.995-10.447,18.839-10.447,18.839L64,285.141l9.722-35.621,26.755,7.836Z" transform="translate(-40.148 -154.843)" opacity="0.2"/>
        <g id="Grupo_1068931" data-name="Grupo 1068931" transform="translate(12.222)">
          <path id="Trazado_815389" data-name="Trazado 815389" d="M143.442,130.631,83.159,156l-6.214,2.616L65.234,130.793,38.04,66.177l66.5-27.987Z" transform="translate(-38.04 -38.19)" fill="#fff"/>
          <g id="Grupo_1068930" data-name="Grupo 1068930" clip-path="url(#clip-path-6)">
            <path id="Trazado_815390" data-name="Trazado 815390" d="M111.955,64.927,83.251,77a1.057,1.057,0,0,0,.82,1.949l28.7-12.078a1.057,1.057,0,1,0-.82-1.949Z" transform="translate(-62.639 -52.902)" fill="#263238"/>
            <path id="Trazado_815391" data-name="Trazado 815391" d="M117.786,80.67l-14.354,6.039a.53.53,0,0,0,.412.977L118.2,81.646a.53.53,0,0,0-.412-.977Z" transform="translate(-73.958 -61.616)" fill="#263238"/>
            <g id="Grupo_1068920" data-name="Grupo 1068920" transform="translate(23.95 51.332)">
              <g id="Grupo_1068914" data-name="Grupo 1068914" transform="translate(0 4.516)">
                <path id="Trazado_815392" data-name="Trazado 815392" d="M144.409,162.85s.6,4.753-1.165,5.5c-1.617.681-3.745-1.873-5.6-1.089s-.394,7.522-2.186,8.279-3.951-2.016-5.5-1.366-.609,4.117-2.2,4.789c-1.317.556-3.2-2.2-4.7-2.809a1.143,1.143,0,0,0-.9-.045c-1.577.663-.793,7.907-2.155,8.476a2.5,2.5,0,0,1-1.21.2,9.04,9.04,0,0,0-1.537-.143,1.937,1.937,0,0,0-.573.148c-1.16.488-1,4.3-2.065,4.749s-2.11-.108-3.244.372-1.116,2.46-2.809,3.172l.717,1.7,41.266-17.365" transform="translate(-100.917 -162.85)" fill="#bfbfbf" stroke="#263238" stroke-miterlimit="10" stroke-width="1"/>
                <path id="Trazado_815393" data-name="Trazado 815393" d="M91.5,189.81l8.355,19.851,43.206-18.185" transform="translate(-91.5 -177.732)" fill="none" stroke="#263238" stroke-linecap="round" stroke-linejoin="round" stroke-width="1"/>
                <path id="Trazado_815394" data-name="Trazado 815394" d="M147.713,178.6a6.356,6.356,0,0,0-.511-.547c-.533-.515-1.38-1.169-2.025-.9s-.685,1.313-.672,2.428c.013,1.362.134,2.822-.551,3.114-.582.246-1.1-.125-1.64-.524-.614-.457-1.241-.959-2-.641-1.272.538-.887,2.2-1.335,3.615a2.75,2.75,0,0,1-1.676,1.81,3.414,3.414,0,0,1-3.266-.708c-1.774-1.21-3.369-3.172-4.4-2.737-1.644.69.17,5.139-1.6,5.882-.986.417-3.029-2.7-5.013-5.372-1.568-2.119-3.1-3.96-4.045-3.566-2.133.9,1.38,11.527-.17,12.181-.013,0-.031.013-.049.018a1.636,1.636,0,0,1-1.537-.143c-.56-.318-1.012-.766-1.631-.506-1.142.479-.47,4.646-1.729,5.179s-2.012-.237-3.427.358c-1.2.5-1.909,3.4-1.909,3.4l.717,1.7,41.266-17.365" transform="translate(-100.9 -170.711)" fill="#757575" stroke="#263238" stroke-linecap="round" stroke-linejoin="round" stroke-width="1"/>
              </g>
              <path id="Trazado_815395" data-name="Trazado 815395" d="M158.416,212.05l-14.354,6.039a.53.53,0,0,0,.412.977l14.354-6.039a.53.53,0,1,0-.412-.977Z" transform="translate(-120.335 -185.469)" fill="#263238"/>
              <g id="Grupo_1068919" data-name="Grupo 1068919" transform="translate(47.798)">
                <g id="Grupo_1068916" data-name="Grupo 1068916">
                  <rect id="Rectángulo_374276" data-name="Rectángulo 374276" width="2.065" height="2.065" rx="0.63" transform="translate(0 3.492) rotate(-22.82)" fill="#bfbfbf" stroke="#263238" stroke-miterlimit="10" stroke-width="1"/>
                  <g id="Grupo_1068915" data-name="Grupo 1068915" transform="translate(3.086)">
                    <path id="Trazado_815396" data-name="Trazado 815396" d="M211.141,153.222l-5.734,2.415a.236.236,0,0,1-.184-.435l5.734-2.415a.236.236,0,0,1,.184.435Z" transform="translate(-205.079 -152.769)" fill="#263238"/>
                    <path id="Trazado_815397" data-name="Trazado 815397" d="M210.284,156.992l-3.987,1.676a.236.236,0,0,1-.184-.435l3.987-1.676a.236.236,0,0,1,.184.435Z" transform="translate(-205.571 -154.85)" fill="#263238"/>
                  </g>
                </g>
                <g id="Grupo_1068918" data-name="Grupo 1068918" transform="translate(1.796 4.265)">
                  <rect id="Rectángulo_374277" data-name="Rectángulo 374277" width="2.065" height="2.065" rx="0.63" transform="translate(0 3.491) rotate(-22.82)" fill="#757575" stroke="#263238" stroke-linecap="round" stroke-linejoin="round" stroke-width="1"/>
                  <g id="Grupo_1068917" data-name="Grupo 1068917" transform="translate(3.087)">
                    <path id="Trazado_815398" data-name="Trazado 815398" d="M215.151,162.742l-5.734,2.415a.236.236,0,1,1-.184-.435l5.734-2.415a.236.236,0,1,1,.184.435Z" transform="translate(-209.089 -162.289)" fill="#263238"/>
                    <path id="Trazado_815399" data-name="Trazado 815399" d="M214.284,166.512l-3.987,1.676a.236.236,0,0,1-.184-.435l3.987-1.676a.236.236,0,0,1,.184.435Z" transform="translate(-209.575 -164.37)" fill="#263238"/>
                  </g>
                </g>
              </g>
            </g>
            <g id="Grupo_1068921" data-name="Grupo 1068921" transform="translate(37.215 73.589)">
              <path id="Trazado_815400" data-name="Trazado 815400" d="M181.65,202.49l-46.588,19.6a.53.53,0,1,0,.412.977l46.588-19.6a.53.53,0,0,0-.412-.977Z" transform="translate(-128.632 -202.449)" fill="#263238"/>
              <path id="Trazado_815401" data-name="Trazado 815401" d="M175.6,210.32l-54.173,22.8a.53.53,0,0,0,.412.977l54.173-22.8a.53.53,0,0,0-.412-.977Z" transform="translate(-121.109 -206.771)" fill="#263238"/>
              <path id="Trazado_815402" data-name="Trazado 815402" d="M178.895,218.15l-54.173,22.8a.53.53,0,1,0,.412.977l54.173-22.8a.53.53,0,1,0-.412-.977Z" transform="translate(-122.925 -211.093)" fill="#263238"/>
              <path id="Trazado_815403" data-name="Trazado 815403" d="M182.195,225.98l-54.173,22.8a.53.53,0,0,0,.412.977l54.173-22.8a.53.53,0,0,0-.412-.977Z" transform="translate(-124.746 -215.415)" fill="#263238"/>
              <path id="Trazado_815404" data-name="Trazado 815404" d="M162.73,255.19,131.312,268.41a.53.53,0,0,0,.412.977l31.419-13.221a.53.53,0,0,0-.412-.977Z" transform="translate(-126.562 -231.539)" fill="#263238"/>
            </g>
            <g id="Grupo_1068929" data-name="Grupo 1068929" transform="translate(12.589 22.611)">
              <g id="Grupo_1068923" data-name="Grupo 1068923" transform="translate(0 6.241)">
                <g id="Grupo_1068922" data-name="Grupo 1068922" transform="translate(7.647)">
                  <path id="Trazado_815405" data-name="Trazado 815405" d="M119.055,102.59s.6,4.753-1.165,5.5c-1.617.681-3.745-1.873-5.6-1.089s-.394,7.522-2.186,8.279-3.951-2.016-5.5-1.366-.609,4.117-2.2,4.789c-1.317.556-3.2-2.2-4.7-2.809a1.143,1.143,0,0,0-.9-.045c-1.577.663-.793,7.907-2.155,8.476a2.5,2.5,0,0,1-1.21.2,9.04,9.04,0,0,0-1.537-.143,1.937,1.937,0,0,0-.573.148c-1.16.488-1,4.3-2.065,4.749s-2.11-.108-3.244.372-1.116,2.46-2.8,3.172l.717,1.7,41.266-17.365" transform="translate(-83.21 -102.59)" fill="#bfbfbf" stroke="#263238" stroke-miterlimit="10" stroke-width="1"/>
                  <path id="Trazado_815406" data-name="Trazado 815406" d="M121.925,116.73s.376,2.3-.533,2.688c-.757.318-1.223-.125-2.021-.152a2.626,2.626,0,0,0-1.156.237c-.73.3-.9,1.29-1.035,2.352-.161,1.3-.242,2.715-1.2,3.118a2.939,2.939,0,0,1-2.132-.143c-1.183-.412-2.433-1.066-3.633-.56a2.84,2.84,0,0,0-1.308,1.662c-.748,1.85-.981,4.529-1.792,4.87-1.151.484-3.261-1.5-4.283-1.066s-.6,2.209-1.434,2.558-1.3-.681-2.764-.067-.748,2.773-2.809,3.638-2.961-.726-4.955.112-1.631,2.348-3.033,2.939-2-.435-3-.013c-.977.412-1.241,2.012-1.259,2.115l.551,1.308L125.4,124.96" transform="translate(-83.414 -110.395)" fill="#ff8e7c" stroke="#263238" stroke-miterlimit="10" stroke-width="1"/>
                </g>
                <path id="Trazado_815407" data-name="Trazado 815407" d="M66.14,129.54,74.5,149.4,117.7,131.211" transform="translate(-66.14 -117.466)" fill="none" stroke="#263238" stroke-linecap="round" stroke-linejoin="round" stroke-width="1"/>
              </g>
              <path id="Trazado_815408" data-name="Trazado 815408" d="M132.766,151.1l-14.354,6.039a.53.53,0,0,0,.412.977l14.354-6.039a.53.53,0,1,0-.412-.977Z" transform="translate(-94.815 -123.103)" fill="#263238"/>
              <g id="Grupo_1068928" data-name="Grupo 1068928" transform="translate(47.075)">
                <g id="Grupo_1068925" data-name="Grupo 1068925">
                  <rect id="Rectángulo_374278" data-name="Rectángulo 374278" width="2.065" height="2.065" rx="0.63" transform="translate(0 3.492) rotate(-22.82)" fill="#bfbfbf" stroke="#263238" stroke-miterlimit="10" stroke-width="1"/>
                  <g id="Grupo_1068924" data-name="Grupo 1068924" transform="translate(3.083)">
                    <path id="Trazado_815409" data-name="Trazado 815409" d="M184.161,89.112l-5.734,2.415a.236.236,0,0,1-.184-.435l5.734-2.415a.236.236,0,1,1,.184.435Z" transform="translate(-178.099 -88.659)" fill="#263238"/>
                    <path id="Trazado_815410" data-name="Trazado 815410" d="M183.3,92.882l-3.987,1.676a.236.236,0,0,1-.184-.435l3.987-1.676a.236.236,0,0,1,.184.435Z" transform="translate(-178.591 -90.74)" fill="#263238"/>
                  </g>
                </g>
                <g id="Grupo_1068927" data-name="Grupo 1068927" transform="translate(1.796 4.265)">
                  <rect id="Rectángulo_374279" data-name="Rectángulo 374279" width="2.065" height="2.065" rx="0.63" transform="translate(0 3.492) rotate(-22.82)" fill="#92e3a9" stroke="#263238" stroke-miterlimit="10" stroke-width="1"/>
                  <g id="Grupo_1068926" data-name="Grupo 1068926" transform="translate(3.084)">
                    <path id="Trazado_815411" data-name="Trazado 815411" d="M188.171,98.632l-5.734,2.415a.236.236,0,0,1-.184-.435l5.734-2.415a.236.236,0,0,1,.184.435Z" transform="translate(-182.109 -98.179)" fill="#263238"/>
                    <path id="Trazado_815412" data-name="Trazado 815412" d="M187.3,102.4l-3.987,1.676a.236.236,0,1,1-.184-.435l3.987-1.676a.236.236,0,0,1,.184.435Z" transform="translate(-182.595 -100.26)" fill="#263238"/>
                  </g>
                </g>
              </g>
            </g>
            <path id="Trazado_815413" data-name="Trazado 815413" d="M116.665,244.422l-6.214,2.616L98.74,219.213a6.894,6.894,0,0,0,1.958-3.839c.7-3.727.206-15.712,9.538-16.948s1.461,19.748,1.891,23.749C112.521,225.816,117.838,236.4,116.665,244.422Z" transform="translate(-71.546 -126.61)" fill="none" opacity="0.2"/>
          </g>
          <path id="Trazado_815415" data-name="Trazado 815415" d="M143.442,130.631,83.159,156l-6.214,2.616L65.234,130.793,38.04,66.177l66.5-27.987Z" transform="translate(-38.04 -38.19)" fill="none" stroke="#263238" stroke-linecap="round" stroke-linejoin="round" stroke-width="1"/>
        </g>
        <g id="Grupo_1068933" data-name="Grupo 1068933" transform="translate(0 64.163)">
          <path id="Trazado_815416" data-name="Trazado 815416" d="M64.346,214.33c1.044-3.575,5.13-15.057,4.6-20.133a5.007,5.007,0,0,0-.287-1.236c-1.434-3.79-7.294-3.423-9.547-.282a30.071,30.071,0,0,0-4.664,13.454,11.682,11.682,0,0,1-1.774,5.313c0,.009,0,.013-.009.018a13,13,0,0,1-1.187,1.684L38.1,181.42a18.159,18.159,0,0,0-3.5,3.907,6.348,6.348,0,0,0-1.026,2.719c-.273,3.123-3.813,15.962-5.286,21.383-.027.116-.063.224-.09.332-1.416,5.206,2.321,24.542,1.254,30.16s-1.734,5.493-1.886,9.48c-.112,2.912-4.278,11.765-8.947,20.855-2.675,5.21-5.519,10.492-7.862,14.771l34.192-1.42c.591-4.153,1.2-8.539,1.756-12.782a48.211,48.211,0,0,1,1.021-5.246h0c.753-3.051,1.676-5.806,2.231-7.419a70.1,70.1,0,0,0,1.783-7.213c3.978-4.211,9.193-10.824,10.7-15.308,0-.009.009-.022.009-.031a5.582,5.582,0,0,0,.34-2.908,13.324,13.324,0,0,1-.269-2.446v-.009a67.707,67.707,0,0,1,1.814-15.909Z" transform="translate(-10.76 -181.416)" fill="#fff"/>
          <path id="Trazado_815417" data-name="Trazado 815417" d="M82.055,211.453a53.128,53.128,0,0,0-3.154,6.581c-.815,2.383-1.689,2.724-4.086,4.588s-4.14-1.21-4.14-1.21,3.167-3.288,2.115-5.121-4.991-6.389-4.758-8.9-2.388-8.149-2.388-8.149,5.972-3.5,4.812-7.6c-.632-2.245-3.759-4.628-6.456-6.326a18.159,18.159,0,0,1,3.5-3.907l13.373,31.728a13,13,0,0,0,1.187-1.685Z" transform="translate(-40.148 -181.41)" fill="#ffe1dc" opacity="0.92"/>
          <path id="Trazado_815418" data-name="Trazado 815418" d="M40.676,265.425c.081.269,2.025,6.689.385,9.363-1.68,2.733-3.324,6.223-2.522,9.852.641,2.9-4.735,13.386-10.219,20.115,4.668-9.09,8.835-17.943,8.947-20.855.157-3.987.815-3.866,1.886-9.48s-2.666-24.954-1.254-30.16c.027-.108.063-.215.09-.332,1.044,5.9,3.477,17.651,4.144,21.428.851,4.812-1.371.26-1.46.067Z" transform="translate(-20.453 -215.921)" fill="#ffe9e5" opacity="0.4"/>
          <path id="Trazado_815419" data-name="Trazado 815419" d="M83.38,336.456c3.974-17.109,17.347-30.227,19.157-34.026-1.51,4.48-6.725,11.1-10.7,15.308a70.39,70.39,0,0,1-1.783,7.213c-.56,1.613-1.478,4.368-2.231,7.414h0c-3.884,4.579-4.44,4.095-4.44,4.095Z" transform="translate(-50.846 -248.212)" fill="#ffdfd9" opacity="0.92"/>
          <path id="Trazado_815420" data-name="Trazado 815420" d="M122.721,228.275a67.707,67.707,0,0,0-1.814,15.909c-.7-3.046-2.056-6.917-2.28-12.307-.381-9.139,4.8-5.86,2.993-10.362s-6.953,1.268-4.417-8.261c1.85-6.958,7.123-6.895,9.829-6.353a5.008,5.008,0,0,1,.287,1.236c.538,5.076-3.548,16.558-4.6,20.133Z" transform="translate(-69.135 -195.36)" fill="#ffdfd9" opacity="0.92"/>
          <g id="Grupo_1068932" data-name="Grupo 1068932" transform="translate(5.206 0.004)">
            <path id="Trazado_815421" data-name="Trazado 815421" d="M22.38,275.586c4.287-7.836,8.458-15.9,11.46-24.587.358-1.25-.121-2.876.242-4.126,4.063-11.29-.547-23.041.211-34.6a85.493,85.493,0,0,1,3.548-13.736c.685-3.324.945-7.038,2.038-10.38,1.129-2.518,2.245-5.448,4.646-6.738,4.57,10.474,9.126,20.989,13.373,31.728,1.917-1.111,2.227-3.593,2.554-5.667a65.774,65.774,0,0,1,3.96-13.754c1.917-3.373,6.8-4.812,9.8-2.056a4.685,4.685,0,0,1,1.371,3.239c-.582,5.788-2.4,11.63-4.234,17.06a44.862,44.862,0,0,0-1.765,7.074c.036.824.049,1.232.085,2.056-1.062,4.162-.085,7.827-.327,11.957-.927,7.45-6.886,12.643-11.187,18.171-1.062,4.162-2.124,8.324-3.6,12.5-1.8,6.254-2.365,12.455-2.979,18.48" transform="translate(-22.38 -181.42)" fill="none" stroke="#263238" stroke-linecap="round" stroke-linejoin="round" stroke-width="1"/>
            <path id="Trazado_815422" data-name="Trazado 815422" d="M93.248,252.23a27.994,27.994,0,0,0-1.967,4.9c-.56,2.2-3.4,1.877-4.861,3.244" transform="translate(-57.73 -220.507)" fill="none" stroke="#263238" stroke-linecap="round" stroke-linejoin="round" stroke-width="1"/>
            <path id="Trazado_815423" data-name="Trazado 815423" d="M77.78,243.6a26.37,26.37,0,0,1,6.1,3.114,12.059,12.059,0,0,0,3.907,2.182" transform="translate(-52.961 -215.743)" fill="none" stroke="#263238" stroke-linecap="round" stroke-linejoin="round" stroke-width="1"/>
            <path id="Trazado_815424" data-name="Trazado 815424" d="M72.29,217.9s3.114.874,5.421-.224a20.416,20.416,0,0,1,.587-3.311" transform="translate(-49.93 -199.608)" fill="none" stroke="#263238" stroke-linecap="round" stroke-linejoin="round" stroke-width="1"/>
            <path id="Trazado_815425" data-name="Trazado 815425" d="M86.05,222.76s.031.435,1.622.452" transform="translate(-57.526 -204.239)" fill="none" stroke="#263238" stroke-linecap="round" stroke-linejoin="round" stroke-width="1"/>
            <path id="Trazado_815426" data-name="Trazado 815426" d="M96.222,336.6a21.2,21.2,0,0,0-4.892,7.719" transform="translate(-60.44 -267.079)" fill="none" stroke="#263238" stroke-linecap="round" stroke-linejoin="round" stroke-width="1"/>
            <path id="Trazado_815427" data-name="Trazado 815427" d="M49.295,246.81c-.139,2.684,3.011,12.222,3.969,16.957s1.313,8.091,1.313,8.091" transform="translate(-37.234 -217.515)" fill="none" stroke="#263238" stroke-linecap="round" stroke-linejoin="round" stroke-width="1"/>
          </g>
        </g>
      </g>
    </g>
  </g>
</svg>
