<svg id="Grupo_155560" data-name="Grupo 155560" xmlns="http://www.w3.org/2000/svg" width="60.309" height="60.214" viewBox="0 0 60.309 60.214">
  <path id="Trazado_197563" data-name="Trazado 197563" d="M-941.767-.392q6.11,0,12.221.012c.292,0,.384-.093.378-.38-.016-.688-.005-1.376-.005-2.1h17.545V-.4h12.546c.014.167.034.3.034.428q0,9.113,0,18.225a1.238,1.238,0,0,1-1.714,1.317,1.036,1.036,0,0,1-.723-.83,3.986,3.986,0,0,1-.053-.7q0-7.7,0-15.409v-.52h-10.041v2.5h7.5v.462q0,15.367,0,30.735c0,1.074-.752,1.66-1.7,1.331a1.071,1.071,0,0,1-.756-.944,5.126,5.126,0,0,1-.015-.621q0-13.917,0-27.835c0-.7.07-.63-.612-.63q-10.708,0-21.417,0h-.591V2.1h-10.068V54.786h30.158v-.508c0-2.886-.008-5.771,0-8.657a6.3,6.3,0,0,1,4.265-6.045q2.12-.763,4.243-1.52c.428-.153.864-.291,1.278-.476.125-.056.19-.245.281-.374.007-.009,0-.027,0-.041a1.86,1.86,0,0,0-.689-1.791,5.272,5.272,0,0,1-1.782-3.842,23.33,23.33,0,0,1,.1-4.292,6.057,6.057,0,0,1,6.336-5.036A6.176,6.176,0,0,1-889,28.5c0,1.1.023,2.212-.078,3.308a5.7,5.7,0,0,1-2.1,3.91.8.8,0,0,0-.332.739c.032.383-.1.856.086,1.126.169.25.655.291,1.006.413q2.382.829,4.766,1.652a6.238,6.238,0,0,1,4.193,5.876q.008,5.219,0,10.438a1.158,1.158,0,0,1-1.043,1.307,1.168,1.168,0,0,1-1.425-1.285c-.006-2.83,0-5.661-.005-8.491a19.591,19.591,0,0,0-.07-2.521,3.591,3.591,0,0,0-2.529-3.091q-3.476-1.206-6.974-2.35c-.372-.123-.535-.278-.505-.689.04-.559.01-1.123.01-1.675h-2.538c0,.54-.024,1.115.009,1.687a.565.565,0,0,1-.458.673c-2.359.811-4.707,1.653-7.059,2.486a3.665,3.665,0,0,0-2.534,3.518q-.018,5.178.015,10.355a1.394,1.394,0,0,1-1.061,1.465h-.5a5.811,5.811,0,0,0-.606-.062q-16.208,0-32.416,0c-.207,0-.413-.011-.62-.017Zm42.691,30.077h.04c0,.524-.022,1.05,0,1.573a3.7,3.7,0,0,0,3.557,3.484,3.668,3.668,0,0,0,3.928-3.2,22.687,22.687,0,0,0,.057-3.265,3.679,3.679,0,0,0-3.364-3.585,3.684,3.684,0,0,0-4.118,3.01A14.31,14.31,0,0,0-899.076,29.684ZM-926.681,4.6c.115.011.183.022.252.022q5.98,0,11.96.008c.331,0,.385-.133.381-.418-.018-1.42-.02-2.84-.03-4.261,0-.108-.021-.215-.032-.33h-12.53Z" transform="translate(941.767 2.86)" fill="#12263f"/>
  <path id="Trazado_197564" data-name="Trazado 197564" d="M-941.767,721.933c.207.006.413.017.62.017q16.208,0,32.416,0a5.823,5.823,0,0,1,.606.062q-16.635,0-33.269,0A1.8,1.8,0,0,1-941.767,721.933Z" transform="translate(941.767 -661.802)" fill="#12263f"/>
  <path id="Trazado_197565" data-name="Trazado 197565" d="M-880.521,87.651h4.913v2.443h-2.441V132.8h22.57v2.459h-25.042Z" transform="translate(885.602 -80.142)" fill="#12263f"/>
  <path id="Trazado_197566" data-name="Trazado 197566" d="M-775.422,185.37a7.562,7.562,0,0,1,8.414-7.447c.218.031.439.05.654.1a1.251,1.251,0,0,1,.987,1.452,1.11,1.11,0,0,1-1.276,1.015,7.045,7.045,0,0,0-2.464.072,4.991,4.991,0,0,0-3.758,4.942,5.042,5.042,0,0,0,4.2,4.842,5.075,5.075,0,0,0,5.707-3.858,1.289,1.289,0,0,1,1.1-1.081,1.221,1.221,0,0,1,1.35,1.558,9.25,9.25,0,0,1-.965,2.355,7.582,7.582,0,0,1-7.748,3.5,7.541,7.541,0,0,1-6.037-5.972C-775.35,186.363-775.367,185.863-775.422,185.37Z" transform="translate(789.222 -162.869)" fill="#12263f"/>
  <path id="Trazado_197567" data-name="Trazado 197567" d="M-775.3,397.748a7.552,7.552,0,0,1,6.9-7.442,10.888,10.888,0,0,1,2.14.089,1.2,1.2,0,0,1,1.006,1.389,1.19,1.19,0,0,1-1.26,1.066,7.681,7.681,0,0,0-2.466.075,4.948,4.948,0,0,0-3.779,4.918,5.057,5.057,0,0,0,4.221,4.874,5.08,5.08,0,0,0,5.682-3.844,1.345,1.345,0,0,1,.7-.968,1.175,1.175,0,0,1,1.256.068,1.093,1.093,0,0,1,.536,1.172,9.228,9.228,0,0,1-.709,2.144,7.6,7.6,0,0,1-8.02,3.891,7.492,7.492,0,0,1-6.1-6.282C-775.248,398.519-775.266,398.132-775.3,397.748Z" transform="translate(789.112 -357.668)" fill="#12263f"/>
  <path id="Trazado_197568" data-name="Trazado 197568" d="M-720.331,189.665l6.66-6.695,1.706,1.71-8.249,8.27-3.286-3.313,1.633-1.645Z" transform="translate(741.609 -167.553)" fill="#12263f"/>
  <path id="Trazado_197569" data-name="Trazado 197569" d="M-713.751,394.431l1.686,1.684-8.315,8.342-3.247-3.28,1.683-1.687,1.523,1.645Z" transform="translate(741.725 -361.471)" fill="#12263f"/>
  <path id="Trazado_197570" data-name="Trazado 197570" d="M-484.7,606.625c0,1.242.008,2.484,0,3.726a1.21,1.21,0,0,1-1.668,1.2,1.118,1.118,0,0,1-.793-1.1q-.016-3.829,0-7.658a1.154,1.154,0,0,1,1.225-1.184,1.15,1.15,0,0,1,1.235,1.207c.013,1.269,0,2.539,0,3.808Z" transform="translate(524.883 -551.462)" fill="#12263f"/>
  <path id="Trazado_197571" data-name="Trazado 197571" d="M-302.924,606.622c0,1.228.005,2.456,0,3.684a1.176,1.176,0,0,1-1.464,1.282,1.119,1.119,0,0,1-1-1.175q-.014-3.809,0-7.617a1.154,1.154,0,0,1,1.222-1.187,1.15,1.15,0,0,1,1.238,1.2c.013,1.269,0,2.539,0,3.808Z" transform="translate(358.194 -551.461)" fill="#12263f"/>
</svg>
