<svg xmlns="http://www.w3.org/2000/svg" width="46.352" height="46.339" viewBox="0 0 46.352 46.339">
  <g id="D5h0tL.tif" transform="translate(1055.904 5188.167)">
    <g id="Grupo_155568" data-name="Grupo 155568" transform="translate(-1055.904 -5188.167)">
      <path id="Trazado_197631" data-name="Trazado 197631" d="M-814.164-4953.605a1.056,1.056,0,0,1-.472-1.032c.049-1.227.042-2.455.111-3.68a6.318,6.318,0,0,1,.335-1.246c-.156-.007-.318-.022-.479-.022h-8.687c-.771,0-.991-.223-.991-1q0-5.742-.006-11.486a1.182,1.182,0,0,1,.372-.909c2.4-2.382,4.775-4.779,7.18-7.149a1.352,1.352,0,0,1,.851-.358c2.88-.026,5.76-.017,8.64-.015.647,0,.9.253.9.906,0,1.665,0,3.33,0,5.071a5.9,5.9,0,0,0,.6,0c2.968-.3,4.937,1.621,4.641,4.659a5.5,5.5,0,0,0,.008,1.119.669.669,0,0,0,.273.448,2.26,2.26,0,0,1,1.151,2.523,2.182,2.182,0,0,1-2.264,1.7c-.6-.018-1.064.032-1.266.723a2.893,2.893,0,0,1-.5.768,16.474,16.474,0,0,1,2.1,1.166,4.91,4.91,0,0,1,1.99,4.031c.013.918-.016,1.837.011,2.755a1.069,1.069,0,0,1-.473,1.032Zm-1.216-25.386v.533q0,2.941,0,5.883c0,.829-.208,1.033-1.054,1.033h-6.39v10.465h.537c2.8,0,5.6-.011,8.406.009a2.072,2.072,0,0,0,1.355-.435,10.745,10.745,0,0,1,1.729-.881c.1-.05.21-.085.319-.128a3.307,3.307,0,0,1-.536-.8c-.211-.711-.676-.8-1.33-.773a2.16,2.16,0,0,1-2.223-1.689,2.191,2.191,0,0,1,1.15-2.509.477.477,0,0,0,.289-.507c-.014-.637-.006-1.275,0-1.914a3.711,3.711,0,0,1,3.831-3.825h1.379v-4.464Zm5.247,20.915v2.941h5.985v-2.918h1.484v2.929h1.47c0-.864.062-1.706-.014-2.535a3.624,3.624,0,0,0-2.113-3.035c-.564.751-1.1,1.474-1.646,2.19a.772.772,0,0,1-1.33.093c-.277-.285-.509-.615-.8-.972-.377.4-.614.672-.867.925-.543.543-.962.51-1.424-.1-.532-.706-1.063-1.412-1.606-2.133a3.29,3.29,0,0,0-1.942,2.284,29.692,29.692,0,0,0-.28,3.281h1.576v-2.947Zm7.455-10.481c0-.829.041-1.606-.009-2.377a2.212,2.212,0,0,0-2.216-2.094q-2.262-.034-4.525,0a2.11,2.11,0,0,0-2.093,1.611,24.232,24.232,0,0,0-.166,2.751,2.351,2.351,0,0,0,1.544-2.116.726.726,0,0,1,.72-.756c.419-.012.666.243.781.7a1.6,1.6,0,0,0,.363.779,7.125,7.125,0,0,0,1.313.944C-805.635-4968.362-804.169-4968.563-802.678-4968.558Zm-6.362-.091c-.36.276-.68.5-.971.757a.543.543,0,0,0-.131.368c-.011.684-.026,1.369,0,2.052a3,3,0,0,0,2.633,2.873,3,3,0,0,0,3.122-1.874,6.88,6.88,0,0,0,.207-2.585A6.972,6.972,0,0,1-809.04-4968.649Zm-12.572-4.417h4.715v-4.72Zm9.954,6.008c-.513.024-1.059-.15-1.341.378a.914.914,0,0,0,.023.77c.3.5.831.336,1.318.332Zm9.007,1.485c.5,0,1.04.16,1.329-.358a.913.913,0,0,0-.008-.769c-.3-.515-.831-.338-1.321-.347Zm-4.934,4.528h-1.779l.814,1.063Zm1.846,1.049.786-1.061h-1.726Z" transform="translate(846.024 4999.944)" fill="#12263f"/>
      <path id="Trazado_197632" data-name="Trazado 197632" d="M-1055.9-5178.726a1.156,1.156,0,0,1,.893-.485,2.21,2.21,0,0,0,2.089-2.36,6.591,6.591,0,0,1,.918-3.787,6.022,6.022,0,0,1,6.287-2.691,5.978,5.978,0,0,1,4.669,4.876,11.864,11.864,0,0,1,.089,1.626,2.278,2.278,0,0,0,2.17,2.353c.786.075,1.057.656.608,1.307a6.065,6.065,0,0,1-3.808,2.395c.2.157.386.292.56.437a5.1,5.1,0,0,1,1.966,4.051c.01.964.005,1.929,0,2.894,0,.614-.264.874-.884.874q-6.583,0-13.166,0c-.642,0-.892-.258-.894-.91q0-1.4,0-2.8a5.129,5.129,0,0,1,2.18-4.272c.107-.081.212-.164.375-.291a6.033,6.033,0,0,1-4.053-2.651Zm8.978,5.752c-.326.354-.559.626-.811.879-.546.547-.962.517-1.423-.093-.533-.705-1.064-1.412-1.611-2.139a3.293,3.293,0,0,0-1.941,2.28,29.669,29.669,0,0,0-.282,3.287h1.6v-2.934h1.484v2.928h5.985v-2.923h1.5v2.933h1.451c0-.878.066-1.735-.015-2.58a3.612,3.612,0,0,0-2.106-2.993c-.57.76-1.115,1.5-1.672,2.223a.758.758,0,0,1-1.268.1C-1046.325-5172.287-1046.584-5172.6-1046.926-5172.974Zm-.013-9.187a3.9,3.9,0,0,1-2.982,1.491c0,.551-.024,1.078,0,1.6a3.006,3.006,0,0,0,2.714,2.85,2.9,2.9,0,0,0,3.089-2.105,15.138,15.138,0,0,0,.231-2.35A3.944,3.944,0,0,1-1046.939-5182.161Zm4.479.22a4.491,4.491,0,0,0-4.556-4.723,4.507,4.507,0,0,0-4.37,4.9c.342-.528.846-.412,1.315-.418a2.276,2.276,0,0,0,2.387-2.178c.048-.536.312-.817.762-.811s.683.281.738.837a2.144,2.144,0,0,0,1.414,1.96,7.327,7.327,0,0,0,1.276.2C-1043.152-5182.116-1042.816-5182.023-1042.46-5181.941Zm-8.342,4.991c-.765-1.188-.593-2.457-.656-3.692a4.055,4.055,0,0,1-2.246,2.683A4.454,4.454,0,0,0-1050.8-5176.95Zm7.769-.031a3.836,3.836,0,0,0,2.826-1,4.015,4.015,0,0,1-2.211-2.667C-1042.457-5179.4-1042.319-5178.127-1043.033-5176.981Zm-5.334,3.335.953-1.028h-1.724Zm3.629-1.024h-1.617l.854,1.027Z" transform="translate(1055.904 5188.167)" fill="#12263f"/>
      <path id="Trazado_197633" data-name="Trazado 197633" d="M-861.018-5174.048c-.446-.574-.446-.753.084-1.4-.628-.545-.369-1.287-.371-1.958a1.14,1.14,0,0,0-.6-1.14,5.143,5.143,0,0,1-2.137-6.021,5.247,5.247,0,0,1,5.456-3.574,5.241,5.241,0,0,1,4.655,4.294,5.172,5.172,0,0,1-2.548,5.457.633.633,0,0,0-.361.658c.011,1.944.02,3.889-.01,5.833a1.49,1.49,0,0,1-.352.854,16.836,16.836,0,0,1-1.277,1.295.747.747,0,0,1-1.185,0c-.47-.454-.944-.905-1.378-1.392a1.221,1.221,0,0,1-.262-.661,6.122,6.122,0,0,1,0-1.258A6.113,6.113,0,0,1-861.018-5174.048Zm1.553-.647c.551.674.526.9-.07,1.532a1.291,1.291,0,0,0-.287.586c-.144.644.368.908.73,1.244a1.553,1.553,0,0,0,.779-1.527c-.054-1.865-.006-3.733-.027-5.6a.961.961,0,0,1,.676-1.025,3.687,3.687,0,0,0,2.234-4.163,3.716,3.716,0,0,0-4.352-2.925,3.716,3.716,0,0,0-2.981,4.188,3.646,3.646,0,0,0,2.321,2.923.866.866,0,0,1,.617.923c-.022.529.01,1.059-.011,1.587a.88.88,0,0,0,.3.733C-858.922-5175.626-858.919-5175.391-859.465-5174.7Z" transform="translate(882.252 5188.159)" fill="#12263f"/>
      <path id="Trazado_197634" data-name="Trazado 197634" d="M-1001.106-4941.1h11.143v1.485h-11.692c-.765,0-.985-.225-.985-1.007q0-6.489,0-12.978v-.609l-1.619,1.712-1.13-1.091c1.007-1.018,1.993-2.032,3-3.022a.676.676,0,0,1,1.009.019c1,.979,1.979,1.977,2.982,2.983l-1.082.962-1.5-1.567-.125.083Z" transform="translate(1010.117 4978.478)" fill="#12263f"/>
      <path id="Trazado_197635" data-name="Trazado 197635" d="M-731.475-5100.252l1.1-1.01,1.532,1.64.11-.086v-7.022h-7.422v-1.5h8c.7,0,.94.241.94.958q0,3.524,0,7.049v.626l1.606-1.783,1.133,1.136c-1.009,1.024-2,2.05-3.021,3.053a.629.629,0,0,1-.9.021C-729.436-5098.177-730.442-5099.212-731.475-5100.252Z" transform="translate(766.086 5115.716)" fill="#12263f"/>
      <path id="Trazado_197636" data-name="Trazado 197636" d="M-771.559-4876.372v1.423h-4.435v-1.423Z" transform="translate(802.192 4905.554)" fill="#12263f"/>
      <path id="Trazado_197637" data-name="Trazado 197637" d="M-771.7-4852.384v1.433h-4.438v-1.433Z" transform="translate(802.32 4883.812)" fill="#12263f"/>
      <path id="Trazado_197638" data-name="Trazado 197638" d="M-776.178-4827.048v-1.425h4.437v1.425Z" transform="translate(802.359 4862.139)" fill="#12263f"/>
      <path id="Trazado_197639" data-name="Trazado 197639" d="M-799.914-4876.58h1.417v1.449h-1.417Z" transform="translate(823.873 4905.743)" fill="#12263f"/>
      <path id="Trazado_197640" data-name="Trazado 197640" d="M-798.582-4852.471v1.434h-1.442v-1.434Z" transform="translate(823.973 4883.891)" fill="#12263f"/>
      <path id="Trazado_197641" data-name="Trazado 197641" d="M-798.582-4828.519v1.435h-1.442v-1.435Z" transform="translate(823.973 4862.18)" fill="#12263f"/>
      <path id="Trazado_197642" data-name="Trazado 197642" d="M-816.124-5162.388v-1.425h1.45v1.425Z" transform="translate(838.566 5166.092)" fill="#12263f"/>
    </g>
  </g>
</svg>
