<svg xmlns="http://www.w3.org/2000/svg" width="49.969" height="49.92" viewBox="0 0 49.969 49.92">
  <g id="LeNubM" transform="translate(921.787 6543.137)">
    <g id="Grupo_155570" data-name="Grupo 155570" transform="translate(-921.787 -6543.137)">
      <path id="Trazado_197665" data-name="Trazado 197665" d="M-847.529-6441.168c0,2.159-.022,4.319.012,6.478a1.349,1.349,0,0,1-.807,1.387q-6.881,3.625-13.732,7.308a1.472,1.472,0,0,1-1.7-.039c-4.558-2.909-9.147-5.769-13.693-8.7a1.841,1.841,0,0,1-.728-1.31q-.082-5.928.009-11.857a1.861,1.861,0,0,1,.829-1.341q6.775-3.706,13.628-7.265a1.987,1.987,0,0,1,1.6,0c4.608,2.454,9.177,4.984,13.769,7.469a1.461,1.461,0,0,1,.826,1.5C-847.551-6445.414-847.528-6443.291-847.529-6441.168Zm-10.1-.991c-1.349.737-2.477,1.406-3.655,1.975a1.426,1.426,0,0,0-.925,1.515c.049,2.815.019,5.631.019,8.447v2.468c.289-.112.421-.149.54-.212,3.994-2.124,7.993-4.235,11.964-6.4a1.464,1.464,0,0,0,.6-1.088c.045-3.509.027-7.02.021-10.53a6.241,6.241,0,0,0-.107-.775c-.97.522-1.871.93-2.677,1.478a1.776,1.776,0,0,0-.694,1.153c-.1,1.052.043,2.126-.067,3.175a1.972,1.972,0,0,1-.752,1.27,25.571,25.571,0,0,1-2.864,1.6c-.927.473-1.376.2-1.4-.832S-857.625-6440.95-857.625-6442.159Zm-6.19,14.263a2.066,2.066,0,0,0,.148-.443c.01-3.583.036-7.165-.014-10.747a1.542,1.542,0,0,0-.749-1.026c-3.792-2.187-7.607-4.332-11.42-6.482a8.333,8.333,0,0,0-.845-.354c0,2.989.106,5.842-.04,8.681a3.3,3.3,0,0,0,1.875,3.467C-871.149-6432.628-867.556-6430.254-863.815-6427.9Zm-12-20.449c4.3,2.438,8.426,4.784,12.564,7.108a.855.855,0,0,0,.7.008c1.314-.69,2.609-1.419,3.924-2.145-.1-.139-.134-.213-.187-.242q-6.161-3.355-12.333-6.689a1.128,1.128,0,0,0-.895-.05C-873.249-6449.756-874.425-6449.094-875.815-6448.345Zm25.844.177-12.188-6.661a1.334,1.334,0,0,0-.385-.2,1.284,1.284,0,0,0-.7-.006c-1,.5-1.978,1.043-3.081,1.636.476.279.814.489,1.161.679,3.006,1.648,6.136,3.11,8.983,5,2.157,1.43,3.925,1.4,5.833-.146C-850.265-6447.94-850.178-6448.006-849.971-6448.168Zm-6.134,8.112c1.962-.627,2-.68,2-2.475a11.044,11.044,0,0,1,.011-1.426,1.285,1.285,0,0,0-.847-1.443c-3.893-2.095-7.8-4.165-11.616-6.4a2.473,2.473,0,0,0-3.318.4c.421.241.828.483,1.244.708,3.821,2.072,7.635,4.158,11.473,6.2a1.664,1.664,0,0,1,1.065,1.805C-856.167-6441.826-856.105-6440.953-856.105-6440.056Z" transform="translate(887.788 6475.663)" fill="#12263f"/>
      <path id="Trazado_197666" data-name="Trazado 197666" d="M-863.5-6525.584c-4.8,0-9.591-.028-14.385.021-1.092.011-1.394-.4-1.387-1.419.03-4.905.011-9.812.016-14.717,0-1.272.171-1.435,1.473-1.436q14.221,0,28.442,0c1.286,0,1.424.147,1.424,1.477q0,7.3,0,14.607c0,1.389-.084,1.465-1.526,1.465Q-856.472-6525.582-863.5-6525.584Zm-9.807-1.525c6.315,0,12.607.006,18.9-.026a1,1,0,0,0,.713-.59,5.235,5.235,0,0,1,3.634-3.638,1.009,1.009,0,0,0,.588-.717c.052-1.679.027-3.361.027-5.1a5.507,5.507,0,0,1-4.438-4.389h-19.454a5.5,5.5,0,0,1-4.408,4.429c0,1.744-.016,3.426.019,5.107a.829.829,0,0,0,.413.643A5.4,5.4,0,0,1-873.307-6527.109Zm-4.35-14.485v2.809a3.74,3.74,0,0,0,2.735-2.809Zm25.493-.029a3.009,3.009,0,0,0,2.652,2.689v-2.636c-.239-.021-.414-.049-.59-.051C-850.759-6541.627-851.415-6541.624-852.164-6541.624Zm2.679,11.8a2.936,2.936,0,0,0-2.6,2.644h2.6Zm-28.2,2.662h2.655a2.831,2.831,0,0,0-2.655-2.54Z" transform="translate(888.61 6543.136)" fill="#12263f"/>
      <path id="Trazado_197667" data-name="Trazado 197667" d="M-727.851-6487.556a17.356,17.356,0,0,1-.323,2.293c-.086.309-.486.53-.744.791-.247-.3-.718-.622-.7-.912.076-1.421.262-2.839.45-4.251.094-.7.589-.887,1.217-.715,1.267.347,2.543.673,3.778,1.113.292.1.437.622.65.949-.352.165-.71.476-1.054.46a9.852,9.852,0,0,1-1.865-.464,23.922,23.922,0,0,1,3.475,8.921,23.973,23.973,0,0,1-5.884,20.561c-.369.417-.776,1.057-1.436.464-.641-.576-.114-1.048.284-1.478a21.185,21.185,0,0,0,4.549-7.557,22.638,22.638,0,0,0-1.88-19.43C-727.443-6486.994-727.578-6487.162-727.851-6487.556Z" transform="translate(772.578 6501.989)" fill="#12263f"/>
      <path id="Trazado_197668" data-name="Trazado 197668" d="M-916.45-6467.032a15.585,15.585,0,0,1,.3-2.474c.1-.349.583-.587.893-.875.194.34.569.692.55,1.02-.086,1.458-.27,2.91-.451,4.361-.089.712-.574.9-1.2.707-1.287-.405-2.584-.8-3.831-1.305-.3-.124-.427-.685-.634-1.045a3.212,3.212,0,0,1,1.116-.322,7.26,7.26,0,0,1,1.48.439,59.276,59.276,0,0,1-2.426-5.907c-2.476-8.4-.876-16.028,4.674-22.815.139-.169.273-.432.446-.465a1.7,1.7,0,0,1,1.067.042c.145.082.147.688.006.943a10.228,10.228,0,0,1-1.02,1.285,22.622,22.622,0,0,0-1.667,25.33C-916.986-6467.838-916.8-6467.574-916.45-6467.032Z" transform="translate(921.787 6506.178)" fill="#12263f"/>
      <path id="Trazado_197669" data-name="Trazado 197669" d="M-863.51-6377.963c.261.126.53.236.78.38q3.831,2.218,7.656,4.447c.472.275,1.063.56.69,1.249-.415.768-.964.355-1.476.057-2.582-1.5-5.176-2.986-7.737-4.524a1.608,1.608,0,0,1-.616-1c-.048-.253.253-.571.4-.86Z" transform="translate(876.862 6414.436)" fill="#12263f"/>
      <path id="Trazado_197670" data-name="Trazado 197670" d="M-854.4-6384.894c-.346-.15-.588-.228-.8-.352-2.615-1.514-5.239-3.013-7.823-4.579-.332-.2-.715-.85-.616-1.13.251-.708.86-.458,1.361-.167,2.613,1.518,5.232,3.025,7.822,4.582a1.72,1.72,0,0,1,.642.994C-853.776-6385.39-854.188-6385.118-854.4-6384.894Z" transform="translate(876.422 6424.732)" fill="#12263f"/>
      <path id="Trazado_197671" data-name="Trazado 197671" d="M-831.443-6533.368a6.656,6.656,0,0,1,6.588,6.682,6.681,6.681,0,0,1-6.661,6.626,6.683,6.683,0,0,1-6.648-6.646A6.661,6.661,0,0,1-831.443-6533.368Zm-.039,1.525a5.157,5.157,0,0,0-5.17,5.149,5.228,5.228,0,0,0,5.116,5.124,5.212,5.212,0,0,0,5.159-5.18A5.135,5.135,0,0,0-831.482-6531.843Z" transform="translate(856.528 6535.513)" fill="#12263f"/>
      <path id="Trazado_197672" data-name="Trazado 197672" d="M-816.689-6513.091l-2.649-1.432.575-.84,1.658.776c.162-1.059.348-1.848-.907-2.275a1.955,1.955,0,0,1-1.021-1.554c.039-.593.644-1.2,1.114-1.694a3.857,3.857,0,0,1,1.165-.59l2.263,1.046-.494.851-1.336-.469c-.221,1.006-.363,1.814.911,2.145a1.51,1.51,0,0,1,1.117,1.677,1.841,1.841,0,0,1-1.267,1.734C-815.968-6513.533-816.347-6513.283-816.689-6513.091Zm.3-1.662.342.184c.2-.309.585-.633.56-.922s-.461-.534-.9-.99Zm-.912-2.934.224-.13v-1.39c-.433.161-.784.437-.785.715S-817.508-6517.955-817.306-6517.687Z" transform="translate(841.836 6525.628)" fill="#12263f"/>
    </g>
  </g>
</svg>
