<svg xmlns="http://www.w3.org/2000/svg" width="49.634" height="37.633" viewBox="0 0 49.634 37.633">
  <g id="_180Pao" data-name="180Pao" transform="translate(938.45 6783.917)">
    <g id="Grupo_155571" data-name="Grupo 155571" transform="translate(-938.45 -6783.917)">
      <path id="Trazado_197673" data-name="Trazado 197673" d="M-907.115-6752.181H-919.7c-1.749,4.537-3.691,6.106-7.24,5.875-3.118-.2-5.176-2.281-6.1-6.2-.845-.063-1.719-.061-2.567-.205-1.827-.311-2.6-1.028-2.773-2.865a25.33,25.33,0,0,1,.073-4.365c.195-2.394.48-4.78.757-7.166a4.208,4.208,0,0,1,.4-1.491c1.57-2.909,3.193-5.791,4.779-8.691a2.513,2.513,0,0,1,2.6-1.464c2.538.114,5.084.028,7.627.037,1.491.005,2.088.6,2.093,2.1.014,4.493.01,8.986.014,13.479,0,.41,0,.82,0,1.309h1.732c.021-.256.064-.553.066-.851q.069-9.3.13-18.6c.014-1.874.794-2.64,2.694-2.641q11.913,0,23.826,0c2,0,2.782.78,2.782,2.777q0,12.7,0,25.393c0,2.3-1.011,3.322-3.287,3.334a3.1,3.1,0,0,1-.522,0c-.956-.158-1.335.179-1.553,1.2a6.352,6.352,0,0,1-6.107,4.93,6.537,6.537,0,0,1-6.5-4.6C-906.907-6751.283-906.991-6751.69-907.115-6752.181Zm-12.7-1.923c4.107,0,8.248.01,12.388-.028.217,0,.528-.38.631-.647a6.631,6.631,0,0,1,6.195-4.625c2.835-.062,5.117,1.579,6.363,4.535a.967.967,0,0,0,.606.544,6.45,6.45,0,0,0,1.975-.017c.354-.074.884-.5.9-.8.091-1.514.042-3.037.042-4.667H-892.2q-14-.033-28-.07c-1.628,0-1.737-.124-1.736-1.716q0-6.688.014-13.376c0-.58,0-1.16,0-1.838-2.811,0-5.451-.021-8.089.03-.279.005-.642.381-.809.675-1.533,2.691-3.033,5.4-4.536,8.109a1.862,1.862,0,0,0-.266.675c-.347,3.463-.754,6.924-.982,10.4-.133,2.029.352,2.352,2.428,2.479a1.577,1.577,0,0,0,1.877-1.1,6.076,6.076,0,0,1,5.736-3.842,6.293,6.293,0,0,1,5.938,3.393A17.508,17.508,0,0,1-919.815-6754.1Zm29.064-7.673v-9.068h-11.914v9.068Zm-11.906-20.237v9.125h11.952c0-2.906.017-5.752-.041-8.6,0-.177-.589-.486-.908-.492-2.577-.045-5.155-.033-7.733-.037C-900.458-6782.016-901.527-6782.014-902.658-6782.014Zm-13.612,20.223H-904.7v-9.046H-916.27Zm.048-11.1h11.532v-9.115c-3.7,0-7.348-.009-10.992.026-.182,0-.514.376-.517.582C-916.233-6778.588-916.222-6775.777-916.222-6772.891Zm-10.121,15.4a4.633,4.633,0,0,0-4.706,4.59,4.639,4.639,0,0,0,4.581,4.712,4.662,4.662,0,0,0,4.774-4.638A4.675,4.675,0,0,0-926.343-6757.486Zm25.806,9.3a4.6,4.6,0,0,0,4.689-4.587,4.612,4.612,0,0,0-4.564-4.714,4.607,4.607,0,0,0-4.742,4.641A4.6,4.6,0,0,0-900.538-6748.183Z" transform="translate(938.45 6783.917)" fill="#12263f"/>
      <path id="Trazado_197674" data-name="Trazado 197674" d="M-907.785-6735.37c-1.251,0-2.5.018-3.754-.006-1.018-.02-1.45-.6-.99-1.5.881-1.731,1.85-3.42,2.857-5.081a1.549,1.549,0,0,1,1.1-.6c1.491-.067,2.988-.03,4.482-.018a1.326,1.326,0,0,1,1.455,1.425c.045,1.563.045,3.128.034,4.691a.981.981,0,0,1-1.119,1.076c-1.356-.008-2.711,0-4.067,0Zm3.167-1.95v-3.354c-1.108,0-2.111-.019-3.113.013a.968.968,0,0,0-.706.287c-.595.955-1.13,1.947-1.757,3.054Z" transform="translate(918.094 6751.238)" fill="#12263f"/>
      <path id="Trazado_197675" data-name="Trazado 197675" d="M-887.2-6643.347a1.685,1.685,0,0,1,1.7,1.738,1.7,1.7,0,0,1-1.783,1.656,1.707,1.707,0,0,1-1.645-1.692A1.684,1.684,0,0,1-887.2-6643.347Z" transform="translate(899.289 6672.738)" fill="#12263f"/>
      <path id="Trazado_197676" data-name="Trazado 197676" d="M-761.7-6641.643a1.662,1.662,0,0,1-1.738,1.688,1.675,1.675,0,0,1-1.665-1.765,1.654,1.654,0,0,1,1.687-1.632A1.659,1.659,0,0,1-761.7-6641.643Z" transform="translate(801.345 6672.742)" fill="#12263f"/>
    </g>
  </g>
</svg>
