<svg xmlns="http://www.w3.org/2000/svg" width="43.156" height="43.156" viewBox="0 0 43.156 43.156">
  <g id="Sdo85C.tif" transform="translate(1077.053 7049.949)">
    <g id="Grupo_155572" data-name="Grupo 155572" transform="translate(-1077.053 -7049.949)">
      <path id="Trazado_197677" data-name="Trazado 197677" d="M-1045.7-7049.949c.152.064.307.123.455.2a2.231,2.231,0,0,1,1.287,2.186q0,6.511,0,13.021c0,.167.017.381-.074.489a1.4,1.4,0,0,1-.622.47.577.577,0,0,1-.689-.42,2.085,2.085,0,0,1-.082-.662q-.007-6.383,0-12.768c0-.86-.205-1.066-1.066-1.066h-28.023c-.875,0-1.1.225-1.1,1.093q0,19.047,0,38.094c0,.864.23,1.091,1.1,1.091h28.023c.85,0,1.063-.215,1.063-1.07q0-3.2,0-6.4c0-.112-.005-.226,0-.337.032-.5.311-.809.731-.812s.7.3.738.806c0,.042,0,.084,0,.126,0,2.275.012,4.551-.005,6.827a2.164,2.164,0,0,1-1.711,2.25,2.6,2.6,0,0,1-.585.048q-14.264,0-28.528,0a2.139,2.139,0,0,1-2.267-2.272q0-19.3,0-38.6a2.141,2.141,0,0,1,1.558-2.194.6.6,0,0,0,.126-.088Z" transform="translate(1077.053 7049.949)" fill="#12263f"/>
      <path id="Trazado_197678" data-name="Trazado 197678" d="M-846.706-6945.106c-.172.365-.353.727-.511,1.1a.388.388,0,0,0,0,.324.827.827,0,0,1,.024,1.048c-.557.957-1.106,1.919-1.689,2.931l.462.273a2.175,2.175,0,0,1,.873,3.164c-.893,1.574-1.8,3.138-2.71,4.7-.29.5-.679.651-1.069.43s-.465-.639-.18-1.137q1.264-2.21,2.54-4.413c.563-.978.459-1.277-.627-1.75-.077.125-.159.252-.235.383-1.877,3.256-3.722,6.533-5.65,9.759a34.008,34.008,0,0,1-2.167,2.838c-.5.671-1,1.348-1.457,2.055a2.334,2.334,0,0,1-2.271,1.226.723.723,0,0,0-.513.239c-.466.543-.895,1.118-1.342,1.677a1.459,1.459,0,0,1-2.65-.386c-.117-.281-.227-.565-.364-.906-.1.141-.175.234-.241.33a1.481,1.481,0,0,1-1.665.69,1.511,1.511,0,0,1-1.062-1.459c-.053-.728-.118-1.455-.182-2.182-.007-.08-.034-.158-.077-.35-.083.22-.133.337-.173.458-.505,1.515-1,3.032-1.516,4.544-.2.6-.69.777-1.141.439a.718.718,0,0,1-.242-.868c.578-1.756,1.155-3.512,1.755-5.26a1.432,1.432,0,0,1,1.526-.945,1.379,1.379,0,0,1,1.239,1.189c.116.818.161,1.646.236,2.471.01.108.018.217.034.417.153-.2.255-.334.361-.468a1.412,1.412,0,0,1,2.388.2c.205.379.349.792.544,1.242.518-.634,1.018-1.231,1.495-1.847.053-.068-.005-.254-.056-.365a2.039,2.039,0,0,1-.006-1.944,39.388,39.388,0,0,0,2.153-5.151,5.4,5.4,0,0,1,.32-.683q2.824-4.905,5.656-9.805c.084-.145.161-.293.24-.438-.954-.679-1.1-.919-.858-1.359.236-.421.544-.414,1.624.052.514-.876,1.034-1.754,1.545-2.638.259-.448.491-.9,1.151-.764.08.017.238-.2.313-.334a2.29,2.29,0,0,1,1.512-1.243,2.156,2.156,0,0,1,2.55,1.413c.033.089.076.174.115.261Zm-6.643,4.477-5.745,9.955,2.476,1.43,5.743-9.952Zm.728-1.257,2.474,1.431,1.431-2.474-2.473-1.431Zm-4.829,13.835-2.248-1.3-1.013,2.712,1.412.821Zm8.835-16.5c.239-.428.635-.8.348-1.285a.887.887,0,0,0-.642-.356c-.583-.017-.661.54-.935.933Zm-12.7,19.273c-.221.433-.62.8-.333,1.279a.881.881,0,0,0,.671.366c.544-.031.658-.544.886-.946Z" transform="translate(889.862 6956.317)" fill="#12263f"/>
      <path id="Trazado_197679" data-name="Trazado 197679" d="M-999-6997.482v1.412h.524q8.509,0,17.019,0a2.356,2.356,0,0,1,.663.078.64.64,0,0,1,.461.679.653.653,0,0,1-.5.651,2.231,2.231,0,0,1-.54.061q-9.015,0-18.03,0c-.829,0-1.057-.225-1.059-1.041,0-.8-.006-1.6,0-2.4.006-.635.268-.9.9-.9q9.162,0,18.325,0c.679,0,1.085.443.85.955a1.127,1.127,0,0,1-.535.458,1.43,1.43,0,0,1-.581.045q-8.467,0-16.935,0Z" transform="translate(1006.936 7003.25)" fill="#12263f"/>
      <path id="Trazado_197680" data-name="Trazado 197680" d="M-1037.332-6717.641a6.344,6.344,0,0,1,3.848,1.095c.453.309.574.682.343,1.065s-.66.455-1.134.144a4.628,4.628,0,0,0-4.405-.541,4.657,4.657,0,0,0-2.908,5.1,4.666,4.666,0,0,0,4.107,3.865,4.654,4.654,0,0,0,5.166-4.5c.03-.629.483-1,.985-.8a.745.745,0,0,1,.455.778,6.133,6.133,0,0,1-4.986,5.911,6.122,6.122,0,0,1-7.076-4.638C-1043.848-6713.967-1040.882-6717.678-1037.332-6717.641Z" transform="translate(1045.971 6745.707)" fill="#12263f"/>
      <path id="Trazado_197681" data-name="Trazado 197681" d="M-932.168-6871.206q3.833,0,7.666,0c.61,0,.938.256.943.719a.676.676,0,0,1-.588.7,2.74,2.74,0,0,1-.461.03q-7.561,0-15.121,0c-.723,0-1.069-.232-1.077-.714-.009-.5.351-.742,1.1-.742Z" transform="translate(952.314 6886.302)" fill="#12263f"/>
      <path id="Trazado_197682" data-name="Trazado 197682" d="M-967.051-6929.385h-6.907c-.625-.006-.987-.276-.986-.737s.361-.734.988-.735q6.928,0,13.856,0c.166,0,.381-.018.488.074a1.417,1.417,0,0,1,.467.624.576.576,0,0,1-.422.688,1.889,1.889,0,0,1-.619.082Q-963.619-6929.38-967.051-6929.385Z" transform="translate(983.568 6940.917)" fill="#12263f"/>
      <path id="Trazado_197683" data-name="Trazado 197683" d="M-1009.406-6820.187h6.821c.714,0,1.064.238,1.073.726s-.352.749-1.09.749h-13.643c-.056,0-.112,0-.168,0-.578-.018-.894-.272-.9-.724-.006-.471.319-.747.917-.749Q-1012.9-6820.193-1009.406-6820.187Z" transform="translate(1022.359 6839.593)" fill="#12263f"/>
      <path id="Trazado_197684" data-name="Trazado 197684" d="M-1013.008-6776.007c-1.138,0-2.276,0-3.413,0-.592,0-.9-.246-.9-.705-.006-.475.314-.733.922-.734q3.434,0,6.869,0a.729.729,0,0,1,.8.548.644.644,0,0,1-.371.805,1.345,1.345,0,0,1-.53.084C-1010.76-6776-1011.884-6776.007-1013.008-6776.007Z" transform="translate(1022.367 6800.463)" fill="#12263f"/>
      <path id="Trazado_197685" data-name="Trazado 197685" d="M-1002.621-6667.561c.827-.834,1.611-1.635,2.407-2.424.489-.484,1.153-.375,1.281.228a.922.922,0,0,1-.2.715q-1.211,1.287-2.494,2.507a1.388,1.388,0,0,1-1.978,0c-.525-.485-1.027-1-1.522-1.515a.732.732,0,0,1-.025-1.056.716.716,0,0,1,1.052.043C-1003.6-6668.587-1003.133-6668.086-1002.621-6667.561Z" transform="translate(1011.416 6702.353)" fill="#12263f"/>
      <path id="Trazado_197686" data-name="Trazado 197686" d="M-809.73-6820.207c.772,0,1.544-.008,2.315,0,.565.008.883.29.876.747a.653.653,0,0,1-.485.66,1.407,1.407,0,0,1-.413.063q-2.316.005-4.631,0a1.676,1.676,0,0,1-.414-.059.648.648,0,0,1-.506-.645.651.651,0,0,1,.489-.7,1.906,1.906,0,0,1,.5-.066C-811.246-6820.211-810.488-6820.207-809.73-6820.207Z" transform="translate(835.292 6839.613)" fill="#12263f"/>
      <path id="Trazado_197687" data-name="Trazado 197687" d="M-895.09-6776.02c-.786,0-1.572.006-2.358,0-.529,0-.86-.291-.856-.718s.342-.718.866-.718q2.379-.007,4.759,0c.524,0,.854.292.85.728s-.319.705-.86.709C-893.489-6776.014-894.289-6776.019-895.09-6776.02Z" transform="translate(913.401 6800.475)" fill="#12263f"/>
    </g>
  </g>
</svg>
