<svg xmlns="http://www.w3.org/2000/svg" width="105" height="103" viewBox="0 0 105 103">
  <g id="Grupo_1070111" data-name="Grupo 1070111" transform="translate(-850 -3080.284)">
    <rect id="Rectángulo_374322" data-name="Rectángulo 374322" width="105" height="103" rx="6" transform="translate(850 3080.284)" fill="#9bb2b9"/>
    <g id="obediente_2_" data-name="obediente (2)" transform="translate(849.526 3091.517)">
      <g id="Grupo_1069215" data-name="Grupo 1069215" transform="translate(31.002 1.18)">
        <path id="Trazado_815955" data-name="Trazado 815955" d="M167.193,7.5H117.1a.787.787,0,0,0-.786.786V30.092h5.158a3.854,3.854,0,0,1,.269,7.7v4.782h0a1.572,1.572,0,0,1,1.334,1.553V53.89a1.572,1.572,0,0,1-1.334,1.553h0v4.782a3.855,3.855,0,0,1-.269,7.7h-5.158V74.38H127.17a1.573,1.573,0,0,1,1.573,1.573v3.13s0,0,0,0h1.2a1.573,1.573,0,0,1,1.573,1.573v5.017h36.465V8.286A.787.787,0,0,0,167.193,7.5Z" transform="translate(-116.315 -7.5)" fill="#fff3de"/>
      </g>
      <g id="Grupo_1069216" data-name="Grupo 1069216" transform="translate(31.002 1.18)">
        <path id="Trazado_815956" data-name="Trazado 815956" d="M121.473,30.092c.047,0,.094,0,.14,0V8.286A.787.787,0,0,1,122.4,7.5h-5.3a.787.787,0,0,0-.786.786V30.092Z" transform="translate(-116.315 -7.5)" fill="#ffe5c2"/>
        <path id="Trazado_815957" data-name="Trazado 815957" d="M121.473,391.63h-5.158v6.455h5.3v-6.458C121.567,391.629,121.52,391.63,121.473,391.63Z" transform="translate(-116.315 -331.205)" fill="#ffe5c2"/>
      </g>
      <g id="Grupo_1069234" data-name="Grupo 1069234" transform="translate(16.258 23.772)">
        <g id="Grupo_1069217" data-name="Grupo 1069217" transform="translate(21.505 16.227)">
          <path id="Trazado_815958" data-name="Trazado 815958" d="M159.3,254.29h7.281v5.379H159.3Z" transform="translate(-159.296 -254.29)" fill="#883f2e"/>
          <path id="Trazado_815959" data-name="Trazado 815959" d="M237.5,254.29h10.4v5.379H237.5Z" transform="translate(-225.201 -254.29)" fill="#883f2e"/>
        </g>
        <g id="Grupo_1069218" data-name="Grupo 1069218" transform="translate(21.505 19.013)">
          <path id="Trazado_815960" data-name="Trazado 815960" d="M159.3,272h7.281v2.593H159.3Z" transform="translate(-159.296 -272)" fill="#6d3326"/>
          <path id="Trazado_815961" data-name="Trazado 815961" d="M237.5,272h10.4v2.593H237.5Z" transform="translate(-225.201 -272)" fill="#6d3326"/>
        </g>
        <g id="Grupo_1069219" data-name="Grupo 1069219" transform="translate(44.206 14.972)">
          <path id="Trazado_815962" data-name="Trazado 815962" d="M332.842,250.255A3.945,3.945,0,0,1,328.9,254.2H304.513a.9.9,0,0,1-.9-.9v-6.1a.9.9,0,0,1,.9-.9H328.9A3.945,3.945,0,0,1,332.842,250.255Z" transform="translate(-303.616 -246.31)" fill="#ca6e59"/>
        </g>
        <g id="Grupo_1069220" data-name="Grupo 1069220" transform="translate(44.206 14.972)">
          <path id="Trazado_815963" data-name="Trazado 815963" d="M308.977,250.823a.9.9,0,0,1-.9-.9V246.31h-3.568a.9.9,0,0,0-.9.9v6.1a.9.9,0,0,0,.9.9H328.9a3.945,3.945,0,0,0,3.9-3.377Z" transform="translate(-303.616 -246.31)" fill="#bb5d4c"/>
        </g>
        <g id="Grupo_1069221" data-name="Grupo 1069221" transform="translate(28.786 14.972)">
          <path id="Trazado_815964" data-name="Trazado 815964" d="M210.605,247.1v6.316a.787.787,0,0,1-.786.786h-3.447a.787.787,0,0,1-.786-.786V247.1a.787.787,0,0,1,.786-.786h3.447A.786.786,0,0,1,210.605,247.1Z" transform="translate(-205.585 -246.311)" fill="#ca6e59"/>
        </g>
        <g id="Grupo_1069222" data-name="Grupo 1069222" transform="translate(28.786 14.972)">
          <path id="Trazado_815965" data-name="Trazado 815965" d="M207.865,253.414V247.1a.787.787,0,0,1,.786-.786h-2.281a.787.787,0,0,0-.786.786v6.316a.787.787,0,0,0,.786.786h2.281A.786.786,0,0,1,207.865,253.414Z" transform="translate(-205.585 -246.311)" fill="#bb5d4c"/>
        </g>
        <g id="Grupo_1069223" data-name="Grupo 1069223" transform="translate(9.772 7.7)">
          <path id="Trazado_815966" data-name="Trazado 815966" d="M94.863,312.317H84.942a1.584,1.584,0,0,1-.239-.02v4.782c.089-.006.178-.01.269-.01h9.862c.09,0,.18,0,.269.01V312.3A1.56,1.56,0,0,1,94.863,312.317Z" transform="translate(-84.703 -294.645)" fill="#883f2e"/>
          <path id="Trazado_815967" data-name="Trazado 815967" d="M84.942,312.317a1.584,1.584,0,0,1-.239-.02v4.782c.089-.006.178-.01.269-.01h3.692v-4.752H84.942Z" transform="translate(-84.703 -294.645)" fill="#6d3326"/>
          <path id="Trazado_815968" data-name="Trazado 815968" d="M84.942,204.841h9.921a1.582,1.582,0,0,1,.239.02v-4.782c-.089.006-.179.01-.269.01H84.972c-.09,0-.18,0-.269-.01v4.782A1.581,1.581,0,0,1,84.942,204.841Z" transform="translate(-84.703 -200.079)" fill="#883f2e"/>
          <path id="Trazado_815969" data-name="Trazado 815969" d="M84.942,204.84h3.722v-4.752H84.972c-.09,0-.18,0-.269-.01v4.782A1.6,1.6,0,0,1,84.942,204.84Z" transform="translate(-84.703 -200.078)" fill="#6d3326"/>
        </g>
        <g id="Grupo_1069224" data-name="Grupo 1069224" transform="translate(8.438 12.462)">
          <path id="Trazado_815970" data-name="Trazado 815970" d="M89.292,231.925v9.764a1.573,1.573,0,0,1-1.573,1.573H77.8a1.573,1.573,0,0,1-1.573-1.573v-9.764a1.573,1.573,0,0,1,1.573-1.573h9.921a1.573,1.573,0,0,1,1.573,1.573Z" transform="translate(-76.225 -230.352)" fill="#ca6e59"/>
        </g>
        <g id="Grupo_1069225" data-name="Grupo 1069225" transform="translate(8.438 12.462)">
          <path id="Trazado_815971" data-name="Trazado 815971" d="M81.538,241.689v-9.764a1.573,1.573,0,0,1,1.573-1.573H77.8a1.573,1.573,0,0,0-1.573,1.573v9.764a1.573,1.573,0,0,0,1.573,1.573h5.313A1.573,1.573,0,0,1,81.538,241.689Z" transform="translate(-76.225 -230.352)" fill="#bb5d4c"/>
        </g>
        <g id="Grupo_1069228" data-name="Grupo 1069228" transform="translate(0 44.288)">
          <path id="Trazado_815972" data-name="Trazado 815972" d="M64.588,437.549a1.609,1.609,0,0,0,.008-.161v-3.13a1.573,1.573,0,0,0-1.573-1.573H41.768a1.573,1.573,0,0,0-1.573,1.573v3.13a1.609,1.609,0,0,0,.008.161Z" transform="translate(-37.424 -432.685)" fill="#ca6e59"/>
          <path id="Trazado_815973" data-name="Trazado 815973" d="M45.521,437.549a1.61,1.61,0,0,1-.008-.161v-3.13a1.573,1.573,0,0,1,1.573-1.573H41.768a1.573,1.573,0,0,0-1.573,1.573v3.13a1.61,1.61,0,0,0,.008.161Z" transform="translate(-37.424 -432.685)" fill="#bb5d4c"/>
          <g id="Grupo_1069226" data-name="Grupo 1069226" transform="translate(0 4.707)">
            <path id="Trazado_815974" data-name="Trazado 815974" d="M52.522,469.2H23.364a.787.787,0,0,1-.786-.786v-4.23a1.573,1.573,0,0,1,1.573-1.573h26.8a1.573,1.573,0,0,1,1.573,1.573Z" transform="translate(-22.578 -462.608)" fill="#883f2e"/>
          </g>
          <g id="Grupo_1069227" data-name="Grupo 1069227" transform="translate(0 4.707)">
            <path id="Trazado_815975" data-name="Trazado 815975" d="M27.835,468.411v-4.23a1.573,1.573,0,0,1,1.573-1.573H24.151a1.573,1.573,0,0,0-1.573,1.573v4.23a.787.787,0,0,0,.786.786h5.257A.787.787,0,0,1,27.835,468.411Z" transform="translate(-22.578 -462.608)" fill="#6d3326"/>
          </g>
        </g>
        <g id="Grupo_1069233" data-name="Grupo 1069233" transform="translate(6.186)">
          <g id="Grupo_1069229" data-name="Grupo 1069229" transform="translate(0 30.123)">
            <path id="Trazado_815976" data-name="Trazado 815976" d="M79.477,346.488a3.855,3.855,0,0,1-3.855,3.855H65.76a3.855,3.855,0,0,1,0-7.71h9.862A3.855,3.855,0,0,1,79.477,346.488Z" transform="translate(-61.905 -342.633)" fill="#ca6e59"/>
          </g>
          <g id="Grupo_1069230" data-name="Grupo 1069230" transform="translate(0 30.123)">
            <path id="Trazado_815977" data-name="Trazado 815977" d="M67.156,346.488a3.855,3.855,0,0,1,3.855-3.855H65.76a3.855,3.855,0,0,0,0,7.71h5.251A3.855,3.855,0,0,1,67.156,346.488Z" transform="translate(-61.905 -342.633)" fill="#bb5d4c"/>
          </g>
          <g id="Grupo_1069231" data-name="Grupo 1069231" transform="translate(0)">
            <path id="Trazado_815978" data-name="Trazado 815978" d="M79.477,154.983a3.855,3.855,0,0,1-3.855,3.855H65.76a3.855,3.855,0,0,1,0-7.71h9.862A3.855,3.855,0,0,1,79.477,154.983Z" transform="translate(-61.905 -151.128)" fill="#ca6e59"/>
          </g>
          <g id="Grupo_1069232" data-name="Grupo 1069232">
            <path id="Trazado_815979" data-name="Trazado 815979" d="M67.156,154.983a3.855,3.855,0,0,1,3.855-3.855H65.76a3.855,3.855,0,0,0,0,7.71h5.251A3.855,3.855,0,0,1,67.156,154.983Z" transform="translate(-61.905 -151.128)" fill="#bb5d4c"/>
          </g>
        </g>
      </g>
      <g id="Grupo_1069237" data-name="Grupo 1069237" transform="translate(45.797 8.511)">
        <g id="Grupo_1069235" data-name="Grupo 1069235" transform="translate(0)">
          <circle id="Elipse_9161" data-name="Elipse 9161" cx="11.037" cy="11.037" r="11.037" fill="#4fc123"/>
        </g>
        <g id="Grupo_1069236" data-name="Grupo 1069236" transform="translate(0)">
          <path id="Trazado_815980" data-name="Trazado 815980" d="M215.662,65.144a11.04,11.04,0,0,1,8.393-10.716,11.037,11.037,0,1,0,0,21.432A11.04,11.04,0,0,1,215.662,65.144Z" transform="translate(-210.372 -54.107)" fill="#47a920"/>
        </g>
      </g>
      <g id="Grupo_1069238" data-name="Grupo 1069238" transform="translate(15.078 0)">
        <path id="Trazado_815981" data-name="Trazado 815981" d="M85.746,37.564h-1.9V17.145a1.18,1.18,0,0,0-1.216-1.179,1.212,1.212,0,0,0-1.144,1.229V37.564H73.58a1.18,1.18,0,0,0,0,2.359H85.746a2.765,2.765,0,0,1,0,5.53h-24.1v-5.53h6.431a1.18,1.18,0,0,0,0-2.359H61.36a2.079,2.079,0,0,0-1.906,1.255H51.109a1.968,1.968,0,0,0-1.831-1.255H45.83A1.968,1.968,0,0,0,44,38.819H38.943V37.806a2.751,2.751,0,0,0-1.334-2.354v-3a5.034,5.034,0,0,0-1.449-9.856H32.182V2.359h49.3v9.28A1.18,1.18,0,0,0,82.7,12.819a1.212,1.212,0,0,0,1.144-1.229V1.966A1.966,1.966,0,0,0,81.88,0H31.788a1.966,1.966,0,0,0-1.966,1.966V22.592H26.3a5.034,5.034,0,0,0-1.449,9.856v3a2.751,2.751,0,0,0-1.334,2.354V47.57a2.751,2.751,0,0,0,1.334,2.354v3A5.035,5.035,0,0,0,26.3,62.784h3.524v4.1H20.6a2.756,2.756,0,0,0-2.753,2.753v1.954h-.018a2.756,2.756,0,0,0-2.753,2.753v4.23a1.968,1.968,0,0,0,1.966,1.966H81.88a1.966,1.966,0,0,0,1.966-1.966V47.813h1.9a5.124,5.124,0,0,0,0-10.249Zm-34.5,3.615h8.04V44.2h-8.04Zm-5.02-1.255h2.661v5.53H46.224Zm-7.281,1.255h4.922V44.2H38.943ZM23.623,27.627A2.678,2.678,0,0,1,26.3,24.952H36.16a2.675,2.675,0,0,1,0,5.351H26.3a2.678,2.678,0,0,1-2.675-2.675Zm2.646,20.337a.394.394,0,0,1-.393-.393V37.806a.394.394,0,0,1,.393-.393H36.19a.394.394,0,0,1,.393.393V47.57a.394.394,0,0,1-.393.393Zm8.98,2.359v2.392h-8.04V50.323Zm-8.04-15.269V32.662h8.04v2.392ZM26.3,60.425a2.675,2.675,0,1,1,0-5.351H36.16a2.675,2.675,0,0,1,0,5.351ZM45.022,78.176H17.437V74.339a.394.394,0,0,1,.393-.393h7.3a1.18,1.18,0,1,0,0-2.359H20.209V69.633a.394.394,0,0,1,.393-.393H41.857a.394.394,0,0,1,.393.393v1.954H30.638a1.18,1.18,0,0,0,0,2.359h13.99a.394.394,0,0,1,.393.393Zm36.465,0H47.381V74.339a2.756,2.756,0,0,0-2.753-2.753H44.61V69.633a2.756,2.756,0,0,0-2.753-2.753H32.182v-4.1H36.16a5.034,5.034,0,0,0,1.449-9.856v-3a2.751,2.751,0,0,0,1.334-2.354V46.557H44a1.968,1.968,0,0,0,1.831,1.255h3.447a1.968,1.968,0,0,0,1.831-1.255h8.345a2.079,2.079,0,0,0,1.906,1.255H81.487V78.176Z" transform="translate(-15.078 0)"/>
        <path id="Trazado_815982" data-name="Trazado 815982" d="M202.872,58.824a12.217,12.217,0,1,0,12.217-12.217,12.231,12.231,0,0,0-12.217,12.217Zm22.075,0a9.858,9.858,0,1,1-9.858-9.858A9.869,9.869,0,0,1,224.947,58.824Z" transform="translate(-173.333 -39.276)"/>
        <path id="Trazado_815983" data-name="Trazado 815983" d="M248.357,103.5a1.18,1.18,0,0,0-1.668,1.668l3.629,3.629a1.18,1.18,0,0,0,1.669,0l5.625-5.625a1.18,1.18,0,1,0-1.668-1.668l-4.79,4.79Z" transform="translate(-209.966 -85.247)"/>
        <path id="Trazado_815984" data-name="Trazado 815984" d="M243.681,328.249a1.18,1.18,0,0,0,1.18,1.18h21.7a1.18,1.18,0,1,0,0-2.359h-21.7A1.18,1.18,0,0,0,243.681,328.249Z" transform="translate(-207.723 -275.622)"/>
        <path id="Trazado_815985" data-name="Trazado 815985" d="M322.865,363.546H311.68a1.18,1.18,0,0,0,0,2.359h11.185a1.18,1.18,0,0,0,0-2.359Z" transform="translate(-264.031 -306.362)"/>
        <path id="Trazado_815986" data-name="Trazado 815986" d="M244.861,365.905h6.421a1.18,1.18,0,1,0,0-2.359h-6.421a1.18,1.18,0,0,0,0,2.359Z" transform="translate(-207.723 -306.362)"/>
        <path id="Trazado_815987" data-name="Trazado 815987" d="M266.556,400.023h-21.7a1.18,1.18,0,0,0,0,2.359h21.7a1.18,1.18,0,0,0,0-2.359Z" transform="translate(-207.722 -337.101)"/>
        <path id="Trazado_815988" data-name="Trazado 815988" d="M352.36,436.5h-5.68a1.18,1.18,0,0,0,0,2.359h5.68a1.18,1.18,0,0,0,0-2.359Z" transform="translate(-293.526 -367.84)"/>
        <path id="Trazado_815989" data-name="Trazado 815989" d="M257.259,436.5h-12.4a1.18,1.18,0,0,0,0,2.359h12.4a1.18,1.18,0,0,0,0-2.359Z" transform="translate(-207.723 -367.84)"/>
      </g>
    </g>
  </g>
</svg>
