<svg xmlns="http://www.w3.org/2000/svg" width="39.717" height="32.248" viewBox="0 0 39.717 32.248">
  <g id="_6KZybV" data-name="6KZybV" transform="translate(742.95 6339.613)">
    <g id="Grupo_155584" data-name="Grupo 155584" transform="translate(-742.95 -6339.613)">
      <path id="Trazado_197692" data-name="Trazado 197692" d="M-709.219-6313.345c0,1.194.009,2.255,0,3.315a2.438,2.438,0,0,1-2.644,2.659q-14.134.011-28.268,0a2.571,2.571,0,0,1-2.811-2.768q-.013-10.347,0-20.694a2.624,2.624,0,0,1,2.816-2.785c.995-.014,1.99,0,3.163,0,0-1,0-1.981,0-2.958a2.677,2.677,0,0,1,3.008-3.019c2.6,0,5.193-.051,7.786.032a4.334,4.334,0,0,1,2.154.7c1.5,1,2.891,2.181,4.373,3.218a2.907,2.907,0,0,0,1.538.508c3.947.041,7.894.02,11.84.023q3.026,0,3.029,2.993,0,7.947,0,15.894c0,1.946-.921,2.871-2.858,2.88C-707.085-6313.342-708.077-6313.345-709.219-6313.345Zm-16.865,3.81c4.515,0,9.031-.02,13.546.017.873.008,1.168-.24,1.161-1.139q-.056-7.519,0-15.039c.007-.961-.343-1.21-1.248-1.2-3.911.037-7.823.062-11.732-.021a4.918,4.918,0,0,1-2.439-.807c-1.514-.985-2.9-2.168-4.376-3.215a2.582,2.582,0,0,0-1.357-.454c-2.346-.045-4.693.009-7.039-.036-.914-.018-1.243.271-1.238,1.22q.051,9.706,0,19.413c-.006.987.3,1.292,1.283,1.282C-735.043-6309.56-730.563-6309.536-726.083-6309.536Zm16.865-6.012c1,0,1.854-.051,2.7.014.885.067,1.153-.248,1.146-1.141-.039-4.979-.048-9.958,0-14.937.011-1.057-.344-1.34-1.349-1.328-3.841.044-7.682-.006-11.523.034a4.078,4.078,0,0,1-2.746-.918c-1.3-1.044-2.651-2.03-4-3.016a2.266,2.266,0,0,0-1.107-.559q-3.946-.074-7.894,0a1.021,1.021,0,0,0-.748.649c-.085,1.012-.036,2.035-.036,3.128a14.479,14.479,0,0,0,1.506-.008,5.123,5.123,0,0,1,4.1,1.357,37.828,37.828,0,0,0,3.5,2.615,2.964,2.964,0,0,0,1.536.513c3.912.042,7.824.021,11.736.024,2.194,0,3.174.989,3.175,3.188C-709.218-6322.52-709.219-6319.108-709.219-6315.547Z" transform="translate(742.95 6339.613)" fill="#12263f"/>
    </g>
  </g>
</svg>
