<svg id="lWWqn9.tif" xmlns="http://www.w3.org/2000/svg" width="38.629" height="43.197" viewBox="0 0 38.629 43.197">
  <g id="Grupo_56632" data-name="Grupo 56632">
    <path id="Trazado_122983" data-name="Trazado 122983" d="M-575.748,264.547a10.715,10.715,0,0,1-1.8-.678,4.26,4.26,0,0,1-2.207-4.124,4.286,4.286,0,0,1,2.795-3.934,4.368,4.368,0,0,1,4.759.811c.116.1.227.2.36.322l7.076-4.084a4.726,4.726,0,0,1-.1-2.589.313.313,0,0,0-.12-.27c-.667-.384-1.343-.753-2.012-1.124a10.219,10.219,0,0,1-16.506-.062c-.667.375-1.345.744-2.005,1.139a.41.41,0,0,0-.092.352,4.349,4.349,0,0,1-.03,2.25c-.079.266.034.375.24.493q2.252,1.287,4.5,2.587c.157.09.311.187.508.3l-.939,1.621-5.338-3.076a4.71,4.71,0,0,1-2.353,1.351,4.556,4.556,0,0,1-5.372-3.23,4.515,4.515,0,0,1,2.983-5.5c.4-.126.472-.3.47-.673q-.023-3.439,0-6.878a.451.451,0,0,0-.377-.528,4.539,4.539,0,0,1-3.234-4.483,4.523,4.523,0,0,1,3.6-4.285,4.387,4.387,0,0,1,3.8.909c.109.088.214.18.349.292l3.318-1.913c1.205-.695,2.406-1.4,3.62-2.08a.4.4,0,0,0,.223-.534,4.526,4.526,0,0,1,3.547-5.512,4.523,4.523,0,0,1,5.362,3.972,6.179,6.179,0,0,1-.107,1.546c-.034.242-.024.382.206.513q3.365,1.93,6.717,3.88a.345.345,0,0,0,.472-.051,4.327,4.327,0,0,1,4.881-.691,4.265,4.265,0,0,1,2.619,4.214,4.264,4.264,0,0,1-2.75,4.047,4.356,4.356,0,0,1-4.768-.759c-.139-.116-.268-.244-.421-.386l-2.076,1.177a10.574,10.574,0,0,1,.832,4.2,10.422,10.422,0,0,1-.948,4.146l2.17,1.205a4.777,4.777,0,0,1,2.492-1.471v-6.325h1.885v2.5c0,1.154.006,2.308-.008,3.462a.407.407,0,0,0,.347.468,4.517,4.517,0,0,1,3.247,4.712,4.521,4.521,0,0,1-3.8,4.1,4.379,4.379,0,0,1-3.691-1.042c-.129-.107-.251-.223-.39-.35q-2.252,1.3-4.493,2.6c-.766.444-1.529.892-2.3,1.323a.385.385,0,0,0-.225.5,4.508,4.508,0,0,1-3.633,5.557.945.945,0,0,0-.184.084Zm-8-27.095a10,10,0,0,1,8.4-4.62,10.011,10.011,0,0,1,8.5,4.39c.633-.354,1.25-.686,1.847-1.053a.468.468,0,0,0,.139-.407,4.387,4.387,0,0,1,.086-2.411.335.335,0,0,0-.184-.47c-.714-.395-1.416-.809-2.121-1.216q-2.368-1.371-4.733-2.735a4.658,4.658,0,0,1-6.814,0q-3.455,1.995-6.919,4.006a.378.378,0,0,0-.129.33,4.685,4.685,0,0,1-.009,2.861.346.346,0,0,0,.107.3C-584.98,236.786-584.364,237.116-583.748,237.453Zm-.867,1.681c-.69-.38-1.362-.759-2.044-1.113-.084-.041-.247.03-.354.086-.592.309-1.182.622-1.761.952-.12.069-.277.221-.277.335q-.023,3.645,0,7.292a.423.423,0,0,0,.223.322,5.065,5.065,0,0,1,2.085,1.231.325.325,0,0,0,.283.071c.686-.371,1.362-.761,2.033-1.141A10.163,10.163,0,0,1-584.615,239.134ZM-572.551,243c-.047-.746-.086-1.531-.154-2.314-.009-.1-.172-.275-.264-.275q-2.252-.026-4.5,0a.425.425,0,0,0-.289.3c-.021,1.471-.015,2.945-.017,4.418,0,.242.105.354.358.354q2.188-.01,4.375,0c.24,0,.347-.086.36-.343C-572.656,244.438-572.6,243.739-572.551,243Zm-20.1-8.307A2.662,2.662,0,0,0-590,237.35a2.661,2.661,0,0,0,2.647-2.662A2.655,2.655,0,0,0-590,232.033,2.656,2.656,0,0,0-592.649,234.69Zm34.839,0a2.64,2.64,0,0,0-2.692-2.649,2.644,2.644,0,0,0-2.6,2.7,2.649,2.649,0,0,0,2.69,2.61A2.649,2.649,0,0,0-557.81,234.686Zm0,16.731a2.646,2.646,0,0,0-2.638-2.664,2.652,2.652,0,0,0-2.653,2.606,2.65,2.65,0,0,0,2.638,2.707A2.651,2.651,0,0,0-557.81,251.417Zm-29.546.051a2.657,2.657,0,0,0-2.587-2.717,2.661,2.661,0,0,0-2.707,2.554,2.668,2.668,0,0,0,2.587,2.765A2.668,2.668,0,0,0-587.356,251.469Zm12.152-28.234a2.62,2.62,0,0,0-2.67,2.619,2.625,2.625,0,0,0,2.664,2.666,2.623,2.623,0,0,0,2.627-2.619A2.62,2.62,0,0,0-575.2,223.235Zm-.043,39.4a2.634,2.634,0,0,0,2.666-2.625,2.634,2.634,0,0,0-2.589-2.664,2.632,2.632,0,0,0-2.707,2.627A2.63,2.63,0,0,0-575.247,262.639Zm4.515-17.6a7.378,7.378,0,0,0,3.249-1.336c.622-.541.661-1.047-.013-1.525a11.335,11.335,0,0,0-1.924-1.015,10.4,10.4,0,0,0-1.313-.4Zm-2.344-6.612a8.082,8.082,0,0,0-1.332-3.176c-.556-.714-1.148-.751-1.624.011a19.353,19.353,0,0,0-1.163,2.456,4.542,4.542,0,0,0-.187.71Zm.006,9.008h-4.318a7.78,7.78,0,0,0,1.433,3.281c.506.594.972.581,1.471-.017A7.975,7.975,0,0,0-573.07,247.439Zm-6.668-2.346v-4.313c-.285.075-.545.129-.8.21a6.639,6.639,0,0,0-2.509,1.242c-.536.483-.551.918-.019,1.388A7.638,7.638,0,0,0-579.738,245.092Zm7.706-9.731a1.021,1.021,0,0,0,0,.189c.307,1.006.609,2.012.935,3.009a.533.533,0,0,0,.32.255c.959.311,1.924.607,2.887.907.069.021.141.034.262.064A8.315,8.315,0,0,0-572.032,235.362Zm.013,15.1a7.794,7.794,0,0,0,4.32-4.324,24.992,24.992,0,0,1-2.46.744,1.191,1.191,0,0,0-1.122,1.109A20.119,20.119,0,0,1-572.019,250.463Zm-10.771-10.752c1.083-.307,2.134-.6,3.178-.909a.5.5,0,0,0,.257-.307c.234-.763.44-1.536.669-2.3.082-.272.206-.534.341-.873A8.286,8.286,0,0,0-582.79,239.711Zm-.007,6.451a8.235,8.235,0,0,0,4.341,4.335c-.3-1.083-.6-2.158-.916-3.228a.371.371,0,0,0-.223-.2C-580.643,246.765-581.7,246.471-582.8,246.163Z" transform="translate(594.547 -221.35)" fill="#12263f"/>
  </g>
</svg>
