<svg xmlns="http://www.w3.org/2000/svg" width="41.095" height="41.086" viewBox="0 0 41.095 41.086">
  <g id="fdJcr5.tif" transform="translate(0.25 0.25)">
    <g id="Grupo_56634" data-name="Grupo 56634">
      <path id="Trazado_122991" data-name="Trazado 122991" d="M-495.185,245.925H-499.2c-.162.62-.3,1.212-.475,1.79a15.448,15.448,0,0,1-1.951,4.186.469.469,0,0,0,.065.727c.859.823,1.691,1.672,2.485,2.46l-4.239,4.241-2.731-2.834a17.132,17.132,0,0,1-6.43,2.693v4.042h-5.985v-4.039a17.068,17.068,0,0,1-6.378-2.647l-2.823,2.861-4.22-4.252,2.83-2.8a17.083,17.083,0,0,1-2.668-6.415h-4.056v-5.995h3.981a28.273,28.273,0,0,1,.853-2.752c.466-1.105,1.046-2.166,1.619-3.224.164-.305.2-.47-.074-.725-.865-.815-1.7-1.662-2.495-2.445l4.233-4.243,2.746,2.819a17.168,17.168,0,0,1,6.432-2.695v-4.039h5.987v4.039a16.93,16.93,0,0,1,6.375,2.647l2.832-2.85,4.239,4.269c-.771.767-1.571,1.6-2.409,2.388a.59.59,0,0,0-.118.922,15.127,15.127,0,0,1,2.22,5.38c.076.386.233.517.638.508,1.168-.031,2.336-.011,3.536-.011Zm-7.646,6.478a16.325,16.325,0,0,0,3-7.2h3.935v-4.542h-3.943a16.266,16.266,0,0,0-2.989-7.193l2.76-2.745-3.2-3.183-2.739,2.754a16.314,16.314,0,0,0-7.207-3.006v-3.926h-4.546v3.932a16.334,16.334,0,0,0-7.26,3.044l-2.651-2.756-3.262,3.252,2.68,2.6c-.632,1.2-1.317,2.3-1.807,3.489s-.783,2.445-1.189,3.76h-3.811v4.527h3.932a16.343,16.343,0,0,0,3.01,7.218l-2.754,2.741,3.2,3.191,2.745-2.754a16.328,16.328,0,0,0,7.192,2.987v3.924h4.546v-3.932a16.458,16.458,0,0,0,7.256-3.04l2.651,2.762,3.2-3.2Z" transform="translate(535.78 -222.644)" fill="#12263f" stroke="#12263f" stroke-miterlimit="10" stroke-width="0.5"/>
      <path id="Trazado_122992" data-name="Trazado 122992" d="M-508.9,237.863c0,1.531,0,3.061,0,4.592,0,.966-.326,1.3-1.271,1.309a6.5,6.5,0,0,0-2.073.053c-.6.223-1.038.866-1.559,1.311a9.493,9.493,0,0,1-13.076-.844,1.367,1.367,0,0,0-1.223-.529,16.921,16.921,0,0,1-1.733,0,.99.99,0,0,1-1.075-1.088q-.014-4.85,0-9.7a1,1,0,0,1,1.115-1.1c.662-.017,1.328.027,1.989-.019a1.17,1.17,0,0,0,.729-.326,9.535,9.535,0,0,1,14.368.034,1.028,1.028,0,0,0,.641.294c.678.038,1.359,0,2.04.017a1.01,1.01,0,0,1,1.126,1.141C-508.89,234.63-508.9,236.246-508.9,237.863Zm-11.035,5.184q4.8,0,9.592,0c.723,0,.729-.006.729-.75q0-4.518,0-9.035c0-.657-.017-.674-.7-.674q-9.619,0-19.238-.01c-.481,0-.662.134-.658.632q.026,4.595,0,9.188c0,.517.174.664.681.66C-526.326,243.037-523.129,243.048-519.93,243.046Zm6.438-11.205c-3.745-4.18-10.226-3.311-12.744,0ZM-526.277,243.8a8.613,8.613,0,0,0,12.74,0Z" transform="translate(540.202 -217.525)" fill="#12263f" stroke="#12263f" stroke-width="1"/>
      <path id="Trazado_122993" data-name="Trazado 122993" d="M-527.746,235.333l-.781,1.069-.607-.71,1-.788-.08-.157h-1.3v-.729h1.275l.09-.143-1.04-.7.1-.223.672-.393.66.882.178-.1v-1.262h.733v1.277l.137.067.834-1.1.462.71.178.065-1,.748.091.158h1.262v.723h-1.426l1.021,1.069-.622.355-.9-.855v1.393h-.737v-1.246Z" transform="translate(541.474 -214.081)" fill="#12263f"/>
      <path id="Trazado_122994" data-name="Trazado 122994" d="M-522.938,233.08l.66-.67.846,1.04.134-.09v-1.286h.706v1.414l1.1-1.021.447.5L-520.03,234c.445,0,.767.01,1.09,0,.252-.01.368.071.37.347s-.082.407-.378.389a2.761,2.761,0,0,0-.991.1l1.036.861-.607.515-.12.109-.782-1.054-.156.1v1.309h-.712v-1.433l-1,1.134-.513-.7.939-.761-.086-.158H-523.2v-.756h1.246l.05-.1Z" transform="translate(547.21 -214.076)" fill="#12263f"/>
      <path id="Trazado_122995" data-name="Trazado 122995" d="M-523.009,234.016h1.275v.708h-1.275l-.12.168,1.164.752-.718.62-.756-1.01-.216.128-.057,1.292h-.672l-.069-1.372-1.017.973-.491-.647.937-.769-.052-.109h-1.275V234h1.391l-1-1.057.578-.576.834,1.036.118-.057v-1.275h.737v1.269l.126.076.727-1.023.227.071.372.517.168.122-1.021.783Z" transform="translate(544.349 -214.079)" fill="#12263f"/>
    </g>
  </g>
</svg>
