<svg xmlns="http://www.w3.org/2000/svg" width="380.049" height="152.103" viewBox="0 0 380.049 152.103">
  <g id="_5990697" data-name="5990697" transform="translate(109.951 -171.506)">
    <g id="Grupo_1069271" data-name="Grupo 1069271" transform="translate(17.331 171.506)">
      <path id="Trazado_816033" data-name="Trazado 816033" d="M222.287,73.094l-31.362-6.817a6.637,6.637,0,0,1-5.135-6.186c-.014-.086-.014-33.69,0-33.776a6.642,6.642,0,0,1,5.135-6.191l31.362-6.817L225.652.01H189.108A23.264,23.264,0,0,0,165.84,23.173V63.222a23.268,23.268,0,0,0,23.268,23.168h36.544Z" transform="translate(-165.84 -0.01)" fill="#fd6900"/>
      <path id="Trazado_816034" data-name="Trazado 816034" d="M336.056,73.094l31.357-6.817a6.637,6.637,0,0,0,5.135-6.186c.014-.086.014-33.69,0-33.776a6.642,6.642,0,0,0-5.135-6.191l-31.357-6.817L332.69.01h36.544A23.257,23.257,0,0,1,392.5,23.173V63.222a23.261,23.261,0,0,1-23.263,23.168H332.69Z" transform="translate(-252.923 -0.01)" fill="#fd6900"/>
      <rect id="Rectángulo_374333" data-name="Rectángulo 374333" width="26.691" height="3.327" transform="translate(56.447 41.521)" fill="#fd6900"/>
    </g>
    <path id="Trazado_816035" data-name="Trazado 816035" d="M485.984,282.976h-5.058A11.515,11.515,0,0,1,469.42,271.47V256.6a11.51,11.51,0,0,1,11.506-11.5h5.058A11.515,11.515,0,0,1,497.5,256.6v14.87a11.521,11.521,0,0,1-11.512,11.506m-5.058-31.288a4.916,4.916,0,0,0-4.912,4.906v14.87a4.912,4.912,0,0,0,4.912,4.906h5.058a4.912,4.912,0,0,0,4.912-4.906v-14.87a4.908,4.908,0,0,0-4.912-4.906h-5.058Z" transform="translate(-293.295 40.627)" fill="#fd6900"/>
    <rect id="Rectángulo_374334" data-name="Rectángulo 374334" width="6.594" height="49.552" transform="translate(-60.514 273.191)" fill="#fd6900"/>
    <rect id="Rectángulo_374335" data-name="Rectángulo 374335" width="6.6" height="36.169" transform="translate(-46.193 286.574)" fill="#fd6900"/>
    <path id="Trazado_816036" data-name="Trazado 816036" d="M107.194,224.53a4.427,4.427,0,1,0,4.424,4.424,4.424,4.424,0,0,0-4.424-4.424" transform="translate(-150.09 48.661)" fill="#fd6900"/>
    <path id="Trazado_816037" data-name="Trazado 816037" d="M25.779,224.53H17.74C14.7,229.905,7.447,244.659,0,274.082H6.868c1.164-4.491,2.3-8.611,3.437-12.4H34.4q1.682,5.668,3.431,12.4H44.7C37.248,244.659,30,229.905,26.949,224.53H25.785Zm-13.4,30.5a177.609,177.609,0,0,1,9.336-23.749h1.274a175.342,175.342,0,0,1,9.336,23.749Z" transform="translate(-109.951 48.661)" fill="#fd6900"/>
    <rect id="Rectángulo_374336" data-name="Rectángulo 374336" width="6.588" height="49.601" transform="translate(163.43 273.143)" fill="#fd6900"/>
    <rect id="Rectángulo_374337" data-name="Rectángulo 374337" width="6.594" height="49.552" transform="translate(-31.865 273.191)" fill="#fd6900"/>
    <path id="Trazado_816038" data-name="Trazado 816038" d="M145.054,291.924a57.007,57.007,0,0,1-12.274-1.572l1.548-6.411c10.275,2.48,15.022,1.121,16.333.085s1.42-2.785,1.414-4.8V268.01h6.6v11.2c0,2.237.012,6.88-3.931,9.988-2.3,1.822-5.509,2.73-9.69,2.73" transform="translate(-161.812 31.679)" fill="#fd6900"/>
    <path id="Trazado_816039" data-name="Trazado 816039" d="M159.319,268.411h-6.6V257.2c0-1.9-.085-3.431-1.231-4.333-1.03-.81-4.583-2.4-15.51.238l-1.548-6.411c10.238-2.474,17.155-2.145,21.141.993,3.754,2.962,3.748,7.4,3.748,9.525v11.2Z" transform="translate(-162.456 40.645)" fill="#fd6900"/>
    <path id="Trazado_816040" data-name="Trazado 816040" d="M414.888,266.122a39.137,39.137,0,0,1-21.22,1.31c-4.205-1.042-4.516-4.315-4.528-4.912V236.84c.012-.6.323-3.87,4.528-4.912a39.04,39.04,0,0,1,21.4,1.389l1.627-6.435a44.755,44.755,0,0,0-14.955-2.432,40.641,40.641,0,0,0-9.653,1.079,11.987,11.987,0,0,0-9.544,11.329V262.5a11.982,11.982,0,0,0,9.544,11.329,40.922,40.922,0,0,0,9.653,1.079,45.033,45.033,0,0,0,14.779-2.358l-1.627-6.436Z" transform="translate(-259.362 48.693)" fill="#fd6900"/>
    <rect id="Rectángulo_374338" data-name="Rectángulo 374338" width="6.6" height="36.169" transform="translate(230.619 286.574)" fill="#fd6900"/>
    <path id="Trazado_816041" data-name="Trazado 816041" d="M538.09,283.483c-4.187,0-7.386-.908-9.69-2.73-3.949-3.1-3.937-7.758-3.931-9.988V246.4h6.6v24.371c0,2.011.1,3.76,1.414,4.8s5.046,2.4,15.321-.085l1.548,6.405a48.986,48.986,0,0,1-11.262,1.578" transform="translate(-314.796 40.119)" fill="#fd6900"/>
    <rect id="Rectángulo_374339" data-name="Rectángulo 374339" width="6.588" height="49.552" transform="translate(263.51 273.191)" fill="#fd6900"/>
    <path id="Trazado_816042" data-name="Trazado 816042" d="M592.271,291.924c-4.181,0-7.386-.908-9.69-2.724-3.949-3.108-3.931-7.764-3.931-9.989v-11.2h6.594v11.213c0,2.011.1,3.76,1.42,4.8s5.052,2.395,15.321-.085l1.548,6.411a48.939,48.939,0,0,1-11.262,1.572" transform="translate(-335.958 31.679)" fill="#fd6900"/>
    <path id="Trazado_816043" data-name="Trazado 816043" d="M585.254,268.419H578.66v-11.2c0-2.133-.018-6.557,3.742-9.525,3.986-3.145,10.909-3.468,21.141-.993l-1.548,6.411c-10.927-2.633-14.486-1.042-15.51-.238-1.14.908-1.231,2.432-1.231,4.327v11.213Z" transform="translate(-335.962 40.643)" fill="#fd6900"/>
    <path id="Trazado_816044" data-name="Trazado 816044" d="M209.4,247.438c-6.521-4.662-18.7-1.188-21.659-.244l1.615,6.411c3.833-1.31,12.822-3.218,16.2-.8.609.439,1.322,1.2,1.322,3.206V282.1h6.594V256.012a9.967,9.967,0,0,0-4.077-8.575" transform="translate(-183.278 40.642)" fill="#fd6900"/>
    <path id="Trazado_816045" data-name="Trazado 816045" d="M195.5,292.672c-6.7,0-11.2-3.145-12.365-8.617a10.909,10.909,0,0,1,1.432-8.605c1.81-2.663,4.881-4.37,9.123-5.07a33.067,33.067,0,0,1,15.169.951l-2.182,6.222a26.82,26.82,0,0,0-11.908-.658c-1.645.268-3.8.884-4.76,2.285a4.676,4.676,0,0,0-.42,3.522c.195.932.713,3.376,5.911,3.376a49.223,49.223,0,0,0,11.006-1.3l2.121,6.234c-2.724.926-9.111,1.664-13.127,1.664" transform="translate(-181.362 30.93)" fill="#fd6900"/>
    <path id="Trazado_816046" data-name="Trazado 816046" d="M323.913,247.438c-6.515-4.662-18.709-1.188-21.653-.244l1.615,6.411c3.833-1.31,12.822-3.218,16.2-.8.616.439,1.316,1.2,1.316,3.206V282.1h6.6V256.012a9.982,9.982,0,0,0-4.077-8.575" transform="translate(-228.006 40.642)" fill="#fd6900"/>
    <path id="Trazado_816047" data-name="Trazado 816047" d="M310.012,292.672c-6.7,0-11.207-3.145-12.365-8.617a10.884,10.884,0,0,1,1.432-8.605c1.816-2.663,4.888-4.37,9.129-5.07a33.033,33.033,0,0,1,15.162.951l-2.182,6.222a26.835,26.835,0,0,0-11.908-.658c-1.645.268-3.809.884-4.753,2.285a4.651,4.651,0,0,0-.427,3.522c.2.932.713,3.376,5.911,3.376a49.177,49.177,0,0,0,11.006-1.3l2.127,6.234c-2.724.926-9.117,1.664-13.133,1.664" transform="translate(-226.087 30.93)" fill="#fd6900"/>
    <rect id="Rectángulo_374340" data-name="Rectángulo 374340" width="6.594" height="49.552" transform="translate(37.932 273.191)" fill="#fd6900"/>
    <path id="Trazado_816048" data-name="Trazado 816048" d="M259.574,291.924a57.052,57.052,0,0,1-12.274-1.572l1.548-6.411c10.275,2.48,15.022,1.121,16.333.085s1.42-2.785,1.42-4.8V268.01h6.588v11.2c0,2.237.012,6.88-3.931,9.988-2.3,1.822-5.509,2.73-9.69,2.73" transform="translate(-206.54 31.679)" fill="#fd6900"/>
    <path id="Trazado_816049" data-name="Trazado 816049" d="M273.833,268.411h-6.594V257.2c0-1.9-.085-3.431-1.231-4.333-1.03-.81-4.589-2.4-15.51.238l-1.548-6.411c10.238-2.474,17.155-2.145,21.141.993,3.754,2.962,3.748,7.4,3.742,9.525v11.2Z" transform="translate(-207.185 40.645)" fill="#fd6900"/>
  </g>
</svg>
