<svg xmlns="http://www.w3.org/2000/svg" width="445.294" height="167.208" viewBox="0 0 445.294 167.208">
  <g id="Grupo_1069509" data-name="Grupo 1069509" transform="translate(-232.428 -1131.374)">
    <g id="_5990697" data-name="5990697" transform="translate(232.427 1131.374)">
      <path id="Trazado_816050" data-name="Trazado 816050" d="M706.066,344.35c-8.715,0-18.446,3.358-20.483,14.41a1.555,1.555,0,0,0,1.311,1.906l8.933,1.07c.826-.043,1.387-.94,1.548-1.786.762-3.8,3.892-5.6,7.386-5.6a5.966,5.966,0,0,1,5.122,2.381c1.281,1.933,1.19,4.558,1.19,6.788v1.311c-5.308.609-12.3.98-17.268,3.217-5.735,2.549-9.764,7.736-9.764,15.362,0,9.771,5.986,14.65,13.7,14.65,6.508,0,10.106-1.528,15.125-6.788a22.478,22.478,0,0,0,5.24,6.193,1.831,1.831,0,0,0,2.141-.237v.118c1.829-1.669,5.156-4.7,7.027-6.311a1.813,1.813,0,0,0,0-2.5c-1.673-2.371-3.452-4.284-3.452-8.692v-14.65c0-6.2.525-11.925-3.929-16.2-3.518-3.457-9.371-4.645-13.822-4.645h0Zm120.046,0c-8.719,0-18.442,3.358-20.483,14.41a1.552,1.552,0,0,0,1.311,1.906l8.932,1.07c.826-.043,1.391-.94,1.548-1.786.766-3.8,3.892-5.6,7.386-5.6a5.962,5.962,0,0,1,5.123,2.381c1.277,1.933,1.07,4.558,1.07,6.788v1.311c-5.308.609-12.176.98-17.149,3.217-5.739,2.549-9.764,7.736-9.764,15.362,0,9.771,5.99,14.65,13.7,14.65,6.5,0,10.1-1.528,15.125-6.788a22.414,22.414,0,0,0,5.24,6.193,1.832,1.832,0,0,0,2.141-.237v.118c1.829-1.669,5.156-4.7,7.027-6.311a1.827,1.827,0,0,0,0-2.5c-1.672-2.371-3.452-4.284-3.452-8.692v-14.65c0-6.2.4-11.925-4.047-16.2-3.521-3.457-9.253-4.645-13.7-4.645h0Zm-67.527.476c-5.632,0-9.809,2.843-12.028,8.932h-.118v-6.311a1.8,1.8,0,0,0-1.669-1.669H736.2a1.813,1.813,0,0,0-1.786,1.786V395.8a1.851,1.851,0,0,0,1.669,1.669h9.169a1.8,1.8,0,0,0,1.786-1.786V370.073c0-5.584-.271-13.22,6.311-13.22s5.6,7.846,5.6,13.22v25.606a1.821,1.821,0,0,0,1.669,1.786h9.169a1.8,1.8,0,0,0,1.786-1.786V370.073c0-2.739-.11-6.731.835-9.169a6.178,6.178,0,0,1,5.481-4.047c2.652,0,4.676.926,5.358,4.17.427,1.929.237,7.023.237,9.052v25.606a1.821,1.821,0,0,0,1.669,1.786h9.169a1.805,1.805,0,0,0,1.787-1.786V365.2c0-5.18.522-11.059-2.381-15.126a13.364,13.364,0,0,0-23.219,3.692c-2.568-6.09-6.19-8.936-11.918-8.936h0Zm155.9,0c-13.25,0-20.6,11.651-20.6,26.676s7.271,26.913,20.6,26.913,20.961-11.715,20.961-26.441-7.37-27.15-20.961-27.15h0Zm52.279,0c-6.33,0-9.946,3.167-12.5,9.764h-.118V347.2a1.768,1.768,0,0,0-1.669-1.311h-8.457a1.759,1.759,0,0,0-1.786,1.548v48.232a1.827,1.827,0,0,0,1.669,1.787h9.052a1.813,1.813,0,0,0,1.787-1.787v-25.96a22.3,22.3,0,0,1,1.548-9.169,5.872,5.872,0,0,1,5.24-3.812c6.318,0,5.716,7.7,5.716,12.979v26.2a1.808,1.808,0,0,0,1.669,1.548h9.169a1.809,1.809,0,0,0,1.786-1.548V365.54c0-4.668.011-11.155-2.381-15.008a12.013,12.013,0,0,0-10.721-5.709h0Zm-110.041.835a1.691,1.691,0,0,0-1.669,1.786v6.906a1.69,1.69,0,0,0,1.669,1.786h15.72L854.454,382.7a8.775,8.775,0,0,0-1.19,4.765v7.027c0,1.013,1.1,2.114,2.141,1.548a33.846,33.846,0,0,1,31.8-.118c1.124.613,2.264-.538,2.264-1.548v-7.386a3.133,3.133,0,0,0-1.669-2.622c-5.26-3.026-11.364-3.952-17.149-3.812l15.6-22.866c1.444-2.054,2.253-3.293,2.264-4.287v-5.953a1.679,1.679,0,0,0-1.669-1.787h-30.13Zm57.763,9.052c2.9,0,5.046,1.295,6.076,4.645,1.19,3.86,1.311,8.681,1.311,12.744,0,6.19-.29,16.433-7.386,16.433s-7.146-12.684-7.146-18.579S907.726,354.713,914.48,354.713ZM710.948,372.339v2.023c0,3.662.134,6.745-1.669,10-1.455,2.649-3.742,4.287-6.311,4.287-3.505,0-5.6-2.843-5.6-6.906,0-8.01,6.963-9.41,13.578-9.41Zm120.046,0v2.023c0,3.662.134,6.745-1.669,10-1.455,2.649-3.731,4.287-6.311,4.287-3.511,0-5.6-2.843-5.6-6.906,0-8.01,6.955-9.41,13.578-9.41Z" transform="translate(-562.202 -283.016)" fill="#12263f"/>
      <path id="Trazado_816051" data-name="Trazado 816051" d="M897,651.25v6.906h4.645V651.25ZM762.3,652.44v49.185h4.287v-4.4a10.614,10.614,0,0,0,3.217,3.929,7.348,7.348,0,0,0,4.287,1.311c3.147,0,5.865-1.608,8.216-4.882s3.575-8.019,3.575-14.055a28.356,28.356,0,0,0-1.548-10,13.778,13.778,0,0,0-4.17-6.193,9.4,9.4,0,0,0-5.835-2.141,7.612,7.612,0,0,0-4.17,1.19,10.99,10.99,0,0,0-3.217,3.692V652.442H762.3Zm44.066,11.554a9.64,9.64,0,0,0-10.361,10.245,10.364,10.364,0,0,0,1.07,4.645,8.418,8.418,0,0,0,2.859,3.334,32.43,32.43,0,0,0,7.264,3.094,16.32,16.32,0,0,1,4.645,2.023,3.893,3.893,0,0,1,1.428,3.217A5.378,5.378,0,0,1,811.6,694.6a6.367,6.367,0,0,1-4.645,1.548,6.588,6.588,0,0,1-4.882-1.786c-1.213-1.222-1.867-3.083-2.141-5.6l-4.645.953c1.047,7.641,4.859,11.437,11.433,11.433,3.505,0,6.189-.994,8.216-3.094a11.624,11.624,0,0,0,3.094-8.338,11.107,11.107,0,0,0-.953-4.765,7.512,7.512,0,0,0-2.622-3.094,37.52,37.52,0,0,0-7.5-3.094,23.011,23.011,0,0,1-5-2.141,3.739,3.739,0,0,1-1.429-3.094,4.242,4.242,0,0,1,1.429-3.334,6.788,6.788,0,0,1,4.528-1.311q5.327,0,5.953,5.835l4.528-.716a14.594,14.594,0,0,0-1.669-5.716,8.912,8.912,0,0,0-3.575-3.217,11.615,11.615,0,0,0-5.35-1.07h0Zm28.465,0a11.125,11.125,0,0,0-9.291,4.765c-2.428,3.233-3.575,7.912-3.575,14.055s1.17,10.557,3.575,13.7a11.231,11.231,0,0,0,9.41,4.645,10.91,10.91,0,0,0,7.741-2.859,15.715,15.715,0,0,0,4.4-8.574l-4.765-.835c-1.368,4.866-3.892,7.257-7.386,7.264a6.741,6.741,0,0,1-5.6-2.976q-2.332-3.054-2.622-9.052h20.483v-1.669c0-6.01-1.2-10.521-3.575-13.7s-5.256-4.765-8.8-4.765h0Zm28.224,0a4.25,4.25,0,0,0-2.976,1.19,15.352,15.352,0,0,0-2.976,5V664.7h-4.17v35.609h4.645V681.738a29.8,29.8,0,0,1,.835-7.386,6.1,6.1,0,0,1,1.786-3.094,4,4,0,0,1,2.74-1.07,5.532,5.532,0,0,1,3.334,1.311l1.548-5.6a7.642,7.642,0,0,0-4.768-1.906h0Zm56.924,0a10.883,10.883,0,0,0-9.052,4.645c-2.337,3.094-3.575,7.745-3.575,13.932s1.25,10.792,3.575,13.932a10.452,10.452,0,0,0,8.811,4.645,10.117,10.117,0,0,0,7.622-3.334c2.114-2.234,3.4-5.518,3.929-9.764l-4.528-.716c-.335,3.037-1.127,5.221-2.381,6.669a5.779,5.779,0,0,1-4.528,2.141,6.5,6.5,0,0,1-5.6-3.217c-1.437-2.169-2.141-5.636-2.141-10.48s.759-8.083,2.264-10.243a6.86,6.86,0,0,1,5.716-3.334,5.135,5.135,0,0,1,3.929,1.787,11.01,11.01,0,0,1,2.264,5.481l4.528-.953c-.545-3.749-1.749-6.581-3.692-8.457a9.783,9.783,0,0,0-7.142-2.736h0Zm26.559,0a11.124,11.124,0,0,0-9.29,4.765c-2.428,3.233-3.575,7.912-3.575,14.055s1.17,10.557,3.575,13.7a11.235,11.235,0,0,0,9.41,4.645A10.927,10.927,0,0,0,954.4,698.3a15.773,15.773,0,0,0,4.4-8.574l-4.765-.835c-1.368,4.866-3.779,7.257-7.263,7.264a6.944,6.944,0,0,1-5.716-2.976q-2.332-3.054-2.622-9.052h20.483v-1.669c0-6.01-1.2-10.521-3.575-13.7s-5.256-4.765-8.808-4.765h0Zm27.512,0a9.64,9.64,0,0,0-10.361,10.245,10.3,10.3,0,0,0,.953,4.645,8.371,8.371,0,0,0,2.859,3.334,32.308,32.308,0,0,0,7.263,3.094,17.811,17.811,0,0,1,4.765,2.023,3.893,3.893,0,0,1,1.428,3.217,5.378,5.378,0,0,1-1.669,4.047,6.361,6.361,0,0,1-4.645,1.548,6.587,6.587,0,0,1-4.882-1.786,9.11,9.11,0,0,1-2.264-5.6l-4.645.953c1.047,7.641,4.852,11.437,11.433,11.433,3.511,0,6.307-.994,8.338-3.094a11.609,11.609,0,0,0,3.094-8.338,11.105,11.105,0,0,0-.953-4.765,7.747,7.747,0,0,0-2.739-3.094,35.4,35.4,0,0,0-7.386-3.094,25.509,25.509,0,0,1-5.123-2.141,3.739,3.739,0,0,1-1.429-3.094,4.351,4.351,0,0,1,1.548-3.334,6.8,6.8,0,0,1,4.528-1.311q5.327,0,5.953,5.835l4.528-.716a14.627,14.627,0,0,0-1.669-5.716,8.913,8.913,0,0,0-3.575-3.217,11.58,11.58,0,0,0-5.347-1.07h0Zm-106.23.713,10.363,35.609h4.4l10.363-35.609h-4.765L882.111,686.5c-.736,2.633-1.384,4.909-1.786,6.788-.508-2.367-.99-4.852-1.669-7.263L872.7,664.707Zm29.177,0v35.609h4.645V664.707Zm-152.675.476c-3.685,0-6.651,1.655-9.052,4.882s-3.692,7.912-3.692,14.055,1.19,10.438,3.575,13.574a11.366,11.366,0,0,0,9.41,4.765,10.736,10.736,0,0,0,7.622-2.976c2.066-1.932,3.495-4.775,4.287-8.574l-4.645-.716c-1.354,4.866-3.812,7.256-7.264,7.264a6.746,6.746,0,0,1-5.6-2.976c-1.539-2.036-2.435-5.053-2.622-9.052h20.245l.118-1.669c0-6.01-1.22-10.641-3.575-13.814s-5.3-4.759-8.808-4.759h0Zm-52.282.835,8.338,35.609h4.882l5.481-27.392.953,6.076,4.4,21.319h4.765l8.457-35.609h-4.4l-4.645,20.6-1.548,6.906-1.428-6.906-4.047-20.6h-4.765l-4.287,20.843-1.428,7.386-1.669-7.621-4.287-20.6h-4.768v0Zm296.421.358v1.669h4.528v11.909h1.787V668.045H999.3v-1.669Zm12.627,0V679.95h1.669V668.4l3.929,11.551h1.669l3.929-11.314V679.95h1.786V666.376h-2.5l-3.217,9.527c-.324.953-.556,1.642-.716,2.141l-.716-2.023-3.217-9.645h-2.618Zm-166.376,2.5a6.7,6.7,0,0,1,5.716,3.334,14.166,14.166,0,0,1,1.906,6.906H826.971a12.416,12.416,0,0,1,2.5-7.386,6.552,6.552,0,0,1,5.24-2.855Zm111.71,0a6.714,6.714,0,0,1,5.716,3.334,14.167,14.167,0,0,1,1.906,6.906H938.682a12.416,12.416,0,0,1,2.5-7.386,6.566,6.566,0,0,1,5.24-2.855Zm-202.1,1.311a6.527,6.527,0,0,1,5.6,3.334,14.3,14.3,0,0,1,1.906,6.906H736.7a12.819,12.819,0,0,1,2.381-7.5A6.423,6.423,0,0,1,744.324,670.187Zm29.535,0c2.066,0,3.822,1.147,5.24,3.334s2.023,5.568,2.023,10.244-.672,7.949-2.141,10.243-3.224,3.452-5.123,3.452a5.786,5.786,0,0,1-3.812-1.428,9.049,9.049,0,0,1-2.622-4.17,27.574,27.574,0,0,1-.953-8.338c0-4.341.773-7.591,2.264-9.885s3.224-3.452,5.123-3.452Z" transform="translate(-568.777 -535.252)" fill="#12263f"/>
      <path id="Trazado_816052" data-name="Trazado 816052" d="M56.509,97.18,38.765,104.8,55.2,111.828,74.253,104.8,56.509,97.18Zm-26.676,9.527-.595,34.3L55.2,152.438V116.829L29.833,106.707h0Zm53.353,0-23.46,8.932v33.582l23.46-9.527V106.707ZM111.174,0,93.309,7.622l16.554,7.027,19.055-7.027L111.174,0ZM86.4,10.126v34.3l22.149,6.434.716-31.2L86.4,10.126Zm49.543,1.906-20.961,8.932v33.7l20.961-9.527V12.032ZM27.271,48.273,9.527,55.894,25.96,62.921l19.055-7.027L27.271,48.273ZM.595,57.8,0,92.1l25.96,11.433V67.923Zm53.353,0-23.46,8.932v33.582l23.46-9.527ZM84.436,47.008,66.692,54.63l16.433,7.027,19.055-7.027L84.436,47.008ZM57.759,56.536l-.595,34.3,25.96,11.433V66.661L57.759,56.536Zm53.353,0-23.46,8.932V99.05l23.46-9.527V56.536ZM167.008,0,149.264,7.622,165.7,14.648l19.055-7.027ZM140.332,9.527l-.595,34.3L165.7,55.259V19.653L140.332,9.527h0Zm53.353,0-23.46,8.932V52.042l23.46-9.527V9.527Z" fill="#f7a80d"/>
    </g>
  </g>
</svg>
