<svg xmlns="http://www.w3.org/2000/svg" width="365.773" height="195.167" viewBox="0 0 365.773 195.167">
  <g id="_5990697" data-name="5990697" transform="translate(4.261 -69.995)">
    <path id="Trazado_816001" data-name="Trazado 816001" d="M122.493,94.621v22.656c38.389,0,68.289-37.087,55.727-77.32A56.69,56.69,0,0,0,141.179,2.916C100.947-9.654,63.85,20.245,63.85,58.634h22.7c0-24.1,23.848-42.726,49.181-33.53a34.006,34.006,0,0,1,20.281,20.272c9.2,25.315-9.407,49.153-33.484,49.19V71.984H99.892V94.621h22.592ZM99.9,112.015H82.508V94.621h17.4v17.393h0ZM82.518,94.621H67.93V80.052a.009.009,0,0,1,.009-.009H82.518Z" transform="translate(56.137 69.991)" fill="#0080ff"/>
    <path id="Trazado_816002" data-name="Trazado 816002" d="M31.621,154.632c-4.607-3.191-10.345-4.822-17.041-4.822H0v46.258H14.58c6.682,0,12.419-1.717,17.041-5.079a17.643,17.643,0,0,0,5.881-7.412,27.038,27.038,0,0,0,2.075-10.931A26.193,26.193,0,0,0,37.5,161.857a16.821,16.821,0,0,0-5.881-7.226Zm-23.093,3h4.579c5.094,0,9.286,1,12.462,2.976,3.534,2.132,5.323,6.181,5.323,12.033S29.1,182.9,25.554,185.222h0c-3.048,2.017-7.211,3.033-12.377,3.033H8.542V157.636Zm37.029,38.432h8.2v-32.58h-8.2Zm4.178-46.831a4.892,4.892,0,0,0-3.577,1.474,4.688,4.688,0,0,0-1.488,3.534,4.948,4.948,0,0,0,1.474,3.591,4.869,4.869,0,0,0,3.591,1.474,4.948,4.948,0,0,0,3.591-1.474,4.892,4.892,0,0,0,1.474-3.591,4.7,4.7,0,0,0-1.474-3.52,4.948,4.948,0,0,0-3.591-1.474Zm33.8,16.969a12.324,12.324,0,0,0-8.213-3.477,14.68,14.68,0,0,0-11.175,4.65,16.3,16.3,0,0,0-4.421,11.7,16.507,16.507,0,0,0,4.35,11.675,14.946,14.946,0,0,0,11.246,4.593,12.728,12.728,0,0,0,8.1-2.618v.744a8.606,8.606,0,0,1-2.146,6.253,7.928,7.928,0,0,1-5.881,2.175c-3.777,0-6.152-1.488-9.043-5.394l-5.58,5.366.157.215a19.831,19.831,0,0,0,5.494,4.922,16.541,16.541,0,0,0,9.114,2.361c4.865,0,8.8-1.5,11.7-4.464s4.393-6.954,4.393-11.833V163.488h-8.07v2.719Zm-2.146,19.244a7.059,7.059,0,0,1-5.623,2.418,6.981,6.981,0,0,1-5.594-2.418,9.421,9.421,0,0,1-2.118-6.367,9.681,9.681,0,0,1,2.118-6.453,7.036,7.036,0,0,1,5.594-2.432,7.11,7.11,0,0,1,5.623,2.432,9.447,9.447,0,0,1,2.146,6.453A9.264,9.264,0,0,1,81.385,185.451Zm17.241,10.617h8.2v-32.58h-8.2Zm4.178-46.831a4.892,4.892,0,0,0-3.577,1.474,4.688,4.688,0,0,0-1.488,3.534,4.948,4.948,0,0,0,1.474,3.591,4.869,4.869,0,0,0,3.591,1.474,4.948,4.948,0,0,0,3.591-1.474,4.892,4.892,0,0,0,1.474-3.591,4.7,4.7,0,0,0-1.474-3.52,4.948,4.948,0,0,0-3.591-1.474Zm21.992,5.451h-8.07v8.8h-4.693v7.469h4.693v13.535c0,4.235.844,7.269,2.518,9s4.65,2.633,8.828,2.633c1.331,0,2.676-.043,3.978-.129l.372-.029V188.5l-2.8.143c-1.946,0-3.248-.343-3.878-1.016s-.944-2.132-.944-4.307V170.943h7.626v-7.469H124.8v-8.8Zm35.77,11.246h0c-2.49-2.118-5.924-3.191-10.2-3.191a16.531,16.531,0,0,0-7.583,1.774,13.506,13.506,0,0,0-5.566,5.222l.086.1,5.251,5.022c2.161-3.448,4.564-4.65,7.755-4.65a6.416,6.416,0,0,1,4.221,1.359,4.288,4.288,0,0,1,1.617,3.491v1.588a20.862,20.862,0,0,0-6.038-.93c-4.078,0-7.4.959-9.873,2.847a9.71,9.71,0,0,0-3.763,8.156,9.4,9.4,0,0,0,3.176,7.4,11.942,11.942,0,0,0,7.912,2.69,13.83,13.83,0,0,0,8.7-3.405v2.676h8.07V175.135c0-3.963-1.273-7.054-3.777-9.2Zm-14.551,17.7a6.824,6.824,0,0,1,3.906-.973,18.557,18.557,0,0,1,6.224,1.173v3.191a10.02,10.02,0,0,1-7.083,2.49,5.024,5.024,0,0,1-3.277-.944,2.9,2.9,0,0,1-1.1-2.375,2.984,2.984,0,0,1,1.331-2.59Zm24.853,12.448h8.2V149.824h-8.2Zm37.945.7a23.852,23.852,0,1,1,23.852-23.852A23.882,23.882,0,0,1,208.813,196.783Zm0-39.29a15.438,15.438,0,1,0,15.438,15.438A15.455,15.455,0,0,0,208.813,157.493ZM261.9,184.435a22.691,22.691,0,0,1-4.121,3.806h0a7.721,7.721,0,0,1-4.25,1.1,7.445,7.445,0,0,1-5.938-2.69,11.191,11.191,0,0,1-.029-13.75,7.4,7.4,0,0,1,5.909-2.676c2.647,0,5.423,1.645,7.812,4.464L266.7,169.5a16.16,16.16,0,0,0-13.421-6.739,15.794,15.794,0,0,0-11.59,4.865,17.845,17.845,0,0,0-.014,24.324,15.738,15.738,0,0,0,11.6,4.879,16.225,16.225,0,0,0,13.95-7.254L261.9,184.45Zm33.653-16.383a12.369,12.369,0,0,0-4.707-3.877,15.275,15.275,0,0,0-6.768-1.431,13.9,13.9,0,0,0-11.132,5.022,18.606,18.606,0,0,0-4.106,12.219,17.123,17.123,0,0,0,4.507,12.148,15.71,15.71,0,0,0,11.847,4.679,16.326,16.326,0,0,0,13.478-6.639l.186-.243-5.351-5.137a22.636,22.636,0,0,1-1.846,1.874,10.218,10.218,0,0,1-2.389,1.76,9.1,9.1,0,0,1-4.135.916,8.011,8.011,0,0,1-5.594-1.989,7.515,7.515,0,0,1-2.347-4.951h21.72l.072-2.99a21.077,21.077,0,0,0-.858-6.067,17.868,17.868,0,0,0-2.59-5.294Zm-17.914,7.669a8.073,8.073,0,0,1,2.146-3.863,6.732,6.732,0,0,1,8.871.043,6.086,6.086,0,0,1,1.631,3.835H277.635Zm49.406-9.787h0c-2.49-2.118-5.924-3.191-10.2-3.191a16.531,16.531,0,0,0-7.583,1.774,13.506,13.506,0,0,0-5.566,5.222l.086.1,5.251,5.022c2.161-3.448,4.564-4.65,7.755-4.65A6.416,6.416,0,0,1,321,171.572a4.288,4.288,0,0,1,1.617,3.491v1.588a20.863,20.863,0,0,0-6.038-.93c-4.078,0-7.4.959-9.858,2.847a9.711,9.711,0,0,0-3.763,8.156,9.4,9.4,0,0,0,3.176,7.4,11.942,11.942,0,0,0,7.912,2.69,13.763,13.763,0,0,0,8.685-3.405v2.676h8.07V175.135c0-3.963-1.273-7.054-3.777-9.2Zm-14.551,17.7a6.824,6.824,0,0,1,3.906-.973,18.557,18.557,0,0,1,6.224,1.173v3.191a10.021,10.021,0,0,1-7.082,2.49,5.024,5.024,0,0,1-3.277-.944,2.9,2.9,0,0,1-1.1-2.375,2.984,2.984,0,0,1,1.331-2.59Zm49.864-17.055c-2.289-2.547-5.494-3.835-9.544-3.835a11.1,11.1,0,0,0-7.869,2.776V163.5H336.9v32.58h8.2V178.111a8.866,8.866,0,0,1,1.746-5.823,5.929,5.929,0,0,1,4.85-2.075A5.261,5.261,0,0,1,356,172.059a7.812,7.812,0,0,1,1.574,5.137v18.887h8.2V177.2C365.773,172.688,364.628,169.111,362.353,166.579Z" transform="translate(-4.26 55.789)" fill="#0080ff"/>
  </g>
</svg>
