<svg xmlns="http://www.w3.org/2000/svg" width="415.604" height="186.758" viewBox="0 0 415.604 186.758">
  <g id="Grupo_1069514" data-name="Grupo 1069514" transform="translate(-594 -3591.885)">
    <g id="Grupo_1069514-2" data-name="Grupo 1069514" transform="translate(738.559 3591.885)">
      <path id="Trazado_815992" data-name="Trazado 815992" d="M69.269,28.146h.4l-.244-.2L84.683,12.69l.03-.274a49.594,49.594,0,0,0-80.689,24.2,6.22,6.22,0,0,1,.818-.266,35.573,35.573,0,0,1,26.509-5.259A.5.5,0,0,1,31.676,31a27.51,27.51,0,0,1,37.669-2.858Z" transform="translate(11.29 0)" fill="#ea4335"/>
      <path id="Trazado_815993" data-name="Trazado 815993" d="M64.678,27.428A49.82,49.82,0,0,0,49.694,3.274L34.208,18.76A27.54,27.54,0,0,1,44.31,40.6v2.74c18.374,0,18.374,27.571,0,27.571H16.739l-.042.046V92.832h-.114l.156.16H44.31A35.858,35.858,0,0,0,64.678,27.428" transform="translate(46.515 9.184)" fill="#4285f4"/>
      <path id="Trazado_815994" data-name="Trazado 815994" d="M25.324,43.986H52.887V21.925H25.324a13.539,13.539,0,0,1-5.662-1.237L3.723,36.623l-.042.164a35.656,35.656,0,0,0,21.643,7.2" transform="translate(10.325 58.03)" fill="#34a853"/>
      <path id="Trazado_815995" data-name="Trazado 815995" d="M35.648,8a35.85,35.85,0,0,0-21.643,64.27L30,56.277a13.782,13.782,0,1,1,18.23-18.234L64.224,22.055A35.816,35.816,0,0,0,35.648,8" transform="translate(0 22.426)" fill="#fbbc05"/>
    </g>
    <g id="Grupo_1069515" data-name="Grupo 1069515" transform="translate(594 3704.933)">
      <path id="Trazado_815996" data-name="Trazado 815996" d="M72.081,61.125a28.221,28.221,0,0,1-20.4-8.368,27.264,27.264,0,0,1-8.55-20.149,27.217,27.217,0,0,1,8.55-20.152,28.151,28.151,0,0,1,20.4-8.529,27.283,27.283,0,0,1,19.554,7.889l-5.5,5.584a19.779,19.779,0,0,0-14.049-5.551,19.524,19.524,0,0,0-14.535,6.179A20.177,20.177,0,0,0,51.595,32.7a20.144,20.144,0,0,0,5.951,14.484,20.726,20.726,0,0,0,28.922.34A16.388,16.388,0,0,0,90.7,37.918H72.16V30H98.41a25.962,25.962,0,0,1,.31,4.828,24.789,24.789,0,0,1-6.777,18.237,26.282,26.282,0,0,1-19.861,8.062m60.992-5.25a18.915,18.915,0,0,1-26.165,0,17.618,17.618,0,0,1-5.359-13.129,17.631,17.631,0,0,1,5.359-13.132,18.921,18.921,0,0,1,26.165,0,17.606,17.606,0,0,1,5.344,13.132,17.629,17.629,0,0,1-5.371,13.129ZM112.684,50.71a10.021,10.021,0,0,0,14.614,0,11.038,11.038,0,0,0,3.091-7.964,11.122,11.122,0,0,0-3.091-8.013,10.168,10.168,0,0,0-14.675,0,11,11,0,0,0-3.091,8.013,10.974,10.974,0,0,0,3.121,7.964Zm60.627,5.165a18.938,18.938,0,0,1-26.183,0,17.639,17.639,0,0,1-5.344-13.129,17.594,17.594,0,0,1,5.344-13.132,18.914,18.914,0,0,1,26.183,0,17.64,17.64,0,0,1,5.344,13.132,17.685,17.685,0,0,1-5.344,13.129M152.9,50.71a10.042,10.042,0,0,0,14.632,0,11.048,11.048,0,0,0,3.088-7.964,11.132,11.132,0,0,0-3.088-8.013,10.178,10.178,0,0,0-14.684,0,11.007,11.007,0,0,0-3.088,8.013,11.035,11.035,0,0,0,3.106,7.964Zm46.848,26.911a16.107,16.107,0,0,1-10.284-3.267,19.031,19.031,0,0,1-6-7.615l7.05-2.927a11.8,11.8,0,0,0,3.495,4.6,8.716,8.716,0,0,0,5.775,1.949,9.268,9.268,0,0,0,7.193-2.784,11.263,11.263,0,0,0,2.575-8.031V56.889h-.288a11.764,11.764,0,0,1-9.656,4.172,16.75,16.75,0,0,1-12.361-5.377,17.757,17.757,0,0,1-5.292-12.938,17.922,17.922,0,0,1,5.292-13.05,16.8,16.8,0,0,1,12.361-5.411,13.41,13.41,0,0,1,5.681,1.272,11.467,11.467,0,0,1,4,2.93h.292v-2.93h7.658V58.468a19.214,19.214,0,0,1-4.907,14.374,17.334,17.334,0,0,1-12.586,4.779m.565-23.723a9.039,9.039,0,0,0,6.984-3.091,11.432,11.432,0,0,0,2.8-7.919,11.716,11.716,0,0,0-2.8-8.062,8.94,8.94,0,0,0-6.984-3.091,9.579,9.579,0,0,0-7.242,3.091,11.272,11.272,0,0,0-3.091,7.995,11.118,11.118,0,0,0,3.091,7.919,9.613,9.613,0,0,0,7.242,3.158m30.561,6.115H222.8V6.005h8.077Zm22.111,1.111a17.555,17.555,0,0,1-13-5.277,18,18,0,0,1-5.232-13.1,18.15,18.15,0,0,1,5.04-13.23,16.625,16.625,0,0,1,12.358-5.165,15.668,15.668,0,0,1,6.182,1.205,14.3,14.3,0,0,1,4.728,3.091A19.752,19.752,0,0,1,267.977,36l.838,2.107L244.092,48.266a9.264,9.264,0,0,0,8.9,5.566,10.581,10.581,0,0,0,9.061-5.1l6.182,4.172a20.733,20.733,0,0,1-5.936,5.629,16.81,16.81,0,0,1-9.307,2.593M242.674,42.181l16.43-6.823a5.625,5.625,0,0,0-2.557-2.818,8.328,8.328,0,0,0-4.233-1.075,9.507,9.507,0,0,0-6.647,2.927,9.8,9.8,0,0,0-2.994,7.788" transform="translate(-43.124 -3.923)" fill="#5d6369"/>
      <path id="Trazado_815997" data-name="Trazado 815997" d="M148.736,57.708a25.478,25.478,0,0,1-25.894-26.055,25.453,25.453,0,0,1,25.894-26.04,23.062,23.062,0,0,1,18.331,8.162l-4.457,4.312a16.835,16.835,0,0,0-13.843-6.328,18.887,18.887,0,0,0-13.758,5.5,19.258,19.258,0,0,0-5.584,14.389,19.3,19.3,0,0,0,5.584,14.4,18.885,18.885,0,0,0,13.758,5.5,19.64,19.64,0,0,0,15.449-7.224l4.445,4.439a24.079,24.079,0,0,1-8.55,6.519,26.226,26.226,0,0,1-11.374,2.414" transform="translate(119.196 -0.506)" fill="#5d6369"/>
      <rect id="Rectángulo_374329" data-name="Rectángulo 374329" width="6.389" height="49.906" transform="translate(293.422 6.184)" fill="#5d6369"/>
      <path id="Trazado_815998" data-name="Trazado 815998" d="M148.621,15.992a17.892,17.892,0,0,1,25.22,0,18.025,18.025,0,0,1,4.937,12.974,17.563,17.563,0,1,1-35.094,0,18.115,18.115,0,0,1,4.937-12.974m4.764,21.935a10.784,10.784,0,0,0,15.659,0,12.317,12.317,0,0,0,3.319-8.96A12.331,12.331,0,0,0,169.043,20a10.784,10.784,0,0,0-15.659,0,12.376,12.376,0,0,0-3.3,8.966,12.312,12.312,0,0,0,3.331,8.93Z" transform="translate(161.636 10.066)" fill="#5d6369"/>
      <path id="Trazado_815999" data-name="Trazado 815999" d="M187.2,45.277h-6.179V40.546h-.194a11.863,11.863,0,0,1-4.509,4.266,12.711,12.711,0,0,1-6.34,1.7,12.077,12.077,0,0,1-9.7-3.893,15.483,15.483,0,0,1-3.3-10.445V11.16h6.392V31q0,9.533,8.432,9.543a7.889,7.889,0,0,0,6.5-3.091,11.7,11.7,0,0,0,2.493-7.384V11.16H187.2Z" transform="translate(188.673 10.813)" fill="#5d6369"/>
      <path id="Trazado_816000" data-name="Trazado 816000" d="M184.946,56.977a14.97,14.97,0,0,1-11.423-5.232,18.526,18.526,0,0,1-4.8-12.938,18.565,18.565,0,0,1,4.8-12.956,15.048,15.048,0,0,1,11.423-5.217,14.478,14.478,0,0,1,6.987,1.679,11.686,11.686,0,0,1,4.637,4.166h.27l-.27-4.731V5.96h6.4V55.866h-6.179V51.135H196.5a11.708,11.708,0,0,1-4.634,4.169,14.371,14.371,0,0,1-6.923,1.673m1.063-5.842A10.221,10.221,0,0,0,193.7,47.8a12.51,12.51,0,0,0,3.088-8.994,12.531,12.531,0,0,0-3.088-9,10.45,10.45,0,0,0-15.452,0,12.322,12.322,0,0,0-3.091,8.963,12.325,12.325,0,0,0,3.091,8.966,10.166,10.166,0,0,0,7.758,3.395" transform="translate(212.634 0.224)" fill="#5d6369"/>
    </g>
  </g>
</svg>
