<svg xmlns="http://www.w3.org/2000/svg" width="452.002" height="132.081" viewBox="0 0 452.002 132.081">
  <g id="q5szQ4.tif" transform="translate(0 5.976)">
    <g id="Grupo_155596" data-name="Grupo 155596" transform="translate(0 -5.953)">
      <g id="Grupo_1069520" data-name="Grupo 1069520" transform="translate(156.252 36.977)">
        <path id="Trazado_197800" data-name="Trazado 197800" d="M161.4-4112.577c-1.4,2.2-1.3,4.843-2.2,7.213-4.862,12.847-15.887,20.386-30.768,20.746-6.006.145-12.02-.048-18.028.064-2,.038-2.729-.4-2.719-2.587.09-19.834.049-39.676.061-59.51,0-1.154-.454-2.61,1.647-2.515,10.047.457,20.193-1.138,30.14,1.3,11.92,2.921,19.37,10.1,21.244,22.456.036.241.408.431.623.644Zm-44.758-4.408c0,7.563.05,15.124-.035,22.682-.021,1.848.424,2.658,2.446,2.552,2.944-.15,5.9.056,8.851-.055,11.749-.447,19.907-6.511,23.029-17.02a37.449,37.449,0,0,0,1.188-9.009c.617-13.164-5.635-21.3-18.512-23.65-4.7-.857-9.519-.158-14.269-.436-2.447-.142-2.762.888-2.736,2.937C116.7-4131.649,116.638-4124.318,116.638-4116.985Z" transform="translate(134.355 4150.102)" fill="#12263f"/>
        <path id="Trazado_197804" data-name="Trazado 197804" d="M-38.712-4117.644c-.121,9.283-2.14,18-9.114,24.635C-58.361-4082.989-71-4081.651-84.1-4086.4c-12.452-4.51-17.251-14.936-18.076-27.332-.627-9.428,1.048-18.429,7.314-26.006,7.287-8.806,17.147-11.285,28.03-10.643C-49.13-4149.332-38.428-4136.765-38.712-4117.644Zm-54.2.978a32.778,32.778,0,0,0,.816,8.013c2.29,10.269,9.863,16.948,19.777,17.361,11.459.478,19.372-4.832,22.779-15.3a36.048,36.048,0,0,0,1.048-17.684c-1.481-8.354-5.136-15.292-13.953-17.8-9.092-2.584-17.62-1.459-24.281,5.938C-91.487-4130.846-93.06-4124.346-92.911-4116.667Z" transform="translate(201.124 4150.485)" fill="#12263f"/>
        <path id="Trazado_197807" data-name="Trazado 197807" d="M59.729-4125.609q0,8.968,0,17.946c0,14.521-8.033,23.017-22.7,24.076a35.2,35.2,0,0,1-10.792-.888C15.3-4087.1,8.983-4094.856,8.87-4106.055c-.138-13.547,0-27.087-.071-40.63-.01-1.86.446-2.488,2.427-2.508,6.311-.068,6.31-.16,6.31,5.981q0,17.27,0,34.538c.008,14.221,11.853,21.916,25.051,16.173,6.2-2.7,8.249-8.124,8.323-14.306.158-13.089.128-26.181-.02-39.273-.029-2.564.638-3.206,3.171-3.126,5.662.179,5.667.036,5.667,5.65Q59.73-4134.579,59.729-4125.609Z" transform="translate(165.798 4150.086)" fill="#12263f"/>
        <path id="Trazado_197810" data-name="Trazado 197810" d="M-247.111-4116.336a35.763,35.763,0,0,1,1.567-13.015c4.286-14.4,15.77-22.012,31.528-21.064A47.669,47.669,0,0,1-201.5-4147.6c3.178,1.084,3.867,2.39,2.437,5.583-1.132,2.523-1.977,3.2-4.526,1.853a24.88,24.88,0,0,0-14.084-2.908c-11.242,1.1-16.931,6.288-19.5,17.369a37.252,37.252,0,0,0,.456,19.033c3.332,11.457,12.587,16.1,24.053,15.178a30.533,30.533,0,0,0,11.407-3c2.056-1.032,2.607-.178,3.166,1.583,1.5,4.724,1.536,4.662-3.279,6.4a40.854,40.854,0,0,1-23.39,1.575c-13.516-3.1-21.6-13.079-22.34-27.011C-247.176-4113.4-247.109-4114.873-247.111-4116.336Z" transform="translate(247.202 4150.494)" fill="#12263f"/>
        <path id="Trazado_197812" data-name="Trazado 197812" d="M-159.01-4117.086c0-9.7.077-19.4-.056-29.093-.031-2.327.519-3.072,2.96-3.023,6,.127,6,0,6,5.979,0,16.014.052,32.026-.057,48.04-.016,2.316.5,3.051,2.923,3,7.484-.161,14.974.009,22.459-.1,2.011-.033,2.691.279,2.46,2.527-.533,5.169-.381,5.185-5.633,5.185-9.416,0-18.832-.056-28.247.043-2.154.023-2.9-.476-2.871-2.785C-158.93-4097.238-159.01-4107.163-159.01-4117.086Z" transform="translate(219.178 4150.085)" fill="#12263f"/>
      </g>
      <g id="Grupo_1069267" data-name="Grupo 1069267" transform="translate(0 -0.023)">
        <g id="Grupo_1069270" data-name="Grupo 1069270" transform="translate(0.031 110.623)">
          <path id="Trazado_816020" data-name="Trazado 816020" d="M4613.789,1379.209h10.764v-8.6h4.819v21.223h-4.819v-8.861h-10.764v8.861h-4.829V1370.61h4.829v8.6" transform="translate(-4608.96 -1370.609)" fill="#333"/>
          <path id="Trazado_816021" data-name="Trazado 816021" d="M4821.447,1383.315c0,3.744,1.184,5.314,5.172,5.314s5.153-1.57,5.153-5.314V1370.6h4.834v12.829c0,2.722-.329,4.578-1.355,5.7-1.878,2.072-4.628,2.927-8.632,2.927s-6.781-.855-8.66-2.927c-1.06-1.144-1.31-3.01-1.31-5.7V1370.6h4.8v12.715" transform="translate(-4792.266 -1370.6)" fill="#333"/>
          <path id="Trazado_816022" data-name="Trazado 816022" d="M5003.393,1382.993h6.856l-3.492-8.161-3.364,8.161m6.108-12.393,9.793,21.222h-5.375l-2.113-5.047h-9.974l-2.05,5.047h-5.113l9.706-21.222h5.128Z" transform="translate(-4949.383 -1370.6)" fill="#333"/>
          <path id="Trazado_816023" data-name="Trazado 816023" d="M5184.105,1370.61l5.309,16.309,4.472-16.309h5.7l5.15,16.309,4.948-16.309h4.956l-7.1,21.223h-5.92l-4.9-15.84-4.278,15.84h-5.888l-7.643-21.223h5.185" transform="translate(-5112.003 -1370.609)" fill="#333"/>
          <path id="Trazado_816024" data-name="Trazado 816024" d="M5497.481,1379.238h13.349v3.692h-13.392c.043,3.825,1.664,5.212,5.456,5.212h7.936v3.69h-8.157c-2.774,0-4.923-.2-7.157-1.863-2.366-1.734-3.516-4.516-3.516-8.358,0-7.509,3.425-11,10.8-11h8.028v3.7h-7.936c-3.472,0-5.226,1.6-5.413,4.931" transform="translate(-5388.326 -1370.609)" fill="#333"/>
          <rect id="Rectángulo_374332" data-name="Rectángulo 374332" width="5.047" height="21.222" transform="translate(126.758 0.001)" fill="#333"/>
        </g>
        <path id="Trazado_816025" data-name="Trazado 816025" d="M4736.321,637.636a.415.415,0,0,0,.105-.483h.013a302.1,302.1,0,0,0-36.668-59.543s-11.528,10.946-10.708,21.914a19.414,19.414,0,0,0,6.671,13.215c10.064,9.813,34.4,22.187,40.048,24.994a.463.463,0,0,0,.542-.094" transform="translate(-4679.591 -560.088)" fill="#f13732"/>
        <path id="Trazado_816026" data-name="Trazado 816026" d="M4751.426,1157.46a.568.568,0,0,0-.536-.365v-.015l-40.5,1.414c4.388,7.844,11.8,13.931,19.5,12.067,5.323-1.325,17.365-9.734,21.345-12.588l-.005-.012c.3-.277.2-.5.2-.5" transform="translate(-4698.449 -1071.525)" fill="#f13732"/>
        <path id="Trazado_816027" data-name="Trazado 816027" d="M4662.26,895.8c.2-.316-.146-.6-.146-.6l.009,0c-17.791-12.02-52.28-30.455-52.28-30.455a24.017,24.017,0,0,0,13.87,29.646,24.557,24.557,0,0,0,7.748,1.705c.609.1,24.1.01,30.394-.018a.511.511,0,0,0,.4-.278" transform="translate(-4608.687 -813.508)" fill="#f13732"/>
        <path id="Trazado_816028" data-name="Trazado 816028" d="M4932.81,428.371c-1.766.162-6.526,1.251-6.526,1.251a18.782,18.782,0,0,0-13.261,12.513c-1.957,6.132.056,12.867.056,12.867,3.573,15.9,21.195,42.025,24.985,47.509.262.275.478.176.478.176a.5.5,0,0,0,.384-.5c5.822-58.343-6.118-73.817-6.118-73.817" transform="translate(-4876.537 -428.37)" fill="#f13732"/>
        <path id="Trazado_816029" data-name="Trazado 816029" d="M5187.827,502.679a.474.474,0,0,0,.59-.221h.01c3.872-5.631,21.382-31.61,24.958-47.448,0,0,1.924-7.681.056-12.866a18.8,18.8,0,0,0-13.393-12.513s-3.087-.783-6.369-1.25c0,0-12,15.479-6.167,73.855h.005a.47.47,0,0,0,.305.444" transform="translate(-5118.142 -428.379)" fill="#f13732"/>
        <path id="Trazado_816030" data-name="Trazado 816030" d="M5280.373,1157.328a.6.6,0,0,0-.46.315.573.573,0,0,0,.153.545v.009c3.873,2.787,15.628,11.008,21.3,12.617,0,0,10.472,3.559,19.577-12.073l-40.565-1.421v.007" transform="translate(-5201.093 -1071.737)" fill="#f13732"/>
        <path id="Trazado_816031" data-name="Trazado 816031" d="M5326.77,863.92s-34.431,18.5-52.241,30.513l.011.014a.542.542,0,0,0-.217.583s.173.313.422.313v.007c6.366.007,30.5.028,31.116-.075a24.213,24.213,0,0,0,6.965-1.612,23.762,23.762,0,0,0,13.046-12.484,24.506,24.506,0,0,0,.9-17.26" transform="translate(-5196.154 -812.784)" fill="#f13732"/>
        <path id="Trazado_816032" data-name="Trazado 816032" d="M5247.291,637.628a.509.509,0,0,0,.542.047c5.8-2.879,29.953-15.183,39.958-24.945,0,0,6.323-5.084,6.66-13.266.723-11.351-10.684-21.863-10.684-21.863a301.433,301.433,0,0,0-36.605,59.384h.011a.568.568,0,0,0,.12.644" transform="translate(-5172.163 -560.08)" fill="#f13732"/>
      </g>
    </g>
  </g>
</svg>
