<svg xmlns="http://www.w3.org/2000/svg" width="438.041" height="153.59" viewBox="0 0 438.041 153.59">
  <g id="Grupo_1069529" data-name="Grupo 1069529" transform="translate(-888.159 -4949.09)">
    <g id="Grupo_1069529-2" data-name="Grupo 1069529" transform="translate(888.159 5050.115)">
      <path id="Trazado_816131" data-name="Trazado 816131" d="M769.1,177.1h-5.676V144.768c0-2.468.247-5.677.494-9.378h-.247a21.046,21.046,0,0,1-1.481,4.688L745.9,176.85h-2.714L726.9,140.573a24.266,24.266,0,0,1-1.481-4.935h-.247a90.551,90.551,0,0,1,.247,9.377V177.1h-5.429V129.221h7.4L742.2,162.783a50.074,50.074,0,0,1,2.221,5.677h.247a53.443,53.443,0,0,0,2.221-5.923l15.055-33.316H769.1Zm16.288-46.642a2.86,2.86,0,0,1-.987,2.467,3.168,3.168,0,0,1-2.468.987,2.861,2.861,0,0,1-2.468-.987,3.37,3.37,0,0,1-.987-2.714,3.373,3.373,0,0,1,3.455-3.455,2.86,2.86,0,0,1,2.468.987,4.115,4.115,0,0,1,.987,2.715m-.741,46.642h-5.429v-34.3h5.429Zm32.329-1.481a16.638,16.638,0,0,1-9.377,2.468,15.946,15.946,0,0,1-14.314-8.39,18.065,18.065,0,0,1-1.974-8.883c0-5.677,1.727-10.118,4.936-13.573s7.65-5.183,13.08-5.183a16.21,16.21,0,0,1,7.9,1.728v5.676a14.02,14.02,0,0,0-8.144-2.714,11.2,11.2,0,0,0-8.638,3.7c-2.221,2.467-3.209,5.922-3.209,9.871s.987,7.158,3.209,9.378a11.341,11.341,0,0,0,8.39,3.455,13.4,13.4,0,0,0,8.391-2.962v5.429h-.247Zm24.185-27.145a7.061,7.061,0,0,0-4.2-.987,6.937,6.937,0,0,0-5.923,3.454,15.8,15.8,0,0,0-2.221,8.884v17.522h-5.429v-34.55h5.429v7.157h.247a13.033,13.033,0,0,1,3.456-5.676,7.42,7.42,0,0,1,5.428-1.975,9.682,9.682,0,0,1,3.209.494Zm34.3,11.351c0,5.429-1.481,9.872-4.689,13.08a16.538,16.538,0,0,1-12.339,4.935c-5.183,0-9.131-1.728-12.093-4.935s-4.442-7.4-4.442-12.833c0-5.676,1.482-10.118,4.689-13.326s7.4-4.936,12.832-4.936c5.182,0,9.131,1.481,11.846,4.69C874.231,149.95,875.465,154.392,875.465,159.822Zm-5.43.247c0-4.2-.987-7.65-2.961-9.872a10.419,10.419,0,0,0-8.144-3.455,10.956,10.956,0,0,0-8.39,3.455c-1.975,2.468-2.961,5.676-2.961,9.872s.987,7.4,3.208,9.624a10.958,10.958,0,0,0,8.391,3.455c3.455,0,6.416-1.234,8.144-3.455s2.714-5.429,2.714-9.624m30.848,7.9a8.776,8.776,0,0,1-3.454,7.157c-2.22,1.975-5.429,2.714-9.131,2.714a17.56,17.56,0,0,1-8.391-1.974V169.94a13.6,13.6,0,0,0,8.883,3.208c4.443,0,6.417-1.481,6.417-4.689a4.694,4.694,0,0,0-1.235-3.209,20.167,20.167,0,0,0-5.676-3.208,16.945,16.945,0,0,1-6.416-4.2,9,9,0,0,1-1.974-5.924,9.5,9.5,0,0,1,3.454-7.156A12.657,12.657,0,0,1,892,141.8a14.9,14.9,0,0,1,7.4,1.729v5.429a12.328,12.328,0,0,0-7.651-2.467,8.516,8.516,0,0,0-4.442,1.233,4.715,4.715,0,0,0-1.728,3.455,4.879,4.879,0,0,0,1.234,3.455A26.5,26.5,0,0,0,892,157.6c3.209,1.481,5.43,2.714,6.91,4.443A10.042,10.042,0,0,1,900.883,167.966Zm37.264-8.144c0,5.429-1.481,9.872-4.688,13.08a16.538,16.538,0,0,1-12.339,4.935c-5.181,0-9.131-1.728-12.092-4.935s-4.443-7.4-4.443-12.833c0-5.676,1.481-10.118,4.688-13.326s7.4-4.936,12.833-4.936c5.182,0,9.131,1.481,11.846,4.69A20.974,20.974,0,0,1,938.148,159.822Zm-5.676.247c0-4.2-.987-7.65-2.961-9.872a10.421,10.421,0,0,0-8.144-3.455,10.957,10.957,0,0,0-8.39,3.455c-1.974,2.468-2.962,5.676-2.962,9.872s.988,7.4,3.208,9.624a10.959,10.959,0,0,0,8.391,3.455c3.455,0,6.417-1.234,8.144-3.455,1.974-2.22,2.714-5.429,2.714-9.624M960.605,131.2a8.168,8.168,0,0,0-3.7-.987c-3.949,0-5.677,2.468-5.677,7.156v5.429h8.145v4.689h-8.145V177.1h-5.675V147.484h-5.924v-4.689h5.924v-5.429a12.019,12.019,0,0,1,2.961-8.39,11.189,11.189,0,0,1,8.144-3.454,15.469,15.469,0,0,1,3.949.494Z" transform="translate(-719.992 -125.52)" fill="#303035"/>
      <path id="Trazado_816132" data-name="Trazado 816132" d="M2104.767,194.271a10.222,10.222,0,0,1-5.182.986c-5.923,0-8.885-3.454-8.885-10.117V164.9h-5.923v-4.69h5.923v-8.39l5.429-1.727v10.117h8.638v4.69h-8.638v19.249a8.487,8.487,0,0,0,1.235,4.935c.74.987,1.974,1.481,3.947,1.481a5.226,5.226,0,0,0,3.456-.987Zm57.5.247H2156.1l-4.936-13.327h-20.483l-4.689,13.327h-6.169l18.015-47.876h5.924Zm-13.08-18.509-7.65-20.484a12.1,12.1,0,0,1-.74-3.209h-.247a21.472,21.472,0,0,1-.74,3.209l-7.4,20.484Zm43.927-14.313-20.483,28.133h19.989v4.688h-28.133V192.79l20.237-27.887h-18.262v-4.689h26.406v1.481h.246Zm32.824,32.822h-5.43v-5.429h-.247c-2.22,4.2-5.677,6.169-10.612,6.169-8.144,0-12.34-4.935-12.34-14.56V160.214h5.43v19.743c0,7.157,2.714,10.859,8.39,10.859a8.454,8.454,0,0,0,6.665-2.961c1.726-1.975,2.467-4.443,2.467-7.651V160.214h5.43v34.3h.247Zm27.146-28.626a7.065,7.065,0,0,0-4.2-.986,6.933,6.933,0,0,0-5.922,3.454,15.785,15.785,0,0,0-2.221,8.884v17.523h-5.43v-34.55h5.43v7.157h.247a13.03,13.03,0,0,1,3.454-5.676,7.422,7.422,0,0,1,5.429-1.975,9.7,9.7,0,0,1,3.21.494Zm30.6,12.832H2259.5q0,5.922,2.961,8.884a11.006,11.006,0,0,0,8.144,2.962,16.839,16.839,0,0,0,10.611-3.7v5.182c-2.962,2.221-6.909,3.208-11.845,3.208s-8.638-1.481-11.352-4.688-4.2-7.4-4.2-13.08a23.6,23.6,0,0,1,1.975-9.378,16,16,0,0,1,5.677-6.416,15.531,15.531,0,0,1,8.144-2.221q6.664,0,10.365,4.443c2.467,2.961,3.7,6.91,3.7,12.092Zm-5.676-4.688q0-4.813-2.22-7.4a7.665,7.665,0,0,0-6.17-2.714,8.963,8.963,0,0,0-6.416,2.714,13.047,13.047,0,0,0-3.455,7.157h18.261Z" transform="translate(-1845.643 -142.941)" fill="#303035"/>
    </g>
    <path id="Trazado_816133" data-name="Trazado 816133" d="M59.181,0,27.243,27.692,0,76.6H24.568Zm4.247,6.478L49.8,44.89,75.93,77.721l-50.7,8.711h83.086Z" transform="translate(1053.652 4949.089)" fill="#0072c6"/>
  </g>
</svg>
