<svg xmlns="http://www.w3.org/2000/svg" width="389.674" height="137.207" viewBox="0 0 389.674 137.207">
  <g id="Grupo_1069534" data-name="Grupo 1069534" transform="translate(-818.432 -5476.768)">
    <path id="Oracle" d="M1343.95,1775.929h24.417l-12.7-20.51-23.44,38.091h-10.743l29.3-45.9q1.465-2.93,5.859-2.93,2.93,0,5.86,2.93l29.3,45.9h-10.743l-4.884-8.79h-24.416Zm113.294,8.791v-39.068h-8.79v42.974c0,.977.976,1.953.976,2.93a3.589,3.589,0,0,0,2.931.977h42l5.86-8.79h-42.974Zm-152.36-6.837c8.79.976,16.6-5.861,17.581-14.651s-5.861-16.6-14.651-17.581h-42v47.857h8.79v-39.066h30.277c3.907.975,7.813,4.882,6.836,8.79a6.675,6.675,0,0,1-6.836,6.836h-26.369l27.347,24.417h13.673l-18.556-15.627Zm-97.667,15.627a24.417,24.417,0,0,1,0-48.833h28.324a24.417,24.417,0,0,1,0,48.833h-28.324Zm27.346-8.79c8.79,0,15.626-6.836,15.626-14.651,0-8.79-6.836-15.626-14.649-15.626h-28.324c-8.79,0-15.626,6.836-15.626,14.649,0,8.791,6.836,15.627,14.649,15.627h28.324Zm175.8,8.79a24.417,24.417,0,1,1,0-48.833h33.207l-5.859,8.79h-27.348c-8.79,0-15.626,7.814-14.65,15.626a15.02,15.02,0,0,0,14.65,14.65h33.207l-5.859,8.79Zm112.317-8.79c-6.836,0-12.7-4.884-14.649-11.72H1547.1l5.859-8.79H1508.03c1.953-6.836,7.813-11.72,14.649-11.72h27.347l5.859-8.79H1522.68a24.417,24.417,0,0,0,0,48.833H1551l5.859-8.79-34.184.977" transform="translate(-361.03 3733.068)" fill="#e50019"/>
    <path id="Trazado_816134" data-name="Trazado 816134" d="M5.173-2520.954H-186.119c-.849,0-1.7-.013-2.547,0-.759.01-1.218-.2-1.238-1.1-.023-1,.4-1.351,1.341-1.3.658.041,1.32.005,1.98.005H196.568c.754,0,1.509.007,2.263.015.978.008.929.712.938,1.38.01.706-.354,1-1.039.995-.849-.01-1.7,0-2.547,0Z" transform="translate(1008.337 8069.623)" fill="#12263f"/>
    <path id="IBM_Cloud" data-name="IBM Cloud" d="M0,27.652C0,11.21,8.47,2.159,21.59,2.159c8.968,0,14.615,3.654,18.186,11.459l-9.134,4.733c-1.246-4.069-3.82-6.726-9.051-6.726-6.228,0-10.3,4.152-10.3,11.875v7.806c0,7.64,4.152,11.875,10.3,11.875,5.232,0,8.221-3.239,9.716-7.224l8.636,5.065c-3.654,7.391-9.383,11.626-18.352,11.626C8.47,52.481,0,44.094,0,27.652Zm57.048,24c-7.058,0-10.3-3.571-10.3-10.048V0h10.3V43.6h4.567v8.055ZM65.6,33.3C65.6,21.507,72,14.2,82.791,14.2S99.98,21.507,99.98,33.3,93.586,52.481,82.791,52.481,65.6,45.091,65.6,33.3Zm23.583,3.737V29.562c0-4.567-2.408-7.224-6.394-7.224S76.4,24.995,76.4,29.562v7.474c0,4.567,2.408,7.224,6.394,7.224C86.776,44.343,89.185,41.686,89.185,37.036Zm39.693,8.47h-.332c-1.246,3.737-4.235,6.975-10.3,6.975-7.474,0-11.459-5.231-11.459-14.449v-23h10.3V37.119c0,4.484,1.495,6.975,5.231,6.975,3.239,0,6.477-1.827,6.477-5.315V14.947h10.3V51.568h-10.3c.083.083.083-6.062.083-6.062Zm42.433,0h-.332c-1.08,3.986-5.065,6.975-9.882,6.975-9.3,0-14.117-6.726-14.117-19.182S151.8,14.2,161.1,14.2c4.733,0,8.8,2.906,9.882,6.975h.332V0h10.3V51.651h-10.3Zm0-6.809V27.9c0-3.322-2.823-5.4-6.726-5.4s-6.726,2.989-6.726,7.64v6.311c0,4.567,2.823,7.64,6.726,7.64S171.311,42.1,171.311,38.7Z" transform="translate(917.998 5561.328)" fill="#231f20"/>
  </g>
</svg>
