<svg xmlns="http://www.w3.org/2000/svg" xmlns:xlink="http://www.w3.org/1999/xlink" width="421.742" height="247.594" viewBox="0 0 421.742 247.594">
  <defs>
    <filter id="Rect치ngulo_35573" x="0" y="0" width="421.742" height="247.594" filterUnits="userSpaceOnUse">
      <feOffset dy="3" input="SourceAlpha"/>
      <feGaussianBlur stdDeviation="3" result="blur"/>
      <feFlood flood-opacity="0.161"/>
      <feComposite operator="in" in2="blur"/>
      <feComposite in="SourceGraphic"/>
    </filter>
  </defs>
  <g transform="matrix(1, 0, 0, 1, 0, 0)" filter="url(#Rect치ngulo_35573)">
    <rect id="Rect치ngulo_35573-2" data-name="Rect치ngulo 35573" width="403.742" height="229.594" rx="17" transform="translate(9 6)" fill="#ffb476"/>
  </g>
  <path id="Trazado_816909" data-name="Trazado 816909" d="M88.512-49.383q0,24.773-10.254,37.9T48.234,1.641q-19.523,0-29.859-12.879T7.793-48.152V-70.137q0-25.02,10.377-37.98t29.9-12.961q19.523,0,29.859,12.838T88.512-71.367ZM64.8-73.5q0-14.848-4.061-21.615T48.07-101.883q-8.367,0-12.346,6.439T31.5-75.3v29.039q0,14.6,3.979,21.7t12.756,7.1q8.7,0,12.551-6.809T64.8-45.117Zm63.82,3.281h12.633q9.023,0,13.371-4.512t4.348-11.977q0-7.219-4.307-11.238t-11.854-4.02a17.494,17.494,0,0,0-11.4,3.732,11.934,11.934,0,0,0-4.594,9.721H103.113a29.155,29.155,0,0,1,5.045-16.775,33.617,33.617,0,0,1,14.109-11.607,47.089,47.089,0,0,1,19.975-4.184q18.949,0,29.7,9.064t10.746,24.979a25.132,25.132,0,0,1-5,15.094,32.51,32.51,0,0,1-13.125,10.582q10.09,3.609,15.053,10.828a29.372,29.372,0,0,1,4.963,17.063q0,15.914-11.607,25.512t-30.721,9.6q-17.883,0-29.244-9.434T101.637-32.73h23.707a13.735,13.735,0,0,0,5.045,10.992,18.59,18.59,0,0,0,12.428,4.266q8.449,0,13.248-4.471t4.8-11.854q0-17.883-19.687-17.883H128.625Z" transform="translate(194.666 182)" fill="#f7a969"/>
</svg>
