<svg xmlns="http://www.w3.org/2000/svg" xmlns:xlink="http://www.w3.org/1999/xlink" width="68.443" height="58.678" viewBox="0 0 68.443 58.678">
  <defs>
    <clipPath id="clip-path">
      <path id="path21" d="M0-682.665H51.429v51.429H0Z" transform="translate(0 682.665)" fill="#12263f"/>
    </clipPath>
  </defs>
  <g id="Grupo_1070047" data-name="Grupo 1070047" transform="translate(-441 -4640.26)">
    <rect id="Rectángulo_46663" data-name="Rectángulo 46663" width="68.443" height="58.678" transform="translate(441 4640.26)" fill="#ffb476"/>
    <g id="g15" transform="translate(440.507 5330.174)">
      <g id="g17" transform="translate(9 -682.665)">
        <g id="g19" clip-path="url(#clip-path)">
          <g id="g25" transform="translate(36.225 14.199)">
            <path id="path27" d="M0-72.972a2.973,2.973,0,0,0,2.973-2.973A2.973,2.973,0,0,0,0-78.917" transform="translate(0 78.917)" fill="none" stroke="#12263f" stroke-linecap="round" stroke-linejoin="round" stroke-miterlimit="10" stroke-width="1.7"/>
          </g>
          <g id="g29" transform="translate(15.548 14.195)">
            <path id="path31" d="M-3.115,0c-.73,5.158-.159,11.387,5.411,14.916a8.437,8.437,0,0,0,9.009,0C16.748,11.467,17.418,5.44,16.763.353" transform="translate(3.369)" fill="none" stroke="#12263f" stroke-linecap="round" stroke-linejoin="round" stroke-miterlimit="10" stroke-width="1.7"/>
          </g>
          <g id="g33" transform="translate(30.725 29.075)">
            <path id="path35" d="M-23.093-56.2l-1.053-.415a1.309,1.309,0,0,1-.829-1.218v-2.946" transform="translate(24.975 60.781)" fill="none" stroke="#12263f" stroke-linecap="round" stroke-linejoin="round" stroke-miterlimit="10" stroke-width="1.7"/>
          </g>
          <g id="g37" transform="translate(5.762 36.617)">
            <path id="path39" d="M-68.051,0l-.578.228a5.237,5.237,0,0,0-2.892,2.808,25.627,25.627,0,0,0-2.074,10.1v.923h39.9v-.923a25.627,25.627,0,0,0-2.074-10.1A5.236,5.236,0,0,0-38.658.228" transform="translate(73.596)" fill="none" stroke="#12263f" stroke-linecap="round" stroke-linejoin="round" stroke-miterlimit="10" stroke-width="1.7"/>
          </g>
          <g id="g41" transform="translate(18.683 28.968)">
            <path id="path43" d="M-24.8,0V3.052a1.309,1.309,0,0,1-.829,1.218l-1.191.47" transform="translate(26.816)" fill="none" stroke="#12263f" stroke-linecap="round" stroke-linejoin="round" stroke-miterlimit="10" stroke-width="1.7"/>
          </g>
          <g id="g45" transform="translate(12.361 14.199)">
            <path id="path47" d="M-36.486-72.972a2.973,2.973,0,0,1-2.973-2.973,2.973,2.973,0,0,1,2.973-2.973" transform="translate(39.459 78.917)" fill="none" stroke="#12263f" stroke-linecap="round" stroke-linejoin="round" stroke-miterlimit="10" stroke-width="1.7"/>
          </g>
          <g id="g49" transform="translate(15.443 0.753)">
            <path id="path51" d="M-199.514-11.951q.727.233,1.435.518a5.315,5.315,0,0,1,3.309,5.418L-195.532.87a7.758,7.758,0,0,1-2.835-6.234.186.186,0,0,1,.013-.046.142.142,0,0,0-.234-.143c-.949.9-3.43,2.618-6.923.42a5.635,5.635,0,0,0-1.692-.705,9.609,9.609,0,0,0-5.5.3.025.025,0,0,0-.017.021l-.279,2.326a3.937,3.937,0,0,1-1,2.179l-1.548,1.7-.231-7.188a5.315,5.315,0,0,1,3.266-5l.378-.158a17.616,17.616,0,0,1,9.646-1.01" transform="translate(215.769 12.924)" fill="none" stroke="#12263f" stroke-linecap="round" stroke-linejoin="round" stroke-miterlimit="10" stroke-width="1.7"/>
          </g>
          <g id="g53" transform="translate(11.603 33.742)">
            <path id="path55" d="M0-116.621V-122.9a3.227,3.227,0,0,1,3.227-3.227H25.435a3.227,3.227,0,0,1,3.227,3.227v13.356" transform="translate(0 126.122)" fill="none" stroke="#12263f" stroke-linecap="round" stroke-linejoin="round" stroke-miterlimit="10" stroke-width="1.7"/>
          </g>
          <g id="g57" transform="translate(11.603 46.257)">
            <path id="path59" d="M0-50.344v-4.1" transform="translate(0 54.445)" fill="none" stroke="#12263f" stroke-linecap="round" stroke-linejoin="round" stroke-miterlimit="10" stroke-width="1.7"/>
          </g>
          <g id="g61" transform="translate(23.453 39.728)">
            <path id="path63" d="M-60.891-30.445a2.48,2.48,0,0,1-2.48,2.48,2.48,2.48,0,0,1-2.481-2.48,2.48,2.48,0,0,1,2.481-2.48A2.48,2.48,0,0,1-60.891-30.445Z" transform="translate(65.852 32.925)" fill="none" stroke="#12263f" stroke-linecap="round" stroke-linejoin="round" stroke-miterlimit="10" stroke-width="1.7"/>
          </g>
        </g>
      </g>
    </g>
  </g>
</svg>
