<svg id="Grupo_161745" data-name="Grupo 161745" xmlns="http://www.w3.org/2000/svg" xmlns:xlink="http://www.w3.org/1999/xlink" width="56.612" height="56.612" viewBox="0 0 56.612 56.612">
  <defs>
    <radialGradient id="radial-gradient" cx="0.076" cy="0.019" r="1.465" gradientTransform="translate(0.001)" gradientUnits="objectBoundingBox">
      <stop offset="0" stop-color="#f6f6f7"/>
      <stop offset="0.477" stop-color="#f9f9fa"/>
      <stop offset="0.715" stop-color="#fff"/>
    </radialGradient>
  </defs>
  <g id="Grupo_42274" data-name="Grupo 42274" transform="translate(0 0)">
    <g id="Grupo_18423" data-name="Grupo 18423" transform="translate(0 0)">
      <g id="Grupo_18421" data-name="Grupo 18421">
        <g id="Grupo_18420" data-name="Grupo 18420">
          <g id="Grupo_18419" data-name="Grupo 18419">
            <path id="Trazado_40936" data-name="Trazado 40936" d="M251.235,2174.026a28.306,28.306,0,1,1-28.306-28.305A28.305,28.305,0,0,1,251.235,2174.026Z" transform="translate(-194.623 -2145.721)" fill="#fff"/>
          </g>
        </g>
      </g>
      <path id="Trazado_40937" data-name="Trazado 40937" d="M251.366,2174.171a28.305,28.305,0,1,0-28.306,28.306A28.192,28.192,0,0,0,251.366,2174.171Z" transform="translate(-194.754 -2145.866)" fill="url(#radial-gradient)"/>
      <path id="Trazado_40938" data-name="Trazado 40938" d="M245.948,2175.459a21.606,21.606,0,1,0-21.606,21.606A21.525,21.525,0,0,0,245.948,2175.459Z" transform="translate(-195.951 -2147.06)" fill="none" stroke="#f95035" stroke-miterlimit="10" stroke-width="2"/>
      <g id="Grupo_18422" data-name="Grupo 18422" transform="translate(5.015 15.892)">
        <path id="Trazado_40939" data-name="Trazado 40939" d="M249.28,2164.488a28.309,28.309,0,0,1-48.735,28.188,28.219,28.219,0,0,0,48.735-28.188Z" transform="translate(-200.545 -2164.488)" fill="#eceef0"/>
      </g>
    </g>
  </g>
  <g id="_6UQ8AX.tif" data-name="6UQ8AX.tif" transform="translate(18.08 15.185)">
    <g id="Grupo_161614" data-name="Grupo 161614" transform="translate(0)">
      <path id="Trazado_199717" data-name="Trazado 199717" d="M1346.2,352.59a3.156,3.156,0,0,1-1.419-.676,2.635,2.635,0,0,1-.945-2.007q-.008-9.322-.006-18.645a.762.762,0,0,1,.241-.572q2.114-2.11,4.224-4.225a.788.788,0,0,1,.595-.248q6,.006,12,0a2.731,2.731,0,0,1,2.714,2.673q.011,5.987,0,11.975c0,.05,0,.1-.007.166h-1.1v-.321q0-5.769,0-11.537a1.763,1.763,0,0,0-.656-1.517,1.741,1.741,0,0,0-1.108-.338h-11.175c-.067,0-.135.009-.232.016v.284c0,.781,0,1.562,0,2.343a1.651,1.651,0,0,1-1.569,1.74c-.381.037-.769.006-1.175.006V330.6c.326,0,.649,0,.971,0,.461,0,.653-.2.655-.66,0-.588,0-1.176,0-1.816-.1.089-.154.137-.206.189-.972.971-1.945,1.939-2.909,2.918a.594.594,0,0,0-.159.376q-.011,9.039-.005,18.078a1.628,1.628,0,0,0,1.233,1.734,2.278,2.278,0,0,0,.584.061q6.965,0,13.93,0a1.635,1.635,0,0,0,1.757-1.238,2.756,2.756,0,0,0,.059-.611c.01-.29,0-.58,0-.885h1.087a3.643,3.643,0,0,1-.677,2.91,2.792,2.792,0,0,1-1.506.876,1.705,1.705,0,0,0-.169.053Z" transform="translate(-1343.827 -326.217)" fill="#12263f"/>
      <path id="Trazado_199718" data-name="Trazado 199718" d="M1652.532,551.962a4.688,4.688,0,0,1-.335.419q-4.009,4.018-8.022,8.032a.956.956,0,0,1-.816.335c-.374-.034-.754,0-1.132-.009-.477-.007-.675-.2-.685-.668s-.035-.928,0-1.389a.91.91,0,0,1,.268-.5c.619-.643,1.257-1.267,1.888-1.9l6.207-6.208c.444-.444.676-.444,1.121,0,.358.358.719.713,1.072,1.076.154.158.291.334.435.5Zm-8.943,7.388,7.521-7.517-.65-.675-7.511,7.517Z" transform="translate(-1626.164 -538.208)" fill="#12263f"/>
      <path id="Trazado_199719" data-name="Trazado 199719" d="M1444.538,475.136h4.171c.566,0,.758.19.758.751,0,2.455,0,4.91.005,7.364a.7.7,0,0,1-.444.7q-1.85.893-3.691,1.808a1.716,1.716,0,0,1-1.624-.005q-1.83-.908-3.671-1.791a.728.728,0,0,1-.466-.742c.011-2.455.006-4.91.006-7.364,0-.525.2-.723.734-.724Zm-3.838,1.133c-.006.069-.015.119-.015.169,0,2.137,0,4.274,0,6.411a.279.279,0,0,0,.194.287c1.094.531,2.187,1.064,3.275,1.607a.775.775,0,0,0,.755,0q1.6-.8,3.207-1.571a.383.383,0,0,0,.259-.4c-.009-2.068-.005-4.137-.005-6.205v-.292Z" transform="translate(-1434.635 -467.452)" fill="#12263f"/>
      <path id="Trazado_199720" data-name="Trazado 199720" d="M1524.606,709.851h1.115c0,.311,0,.624,0,.938,0,.5.2.7.706.7q1.416,0,2.832,0h.287v1.062c-.03.016-.044.031-.059.031-1.1,0-2.2,0-3.294,0a1.633,1.633,0,0,1-1.584-1.614C1524.591,710.6,1524.606,710.243,1524.606,709.851Z" transform="translate(-1515.273 -690.057)" fill="#12263f"/>
      <path id="Trazado_199721" data-name="Trazado 199721" d="M1633.348,370.841c0-.34,0-.658,0-.975a.588.588,0,0,0-.654-.652c-.317-.006-.634,0-.972,0v-1.138a11.332,11.332,0,0,1,1.576.133,1.5,1.5,0,0,1,1.129,1.406c.024.4,0,.8,0,1.227Z" transform="translate(-1616.867 -365.915)" fill="#12263f"/>
      <path id="Trazado_199722" data-name="Trazado 199722" d="M1588.831,370.124v-1.065h1.081v1.065Z" transform="translate(-1576.19 -366.849)" fill="#12263f"/>
      <path id="Trazado_199723" data-name="Trazado 199723" d="M1485.832,536.244l.795-.779,1.225,1.238,2.877-2.881.776.789-2.055,2.047c-.389.388-.773.781-1.167,1.164a.546.546,0,0,1-.842.03C1486.893,537.32,1486.36,536.773,1485.832,536.244Z" transform="translate(-1478.505 -523.109)" fill="#12263f"/>
    </g>
  </g>
</svg>
