<svg id="Grupo_1065597" data-name="Grupo 1065597" xmlns="http://www.w3.org/2000/svg" xmlns:xlink="http://www.w3.org/1999/xlink" width="56.612" height="56.612" viewBox="0 0 56.612 56.612">
  <defs>
    <radialGradient id="radial-gradient" cx="0.076" cy="0.019" r="1.465" gradientTransform="translate(0.001)" gradientUnits="objectBoundingBox">
      <stop offset="0" stop-color="#f6f6f7"/>
      <stop offset="0.477" stop-color="#f9f9fa"/>
      <stop offset="0.715" stop-color="#fff"/>
    </radialGradient>
  </defs>
  <g id="Grupo_42274" data-name="Grupo 42274" transform="translate(0 0)">
    <g id="Grupo_18423" data-name="Grupo 18423" transform="translate(0 0)">
      <g id="Grupo_18421" data-name="Grupo 18421">
        <g id="Grupo_18420" data-name="Grupo 18420">
          <g id="Grupo_18419" data-name="Grupo 18419">
            <path id="Trazado_40936" data-name="Trazado 40936" d="M251.235,2174.026a28.306,28.306,0,1,1-28.306-28.305A28.305,28.305,0,0,1,251.235,2174.026Z" transform="translate(-194.623 -2145.721)" fill="#fff"/>
          </g>
        </g>
      </g>
      <path id="Trazado_40937" data-name="Trazado 40937" d="M251.366,2174.171a28.305,28.305,0,1,0-28.306,28.306A28.192,28.192,0,0,0,251.366,2174.171Z" transform="translate(-194.754 -2145.866)" fill="url(#radial-gradient)"/>
      <path id="Trazado_40938" data-name="Trazado 40938" d="M245.948,2175.459a21.606,21.606,0,1,0-21.606,21.606A21.525,21.525,0,0,0,245.948,2175.459Z" transform="translate(-195.951 -2147.06)" fill="none" stroke="#f95035" stroke-miterlimit="10" stroke-width="2"/>
      <g id="Grupo_18422" data-name="Grupo 18422" transform="translate(5.015 15.892)">
        <path id="Trazado_40939" data-name="Trazado 40939" d="M249.28,2164.488a28.309,28.309,0,0,1-48.735,28.188,28.219,28.219,0,0,0,48.735-28.188Z" transform="translate(-200.545 -2164.488)" fill="#eceef0"/>
      </g>
    </g>
  </g>
  <g id="bgeAWu" transform="translate(17.587 17.173)">
    <g id="Grupo_161615" data-name="Grupo 161615">
      <path id="Trazado_199724" data-name="Trazado 199724" d="M1114.852-380.662c-.6.345-1.335.116-1.682.964s.4,1.19.5,1.766l-2.095,2.1a2.12,2.12,0,0,1-.516-.3c-.536-.535-1.067-.293-1.608-.036-.05.024-.126.044-.141.084a6.926,6.926,0,0,0-.7,2.012c-.081,2.715-.033,5.434-.033,8.151v.643h-17.971v-22.659h2.273c.018-.229.031-.39.044-.551a1.063,1.063,0,0,1,1.042-1.027c.5-.022,1-.011,1.507-.007.893.006,1.264.361,1.344,1.272.006.073.018.145.037.3h.591c1.545,0,3.09.016,4.634-.011a2.862,2.862,0,0,0,1.093-.316c.625-.023.969.788,1.834.448s.623-1.121.98-1.69c.855,0,1.729-.012,2.6.013a.575.575,0,0,1,.381.283,2.418,2.418,0,0,1,.162.587,1.127,1.127,0,0,0,1.734.7c.253-.15.508-.3.738-.433l2.1,2.095a2.626,2.626,0,0,1-.324.541,1.14,1.14,0,0,0,0,1.6,1.353,1.353,0,0,0,.844.394c.506.078.67.3.638.809C1114.817-382.186,1114.852-381.423,1114.852-380.662Zm-21.912-6.569c-.375,0-.689.026-1-.006-.493-.052-.668.1-.667.634q.029,10,0,20c0,.517.142.653.654.651,5.083-.018,10.165-.011,15.248-.011h.592v-8.69h-1.781c-.354-.583-.113-1.352-.984-1.707s-1.2.5-1.8.511l-2.044-2.013c.1-.634.869-1,.509-1.856s-1.158-.575-1.672-.944v-2.854c.567-.365,1.339-.137,1.685-1s-.469-1.2-.546-1.986l.773-.57-.066-.109h-5.053v10.177l.775.038v4.641h-5.4v-4.645l.767-.038Zm18.594-.358c-.775,1.052-1.553.621-2.383.291-.406-.161-.639-.355-.66-.756-.035-.656-.383-.853-.98-.754a.446.446,0,0,1-.167,0c-.67-.151-.924.19-1.015.8a.874.874,0,0,1-.324.583,7.974,7.974,0,0,1-1.33.549.663.663,0,0,1-.455-.051c-.945-.461-.94-.464-1.7.279a4.827,4.827,0,0,1-.5.379,1.923,1.923,0,0,1,.393,2.072,1.866,1.866,0,0,1-1.658,1.213c0,.484.023.913-.007,1.338-.025.356.106.489.453.545.3.048.785.138.84.316.258.839,1.12,1.679.158,2.6a.383.383,0,0,0-.075.144l1.227,1.271c.295-.174.573-.358.871-.5a.634.634,0,0,1,.441-.055,13.324,13.324,0,0,1,1.329.558.647.647,0,0,1,.285.347c.345,1,.34,1,1.4,1h.635a1.945,1.945,0,0,1,1.187-1.653,1.888,1.888,0,0,1,2.052.35c.353-.37.689-.693.985-1.051.088-.106.141-.374.074-.454a1.383,1.383,0,0,1-.07-1.853.782.782,0,0,0,.133-.364c.029-.371.276-.48.583-.558.877-.222.876-.226.876-1.1a1.5,1.5,0,0,1,0-.279c.09-.466-.117-.7-.571-.738a.932.932,0,0,1-.987-.9.526.526,0,0,0-.106-.255,1.157,1.157,0,0,1,.066-1.553.6.6,0,0,0,.025-.559C1112.281-386.788,1111.936-387.132,1111.533-387.589Zm-18.619,11.423v3.063h3.927c0-.922,0-1.81,0-2.7,0-.126-.022-.252-.032-.365a.766.766,0,0,0-1.025.418c-.255.467-.585.892-.925,1.4-.334-.495-.662-.92-.923-1.383A.762.762,0,0,0,1092.914-376.166Zm3.144-10.256c0-.265,0-.5,0-.737-.011-1.849.279-1.646-1.852-1.645-.037,0-.088-.009-.109.011-.147.142-.4.283-.412.439-.047.64-.02,1.285-.02,1.932Zm-1.607,8.623v-6.234h-.766v6.234Zm1.572,0v-6.235h-.736v6.235Zm-2.328-7.073h2.318v-.738h-2.318Zm1.164,9.142.811-1.224h-1.629Z" transform="translate(-1090.607 389.535)" fill="#12263f"/>
      <path id="Trazado_199725" data-name="Trazado 199725" d="M1104.629-234.136c1.328,0,2.609-.006,3.891,0,.619,0,1.26.1,1.626-.769l.567.689c-.772.393-.66,1.088-.655,1.754.008.981,0,1.963,0,2.973h-5.431Zm2.193,2.477,1.724-1.688h-3.22c0,.986-.012,1.949.02,2.91,0,.089.288.237.444.24.948.023,1.9.014,2.847.009.212,0,.424-.025.63-.038v-2.53l-2.239,2.316-1.068-1.08.418-.546Z" transform="translate(-1103.063 252.176)" fill="#12263f"/>
      <path id="Trazado_199726" data-name="Trazado 199726" d="M1160.59-219.961v-.68h8.549v.68Z" transform="translate(-1152.772 239.508)" fill="#12263f"/>
      <path id="Trazado_199727" data-name="Trazado 199727" d="M1160.612-205.873v-.667h8.559v.667Z" transform="translate(-1152.792 226.982)" fill="#12263f"/>
      <path id="Trazado_199728" data-name="Trazado 199728" d="M1167.749-255.98v.708h-6.972v-.708Z" transform="translate(-1152.938 270.899)" fill="#12263f"/>
      <path id="Trazado_199729" data-name="Trazado 199729" d="M1167.678-241.824v.7H1160.7v-.7Z" transform="translate(-1152.866 258.325)" fill="#12263f"/>
      <path id="Trazado_199730" data-name="Trazado 199730" d="M1160.671-191.677v-.642h6.986c.009.2.018.4.029.642Z" transform="translate(-1152.844 214.35)" fill="#12263f"/>
      <path id="Trazado_199731" data-name="Trazado 199731" d="M1163.792-269.889v.7h-3.076v-.7Z" transform="translate(-1152.884 283.255)" fill="#12263f"/>
      <path id="Trazado_199732" data-name="Trazado 199732" d="M1230.695-191.557v-.65h.721v.65Z" transform="translate(-1215.046 214.25)" fill="#12263f"/>
      <path id="Trazado_199733" data-name="Trazado 199733" d="M1203.924-355.812a4.619,4.619,0,0,1-4.69-4.688,4.687,4.687,0,0,1,4.647-4.709,4.771,4.771,0,0,1,4.75,4.693A4.688,4.688,0,0,1,1203.924-355.812Zm3.934-4.658a3.979,3.979,0,0,0-3.92-3.966,4,4,0,0,0-3.977,3.919,4.022,4.022,0,0,0,3.931,3.977A4,4,0,0,0,1207.858-360.47Z" transform="translate(-1187.099 367.927)" fill="#12263f"/>
      <path id="Trazado_199734" data-name="Trazado 199734" d="M1216.4-344.871a3.05,3.05,0,0,1-3.092-3.156,3.118,3.118,0,0,1,3.127-3.1,3.191,3.191,0,0,1,3.125,3.133A3.119,3.119,0,0,1,1216.4-344.871Zm.034-5.484a2.424,2.424,0,0,0-2.39,2.373,2.409,2.409,0,0,0,2.384,2.375,2.425,2.425,0,0,0,2.364-2.343A2.424,2.424,0,0,0,1216.432-350.355Z" transform="translate(-1199.6 355.414)" fill="#12263f"/>
    </g>
  </g>
</svg>
