<svg id="Grupo_1065599" data-name="Grupo 1065599" xmlns="http://www.w3.org/2000/svg" xmlns:xlink="http://www.w3.org/1999/xlink" width="56.612" height="56.612" viewBox="0 0 56.612 56.612">
  <defs>
    <radialGradient id="radial-gradient" cx="0.076" cy="0.019" r="1.465" gradientTransform="translate(0.001)" gradientUnits="objectBoundingBox">
      <stop offset="0" stop-color="#f6f6f7"/>
      <stop offset="0.477" stop-color="#f9f9fa"/>
      <stop offset="0.715" stop-color="#fff"/>
    </radialGradient>
  </defs>
  <g id="Grupo_42274" data-name="Grupo 42274" transform="translate(0 0)">
    <g id="Grupo_18423" data-name="Grupo 18423" transform="translate(0 0)">
      <g id="Grupo_18421" data-name="Grupo 18421">
        <g id="Grupo_18420" data-name="Grupo 18420">
          <g id="Grupo_18419" data-name="Grupo 18419">
            <path id="Trazado_40936" data-name="Trazado 40936" d="M251.235,2174.026a28.306,28.306,0,1,1-28.306-28.305A28.305,28.305,0,0,1,251.235,2174.026Z" transform="translate(-194.623 -2145.721)" fill="#fff"/>
          </g>
        </g>
      </g>
      <path id="Trazado_40937" data-name="Trazado 40937" d="M251.366,2174.171a28.305,28.305,0,1,0-28.306,28.306A28.192,28.192,0,0,0,251.366,2174.171Z" transform="translate(-194.754 -2145.866)" fill="url(#radial-gradient)"/>
      <path id="Trazado_40938" data-name="Trazado 40938" d="M245.948,2175.459a21.606,21.606,0,1,0-21.606,21.606A21.525,21.525,0,0,0,245.948,2175.459Z" transform="translate(-195.951 -2147.06)" fill="none" stroke="#f95035" stroke-miterlimit="10" stroke-width="2"/>
      <g id="Grupo_18422" data-name="Grupo 18422" transform="translate(5.015 15.892)">
        <path id="Trazado_40939" data-name="Trazado 40939" d="M249.28,2164.488a28.309,28.309,0,0,1-48.735,28.188,28.219,28.219,0,0,0,48.735-28.188Z" transform="translate(-200.545 -2164.488)" fill="#eceef0"/>
      </g>
    </g>
  </g>
  <g id="_7Bi2Hy.tif" data-name="7Bi2Hy.tif" transform="translate(15.615 16.997)">
    <g id="Grupo_161616" data-name="Grupo 161616">
      <path id="Trazado_199735" data-name="Trazado 199735" d="M1040.752-972.8v2.41h-.726v-1.1c-.095.073-.147.1-.189.146-.651.635-1.3,1.273-1.952,1.905a.27.27,0,0,0-.084.328,1.251,1.251,0,0,1-.322,1.369,1.286,1.286,0,0,1-1.4.3.332.332,0,0,0-.276.055q-.423.379-.813.793a.35.35,0,0,0-.083.28,9.024,9.024,0,0,1-1.16,7.625.42.42,0,0,0-.024.07l1.326,1.419.465-.575,6.494,6.569-3.393,3.393-6.445-6.521.533-.435-1.339-1.435c-4.492,2.483-8.509,1.923-12.1-1.687-.129.117-.292.25-.434.4a.25.25,0,0,0-.041.219,1.326,1.326,0,0,1-.76,1.779,1.329,1.329,0,0,1-1.739-.892c0-.019-.031-.032-.048-.048v-.606c.016-.017.039-.032.047-.052a1.316,1.316,0,0,1,1.779-.884.257.257,0,0,0,.2-.038c.207-.159.4-.331.587-.485a9.081,9.081,0,0,1,2.43-12.794,8.751,8.751,0,0,1,6.682-1.3,8.983,8.983,0,0,1,6.632,5.374c.235-.252.435-.478.648-.691a.248.248,0,0,0,.068-.308,1.253,1.253,0,0,1,.3-1.414,1.231,1.231,0,0,1,1.417-.283.275.275,0,0,0,.348-.083c.629-.621,1.263-1.237,1.895-1.855.051-.05.1-.1.186-.2h-1.136v-.753Zm-22.79,8.881a8.276,8.276,0,0,0,8.217,8.464,8.25,8.25,0,0,0,8.339-8.239,8.264,8.264,0,0,0-8.214-8.317A8.3,8.3,0,0,0,1017.962-963.923Zm23,12.711-5.354-5.415-2.394,2.394,5.348,5.421Zm-7.637-6.728-1.32,1.311,1.153,1.233,1.315-1.318Zm3.795-10.752a.585.585,0,0,0-.578-.575.582.582,0,0,0-.561.566.583.583,0,0,0,.564.588A.586.586,0,0,0,1037.119-968.691Zm-19.547,11.382a.573.573,0,0,0-.57.578.574.574,0,0,0,.567.557.577.577,0,0,0,.582-.567A.574.574,0,0,0,1017.571-957.309Z" transform="translate(-1016.245 972.804)" fill="#12263f"/>
      <path id="Trazado_199736" data-name="Trazado 199736" d="M1445.857-836.954h.717v.786h-.717Z" transform="translate(-1424.107 843.832)" fill="#12263f"/>
      <path id="Trazado_199737" data-name="Trazado 199737" d="M1495.365-768.352h-.718v-.79h.718Z" transform="translate(-1470.426 779.454)" fill="#12263f"/>
      <path id="Trazado_199738" data-name="Trazado 199738" d="M1428.9-709.061h.726v.781h-.726Z" transform="translate(-1408.01 722.414)" fill="#12263f"/>
      <path id="Trazado_199739" data-name="Trazado 199739" d="M1097.228-607.234v.777h-.723v-.777Z" transform="translate(-1092.442 625.742)" fill="#12263f"/>
      <path id="Trazado_199740" data-name="Trazado 199740" d="M1218.444-575.542h-.723v-.779h.723Z" transform="translate(-1207.521 596.394)" fill="#12263f"/>
      <path id="Trazado_199741" data-name="Trazado 199741" d="M1097.183-517.345v.782h-.723v-.782Z" transform="translate(-1092.399 540.404)" fill="#12263f"/>
      <path id="Trazado_199742" data-name="Trazado 199742" d="M1097.314-916.526a6.569,6.569,0,0,1-6.555,6.552,6.564,6.564,0,0,1-6.562-6.565,6.564,6.564,0,0,1,6.563-6.539A6.569,6.569,0,0,1,1097.314-916.526Zm-11.729,2.632c.511-.467,1.024-.929,1.525-1.4.047-.044.043-.162.032-.242a3.44,3.44,0,0,1-.1-.564,1.315,1.315,0,0,1,1.287-1.268,1.315,1.315,0,0,1,1.357,1.163.254.254,0,0,0,.215.252q1.3.4,2.593.815a.261.261,0,0,0,.321-.089,1.276,1.276,0,0,1,1.443-.349.277.277,0,0,0,.348-.084c.532-.527,1.058-1.061,1.611-1.566a.578.578,0,0,0,.18-.654,5.806,5.806,0,0,0-6.42-4.384,5.683,5.683,0,0,0-3.778,2.154,5.633,5.633,0,0,0-1.24,3.295A5.6,5.6,0,0,0,1085.586-913.893Zm.482.778a5.774,5.774,0,0,0,6.861,1.965,5.676,5.676,0,0,0,3.589-5.323c-.47.457-.922.9-1.385,1.341a.3.3,0,0,0-.086.372,1.248,1.248,0,0,1-.309,1.348,1.249,1.249,0,0,1-1.369.324,1.245,1.245,0,0,1-.884-1.09.247.247,0,0,0-.2-.247c-.883-.271-1.762-.551-2.646-.815a.322.322,0,0,0-.27.068,1.337,1.337,0,0,1-1.473.371.283.283,0,0,0-.239.044C1087.128-914.22,1086.6-913.673,1086.068-913.116Zm8.293-1.226a.568.568,0,0,0-.569-.575.566.566,0,0,0-.563.582.57.57,0,0,0,.557.565A.57.57,0,0,0,1094.361-914.341Zm-5.983-2.27a.573.573,0,0,0-.585.563.576.576,0,0,0,.578.57.573.573,0,0,0,.573-.551A.571.571,0,0,0,1088.378-916.612Z" transform="translate(-1080.757 925.596)" fill="#12263f"/>
      <path id="Trazado_199743" data-name="Trazado 199743" d="M1381.854-628.79l-.47.462-2.059-2.067-.5.609-.531-.535,1.016-1.01Z" transform="translate(-1359.966 648.62)" fill="#12263f"/>
      <path id="Trazado_199744" data-name="Trazado 199744" d="M1452.807-566.946l-.509-.508.515-.485.515.509Z" transform="translate(-1430.221 588.437)" fill="#12263f"/>
      <path id="Trazado_199745" data-name="Trazado 199745" d="M1153.71-892.726l-.245.7a4.369,4.369,0,0,0-2.222-.162,4.266,4.266,0,0,0-2.009.973l-.474-.542A4.94,4.94,0,0,1,1153.71-892.726Z" transform="translate(-1142.05 897.05)" fill="#12263f"/>
      <path id="Trazado_199746" data-name="Trazado 199746" d="M1258.886-878.394l-.493.574-.569-.416.388-.639Z" transform="translate(-1245.593 883.63)" fill="#12263f"/>
      <path id="Trazado_199747" data-name="Trazado 199747" d="M1176.644-714.381l.271-.672a4.579,4.579,0,0,0,2.5.214l.15.692A4.459,4.459,0,0,1,1176.644-714.381Z" transform="translate(-1168.523 728.102)" fill="#12263f"/>
    </g>
  </g>
</svg>
