<svg id="Grupo_1065603" data-name="Grupo 1065603" xmlns="http://www.w3.org/2000/svg" xmlns:xlink="http://www.w3.org/1999/xlink" width="56.612" height="56.612" viewBox="0 0 56.612 56.612">
  <defs>
    <radialGradient id="radial-gradient" cx="0.076" cy="0.019" r="1.465" gradientTransform="translate(0.001)" gradientUnits="objectBoundingBox">
      <stop offset="0" stop-color="#f6f6f7"/>
      <stop offset="0.477" stop-color="#f9f9fa"/>
      <stop offset="0.715" stop-color="#fff"/>
    </radialGradient>
  </defs>
  <g id="Grupo_42274" data-name="Grupo 42274" transform="translate(0 0)">
    <g id="Grupo_18423" data-name="Grupo 18423" transform="translate(0 0)">
      <g id="Grupo_18421" data-name="Grupo 18421">
        <g id="Grupo_18420" data-name="Grupo 18420">
          <g id="Grupo_18419" data-name="Grupo 18419">
            <path id="Trazado_40936" data-name="Trazado 40936" d="M251.235,2174.026a28.306,28.306,0,1,1-28.306-28.305A28.305,28.305,0,0,1,251.235,2174.026Z" transform="translate(-194.623 -2145.721)" fill="#fff"/>
          </g>
        </g>
      </g>
      <path id="Trazado_40937" data-name="Trazado 40937" d="M251.366,2174.171a28.305,28.305,0,1,0-28.306,28.306A28.192,28.192,0,0,0,251.366,2174.171Z" transform="translate(-194.754 -2145.866)" fill="url(#radial-gradient)"/>
      <path id="Trazado_40938" data-name="Trazado 40938" d="M245.948,2175.459a21.606,21.606,0,1,0-21.606,21.606A21.525,21.525,0,0,0,245.948,2175.459Z" transform="translate(-195.951 -2147.06)" fill="none" stroke="#f95035" stroke-miterlimit="10" stroke-width="2"/>
      <g id="Grupo_18422" data-name="Grupo 18422" transform="translate(5.015 15.892)">
        <path id="Trazado_40939" data-name="Trazado 40939" d="M249.28,2164.488a28.309,28.309,0,0,1-48.735,28.188,28.219,28.219,0,0,0,48.735-28.188Z" transform="translate(-200.545 -2164.488)" fill="#eceef0"/>
      </g>
    </g>
  </g>
  <g id="fcCcjA.tif" transform="translate(15.212 15.212)">
    <g id="Grupo_161618" data-name="Grupo 161618">
      <path id="Trazado_199759" data-name="Trazado 199759" d="M1029.747-1558.212c0-1.9,0-3.8.01-5.7a1.43,1.43,0,0,1,.125-.563c.536-1.185,1.085-2.365,1.63-3.546.042-.092.081-.185.135-.307h-4.833v-.859c.083,0,.172-.012.261-.013q3.375,0,6.751,0a2.129,2.129,0,0,1,2.267,2.248c0,1.176,0,2.352,0,3.528,0,.434-.129.563-.563.564-.568,0-1.137,0-1.664,0l3.512,3.512,3.512-3.511h-1.643c-.5,0-.62-.114-.621-.613q0-2.148,0-4.3a3.787,3.787,0,0,0-1.61-3.25,3.491,3.491,0,0,0-2.072-.694c-2.608-.009-5.217,0-7.825-.005h-.313v-.86h7.833a4.713,4.713,0,0,1,2.49.633.252.252,0,0,0,.37-.048,3.836,3.836,0,0,0,1.128-2.837q0-2.135,0-4.27c0-.544.1-.648.637-.649h1.575l-3.5-3.5-3.5,3.5h1.5c.111,0,.222,0,.332,0a.4.4,0,0,1,.415.423c0,1.338.026,2.677-.016,4.014a2.059,2.059,0,0,1-2.109,1.895c-2.344.02-4.688.006-7.032.006a1.121,1.121,0,0,1-.12-.015v-.838h5.452a4.983,4.983,0,0,0-3.837-4.889c-.349.6-.7,1.2-1.046,1.8a.25.25,0,0,0,.022.223,1.278,1.278,0,0,1-1.035,2.031.325.325,0,0,0-.233.135c-.556.985-1.1,1.975-1.661,2.983a2.1,2.1,0,0,1,.6,1.913,2.081,2.081,0,0,1-.808,1.29,2.133,2.133,0,0,1-2.775-.214,2.124,2.124,0,0,1,.166-3.112l-1.6-2.083-2.713,5.81c.1.009.169.021.239.021q.87,0,1.739,0c.661,0,.726.066.726.739q0,2.212,0,4.423v.321h4.068c.429,0,.573.139.573.56q0,2.045-.006,4.09h-.818c-.008-.1-.021-.2-.022-.3q0-1.584,0-3.169V-1562h-4.018c-.489,0-.622-.132-.622-.618q0-2.274,0-4.548v-.33h-.3c-.69,0-1.38-.007-2.07,0a.609.609,0,0,1-.583-.279v-.307c.041-.072.088-.141.123-.216.824-1.762,1.642-3.526,2.475-5.284a3.1,3.1,0,0,0,.408-1.4.679.679,0,0,0-.1-.369c-.389-.527-.8-1.037-1.191-1.564a.608.608,0,0,0-.568-.325.985.985,0,0,1-.832-.425,4.362,4.362,0,0,1-.312-.543v-.562c.016-.018.039-.033.047-.054a1.257,1.257,0,0,1,1.312-.922.5.5,0,0,0,.291-.114q1.239-1.048,2.463-2.114a.4.4,0,0,0,.107-.277,1.274,1.274,0,0,1,.914-1.245,1.26,1.26,0,0,1,1.439.553c.039.062.077.125.11.18,1.816-.24,3.613-.474,5.408-.72a.435.435,0,0,0,.281-.195,1.291,1.291,0,0,1,1.382-.7,1.292,1.292,0,0,1,1.022,1.107,1.271,1.271,0,0,1-.843,1.341.525.525,0,0,0-.239.2c-.322.531-.632,1.07-.944,1.607a1.679,1.679,0,0,0-.078.173,6.014,6.014,0,0,1,4.248,5.679c.32,0,.627.018.932,0a1.2,1.2,0,0,0,1.125-1.125c.028-1.132.015-2.266.017-3.4a.46.46,0,0,0-.032-.1h-.268c-.7,0-1.4,0-2.1,0-.216,0-.418-.035-.51-.259a.49.49,0,0,1,.178-.566q2.228-2.219,4.45-4.445c.309-.308.5-.31.8,0q2.226,2.222,4.45,4.445c.16.159.283.326.186.563s-.307.267-.53.267q-1.048,0-2.1,0c-.091,0-.183.008-.3.013v.3c0,1.261-.007,2.522,0,3.783a4.622,4.622,0,0,1-.811,2.743c-.187.27-.413.514-.627.776.04.044.079.089.119.131a4.454,4.454,0,0,1,1.306,3.1c.017,1.338.008,2.676.011,4.013,0,.1,0,.2,0,.324.114.005.205.013.3.013q1.061,0,2.122,0c.24,0,.447.057.523.314a.483.483,0,0,1-.185.5c-.822.818-1.638,1.64-2.46,2.457q-1.122,1.116-2.249,2.226h-.307c-.07-.06-.145-.116-.211-.181q-2.27-2.267-4.536-4.539a.584.584,0,0,1-.158-.281c-.056-.293.141-.488.5-.491.716-.007,1.432,0,2.148,0,.09,0,.18-.01.279-.015,0-1.168.02-2.308-.008-3.448a1.207,1.207,0,0,0-1.243-1.169c-.392-.007-.784.007-1.176-.006a.28.28,0,0,0-.3.2c-.6,1.314-1.209,2.625-1.811,3.939a.791.791,0,0,0-.077.316q0,2.837,0,5.675Zm-5.947-14.305c.482-.868,1-1.8,1.519-2.742.049-.089.123-.252.089-.285-.164-.163-.128-.462-.414-.543q-1.9-.542-3.789-1.112a.2.2,0,0,0-.267.1,4.854,4.854,0,0,0-.7,1.547.362.362,0,0,0,.053.271q1.018,1.344,2.054,2.673a.3.3,0,0,0,.2.09C1022.942-1572.513,1023.335-1572.518,1023.8-1572.518Zm5.292-9.468c-.17-.208-.306-.391-.461-.556a.3.3,0,0,0-.224-.079c-1.106.138-2.211.284-3.316.429-.641.084-1.281.187-1.924.249-.274.026-.313.238-.4.4-.03.059.064.2.131.285.185.223.4.42.575.651.281.376.587.655,1.1.457a.068.068,0,0,1,.025,0c1.082,0,2.164.007,3.245,0a.3.3,0,0,0,.223-.1C1028.422-1580.828,1028.762-1581.418,1029.093-1581.985Zm-8.18.668-2.435,2.089c.157.17.266.389.432.45.54.2,1.1.346,1.656.494a.373.373,0,0,0,.3-.082,6.142,6.142,0,0,1,2.015-1.359c.052-.022.1-.054.16-.088-.341-.379-.668-.747-1-1.108a.313.313,0,0,0-.214-.094A1.342,1.342,0,0,1,1020.913-1581.318Zm.834,10.86a1.252,1.252,0,0,0,1.244,1.255,1.269,1.269,0,0,0,1.277-1.257,1.273,1.273,0,0,0-1.254-1.256A1.254,1.254,0,0,0,1021.747-1570.458Zm3.652-6.743c-.54-.6-1.073-1.2-1.619-1.781a.317.317,0,0,0-.279-.055,5.622,5.622,0,0,0-.884.389c-.322.188-.616.427-.964.674.121.045.167.065.215.079,1.034.306,2.071.6,3.1.922C1025.2-1576.9,1025.324-1576.953,1025.4-1577.2Zm2.12-2.088h-2.851c.5.56.949,1.084,1.434,1.571a.5.5,0,0,0,.479,0C1026.915-1578.215,1027.2-1578.744,1027.519-1579.289Zm-8.9,1.329c-.032.148-.125.32-.075.393.308.445.649.867.985,1.3l.617-1.246Zm7.766,2a.408.408,0,0,0,.4-.433.4.4,0,0,0-.413-.39.419.419,0,0,0-.41.4A.436.436,0,0,0,1026.388-1575.956Zm3.381-7.577a.413.413,0,0,0-.425.41.443.443,0,0,0,.408.412.41.41,0,0,0,.415-.419A.4.4,0,0,0,1029.769-1583.533Zm-12.266,5.466a.436.436,0,0,0,.424-.4.412.412,0,0,0-.395-.419.4.4,0,0,0-.427.4A.411.411,0,0,0,1017.5-1578.067Zm4.229-3.81a.4.4,0,0,0,.41-.4.415.415,0,0,0-.391-.425.438.438,0,0,0-.431.42A.411.411,0,0,0,1021.733-1581.877Z" transform="translate(-1016.245 1584.402)" fill="#12263f"/>
    </g>
  </g>
</svg>
