<svg id="Grupo_1065611" data-name="Grupo 1065611" xmlns="http://www.w3.org/2000/svg" xmlns:xlink="http://www.w3.org/1999/xlink" width="56.612" height="56.612" viewBox="0 0 56.612 56.612">
  <defs>
    <radialGradient id="radial-gradient" cx="0.076" cy="0.019" r="1.465" gradientTransform="translate(0.001)" gradientUnits="objectBoundingBox">
      <stop offset="0" stop-color="#f6f6f7"/>
      <stop offset="0.477" stop-color="#f9f9fa"/>
      <stop offset="0.715" stop-color="#fff"/>
    </radialGradient>
  </defs>
  <g id="Grupo_42274" data-name="Grupo 42274" transform="translate(0 0)">
    <g id="Grupo_18423" data-name="Grupo 18423" transform="translate(0 0)">
      <g id="Grupo_18421" data-name="Grupo 18421">
        <g id="Grupo_18420" data-name="Grupo 18420">
          <g id="Grupo_18419" data-name="Grupo 18419">
            <path id="Trazado_40936" data-name="Trazado 40936" d="M251.235,2174.026a28.306,28.306,0,1,1-28.306-28.305A28.305,28.305,0,0,1,251.235,2174.026Z" transform="translate(-194.623 -2145.721)" fill="#fff"/>
          </g>
        </g>
      </g>
      <path id="Trazado_40937" data-name="Trazado 40937" d="M251.366,2174.171a28.305,28.305,0,1,0-28.306,28.306A28.192,28.192,0,0,0,251.366,2174.171Z" transform="translate(-194.754 -2145.866)" fill="url(#radial-gradient)"/>
      <path id="Trazado_40938" data-name="Trazado 40938" d="M245.948,2175.459a21.606,21.606,0,1,0-21.606,21.606A21.525,21.525,0,0,0,245.948,2175.459Z" transform="translate(-195.951 -2147.06)" fill="none" stroke="#f95035" stroke-miterlimit="10" stroke-width="2"/>
      <g id="Grupo_18422" data-name="Grupo 18422" transform="translate(5.015 15.892)">
        <path id="Trazado_40939" data-name="Trazado 40939" d="M249.28,2164.488a28.309,28.309,0,0,1-48.735,28.188,28.219,28.219,0,0,0,48.735-28.188Z" transform="translate(-200.545 -2164.488)" fill="#eceef0"/>
      </g>
    </g>
  </g>
  <g id="k6uWVS.tif" transform="translate(16.833 16.496)">
    <g id="Grupo_161619" data-name="Grupo 161619">
      <path id="Trazado_199760" data-name="Trazado 199760" d="M1027.736-2112.907h17.2a.807.807,0,0,1,.486.8q-.008,11.781,0,23.562c0,.558-.246.8-.81.8h-16.484c-.549,0-.683-.089-.88-.589v-23.985A.9.9,0,0,1,1027.736-2112.907Zm16.381,1.292h-15.539v22.576h15.539Z" transform="translate(-1027.245 2112.907)" fill="#12263f"/>
      <path id="Trazado_199761" data-name="Trazado 199761" d="M1427.174-2035.157q0-3.7,0-7.4a.68.68,0,0,1,.254-.652.922.922,0,0,1,.453-.142c.983-.012,1.966-.01,2.948,0a.659.659,0,0,1,.714.7c0,.074,0,.147,0,.221q0,7.274-.008,14.548a1.992,1.992,0,0,1-.19.819c-.434.916-.9,1.813-1.353,2.722a.692.692,0,0,1-.649.473.692.692,0,0,1-.628-.469c-.47-.945-.951-1.884-1.409-2.834a1.463,1.463,0,0,1-.126-.612C1427.171-2030.242,1427.174-2032.7,1427.174-2035.157Zm3.054,6.916V-2040h-1.755v11.757Zm-1.755-13.819v.736h1.751v-.736Zm.39,15.137.491.983.486-.983Z" transform="translate(-1407.477 2046.781)" fill="#12263f"/>
      <path id="Trazado_199762" data-name="Trazado 199762" d="M1090.954-2051.284c-1.826,0-3.652-.012-5.478.008a.724.724,0,0,1-.786-.781c.019-1.04,0-2.081.007-3.12,0-.529.252-.772.785-.772h10.956a.689.689,0,0,1,.786.779c0,1.04-.007,2.08,0,3.12a.725.725,0,0,1-.772.775C1094.623-2051.3,1092.788-2051.284,1090.954-2051.284Zm-4.95-3.373v2.079h9.906v-2.079Z" transform="translate(-1081.862 2058.755)" fill="#12263f"/>
      <path id="Trazado_199763" data-name="Trazado 199763" d="M1142.974-1884.6c-.3,0-.606,0-.908,0a.676.676,0,0,1-.72-.571c-.037-.142-.077-.284-.1-.429a3.594,3.594,0,0,0-.913-1.807,3.475,3.475,0,0,1,1.91-5.761,3.62,3.62,0,0,1,4.266,3,3.272,3.272,0,0,1-.853,2.692,4.331,4.331,0,0,0-1.026,2.127c-.123.626-.305.753-.941.753Zm.46-1.3c.074-.271.136-.541.221-.8a4.642,4.642,0,0,1,.976-1.543,2.082,2.082,0,0,0,.573-1.9,2.277,2.277,0,0,0-3.009-1.669,2.153,2.153,0,0,0-1.128,3.238c.217.3.459.575.682.867a4.105,4.105,0,0,1,.738,1.805Z" transform="translate(-1133.872 1904.055)" fill="#12263f"/>
      <path id="Trazado_199764" data-name="Trazado 199764" d="M1186.145-1705.08c-.221,0-.442.006-.662,0a.655.655,0,0,1-.67-.614.626.626,0,0,1,.629-.671c.473-.02.949-.02,1.422,0a.633.633,0,0,1,.625.653.659.659,0,0,1-.656.63C1186.6-1705.071,1186.374-1705.08,1186.145-1705.08Z" transform="translate(-1177.052 1726.4)" fill="#12263f"/>
      <path id="Trazado_199765" data-name="Trazado 199765" d="M1276.962-1910.778a.667.667,0,0,1-.673-.64.675.675,0,0,1,.666-.651.685.685,0,0,1,.662.632A.67.67,0,0,1,1276.962-1910.778Z" transform="translate(-1264.025 1921.959)" fill="#12263f"/>
      <path id="Trazado_199766" data-name="Trazado 199766" d="M1097.684-1848.144a.664.664,0,0,1-.667.645.686.686,0,0,1-.66-.66.668.668,0,0,1,.662-.627A.649.649,0,0,1,1097.684-1848.144Z" transform="translate(-1092.953 1861.792)" fill="#12263f"/>
      <path id="Trazado_199767" data-name="Trazado 199767" d="M1199.2-1934.293a.656.656,0,0,1,.669.639.667.667,0,0,1-.676.638.656.656,0,0,1-.651-.632A.643.643,0,0,1,1199.2-1934.293Z" transform="translate(-1190.105 1943.089)" fill="#12263f"/>
      <path id="Trazado_199768" data-name="Trazado 199768" d="M1121.4-1910.785a.66.66,0,0,1-.669-.642.669.669,0,0,1,.64-.649.688.688,0,0,1,.687.633A.674.674,0,0,1,1121.4-1910.785Z" transform="translate(-1116.13 1921.966)" fill="#12263f"/>
      <path id="Trazado_199769" data-name="Trazado 199769" d="M1199.184-1672.542a.684.684,0,0,1,.67.651.671.671,0,0,1-.677.637.656.656,0,0,1-.651-.633A.669.669,0,0,1,1199.184-1672.542Z" transform="translate(-1190.09 1694.228)" fill="#12263f"/>
      <path id="Trazado_199770" data-name="Trazado 199770" d="M1307.038-1848.146a.67.67,0,0,1-.655.659.671.671,0,0,1-.668-.646.653.653,0,0,1,.643-.64A.654.654,0,0,1,1307.038-1848.146Z" transform="translate(-1292.002 1861.781)" fill="#12263f"/>
    </g>
  </g>
</svg>
