<svg id="Grupo_1065607" data-name="Grupo 1065607" xmlns="http://www.w3.org/2000/svg" xmlns:xlink="http://www.w3.org/1999/xlink" width="56.612" height="56.612" viewBox="0 0 56.612 56.612">
  <defs>
    <radialGradient id="radial-gradient" cx="0.076" cy="0.019" r="1.465" gradientTransform="translate(0.001)" gradientUnits="objectBoundingBox">
      <stop offset="0" stop-color="#f6f6f7"/>
      <stop offset="0.477" stop-color="#f9f9fa"/>
      <stop offset="0.715" stop-color="#fff"/>
    </radialGradient>
  </defs>
  <g id="Grupo_42274" data-name="Grupo 42274" transform="translate(0 0)">
    <g id="Grupo_18423" data-name="Grupo 18423" transform="translate(0 0)">
      <g id="Grupo_18421" data-name="Grupo 18421">
        <g id="Grupo_18420" data-name="Grupo 18420">
          <g id="Grupo_18419" data-name="Grupo 18419">
            <path id="Trazado_40936" data-name="Trazado 40936" d="M251.235,2174.026a28.306,28.306,0,1,1-28.306-28.305A28.305,28.305,0,0,1,251.235,2174.026Z" transform="translate(-194.623 -2145.721)" fill="#fff"/>
          </g>
        </g>
      </g>
      <path id="Trazado_40937" data-name="Trazado 40937" d="M251.366,2174.171a28.305,28.305,0,1,0-28.306,28.306A28.192,28.192,0,0,0,251.366,2174.171Z" transform="translate(-194.754 -2145.866)" fill="url(#radial-gradient)"/>
      <path id="Trazado_40938" data-name="Trazado 40938" d="M245.948,2175.459a21.606,21.606,0,1,0-21.606,21.606A21.525,21.525,0,0,0,245.948,2175.459Z" transform="translate(-195.951 -2147.06)" fill="none" stroke="#f95035" stroke-miterlimit="10" stroke-width="2"/>
      <g id="Grupo_18422" data-name="Grupo 18422" transform="translate(5.015 15.892)">
        <path id="Trazado_40939" data-name="Trazado 40939" d="M249.28,2164.488a28.309,28.309,0,0,1-48.735,28.188,28.219,28.219,0,0,0,48.735-28.188Z" transform="translate(-200.545 -2164.488)" fill="#eceef0"/>
      </g>
    </g>
  </g>
  <g id="xBBRod.tif" transform="translate(15.163 16.547)">
    <g id="Grupo_161620" data-name="Grupo 161620">
      <path id="Trazado_199771" data-name="Trazado 199771" d="M1074.733-2546.8a.656.656,0,0,1,.3.628c-.01.486,0,.972,0,1.458s-.139.622-.635.629c-.078,0-.155.008-.271.015v.373q0,9.372,0,18.745c0,.1,0,.195,0,.292a.477.477,0,0,1-.506.5c-.053,0-.106,0-.159,0h-10.191v-.913h9.912v-18.987h-21.227v11.288h-.911v-11.312c-.173,0-.312.006-.451,0a.434.434,0,0,1-.456-.448c-.009-.6-.021-1.2.009-1.8.008-.157.162-.307.25-.461Zm-.638.921h-23.032v.87h23.032Z" transform="translate(-1048.751 2546.801)" fill="#12263f"/>
      <path id="Trazado_199772" data-name="Trazado 199772" d="M1024.245-2286.9c.028-.128.052-.258.083-.385a2.247,2.247,0,0,1,2.021-1.743c.052-.005.1-.017.152-.024.2-.715.447-.9,1.195-.9.071,0,.142,0,.212,0a19.545,19.545,0,0,0,5.3-.572c1.34-.266,2.684-.512,4.027-.763.39-.073.626.127.627.54q0,3.976,0,7.951a.788.788,0,0,1,0,.08.47.47,0,0,1-.606.449q-2.272-.428-4.545-.855c-.085-.016-.173-.019-.289-.031,0,.269,0,.515,0,.76,0,.46-.137.592-.6.594-.388,0-.775,0-1.192,0,0,.109-.012.2-.012.295,0,.724,0,1.449,0,2.173a1.572,1.572,0,0,1-1.556,1.6,1.58,1.58,0,0,1-1.617-1.6c-.007-1.352,0-2.7,0-4.055v-.2a.972.972,0,0,1-.915-.915,2.311,2.311,0,0,1-1.491-.587,2.186,2.186,0,0,1-.73-1.371c-.01-.076-.034-.151-.051-.227Zm12.667,3.639v-7.03l-6.288,1.179a.979.979,0,0,0-.015.107c0,1.457,0,2.915,0,4.372,0,.159.058.206.208.233,1.178.215,2.355.441,3.532.661C1035.193-2283.583,1036.041-2283.427,1036.912-2283.265Zm-9.454-5.751v4.485h2.233v-4.485Zm.911,5.41v2.678h1.313v-2.678Zm-1.855-1.829v-2.679a1.316,1.316,0,0,0-1.321,1.228A1.332,1.332,0,0,0,1026.514-2285.435Zm1.85,5.461c0,.268-.017.5,0,.739a.657.657,0,0,0,.63.6.649.649,0,0,0,.668-.521,6.8,6.8,0,0,0,.047-.815Zm3.138-2.753v-.619l-.873-.167v.8h.756A1.152,1.152,0,0,0,1031.5-2282.727Z" transform="translate(-1024.245 2304.88)" fill="#12263f"/>
      <path id="Trazado_199773" data-name="Trazado 199773" d="M1196.341-2465.1l.567.425-.662.668c-.47-.46-.943-.909-1.4-1.376a.381.381,0,0,1,0-.555c.455-.467.928-.917,1.4-1.382l.607.654-.524.444.042.1h.448a1.4,1.4,0,0,1,1.555,1.559q0,2.691,0,5.381v.3h-.927v-.315q0-2.691,0-5.381c0-.492-.12-.614-.6-.616h-.445Z" transform="translate(-1185.671 2471.538)" fill="#12263f"/>
      <path id="Trazado_199774" data-name="Trazado 199774" d="M1295.282-2401.17h-.7v-.9h.8c.327,0,.654,0,.98,0a.408.408,0,0,1,.45.394c.022.615.007,1.231.007,1.862h-.913v-.676l-3.7,3.7-.668-.647Z" transform="translate(-1277.344 2409.76)" fill="#12263f"/>
      <path id="Trazado_199775" data-name="Trazado 199775" d="M1111.8-2470.1a1.789,1.789,0,0,1,1.817,1.8,1.789,1.789,0,0,1-1.783,1.81,1.79,1.79,0,0,1-1.83-1.79A1.79,1.79,0,0,1,1111.8-2470.1Zm.912,1.815a.91.91,0,0,0-.881-.908.91.91,0,0,0-.923.891.92.92,0,0,0,.907.913A.919.919,0,0,0,1112.712-2468.283Z" transform="translate(-1105.447 2474.173)" fill="#12263f"/>
      <path id="Trazado_199776" data-name="Trazado 199776" d="M1392.6-2470.105a1.812,1.812,0,0,1,1.829,1.8,1.814,1.814,0,0,1-1.793,1.812,1.818,1.818,0,0,1-1.844-1.788A1.82,1.82,0,0,1,1392.6-2470.105Zm-.88,1.808a.9.9,0,0,0,.878.9.9.9,0,0,0,.909-.9.9.9,0,0,0-.883-.9A.886.886,0,0,0,1391.719-2468.3Z" transform="translate(-1371.315 2474.18)" fill="#12263f"/>
      <path id="Trazado_199777" data-name="Trazado 199777" d="M1322.239-2214.222v.865h-7.682v-.865Z" transform="translate(-1299.132 2231.892)" fill="#12263f"/>
      <path id="Trazado_199778" data-name="Trazado 199778" d="M1320.42-2179.292h-5.86v-.869h5.86Z" transform="translate(-1299.135 2199.641)" fill="#12263f"/>
      <path id="Trazado_199779" data-name="Trazado 199779" d="M1370.772-2248.4v.882h-4.949v-.882Z" transform="translate(-1347.675 2264.258)" fill="#12263f"/>
      <path id="Trazado_199780" data-name="Trazado 199780" d="M1131.372-2355.68l-.685.723-.548-.667-.562.629-.666-.665.659-.556-.678-.544.7-.656.523.612.557-.661.7.678-.629.545Z" transform="translate(-1123.33 2367.525)" fill="#12263f"/>
      <path id="Trazado_199781" data-name="Trazado 199781" d="M1301.888-2466.236l-.694.694-.533-.662-.562.7-.653-.724.6-.531-.654-.562.7-.665.508.624.592-.649.654.687-.609.535Z" transform="translate(-1284.77 2472.201)" fill="#12263f"/>
      <path id="Trazado_199782" data-name="Trazado 199782" d="M1395.377-2322.485l-.617.521.628.529-.659.678-.564-.615-.565.619-.659-.686.614-.517-.653-.55.691-.689.543.62.513-.65Z" transform="translate(-1373.315 2335.103)" fill="#12263f"/>
      <path id="Trazado_199783" data-name="Trazado 199783" d="M1331.631-2248.487h.883v.886h-.883Z" transform="translate(-1315.299 2264.337)" fill="#12263f"/>
    </g>
  </g>
</svg>
