<svg id="Grupo_1065609" data-name="Grupo 1065609" xmlns="http://www.w3.org/2000/svg" xmlns:xlink="http://www.w3.org/1999/xlink" width="56.612" height="56.612" viewBox="0 0 56.612 56.612">
  <defs>
    <radialGradient id="radial-gradient" cx="0.076" cy="0.019" r="1.465" gradientTransform="translate(0.001)" gradientUnits="objectBoundingBox">
      <stop offset="0" stop-color="#f6f6f7"/>
      <stop offset="0.477" stop-color="#f9f9fa"/>
      <stop offset="0.715" stop-color="#fff"/>
    </radialGradient>
  </defs>
  <g id="Grupo_42274" data-name="Grupo 42274" transform="translate(0 0)">
    <g id="Grupo_18423" data-name="Grupo 18423" transform="translate(0 0)">
      <g id="Grupo_18421" data-name="Grupo 18421">
        <g id="Grupo_18420" data-name="Grupo 18420">
          <g id="Grupo_18419" data-name="Grupo 18419">
            <path id="Trazado_40936" data-name="Trazado 40936" d="M251.235,2174.026a28.306,28.306,0,1,1-28.306-28.305A28.305,28.305,0,0,1,251.235,2174.026Z" transform="translate(-194.623 -2145.721)" fill="#fff"/>
          </g>
        </g>
      </g>
      <path id="Trazado_40937" data-name="Trazado 40937" d="M251.366,2174.171a28.305,28.305,0,1,0-28.306,28.306A28.192,28.192,0,0,0,251.366,2174.171Z" transform="translate(-194.754 -2145.866)" fill="url(#radial-gradient)"/>
      <path id="Trazado_40938" data-name="Trazado 40938" d="M245.948,2175.459a21.606,21.606,0,1,0-21.606,21.606A21.525,21.525,0,0,0,245.948,2175.459Z" transform="translate(-195.951 -2147.06)" fill="none" stroke="#f95035" stroke-miterlimit="10" stroke-width="2"/>
      <g id="Grupo_18422" data-name="Grupo 18422" transform="translate(5.015 15.892)">
        <path id="Trazado_40939" data-name="Trazado 40939" d="M249.28,2164.488a28.309,28.309,0,0,1-48.735,28.188,28.219,28.219,0,0,0,48.735-28.188Z" transform="translate(-200.545 -2164.488)" fill="#eceef0"/>
      </g>
    </g>
  </g>
  <g id="NdTzWZ" transform="translate(16.502 17.193)">
    <g id="Grupo_161622" data-name="Grupo 161622">
      <path id="Trazado_199791" data-name="Trazado 199791" d="M1175.523-3898.292c.121-1.4.785-2.145,1.87-2.14,1.062,0,1.739.736,1.843,2.038h.985c.263-1.41.89-2.065,1.947-2.038,1.019.027,1.619.69,1.83,2.054h.94c.367-1.5.958-2.1,2-2.053,1.01.047,1.624.743,1.777,2.051.168.011.343.032.519.032.157,0,.315-.019.462-.029.209-1.4.875-2.094,1.953-2.055,1.019.038,1.668.763,1.786,2.036.3.037.621.063.932.116a2.553,2.553,0,0,1,2.183,2.521q.018,7.917,0,15.833a2.557,2.557,0,0,1-2.649,2.567q-5.763.012-11.526,0a.715.715,0,0,0-.774.4,1.28,1.28,0,0,1-1.206.677c-1.82,0-3.64.009-5.46,0a1.374,1.374,0,0,1-1.455-1.437,6.261,6.261,0,0,1,0-.667.938.938,0,0,0-.395-.85,2.107,2.107,0,0,1-.651-1.214,12.151,12.151,0,0,1,0-2.663,2.1,2.1,0,0,1,.637-1.222,1,1,0,0,0,.412-.839q-.016-5.125-.006-10.251A2.616,2.616,0,0,1,1175.523-3898.292Zm6.245,19.785.185.152h11.581c1.427,0,2.011-.585,2.012-2.031q0-5.49,0-10.98V-3892h-21.029v7.3c.656.056.708.068.886-.679a.97.97,0,0,1,1.184-.875c.825.06,1.66-.02,2.485.036a1.192,1.192,0,0,1,.671.453,1.48,1.48,0,0,1,.213.623c.1.442.349.6.843.409,0-.336-.018-.7,0-1.055a.911.911,0,0,1,.953-.962c.606-.022,1.214-.022,1.819.006a.831.831,0,0,1,.865.893c.008.223,0,.445,0,.667,0,1.375-.08,1.459-1.452,1.549-.035,0-.067.037-.11.062,0,1,0,2.01,0,3.017a1.663,1.663,0,0,1-.657,1.362A2.884,2.884,0,0,0,1181.767-3878.508Zm-7.289-14.553h12.427c2.688,0,5.375-.009,8.062.009.446,0,.613-.117.587-.579-.036-.645.01-1.293-.014-1.939a1.6,1.6,0,0,0-2.139-1.633c0,.289,0,.588,0,.887.007.369-.192.633-.53.567-.19-.037-.4-.346-.462-.569a3.547,3.547,0,0,1-.019-.917h-3.723c0,.334-.008.617,0,.9.013.364-.151.608-.514.6s-.5-.272-.494-.624c.008-.3,0-.592,0-.889h-3.727a3.543,3.543,0,0,1-.02.939c-.065.221-.3.392-.467.584-.172-.184-.431-.341-.494-.556a3.66,3.66,0,0,1-.021-.975h-3.728a3.676,3.676,0,0,1-.022.986c-.063.212-.327.366-.5.545-.157-.176-.4-.332-.45-.534a4.594,4.594,0,0,1-.02-1.032c-.785,0-1.471-.012-2.156,0a1.538,1.538,0,0,0-1.571,1.512C1174.454-3894.9,1174.478-3894.034,1174.478-3893.061Zm3.174,9.406v0c-1.152,0-2.3.009-3.457,0a.67.67,0,0,0-.778.77c0,.525,0,1.051,0,1.577,0,1.375,0,1.377,1.379,1.374.345,0,.7.091.932-.343.054-.1.512-.03.766.031.2.048.356.253.552.3a2.8,2.8,0,0,0,.724.012c.417-.015.873.132,1.156-.388.04-.073.5.057.747.132.167.05.306.226.469.244a9.4,9.4,0,0,0,1.03.012.613.613,0,0,0,.7-.708c-.006-.728,0-1.455,0-2.183,0-.654-.168-.825-.82-.83C1179.917-3883.661,1178.785-3883.655,1177.653-3883.655Zm-3.175,4.739c0,.275,0,.473,0,.671,0,.917.03.949.951.95q2,0,3.994,0c1.463,0,1.463,0,1.354-1.479,0-.035-.036-.068-.076-.139-.386.035-.837-.217-1.136.341-.048.091-.507,0-.762-.068-.221-.055-.413-.242-.633-.276a6.923,6.923,0,0,0-.966-.013c-.3,0-.556-.024-.742.338a.426.426,0,0,1-.755.034C1175.41-3879.133,1174.974-3878.878,1174.477-3878.916Zm7.4-5.792h1.526v-1h-1.526Zm-2.932.03c-.084-.532-.084-.544-.476-.552-.525-.011-1.052.016-1.576-.009-.411-.02-.589.135-.555.562Zm3.925-13.705c.024-.667-.238-1.011-.75-1.016s-.766.32-.788,1.016Zm3.186-.015h1.576c-.06-.712-.336-1.048-.829-1C1186.247-3899.334,1186.025-3898.976,1186.061-3898.4Zm6.5.014c-.275-.4-.41-.758-.668-.908a.906.906,0,0,0-.815.1c-.2.148-.242.5-.372.807Zm-14.39,0c-.034-.75-.355-1.086-.914-1-.507.083-.7.428-.579,1Z" transform="translate(-1172.362 3900.434)" fill="#12263f"/>
      <path id="Trazado_199792" data-name="Trazado 199792" d="M1282.636-3822.447h.545c.942,0,1.224.283,1.233,1.22.017,1.828-.079,1.926-1.883,1.926-.2,0-.4,0-.606,0a1.778,1.778,0,0,1-.3-.014c-.728-.133-.957-.7-.861-2.108a.968.968,0,0,1,1.087-1.022C1282.11-3822.451,1282.373-3822.446,1282.636-3822.447Zm.752,1.085h-1.528v.952h1.528Z" transform="translate(-1267.592 3831.909)" fill="#12263f"/>
      <path id="Trazado_199793" data-name="Trazado 199793" d="M1321.6-3822.446c1.72,0,1.8.076,1.786,1.808-.006,1.065-.283,1.337-1.37,1.338h-1.027a2.759,2.759,0,0,1-.3,0c-.8-.088-1.038-.608-.968-2.069a.987.987,0,0,1,1.1-1.072C1321.078-3822.449,1321.34-3822.446,1321.6-3822.446Zm.752,1.051h-1.536v.991h1.536Z" transform="translate(-1301.833 3831.908)" fill="#12263f"/>
      <path id="Trazado_199794" data-name="Trazado 199794" d="M1321.6-3750.242c-1.669,0-1.809-.141-1.8-1.823,0-.993.343-1.326,1.351-1.328.443,0,.886-.018,1.328.006a.937.937,0,0,1,.982.991c.016.361.012.725,0,1.086a.951.951,0,0,1-1.079,1.067C1322.121-3750.239,1321.859-3750.243,1321.6-3750.242Zm.834-2.042h-1.525v.973h1.525Z" transform="translate(-1301.91 3771.239)" fill="#12263f"/>
      <path id="Trazado_199795" data-name="Trazado 199795" d="M1204.672-3819.427c-.222,0-.445,0-.667,0-.781-.018-1.163-.376-1.178-1.144-.03-1.545-.1-2.13,1.935-2,.262.016.526-.007.788.006a.9.9,0,0,1,.928.907c.023.342.015.687.01,1.031-.012.884-.326,1.195-1.21,1.205C1205.076-3819.424,1204.874-3819.427,1204.672-3819.427Zm.775-2.1h-1.527v.977h1.527Z" transform="translate(-1199.122 3832.036)" fill="#12263f"/>
      <path id="Trazado_199796" data-name="Trazado 199796" d="M1282.74-3784.665c-1.772,0-1.872-.1-1.853-1.885.01-.894.313-1.21,1.188-1.219.525-.006,1.05-.012,1.574.009a.848.848,0,0,1,.884.878c.011.14.007.282.008.423C1284.549-3784.715,1284.5-3784.665,1282.74-3784.665Zm.749-1.033v-1.012h-1.506v1.012Z" transform="translate(-1267.719 3801.443)" fill="#12263f"/>
      <path id="Trazado_199797" data-name="Trazado 199797" d="M1321.616-3784.673c-1.723,0-1.842-.121-1.825-1.861.008-.917.321-1.236,1.233-1.244.5,0,1.01-.016,1.514.01a.854.854,0,0,1,.91.914c.021.363.015.727.007,1.09-.017.785-.316,1.075-1.113,1.09C1322.1-3784.67,1321.858-3784.673,1321.616-3784.673Zm.816-2.053H1320.9v1h1.529Z" transform="translate(-1301.903 3801.451)" fill="#12263f"/>
      <path id="Trazado_199798" data-name="Trazado 199798" d="M1249.293-3817.15c0,.3.125.709-.024.883-.433.508-.761-.1-1.184-.215-.364.067-.7.748-1.154.2-.144-.173-.023-.567,0-.868,0-.285-.1-.63.023-.841.213-.36.533-.155.839,0a.8.8,0,0,0,.619,0c.3-.144.624-.369.842-.012.127.208.023.556.023.841Z" transform="translate(-1237.824 3828.167)" fill="#12263f"/>
      <path id="Trazado_199799" data-name="Trazado 199799" d="M1287.415-3747.991a2.067,2.067,0,0,1,.564-.315.738.738,0,0,1,.591.1.6.6,0,0,1,.064.581c-.187.234-.086.342.005.558a.717.717,0,0,1-.131.629c-.094.1-.405.088-.581.022-.283-.106-.506-.41-.848-.1-.231.212-.567.389-.773.05a1.657,1.657,0,0,1-.039-.881v-.9l1.148.074Z" transform="translate(-1272.413 3766.778)" fill="#12263f"/>
      <path id="Trazado_199800" data-name="Trazado 199800" d="M1254.123-3857.217c.888,0,1.776,0,2.665,0,.36,0,.723.034.726.518,0,.468-.332.543-.707.543q-2.695,0-5.39,0c-.373,0-.7-.083-.7-.555.006-.448.338-.5.678-.5C1252.306-3857.221,1253.214-3857.217,1254.123-3857.217Z" transform="translate(-1241.213 3862.461)" fill="#12263f"/>
      <path id="Trazado_199801" data-name="Trazado 199801" d="M1230.041-3756.645c-.322-.025-.894.144-.905-.478-.012-.672.584-.5,1-.519.18-.009.4-.065.533.016a2.738,2.738,0,0,1,.507.529,2.625,2.625,0,0,1-.524.438A1.7,1.7,0,0,1,1230.041-3756.645Z" transform="translate(-1222.248 3774.99)" fill="#12263f"/>
    </g>
  </g>
</svg>
