<svg xmlns="http://www.w3.org/2000/svg" xmlns:xlink="http://www.w3.org/1999/xlink" width="93.764" height="76.559" viewBox="0 0 93.764 76.559">
  <defs>
    <clipPath id="clip-path">
      <rect id="Rectángulo_356076" data-name="Rectángulo 356076" width="93.764" height="76.559" fill="#fff" stroke="#707070" stroke-width="1" opacity="0.49"/>
    </clipPath>
    <clipPath id="clip-path-2">
      <rect id="Rectángulo_356075" data-name="Rectángulo 356075" width="100.756" height="97.559" fill="none"/>
    </clipPath>
    <clipPath id="clip-path-4">
      <rect id="Rectángulo_356069" data-name="Rectángulo 356069" width="13.46" height="14.08" fill="none"/>
    </clipPath>
    <clipPath id="clip-path-5">
      <rect id="Rectángulo_356070" data-name="Rectángulo 356070" width="25.269" height="15.835" fill="#f2472c"/>
    </clipPath>
    <clipPath id="clip-path-6">
      <rect id="Rectángulo_356071" data-name="Rectángulo 356071" width="7.956" height="10.157" fill="#f2472c"/>
    </clipPath>
    <clipPath id="clip-path-7">
      <path id="Trazado_771613" data-name="Trazado 771613" d="M0,0,1.827,15.208l8.8-11.664Z" fill="#f63422"/>
    </clipPath>
    <clipPath id="clip-path-8">
      <path id="Trazado_771614" data-name="Trazado 771614" d="M0,9.524,15.249,9.47,17.3,0Z" fill="#f63422"/>
    </clipPath>
  </defs>
  <g id="Enmascarar_grupo_628" data-name="Enmascarar grupo 628" clip-path="url(#clip-path)">
    <g id="Grupo_1044739" data-name="Grupo 1044739" transform="translate(-0.107 -21.131)">
      <g id="Grupo_1044738" data-name="Grupo 1044738" clip-path="url(#clip-path-2)">
        <g id="Grupo_1044733" data-name="Grupo 1044733" transform="translate(0 0)">
          <g id="Grupo_1044732" data-name="Grupo 1044732" clip-path="url(#clip-path-2)">
            <path id="Trazado_771601" data-name="Trazado 771601" d="M28.272,107.127h0a5.775,5.775,0,0,1-7.5-3.231L14.917,89.172,25.647,84.9,31.5,99.627a5.773,5.773,0,0,1-3.231,7.5" transform="translate(-1.753 -9.978)" fill="#8f191e"/>
            <g id="Grupo_1044725" data-name="Grupo 1044725" transform="translate(13.163 74.926)" opacity="0.4" style="mix-blend-mode: multiply;isolation: isolate">
              <g id="Grupo_1044724" data-name="Grupo 1044724">
                <g id="Grupo_1044723" data-name="Grupo 1044723" clip-path="url(#clip-path-4)">
                  <path id="Trazado_771602" data-name="Trazado 771602" d="M28.376,91.767l-9.557,7.218-3.9-9.813L25.646,84.9Z" transform="translate(-14.916 -84.904)" fill="#d30040"/>
                </g>
              </g>
            </g>
            <path id="Trazado_771603" data-name="Trazado 771603" d="M26.119,85.99l-9.736,3.872a11.959,11.959,0,0,1-8.84-22.225l9.736-3.872Z" transform="translate(0 -7.494)" fill="#f2472c"/>
            <g id="Grupo_1044728" data-name="Grupo 1044728" transform="translate(0.85 67.384)" opacity="0.7" style="mix-blend-mode: multiply;isolation: isolate">
              <g id="Grupo_1044727" data-name="Grupo 1044727">
                <g id="Grupo_1044726" data-name="Grupo 1044726" clip-path="url(#clip-path-5)">
                  <path id="Trazado_771604" data-name="Trazado 771604" d="M.963,84.651h0A11.959,11.959,0,0,0,16.5,91.344l9.736-3.872-4.42-11.112Z" transform="translate(-0.963 -76.358)" fill="#f2472c"/>
                </g>
              </g>
            </g>
            <path id="Trazado_771605" data-name="Trazado 771605" d="M28.21,73.106c2.438,6.13,2.422,11.892-.037,12.87s-6.427-3.2-8.865-9.33-2.422-11.891.036-12.869,6.428,3.2,8.866,9.329" transform="translate(-2.055 -7.478)" fill="#b9001f"/>
            <path id="Trazado_771606" data-name="Trazado 771606" d="M21.193,61.017c-2.269.9-2.285,6.221-.034,11.879s5.914,9.514,8.183,8.611c.1-.041,17.433-5.929,31.554,2.778L42.22,37.326c-4.284,16.028-20.925,23.65-21.027,23.691" transform="translate(-2.289 -4.387)" fill="#dae5ec"/>
            <path id="Trazado_771607" data-name="Trazado 771607" d="M21.382,76.023c2.25,5.658,5.914,9.513,8.183,8.611.1-.041,17.433-5.929,31.554,2.777L51.781,63.932Z" transform="translate(-2.513 -7.513)" fill="#c0cbcd"/>
            <path id="Trazado_771608" data-name="Trazado 771608" d="M72.072,52.82c6.2,15.591,6.16,30.246-.094,32.733S55.63,77.418,49.428,61.826s-6.159-30.246.094-32.733,16.349,8.136,22.55,23.727" transform="translate(-5.265 -3.377)" fill="#f2472c"/>
            <path id="Trazado_771609" data-name="Trazado 771609" d="M68.72,55.171c4.937,12.415,5.631,23.8,1.55,25.418S58.875,73.465,53.937,61.05s-5.631-23.794-1.55-25.418S63.782,42.756,68.72,55.171" transform="translate(-5.844 -4.165)" fill="#dae5ec"/>
            <path id="Trazado_771610" data-name="Trazado 771610" d="M50.615,37.743c-1.908,4.017-.7,13.453,3.323,23.579s9.633,17.811,13.779,19.42c1.907-4.017.7-13.453-3.323-23.579s-9.634-17.81-13.779-19.42" transform="translate(-5.844 -4.436)" fill="#c0cbcd"/>
            <path id="Trazado_771611" data-name="Trazado 771611" d="M61.553,60.463a7.955,7.955,0,0,0-9.918-4.6,72.076,72.076,0,0,0,5.87,14.759,7.954,7.954,0,0,0,4.048-10.156" transform="translate(-6.068 -6.516)" fill="#ff674f"/>
            <g id="Grupo_1044731" data-name="Grupo 1044731" transform="translate(48.094 53.947)" opacity="0.7" style="mix-blend-mode: multiply;isolation: isolate">
              <g id="Grupo_1044730" data-name="Grupo 1044730">
                <g id="Grupo_1044729" data-name="Grupo 1044729" clip-path="url(#clip-path-6)">
                  <path id="Trazado_771612" data-name="Trazado 771612" d="M54.5,64.071a70.283,70.283,0,0,0,3.343,7.217,7.954,7.954,0,0,0,4.048-10.156Z" transform="translate(-54.498 -61.131)" fill="#f2472c"/>
                </g>
              </g>
            </g>
          </g>
        </g>
        <g id="Grupo_1044737" data-name="Grupo 1044737" transform="matrix(0.966, 0.259, -0.259, 0.966, 68.586, 28.649)">
          <g id="Grupo_1044734" data-name="Grupo 1044734" clip-path="url(#clip-path-7)">
            <rect id="Rectángulo_356073" data-name="Rectángulo 356073" width="18.267" height="18.266" transform="matrix(0.707, -0.707, 0.707, 0.707, -7.604, 7.604)" fill="#f63422"/>
          </g>
          <g id="Grupo_1044736" data-name="Grupo 1044736" transform="translate(4.124 9.188)">
            <g id="Grupo_1044735" data-name="Grupo 1044735" transform="translate(0 0)" clip-path="url(#clip-path-8)">
              <rect id="Rectángulo_356074" data-name="Rectángulo 356074" width="22.32" height="22.32" transform="matrix(0.707, -0.707, 0.707, 0.707, -4.482, 5.042)" fill="#f63422"/>
            </g>
          </g>
        </g>
      </g>
    </g>
  </g>
</svg>
