<svg id="Grupo_1065639" data-name="Grupo 1065639" xmlns="http://www.w3.org/2000/svg" xmlns:xlink="http://www.w3.org/1999/xlink" width="104.251" height="104.252" viewBox="0 0 104.251 104.252">
  <defs>
    <radialGradient id="radial-gradient" cx="0.076" cy="0.019" r="1.465" gradientTransform="translate(0.001)" gradientUnits="objectBoundingBox">
      <stop offset="0" stop-color="#f6f6f7"/>
      <stop offset="0.477" stop-color="#f9f9fa"/>
      <stop offset="0.715" stop-color="#fff"/>
    </radialGradient>
  </defs>
  <g id="Grupo_42274" data-name="Grupo 42274" transform="translate(0 0)">
    <g id="Grupo_18423" data-name="Grupo 18423">
      <g id="Grupo_18421" data-name="Grupo 18421">
        <g id="Grupo_18420" data-name="Grupo 18420">
          <g id="Grupo_18419" data-name="Grupo 18419">
            <path id="Trazado_40936" data-name="Trazado 40936" d="M298.874,2197.844a52.125,52.125,0,1,1-52.125-52.124A52.124,52.124,0,0,1,298.874,2197.844Z" transform="translate(-194.623 -2145.721)" fill="#fff"/>
          </g>
        </g>
      </g>
      <path id="Trazado_40937" data-name="Trazado 40937" d="M298.4,2197.326a52.124,52.124,0,1,0-52.125,52.126A51.917,51.917,0,0,0,298.4,2197.326Z" transform="translate(-194.145 -2145.202)" fill="url(#radial-gradient)"/>
      <path id="Trazado_40938" data-name="Trazado 40938" d="M281.847,2193.134a39.787,39.787,0,1,0-39.787,39.788A39.641,39.641,0,0,0,281.847,2193.134Z" transform="translate(-190.776 -2140.837)" fill="none" stroke="#12263f" stroke-miterlimit="10" stroke-width="4"/>
      <g id="Grupo_18422" data-name="Grupo 18422" transform="translate(9.235 29.265)">
        <path id="Trazado_40939" data-name="Trazado 40939" d="M290.291,2164.488a52.131,52.131,0,0,1-89.746,51.908,51.966,51.966,0,0,0,89.746-51.908Z" transform="translate(-200.545 -2164.488)" fill="#eceef0"/>
      </g>
    </g>
  </g>
  <g id="hacker" transform="translate(25.937 22.126)">
    <path id="Trazado_774078" data-name="Trazado 774078" d="M124.981,31.375c0-.005,0-.01,0-.016,0-3.187-8.4-23.81-18.764-23.81S87.454,28.172,87.454,31.36c0,.005,0,.01,0,.016s0,.01,0,.015c0,2.969,12.652,18.578,18.764,18.578,5.981,0,18.764-15.609,18.764-18.578,0-.005,0-.01,0-.015Z" transform="translate(-80.03 -6.709)" fill="#135370"/>
    <g id="Grupo_1065630" data-name="Grupo 1065630" transform="translate(11.662 18.064)">
      <path id="Trazado_774079" data-name="Trazado 774079" d="M351.607,168.438h-2.131v-6.18h2.131a1.988,1.988,0,0,1,1.988,1.988v2.2A1.988,1.988,0,0,1,351.607,168.438Z" transform="translate(-324.544 -162.258)" fill="#f4c892"/>
      <path id="Trazado_774080" data-name="Trazado 774080" d="M127.511,168.438h2.131v-6.18h-2.131a1.988,1.988,0,0,0-1.988,1.988v2.2A1.988,1.988,0,0,0,127.511,168.438Z" transform="translate(-125.523 -162.258)" fill="#f4c892"/>
    </g>
    <g id="Grupo_1065631" data-name="Grupo 1065631" transform="translate(14.694 6.28)">
      <path id="Trazado_774081" data-name="Trazado 774081" d="M205.314,283.029l-1.344-.27a2.042,2.042,0,0,1-1.64-2V278.82h-8.793v1.986a2.043,2.043,0,0,1-1.64,2l-1.1.221v7.394h14.518Z" transform="translate(-186.561 -254.06)" fill="#ffdfb8"/>
      <path id="Trazado_774082" data-name="Trazado 774082" d="M164.249,82.626h0a11.494,11.494,0,0,1-11.494-11.494V67.9a11.494,11.494,0,0,1,11.494-11.494h0A11.494,11.494,0,0,1,175.743,67.9v3.23A11.494,11.494,0,0,1,164.249,82.626Z" transform="translate(-152.755 -56.408)" fill="#ffdfb8"/>
    </g>
    <path id="Trazado_774083" data-name="Trazado 774083" d="M232.068,56.408h0a11.507,11.507,0,0,0-3,.4,11.5,11.5,0,0,1,8.5,11.1v3.23a11.5,11.5,0,0,1-8.5,11.1,11.507,11.507,0,0,0,3,.4h0a11.494,11.494,0,0,0,11.494-11.494V67.9A11.494,11.494,0,0,0,232.068,56.408Z" transform="translate(-205.88 -50.128)" fill="#f4cfa6"/>
    <path id="Trazado_774084" data-name="Trazado 774084" d="M106.218,24.824c10.346,0,18.736,3.585,18.763,6.551,0-.005,0-.01,0-.016,0-3.187-8.4-23.81-18.764-23.81S87.454,28.172,87.454,31.36c0,.005,0,.01,0,.016C87.482,28.409,95.872,24.824,106.218,24.824Z" transform="translate(-80.03 -6.709)" fill="#1e608b"/>
    <path id="Trazado_774085" data-name="Trazado 774085" d="M234.55,7.551a8.434,8.434,0,0,0-2.687.454c6.693,2.24,12.245,12.266,14.708,18.559,4.108,1.31,6.727,3.157,6.742,4.812,0-.005,0-.01,0-.016C253.314,28.173,244.913,7.551,234.55,7.551Z" transform="translate(-208.363 -6.71)" fill="#135370"/>
    <path id="Trazado_774086" data-name="Trazado 774086" d="M79,336.643c-.5-3.675-2.531-14.33-9.507-17.129l-7.957-2.481H45.789l-7.957,2.481c-6.976,2.8-9.007,13.454-9.507,17.129a1.107,1.107,0,0,0,1.1,1.255H77.9A1.107,1.107,0,0,0,79,336.643Z" transform="translate(-27.476 -281.739)" fill="#1e608b"/>
    <path id="Trazado_774087" data-name="Trazado 774087" d="M295.29,336.643c-.5-3.675-2.531-14.33-9.507-17.129l-7.957-2.481H271.7l7.957,2.481c8.471,3.4,9.65,18.384,9.65,18.384h4.885A1.107,1.107,0,0,0,295.29,336.643Z" transform="translate(-243.765 -281.739)" fill="#135370"/>
    <path id="Trazado_774088" data-name="Trazado 774088" d="M131.069,313.418H99.608a1.891,1.891,0,0,0-1.891,1.891v17.928H132.96V315.308A1.89,1.89,0,0,0,131.069,313.418Z" transform="translate(-89.151 -278.526)" fill="#cfcfcf"/>
    <path id="Trazado_774089" data-name="Trazado 774089" d="M349.436,313.418h-6a1.891,1.891,0,0,1,1.891,1.891v17.928h6V315.308A1.891,1.891,0,0,0,349.436,313.418Z" transform="translate(-307.518 -278.526)" fill="#c2c4c6"/>
    <path id="Trazado_774090" data-name="Trazado 774090" d="M114.735,478.8H77.218a1.288,1.288,0,0,0-1.288,1.288v.279a1.288,1.288,0,0,0,1.288,1.288h37.517a1.288,1.288,0,0,0,1.288-1.288v-.279A1.288,1.288,0,0,0,114.735,478.8Z" transform="translate(-69.789 -425.5)" fill="#9c9da0"/>
    <path id="Trazado_774091" data-name="Trazado 774091" d="M386.621,478.8h-4.745v2.855h4.745a1.288,1.288,0,0,0,1.288-1.288v-.279A1.288,1.288,0,0,0,386.621,478.8Z" transform="translate(-341.675 -425.5)" fill="#8d8f93"/>
    <circle id="Elipse_6006" data-name="Elipse 6006" cx="2.645" cy="2.645" r="2.645" transform="translate(23.543 42.205)" fill="#fff"/>
    <g id="Grupo_1065632" data-name="Grupo 1065632" transform="translate(17.784 19.98)">
      <path id="Trazado_774092" data-name="Trazado 774092" d="M185.621,183.594h-4.258a.849.849,0,0,1-.849-.849v-2.424a.849.849,0,0,1,.849-.849h5.307a.849.849,0,0,1,.849.849V181.7A1.9,1.9,0,0,1,185.621,183.594Z" transform="translate(-180.514 -179.472)" fill="#4d4d4d"/>
      <path id="Trazado_774093" data-name="Trazado 774093" d="M270.461,183.594h4.258a.849.849,0,0,0,.849-.849v-2.424a.849.849,0,0,0-.849-.849h-5.307a.849.849,0,0,0-.849.849V181.7A1.9,1.9,0,0,0,270.461,183.594Z" transform="translate(-258.761 -179.472)" fill="#4d4d4d"/>
    </g>
    <path id="Trazado_774094" data-name="Trazado 774094" d="M228.177,371.558a3.486,3.486,0,1,0,3.486,3.486A3.49,3.49,0,0,0,228.177,371.558Zm0,5.29a1.8,1.8,0,1,1,1.8-1.8A1.807,1.807,0,0,1,228.177,376.848Z" transform="translate(-201.989 -330.193)"/>
    <path id="Trazado_774095" data-name="Trazado 774095" d="M73.127,54.791a39.327,39.327,0,0,0-1.995-8.12c-1.428-3.826-3.349-6.641-5.713-8.377V36.782a2.734,2.734,0,0,0-2.731-2.731H60.627c3.117-3.613,5.934-7.673,5.934-9.371,0-.005,0-.011,0-.016s0-.01,0-.014c0-1.746-2.059-7.612-5.412-13.2a.841.841,0,0,0-1.441.865,52.4,52.4,0,0,1,4.241,8.843,22.51,22.51,0,0,0-6.494-2.619l-.236-.06-.165-.04a41.873,41.873,0,0,0-8.117-1.125l-.177-.007L48.4,17.3q-.288-.009-.576-.014l-.193,0c-.223,0-.446-.006-.67-.006s-.47,0-.705.006l-.348.008-.322.008q-.248.007-.5.018l-.124.005a41.516,41.516,0,0,0-8.57,1.242q-.232.06-.46.122l-.088.024a21.647,21.647,0,0,0-5.877,2.453q.062-.172.129-.351l.041-.109q.053-.141.109-.285l.046-.119c.051-.131.1-.264.157-.4a53.926,53.926,0,0,1,3.958-7.908c2.353-3.85,7.113-10.308,12.551-10.308,4.289,0,8.128,4.011,10.593,7.375a.841.841,0,1,0,1.356-.994A26.1,26.1,0,0,0,53.5,2.416,11.074,11.074,0,0,0,46.957,0c-3.281,0-8.37,1.928-13.985,11.112-3.481,5.694-5.619,11.723-5.619,13.539,0,.005,0,.011,0,.016s0,.01,0,.014c0,1.708,2.8,5.766,5.891,9.371H31.226a2.734,2.734,0,0,0-2.731,2.731v1.512a16.992,16.992,0,0,0-5.311,7.357.841.841,0,1,0,1.552.647,16.853,16.853,0,0,1,3.759-5.817V52.464h-.3a2.131,2.131,0,0,0-2.129,2.129v.279a2.131,2.131,0,0,0,.012.223c0,.024.008.048.011.072.007.048.013.1.023.144l0,.009h-3.4a.265.265,0,0,1-.2-.092.261.261,0,0,1-.063-.209,39.289,39.289,0,0,1,1.042-5.086.841.841,0,1,0-1.62-.448,41.021,41.021,0,0,0-1.088,5.307A1.947,1.947,0,0,0,22.717,57H71.2a1.947,1.947,0,0,0,1.931-2.209ZM59.081,23.272c.008-.04.015-.081.022-.121s.019-.111.028-.166.015-.093.022-.139.014-.1.021-.153.014-.1.02-.152.011-.1.017-.147.012-.105.017-.158.009-.1.013-.149.009-.1.013-.157c0-.028,0-.056.006-.084a.84.84,0,0,0,.006-.1h0c0-.041.005-.082.007-.123,0-.062.005-.124.007-.187,0-.041,0-.081,0-.121q0-.155,0-.31v-.161q.267.092.527.188c.283.1.558.211.824.321v.9A1.149,1.149,0,0,1,59.494,23.4h-.437C59.066,23.36,59.073,23.316,59.081,23.272Zm.412,1.813a2.832,2.832,0,0,0,2.829-2.829v-.107c1.742.954,2.55,1.891,2.556,2.526v0c0,.006,0,.013,0,.019-.023.937-2.331,4.757-6.495,9.357H52.739a1.205,1.205,0,0,1-.667-1.074v-.75A12.4,12.4,0,0,0,58.6,25.085h.9Zm-1.884-4.76v.582H56.2v-.077a1.679,1.679,0,0,0-.277-.924C56.54,20.042,57.1,20.184,57.61,20.324Zm-3.09.5v.778a.781.781,0,0,0,0,.279v1.367a.009.009,0,0,1-.009.009H50.253A1.059,1.059,0,0,1,49.2,22.2V20.829a.009.009,0,0,1,.009-.009h5.307A.009.009,0,0,1,54.52,20.829Zm-7.563-1.874c1.352,0,2.693.064,4.007.184H49.2a1.691,1.691,0,0,0-1.684,1.571H46.393a1.691,1.691,0,0,0-1.684-1.571H42.95C44.263,19.019,45.6,18.955,46.957,18.955Zm-7.563,1.874a.009.009,0,0,1,.009-.009h5.307a.009.009,0,0,1,.009.009V22.2a1.059,1.059,0,0,1-1.058,1.058H39.4a.009.009,0,0,1-.009-.009V20.829Zm.009,4.114H43.66a2.742,2.742,0,0,0,2.732-2.551h1.13a2.742,2.742,0,0,0,2.732,2.551h4.258a1.692,1.692,0,0,0,1.69-1.69v-.666h1.291c-.015.1-.03.2-.047.294,0,.027-.01.053-.015.08q-.023.123-.049.245-.015.071-.031.141c-.013.059-.028.118-.042.177q-.035.144-.074.286c-.011.04-.021.079-.032.118a10.7,10.7,0,0,1-6.47,7.037l-.158.059q-.131.047-.263.091t-.237.076l-.2.059q-.153.044-.307.082l-.182.045q-.165.039-.331.072l-.161.031c-.119.022-.239.042-.359.06l-.132.018c-.131.018-.262.034-.394.047l-.1.008c-.144.013-.288.024-.433.031l-.052,0c-.158.007-.317.011-.476.011a10.673,10.673,0,0,1-10.245-7.729c-.011-.039-.022-.079-.032-.118q-.039-.142-.074-.286c-.014-.059-.028-.118-.042-.177s-.021-.094-.031-.141q-.026-.122-.049-.245c-.005-.027-.01-.053-.015-.08-.017-.1-.033-.2-.047-.294h1.291v.666A1.692,1.692,0,0,0,39.4,24.943Zm11.2,9.108H43.09a2.873,2.873,0,0,0,.189-1.025v-.245c.2.061.393.115.591.167l.03.008q.256.065.515.12l.083.017.252.048.134.023q.181.031.363.056l.2.027.185.021q.158.017.317.03l.131.01q.168.012.338.019l.12,0c.137,0,.275.008.414.008s.26,0,.389-.007l.121,0q.14-.006.278-.015l.126-.008q.179-.013.356-.031l.158-.018.21-.026.192-.027.168-.027q.2-.032.393-.071l.105-.021c.081-.017.161-.034.241-.053l.1-.023c.2-.047.4-.1.6-.155v.123A2.861,2.861,0,0,0,50.6,34.051ZM36.3,20.324c.506-.14,1.07-.282,1.686-.419a1.679,1.679,0,0,0-.277.924v.077H36.3v-.582Zm-3.032,1.028c.266-.11.541-.217.824-.321q.26-.1.526-.188V21q0,.155,0,.31c0,.041,0,.081,0,.121,0,.062,0,.125.007.187s.006.1.009.147c0,0,0,.009,0,.014s0,.037,0,.056,0,.06.006.091c0,.052.009.1.013.157s.008.1.013.149.011.105.017.158.011.1.017.147.014.1.02.152.014.1.021.153.015.093.022.139.018.111.028.166.015.081.022.121.016.088.024.132h-.437a1.149,1.149,0,0,1-1.148-1.148v-.9Zm-4.238,3.34c0-.006,0-.011,0-.017v0c.006-.634.814-1.572,2.556-2.526v.107a2.832,2.832,0,0,0,2.829,2.829h.9A12.4,12.4,0,0,0,41.6,32.113v.913a1.2,1.2,0,0,1-.579,1.025H35.481C31.5,29.627,29.054,25.654,29.033,24.693Zm2.192,11.04H62.687a1.051,1.051,0,0,1,1.05,1.05h0V52.463H30.176V36.782h0a1.051,1.051,0,0,1,1.05-1.05M66.163,54.871a.448.448,0,0,1-.448.448H28.2a.448.448,0,0,1-.448-.448v-.279a.448.448,0,0,1,.448-.448H65.715a.448.448,0,0,1,.448.448Zm5.235.356a.265.265,0,0,1-.2.092H67.8l0-.009c.01-.047.016-.1.023-.144,0-.024.008-.048.011-.072a2.132,2.132,0,0,0,.012-.223v-.279a2.131,2.131,0,0,0-2.129-2.129h-.3V40.484c4.309,4.1,5.7,12.025,6.042,14.533A.262.262,0,0,1,71.4,55.227Z" transform="translate(-20.769 0)"/>
  </g>
</svg>
