<svg xmlns="http://www.w3.org/2000/svg" width="86" height="75" viewBox="0 0 86 75">
  <g id="Grupo_1067598" data-name="Grupo 1067598" transform="translate(-1.379)">
    <path id="Trazado_781016" data-name="Trazado 781016" d="M24.5,0A24.254,24.254,0,0,1,49,24,24.254,24.254,0,0,1,24.5,48,24.254,24.254,0,0,1,0,24,24.254,24.254,0,0,1,24.5,0Z" transform="translate(38.379 27)" fill="#aafee8"/>
    <path id="Trazado_781015" data-name="Trazado 781015" d="M17.5,0A17.255,17.255,0,0,1,35,17,17.255,17.255,0,0,1,17.5,34,17.255,17.255,0,0,1,0,17,17.255,17.255,0,0,1,17.5,0Z" transform="translate(1.379)" fill="#d4fef3"/>
    <g id="pdf_3_" data-name="pdf (3)" transform="translate(-12.68 5.108)">
      <g id="Grupo_1065353" data-name="Grupo 1065353" transform="translate(25.019 0.97)">
        <path id="Trazado_801163" data-name="Trazado 801163" d="M38.808,272.313H36.734a5.186,5.186,0,0,1-5.186-5.186,3.111,3.111,0,0,1,3.111-3.111h4.148Z" transform="translate(-31.548 -230.829)" fill="#bd4150"/>
        <path id="Trazado_801164" data-name="Trazado 801164" d="M130.893,17.264l-9.156-9.156A2.074,2.074,0,0,0,120.27,7.5H81.719a2.074,2.074,0,0,0-2.074,2.074v32.4L81.719,71.8h47.707a2.074,2.074,0,0,0,2.074-2.074v-51a2.074,2.074,0,0,0-.607-1.467Z" transform="translate(-73.422 -7.501)" fill="#fff"/>
        <path id="Trazado_801165" data-name="Trazado 801165" d="M403.683,18.731a2.074,2.074,0,0,0-.608-1.467l-9.156-9.156a2.074,2.074,0,0,0-1.467-.607h-.178V17.872a1.037,1.037,0,0,0,1.037,1.037h10.371Z" transform="translate(-345.605 -7.501)" fill="#dad8db"/>
        <path id="Trazado_801166" data-name="Trazado 801166" d="M82.757,66.615V7.5H81.72a2.074,2.074,0,0,0-2.074,2.074V69.726A2.074,2.074,0,0,0,81.72,71.8h47.707a2.074,2.074,0,0,0,2.074-2.074V68.689H84.831A2.076,2.076,0,0,1,82.757,66.615Z" transform="translate(-73.423 -7.5)" fill="#dad8db"/>
        <path id="Trazado_801167" data-name="Trazado 801167" d="M66.811,291.176H34.66a3.111,3.111,0,0,1-3.111-3.111v18.668a3.111,3.111,0,0,0,3.111,3.111h32.15a2.074,2.074,0,0,0,2.074-2.074V293.25A2.074,2.074,0,0,0,66.811,291.176Z" transform="translate(-31.549 -251.766)" fill="#e95773"/>
        <path id="Trazado_801168" data-name="Trazado 801168" d="M34.66,309.844h32.15a2.074,2.074,0,0,0,2.074-2.074v-1.037H36.734a2.077,2.077,0,0,1-2.074-2.074V291.176a3.111,3.111,0,0,1-3.111-3.111v18.668A3.111,3.111,0,0,0,34.66,309.844Z" transform="translate(-31.549 -251.766)" fill="#dc4663"/>
      </g>
      <g id="Grupo_1065354" data-name="Grupo 1065354" transform="translate(24.049 0)">
        <path id="Trazado_801169" data-name="Trazado 801169" d="M83.176,10.048,74.02.892A3.025,3.025,0,0,0,71.867,0H33.316a3.048,3.048,0,0,0-3.045,3.045V33.187H28.131a4.086,4.086,0,0,0-4.082,4.082V55.937a4.086,4.086,0,0,0,4.082,4.082h32.15a3.048,3.048,0,0,0,3.045-3.045V42.455a3.048,3.048,0,0,0-3.045-3.045H28.131a2.141,2.141,0,1,1,0-4.282h2.141v1.1a.97.97,0,1,0,1.941,0V3.045a1.105,1.105,0,0,1,1.1-1.1h37.4v9.4a2.01,2.01,0,0,0,2.007,2.008h9.4V63.2a1.105,1.105,0,0,1-1.1,1.1H33.316a1.105,1.105,0,0,1-1.1-1.1.97.97,0,0,0-1.941,0,3.048,3.048,0,0,0,3.045,3.045H81.023A3.048,3.048,0,0,0,84.068,63.2v-51A3.024,3.024,0,0,0,83.176,10.048Zm-55.045,31.3h32.15a1.105,1.105,0,0,1,1.1,1.1v14.52a1.105,1.105,0,0,1-1.1,1.1H28.131a2.143,2.143,0,0,1-2.141-2.141V40.743A4.055,4.055,0,0,0,28.131,41.351ZM72.659,11.341V2.276l9.132,9.132H72.726A.067.067,0,0,1,72.659,11.341Z" transform="translate(-24.049 0)"/>
        <path id="Trazado_801170" data-name="Trazado 801170" d="M230.041,355.1a.97.97,0,0,0,.97-.97v-3.226h2.1a.97.97,0,1,0,0-1.941h-2.1v-2.1h2.368a.97.97,0,0,0,0-1.941h-3.338a.97.97,0,0,0-.97.97v8.236A.97.97,0,0,0,230.041,355.1Z" transform="translate(-202.546 -300.302)"/>
        <path id="Trazado_801171" data-name="Trazado 801171" d="M155.7,355.352a.97.97,0,0,0,.684.282h0c.069,0,1.695-.006,2.344-.018,2.4-.042,4.138-2.136,4.138-4.978,0-2.988-1.7-5-4.222-5h-2.28a.97.97,0,0,0-.97.972v.006h0v7.912a1.365,1.365,0,0,0,.3.819Zm2.948-7.77c1.682,0,2.281,1.578,2.281,3.055,0,2.072-1.121,3.019-2.231,3.038-.309.005-.859.01-1.347.013,0-.952-.01-5.116-.011-6.106Z" transform="translate(-138.404 -300.924)"/>
        <path id="Trazado_801172" data-name="Trazado 801172" d="M88.915,354.93a.97.97,0,0,0,.97-.97v-2.639c.482,0,1.03-.005,1.34-.005a3.312,3.312,0,1,0,0-6.623h-2.31a.97.97,0,0,0-.97.97h0v8.3A.97.97,0,0,0,88.915,354.93Zm2.31-8.3a1.372,1.372,0,1,1,0,2.742c-.308,0-.849,0-1.329,0,0-.5-.006-2.228-.008-2.747h1.337Z" transform="translate(-79.678 -300.097)"/>
        <path id="Trazado_801173" data-name="Trazado 801173" d="M188.076,99.671c-2.385.753-4.833,1.795-6.138,3.142a2.709,2.709,0,0,0-.536,3.54,2.315,2.315,0,0,0,1.96,1.176,2.58,2.58,0,0,0,.922-.18c1.14-.436,2.372-1.676,3.765-3.792.45-.683.9-1.442,1.358-2.263q.247-.073.505-.145a48.4,48.4,0,0,1,8.555-1.555,11.869,11.869,0,0,0,4.831,3.192,2.709,2.709,0,0,0,3.407-1.966,2.016,2.016,0,0,0-.982-2.453,10.02,10.02,0,0,0-4.956-.833c-.5.006-1.019.026-1.564.06a38.752,38.752,0,0,1-5.334-7.048q.1-.345.19-.679a14.776,14.776,0,0,0,.7-5.6c-.284-1.812-1.454-2.069-1.943-2.1a2.589,2.589,0,0,0-3,2.25,9.282,9.282,0,0,0,1.19,4.869c.228.485.484.985.765,1.5q-.157.5-.341,1.049a55.756,55.756,0,0,1-3.355,7.835Zm-4.66,5.912c-.069.009-.186.023-.385-.285a.6.6,0,0,1-.033-.7c.324-.6,1.43-1.451,3.57-2.327C185.075,104.59,183.958,105.515,183.416,105.583Zm21.462-5.433a.347.347,0,0,1-.016.066c-.242.74-.568.809-1.122.68a7.016,7.016,0,0,1-2.493-1.422C203.841,99.5,204.746,99.962,204.878,100.15ZM191.738,84.7c.04-.277.084-.589.822-.589q.07,0,.148,0c.221.269.335,1.467-.177,3.838A6.931,6.931,0,0,1,191.738,84.7Zm1.351,8.281c.426.655.884,1.316,1.37,1.975.7.946,1.483,1.929,2.316,2.866-.963.116-1.956.266-2.949.446-.672.122-1.844.352-3.216.694q.456-.946.9-1.957C192.091,95.667,192.627,94.3,193.09,92.978Z" transform="translate(-160.661 -71.537)"/>
      </g>
    </g>
  </g>
</svg>
