<svg xmlns="http://www.w3.org/2000/svg" width="92" height="92" viewBox="0 0 92 92">
  <g id="Grupo_1070116" data-name="Grupo 1070116" transform="translate(-796 -872)">
    <circle id="Elipse_9027" data-name="Elipse 9027" cx="46" cy="46" r="46" transform="translate(796 872)" fill="#f77e6b"/>
    <g id="archivo" transform="translate(796.819 889.406)">
      <g id="Grupo_1067740" data-name="Grupo 1067740" transform="translate(23.532 0.838)">
        <path id="Trazado_813462" data-name="Trazado 813462" d="M104.453,11.11H66.091V8.628A1.128,1.128,0,0,1,67.219,7.5h36.105a1.128,1.128,0,0,1,1.128,1.128V11.11Z" transform="translate(-66.091 -7.5)" fill="#d3effb"/>
      </g>
      <g id="Grupo_1067741" data-name="Grupo 1067741" transform="translate(22.404 4.448)">
        <path id="Trazado_813463" data-name="Trazado 813463" d="M96.607,43.435H55.989V40.953a1.128,1.128,0,0,1,1.128-1.128H95.479a1.128,1.128,0,0,1,1.128,1.128Z" transform="translate(-55.989 -39.825)" fill="#cbe2ff"/>
      </g>
      <g id="Grupo_1067742" data-name="Grupo 1067742" transform="translate(19.019 41.682)">
        <path id="Trazado_813464" data-name="Trazado 813464" d="M73.072,387.847H25.809l-.125-14.668H73.072Z" transform="translate(-25.684 -373.179)" fill="#9d66d5"/>
      </g>
      <g id="Grupo_1067743" data-name="Grupo 1067743" transform="translate(30.482 41.682)">
        <path id="Trazado_813465" data-name="Trazado 813465" d="M164.241,380.594l-6.834-6.834q.129-.288.246-.581H128.316a15.8,15.8,0,0,0,21.111,8.558l6.11,6.11h8.7v-7.253Z" transform="translate(-128.316 -373.179)" fill="#8659b9"/>
      </g>
      <g id="Grupo_1067744" data-name="Grupo 1067744" transform="translate(21.275 8.059)">
        <path id="Trazado_813466" data-name="Trazado 813466" d="M88.762,105.773H45.887V73.278a1.128,1.128,0,0,1,1.128-1.128H87.634a1.128,1.128,0,0,1,1.128,1.128v32.495Z" transform="translate(-45.887 -72.15)" fill="#f4fbff"/>
      </g>
      <g id="Grupo_1067745" data-name="Grupo 1067745" transform="translate(24.886 11.669)">
        <path id="Trazado_813467" data-name="Trazado 813467" d="M0,0H13.991V11.283H0Z" transform="translate(11.283 0) rotate(90)" fill="#dd636e"/>
      </g>
      <g id="Grupo_1067746" data-name="Grupo 1067746" transform="translate(60.048 8.059)">
        <path id="Trazado_813468" data-name="Trazado 813468" d="M396,72.15h-2.974a1.128,1.128,0,0,1,1.128,1.128v32.495h2.974V73.278A1.128,1.128,0,0,0,396,72.15Z" transform="translate(-393.023 -72.15)" fill="#e4f6ff"/>
      </g>
      <g id="Grupo_1067755" data-name="Grupo 1067755" transform="translate(31.608 22.275)">
        <g id="Grupo_1067747" data-name="Grupo 1067747" transform="translate(20.392 20.401)">
          <path id="Trazado_813469" data-name="Trazado 813469" d="M0,0H6.77V4.062H0Z" transform="translate(0 4.786) rotate(-45)" fill="#2b4d66"/>
        </g>
        <g id="Grupo_1067748" data-name="Grupo 1067748" transform="translate(24.221 24.23)">
          <path id="Trazado_813470" data-name="Trazado 813470" d="M0,0H4.062V4.062H0Z" transform="translate(0 2.872) rotate(-45)" fill="#4a80aa"/>
        </g>
        <g id="Grupo_1067749" data-name="Grupo 1067749" transform="translate(26.145 26.145)">
          <path id="Trazado_813471" data-name="Trazado 813471" d="M385.188,441.44h-9.574l-3.142-3.142,4.787-4.787Z" transform="translate(-372.472 -433.511)" fill="#407093"/>
        </g>
        <g id="Grupo_1067750" data-name="Grupo 1067750" transform="translate(29.336 26.145)">
          <path id="Trazado_813472" data-name="Trazado 813472" d="M402.64,433.511l-1.6,1.6,6.333,6.333h3.191Z" transform="translate(-401.044 -433.511)" fill="#365e7d"/>
        </g>
        <g id="Grupo_1067751" data-name="Grupo 1067751">
          <circle id="Elipse_9029" data-name="Elipse 9029" cx="13.539" cy="13.539" r="13.539" fill="#407093"/>
        </g>
        <g id="Grupo_1067752" data-name="Grupo 1067752" transform="translate(2.756 2.757)">
          <path id="Trazado_813473" data-name="Trazado 813473" d="M182.043,224.113a13.539,13.539,0,0,1-18.971,18.971,13.539,13.539,0,1,0,18.971-18.971Z" transform="translate(-163.072 -224.113)" fill="#365e7d"/>
        </g>
        <g id="Grupo_1067753" data-name="Grupo 1067753" transform="translate(3.611 3.611)">
          <circle id="Elipse_9030" data-name="Elipse 9030" cx="9.929" cy="9.929" r="9.929" fill="#e4f6ff"/>
        </g>
        <g id="Grupo_1067754" data-name="Grupo 1067754" transform="translate(5.626 5.625)">
          <path id="Trazado_813474" data-name="Trazado 813474" d="M202.67,249.8a9.929,9.929,0,0,1-13.91,13.91,9.929,9.929,0,1,0,13.91-13.91Z" transform="translate(-188.76 -249.798)" fill="#d3effb"/>
        </g>
      </g>
      <g id="Grupo_1067756" data-name="Grupo 1067756" transform="translate(18.181 0)">
        <path id="Trazado_813475" data-name="Trazado 813475" d="M39.228,31.292a.838.838,0,0,0,.838-.838V9.187a.291.291,0,0,1,.29-.29H80.975a.291.291,0,0,1,.29.29v10.1a.838.838,0,0,0,1.675,0V9.187a1.966,1.966,0,0,0-1.129-1.776V5.577A1.967,1.967,0,0,0,80.683,3.8V1.966A1.968,1.968,0,0,0,78.717,0H42.612a1.968,1.968,0,0,0-1.966,1.966V3.8a1.967,1.967,0,0,0-1.128,1.776V7.411A1.966,1.966,0,0,0,38.39,9.187V30.454A.838.838,0,0,0,39.228,31.292ZM41.193,5.577a.291.291,0,0,1,.291-.291H79.846a.291.291,0,0,1,.291.291V7.221H41.193Zm1.128-3.61a.291.291,0,0,1,.291-.291H78.718a.291.291,0,0,1,.291.291V3.611H42.322Z" transform="translate(-36.133 0)"/>
        <path id="Trazado_813476" data-name="Trazado 813476" d="M181.6,227.412a10.767,10.767,0,1,0,3.153,7.613A10.7,10.7,0,0,0,181.6,227.412Zm-1.185,14.042a9.091,9.091,0,1,1,2.663-6.429A9.032,9.032,0,0,1,180.415,241.454Z" transform="translate(-147.02 -199.211)"/>
        <path id="Trazado_813477" data-name="Trazado 813477" d="M71.061,141.9l-3.817-3.817V127.826a.838.838,0,0,0-.838-.838H64.988v-17.65a.838.838,0,0,0-1.675,0v17.65h-4.7a14.377,14.377,0,0,0-21.608-16.88V97.814a.838.838,0,0,0-.838-.838H24.886a.838.838,0,0,0-.838.838V111.8a.838.838,0,0,0,.838.838H34.2a14.407,14.407,0,0,0-2.518,14.346H22.113v-6.48a.838.838,0,1,0-1.675,0v6.48h-1.42a.838.838,0,0,0-.838.845l.125,14.668a.838.838,0,0,0,.838.831h4.977a.838.838,0,0,0,0-1.675H19.974l-.111-12.992H32.428a14.4,14.4,0,0,0,19.452,6l2.408,2.408a.838.838,0,0,0,1.185,0l.365-.365,1.687,1.687-.365.365a.838.838,0,0,0,0,1.185l1.712,1.712H28.03a.838.838,0,1,0,0,1.675H60.9a.838.838,0,0,0,.591-1.43l-2.55-2.55,3.6-3.6,7.337,7.337a.838.838,0,1,0,1.185-1.185ZM25.724,98.651h9.607v12.315H25.724Zm10.442,32.289a12.7,12.7,0,1,1,17.963,0A12.716,12.716,0,0,1,36.166,130.941Zm17.187,2.826a14.47,14.47,0,0,0,3.6-3.6l1.528,1.528-3.6,3.6Zm3.67,1.755,1.687-1.687,1.687,1.687L58.71,137.21Zm4.925-1.55-.365.365-1.687-1.687.365-.365a.838.838,0,0,0,0-1.185l-2.408-2.408.015-.028h7.7v7.746l-2.437-2.437a.838.838,0,0,0-1.185,0Z" transform="translate(-18.181 -86.144)"/>
        <path id="Trazado_813478" data-name="Trazado 813478" d="M227.447,96.976H206.912a.838.838,0,1,0,0,1.675h20.535a.838.838,0,0,0,0-1.675Z" transform="translate(-185.088 -86.144)"/>
        <path id="Trazado_813479" data-name="Trazado 813479" d="M228.284,130.139a.838.838,0,0,0-.838-.838H206.912a.838.838,0,1,0,0,1.675h20.535A.838.838,0,0,0,228.284,130.139Z" transform="translate(-185.088 -114.859)"/>
        <path id="Trazado_813480" data-name="Trazado 813480" d="M206.913,161.626a.838.838,0,0,0,0,1.675h13.765a.838.838,0,0,0,0-1.675Z" transform="translate(-185.088 -143.573)"/>
      </g>
    </g>
  </g>
</svg>
