
<svg xmlns="http://www.w3.org/2000/svg" width="41.546" height="42.301" viewBox="0 0 41.546 42.301">
  <g id="direccion-ip" transform="translate(-1.91 -1.35)">
    <g id="Grupo_1067808" data-name="Grupo 1067808" transform="translate(12.696 38.578)">
      <path id="Trazado_813596" data-name="Trazado 813596" d="M28.04,62.132c-3.455,0-9.99-.581-9.99-2.767,0-1.022,1.41-1.8,4.2-2.3a.489.489,0,1,1,.174.962c-2.82.508-3.395,1.183-3.395,1.343,0,.608,3.181,1.791,9.015,1.791s9.021-1.183,9.021-1.791c0-.154-.575-.835-3.395-1.337a.489.489,0,1,1,.174-.962c2.787.5,4.2,1.276,4.2,2.3-.007,2.185-6.549,2.76-10,2.76Z" transform="translate(-18.05 -57.059)" fill="#2f2c39"/>
    </g>
    <g id="Grupo_1067823" data-name="Grupo 1067823" transform="translate(1.91 1.35)">
      <g id="Grupo_1067809" data-name="Grupo 1067809" transform="translate(0.488 8.768)">
        <path id="Trazado_813597" data-name="Trazado 813597" d="M43.217,14.47V31.263a5.882,5.882,0,0,1-5.881,5.887H8.521A5.882,5.882,0,0,1,2.64,31.263V14.47Z" transform="translate(-2.64 -14.47)" fill="#f9f9fc"/>
      </g>
      <g id="Grupo_1067810" data-name="Grupo 1067810" transform="translate(0.488 8.768)">
        <path id="Trazado_813598" data-name="Trazado 813598" d="M43.217,24.434v6.83a5.882,5.882,0,0,1-5.881,5.887H8.521A5.882,5.882,0,0,1,2.64,31.263V14.47h10.6a3.188,3.188,0,0,0-.668,1.871c0,4.524,12.717,8.179,26.79,8.179,1.31,0,2.593-.027,3.856-.087Z" transform="translate(-2.64 -14.47)" fill="#eaebec"/>
      </g>
      <g id="Grupo_1067811" data-name="Grupo 1067811" transform="translate(0.488 0.488)">
        <path id="Trazado_813599" data-name="Trazado 813599" d="M43.217,10.366V7.961A5.881,5.881,0,0,0,37.336,2.08H8.521A5.881,5.881,0,0,0,2.64,7.961v2.406Z" transform="translate(-2.64 -2.08)" fill="#8f4ed2"/>
      </g>
      <g id="Grupo_1067812" data-name="Grupo 1067812" transform="translate(0.488 0.481)">
        <path id="Trazado_813600" data-name="Trazado 813600" d="M43.217,7.951v2.406H2.64V7.951A5.881,5.881,0,0,1,8.521,2.07h7.09c-2.292.581-3.649,1.29-3.649,2.065,0,1.938,8.554,3.508,19.106,3.508a111.8,111.8,0,0,0,12.069-.615,5.373,5.373,0,0,1,.08.922Z" transform="translate(-2.64 -2.07)" fill="#9d66d5"/>
      </g>
      <g id="Grupo_1067813" data-name="Grupo 1067813" transform="translate(0 8.28)">
        <path id="Trazado_813601" data-name="Trazado 813601" d="M37.094,37.39H8.279A6.381,6.381,0,0,1,1.91,31.014V14.228A.491.491,0,0,1,2.4,13.74h40.57a.491.491,0,0,1,.488.488V31.021a6.366,6.366,0,0,1-6.362,6.369ZM2.886,14.716V31.021a5.4,5.4,0,0,0,5.393,5.4H37.094a5.4,5.4,0,0,0,5.393-5.4V14.716Z" transform="translate(-1.91 -13.74)" fill="#2f2c39"/>
      </g>
      <g id="Grupo_1067814" data-name="Grupo 1067814">
        <path id="Trazado_813602" data-name="Trazado 813602" d="M42.975,10.612H2.4a.491.491,0,0,1-.488-.488V7.719A6.376,6.376,0,0,1,8.279,1.35H37.087a6.38,6.38,0,0,1,6.369,6.369v2.406a.481.481,0,0,1-.481.488ZM2.886,9.636H42.48V7.719a5.4,5.4,0,0,0-5.393-5.393H8.279A5.4,5.4,0,0,0,2.886,7.719Z" transform="translate(-1.91 -1.35)" fill="#2f2c39"/>
      </g>
      <g id="Grupo_1067815" data-name="Grupo 1067815" transform="translate(19.633 3.455)">
        <path id="Trazado_813603" data-name="Trazado 813603" d="M47.629,7.7a1.178,1.178,0,0,1-1.176,1.176H32.466a1.176,1.176,0,1,1,0-2.352H46.459A1.172,1.172,0,0,1,47.629,7.7Z" transform="translate(-31.29 -6.52)" fill="#f9f9fc"/>
      </g>
      <g id="Grupo_1067816" data-name="Grupo 1067816" transform="translate(4.404 3.201)">
        <path id="Trazado_813604" data-name="Trazado 813604" d="M11.347,7.563A1.423,1.423,0,1,1,9.923,6.14,1.426,1.426,0,0,1,11.347,7.563Z" transform="translate(-8.5 -6.14)" fill="#f9f9fc"/>
      </g>
      <g id="Grupo_1067817" data-name="Grupo 1067817" transform="translate(9.817 3.201)">
        <path id="Trazado_813605" data-name="Trazado 813605" d="M19.447,7.563A1.423,1.423,0,1,1,18.023,6.14,1.426,1.426,0,0,1,19.447,7.563Z" transform="translate(-16.6 -6.14)" fill="#f9f9fc"/>
      </g>
      <g id="Grupo_1067818" data-name="Grupo 1067818" transform="translate(19.146 2.967)">
        <path id="Trazado_813606" data-name="Trazado 813606" d="M46.217,9.118H32.224a1.664,1.664,0,0,1,0-3.328H46.217a1.664,1.664,0,0,1,0,3.328ZM32.224,6.766a.688.688,0,0,0,0,1.377H46.217a.688.688,0,0,0,0-1.377Z" transform="translate(-30.56 -5.79)" fill="#2f2c39"/>
      </g>
      <g id="Grupo_1067819" data-name="Grupo 1067819" transform="translate(3.916 2.72)">
        <path id="Trazado_813607" data-name="Trazado 813607" d="M9.681,9.249A1.915,1.915,0,1,1,11.6,7.325,1.917,1.917,0,0,1,9.681,9.249Zm0-2.86a.939.939,0,1,0,.936.936A.938.938,0,0,0,9.681,6.389Z" transform="translate(-7.77 -5.42)" fill="#2f2c39"/>
      </g>
      <g id="Grupo_1067820" data-name="Grupo 1067820" transform="translate(9.329 2.72)">
        <path id="Trazado_813608" data-name="Trazado 813608" d="M17.781,9.249a1.915,1.915,0,1,1,1.911-1.918A1.917,1.917,0,0,1,17.781,9.249Zm0-2.86a.939.939,0,1,0,.936.936A.938.938,0,0,0,17.781,6.389Z" transform="translate(-15.87 -5.42)" fill="#2f2c39"/>
      </g>
      <g id="Grupo_1067821" data-name="Grupo 1067821" transform="translate(2.947 10.993)">
        <path id="Trazado_813609" data-name="Trazado 813609" d="M12.916,18.776H6.808a.488.488,0,1,1,0-.976h6.108a.488.488,0,1,1,0,.976Z" transform="translate(-6.32 -17.8)" fill="#2f2c39"/>
      </g>
      <g id="Grupo_1067822" data-name="Grupo 1067822" transform="translate(2.947 13.171)">
        <path id="Trazado_813610" data-name="Trazado 813610" d="M10.637,22.036H6.808a.488.488,0,0,1,0-.976H10.63a.491.491,0,0,1,.488.488A.481.481,0,0,1,10.637,22.036Z" transform="translate(-6.32 -21.06)" fill="#2f2c39"/>
      </g>
    </g>
    <g id="Grupo_1067824" data-name="Grupo 1067824" transform="translate(12.047 15.009)">
      <path id="Trazado_813611" data-name="Trazado 813611" d="M27.719,21.79A10.639,10.639,0,0,0,17.08,32.422c0,4.912,7.444,12.563,9.877,14.936a1.089,1.089,0,0,0,1.524,0c2.432-2.372,9.87-10.024,9.87-14.936A10.634,10.634,0,0,0,27.719,21.79Zm0,15.878a5.714,5.714,0,1,1,5.707-5.714A5.715,5.715,0,0,1,27.719,37.668Z" transform="translate(-17.08 -21.79)" fill="#25ad8d"/>
    </g>
    <g id="Grupo_1067825" data-name="Grupo 1067825" transform="translate(12.054 18.143)">
      <path id="Trazado_813612" data-name="Trazado 813612" d="M26.312,39.043a5.71,5.71,0,0,1-4.3-5.54c0-.207.013-.408.033-.615a23.593,23.593,0,0,1-1.864-6.409,10.583,10.583,0,0,0-3.087,7.491c0,4.912,7.444,12.563,9.877,14.936a1.089,1.089,0,0,0,1.524,0,67.857,67.857,0,0,0,5.266-5.774,15.293,15.293,0,0,1-7.444-4.09Z" transform="translate(-17.09 -26.48)" fill="#3ec3a4"/>
    </g>
    <g id="Grupo_1067826" data-name="Grupo 1067826" transform="translate(11.56 14.521)">
      <path id="Trazado_813613" data-name="Trazado 813613" d="M27.477,47.917a1.581,1.581,0,0,1-1.1-.454C23.36,44.523,16.35,37.145,16.35,32.18a11.123,11.123,0,0,1,22.246,0c0,4.972-7,12.349-10.017,15.29a1.574,1.574,0,0,1-1.1.448Zm0-25.882A10.162,10.162,0,0,0,17.326,32.18c0,4.725,7.444,12.363,9.73,14.588a.6.6,0,0,0,.842,0c2.279-2.225,9.723-9.857,9.723-14.588A10.156,10.156,0,0,0,27.477,22.036Zm0,15.878a6.2,6.2,0,1,1,6.195-6.2A6.206,6.206,0,0,1,27.477,37.913Zm0-11.427A5.226,5.226,0,1,0,32.7,31.712a5.233,5.233,0,0,0-5.219-5.226Z" transform="translate(-16.35 -21.06)" fill="#2f2c39"/>
    </g>
    <g id="Grupo_1067830" data-name="Grupo 1067830" transform="translate(33.753 12.557)">
      <g id="Grupo_1067827" data-name="Grupo 1067827">
        <path id="Trazado_813614" data-name="Trazado 813614" d="M50.048,23.927a.491.491,0,0,1-.488-.488V18.608a.488.488,0,1,1,.976,0v4.832A.486.486,0,0,1,50.048,23.927Z" transform="translate(-49.56 -18.12)" fill="#2f2c39"/>
      </g>
      <g id="Grupo_1067828" data-name="Grupo 1067828" transform="translate(2.64)">
        <path id="Trazado_813615" data-name="Trazado 813615" d="M54,23.927a.491.491,0,0,1-.488-.488V18.608a.488.488,0,1,1,.976,0v4.832A.486.486,0,0,1,54,23.927Z" transform="translate(-53.51 -18.12)" fill="#2f2c39"/>
      </g>
      <g id="Grupo_1067829" data-name="Grupo 1067829" transform="translate(2.64)">
        <path id="Trazado_813616" data-name="Trazado 813616" d="M55.682,21.755H54a.491.491,0,0,1-.488-.488v-2.66A.491.491,0,0,1,54,18.12h1.684a1.818,1.818,0,1,1,0,3.635Zm-1.2-.976h1.2a.842.842,0,1,0,0-1.684h-1.2Z" transform="translate(-53.51 -18.12)" fill="#2f2c39"/>
      </g>
    </g>
  </g>
</svg>
