<svg xmlns="http://www.w3.org/2000/svg" width="45.573" height="45.757" viewBox="0 0 45.573 45.757">
  <g id="folder-files-document-paper-transfer" transform="translate(-1.999 -2)">
    <path id="Trazado_813645" data-name="Trazado 813645" d="M30.824,7.557v4.557H5v-7.6A1.524,1.524,0,0,1,6.519,3h6.836a1.414,1.414,0,0,1,.57.114,1.519,1.519,0,0,1,.949,1.405V6.038H29.305A1.524,1.524,0,0,1,30.824,7.557Z" transform="translate(-0.722 -0.24)" fill="#ee8700"/>
    <path id="Trazado_813646" data-name="Trazado 813646" d="M9,11H28.748v3.038H9Z" transform="translate(-1.683 -2.164)" fill="#a4e276"/>
    <path id="Trazado_813647" data-name="Trazado 813647" d="M31.862,15,27.632,29.1a1.519,1.519,0,0,1-1.458,1.086H8.689A1.519,1.519,0,0,1,7.231,29.1L3,15Z" transform="translate(-0.241 -3.126)" fill="#ffa733"/>
    <path id="Trazado_813648" data-name="Trazado 813648" d="M30.127,15,28.2,21.417a9.114,9.114,0,0,1-8.73,6.5H8.1L8.458,29.1a1.519,1.519,0,0,0,1.458,1.086H27.4A1.519,1.519,0,0,0,28.858,29.1L33.089,15Z" transform="translate(-1.467 -3.126)" fill="#ff9811"/>
    <path id="Trazado_813649" data-name="Trazado 813649" d="M50.824,33.557v4.557H25v-7.6A1.524,1.524,0,0,1,26.519,29h6.836a1.414,1.414,0,0,1,.57.114,1.519,1.519,0,0,1,.949,1.405v1.519H49.305A1.524,1.524,0,0,1,50.824,33.557Z" transform="translate(-5.531 -6.493)" fill="#ee8700"/>
    <path id="Trazado_813650" data-name="Trazado 813650" d="M29,37H48.748v3.038H29Z" transform="translate(-6.493 -8.416)" fill="#a4e276"/>
    <path id="Trazado_813651" data-name="Trazado 813651" d="M51.862,41,47.632,55.1a1.519,1.519,0,0,1-1.458,1.086H28.689A1.519,1.519,0,0,1,27.231,55.1L23,41Z" transform="translate(-5.05 -9.378)" fill="#ffa733"/>
    <path id="Trazado_813652" data-name="Trazado 813652" d="M50.127,41,48.2,47.417a9.114,9.114,0,0,1-8.73,6.5H28.1l.358,1.192a1.519,1.519,0,0,0,1.458,1.086H47.4A1.519,1.519,0,0,0,48.858,55.1L53.089,41Z" transform="translate(-6.276 -9.378)" fill="#ff9811"/>
    <g id="Grupo_1067834" data-name="Grupo 1067834" transform="translate(1.999 2)">
      <path id="Trazado_813653" data-name="Trazado 813653" d="M15.467,48.912a.759.759,0,1,0-1.074,1.074l1.926,1.926H8.279a.76.76,0,0,1-.76-.76V39.76A.76.76,0,1,0,6,39.76V51.153a2.279,2.279,0,0,0,2.279,2.279h8.04l-1.926,1.926a.759.759,0,1,0,1.074,1.074l3.223-3.223a.76.76,0,0,0,0-1.074Z" transform="translate(-2.961 -10.897)" fill="#231f20"/>
      <path id="Trazado_813654" data-name="Trazado 813654" d="M47.42,31.166a.76.76,0,0,0-.608-.3h-.76v-3.8a2.285,2.285,0,0,0-2.279-2.279H30.1v-.76a2.242,2.242,0,0,0-.82-1.732l3.069-10.2a.769.769,0,0,0-.122-.676.76.76,0,0,0-.608-.3h-.76v-3.8a2.285,2.285,0,0,0-2.279-2.279H14.912v-.76A2.285,2.285,0,0,0,12.633,2H5.8A2.285,2.285,0,0,0,3.519,4.279v6.836h-.76a.76.76,0,0,0-.608.3.769.769,0,0,0-.122.676L6.261,26.2a2.279,2.279,0,0,0,2.187,1.625H18.71v3.038h-.76a.76.76,0,0,0-.608.3.769.769,0,0,0-.122.676l4.231,14.1a2.272,2.272,0,0,0,2.187,1.625H41.123a2.272,2.272,0,0,0,2.187-1.625l4.231-14.1a.769.769,0,0,0-.122-.676ZM29.343,26.305H43.774a.76.76,0,0,1,.76.76v3.8H43.015V28.584a.76.76,0,0,0-.76-.76H22.507a.76.76,0,0,0-.76.76v2.279H20.229V24.027a.76.76,0,0,1,.76-.76h6.836a.76.76,0,0,1,.76.76v1.519A.76.76,0,0,0,29.343,26.305ZM41.5,29.343v1.519H23.267V29.343ZM5.038,4.279a.76.76,0,0,1,.76-.76h6.836a.76.76,0,0,1,.76.76V5.8a.76.76,0,0,0,.76.76H28.584a.76.76,0,0,1,.76.76v3.8H27.824V8.836a.76.76,0,0,0-.76-.76H7.317a.76.76,0,0,0-.76.76v2.279H5.038ZM26.3,9.6v1.519H8.076V9.6Zm-7.6,16.71H8.448a.76.76,0,0,1-.729-.547L3.777,12.633H30.6l-2.742,9.122a.068.068,0,0,0-.038-.008H20.988a2.285,2.285,0,0,0-2.279,2.279ZM41.853,45.514a.76.76,0,0,1-.729.539H23.639a.76.76,0,0,1-.729-.539L18.968,32.381H45.795Z" transform="translate(-1.999 -2)" fill="#231f20"/>
      <path id="Trazado_813655" data-name="Trazado 813655" d="M34.441,55.07H32.022l-.719-2.4a.76.76,0,1,0-1.455.437l.881,2.937a.76.76,0,0,0,.728.541h2.984a.76.76,0,1,0,0-1.519Z" transform="translate(-8.688 -14.055)" fill="#231f20"/>
      <path id="Trazado_813656" data-name="Trazado 813656" d="M47.445,10.5a.759.759,0,1,0,1.074-1.074L46.593,7.5h5.762a.76.76,0,0,1,.76.76V21.17a.76.76,0,1,0,1.519,0V8.258A2.279,2.279,0,0,0,52.355,5.98H46.593l1.926-1.926a.759.759,0,1,0-1.074-1.074L44.223,6.2a.76.76,0,0,0,0,1.074Z" transform="translate(-12.099 -2.182)" fill="#231f20"/>
      <path id="Trazado_813657" data-name="Trazado 813657" d="M14.441,29.07H12.022l-.719-2.4a.76.76,0,1,0-1.455.437l.881,2.937a.76.76,0,0,0,.728.541h2.984a.76.76,0,0,0,0-1.519Z" transform="translate(-3.879 -7.803)" fill="#231f20"/>
      <path id="Trazado_813658" data-name="Trazado 813658" d="M54.8,44H51.76a.76.76,0,1,0,0,1.519h1.985L53.317,46.8a.76.76,0,0,0,1.443.48L55.52,45a.76.76,0,0,0-.722-1Z" transform="translate(-13.782 -12.1)" fill="#231f20"/>
      <path id="Trazado_813659" data-name="Trazado 813659" d="M31.76,19.519h1.985L33.317,20.8a.76.76,0,1,0,1.443.48L35.52,19a.76.76,0,0,0-.722-1H31.76a.76.76,0,0,0,0,1.519Z" transform="translate(-8.973 -5.847)" fill="#231f20"/>
    </g>
  </g>
</svg>
