<svg xmlns="http://www.w3.org/2000/svg" width="48" height="44.004" viewBox="0 0 48 44.004">
  <g id="_14._http_planet_" data-name="14. http (planet)" transform="translate(0 -1.996)">
    <rect id="Rectángulo_373907" data-name="Rectángulo 373907" width="46" height="18" rx="2" transform="translate(1 15)" fill="#9dcc6b"/>
    <path id="Trazado_813681" data-name="Trazado 813681" d="M47,17V31H20A16,16,0,0,1,4,15H45A2,2,0,0,1,47,17Z" fill="#b5e08c"/>
    <g id="Grupo_1067839" data-name="Grupo 1067839">
      <path id="Trazado_813682" data-name="Trazado 813682" d="M4,27V19a1,1,0,0,1,2,0v8a1,1,0,0,1-2,0Z" fill="#edebf2"/>
      <path id="Trazado_813683" data-name="Trazado 813683" d="M8,27V24a1,1,0,0,0-2,0v3a1,1,0,0,1-2,0V24a3,3,0,1,1,6,0v3a1,1,0,0,1-2,0Z" fill="#edebf2"/>
      <path id="Trazado_813684" data-name="Trazado 813684" d="M15,28a3,3,0,0,1-3-3V19a1,1,0,0,1,2,0v6a1,1,0,0,0,1,1,1,1,0,0,1,0,2Z" fill="#edebf2"/>
      <path id="Trazado_813685" data-name="Trazado 813685" d="M15,23H11a1,1,0,0,1,0-2h4a1,1,0,0,1,0,2Z" fill="#edebf2"/>
      <path id="Trazado_813686" data-name="Trazado 813686" d="M22,28a3,3,0,0,1-3-3V19a1,1,0,0,1,2,0v6a1,1,0,0,0,1,1,1,1,0,0,1,0,2Z" fill="#edebf2"/>
      <path id="Trazado_813687" data-name="Trazado 813687" d="M22,23H18a1,1,0,0,1,0-2h4a1,1,0,0,1,0,2Z" fill="#edebf2"/>
      <path id="Trazado_813688" data-name="Trazado 813688" d="M24,29V22a1,1,0,0,1,2,0v7a1,1,0,0,1-2,0Z" fill="#edebf2"/>
      <path id="Trazado_813689" data-name="Trazado 813689" d="M27,27H25a1,1,0,0,1-1-1V22a1,1,0,0,1,1-1h2a3,3,0,0,1,0,6Zm-1-2h1a1,1,0,0,0,0-2H26Z" fill="#edebf2"/>
      <path id="Trazado_813690" data-name="Trazado 813690" d="M32.29,21.29a1,1,0,1,1,0,1.42,1,1,0,0,1,0-1.42Z" fill="#edebf2"/>
      <path id="Trazado_813691" data-name="Trazado 813691" d="M33,27a1,1,0,1,1,1.095-.905A1,1,0,0,1,33,27Z" fill="#edebf2"/>
      <path id="Trazado_813692" data-name="Trazado 813692" d="M36,27.76l2-8a1,1,0,0,1,1.94.48l-2,8A1,1,0,0,1,36,27.76Z" fill="#edebf2"/>
      <path id="Trazado_813693" data-name="Trazado 813693" d="M40,27.76l2-8a1,1,0,0,1,1.94.48l-2,8A1,1,0,0,1,40,27.76Z" fill="#edebf2"/>
    </g>
    <path id="Trazado_813694" data-name="Trazado 813694" d="M43,15H5C12.57-.92,35.32-1,43,15Z" fill="#6fabe6"/>
    <path id="Trazado_813695" data-name="Trazado 813695" d="M41.89,13H19.24c-4.65,0-6.56-6.1-2.65-8.63A21,21,0,0,1,41.89,13Z" fill="#82bcf4"/>
    <path id="Trazado_813696" data-name="Trazado 813696" d="M43,33A21,21,0,0,1,5,33Z" fill="#6fabe6"/>
    <path id="Trazado_813697" data-name="Trazado 813697" d="M43,33a21.87,21.87,0,0,1-7.7,8.7A21,21,0,0,1,10.12,33Z" fill="#82bcf4"/>
    <path id="Trazado_813698" data-name="Trazado 813698" d="M37.12,7.61c-.55.88-10.75,7.7-22.41,2.35a19.29,19.29,0,0,1-3.83-2.35A17.84,17.84,0,0,1,12.56,6.4a20,20,0,0,0,22.88,0,17.84,17.84,0,0,1,1.68,1.21Z" fill="#b2e5fb"/>
    <path id="Trazado_813699" data-name="Trazado 813699" d="M35,15H33C29.11.17,18.79.56,15.09,15h-2a25.48,25.48,0,0,1,1.66-5A15.72,15.72,0,0,1,19.7,3.5a20.65,20.65,0,0,1,8.68,0A15.72,15.72,0,0,1,33.29,10,27.62,27.62,0,0,1,35,15Z" fill="#b2e5fb"/>
    <path id="Trazado_813700" data-name="Trazado 813700" d="M25,3V15H23V3a16.68,16.68,0,0,1,2,0Z" fill="#b2e5fb"/>
    <path id="Trazado_813701" data-name="Trazado 813701" d="M37.12,40.39a19.4,19.4,0,0,1-1.68,1.21,20,20,0,0,0-22.88,0,17.45,17.45,0,0,1-1.68-1.22c.56-.89,10.76-7.7,22.41-2.35A19.29,19.29,0,0,1,37.12,40.39Z" fill="#b2e5fb"/>
    <path id="Trazado_813702" data-name="Trazado 813702" d="M35,33a25.48,25.48,0,0,1-1.66,5,15.72,15.72,0,0,1-4.95,6.5,21.23,21.23,0,0,1-8.66,0,15.65,15.65,0,0,1-5-6.52,27.62,27.62,0,0,1-1.66-5h2c3.67,14.33,14,15,17.82,0Z" fill="#b2e5fb"/>
    <path id="Trazado_813703" data-name="Trazado 813703" d="M25,33V45a14.88,14.88,0,0,1-2,0V33Z" fill="#b2e5fb"/>
    <path id="Trazado_813704" data-name="Trazado 813704" d="M6,21.18V19a1,1,0,0,0-2,0v8a1,1,0,0,0,2,0V24a1,1,0,0,1,2,0v3a1,1,0,0,0,2,0V24a3,3,0,0,0-4-2.82Z"/>
    <path id="Trazado_813705" data-name="Trazado 813705" d="M15,23a1,1,0,0,0,0-2H14V19a1,1,0,0,0-2,0v2H11a1,1,0,0,0,0,2h1v2c0,3,4,3.92,4,2a1,1,0,0,0-1-1,1,1,0,0,1-1-1V23Z"/>
    <path id="Trazado_813706" data-name="Trazado 813706" d="M22,23a1,1,0,0,0,0-2H21V19a1,1,0,0,0-2,0v2H18a1,1,0,0,0,0,2h1v2c0,3,4,3.92,4,2a1,1,0,0,0-1-1,1,1,0,0,1-1-1V23Z"/>
    <path id="Trazado_813707" data-name="Trazado 813707" d="M27,21H25a1,1,0,0,0-1,1v7a1,1,0,0,0,2,0V27h1a3,3,0,0,0,0-6Zm0,4H26V23h1a1,1,0,0,1,0,2Z"/>
    <path id="Trazado_813708" data-name="Trazado 813708" d="M32.62,21.08a1,1,0,1,0,1.229.469A1,1,0,0,0,32.62,21.08Z"/>
    <path id="Trazado_813709" data-name="Trazado 813709" d="M33.71,25.29a1,1,0,0,0-1.63,1.09C32.68,27.84,34.78,26.48,33.71,25.29Z"/>
    <path id="Trazado_813710" data-name="Trazado 813710" d="M38,19.76l-2,8a1,1,0,0,0,1.94.48l2-8A1,1,0,0,0,38,19.76Z"/>
    <path id="Trazado_813711" data-name="Trazado 813711" d="M42,19.76l-2,8a1,1,0,0,0,1.94.48l2-8A1,1,0,0,0,42,19.76Z"/>
    <path id="Trazado_813712" data-name="Trazado 813712" d="M45,14H43.59C35.48-1.89,12.64-2.12,4.41,14H3a3,3,0,0,0-3,3V31a3,3,0,0,0,3,3H4.41c8.26,16.18,31.1,15.82,39.18,0H45a3,3,0,0,0,3-3V17A3,3,0,0,0,45,14Zm-3.68,0H34.71a27.19,27.19,0,0,0-1.44-4.06,21.74,21.74,0,0,0,3-1.72A20.11,20.11,0,0,1,41.32,14Zm-26,0a27,27,0,0,1,1.21-3.3A21.78,21.78,0,0,0,23,12v2ZM30,4.93A20,20,0,0,1,34.55,7a19.84,19.84,0,0,1-2.18,1.17A16,16,0,0,0,30,4.93Zm.46,4A19.56,19.56,0,0,1,25,10V4.1c2,.43,4,2.16,5.5,4.81ZM23,4.1V10a19.56,19.56,0,0,1-5.5-1.05C19,6.26,21,4.53,23,4.1ZM15.63,8.16A19.7,19.7,0,0,1,13.46,7a19.62,19.62,0,0,1,4.49-2,15.85,15.85,0,0,0-2.32,3.16ZM25,12a21.78,21.78,0,0,0,6.43-1.26A27,27,0,0,1,32.64,14H25ZM11.7,8.22a21.64,21.64,0,0,0,3,1.72A27.19,27.19,0,0,0,13.29,14H6.68A20,20,0,0,1,11.7,8.22ZM6.68,34h6.61a27.19,27.19,0,0,0,1.44,4.06,21.739,21.739,0,0,0-3,1.72A20.11,20.11,0,0,1,6.68,34Zm26,0a27,27,0,0,1-1.21,3.3A21.78,21.78,0,0,0,25,36V34ZM18,43.07A20,20,0,0,1,13.45,41a19.84,19.84,0,0,1,2.18-1.17A16,16,0,0,0,18,43.07Zm-.46-4A19.56,19.56,0,0,1,23,38v5.9c-2-.43-4-2.16-5.5-4.81ZM25,43.9V38a19.56,19.56,0,0,1,5.5,1.05C29,41.74,27,43.47,25,43.9Zm7.37-4.06A19.7,19.7,0,0,1,34.54,41a19.62,19.62,0,0,1-4.49,2.05,15.85,15.85,0,0,0,2.32-3.21ZM23,36a21.78,21.78,0,0,0-6.43,1.26A27,27,0,0,1,15.36,34H23Zm13.3,3.74a21.64,21.64,0,0,0-3-1.72A27.191,27.191,0,0,0,34.71,34h6.61a20,20,0,0,1-5.02,5.78ZM46,31a1,1,0,0,1-1,1H3a1,1,0,0,1-1-1V17a1,1,0,0,1,1-1H45a1,1,0,0,1,1,1Z"/>
  </g>
</svg>
