<svg xmlns="http://www.w3.org/2000/svg" xmlns:xlink="http://www.w3.org/1999/xlink" width="1240" height="356" viewBox="0 0 1240 356">
  <defs>
    <linearGradient id="linear-gradient" x1="0.5" x2="0.5" y2="1" gradientUnits="objectBoundingBox">
      <stop offset="0" stop-color="#0a4e6a"/>
      <stop offset="1" stop-color="#020a0d"/>
    </linearGradient>
    <clipPath id="clip-path">
      <rect id="Rect치ngulo_374048" data-name="Rect치ngulo 374048" width="1240" height="356" rx="10" transform="translate(180 3499.799)" opacity="0.35" fill="url(#linear-gradient)"/>
    </clipPath>
    <clipPath id="clip-path-2">
      <path id="Trazado_773413" data-name="Trazado 773413" d="M40.929,743.214a3.161,3.161,0,1,0,3.16-3.163,3.161,3.161,0,0,0-3.16,3.163" transform="translate(-40.929 -740.051)" fill="#ff6148"/>
    </clipPath>
    <clipPath id="clip-path-3">
      <path id="Trazado_773415" data-name="Trazado 773415" d="M40.929,708.3a3.161,3.161,0,1,0,3.161-3.162h0a3.165,3.165,0,0,0-3.16,3.162" transform="translate(-40.929 -705.14)" fill="#ff6148"/>
    </clipPath>
    <clipPath id="clip-path-4">
      <path id="Trazado_773417" data-name="Trazado 773417" d="M44.09,667.25a3.16,3.16,0,1,0,3.161,3.162A3.16,3.16,0,0,0,44.09,667.25Z" transform="translate(-40.931 -667.25)" fill="#ff6148"/>
    </clipPath>
    <clipPath id="clip-path-5">
      <path id="Trazado_773419" data-name="Trazado 773419" d="M71.291,743.214a3.16,3.16,0,1,0,3.16-3.163,3.159,3.159,0,0,0-3.16,3.163" transform="translate(-71.291 -740.051)" fill="#ff6148"/>
    </clipPath>
    <clipPath id="clip-path-6">
      <path id="Trazado_773421" data-name="Trazado 773421" d="M71.291,708.3a3.16,3.16,0,1,0,3.16-3.162,3.16,3.16,0,0,0-3.16,3.162" transform="translate(-71.291 -705.14)" fill="#ff6148"/>
    </clipPath>
    <clipPath id="clip-path-7">
      <path id="Trazado_773423" data-name="Trazado 773423" d="M74.451,667.25a3.16,3.16,0,1,0,3.161,3.161A3.16,3.16,0,0,0,74.451,667.25Z" transform="translate(-71.292 -667.25)" fill="#ff6148"/>
    </clipPath>
    <clipPath id="clip-path-8">
      <path id="Trazado_773425" data-name="Trazado 773425" d="M102.965,743.214a3.161,3.161,0,1,0,3.16-3.163,3.161,3.161,0,0,0-3.16,3.163" transform="translate(-102.965 -740.051)" fill="#ff6148"/>
    </clipPath>
    <clipPath id="clip-path-9">
      <path id="Trazado_773427" data-name="Trazado 773427" d="M102.965,708.3a3.161,3.161,0,1,0,3.161-3.162h0a3.165,3.165,0,0,0-3.16,3.162" transform="translate(-102.965 -705.14)" fill="#ff6148"/>
    </clipPath>
    <clipPath id="clip-path-10">
      <path id="Trazado_773429" data-name="Trazado 773429" d="M106.125,667.25a3.16,3.16,0,1,0,3.161,3.162A3.16,3.16,0,0,0,106.125,667.25Z" transform="translate(-102.966 -667.25)" fill="#ff6148"/>
    </clipPath>
    <clipPath id="clip-path-11">
      <path id="Trazado_773431" data-name="Trazado 773431" d="M133.326,743.214a3.16,3.16,0,1,0,3.16-3.163,3.16,3.16,0,0,0-3.16,3.163" transform="translate(-133.326 -740.051)" fill="#ff6148"/>
    </clipPath>
    <clipPath id="clip-path-12">
      <path id="Trazado_773433" data-name="Trazado 773433" d="M133.326,708.3a3.16,3.16,0,1,0,3.16-3.162,3.161,3.161,0,0,0-3.16,3.162" transform="translate(-133.326 -705.14)" fill="#ff6148"/>
    </clipPath>
    <clipPath id="clip-path-13">
      <path id="Trazado_773435" data-name="Trazado 773435" d="M136.487,667.25a3.16,3.16,0,1,0,3.161,3.161A3.159,3.159,0,0,0,136.487,667.25Z" transform="translate(-133.328 -667.25)" fill="#ff6148"/>
    </clipPath>
  </defs>
  <g id="Grupo_1070072" data-name="Grupo 1070072" transform="translate(-180 -3497.798)">
    <rect id="Rect치ngulo_347608" data-name="Rect치ngulo 347608" width="1240" height="356" rx="10" transform="translate(180 3497.798)" fill="#fff3ea"/>
    <g id="Grupo_1067898" data-name="Grupo 1067898" transform="translate(0 -2.001)" clip-path="url(#clip-path)">
      <path id="Trazado_773361" data-name="Trazado 773361" d="M-3.453,1235.488c0-248.607.162-747.487.275-748.482H939.907c.041,1.4-1.2,1.924-1.973,2.7q-95.667,95.757-191.348,191.5c-15.628,15.663-21.621,34.661-18.05,56.49,4.669,28.536,30.292,51.038,58.832,52.085,19.91.731,36.378-6.448,50.372-20.486q94.864-95.16,189.968-190.082c16.954-16.937,37.383-23.32,60.87-18.358a64.717,64.717,0,0,1,50.3,72.9c-2.189,15.394-9.69,27.975-20.652,38.924Q969.921,820.811,821.8,969.122q-119.229,119.272-238.451,238.552c-9.19,9.2-18.3,18.472-27.442,27.711-1.277.034-2.556.1-3.836.1C377.765,1235.488,170.85,1235.488-3.453,1235.488Z" transform="translate(-828.553 3179.521)" fill="#ff6148" opacity="0.1"/>
      <g id="Grupo_1064375" data-name="Grupo 1064375" transform="translate(160.271 3114.642)" opacity="0.42">
        <g id="Grupo_1064374" data-name="Grupo 1064374" transform="translate(40.929 667.25)">
          <g id="Group_881454" data-name="Group 881454" transform="translate(0 51.369)">
            <g id="Grupo_1064351" data-name="Grupo 1064351">
              <path id="Trazado_773412" data-name="Trazado 773412" d="M40.929,743.214a3.161,3.161,0,1,0,3.16-3.163,3.161,3.161,0,0,0-3.16,3.163" transform="translate(-40.929 -740.051)" fill="#ff6148"/>
              <g id="Grupo_1064350" data-name="Grupo 1064350" clip-path="url(#clip-path-2)">
                <g id="Group_881453" data-name="Group 881453" transform="translate(0 0)">
                  <rect id="Rectangle_298909" data-name="Rectangle 298909" width="6.321" height="6.321" fill="#ff6148"/>
                </g>
              </g>
            </g>
          </g>
          <g id="Group_881456" data-name="Group 881456" transform="translate(0 26.736)">
            <g id="Grupo_1064353" data-name="Grupo 1064353">
              <path id="Trazado_773414" data-name="Trazado 773414" d="M40.929,708.3a3.161,3.161,0,1,0,3.161-3.162h0a3.165,3.165,0,0,0-3.16,3.162" transform="translate(-40.929 -705.14)" fill="#ff6148"/>
              <g id="Grupo_1064352" data-name="Grupo 1064352" clip-path="url(#clip-path-3)">
                <g id="Group_881455" data-name="Group 881455" transform="translate(0 0)">
                  <rect id="Rectangle_298910" data-name="Rectangle 298910" width="6.321" height="6.321" fill="#ff6148"/>
                </g>
              </g>
            </g>
          </g>
          <g id="Group_881458" data-name="Group 881458" transform="translate(0.001)">
            <g id="Grupo_1064355" data-name="Grupo 1064355">
              <path id="Trazado_773416" data-name="Trazado 773416" d="M44.09,667.25a3.16,3.16,0,1,0,3.161,3.162A3.16,3.16,0,0,0,44.09,667.25Z" transform="translate(-40.931 -667.25)" fill="#ff6148"/>
              <g id="Grupo_1064354" data-name="Grupo 1064354" clip-path="url(#clip-path-4)">
                <g id="Group_881457" data-name="Group 881457" transform="translate(-0.001 0.001)">
                  <rect id="Rectangle_298911" data-name="Rectangle 298911" width="6.321" height="6.32" fill="#ff6148"/>
                </g>
              </g>
            </g>
          </g>
          <g id="Group_881460" data-name="Group 881460" transform="translate(21.424 51.369)">
            <g id="Grupo_1064357" data-name="Grupo 1064357">
              <path id="Trazado_773418" data-name="Trazado 773418" d="M71.291,743.214a3.16,3.16,0,1,0,3.16-3.163,3.159,3.159,0,0,0-3.16,3.163" transform="translate(-71.291 -740.051)" fill="#ff6148"/>
              <g id="Grupo_1064356" data-name="Grupo 1064356" clip-path="url(#clip-path-5)">
                <g id="Group_881459" data-name="Group 881459" transform="translate(0 0)">
                  <rect id="Rectangle_298912" data-name="Rectangle 298912" width="6.321" height="6.321" fill="#ff6148"/>
                </g>
              </g>
            </g>
          </g>
          <g id="Group_881462" data-name="Group 881462" transform="translate(21.424 26.736)">
            <g id="Grupo_1064359" data-name="Grupo 1064359">
              <path id="Trazado_773420" data-name="Trazado 773420" d="M71.291,708.3a3.16,3.16,0,1,0,3.16-3.162,3.16,3.16,0,0,0-3.16,3.162" transform="translate(-71.291 -705.14)" fill="#ff6148"/>
              <g id="Grupo_1064358" data-name="Grupo 1064358" clip-path="url(#clip-path-6)">
                <g id="Group_881461" data-name="Group 881461" transform="translate(0 0)">
                  <rect id="Rectangle_298913" data-name="Rectangle 298913" width="6.321" height="6.321" fill="#ff6148"/>
                </g>
              </g>
            </g>
          </g>
          <g id="Group_881464" data-name="Group 881464" transform="translate(21.424)">
            <g id="Grupo_1064361" data-name="Grupo 1064361">
              <path id="Trazado_773422" data-name="Trazado 773422" d="M74.451,667.25a3.16,3.16,0,1,0,3.161,3.161A3.16,3.16,0,0,0,74.451,667.25Z" transform="translate(-71.292 -667.25)" fill="#ff6148"/>
              <g id="Grupo_1064360" data-name="Grupo 1064360" clip-path="url(#clip-path-7)">
                <g id="Group_881463" data-name="Group 881463" transform="translate(-0.001 0.001)">
                  <rect id="Rectangle_298914" data-name="Rectangle 298914" width="6.321" height="6.32" fill="#ff6148"/>
                </g>
              </g>
            </g>
          </g>
          <g id="Group_881454-2" data-name="Group 881454" transform="translate(43.773 51.369)">
            <g id="Grupo_1064363" data-name="Grupo 1064363">
              <path id="Trazado_773424" data-name="Trazado 773424" d="M102.965,743.214a3.161,3.161,0,1,0,3.16-3.163,3.161,3.161,0,0,0-3.16,3.163" transform="translate(-102.965 -740.051)" fill="#ff6148"/>
              <g id="Grupo_1064362" data-name="Grupo 1064362" clip-path="url(#clip-path-8)">
                <g id="Group_881453-2" data-name="Group 881453" transform="translate(0 0)">
                  <rect id="Rectangle_298909-2" data-name="Rectangle 298909" width="6.321" height="6.321" fill="#ff6148"/>
                </g>
              </g>
            </g>
          </g>
          <g id="Group_881456-2" data-name="Group 881456" transform="translate(43.773 26.736)">
            <g id="Grupo_1064365" data-name="Grupo 1064365">
              <path id="Trazado_773426" data-name="Trazado 773426" d="M102.965,708.3a3.161,3.161,0,1,0,3.161-3.162h0a3.165,3.165,0,0,0-3.16,3.162" transform="translate(-102.965 -705.14)" fill="#ff6148"/>
              <g id="Grupo_1064364" data-name="Grupo 1064364" clip-path="url(#clip-path-9)">
                <g id="Group_881455-2" data-name="Group 881455" transform="translate(0 0)">
                  <rect id="Rectangle_298910-2" data-name="Rectangle 298910" width="6.321" height="6.321" fill="#ff6148"/>
                </g>
              </g>
            </g>
          </g>
          <g id="Group_881458-2" data-name="Group 881458" transform="translate(43.774)">
            <g id="Grupo_1064367" data-name="Grupo 1064367">
              <path id="Trazado_773428" data-name="Trazado 773428" d="M106.125,667.25a3.16,3.16,0,1,0,3.161,3.162A3.16,3.16,0,0,0,106.125,667.25Z" transform="translate(-102.966 -667.25)" fill="#ff6148"/>
              <g id="Grupo_1064366" data-name="Grupo 1064366" clip-path="url(#clip-path-10)">
                <g id="Group_881457-2" data-name="Group 881457" transform="translate(-0.001 0.001)">
                  <rect id="Rectangle_298911-2" data-name="Rectangle 298911" width="6.321" height="6.32" fill="#ff6148"/>
                </g>
              </g>
            </g>
          </g>
          <g id="Group_881460-2" data-name="Group 881460" transform="translate(65.196 51.369)">
            <g id="Grupo_1064369" data-name="Grupo 1064369">
              <path id="Trazado_773430" data-name="Trazado 773430" d="M133.326,743.214a3.16,3.16,0,1,0,3.16-3.163,3.16,3.16,0,0,0-3.16,3.163" transform="translate(-133.326 -740.051)" fill="#ff6148"/>
              <g id="Grupo_1064368" data-name="Grupo 1064368" clip-path="url(#clip-path-11)">
                <g id="Group_881459-2" data-name="Group 881459" transform="translate(0 0)">
                  <rect id="Rectangle_298912-2" data-name="Rectangle 298912" width="6.321" height="6.321" fill="#ff6148"/>
                </g>
              </g>
            </g>
          </g>
          <g id="Group_881462-2" data-name="Group 881462" transform="translate(65.196 26.736)">
            <g id="Grupo_1064371" data-name="Grupo 1064371">
              <path id="Trazado_773432" data-name="Trazado 773432" d="M133.326,708.3a3.16,3.16,0,1,0,3.16-3.162,3.161,3.161,0,0,0-3.16,3.162" transform="translate(-133.326 -705.14)" fill="#ff6148"/>
              <g id="Grupo_1064370" data-name="Grupo 1064370" clip-path="url(#clip-path-12)">
                <g id="Group_881461-2" data-name="Group 881461" transform="translate(0 0)">
                  <rect id="Rectangle_298913-2" data-name="Rectangle 298913" width="6.321" height="6.321" fill="#ff6148"/>
                </g>
              </g>
            </g>
          </g>
          <g id="Group_881464-2" data-name="Group 881464" transform="translate(65.198)">
            <g id="Grupo_1064373" data-name="Grupo 1064373">
              <path id="Trazado_773434" data-name="Trazado 773434" d="M136.487,667.25a3.16,3.16,0,1,0,3.161,3.161A3.159,3.159,0,0,0,136.487,667.25Z" transform="translate(-133.328 -667.25)" fill="#ff6148"/>
              <g id="Grupo_1064372" data-name="Grupo 1064372" clip-path="url(#clip-path-13)">
                <g id="Group_881463-2" data-name="Group 881463" transform="translate(-0.001 0.001)">
                  <rect id="Rectangle_298914-2" data-name="Rectangle 298914" width="6.321" height="6.32" fill="#ff6148"/>
                </g>
              </g>
            </g>
          </g>
        </g>
      </g>
    </g>
  </g>
</svg>
