<svg xmlns="http://www.w3.org/2000/svg" width="60.105" height="58.936" viewBox="0 0 60.105 58.936">
  <g id="almacenamiento-de-datos_2_" data-name="almacenamiento-de-datos (2)" transform="translate(0.058 -0.534)">
    <path id="Trazado_814584" data-name="Trazado 814584" d="M4.429,18.5a.5.5,0,0,1-.285-.911L13.917,10.8,1.28,18.093a.5.5,0,0,1-.528-.848L10.047,11,1.28,16.064a.5.5,0,0,1-.517-.855l.4-.251a.5.5,0,0,1-.408-.9L8.106,9.1,1.28,13.041a.5.5,0,0,1-.523-.852l2.759-1.806L1.28,11.673a.5.5,0,0,1-.548-.834L7.5,5.821,1.28,9.41a.5.5,0,0,1-.54-.84L3.327,6.729,1.28,7.911a.5.5,0,0,1-.564-.822l3.02-2.445L1.28,6.062a.5.5,0,0,1-.569-.817l1.022-.851-.453.261A.5.5,0,0,1,.646,3.9l.969-1.167h0a.5.5,0,0,1-.25-.933L3.414.62a.5.5,0,0,1,.635.752L3.2,2.39,6.309.6a.5.5,0,0,1,.569.817L5.854,2.27,8.746.6a.5.5,0,0,1,.565.821L6.291,3.863,11.947.6a.5.5,0,0,1,.54.84L9.9,3.279,14.545.6a.5.5,0,0,1,.548.834L8.327,6.45,18.423.621a.5.5,0,0,1,.524.852L16.187,3.28l3.84-2.217a.5.5,0,0,1,.53.847L13.2,6.87l8.31-4.8a.5.5,0,0,1,.517.855l-.044.028.346-.2a.5.5,0,0,1,.528.848l-9.292,6.24,10.2-5.89A.5.5,0,0,1,24.3,4.8l-9.778,6.793L25.6,5.2a.5.5,0,0,1,.536.843l-8.065,5.615L28.565,5.6a.5.5,0,0,1,.54.84l-8.287,5.909L32.508,5.6a.5.5,0,0,1,.533.845l-6.873,4.719L35.806,5.6a.5.5,0,0,1,.523.851L33.1,8.559,38.232,5.6a.5.5,0,0,1,.539.841l-8.106,5.745L42.073,5.6a.5.5,0,0,1,.534.844L35.441,11.4l10.04-5.8a.5.5,0,1,1,.52.854l-.463.3L47.531,5.6a.5.5,0,0,1,.541.84l-8.324,5.945L51.5,5.6a.5.5,0,0,1,.538.841l-7.935,5.6L55.254,5.6a.5.5,0,0,1,.54.84l-8.276,5.9L57.787,6.411a.5.5,0,0,1,.522.853l-.455.293.547-.316a.5.5,0,0,1,.538.842l-5.542,3.9L58.721,8.91a.5.5,0,0,1,.555.828l-5.311,4.114,4.764-2.75a.5.5,0,0,1,.548.833l-1.844,1.379,1.3-.751a.5.5,0,0,1,.552.832l-.363.274a.493.493,0,0,1,.435.159.5.5,0,0,1,.039.626L58.02,16.4l.725-.419a.5.5,0,0,1,.727.584l-.219.69a.517.517,0,0,1,.179.181.5.5,0,0,1-.183.683l-.5.289a.5.5,0,0,1-.727-.584l.106-.333-1.591.918a.5.5,0,0,1-.658-.722l1.375-1.938-4.611,2.663a.5.5,0,0,1-.552-.832l.117-.089-1.6.922a.5.5,0,0,1-.549-.834L51.907,16.2l-3.831,2.212a.5.5,0,0,1-.556-.829l5.312-4.114-8.563,4.945a.5.5,0,0,1-.539-.842l5.544-3.9-8.222,4.747a.5.5,0,1,1-.522-.853l.448-.289L39,18.414a.5.5,0,0,1-.54-.841l8.276-5.9L35.052,18.416a.5.5,0,0,1-.538-.842l7.936-5.6L31.3,18.417a.5.5,0,0,1-.541-.839l8.325-5.947L27.321,18.419a.5.5,0,0,1-.519-.854l.449-.288-1.98,1.144a.5.5,0,0,1-.535-.844l7.17-4.955-10.048,5.8a.5.5,0,0,1-.539-.84l8.106-5.745-11.41,6.587a.5.5,0,0,1-.524-.851l3.225-2.109-5.13,2.962a.5.5,0,0,1-.533-.845l6.874-4.721-9.642,5.567a.5.5,0,0,1-.54-.84l8.286-5.908L8.339,18.43a.5.5,0,1,1-.536-.844l8.066-5.616L4.679,18.431a.491.491,0,0,1-.25.069Z" fill="#e59015"/>
    <path id="Trazado_814585" data-name="Trazado 814585" d="M6.483,16.5a.5.5,0,0,1-.311-.892L8.4,13.835,6.28,15.061a.5.5,0,0,1-.577-.812l1.32-1.139-.743.429a.5.5,0,0,1-.629-.759l.9-1.048a.5.5,0,0,1-.192-.93L8.411,9.62a.5.5,0,0,1,.629.759l-.706.819,2.773-1.6a.5.5,0,0,1,.578.811l-1.322,1.14L13.743,9.6a.5.5,0,0,1,.562.824L12.072,12.2l4.5-2.6a.5.5,0,0,1,.558.827l-1.963,1.529L19.249,9.6a.5.5,0,0,1,.555.83l-1.712,1.312L21.8,9.6a.5.5,0,0,1,.579.81l-2.96,2.582L25.3,9.6a.5.5,0,0,1,.551.832L24.426,11.5l3.3-1.9a.5.5,0,0,1,.547.834l-1.06.788L30.022,9.6a.5.5,0,0,1,.561.824l-2.189,1.737L32.829,9.6a.5.5,0,0,1,.571.816l-2.714,2.276L36.041,9.6a.5.5,0,0,1,.563.823L34.28,12.285,38.936,9.6a.5.5,0,0,1,.542.839l-.229.165,1.738-1a.5.5,0,0,1,.56.825L39.42,12.1l4.339-2.5a.5.5,0,0,1,.581.807l-3,2.654L47.332,9.6a.5.5,0,0,1,.554.83l-1.677,1.284L49.872,9.6a.5.5,0,0,1,.543.838l-.339.245,1.608-.928a.5.5,0,0,1,.588.8l-2.967,2.733L53.269,11a.5.5,0,0,1,.6.793l-1.764,1.7,1.618-.934a.5.5,0,0,1,.712.624L53.76,14.8a.5.5,0,0,1,.483.875l-1.257.725a.5.5,0,0,1-.712-.624l.671-1.624-3.9,2.25a.5.5,0,0,1-.6-.793l1.765-1.7-4.31,2.5a.5.5,0,0,1-.588-.8l2.967-2.733L42.15,16.411a.5.5,0,0,1-.543-.839l.335-.242-1.874,1.082a.5.5,0,0,1-.553-.83L41.191,14.3l-3.666,2.117a.5.5,0,0,1-.581-.808l3-2.653-6,3.463a.5.5,0,0,1-.559-.826l2.128-1.68L31.17,16.42a.5.5,0,0,1-.542-.838l.226-.164-1.738,1a.5.5,0,0,1-.562-.823l2.323-1.866-4.658,2.69a.5.5,0,0,1-.572-.816l2.715-2.275L23,16.422a.5.5,0,0,1-.561-.825l2.19-1.737L20.2,16.424a.5.5,0,0,1-.548-.834l1.062-.789L17.9,16.426a.5.5,0,0,1-.55-.832l1.422-1.074-3.3,1.907a.5.5,0,0,1-.579-.81l2.959-2.581L11.968,16.43a.5.5,0,0,1-.555-.83l1.712-1.313L9.412,16.431a.5.5,0,0,1-.558-.827l1.963-1.53L6.733,16.433a.5.5,0,0,1-.25.067Z" fill="#fff"/>
    <path id="Trazado_814586" data-name="Trazado 814586" d="M13.47,53.47a.5.5,0,0,1-.263-.925L30.764,41.683,10.464,53.4a.5.5,0,0,1-.511-.859l16.055-9.836L7.482,53.4a.5.5,0,0,1-.511-.858l20.44-12.556L4.184,53.4a.5.5,0,0,1-.513-.858L30,36.282,2.049,52.418a.5.5,0,0,1-.513-.858L29.046,34.6,1.293,50.621a.5.5,0,0,1-.513-.858L28.721,32.495,1.28,48.338a.5.5,0,0,1-.51-.859L20.688,35.3,1.28,46.5a.5.5,0,0,1-.512-.858L22.535,32.2,1.28,44.467a.5.5,0,0,1-.512-.859L19.18,32.233,1.28,42.567a.5.5,0,0,1-.509-.859l7.966-4.852L1.28,41.161A.5.5,0,1,1,.77,40.3l8.339-5.1L1.28,39.721a.5.5,0,1,1-.51-.86l4.125-2.515L1.28,38.433a.5.5,0,0,1-.517-.856L16.422,27.66,1.28,36.4a.5.5,0,0,1-.516-.855L12.587,28.08,1.28,34.607a.5.5,0,0,1-.52-.852l12.452-8.023L1.28,32.621a.5.5,0,0,1-.514-.856L4.2,29.619,1.28,31.3a.5.5,0,0,1-.517-.855L4.822,27.88,1.28,29.925a.5.5,0,1,1-.525-.851L8.729,23.81,1.28,28.11a.5.5,0,0,1-.523-.852l4.3-2.81L1.28,26.627a.5.5,0,0,1-.539-.841l6.94-4.911-6.4,3.7a.5.5,0,0,1-.55-.833l5.5-4.133L1.28,22.464a.5.5,0,0,1-.548-.835l2.432-1.8L1.28,20.914a.5.5,0,0,1-.589-.8l2.6-2.389L1.28,18.883a.5.5,0,0,1-.645-.739l1.1-1.423a.5.5,0,0,1-.374-.918l2.05-1.183a.5.5,0,0,1,.646.739L2.986,16.743,6.7,14.6a.5.5,0,0,1,.589.8l-2.6,2.39,5.526-3.19a.5.5,0,0,1,.548.835l-2.431,1.8L12.9,14.6a.5.5,0,0,1,.55.833l-5.5,4.134,8.6-4.967a.5.5,0,0,1,.539.841l-6.938,4.91L20.117,14.6a.5.5,0,0,1,.524.851l-4.3,2.811L22.687,14.6a.5.5,0,0,1,.525.85l-7.974,5.264L25.828,14.6a.5.5,0,0,1,.518.855l-4.068,2.572L28.215,14.6a.5.5,0,0,1,.514.857l-3.42,2.14,5.19-3a.5.5,0,0,1,.521.853L18.566,23.473,33.939,14.6a.5.5,0,1,1,.517.856L22.631,22.92,37.047,14.6a.5.5,0,0,1,.517.855L21.9,25.372,40.565,14.6a.5.5,0,1,1,.511.86l-4.117,2.509L42.8,14.6a.5.5,0,1,1,.511.86l-8.343,5.1L45.291,14.6a.5.5,0,1,1,.51.86l-7.965,4.85,9.891-5.71a.5.5,0,0,1,.512.858L29.816,26.837l21.2-12.24a.5.5,0,0,1,.512.858L29.771,28.9,54.545,14.6a.5.5,0,1,1,.511.86L35.138,27.636l21.988-12.7a.5.5,0,1,1,.513.859L29.69,33.071,58.5,16.44a.5.5,0,0,1,.513.859L31.51,34.254l27.21-15.71a.5.5,0,0,1,.512.858L32.9,35.663,58.72,20.757a.5.5,0,1,1,.511.86L38.779,34.179,58.72,22.667a.5.5,0,0,1,.51.859L43.188,33.354,58.72,24.387a.5.5,0,1,1,.512.859L41.675,36.108,58.72,26.267a.5.5,0,1,1,.514.858L41.841,37.979,58.72,28.234a.5.5,0,0,1,.516.856L42.18,39.856l16.54-9.549a.5.5,0,0,1,.518.854L43.591,41.135,58.72,32.4a.5.5,0,0,1,.518.855l-11.958,7.6,11.44-6.6a.5.5,0,0,1,.519.853l-9.976,6.379,9.457-5.46a.5.5,0,0,1,.525.85l-11.188,7.4,10.663-6.16a.5.5,0,0,1,.532.845l-10.36,7.1,9.828-5.674a.5.5,0,0,1,.528.847l-5.807,3.9,5.279-3.047a.5.5,0,0,1,.523.851l-.994.651.471-.272a.5.5,0,0,1,.536.843L55.7,46.634l3.017-1.741a.5.5,0,0,1,.567.819L54.671,49.5l4.046-2.336a.5.5,0,0,1,.587.8l-2.468,2.245,1.881-1.086a.5.5,0,0,1,.6.793l-.646.621a.507.507,0,0,1,.542.238.5.5,0,0,1-.183.683L55.675,53.4a.5.5,0,0,1-.6-.793l.579-.555L53.319,53.4a.5.5,0,0,1-.587-.8L55.2,50.354,49.921,53.4a.5.5,0,0,1-.567-.819l4.613-3.792L45.979,53.4a.5.5,0,0,1-.537-.842l3.55-2.472L43.251,53.4a.5.5,0,0,1-.523-.85l1-.655-2.609,1.5a.5.5,0,0,1-.528-.847l5.8-3.9L38.179,53.4a.5.5,0,0,1-.533-.844l10.364-7.1L34.243,53.4a.5.5,0,0,1-.525-.849l11.189-7.4L30.623,53.4a.5.5,0,0,1-.519-.853l9.972-6.376L27.554,53.4a.5.5,0,0,1-.519-.854l11.957-7.6L24.342,53.4a.5.5,0,0,1-.519-.854l15.65-9.974L20.716,53.4a.5.5,0,0,1-.517-.855L37.254,41.782,17.127,53.4a.5.5,0,0,1-.515-.856L34,41.691,13.72,53.4A.5.5,0,0,1,13.47,53.47Z" fill="#ffbd17"/>
    <path id="Trazado_814587" data-name="Trazado 814587" d="M29.889,59.469a.5.5,0,0,1-.279-.915l3.77-2.53L27.6,59.361a.5.5,0,0,1-.537-.842L33.25,54.19l-8.686,5.015a.5.5,0,0,1-.536-.843l5.8-4.04-8.019,4.629a.5.5,0,0,1-.536-.843l5.382-3.746-7.326,4.23a.5.5,0,0,1-.526-.85l1.92-1.273L17.64,58.248a.5.5,0,0,1-.533-.845l3.614-2.475L15.882,57.72a.5.5,0,0,1-.543-.838l4.94-3.575-5.914,3.414a.5.5,0,0,1-.559-.825l5.059-4L14.28,54.547a.5.5,0,0,1-.588-.8l3.282-3.011L14.28,52.291a.5.5,0,0,1-.622-.767L15,50.027l-.72.415a.5.5,0,0,1-.734-.555l.281-1.112a.493.493,0,0,1-.229-.207.5.5,0,0,1,.182-.682l.5-.289a.5.5,0,0,1,.735.555l-.21.832,2.408-1.39a.5.5,0,0,1,.622.766l-1.342,1.5,3.927-2.267a.5.5,0,0,1,.588.8L17.725,51.4l6.611-3.816a.5.5,0,0,1,.56.825L19.838,52.4l8.353-4.823a.5.5,0,0,1,.543.838L23.792,52l7.652-4.417a.5.5,0,0,1,.533.845L28.368,50.9l5.752-3.32a.5.5,0,0,1,.526.85L32.728,49.7l3.68-2.125a.5.5,0,0,1,.535.843l-5.385,3.749,7.959-4.6a.5.5,0,0,1,.536.843l-5.8,4.039,8.462-4.885a.5.5,0,0,1,.536.843L37.066,52.74l8.654-5a.5.5,0,0,1,.528.848l-3.771,2.531,3.243-1.872a.5.5,0,0,1,.536.843l-3.672,2.561,3.136-1.809a.5.5,0,0,1,.566.819l-4.276,3.5,3.711-2.143a.5.5,0,0,1,.61.78l-1.96,2.042,1.35-.779a.5.5,0,1,1,.5.866l-4.4,2.537a.5.5,0,0,1-.61-.78l1.959-2.042L37.189,59.1a.5.5,0,0,1-.566-.819l4.275-3.5-7.921,4.573a.5.5,0,0,1-.537-.842l3.676-2.566L30.139,59.4A.5.5,0,0,1,29.889,59.469Z" fill="#3b4463"/>
    <path id="Trazado_814588" data-name="Trazado 814588" d="M29.868,51.469a.5.5,0,0,1-.328-.877l1.768-1.537-3.979,2.3a.5.5,0,0,1-.566-.82l1.212-.992-2.944,1.7a.5.5,0,0,1-.595-.794l1.99-1.9L22.18,50.992a.5.5,0,0,1-.6-.785l1.858-1.872-3.955,2.284a.5.5,0,0,1-.608-.782l1.518-1.551-3.2,1.848a.5.5,0,0,1-.616-.774l1.14-1.222L15.358,49.5a.5.5,0,0,1-.7-.657l.567-1.126-.912.525a.5.5,0,0,1-.5-.865l2.36-1.362a.5.5,0,0,1,.7.657L16.307,47.8l3.805-2.2a.5.5,0,0,1,.616.773l-1.14,1.223,3.457-2a.5.5,0,0,1,.607.782l-1.516,1.55L26.177,45.6a.5.5,0,0,1,.6.785l-1.858,1.872,4.6-2.657a.5.5,0,0,1,.6.794L28.13,48.3l4.67-2.7a.5.5,0,0,1,.566.819l-1.213.993L35.3,45.6a.5.5,0,0,1,.578.809L34.11,47.946,38.174,45.6a.5.5,0,0,1,.558.826l-.724.569,2.417-1.4a.5.5,0,0,1,.6.793l-1.971,1.9,4.06-2.344a.5.5,0,0,1,.659.722L42.38,48.637l2.956-1.706a.5.5,0,1,1,.5.865L40.9,50.641a.5.5,0,0,1-.658-.722l1.393-1.966L36.007,51.2a.5.5,0,0,1-.6-.793l1.972-1.9-4.964,2.865a.5.5,0,0,1-.559-.826l.725-.568L30.118,51.4A.49.49,0,0,1,29.868,51.469Z" fill="#4e5a7a"/>
    <path id="Trazado_814589" data-name="Trazado 814589" d="M29.779,47.469a.5.5,0,0,1-.276-.917l2.79-1.851L27.68,47.364a.5.5,0,0,1-.524-.851l1.381-.9-2.88,1.662a.5.5,0,0,1-.524-.85L27,45.2l-3.348,1.933A.5.5,0,0,1,23.1,46.3l7.233-5.313-9.994,5.77a.5.5,0,0,1-.531-.846L23.9,43.124l-5.65,3.262a.5.5,0,0,1-.534-.845l4.112-2.833-5.5,3.171a.5.5,0,0,1-.536-.843l3.865-2.691L14.781,45.16a.5.5,0,0,1-.533-.845l2.308-1.589L14.28,44.039a.5.5,0,0,1-.546-.836l3.022-2.221L14.28,42.411a.5.5,0,0,1-.569-.817l2.621-2.17L14.28,40.607a.5.5,0,0,1-.631-.756L15.3,37.909l-1.023.59a.5.5,0,0,1-.735-.552l.287-1.17a.488.488,0,0,1-.234-.209.5.5,0,0,1,.182-.682l.5-.289a.5.5,0,0,1,.736.551l-.221.9L17.308,35.6a.5.5,0,0,1,.631.757L16.284,38.3l4.684-2.7a.5.5,0,0,1,.569.817l-2.619,2.169L24.1,35.588a.5.5,0,0,1,.546.836l-3.021,2.221,5.3-3.06a.5.5,0,0,1,.533.845l-2.312,1.592,4.226-2.439a.5.5,0,0,1,.536.843l-3.865,2.691L32.17,35.58a.5.5,0,0,1,.534.845l-4.1,2.83,6.371-3.678a.5.5,0,0,1,.531.846l-4.091,2.789,6.3-3.637a.5.5,0,0,1,.546.836l-7.233,5.312L41.68,35.571a.5.5,0,0,1,.524.851l-1.869,1.226,3.6-2.079a.5.5,0,0,1,.523.852l-1.361.888,2.624-1.515a.5.5,0,0,1,.526.85l-2.8,1.855,2.271-1.311a.5.5,0,0,1,.551.832L40.42,42.454l5.3-3.059a.5.5,0,0,1,.541.838l-1.342.962.8-.463a.5.5,0,0,1,.547.835l-.358.265a.5.5,0,0,1,.454.8l-.975,1.246.307-.178a.5.5,0,1,1,.5.865l-2.543,1.468a.5.5,0,0,1-.643-.741l.975-1.245L39.037,46.9a.5.5,0,0,1-.547-.835l.076-.056-1.977,1.141a.5.5,0,0,1-.541-.839l1.337-.958-3.394,1.959a.5.5,0,0,1-.552-.831l5.853-4.435L30.029,47.4A.5.5,0,0,1,29.779,47.469Z" fill="#3b4463"/>
    <path id="Trazado_814590" data-name="Trazado 814590" d="M29.536,39.467a.5.5,0,0,1-.323-.881l1.591-1.35-3.652,2.108a.5.5,0,0,1-.6-.788l2.174-2.147-4.768,2.752a.5.5,0,0,1-.573-.813L24.7,37.231l-2.964,1.711a.5.5,0,0,1-.624-.763L23.039,36l-4.306,2.485a.5.5,0,0,1-.633-.754l1.553-1.855-3.418,1.973a.5.5,0,0,1-.581-.808l.086-.075-.666.384a.5.5,0,0,1-.67-.7l.473-.729-.56.322a.5.5,0,0,1-.5-.865l2.36-1.362a.5.5,0,0,1,.67.7l-.473.729,3.2-1.846a.5.5,0,0,1,.581.807l-.085.075L21.6,33.6a.5.5,0,0,1,.633.754l-1.552,1.854L25.2,33.6a.5.5,0,0,1,.624.763L23.9,36.54,29,33.6a.5.5,0,0,1,.573.813l-1.316,1.117L31.6,33.6a.494.494,0,0,1,.647.13.5.5,0,0,1-.046.658l-2.174,2.146L35.108,33.6a.5.5,0,0,1,.574.813l-1.589,1.349L37.837,33.6a.5.5,0,0,1,.6.791l-2.143,2.083L41.271,33.6a.5.5,0,0,1,.6.785L39.9,36.36l3.837-2.214a.5.5,0,0,1,.592.8l-.811.759,1.6-.925a.5.5,0,0,1,.646.738l-.271.352.186-.106a.5.5,0,0,1,.5.865L43.81,38a.5.5,0,0,1-.646-.737l.271-.353-3.188,1.841a.5.5,0,0,1-.592-.8l.812-.758L37.14,39.109a.5.5,0,0,1-.6-.785L38.5,36.349l-5.192,3a.5.5,0,0,1-.6-.791l2.142-2.083L29.786,39.4a.49.49,0,0,1-.25.067Z" fill="#4e5a7a"/>
    <path id="Trazado_814591" data-name="Trazado 814591" d="M29.639,35.467a.5.5,0,0,1-.275-.918l1.923-1.265-3.6,2.08a.5.5,0,0,1-.536-.843l5.906-4.1-8.313,4.8a.5.5,0,0,1-.541-.84l6.672-4.764L21.66,34.933a.5.5,0,0,1-.527-.849L23.819,32.3l-4.095,2.36a.5.5,0,0,1-.538-.841l5.469-3.857-7.3,4.214a.5.5,0,0,1-.549-.833L23.12,28.6,14.992,33.3a.5.5,0,0,1-.53-.847l1.5-1.014-1.681.969a.5.5,0,0,1-.536-.843l1.721-1.2-1.185.684a.5.5,0,0,1-.543-.838l1.284-.931-.741.428a.5.5,0,0,1-.586-.8L16.023,26.8l-1.743,1a.5.5,0,0,1-.588-.8l.4-.369a.491.491,0,0,1-.364-.094.5.5,0,0,1-.187-.517l.294-1.236a.493.493,0,0,1-.24-.212.5.5,0,0,1,.182-.683l.5-.29a.5.5,0,0,1,.737.549l-.232.974L17.424,23.6a.5.5,0,0,1,.588.8l-.274.25,1.825-1.054a.5.5,0,0,1,.586.8L17.821,26.5l5.056-2.92a.5.5,0,0,1,.543.838l-1.283.93,3.066-1.77a.5.5,0,0,1,.536.843l-1.724,1.2,3.543-2.045a.5.5,0,0,1,.53.847l-1.5,1.015,3.229-1.864a.5.5,0,0,1,.55.833L24.054,29.15l9.655-5.575a.5.5,0,0,1,.538.842l-5.469,3.856,8.142-4.7a.5.5,0,0,1,.527.849l-2.684,1.787,4.569-2.638a.5.5,0,0,1,.541.84L33.2,29.178l9.714-5.609a.5.5,0,0,1,.535.844l-5.9,4.1L45.72,23.8a.5.5,0,0,1,.524.851l-1.927,1.267,1.4-.81a.5.5,0,0,1,.539.841L41.807,29.1l3.913-2.26a.5.5,0,0,1,.54.841l-1.949,1.384,1.41-.814a.5.5,0,0,1,.555.829l-1.7,1.318,1.147-.662a.5.5,0,0,1,.586.8l-.769.7.183-.1a.5.5,0,0,1,.5.865l-4.229,2.441a.5.5,0,0,1-.586-.8l.767-.7-3.487,2.013a.5.5,0,0,1-.556-.828l1.7-1.317L35.64,35.23a.5.5,0,0,1-.54-.84L37.049,33l-4.085,2.357a.5.5,0,0,1-.539-.84l4.45-3.152L29.889,35.4a.5.5,0,0,1-.25.067Z" fill="#3b4463"/>
    <path id="Trazado_814592" data-name="Trazado 814592" d="M31.143,27.461a.5.5,0,0,1-.32-.884l2.161-1.8-4.508,2.6a.5.5,0,0,1-.567-.82l2.242-1.83L25.74,27.28a.5.5,0,0,1-.595-.794l3.066-2.939L22.234,27a.5.5,0,0,1-.563-.823l1.839-1.483L20.02,26.71a.5.5,0,0,1-.552-.833l.419-.316-1.487.858a.5.5,0,0,1-.555-.829l.3-.234-1.224.707a.5.5,0,0,1-.574-.814l.68-.579-1.541.89a.5.5,0,0,1-.707-.637l.569-1.275-1.038.6a.5.5,0,0,1-.5-.867l2.371-1.368a.5.5,0,0,1,.707.637l-.569,1.275L21.3,21.05a.5.5,0,0,1,.574.814l-.681.578L24.042,20.8a.5.5,0,0,1,.556.829l-.3.234,2.065-1.192a.5.5,0,0,1,.552.832l-.418.315,2.094-1.209a.5.5,0,0,1,.563.823l-1.839,1.484,3.982-2.3a.5.5,0,0,1,.6.794l-3.066,2.939,6.2-3.58a.5.5,0,0,1,.567.82l-2.242,1.83,4.215-2.434a.5.5,0,0,1,.57.817l-2.16,1.8,3.992-2.3a.5.5,0,0,1,.59.8l-2.246,2.077,4.143-2.393a.5.5,0,0,1,.642.744l-1.7,2.138,3.5-2.02a.5.5,0,0,1,.672.7l-.487.767.6-.349a.5.5,0,1,1,.5.867L43.817,25.99a.5.5,0,0,1-.671-.7l.487-.768-4,2.312a.5.5,0,0,1-.642-.744l1.7-2.139-5.75,3.321a.5.5,0,0,1-.59-.8L36.6,24.4l-5.2,3A.5.5,0,0,1,31.143,27.461Z" fill="#4e5a7a"/>
    <path id="Trazado_814593" data-name="Trazado 814593" d="M.266,20.426C1.3,26.589-2.225,51.462,2.485,53.278c3.5.639,7.21.069,10.774.251-1.659,8.24,19.911,5.519,25.1,5.386,3.3-.586,9.45-.542,8.422-5.386,18.448,1.967,11.92-5.9,12.953-19.335C58.75,29.14,62.488,5.478,56.789,5.689c-9.477-.087-18.968.04-28.447-.02-3.483-.1-4.954-3.75-8.043-4.736C15.816.28,11.159.851,6.614.668-4.041-.843,1.606,14.18.266,20.426ZM44.554,56.863a55.256,55.256,0,0,1-28.432.091c-2.725-1.1-.955-5.1-1.41-7.433,9.75,2.536,20.922,2.824,30.564-.249C44.845,51.635,46.235,55.1,44.554,56.863ZM14.712,37.486c9.771,2.5,20.9,2.747,30.564-.309-.165,6.715,1.736,8.426-6.3,9.034-7.534.747-15.547,1-22.847-1.216C13.392,43.858,15.168,39.842,14.712,37.486Zm0-11.882a56.713,56.713,0,0,0,30.553-.059C45.283,31.619,46.5,33.5,39.3,33.95c-7.563.846-15.528,1.025-22.916-.977-3.088-.839-1.238-5-1.665-7.373Zm2.612-2.914c8.8-1.394,19.951-2.7,27.925,1.4-1,3.863-39.655,2.571-27.922-1.4Zm2.459,12.158C25.5,37.194,45.31,32.6,45.259,36.319c-7.8,4.017-18.579,2.476-27.185,1.288-5.966-1.035-2.474-4.164,1.712-2.759ZM20.3,46.762c5.684,2.167,24.183-2.367,24.945,1.53C41.23,51.07,35.094,50.341,30.3,50.654c-5.016-.232-10.941.228-15.363-2.377-.7-2.077,3.963-1.943,5.37-1.515ZM56.92,52.307c-3.306.519-6.816-.018-10.178.164-.125-2.959.979-6.292-3.278-6.591,3.625-.476,3.574-3.1,3.26-6.074-.067-2.643.862-5.435-2.916-5.8,4.945-.782,2.365-6.742,2.917-10.2-2.2-3.247-7.774-2.539-11.327-3.169-6.687.136-17.288-1.7-22.13,3.425.5,3.558-1.927,9.518,3.2,10.142-1.468.436-3.082,1.063-3.194,1.99.455,3.546-1.912,9.415,3.272,9.891-4.13.7-3.239,3.386-3.3,6.386C9.715,51.717,1.972,54.8,1.733,49.425c1.079-5.463-2.589-33.74,2.2-33.9,17.375.022,34.777-.037,52.141.014,4.258,1.252,1.4,9.564,2.191,13.108C57.429,34.324,60.114,48.762,56.92,52.307ZM9.061,10.534q19.274-.009,38.553,0c3.022-.4,6.2.221,5.65,3.937H6.732C6.72,12.69,6.741,10.654,9.061,10.534ZM2.435,1.959C7.4.433,13.476,1.613,18.751,1.437c5.416,3.1,6.637,5.915,13.832,4.893H52.6c6.72-1.091,5.8,3.983,5.7,8.906a5.52,5.52,0,0,0-3.552-.765c.665-8.38-11.073-3.975-16.156-5.006H11.514c-3.334-.566-6.966,1.1-6.257,5a5.393,5.393,0,0,0-3.533.8C2.175,10.935.739,5.963,2.435,1.959Z" fill="#262626"/>
  </g>
</svg>
