<svg id="Grupo_155255" data-name="Grupo 155255" xmlns="http://www.w3.org/2000/svg" width="100.006" height="100.005" viewBox="0 0 100.006 100.005">
  <g id="Grupo_18423" data-name="Grupo 18423" transform="translate(0 0)">
    <g id="Grupo_18421" data-name="Grupo 18421">
      <g id="Grupo_18420" data-name="Grupo 18420">
        <g id="Grupo_18419" data-name="Grupo 18419">
          <path id="Trazado_40936" data-name="Trazado 40936" d="M294.629,2195.722a50,50,0,1,1-50-50A50,50,0,0,1,294.629,2195.722Z" transform="translate(-194.623 -2145.721)" fill="#f7f7f8"/>
        </g>
      </g>
    </g>
    <path id="Trazado_40937" data-name="Trazado 40937" d="M294.205,2195.261a50,50,0,1,0-50,50A49.8,49.8,0,0,0,294.205,2195.261Z" transform="translate(-194.477 -2145.26)" fill="#fff"/>
    <g id="Grupo_18422" data-name="Grupo 18422" transform="translate(8.858 28.073)">
      <path id="Trazado_40939" data-name="Trazado 40939" d="M286.636,2164.489a50.009,50.009,0,0,1-86.091,49.8,49.85,49.85,0,0,0,86.091-49.8Z" transform="translate(-200.545 -2164.489)" fill="#eceef0"/>
    </g>
  </g>
  <g id="Grupo_1070280" data-name="Grupo 1070280">
    <path id="Trazado_40938" data-name="Trazado 40938" d="M278.648,2191.559a38.167,38.167,0,1,0-38.167,38.167A38.026,38.026,0,0,0,278.648,2191.559Z" transform="translate(-190.788 -2141.391)" fill="none" stroke="#f59d36" stroke-miterlimit="10" stroke-width="4"/>
    <g id="hbMK21" transform="translate(24.294 28.58)">
      <g id="Grupo_155336" data-name="Grupo 155336">
        <path id="Trazado_197253" data-name="Trazado 197253" d="M7618.73,3400.83a39.791,39.791,0,0,1-4.563-.342,9.634,9.634,0,0,1-7.838-10.222,8.856,8.856,0,0,1,1.423-4.347,9.325,9.325,0,0,1,3.064-3.1.793.793,0,0,0,.455-.89,10.53,10.53,0,0,1,5.542-10.443,9.793,9.793,0,0,1,6.295-1.247.813.813,0,0,0,.895-.353,14.174,14.174,0,0,1,25.46,5.876,1.865,1.865,0,0,0,1.074,1.53,12.759,12.759,0,0,1,6.149,6.936c1.714,4.645,1.411,9.049-2.1,12.846a11.273,11.273,0,0,1-8.272,3.655c-1.353.037-2.709.035-4.062,0-.539-.015-.652.171-.645.673.027,1.765-.051,3.534.023,5.3.079,1.9-1.37,2.335-2.744,2.324-1.46-.011-2.921.011-4.381,0-.566,0-1.133-.068-1.7-.062-1.955.018-3.91.059-5.865.082-.878.011-1.755.006-2.633,0a2.092,2.092,0,0,1-1.962-2.078c-.012-1.864-.026-3.729.006-5.592.01-.54-.167-.666-.67-.647-.98.036-1.962.01-2.943.01Zm-6.17-18.882c.513-.074.974-.165,1.438-.2a6.8,6.8,0,0,1,5.34,1.842.627.627,0,0,1,.1.979c-.3.313-.579.195-.905-.085a5.852,5.852,0,0,0-3.858-1.5c-2.793-.015-4.655,1.6-6.02,3.773a8.483,8.483,0,0,0,6.231,12.571c2.409.241,4.857.092,7.288.116.032,0,.064-.039.161-.1,0-1.269-.007-2.579,0-3.889a1.981,1.981,0,0,1,1.705-2.133.626.626,0,0,0,.357-.449c.047-.506.01-1.019.021-1.529a7.538,7.538,0,0,1,14.827-1.7,18.578,18.578,0,0,1,.269,3.149c.019.3.021.494.41.563a1.9,1.9,0,0,1,1.674,2.018c.015,1.158,0,2.315.009,3.473,0,.189.021.377.034.624,1.439,0,2.829-.028,4.217,0a10.254,10.254,0,0,0,10.525-10.935,12.5,12.5,0,0,0-1.034-4.27,12.25,12.25,0,0,0-2.792-3.968,9.041,9.041,0,0,0-4.738-2.678,11.3,11.3,0,0,0-2.162.056c-.357.018-.633-.09-.72-.455a.6.6,0,0,1,.471-.76,1.59,1.59,0,0,1,.4-.082c.793-.044,1.586-.079,2.38-.116-.295-4.105-3.854-9.577-10.455-10.892-4.529-.9-11.484,1.97-12.577,5.232.217.081.443.146.652.246.619.294,1.239.585,1.841.911a.592.592,0,0,1,.275.893c-.228.374-.57.365-.925.174-.087-.047-.169-.1-.253-.149a9.554,9.554,0,0,0-13.728,5.025A9.04,9.04,0,0,0,7612.561,3381.948Zm27.789,19.26v-5.471c0-1-.155-1.162-1.158-1.162h-13.649c-.353,0-.706-.007-1.059,0-.646.018-.864.248-.882.906,0,.059,0,.118,0,.177-.026,3.8-.059,7.6-.065,11.4a.73.73,0,0,0,.341.544,2.391,2.391,0,0,0,1,.247c1.7,0,3.4-.052,5.093-.059,3.113-.011,6.226,0,9.339,0,.825,0,1.037-.22,1.039-1.05Q7640.352,3403.974,7640.35,3401.209Zm-14.593-7.89c.317,0,.646-.019.972,0,.39.029.521-.131.5-.511a14.529,14.529,0,0,1,.016-1.53,4.727,4.727,0,0,1,5.58-4.354c2.4.435,3.9,2.4,3.9,5.129,0,1.33,0,1.33,1.33,1.253a.542.542,0,0,0,.153-.059c.335-2.949-.341-5.343-2.825-6.934a5.95,5.95,0,0,0-6.924.071C7626.037,3388.006,7625.4,3390.4,7625.757,3393.319Zm6.192,0c1.019,0,2.036-.007,3.055,0,.309,0,.485-.072.471-.422-.022-.567.021-1.14-.044-1.7a3.453,3.453,0,0,0-3.136-3.07,3.376,3.376,0,0,0-3.656,2.563,13.093,13.093,0,0,0-.162,2.155c-.025.354.117.483.477.476C7629.951,3393.306,7630.95,3393.318,7631.949,3393.317Z" transform="translate(-7606.284 -3363.957)" fill="#12263f"/>
        <path id="Trazado_197254" data-name="Trazado 197254" d="M7725.635,3450.379a17.356,17.356,0,0,1,12.713,5.52,1.27,1.27,0,0,1,.364.694c.015.174-.2.507-.345.526a1.1,1.1,0,0,1-.772-.216c-.843-.7-1.593-1.522-2.477-2.162a16.113,16.113,0,0,0-21.11,1.852c-.1.1-.193.2-.281.3-.3.356-.665.552-1.056.184s-.161-.74.146-1.065A17.429,17.429,0,0,1,7725.635,3450.379Z" transform="translate(-7699.953 -3440.2)" fill="#12263f"/>
        <path id="Trazado_197255" data-name="Trazado 197255" d="M7761.949,3495.563c-.185.207-.308.464-.487.514a.923.923,0,0,1-.692-.126,8.6,8.6,0,0,1-.8-.777,11.407,11.407,0,0,0-15.887.377c-.111.111-.217.227-.326.339a.625.625,0,0,1-.937.1.6.6,0,0,1,.033-.974,20.59,20.59,0,0,1,2.363-2.018,12.63,12.63,0,0,1,16.221,1.857A6.924,6.924,0,0,1,7761.949,3495.563Z" transform="translate(-7726.531 -3475.926)" fill="#12263f"/>
        <path id="Trazado_197256" data-name="Trazado 197256" d="M7806.257,3651.341a3.973,3.973,0,0,1,0-.47.947.947,0,0,0-.586-1.109,2.2,2.2,0,0,1-1.039-2.622,2.335,2.335,0,0,1,4.491.03,2.209,2.209,0,0,1-1.071,2.611.95.95,0,0,0-.564,1.063c.029.429,0,.862.011,1.292.007.454-.082.857-.64.85-.521-.007-.615-.39-.608-.822,0-.274,0-.549,0-.823Zm1.69-3.575a1.07,1.07,0,0,0-2.14.023,1.07,1.07,0,1,0,2.14-.023Z" transform="translate(-7781.186 -3612.305)" fill="#12263f"/>
      </g>
    </g>
  </g>
</svg>

