<svg id="Grupo_155255" data-name="Grupo 155255" xmlns="http://www.w3.org/2000/svg" width="100.006" height="100.005" viewBox="0 0 100.006 100.005">
  <g id="Grupo_18423" data-name="Grupo 18423" transform="translate(0 0)">
    <g id="Grupo_18421" data-name="Grupo 18421">
      <g id="Grupo_18420" data-name="Grupo 18420">
        <g id="Grupo_18419" data-name="Grupo 18419">
          <path id="Trazado_40936" data-name="Trazado 40936" d="M294.629,2195.722a50,50,0,1,1-50-50A50,50,0,0,1,294.629,2195.722Z" transform="translate(-194.623 -2145.721)" fill="#f7f7f8"/>
        </g>
      </g>
    </g>
    <path id="Trazado_40937" data-name="Trazado 40937" d="M294.205,2195.261a50,50,0,1,0-50,50A49.8,49.8,0,0,0,294.205,2195.261Z" transform="translate(-194.477 -2145.26)" fill="#fff"/>
    <path id="Trazado_40938" data-name="Trazado 40938" d="M278.648,2191.559a38.167,38.167,0,1,0-38.167,38.167A38.026,38.026,0,0,0,278.648,2191.559Z" transform="translate(-190.788 -2141.391)" fill="none" stroke="#f59d36" stroke-miterlimit="10" stroke-width="4"/>
    <g id="Grupo_18422" data-name="Grupo 18422" transform="translate(8.858 28.073)">
      <path id="Trazado_40939" data-name="Trazado 40939" d="M286.636,2164.489a50.009,50.009,0,0,1-86.091,49.8,49.85,49.85,0,0,0,86.091-49.8Z" transform="translate(-200.545 -2164.489)" fill="#eceef0"/>
    </g>
  </g>
  <g id="TYn6ME.tif" transform="translate(27.913 30.913)">
    <g id="Grupo_155337" data-name="Grupo 155337">
      <path id="Trazado_197257" data-name="Trazado 197257" d="M7748.675,3486.029a1.138,1.138,0,0,1,.68,1.193c-.028.794-.008,1.589-.008,2.43.17.01.314.027.459.027,1.3,0,2.608,0,3.913,0a4.627,4.627,0,0,1,4.814,4.831c.006,1.291,0,2.582,0,3.872v.483c.779,0,1.5,0,2.228,0,.179,0,.358,0,.536.01a.907.907,0,0,1-.035,1.814c-.8.017-1.593.007-2.39.008h-.31v5.506h1.929c.246,0,.5-.006.741,0a.913.913,0,0,1,.948.926.9.9,0,0,1-.937.892c-.756.016-1.511.006-2.266.008h-.405v5.506h2.185c.179,0,.358-.006.535.007a.905.905,0,0,1,.889.9.884.884,0,0,1-.872.909c-.742.026-1.484.012-2.225.016h-.527c-.009.195-.021.353-.023.513-.019,1.551.027,3.106-.071,4.651a4.423,4.423,0,0,1-3.953,3.952c-1.519.1-3.047.052-4.57.07-.177,0-.354,0-.593,0,0,.357,0,.681,0,1.005,0,.59.012,1.181-.015,1.771a.9.9,0,0,1-1.807-.02c-.021-.754-.008-1.51-.01-2.266,0-.147,0-.3,0-.466h-5.508c0,.732,0,1.442,0,2.152,0,.206.007.412-.011.617a.9.9,0,0,1-.89.854.885.885,0,0,1-.915-.867c-.024-.741-.011-1.483-.013-2.224v-.521h-5.507v.882c0,.563,0,1.127,0,1.69a.93.93,0,0,1-.918,1.042c-.543,0-.9-.407-.91-1.049-.01-.714,0-1.428,0-2.142,0-.134-.011-.268-.02-.456h-.462c-1.291,0-2.582,0-3.872,0a4.629,4.629,0,0,1-4.832-4.815c-.006-1.291,0-2.582,0-3.873v-.5c-.847,0-1.653-.021-2.458.007a1.136,1.136,0,0,1-1.193-.681v-.494a1.166,1.166,0,0,1,1.238-.672c.789.03,1.581.008,2.375.008v-5.507c-.832,0-1.626-.023-2.419.008a1.141,1.141,0,0,1-1.194-.675v-.494a1.142,1.142,0,0,1,1.194-.675c.8.031,1.608.008,2.421.008V3500.7c-.818,0-1.6-.022-2.377.008a1.169,1.169,0,0,1-1.238-.672v-.495a1.137,1.137,0,0,1,1.192-.68c.8.027,1.61.007,2.459.007v-.5c0-1.3-.008-2.607,0-3.911a4.618,4.618,0,0,1,4.777-4.778c1.316-.01,2.634,0,3.951,0,.144,0,.287-.017.455-.028,0-.842.021-1.637-.008-2.43a1.14,1.14,0,0,1,.682-1.193h.494a1.166,1.166,0,0,1,.672,1.238c-.029.79-.007,1.581-.007,2.375h5.507c0-.832.022-1.626-.008-2.419a1.141,1.141,0,0,1,.675-1.194h.494a1.141,1.141,0,0,1,.676,1.194c-.031.8-.009,1.609-.009,2.419h5.508c0-.817.022-1.6-.009-2.376a1.169,1.169,0,0,1,.673-1.238Zm-7.566,5.514q-6.283,0-12.565,0a2.769,2.769,0,0,0-3.028,3.01v25.129a2.768,2.768,0,0,0,3.021,3.018h25.087a2.774,2.774,0,0,0,3.05-3.031q0-12.544,0-25.088a2.772,2.772,0,0,0-3.041-3.038Q7747.37,3491.541,7741.108,3491.543Z" transform="translate(-7720.001 -3486.029)" fill="#12263f"/>
      <path id="Trazado_197258" data-name="Trazado 197258" d="M7854.769,3608.9q0,4.47,0,8.94a2.758,2.758,0,0,1-2.039,2.844,3.572,3.572,0,0,1-.936.117q-8.959.01-17.921,0a2.8,2.8,0,0,1-2.974-2.965q-.007-8.96,0-17.921a2.8,2.8,0,0,1,3-2.986q8.94,0,17.88,0a2.8,2.8,0,0,1,3,2.986Q7854.773,3604.405,7854.769,3608.9Zm-18.359,10.027c0-1.49,0-2.929,0-4.369,0-.74.334-1.1,1.07-1.106q5.353-.015,10.706,0c.737,0,1.067.365,1.069,1.108,0,1.3,0,2.608,0,3.912v.421a.669.669,0,0,0,.131.038c.769,0,1.536.008,2.306.007.928,0,1.21-.279,1.21-1.2q0-6.486,0-12.97v-.443h-20.123c-.008.131-.016.226-.016.321q0,6.589,0,13.177a2.825,2.825,0,0,0,.01.288.839.839,0,0,0,.792.806C7834.5,3618.939,7835.426,3618.923,7836.409,3618.923Zm16.472-16.5c.01-.085.018-.126.02-.167q0-1.112,0-2.225c0-.97-.271-1.236-1.255-1.236q-8.815,0-17.629,0a3.724,3.724,0,0,0-.493.018.811.811,0,0,0-.734.724c-.028.955-.01,1.911-.01,2.885Zm-14.592,12.883v3.6h9.1v-3.6Z" transform="translate(-7821.74 -3587.772)" fill="#12263f"/>
    </g>
  </g>
</svg>
