<svg xmlns="http://www.w3.org/2000/svg" width="37.995" height="41.862" viewBox="0 0 37.995 41.862">
  <g id="Support_Color_Line_Outline" data-name="Support_Color Line Outline" transform="translate(-3)">
    <g id="_15_Request_Support" data-name="15_Request Support" transform="translate(3)">
      <path id="Trazado_814676" data-name="Trazado 814676" d="M35.4,41.554H4V1H31.472L35.4,4.925Z" transform="translate(-3.346 -0.346)" fill="#e6e6e6"/>
      <path id="Trazado_814677" data-name="Trazado 814677" d="M49.229,6.25V4.925L45.3,1H43.989V6.25Z" transform="translate(-17.178 -0.346)" fill="#e6e6e6"/>
      <path id="Trazado_814678" data-name="Trazado 814678" d="M5.962,10.157V1H4V41.554H35.4V39.591A29.434,29.434,0,0,1,5.962,10.157Z" transform="translate(-3.346 -0.346)" fill="#f2f2f2"/>
      <path id="Trazado_814679" data-name="Trazado 814679" d="M35.051,41.862H3.654A.654.654,0,0,1,3,41.208V.654A.654.654,0,0,1,3.654,0H31.126a.654.654,0,0,1,.462.192l3.925,3.925a.654.654,0,0,1,.192.462v7.2H34.4V4.849L30.855,1.308H4.308V40.554H34.4V26.818H35.7v14.39A.654.654,0,0,1,35.051,41.862Z" transform="translate(-3)" fill="#383838"/>
      <path id="Trazado_814680" data-name="Trazado 814680" d="M49.229,6.25V4.925L45.3,1H43.989V6.25Z" transform="translate(-17.178 -0.346)" fill="#f2f2f2"/>
      <path id="Trazado_814681" data-name="Trazado 814681" d="M8,31h3.925v3.925H8Z" transform="translate(-4.73 -10.723)" fill="#14bb5b"/>
      <path id="Trazado_814682" data-name="Trazado 814682" d="M8,42h3.925v3.925H8Z" transform="translate(-4.73 -14.528)" fill="#14bb5b"/>
      <path id="Trazado_814683" data-name="Trazado 814683" d="M8,53h3.925v3.925H8Z" transform="translate(-4.73 -18.333)" fill="#14bb5b"/>
      <path id="Trazado_814684" data-name="Trazado 814684" d="M48.883,6.559H43.642a.654.654,0,0,1-.654-.654V.654A.654.654,0,0,1,43.642,0h1.316a.654.654,0,0,1,.462.192l3.925,3.925a.654.654,0,0,1,.192.462V5.9A.654.654,0,0,1,48.883,6.559ZM44.3,5.25h3.932v-.4L44.687,1.308h-.392Z" transform="translate(-16.832)" fill="#383838"/>
      <path id="Trazado_814726" data-name="Trazado 814726" d="M7.2,0A7.2,7.2,0,1,1,0,7.2,7.2,7.2,0,0,1,7.2,0Z" transform="translate(9.157 3.27)" fill="#f4b400"/>
      <path id="Trazado_814685" data-name="Trazado 814685" d="M26.157,18.074A7.2,7.2,0,0,1,20.184,6.868a7.2,7.2,0,1,0,9.984,9.984A7.159,7.159,0,0,1,26.157,18.074Z" transform="translate(-7.842 -2.376)" fill="#f29500"/>
      <g id="Grupo_1068538" data-name="Grupo 1068538" transform="translate(2.616 2.616)">
        <path id="Trazado_814686" data-name="Trazado 814686" d="M23.852,19.7a7.849,7.849,0,1,1,2.7-15.222L26.1,5.7a6.549,6.549,0,1,0,2.184,1.334l.887-.962A7.849,7.849,0,0,1,23.852,19.7Z" transform="translate(-10.116 -4)" fill="#383838"/>
        <path id="Trazado_814687" data-name="Trazado 814687" d="M11.579,35.233H7.654A.654.654,0,0,1,7,34.579V30.654A.654.654,0,0,1,7.654,30H8.962v1.308H8.308v2.616h2.616V33.34h1.308v1.238A.654.654,0,0,1,11.579,35.233Z" transform="translate(-7 -12.993)" fill="#383838"/>
        <path id="Trazado_814688" data-name="Trazado 814688" d="M11.579,46.233H7.654A.654.654,0,0,1,7,45.579V41.654A.654.654,0,0,1,7.654,41H8.962v1.308H8.308v2.616h2.616V44.34h1.308v1.238A.654.654,0,0,1,11.579,46.233Z" transform="translate(-7 -16.798)" fill="#383838"/>
        <path id="Trazado_814689" data-name="Trazado 814689" d="M11.579,57.233H7.654A.654.654,0,0,1,7,56.579V52.654A.654.654,0,0,1,7.654,52H8.962v1.308H8.308v2.616h2.616V55.34h1.308v1.238A.654.654,0,0,1,11.579,57.233Z" transform="translate(-7 -20.603)" fill="#383838"/>
        <path id="Trazado_814690" data-name="Trazado 814690" d="M0,0H4.625V1.308H0Z" transform="translate(2.151 19.159) rotate(-45)" fill="#383838"/>
        <path id="Trazado_814691" data-name="Trazado 814691" d="M0,0H4.625V1.308H0Z" transform="translate(2.15 26.354) rotate(-45)" fill="#383838"/>
        <path id="Trazado_814692" data-name="Trazado 814692" d="M0,0H5.088V1.308H0Z" transform="translate(2.15 33.547) rotate(-45)" fill="#383838"/>
        <path id="Trazado_814693" data-name="Trazado 814693" d="M18,33h9.157v1.308H18Z" transform="translate(-10.805 -14.031)" fill="#383838"/>
        <path id="Trazado_814694" data-name="Trazado 814694" d="M18,44h5.887v1.308H18Z" transform="translate(-10.805 -17.836)" fill="#383838"/>
        <path id="Trazado_814695" data-name="Trazado 814695" d="M18,55H28.465v1.308H18Z" transform="translate(-10.805 -21.641)" fill="#383838"/>
        <path id="Trazado_814696" data-name="Trazado 814696" d="M40.774,34.555a.654.654,0,0,1-.463-.2L37.5,31.546a.654.654,0,0,1,0-.925l9.383-9.386a.654.654,0,0,1,.925,0l2.813,2.816a.654.654,0,0,1,0,.925l-9.382,9.383A.654.654,0,0,1,40.774,34.555Zm-1.89-3.467,1.89,1.891,8.46-8.466-1.89-1.89Z" transform="translate(-17.483 -9.895)" fill="#383838"/>
      </g>
      <path id="Trazado_814697" data-name="Trazado 814697" d="M0,0H13.272V3.981H0Z" transform="translate(23.088 23.804) rotate(-45)" fill="#0e9c4a"/>
      <path id="Trazado_814698" data-name="Trazado 814698" d="M40.774,34.555a.654.654,0,0,1-.463-.2L37.5,31.546a.654.654,0,0,1,0-.925l9.383-9.386a.654.654,0,0,1,.925,0l2.813,2.816a.654.654,0,0,1,0,.925l-9.382,9.383A.654.654,0,0,1,40.774,34.555Zm-1.89-3.467,1.89,1.891,8.46-8.466-1.89-1.89Z" transform="translate(-14.867 -7.279)" fill="#383838"/>
      <path id="Trazado_814699" data-name="Trazado 814699" d="M55.469,23.806l-2.813-2.813,1.4-1.411A1.991,1.991,0,0,1,56.874,22.4Z" transform="translate(-20.176 -6.572)" fill="#474747"/>
      <path id="Trazado_814700" data-name="Trazado 814700" d="M55.123,24.084a.654.654,0,0,1-.462-.192L51.848,21.08a.654.654,0,0,1,0-.925l1.407-1.41a2.644,2.644,0,1,1,3.738,3.738L55.585,23.89A.654.654,0,0,1,55.123,24.084Zm-1.89-3.467,1.89,1.891.945-.948a1.338,1.338,0,0,0,0-1.89,1.367,1.367,0,0,0-1.89,0Z" transform="translate(-19.831 -6.196)" fill="#383838"/>
      <path id="Trazado_814701" data-name="Trazado 814701" d="M34,43.015l3.754-.939-2.815-2.815Z" transform="translate(-13.723 -13.581)" fill="#f4b400"/>
      <path id="Trazado_814702" data-name="Trazado 814702" d="M33.654,43.323a.654.654,0,0,1-.634-.813l.939-3.754a.654.654,0,0,1,1.1-.3l2.813,2.813a.654.654,0,0,1-.3,1.1l-3.751.941a.654.654,0,0,1-.158.02Zm1.293-3.129-.392,1.575,1.576-.392Z" transform="translate(-13.377 -13.235)" fill="#383838"/>
      <path id="Trazado_814703" data-name="Trazado 814703" d="M0,0H2.654V3.981H0Z" transform="translate(21.21 25.68) rotate(-45)" fill="#0e9c4a"/>
      <path id="Trazado_814704" data-name="Trazado 814704" d="M37.906,41.393a.654.654,0,0,1-.462-.192l-2.813-2.813a.654.654,0,0,1,0-.925l1.877-1.877a.654.654,0,0,1,.925,0L40.245,38.4a.654.654,0,0,1,0,.925L38.369,41.2A.654.654,0,0,1,37.906,41.393Zm-1.89-3.467,1.89,1.89.952-.952-1.89-1.89Z" transform="translate(-13.875 -12.244)" fill="#383838"/>
      <path id="Trazado_814705" data-name="Trazado 814705" d="M24.217,17.694a.654.654,0,0,1-.462-.192l-1.99-1.99.925-.925,1.527,1.527L29,11.335l.925.925L24.68,17.5A.654.654,0,0,1,24.217,17.694Z" transform="translate(-9.491 -3.921)" fill="#383838"/>
      <path id="Trazado_814706" data-name="Trazado 814706" d="M51,37h1.308v1.308H51Z" transform="translate(-19.604 -12.799)" fill="#383838"/>
      <path id="Trazado_814707" data-name="Trazado 814707" d="M29,44h1.308v1.308H29Z" transform="translate(-11.994 -15.22)" fill="#383838"/>
    </g>
  </g>
</svg>
