<svg xmlns="http://www.w3.org/2000/svg" width="39.327" height="39.327" viewBox="0 0 39.327 39.327">
  <g id="_x36_3_Plan" transform="translate(-1.505 -1.499)">
    <g id="Grupo_1068539" data-name="Grupo 1068539" transform="translate(1.505 1.499)">
      <path id="Trazado_814708" data-name="Trazado 814708" d="M29.987,8.087l9.53,28.183a1.853,1.853,0,0,1-1.162,2.35L18.792,45.234a1.853,1.853,0,0,1-2.35-1.162L6.913,15.889a1.853,1.853,0,0,1,1.162-2.35L27.637,6.925a1.854,1.854,0,0,1,2.35,1.162Z" transform="translate(-6.404 -6.415)" fill="#ebd8ae"/>
      <path id="Trazado_814709" data-name="Trazado 814709" d="M140.668,8.075l9.53,28.184a1.855,1.855,0,0,1-1.162,2.35l-19.563,6.615a1.853,1.853,0,0,1-2.35-1.162l-.362-1.071A22.5,22.5,0,0,0,138.8,15.28l-2.589-7.655,2.107-.712a1.855,1.855,0,0,1,2.35,1.162Z" transform="translate(-117.084 -6.404)" opacity="0.1"/>
      <path id="Trazado_814710" data-name="Trazado 814710" d="M85.808,41.345V71.1a1.853,1.853,0,0,1-1.853,1.853H63.3A1.853,1.853,0,0,1,61.45,71.1V41.345A1.853,1.853,0,0,1,63.3,39.492H83.955A1.853,1.853,0,0,1,85.808,41.345Z" transform="translate(-56.818 -36.557)" fill="#e8f1f8"/>
      <path id="Trazado_814711" data-name="Trazado 814711" d="M85.828,41.335V71.087a1.855,1.855,0,0,1-1.853,1.853H63.323a1.853,1.853,0,0,1-1.853-1.853V69.956A22.505,22.505,0,0,0,81.75,47.563V39.482h2.224A1.855,1.855,0,0,1,85.828,41.335Z" transform="translate(-56.837 -36.547)" opacity="0.1"/>
      <path id="Trazado_814712" data-name="Trazado 814712" d="M458.643,277.1h3.6v15.55h-3.6Z" transform="translate(-423.323 -255.803)" fill="#0e9c4a"/>
      <path id="Trazado_814713" data-name="Trazado 814713" d="M462.252,292.647V277.1h-3.595v2.1a11.954,11.954,0,0,1,1.151,13.45Z" transform="translate(-423.336 -255.803)" opacity="0.12"/>
      <path id="Trazado_814714" data-name="Trazado 814714" d="M462.241,478.351v1.4a.673.673,0,0,1-.673.673h-2.25a.673.673,0,0,1-.673-.673v-1.4Z" transform="translate(-423.324 -441.508)" fill="#474747"/>
      <path id="Trazado_814715" data-name="Trazado 814715" d="M462.253,254.1l-1.341-1.7a.581.581,0,0,0-.913,0l-1.341,1.7Z" transform="translate(-423.337 -232.81)" fill="#f1b2a3"/>
      <path id="Trazado_814716" data-name="Trazado 814716" d="M120.439,93.45a1.539,1.539,0,0,1-1.539,1.539H103.949a1.539,1.539,0,1,1,0-3.078H118.9A1.539,1.539,0,0,1,120.439,93.45Z" transform="translate(-94.614 -84.925)" fill="#f14f4a"/>
      <path id="Trazado_814717" data-name="Trazado 814717" d="M230.023,349.29a.41.41,0,0,0-.579,0l-.761.762-.761-.762a.41.41,0,0,0-.579.579l.761.762-.761.762a.41.41,0,0,0,.579.579l.761-.762.761.762a.41.41,0,0,0,.579-.579l-.761-.762.761-.762A.409.409,0,0,0,230.023,349.29Z" transform="translate(-209.782 -322.307)"/>
      <path id="Trazado_814718" data-name="Trazado 814718" d="M290.793,310.126a.409.409,0,0,0-.579,0l-.761.762-.761-.762a.41.41,0,0,0-.579.579l.761.762-.761.762a.41.41,0,0,0,.579.579l.761-.762.761.762a.41.41,0,1,0,.579-.579l-.761-.762.761-.762A.409.409,0,0,0,290.793,310.126Z" transform="translate(-265.857 -286.169)"/>
      <path id="Trazado_814719" data-name="Trazado 814719" d="M181.982,221.528a1.6,1.6,0,1,0,1.528-1.671A1.6,1.6,0,0,0,181.982,221.528Zm1.6-.853a.782.782,0,1,1-.778.818A.787.787,0,0,1,183.578,220.675Z" transform="translate(-168.036 -202.984)"/>
      <path id="Trazado_814720" data-name="Trazado 814720" d="M113.891,321.787a1.6,1.6,0,0,0-1.012,2.78,1.587,1.587,0,0,0,1.079.422l.07,0a1.6,1.6,0,0,0,1.018-2.779A1.575,1.575,0,0,0,113.891,321.787Zm.1,2.381a.781.781,0,0,1-.811-.744.783.783,0,0,1,.744-.818h.034a.782.782,0,0,1,.032,1.563Z" transform="translate(-103.797 -297.038)"/>
      <path id="Trazado_814721" data-name="Trazado 814721" d="M177.371,222.439a.409.409,0,0,0,0-.579l-1.878-1.877a.409.409,0,0,0-.579,0l-1.871,1.871a.41.41,0,1,0,.579.579l1.175-1.175v.62A3.129,3.129,0,0,1,171.671,225a3.95,3.95,0,0,0-3.945,3.945v3.061a1.611,1.611,0,1,0,.819.005V228.95a3.129,3.129,0,0,1,3.126-3.126,3.95,3.95,0,0,0,3.945-3.945v-.615l1.176,1.175A.409.409,0,0,0,177.371,222.439Zm-8.455,11.088a.782.782,0,0,1-1.563.066h0a.782.782,0,1,1,1.563-.066Z" transform="translate(-153.783 -202.991)"/>
      <path id="Trazado_814722" data-name="Trazado 814722" d="M157.284,154.128a.409.409,0,0,0-.41-.41h-10.3a.41.41,0,1,0,0,.819h10.3A.409.409,0,0,0,157.284,154.128Z" transform="translate(-134.987 -141.957)"/>
      <path id="Trazado_814723" data-name="Trazado 814723" d="M457.666,244.7l-1.341-1.7a.983.983,0,0,0-.37-.287v-.037a.41.41,0,1,0-.819,0v.038a.987.987,0,0,0-.368.287l-1.341,1.7a.435.435,0,0,0-.089.253V261.9a1.084,1.084,0,0,0,1.083,1.083h2.251a1.084,1.084,0,0,0,1.083-1.083V244.952A.438.438,0,0,0,457.666,244.7Zm-2.253-1.2a.172.172,0,0,1,.269,0l.819,1.041h-1.907Zm1.523,18.4a.264.264,0,0,1-.263.264h-2.251a.264.264,0,0,1-.264-.264v-.991h2.778Zm0-1.811h-2.778V245.362h2.778Z" transform="translate(-418.428 -223.659)"/>
      <path id="Trazado_814724" data-name="Trazado 814724" d="M114.005,86.61H99.055a1.949,1.949,0,1,0,0,3.9h14.95a1.949,1.949,0,1,0,0-3.9Zm0,3.078H99.055a1.129,1.129,0,1,1,0-2.259h14.95a1.129,1.129,0,1,1,0,2.259Z" transform="translate(-89.719 -80.034)"/>
      <path id="Trazado_814725" data-name="Trazado 814725" d="M28.641,4.025H25.807l-.332-.985A2.263,2.263,0,0,0,22.6,1.619L15.493,4.025H7.99A2.266,2.266,0,0,0,5.727,6.288V7.326l-2.683.909a2.267,2.267,0,0,0-1.42,2.871l4.1,12.129v12.8A2.266,2.266,0,0,0,7.99,38.3h2.831l.336.988a2.262,2.262,0,0,0,2.866,1.416l7.109-2.4h7.508A2.266,2.266,0,0,0,30.9,36.039V35l2.685-.906A2.265,2.265,0,0,0,35,31.223l-4.1-12.13V6.288a2.266,2.266,0,0,0-2.263-2.263ZM5.727,20.678,2.4,10.844a1.447,1.447,0,0,1,.907-1.833l2.42-.82ZM22.867,2.4A1.446,1.446,0,0,1,24.7,3.3l.244.724H18.049ZM13.76,39.93a1.443,1.443,0,0,1-1.827-.9l-.246-.725h6.888Zm16.324-3.89a1.445,1.445,0,0,1-1.444,1.444H7.99a1.445,1.445,0,0,1-1.444-1.444V6.288A1.445,1.445,0,0,1,7.99,4.844H28.641a1.445,1.445,0,0,1,1.444,1.444Zm4.143-4.553a1.444,1.444,0,0,1-.9,1.828l-2.422.818V21.652Z" transform="translate(-1.505 -1.499)"/>
    </g>
  </g>
</svg>
