<svg xmlns="http://www.w3.org/2000/svg" width="43.829" height="43.828" viewBox="0 0 43.829 43.828">
  <g id="sistema-de-gestion-de-contenidos" transform="translate(-1 -1)">
    <g id="Grupo_1068571" data-name="Grupo 1068571" transform="translate(1.707 1.707)">
      <g id="Grupo_1068559" data-name="Grupo 1068559" transform="translate(4.241 0)">
        <path id="Trazado_814788" data-name="Trazado 814788" d="M33.449,2H10.828A2.827,2.827,0,0,0,8,4.828V33.21a1.311,1.311,0,0,0,2.481.587c.12-.24.233-.481.346-.728V7.655H33.449V21.171a1.5,1.5,0,0,1,2.559-1.06l.269.269V4.828A2.827,2.827,0,0,0,33.449,2Z" transform="translate(-8 -2)" fill="#969faa"/>
      </g>
      <g id="Grupo_1068560" data-name="Grupo 1068560" transform="translate(12.329 28.277)">
        <path id="Trazado_814789" data-name="Trazado 814789" d="M38.923,49.069l-3.358-.481a5.648,5.648,0,0,1-2.821-1.251l-1.435-1.2a5.662,5.662,0,0,0-2.99-1.265l-.742-.042a1.381,1.381,0,0,1-.763-2.531l.262-.177a1.842,1.842,0,0,1,.2-.12H19.454l.346,4.482c.021.311.035.622.035.94a12.08,12.08,0,0,1-.4,3.061H41.277Z" transform="translate(-19.44 -42)" fill="#969faa"/>
      </g>
      <g id="Grupo_1068561" data-name="Grupo 1068561" transform="translate(7.069 5.655)">
        <path id="Trazado_814790" data-name="Trazado 814790" d="M34.621,10H12V35.406a21.325,21.325,0,0,0,1.28-3.655l.53-2.114a1.648,1.648,0,0,1,1.6-1.258,1.659,1.659,0,0,1,1.654,1.527l.205,2.715H34.621Z" transform="translate(-12 -10)" fill="#69d6f4"/>
      </g>
      <g id="Grupo_1068562" data-name="Grupo 1068562" transform="translate(18.38 22.621)">
        <path id="Trazado_814791" data-name="Trazado 814791" d="M30.828,35.414v1.414H28V34h1.414Z" transform="translate(-28 -34)" fill="#ff826e"/>
      </g>
      <g id="Grupo_1068563" data-name="Grupo 1068563" transform="translate(12.724 22.621)">
        <path id="Trazado_814792" data-name="Trazado 814792" d="M20,34h2.828v2.828H20Z" transform="translate(-20 -34)" fill="#ff826e"/>
      </g>
      <g id="Grupo_1068564" data-name="Grupo 1068564" transform="translate(9.897 8.483)">
        <path id="Trazado_814793" data-name="Trazado 814793" d="M16,14h8.483v8.483H16Z" transform="translate(-16 -14)" fill="#d3a06c"/>
      </g>
      <g id="Grupo_1068565" data-name="Grupo 1068565" transform="translate(12.724 8.483)">
        <path id="Trazado_814794" data-name="Trazado 814794" d="M20,14h2.828v2.828H20Z" transform="translate(-20 -14)" fill="#b27946"/>
      </g>
      <g id="Grupo_1068566" data-name="Grupo 1068566" transform="translate(15.552 31.104)">
        <path id="Trazado_814795" data-name="Trazado 814795" d="M29.655,46.042v2.785H24V46h5.019A4.809,4.809,0,0,1,29.655,46.042Z" transform="translate(-24 -46)" fill="#e6e9ed"/>
      </g>
      <g id="Grupo_1068567" data-name="Grupo 1068567" transform="translate(31.811 27.57)">
        <path id="Trazado_814796" data-name="Trazado 814796" d="M57.6,43.121V55.138l-8.25-4.948L47,48.776,54.776,41Z" transform="translate(-47 -41)" fill="#b4dd7f"/>
      </g>
      <g id="Grupo_1068568" data-name="Grupo 1068568" transform="translate(2.828 39.587)">
        <path id="Trazado_814797" data-name="Trazado 814797" d="M6,58h8.483v2.828H6Z" transform="translate(-6 -58)" fill="#b4dd7f"/>
      </g>
      <g id="Grupo_1068569" data-name="Grupo 1068569" transform="translate(16.259 16.966)">
        <path id="Trazado_814798" data-name="Trazado 814798" d="M38.87,29.266a1.5,1.5,0,0,1,2.121-2.121l.269.269,4.835,4.835a5.675,5.675,0,0,1,1.251,1.895l.983,2.46L40.552,44.38,37.194,43.9a5.648,5.648,0,0,1-2.821-1.251l-1.435-1.2a5.662,5.662,0,0,0-2.99-1.265v-.042h-.742a1.381,1.381,0,0,1-.763-2.531l.262-.177a1.841,1.841,0,0,1,.2-.12,4.923,4.923,0,0,1,6.023.735l-4.977-4.977-1.414-1.414-2.828-2.828-.269-.269a1.5,1.5,0,0,1,2.121-2.121l5.655,5.655a1.5,1.5,0,0,1,2.121-2.121,1.5,1.5,0,0,1,2.121-2.121Z" transform="translate(-25 -26)" fill="#f0d0b4"/>
      </g>
      <g id="Grupo_1068570" data-name="Grupo 1068570" transform="translate(0 19.673)">
        <path id="Trazado_814799" data-name="Trazado 814799" d="M14.689,42.915c.021.311.035.622.035.94a12.08,12.08,0,0,1-.4,3.061,12.521,12.521,0,0,1-.481,1.485l-.537,1.343H4.828v-.12l-.919-2.3a12.145,12.145,0,0,1-.714-2.531l-1.1-6.6a7.07,7.07,0,0,1,1.986-6.193L6.241,29.83V41.367a1.311,1.311,0,0,0,2.481.587c.12-.24.233-.481.346-.728v-.007a21.325,21.325,0,0,0,1.28-3.655l.53-2.114a1.648,1.648,0,0,1,1.6-1.258,1.659,1.659,0,0,1,1.654,1.527l.205,2.715Z" transform="translate(-2 -29.83)" fill="#f0d0b4"/>
      </g>
    </g>
    <g id="Grupo_1068572" data-name="Grupo 1068572" transform="translate(1 1)">
      <circle id="Elipse_9111" data-name="Elipse 9111" cx="0.956" cy="0.956" r="0.956" transform="translate(12.427 2.724)"/>
      <path id="Trazado_814800" data-name="Trazado 814800" d="M23,5h9.9V6.414H23Z" transform="translate(-7.448 -2.172)"/>
      <path id="Trazado_814801" data-name="Trazado 814801" d="M31,13h7.069v1.414H31Z" transform="translate(-9.793 -4.517)"/>
      <path id="Trazado_814802" data-name="Trazado 814802" d="M39,17h1.414v1.414H39Z" transform="translate(-12.137 -5.689)"/>
      <path id="Trazado_814803" data-name="Trazado 814803" d="M31,17h4.241v1.414H31Z" transform="translate(-9.793 -5.689)"/>
      <path id="Trazado_814804" data-name="Trazado 814804" d="M31,21h7.069v1.414H31Z" transform="translate(-9.793 -6.862)"/>
      <path id="Trazado_814805" data-name="Trazado 814805" d="M31,25h7.069v1.414H31Z" transform="translate(-9.793 -8.034)"/>
      <path id="Trazado_814806" data-name="Trazado 814806" d="M44.829,44.664V31.044L41.877,28.83l-.909-2.273a6.321,6.321,0,0,0-1.409-2.136l-4.627-4.627V4.535A3.539,3.539,0,0,0,31.4,1H8.776A3.539,3.539,0,0,0,5.241,4.535V21.089L3.29,23.04A7.768,7.768,0,0,0,1,28.57a7.921,7.921,0,0,0,.106,1.285l1.1,6.6a12.943,12.943,0,0,0,.75,2.68l.872,2.181v3.516h9.9v-3.4l.488-1.219c.136-.341.252-.689.359-1.038H35.678Zm-1.414-2.5-8.757-5.254,6.7-6.7,2.054,1.541Zm-3.76-15.083.81,2.024-7.2,7.2-3.01-.43a4.95,4.95,0,0,1-2.469-1.1l-1.436-1.2a6.375,6.375,0,0,0-2.732-1.325V32.1H22.176a.674.674,0,0,1-.375-1.236l.264-.176a4.222,4.222,0,0,1,5.328.528l.677.677,1-1-.677-.677L18.9,20.733a.793.793,0,0,1,1.121-1.121l5.655,5.655,3.1,3.1,1-1-3.1-3.1a.793.793,0,0,1,.561-1.353.789.789,0,0,1,.561.232l3.1,3.1,1-1-3.1-3.1a.793.793,0,0,1,1.121-1.121l1.414,1.414,1.682,1.682,1-1L32.336,21.44a.793.793,0,0,1,1.121-1.121l5.1,5.1a4.914,4.914,0,0,1,1.1,1.661Zm-17.48,6.436h.033v1.414H17.966V33.518ZM14.6,27.863h3.369V23.621H13.724v1.993A2.35,2.35,0,0,0,9.9,26.826l-.414,1.657V8.069H30.69V19.835a2.191,2.191,0,0,0-3.527,1.673,2.2,2.2,0,0,0-1.936,1.306l-4.2-4.2a2.276,2.276,0,0,0-.232-.191V9.483H10.9v9.9h6.516a2.068,2.068,0,0,0-.054,1.414H10.9v1.414H18.38l1.414,1.414H19.38v4.241h4.241v-.414l1.138,1.138c-.117-.007-.234-.017-.353-.017a5.605,5.605,0,0,0-2.7.707h-7Zm.541-1.414V25.035h1.414v1.414Zm0-15.552h1.414v1.414H15.138Zm2.828,2.828V10.9H19.38v7.069H12.311V10.9h1.414v2.828Zm2.828,11.311h.414l1,1v.414H20.794ZM6.655,4.535A2.123,2.123,0,0,1,8.776,2.414H31.4a2.123,2.123,0,0,1,2.121,2.121V18.772a2.068,2.068,0,0,0-1.414.054V6.655H8.069V32.6c-.089.193-.175.389-.27.579a.6.6,0,0,1-1.144-.269Zm5.655,38.88H5.241V42h7.069Zm.589-3.728-.361.9H5.061l-.792-1.981A11.574,11.574,0,0,1,3.6,36.22l-1.1-6.6a6.5,6.5,0,0,1-.087-1.053A6.363,6.363,0,0,1,4.29,24.04l.952-.952v9.825a2.018,2.018,0,0,0,3.822.9,22.182,22.182,0,0,0,1.675-4.528l.53-2.119a.95.95,0,0,1,1.868.158l.554,7.191q.033.441.033.885a11.5,11.5,0,0,1-.825,4.285Zm2.019-1.927a12.923,12.923,0,0,0,.22-2.358q0-.5-.038-.993l-.286-3.718h5.423a2.079,2.079,0,0,0-.151.739,2.054,2.054,0,0,0,.122.674H16.552v4.241h7.069V33.722a4.938,4.938,0,0,1,1.827.943l1.436,1.2a6.358,6.358,0,0,0,3.173,1.411l3.219.459.046.028Z" transform="translate(-1 -1)"/>
    </g>
  </g>
</svg>
