<svg id="Grupo_155351" data-name="Grupo 155351" xmlns="http://www.w3.org/2000/svg" width="50.096" height="50.079" viewBox="0 0 50.096 50.079">
  <path id="Trazado_132028" data-name="Trazado 132028" d="M1469.261,1476.61l2.011,6.688h2.667v1.639h-19.965v-1.624h2.661l2.013-6.7H1455.2q-6.809,0-13.619,0a2.48,2.48,0,0,1-2.673-2.66q0-18.187,0-36.373a2.5,2.5,0,0,1,2.728-2.718l44.717,0a2.471,2.471,0,0,1,2.65,2.63q0,18.238,0,36.477a2.476,2.476,0,0,1-2.643,2.64q-8.217,0-16.436,0Zm-28.687-6.713h46.761v-.447q0-15.786,0-31.571c0-1.14-.221-1.352-1.385-1.352h-44.09c-1.038,0-1.284.249-1.284,1.3V1469.9Zm46.754,1.739h-46.749v1.961c0,1.128.217,1.347,1.331,1.347h41.582c.957,0,1.913,0,2.87-.008a.852.852,0,0,0,.96-.871C1487.347,1473.268,1487.329,1472.469,1487.329,1471.636Zm-19.831,4.974c-2.3,0-4.558-.005-6.815.014a.532.532,0,0,0-.363.318c-.224.655-.409,1.324-.607,1.988-.43,1.44-.859,2.879-1.294,4.336h11.072Z" transform="translate(-1438.906 -1434.859)" fill="#12263f"/>
  <path id="Trazado_132029" data-name="Trazado 132029" d="M1613.69,1561.238q-6.183,0-12.366,0a2.477,2.477,0,0,1-2.673-2.66q0-8.636,0-17.273a2.472,2.472,0,0,1,2.621-2.608c3.061,0,6.122,0,9.183,0a2.5,2.5,0,0,1,1.863.786c.7.7,1.411,1.393,2.1,2.109a1.417,1.417,0,0,0,1.11.455c3.531-.011,7.061-.007,10.592-.006a2.468,2.468,0,0,1,2.585,2.589q.007,7.045,0,14.09a2.473,2.473,0,0,1-2.547,2.527q-6.235,0-12.471,0Zm-.009-1.667h12.154c.939,0,1.2-.268,1.2-1.212q0-6.7,0-13.408c0-1-.246-1.245-1.274-1.245-3.477,0-6.955-.006-10.432,0a2.668,2.668,0,0,1-2.005-.832c-.682-.694-1.35-1.407-2.077-2.052a1.765,1.765,0,0,0-1.045-.441c-2.9-.035-5.807-.021-8.711-.019-.9,0-1.171.271-1.171,1.19q0,8.347,0,16.695c0,1.083.23,1.318,1.313,1.318Q1607.655,1559.575,1613.68,1559.572Z" transform="translate(-1581.949 -1527.837)" fill="#12263f"/>
  <path id="Trazado_132030" data-name="Trazado 132030" d="M1497.333,1471.97l-1.232,1.275c-.453-.486-.9-.943-1.32-1.424a.467.467,0,0,0-.628-.13c-.83.353-1.666.692-2.512,1a1,1,0,0,1-.632-.005c-.619-.224-1.208-.539-1.836-.732a1.8,1.8,0,0,1-1.234-1.256c-.272-.766-.633-1.5-.963-2.266-.671,0-1.331-.018-1.99.015-.132.006-.307.185-.371.326-.375.821-.707,1.661-1.089,2.478a1.078,1.078,0,0,1-.488.48c-.74.341-1.492.66-2.257.938a1.235,1.235,0,0,1-.777-.009c-.8-.286-1.59-.605-2.366-.951a.557.557,0,0,0-.756.169c-.321.365-.7.677-1.017,1.047a.626.626,0,0,0-.1.523c.306.83.674,1.637.97,2.47a1.289,1.289,0,0,1-.013.824,7.01,7.01,0,0,1-1.118,2.489,7.1,7.1,0,0,1-2.514,1.182.766.766,0,0,0-.593.907c.049.517-.155,1.159.086,1.528a2.418,2.418,0,0,0,1.369.66,3.446,3.446,0,0,1,2.479,2.486,2.74,2.74,0,0,1-.006,2.492c-.28.494-.425,1.062-.657,1.585a.467.467,0,0,0,.119.631,13.61,13.61,0,0,1,1.07,1.07.47.47,0,0,0,.632.116c.8-.341,1.6-.676,2.415-.97a1.239,1.239,0,0,1,.777-.012c.683.245,1.344.554,2.066.86l-.631,1.543c-.5-.2-.969-.419-1.457-.571a1.214,1.214,0,0,0-.728,0c-.96.355-1.906.744-2.851,1.137a.487.487,0,0,1-.632-.123c-.87-.9-1.773-1.769-2.64-2.673a.66.66,0,0,1-.116-.565c.346-.944.757-1.865,1.094-2.813a1.734,1.734,0,0,0,0-.879,2.266,2.266,0,0,0-1.744-1.824,12.865,12.865,0,0,1-1.961-.837.665.665,0,0,1-.33-.472q-.04-1.9,0-3.809a.662.662,0,0,1,.338-.467c.88-.41,1.771-.8,2.676-1.154a1.432,1.432,0,0,0,.747-.786,2.21,2.21,0,0,0,.028-2.294c-.35-.654-.56-1.381-.849-2.068a.48.48,0,0,1,.1-.634q1.352-1.3,2.656-2.657a.486.486,0,0,1,.636-.105c.9.372,1.805.719,2.7,1.1a1.346,1.346,0,0,0,.99.016,2.438,2.438,0,0,0,1.773-1.753c.205-.677.559-1.307.818-1.97a.48.48,0,0,1,.538-.352c1.235.016,2.47.019,3.7,0a.516.516,0,0,1,.563.391c.373.916.753,1.831,1.174,2.725a1.629,1.629,0,0,0,.585.586,2.386,2.386,0,0,0,2.625.04,15.7,15.7,0,0,1,1.978-.8.52.52,0,0,1,.445.055C1495.846,1470.486,1496.592,1471.237,1497.333,1471.97Z" transform="translate(-1467.491 -1463.421)" fill="#12263f"/>
  <path id="Trazado_132031" data-name="Trazado 132031" d="M1539.337,1539.4c.235.47.473.943.709,1.415a6.782,6.782,0,0,0,0,12.055l-.707,1.421a8.268,8.268,0,0,1-.007-14.891Z" transform="translate(-1524.656 -1528.466)" fill="#12263f"/>
  <path id="Trazado_132032" data-name="Trazado 132032" d="M1650.73,1622.185l-1.2,1.159-4.607-4.665,4.681-4.68,1.03,1.095-3.514,3.492Z" transform="translate(-1623.38 -1595.27)" fill="#12263f"/>
  <path id="Trazado_132033" data-name="Trazado 132033" d="M1789.973,1618.251l-4.687,4.689-1.124-1.076,3.538-3.524-3.63-3.561,1.247-1.207Z" transform="translate(-1747.984 -1594.889)" fill="#12263f"/>
  <path id="Trazado_132034" data-name="Trazado 132034" d="M1720.91,1631.1l-1.471-.826,4.18-7.521,1.476.816Z" transform="translate(-1690.11 -1603.108)" fill="#12263f"/>
</svg>
