<svg id="g1203" xmlns="http://www.w3.org/2000/svg" xmlns:xlink="http://www.w3.org/1999/xlink" width="63.985" height="63.985" viewBox="0 0 63.985 63.985">
  <defs>
    <clipPath id="clip-path">
      <path id="path1209" d="M0-682.665H63.985v63.985H0Z" transform="translate(0 682.665)"/>
    </clipPath>
  </defs>
  <g id="g1205">
    <g id="g1207" clip-path="url(#clip-path)">
      <g id="g1213" transform="translate(6.113 14.737)">
        <path id="path1215" d="M-201.908-303.447a3.8,3.8,0,0,1-1.9-3.291v-.979a2.293,2.293,0,0,1,.807-1.732,9.135,9.135,0,0,0,3.154-6.348.057.057,0,0,1,.057-.053h.034a4.574,4.574,0,0,0,4.574-4.574,2.328,2.328,0,0,0-2.328-2.328h-1.833a.057.057,0,0,1-.042-.018.057.057,0,0,1-.015-.043l.107-1.686a9.713,9.713,0,0,0-9.693-10.331A9.713,9.713,0,0,0-218.68-324.5l.108,1.686a.057.057,0,0,1-.015.043.057.057,0,0,1-.042.018h-1.833a2.328,2.328,0,0,0-2.328,2.328,4.574,4.574,0,0,0,4.574,4.574h.034a.057.057,0,0,1,.057.053,9.136,9.136,0,0,0,3.154,6.348,2.293,2.293,0,0,1,.807,1.732v.979a3.8,3.8,0,0,1-1.9,3.292c1.851.868,4.341,3.125,7.079,3.125s5.228-2.257,7.08-3.125" transform="translate(222.79 334.83)" fill="#fff1dd"/>
      </g>
      <g id="g1217" transform="translate(10.203 14.737)">
        <path id="path1219" d="M-160-211.855a6.78,6.78,0,0,0,2.424-4.733c.2-2.9.435-6.856.434-6.846a9.713,9.713,0,0,0-9.693-10.331,9.714,9.714,0,0,0-9.693,10.332c.212,3.326.344,5.436.432,6.8a6.782,6.782,0,0,0,2.427,4.778,10.674,10.674,0,0,0,13.666,0Z" transform="translate(176.546 233.766)" fill="#557982"/>
      </g>
      <g id="g1221" transform="translate(12.816 14.878)">
        <path id="path1223" d="M-84.687,0a9.685,9.685,0,0,1,3.036,7.691c0-.009-.23,3.946-.434,6.846A6.78,6.78,0,0,1-84.51,19.27l0,0a10.67,10.67,0,0,1-8.933,2.265q.13.12.266.234a10.674,10.674,0,0,0,13.666,0l0,0a6.78,6.78,0,0,0,2.424-4.733c.2-2.9.435-6.856.434-6.847A9.716,9.716,0,0,0-84.687,0" transform="translate(93.445)" fill="#3c5959"/>
      </g>
      <g id="g1225" transform="translate(30.374 13.014)">
        <path id="path1227" d="M-265.869-225.882v-11.284a12.077,12.077,0,0,0-12.077-12.077,12.077,12.077,0,0,0-12.077,12.077v11.284a2.518,2.518,0,0,1-2.518,2.518h-.7a.124.124,0,0,0-.1.194l1,1.5a7.812,7.812,0,0,0,6.5,3.479h15.792a7.813,7.813,0,0,0,6.5-3.479l1-1.5a.125.125,0,0,0-.1-.194h-.7a2.518,2.518,0,0,1-2.518-2.518" transform="translate(293.366 249.243)" fill="#fc0363"/>
      </g>
      <g id="g1229" transform="translate(39.049 40.743)">
        <path id="path1231" d="M-65.214-113.7c3.308,0,6.072-3.567,6.745-6.284a2.645,2.645,0,0,1-1.568-2.416v-3.059a9.121,9.121,0,0,1-5.176,1.6,9.121,9.121,0,0,1-5.176-1.6v3.059a2.645,2.645,0,0,1-1.569,2.416c.673,2.718,3.437,6.284,6.745,6.284" transform="translate(71.958 125.456)" fill="#ffccbf"/>
      </g>
      <g id="g1233" transform="translate(33.51 46.217)">
        <path id="path1235" d="M-118.77-115.015c5.8,0,10.706-5.34,12.284-9.969a9.978,9.978,0,0,0-2.27-.965l-2.919-.834a2.648,2.648,0,0,1-.35-.127,6.757,6.757,0,0,1-6.745,4.754,6.757,6.757,0,0,1-6.745-4.753,2.64,2.64,0,0,1-.349.127l-2.919.834a9.985,9.985,0,0,0-2.271.965c1.578,4.629,6.48,9.969,12.283,9.969" transform="translate(131.053 126.91)" fill="#f0f4f6"/>
      </g>
      <g id="g1237" transform="translate(54.774 46.883)">
        <path id="path1239" d="M-22.972-31.46a10.4,10.4,0,0,0,.928-1.994,9.978,9.978,0,0,0-2.27-.965l-1.034-.3a10.007,10.007,0,0,1,2.376,3.254" transform="translate(25.348 34.713)" fill="#dbebf0"/>
      </g>
      <g id="g1241" transform="translate(28.541 48.143)">
        <path id="path1243" d="M-285.592,0c-1.578,4.629-6.48,8-12.284,8s-10.705-3.375-12.283-8a9.985,9.985,0,0,0-4.97,8.634v6.27h34.381a.126.126,0,0,0,.126-.126V8.635A9.985,9.985,0,0,0-285.592,0" transform="translate(315.129)" fill="#62b5fe"/>
      </g>
      <g id="g1245" transform="translate(28.541 48.143)">
        <path id="path1247" d="M-285.592,0a10.4,10.4,0,0,1-.928,1.994,9.965,9.965,0,0,1,.9,4.141V7.268a5.138,5.138,0,0,1-5.138,5.138h-24.371v2.5h34.381a.126.126,0,0,0,.126-.126V8.635A9.985,9.985,0,0,0-285.592,0" transform="translate(315.129)" fill="#27a3fc"/>
      </g>
      <g id="g1249" transform="translate(0.937 46.121)">
        <path id="path1251" d="M-316.272-17.521l-5.678-1.42a3.8,3.8,0,0,1-.973-.393,17.063,17.063,0,0,1-7.08,1.4,17.065,17.065,0,0,1-7.079-1.4,3.8,3.8,0,0,1-.973.392l-5.678,1.42a6.929,6.929,0,0,0-5.248,6.722v8.242a.149.149,0,0,0,.149.149h37.787a.023.023,0,0,0,.023-.023V-10.8a6.929,6.929,0,0,0-5.248-6.722" transform="translate(348.982 19.333)" fill="#4f66cf"/>
      </g>
      <g id="g1253" transform="translate(19.916 0.937)">
        <path id="path1255" d="M-232.232,0h-23.882a.136.136,0,0,0-.136.136V17.253a.136.136,0,0,0,.136.136h3.122a.136.136,0,0,1,.136.136v4.711a.136.136,0,0,0,.232.1l4.9-4.9a.136.136,0,0,1,.1-.04h15.391a.136.136,0,0,0,.136-.136V.136A.136.136,0,0,0-232.232,0" transform="translate(256.25)" fill="#f0f4f6"/>
      </g>
      <g id="g1257" transform="translate(19.916 0.937)">
        <path id="path1259" d="M-232.232,0h-4.863V11.1a3.79,3.79,0,0,1-3.79,3.79H-256.25v2.363a.136.136,0,0,0,.136.136h3.122a.136.136,0,0,1,.136.136v4.711a.136.136,0,0,0,.232.1l4.9-4.9a.136.136,0,0,1,.1-.04h15.391a.136.136,0,0,0,.136-.136V.136A.136.136,0,0,0-232.232,0" transform="translate(256.25)" fill="#dbebf0"/>
      </g>
      <g id="g1261" transform="translate(23.366 7.838)">
        <path id="path1263" d="M-33.364-16.683a1.725,1.725,0,0,1-1.725,1.725,1.725,1.725,0,0,1-1.725-1.725,1.725,1.725,0,0,1,1.725-1.725,1.725,1.725,0,0,1,1.725,1.725" transform="translate(36.815 18.408)" fill="#557982"/>
      </g>
      <g id="g1265" transform="translate(30.267 7.838)">
        <path id="path1267" d="M-33.364-16.683a1.725,1.725,0,0,1-1.725,1.725,1.725,1.725,0,0,1-1.725-1.725,1.725,1.725,0,0,1,1.725-1.725,1.725,1.725,0,0,1,1.725,1.725" transform="translate(36.815 18.408)" fill="#557982"/>
      </g>
      <g id="g1269" transform="translate(37.169 7.838)">
        <path id="path1271" d="M-33.364-16.683a1.725,1.725,0,0,1-1.725,1.725,1.725,1.725,0,0,1-1.725-1.725,1.725,1.725,0,0,1,1.725-1.725,1.725,1.725,0,0,1,1.725,1.725" transform="translate(36.815 18.408)" fill="#557982"/>
      </g>
      <g id="g1273" transform="translate(39.071 7.847)">
        <path id="path1275" d="M0,0V3.433A1.726,1.726,0,0,0,1.549,1.716,1.726,1.726,0,0,0,0,0" fill="#3c5959"/>
      </g>
      <g id="g1277" transform="translate(36.578 20.007)">
        <path id="path1279" d="M-173.12-92.368a8.35,8.35,0,0,0-3.532-4.141,10.347,10.347,0,0,1-3.087-2.743l-1.961-2.615a.136.136,0,0,0-.218,0l-1.961,2.615a10.344,10.344,0,0,1-3.087,2.743,8.35,8.35,0,0,0-3.531,4.141,7.379,7.379,0,0,0-.513,3.21l.064,1a9.156,9.156,0,0,0,9.138,8.574h0a9.156,9.156,0,0,0,9.138-8.574l.064-1a7.379,7.379,0,0,0-.513-3.21Z" transform="translate(191.025 101.92)" fill="#ffede4"/>
      </g>
      <g id="g1281" transform="translate(0.937 47.559)">
        <path id="path1283" d="M-316.272-3.613l-1.494-.374a6.921,6.921,0,0,1,1.744,4.6v1.5A6.893,6.893,0,0,1-322.916,9h-26.066v2.351a.149.149,0,0,0,.149.149h37.787a.023.023,0,0,0,.023-.023V3.109a6.929,6.929,0,0,0-5.248-6.722" transform="translate(348.982 3.987)" fill="#304ec8"/>
      </g>
      <g id="g1285" transform="translate(39.397 20.007)">
        <path id="path1287" d="M-145.874-92.4v0a8.35,8.35,0,0,0-3.532-4.141,10.345,10.345,0,0,1-3.086-2.743l-1.961-2.615a.136.136,0,0,0-.218,0l-1.3,1.739a10.352,10.352,0,0,0,1.571,1.119,8.349,8.349,0,0,1,3.531,4.14v0a7.378,7.378,0,0,1,.513,3.21l-.064,1a9.157,9.157,0,0,1-9.138,8.573,9.225,9.225,0,0,1-1.4-.106,9.134,9.134,0,0,0,6.4,2.606h0a9.156,9.156,0,0,0,9.138-8.573l.064-1a7.379,7.379,0,0,0-.513-3.21" transform="translate(160.961 101.952)" fill="#ffdecf"/>
      </g>
      <g id="g1289" transform="translate(44.07 13.014)">
        <path id="path1291" d="M-79.017-18.019a12.021,12.021,0,0,0-6.448-1.864,12.179,12.179,0,0,0-1.724.122" transform="translate(87.189 19.883)" fill="none" stroke="#000" stroke-linecap="round" stroke-linejoin="round" stroke-miterlimit="10" stroke-width="1.3"/>
      </g>
      <g id="g1293" transform="translate(50.984 17.915)">
        <path id="path1295" d="M0-252.889H2.706a7.813,7.813,0,0,0,6.5-3.479l1-1.5a.125.125,0,0,0-.1-.193H9.4a2.518,2.518,0,0,1-2.518-2.518v-11.284a12.023,12.023,0,0,0-2.362-7.176" transform="translate(0 279.043)" fill="none" stroke="#000" stroke-linecap="round" stroke-linejoin="round" stroke-miterlimit="10" stroke-width="1.3"/>
      </g>
      <g id="g1297" transform="translate(30.374 18.326)">
        <path id="path1299" d="M-52.346,0a12.021,12.021,0,0,0-2.071,6.765V18.049a2.518,2.518,0,0,1-2.518,2.518h-.7a.124.124,0,0,0-.1.193l1,1.5a7.813,7.813,0,0,0,6.5,3.479h2.707" transform="translate(57.76)" fill="none" stroke="#000" stroke-linecap="round" stroke-linejoin="round" stroke-miterlimit="10" stroke-width="1.3"/>
      </g>
      <g id="g1301" transform="translate(44.932 30.311)">
        <path id="path1303" d="M-16.683,0V1.958a1.493,1.493,0,0,1-1.493,1.493h-.232" transform="translate(18.408)" fill="none" stroke="#000" stroke-linecap="round" stroke-linejoin="round" stroke-miterlimit="10" stroke-width="1.3"/>
      </g>
      <g id="g1305" transform="translate(56.147 59.599)">
        <path id="path1307" d="M0,0V3.449" fill="none" stroke="#000" stroke-linecap="round" stroke-linejoin="round" stroke-miterlimit="10" stroke-width="1.3"/>
      </g>
      <g id="g1309" transform="translate(7.839 59.597)">
        <path id="path1311" d="M0,0V3.449" fill="none" stroke="#000" stroke-linecap="round" stroke-linejoin="round" stroke-miterlimit="10" stroke-width="1.3"/>
      </g>
      <g id="g1313" transform="translate(31.992 59.597)">
        <path id="path1315" d="M0,0V3.449" fill="none" stroke="#000" stroke-linecap="round" stroke-linejoin="round" stroke-miterlimit="10" stroke-width="1.3"/>
      </g>
      <g id="g1317" transform="translate(18.22 42.186)">
        <path id="path1319" d="M-32.791,0a9.19,9.19,0,0,1-1.695.157A9.2,9.2,0,0,1-36.183,0" transform="translate(36.183 0.003)" fill="none" stroke="#000" stroke-linecap="round" stroke-linejoin="round" stroke-miterlimit="10" stroke-width="1.3"/>
      </g>
      <g id="g1321" transform="translate(0.937 46.121)">
        <path id="path1323" d="M-62.094-14.685l-1.173.293A6.929,6.929,0,0,0-68.516-7.67V.573a.149.149,0,0,0,.149.149H-30.58A.023.023,0,0,0-30.558.7V-7.67a6.929,6.929,0,0,0-5.248-6.722l-5.678-1.42a3.793,3.793,0,0,1-.973-.393,17.062,17.062,0,0,1-7.08,1.4,17.065,17.065,0,0,1-7.079-1.4,3.793,3.793,0,0,1-.973.392l-.274.069" transform="translate(68.516 16.204)" fill="none" stroke="#000" stroke-linecap="round" stroke-linejoin="round" stroke-miterlimit="10" stroke-width="1.3"/>
      </g>
      <g id="g1325" transform="translate(19.916 0.937)">
        <path id="path1327" d="M0-109.023v5.978a.136.136,0,0,0,.136.136H3.258a.136.136,0,0,1,.136.136v4.711a.136.136,0,0,0,.232.1l4.9-4.9a.136.136,0,0,1,.1-.04H24.018a.136.136,0,0,0,.136-.136v-17.117a.136.136,0,0,0-.136-.136H.136a.136.136,0,0,0-.136.136v6.765" transform="translate(0 120.298)" fill="none" stroke="#000" stroke-linecap="round" stroke-linejoin="round" stroke-miterlimit="10" stroke-width="1.3"/>
      </g>
      <g id="g1329" transform="translate(23.366 7.838)">
        <path id="path1331" d="M-33.364-16.683a1.725,1.725,0,0,1-1.725,1.725,1.725,1.725,0,0,1-1.725-1.725,1.725,1.725,0,0,1,1.725-1.725A1.725,1.725,0,0,1-33.364-16.683Z" transform="translate(36.815 18.408)" fill="none" stroke="#000" stroke-linecap="round" stroke-linejoin="round" stroke-miterlimit="10" stroke-width="1.3"/>
      </g>
      <g id="g1333" transform="translate(30.267 7.838)">
        <path id="path1335" d="M-33.364-16.683a1.725,1.725,0,0,1-1.725,1.725,1.725,1.725,0,0,1-1.725-1.725,1.725,1.725,0,0,1,1.725-1.725A1.725,1.725,0,0,1-33.364-16.683Z" transform="translate(36.815 18.408)" fill="none" stroke="#000" stroke-linecap="round" stroke-linejoin="round" stroke-miterlimit="10" stroke-width="1.3"/>
      </g>
      <g id="g1337" transform="translate(37.169 7.838)">
        <path id="path1339" d="M-33.364-16.683a1.725,1.725,0,0,1-1.725,1.725,1.725,1.725,0,0,1-1.725-1.725,1.725,1.725,0,0,1,1.725-1.725A1.725,1.725,0,0,1-33.364-16.683Z" transform="translate(36.815 18.408)" fill="none" stroke="#000" stroke-linecap="round" stroke-linejoin="round" stroke-miterlimit="10" stroke-width="1.3"/>
      </g>
      <g id="g1341" transform="translate(44.068 37.169)">
        <path id="path1343" d="M0,0H0A2.44,2.44,0,0,0,3.451,0" fill="none" stroke="#000" stroke-linecap="round" stroke-linejoin="round" stroke-miterlimit="10" stroke-width="1.3"/>
      </g>
      <g id="g1345" transform="translate(36.578 20.007)">
        <path id="path1347" d="M-173.12-92.368a8.35,8.35,0,0,0-3.532-4.141,10.347,10.347,0,0,1-3.087-2.743l-1.961-2.615a.136.136,0,0,0-.218,0l-1.961,2.615a10.344,10.344,0,0,1-3.087,2.743,8.35,8.35,0,0,0-3.531,4.141,7.379,7.379,0,0,0-.513,3.21l.064,1a9.156,9.156,0,0,0,9.138,8.574h0a9.156,9.156,0,0,0,9.138-8.573l.064-1a7.379,7.379,0,0,0-.513-3.21Z" transform="translate(191.025 101.92)" fill="none" stroke="#000" stroke-linecap="round" stroke-linejoin="round" stroke-miterlimit="10" stroke-width="1.3"/>
      </g>
      <g id="g1349" transform="translate(48.402 18.186)">
        <path id="path1351" d="M0,0,1.961,2.615A7.19,7.19,0,0,0,4.116,4.53,11.019,11.019,0,0,1,5.657,5.611" fill="none" stroke="#000" stroke-linecap="round" stroke-linejoin="round" stroke-miterlimit="10" stroke-width="1.3"/>
      </g>
      <g id="g1353" transform="translate(39.049 40.743)">
        <path id="path1355" d="M-15.172,0V3.059a2.645,2.645,0,0,1-1.569,2.416" transform="translate(16.741)" fill="none" stroke="#000" stroke-linecap="round" stroke-linejoin="round" stroke-miterlimit="10" stroke-width="1.3"/>
      </g>
      <g id="g1357" transform="translate(50.971 40.743)">
        <path id="path1359" d="M-15.16-52.932a2.645,2.645,0,0,1-1.568-2.416v-3.059" transform="translate(16.728 58.407)" fill="none" stroke="#000" stroke-linecap="round" stroke-linejoin="round" stroke-miterlimit="10" stroke-width="1.3"/>
      </g>
      <g id="g1361" transform="translate(38.873 48.143)">
        <path id="path1363" d="M-185.69,0c-1.578,4.629-6.48,8-12.284,8a14.114,14.114,0,0,1-6.9-1.764q.005.136.005.272V14.88a.023.023,0,0,1-.023.022l24.049,0a.126.126,0,0,0,.126-.126V8.635A9.985,9.985,0,0,0-185.69,0Z" transform="translate(204.894)" fill="none" stroke="#000" stroke-linecap="round" stroke-linejoin="round" stroke-miterlimit="10" stroke-width="1.3"/>
      </g>
      <g id="g1365" transform="translate(33.811 46.217)">
        <path id="path1367" d="M-234.632-18.621a9.978,9.978,0,0,0-2.27-.965l-2.919-.834a2.63,2.63,0,0,1-.35-.127,6.757,6.757,0,0,1-6.745,4.754,6.757,6.757,0,0,1-6.745-4.753,2.64,2.64,0,0,1-.349.127l-2.919.834a9.984,9.984,0,0,0-1.97.8" transform="translate(258.898 20.547)" fill="none" stroke="#000" stroke-linecap="round" stroke-linejoin="round" stroke-miterlimit="10" stroke-width="1.3"/>
      </g>
      <g id="g1369" transform="translate(6.113 14.737)">
        <path id="path1371" d="M-133.455,0a9.713,9.713,0,0,0-9.692,10.331l.108,1.686a.058.058,0,0,1-.015.043.057.057,0,0,1-.042.018h-1.833a2.328,2.328,0,0,0-2.328,2.328,4.574,4.574,0,0,0,4.574,4.574h.034a.057.057,0,0,1,.057.053,9.136,9.136,0,0,0,3.154,6.348,2.294,2.294,0,0,1,.808,1.733v.979a3.8,3.8,0,0,1-1.9,3.292" transform="translate(147.257)" fill="none" stroke="#000" stroke-linecap="round" stroke-linejoin="round" stroke-miterlimit="10" stroke-width="1.3"/>
      </g>
      <g id="g1373" transform="translate(25.092 18.914)">
        <path id="path1375" d="M-18.4-263.06a3.8,3.8,0,0,1-1.9-3.291v-.979a2.293,2.293,0,0,1,.807-1.732,9.135,9.135,0,0,0,3.154-6.348.057.057,0,0,1,.057-.053h.034a4.574,4.574,0,0,0,4.574-4.574A2.328,2.328,0,0,0-14-282.365h-1.833a.057.057,0,0,1-.042-.018.057.057,0,0,1-.015-.043l.107-1.686a9.662,9.662,0,0,0-1.711-6.154" transform="translate(20.301 290.266)" fill="none" stroke="#000" stroke-linecap="round" stroke-linejoin="round" stroke-miterlimit="10" stroke-width="1.3"/>
      </g>
      <g id="g1377" transform="translate(10.223 25.069)">
        <path id="path1379" d="M0-.009c.212,3.326.344,5.436.431,6.8a6.782,6.782,0,0,0,2.427,4.778,10.674,10.674,0,0,0,13.666,0l0,0a6.78,6.78,0,0,0,2.424-4.733c.2-2.9.435-6.856.434-6.847" transform="translate(0 0.01)" fill="none" stroke="#000" stroke-linecap="round" stroke-linejoin="round" stroke-miterlimit="10" stroke-width="1.3"/>
      </g>
    </g>
  </g>
</svg>
