<svg id="contrato_3_" data-name="contrato (3)" xmlns="http://www.w3.org/2000/svg" width="65.955" height="65.955" viewBox="0 0 65.955 65.955">
  <rect id="Rectángulo_374197" data-name="Rectángulo 374197" width="45.087" height="64.023" transform="translate(10.434 0.966)" fill="#e0f3fc"/>
  <rect id="Rectángulo_374198" data-name="Rectángulo 374198" width="3.865" height="64.023" transform="translate(51.656 0.966)" fill="#abbfcf"/>
  <rect id="Rectángulo_374199" data-name="Rectángulo 374199" width="45.087" height="6.699" transform="translate(10.434 0.966)" fill="#e53366"/>
  <rect id="Rectángulo_374200" data-name="Rectángulo 374200" width="3.865" height="6.699" transform="translate(51.656 0.966)" fill="#ce2960"/>
  <rect id="Rectángulo_374201" data-name="Rectángulo 374201" width="7.755" height="7.755" transform="translate(20.93 13.827)" fill="#fac55a"/>
  <path id="Trazado_815137" data-name="Trazado 815137" d="M24.681,223.816l6.017-7.709a1.933,1.933,0,0,0,.4-1.358l.578-6.235a2,2,0,0,0-.132-.56c-.529-1.337-.973-6.617-1.245-7.557a1.793,1.793,0,0,0-1.632-.73,3.293,3.293,0,0,0-1.8,3.006l-.215,5.711c-1.374,2.4-3.561.923-3.531-.041V192.464l-2.325,1.388-3.745,6.8-2.45,8.793a.515.515,0,0,0-.031.288l2.1,11.638-.9,5.088,7.7,2.126Z" transform="translate(-12.684 -167.671)" fill="#ffc9bd"/>
  <path id="Trazado_815138" data-name="Trazado 815138" d="M65.614,256.993a1.992,1.992,0,0,0-.132-.56c-.529-1.337-.973-6.617-1.245-7.557a1.884,1.884,0,0,0-1.454-.763,27.883,27.883,0,0,0,.253,5.791c.718,3.823-1.021,7.462-2.137,9.274l-6.016,7.709-1.368,5.1,3.888,1.073,1.216-4.766,6.016-7.709a1.933,1.933,0,0,0,.4-1.358Z" transform="translate(-46.62 -216.151)" fill="#ffb0a2"/>
  <path id="Trazado_815139" data-name="Trazado 815139" d="M371.554,223.816l-6.017-7.709a1.933,1.933,0,0,1-.4-1.358l-.578-6.235a2,2,0,0,1,.132-.56c.529-1.337.973-6.617,1.245-7.557a1.793,1.793,0,0,1,1.632-.73,3.293,3.293,0,0,1,1.8,3.006l.215,5.711c1.374,2.4,3.561.923,3.531-.041V192.464l2.325,1.388,3.745,6.8,2.45,8.793a.516.516,0,0,1,.031.288l-2.1,11.638.9,5.088-7.7,2.126Z" transform="translate(-317.595 -167.671)" fill="#ffc9bd"/>
  <path id="Trazado_815140" data-name="Trazado 815140" d="M439.518,209.442l-2.45-8.793-3.745-6.8L431,192.464v4.181l2.084,3.782a2.181,2.181,0,0,1,.19.466l2.382,8.549a.516.516,0,0,1,.031.288l-2.025,11.232a2.089,2.089,0,0,0,.013.81l1.21,5.642,3.469-.958-.9-5.088,2.1-11.638A.514.514,0,0,0,439.518,209.442Z" transform="translate(-375.477 -167.671)" fill="#ffb0a2"/>
  <path id="Trazado_815141" data-name="Trazado 815141" d="M20.919,450.777v3.633a.515.515,0,0,1-.515.515H8.011a.515.515,0,0,1-.5-.642l1.6-6.3a.515.515,0,0,1,.622-.375l7.133,1.762,3.665.906A.515.515,0,0,1,20.919,450.777Z" transform="translate(-6.53 -389.936)" fill="#5a6570"/>
  <path id="Trazado_815142" data-name="Trazado 815142" d="M82.08,462.8v3.633a.515.515,0,0,1-.515.515H77.7a.581.581,0,0,0,.515-.63v-4.437a.687.687,0,0,0-.192-.487l3.665.906A.515.515,0,0,1,82.08,462.8Z" transform="translate(-67.691 -401.954)" fill="#4a535c"/>
  <path id="Trazado_815143" data-name="Trazado 815143" d="M400.7,450.278l10.8-2.667a.515.515,0,0,1,.623.374l1.6,6.3a.515.515,0,0,1-.5.642H400.819a.515.515,0,0,1-.515-.515v-3.633A.515.515,0,0,1,400.7,450.278Z" transform="translate(-348.737 -389.937)" fill="#5a6570"/>
  <path id="Trazado_815144" data-name="Trazado 815144" d="M468.139,454.285l-1.6-6.3a.515.515,0,0,0-.623-.374l-3.14.776,1.493,5.9a.515.515,0,0,1-.5.642h3.865A.515.515,0,0,0,468.139,454.285Z" transform="translate(-403.166 -389.937)" fill="#4a535c"/>
  <path id="Trazado_815145" data-name="Trazado 815145" d="M163.7,109.53a.966.966,0,0,0,.966-.966v-7.754a.966.966,0,0,0-.966-.966h-7.754a.966.966,0,0,0-.966.966v7.754a.966.966,0,0,0,.966.966Zm-6.788-7.754h5.822V107.6h-5.822Z" transform="translate(-135.016 -86.981)"/>
  <path id="Trazado_815146" data-name="Trazado 815146" d="M125.5,195.96a.966.966,0,0,0,.966.966h31.689a.966.966,0,0,0,0-1.932H126.47A.966.966,0,0,0,125.5,195.96Z" transform="translate(-109.337 -169.875)"/>
  <path id="Trazado_815147" data-name="Trazado 815147" d="M126.47,227.984h31.689a.966.966,0,1,0,0-1.932H126.47a.966.966,0,1,0,0,1.932Z" transform="translate(-109.337 -196.932)"/>
  <path id="Trazado_815148" data-name="Trazado 815148" d="M140.468,416.294h-14a.966.966,0,1,0,0,1.932h14a.966.966,0,1,0,0-1.932Z" transform="translate(-109.337 -362.668)"/>
  <path id="Trazado_815149" data-name="Trazado 815149" d="M140.468,446.5h-14a.966.966,0,1,0,0,1.932h14a.966.966,0,1,0,0-1.932Z" transform="translate(-109.337 -388.982)"/>
  <circle id="Elipse_9130" data-name="Elipse 9130" cx="0.966" cy="0.966" r="0.966" transform="translate(4.133 60.997)"/>
  <path id="Trazado_815150" data-name="Trazado 815150" d="M64.473,65.955a1.481,1.481,0,0,0,1.436-1.845l-1.6-6.3a1.48,1.48,0,0,0-.8-.974L62.954,53.7l.3-1.654a.966.966,0,1,0-1.9-.343l-.329,1.824a.967.967,0,0,0,0,.34l.551,3.105-6.027,1.489-.652-2.554a.97.97,0,0,0-.175-.356L48.7,47.842a.959.959,0,0,1-.2-.677.965.965,0,0,0,0-.176l-.569-6.135a1,1,0,0,1,.058-.215,28.77,28.77,0,0,0,.909-5.165c.115-.9.243-1.9.331-2.331a1.63,1.63,0,0,1,.471-.207,2.424,2.424,0,0,1,1.112,1.95.977.977,0,0,0-.006.151l.214,5.711a.968.968,0,0,0,.127.443,2.967,2.967,0,0,0,3.419,1.686,2.557,2.557,0,0,0,1.913-2.1c0-.029,0-.059,0-.089v-14.2l.639.382,3.564,6.469L63.1,42l-1.006,5.581a.966.966,0,1,0,1.9.343l1.028-5.7a1.493,1.493,0,0,0-.064-.751l-2.439-8.753a.962.962,0,0,0-.084-.207l-3.745-6.8a.967.967,0,0,0-.351-.363l-1.854-1.108V.966h0A.966.966,0,0,0,55.52,0H10.434a.966.966,0,0,0-.966.966V9.742a.966.966,0,0,0,1.932,0V8.631H49.482a.966.966,0,0,0,0-1.932H11.4V1.932H54.554V6.7H53.6a.966.966,0,0,0,0,1.932h.95V40.648h0a.9.9,0,0,1-.65.4,1.133,1.133,0,0,1-.96-.623l-.2-5.389A4.28,4.28,0,0,0,50.335,31.1a2.32,2.32,0,0,0-1.773.207,2.07,2.07,0,0,0-1.152,1.15,6.1,6.1,0,0,0-.137.664H18.681a6.146,6.146,0,0,0-.137-.663,2.07,2.07,0,0,0-1.152-1.15,2.32,2.32,0,0,0-1.774-.206,4.28,4.28,0,0,0-2.406,3.932l-.2,5.389a1.13,1.13,0,0,1-.96.623.9.9,0,0,1-.65-.4V13.912h0a.966.966,0,0,0-1.932,0V24.244L7.614,25.352a.968.968,0,0,0-.351.363l-3.745,6.8a.966.966,0,0,0-.084.207L1,41.471a1.5,1.5,0,0,0-.062.76L3,53.7l-.557,3.139a1.48,1.48,0,0,0-.8.974l-1.6,6.3a1.481,1.481,0,0,0,1.436,1.845H64.473m-11.4-9.376.6,2.343-1.943.48A1.479,1.479,0,0,0,50.6,60.841v3.182H15.355V60.841A1.478,1.478,0,0,0,14.228,59.4l-1.943-.48.6-2.343,5.893-7.55a2.885,2.885,0,0,0,.608-1.941l.571-6.157a.967.967,0,0,0,0-.174,2.956,2.956,0,0,0-.2-.83,5.689,5.689,0,0,1-.225-.873H46.42a5.681,5.681,0,0,1-.225.874,2.957,2.957,0,0,0-.2.83.967.967,0,0,0,0,.174l.571,6.157a2.885,2.885,0,0,0,.608,1.942ZM47.007,35.053l-.022.175c-.073.566-.158,1.235-.251,1.894H19.222c-.093-.659-.179-1.328-.251-1.894l-.022-.175ZM2.854,42l2.411-8.653L8.83,26.876l.639-.382v14.2c0,.03,0,.059,0,.089a2.557,2.557,0,0,0,1.913,2.1,2.968,2.968,0,0,0,3.419-1.686.966.966,0,0,0,.127-.443l.214-5.711a.96.96,0,0,0-.006-.151,2.424,2.424,0,0,1,1.111-1.95,1.63,1.63,0,0,1,.472.207c.088.435.216,1.436.331,2.331a28.786,28.786,0,0,0,.909,5.165,1.019,1.019,0,0,1,.058.215l-.569,6.135a.964.964,0,0,0,0,.176.959.959,0,0,1-.2.677L11.236,55.55a.965.965,0,0,0-.175.356l-.652,2.554L4.383,56.971l.551-3.105a.968.968,0,0,0,0-.34Zm7.58,22.025H2.061l1.343-5.3,7.459,1.842.007,0h.007l2.546.629v2.829Zm42.1,0h0V61.194h0l10.014-2.474,1.343,5.3Z" transform="translate(0)"/>
  <circle id="Elipse_9131" data-name="Elipse 9131" cx="0.966" cy="0.966" r="0.966" transform="translate(59.89 60.997)"/>
</svg>
